<svg width="180" height="44" viewBox="0 0 180 44" fill="none" xmlns="http://www.w3.org/2000/svg">
<g clip-path="url(#clip0_1896_6153)">
<path d="M60.2543 0.823547C58.7696 1.30963 57.2638 1.77459 55.7367 2.19727C40.4239 6.27617 24.9414 5.49421 10.9647 0.823547L8.25 18.1113L13.7431 19.5907L18.812 10.3339C20.1694 10.6087 21.5268 10.8412 22.9054 11.0525L24.4748 21.4717L30.1376 21.9577L33.5098 11.9613C34.8884 12.0035 36.2882 12.0035 37.6668 11.9613L41.039 21.9577L46.7018 21.4717L48.2712 11.0314C49.6286 10.82 50.986 10.5875 52.3645 10.3128L57.4335 19.5907L62.9266 18.1325L60.2543 0.823547Z" fill="white"/>
<path d="M49.2256 22L44.1567 31.2779C42.7994 31.0032 41.442 30.7707 40.0634 30.5594L38.4939 20.1191L32.81 19.633L29.4377 29.6295C28.038 29.5872 26.6594 29.5872 25.2808 29.6295L21.9086 19.633L16.2458 20.1191L14.6763 30.5382C13.2978 30.7496 11.9404 30.9821 10.583 31.2568L5.5141 22L0.0209961 23.4794L2.73574 40.7461C16.7124 36.0754 32.1949 35.2934 47.5077 39.3935C49.0348 39.795 50.5406 40.26 52.0252 40.7672L54.74 23.4794L49.2256 22Z" fill="white"/>
<path d="M91.7921 11.6022C91.7921 11.6022 89.3319 8.38977 84.1145 8.38977C78.8759 8.38977 72.0254 11.3697 72.0254 20.7956C72.0254 30.2214 78.8759 33.2859 84.1145 33.2859C89.3531 33.2859 91.0286 30.6018 91.7921 29.2915C91.7921 35.0189 86.5111 37.8086 79.8515 34.5117L76.861 40.9576C85.4506 45.2901 98.1336 44.2968 98.1336 29.3338V8.98153H92.6829L91.7921 11.6022ZM85.4506 26.5441C83.3297 26.5441 80.1272 25.0858 80.1272 20.7956C80.1272 16.5053 83.3297 15.047 85.4506 15.047C87.5715 15.047 90.7741 16.5053 90.7741 20.7956C90.7741 25.0858 87.5715 26.5441 85.4506 26.5441Z" fill="white"/>
<path d="M168.674 12.849L167.359 8.98145H161.909V32.694H169.48V20.7532C169.48 16.6109 173.086 14.6665 176.882 16.1248L180.021 9.383C172.025 5.85358 168.674 12.849 168.674 12.849Z" fill="white"/>
<path d="M156.31 8.98153H150.859L149.947 11.6022C149.947 11.6022 147.487 8.38977 142.269 8.38977C137.031 8.38977 130.18 11.8769 130.18 20.7955C130.18 29.6296 137.031 33.2859 142.269 33.2859C148.399 33.2859 149.947 29.2915 149.947 29.2915V32.7152H156.31V29.3338V8.98153ZM143.605 26.544C141.485 26.544 138.282 25.0858 138.282 20.7955C138.282 16.5053 141.485 15.047 143.605 15.047C145.726 15.047 148.929 16.5053 148.929 20.7955C148.929 25.0858 145.726 26.544 143.605 26.544Z" fill="white"/>
<path d="M115.249 7.86139C105.938 7.86139 101.124 14.4341 101.124 20.5842C101.124 26.7342 105.451 34.0467 114.57 34.0467C123.69 34.0467 126.787 28.108 127.275 27.1569L122.269 23.9022C121.294 25.4662 118.897 27.3049 115.822 27.3049C113.319 27.3049 110.498 25.6775 109.544 22.8455H127.466C127.975 16.1037 124.56 7.86139 115.249 7.86139ZM109.905 17.7099C110.838 15.7867 112.64 14.5187 115.037 14.5187C118.537 14.5187 119.682 17.7099 119.682 17.7099H109.905Z" fill="white"/>
</g>
<defs>
<clipPath id="clip0_1896_6153">
<rect width="180" height="42.3529" fill="white" transform="translate(0 0.823547)"/>
</clipPath>
</defs>
</svg>
