<svg width="20" height="20" viewBox="0 0 20 20" fill="none" xmlns="http://www.w3.org/2000/svg">
<path d="M4.33333 12.3327C5.622 12.3327 6.66667 11.288 6.66667 9.99935C6.66667 8.71068 5.622 7.66602 4.33333 7.66602C3.04467 7.66602 2 8.71068 2 9.99935C2 11.288 3.04467 12.3327 4.33333 12.3327Z" fill="white"/>
<path d="M4.33333 6.00065C5.622 6.00065 6.66667 4.95598 6.66667 3.66732C6.66667 2.37865 5.622 1.33398 4.33333 1.33398C3.04467 1.33398 2 2.37865 2 3.66732C2 4.95598 3.04467 6.00065 4.33333 6.00065Z" fill="white"/>
<path d="M4.33333 18.6667C5.622 18.6667 6.66667 17.622 6.66667 16.3333C6.66667 15.0447 5.622 14 4.33333 14C3.04467 14 2 15.0447 2 16.3333C2 17.622 3.04467 18.6667 4.33333 18.6667Z" fill="white"/>
<path d="M8 2.66602H18V4.66602H8V2.66602Z" fill="white"/>
<path d="M8 9H18V11H8V9Z" fill="white"/>
<path d="M8 15.334H18V17.334H8V15.334Z" fill="white"/>
</svg>
