<svg width="20" height="20" viewBox="0 0 20 20" fill="none" xmlns="http://www.w3.org/2000/svg">
<g clip-path="url(#clip0_4045_15660)">
<path d="M11.3334 20.0007H8.66675C8.11475 20.0007 7.66675 19.553 7.66675 19.0007V18.334H12.3334V19.0007C12.3334 19.553 11.8854 20.0007 11.3334 20.0007Z" fill="white"/>
<path d="M10 4C6.68633 4 4 6.68633 4 10C4 11.2317 4.371 12.377 5.00767 13.3293L7.66667 17H12.3333L14.9923 13.3293C15.629 12.377 16 11.2317 16 10C16 6.68633 13.3137 4 10 4Z" fill="white"/>
<path d="M9.33325 0H10.6666V3H9.33325V0Z" fill="white"/>
<path d="M16.8618 1.86133L17.8046 2.80413L15.4714 5.13732L14.5286 4.19452L16.8618 1.86133Z" fill="white"/>
<path d="M3.13794 1.86133L5.47113 4.19452L4.52833 5.13732L2.19514 2.80413L3.13794 1.86133Z" fill="white"/>
<path d="M17 9H20V10.3333H17V9Z" fill="white"/>
<path d="M0 9H3V10.3333H0V9Z" fill="white"/>
</g>
<defs>
<clipPath id="clip0_4045_15660">
<rect width="20" height="20" fill="white"/>
</clipPath>
</defs>
</svg>
