<svg width="20" height="20" viewBox="0 0 20 20" fill="none" xmlns="http://www.w3.org/2000/svg">
<path d="M10.0003 1.66602C12.2627 1.66602 14.3167 2.57335 15.8197 4.04202L16.7647 3.09702C16.825 3.03668 16.9083 2.99935 17.0003 2.99935C17.1527 2.99935 17.281 3.10135 17.3207 3.24102L18.654 7.90768C18.6627 7.93668 18.667 7.96768 18.667 7.99935C18.667 8.18335 18.5177 8.33268 18.3337 8.33268C18.3017 8.33268 18.271 8.32835 18.242 8.32002L13.5753 6.98668C13.4357 6.94668 13.3337 6.81835 13.3337 6.66602C13.3337 6.57402 13.371 6.49068 13.4313 6.43035L14.4007 5.46102C13.2607 4.35368 11.7113 3.66602 10.0003 3.66602C6.50799 3.66602 3.66699 6.50702 3.66699 9.99935C3.66699 13.4917 6.50799 16.3327 10.0003 16.3327C13.4927 16.3327 16.3337 13.4917 16.3337 9.99935C16.3337 9.83368 16.3213 9.67135 16.3087 9.50902L18.3313 10.0917C18.2813 14.6443 14.5643 18.3327 10.0003 18.3327C5.40533 18.3327 1.66699 14.5943 1.66699 9.99935C1.66699 5.40435 5.40533 1.66602 10.0003 1.66602Z" fill="white"/>
</svg>
