<svg width="20" height="20" viewBox="0 0 20 20" fill="none" xmlns="http://www.w3.org/2000/svg">
<path d="M12.1665 14C11.3382 14 10.6665 13.3283 10.6665 12.5C10.6665 11.6717 11.3382 11 12.1665 11H18.6665V14H12.1665Z" fill="white"/>
<path d="M8.99984 1.66602L5.6665 5.66602H12.3332L8.99984 1.66602Z" fill="white"/>
<path d="M12.1668 9.66732H18.6668V8.66732C18.6668 7.57365 18.0008 6.73432 17.0002 6.33398C17.0002 5.22965 16.1045 4.33398 15.0002 4.33398H12.5242L13.6352 5.66732H15.0002C15.3682 5.66732 15.6668 5.96598 15.6668 6.33398C15.6668 6.70198 15.3682 7.00065 15.0002 7.00065H3.3335C2.9655 7.00065 2.66683 6.70198 2.66683 6.33398C2.66683 5.93432 2.97383 5.66732 3.3335 5.66732H4.36516L5.47616 4.33398H3.3335C2.22916 4.33398 1.3335 5.22965 1.3335 6.33398V16.0007C1.3335 17.105 2.22916 18.0007 3.3335 18.0007H16.6668C17.7762 18.0007 18.6735 17.098 18.6668 15.989V15.334H12.1668C10.6045 15.334 9.3335 14.063 9.3335 12.5007C9.3335 10.9383 10.6045 9.66732 12.1668 9.66732Z" fill="white"/>
</svg>
