<svg width="12" height="12" viewBox="0 0 12 12" fill="none" xmlns="http://www.w3.org/2000/svg">
<path d="M11.25 0.452187C10.925 0.127187 10.4 0.127187 10.075 0.452187L6.00001 4.51885L1.92501 0.443854C1.60001 0.118854 1.07501 0.118854 0.750006 0.443854C0.425006 0.768854 0.425006 1.29385 0.750006 1.61885L4.82501 5.69385L0.750006 9.76885C0.425006 10.0939 0.425006 10.6189 0.750006 10.9439C1.07501 11.2689 1.60001 11.2689 1.92501 10.9439L6.00001 6.86885L10.075 10.9439C10.4 11.2689 10.925 11.2689 11.25 10.9439C11.575 10.6189 11.575 10.0939 11.25 9.76885L7.17501 5.69385L11.25 1.61885C11.5667 1.30219 11.5667 0.768854 11.25 0.452187Z" fill="#858585"/>
</svg>
