<svg width="15" height="14" viewBox="0 0 15 14" fill="none" xmlns="http://www.w3.org/2000/svg">
<path d="M0.833416 7.00001C0.833416 3.31801 3.81808 0.333343 7.50008 0.333343C11.1821 0.333343 14.1667 3.31801 14.1667 7.00001C14.1667 10.682 11.1821 13.6667 7.50008 13.6667C3.81808 13.6667 0.833416 10.682 0.833416 7.00001ZM9.50008 3.66668L9.50008 5.00001L6.83341 5.00001L6.83341 6.33334L9.50008 6.33334L9.50008 7.66668L11.8334 5.66668L9.50008 3.66668ZM5.50008 10.3333L5.50008 9.00001L8.16675 9.00001L8.16675 7.66668L5.50008 7.66668L5.50008 6.33334L3.16675 8.33334L5.50008 10.3333Z" fill="white"/>
</svg>
