<svg width="19" height="19" viewBox="0 0 19 19" fill="none" xmlns="http://www.w3.org/2000/svg">
<path d="M9.25001 0C14.3588 0 18.5 4.14122 18.5 9.24999C18.5 14.3588 14.3588 18.5 9.25001 18.5C7.09335 18.5031 5.00393 17.7496 3.34573 16.3706L3.12003 16.1773L3.95438 14.418C5.14576 15.6391 6.72246 16.411 8.4176 16.6031C10.1128 16.7952 11.8222 16.3958 13.2566 15.4723C14.6911 14.5489 15.7625 13.1581 16.2893 11.5355C16.8161 9.91285 16.7662 8.15803 16.1478 6.56805C15.5295 4.97806 14.3807 3.65055 12.8961 2.81021C11.4114 1.96988 9.68189 1.66835 8.00042 1.95665C6.319 2.24495 4.78879 3.10538 3.66884 4.39229C2.54889 5.67922 1.908 7.31357 1.85464 9.01874L1.85001 9.24999H4.16251L1.65946 14.5373C0.57648 12.9871 -0.00292117 11.1411 1.10749e-05 9.24999C1.10749e-05 4.14122 4.14123 0 9.25001 0ZM10.175 3.7V5.55H12.4875V7.4H7.40001C7.28443 7.39978 7.17297 7.44282 7.08756 7.52071C7.00215 7.59859 6.94899 7.70562 6.93854 7.82069C6.9281 7.93585 6.96113 8.05064 7.03114 8.14259C7.10114 8.23462 7.20303 8.29697 7.31676 8.31759L7.40001 8.325H11.1C11.7133 8.325 12.3015 8.56864 12.7352 9.00228C13.1689 9.43601 13.4125 10.0242 13.4125 10.6375C13.4125 11.2508 13.1689 11.839 12.7352 12.2727C12.3015 12.7063 11.7133 12.95 11.1 12.95H10.175V14.8H8.32501V12.95H6.01251V11.1H11.1C11.2155 11.1002 11.3271 11.0572 11.4125 10.9793C11.4978 10.9014 11.551 10.7944 11.5615 10.6793C11.5719 10.5641 11.5389 10.4493 11.4689 10.3574C11.3989 10.2654 11.2969 10.203 11.1833 10.1824L11.1 10.175H7.40001C6.7867 10.175 6.1985 9.93135 5.76482 9.49771C5.33114 9.06398 5.08751 8.47577 5.08751 7.8625C5.08751 7.24918 5.33114 6.66099 5.76482 6.22731C6.1985 5.79363 6.7867 5.55 7.40001 5.55H8.32501V3.7H10.175Z" fill="#2BD071"/>
</svg>
