<svg width="14" height="16" viewBox="0 0 14 16" fill="none" xmlns="http://www.w3.org/2000/svg">
<path d="M6.00008 9.33333V10.6667C4.93922 10.6667 3.9218 11.0881 3.17165 11.8382C2.42151 12.5884 2.00008 13.6058 2.00008 14.6667H0.666748C0.666748 13.2522 1.22865 11.8956 2.22885 10.8954C3.22904 9.89523 4.58559 9.33333 6.00008 9.33333ZM6.00008 8.66666C3.79008 8.66666 2.00008 6.87666 2.00008 4.66666C2.00008 2.45666 3.79008 0.666664 6.00008 0.666664C8.21008 0.666664 10.0001 2.45666 10.0001 4.66666C10.0001 6.87666 8.21008 8.66666 6.00008 8.66666ZM6.00008 7.33333C7.47341 7.33333 8.66675 6.14 8.66675 4.66666C8.66675 3.19333 7.47341 2 6.00008 2C4.52675 2 3.33341 3.19333 3.33341 4.66666C3.33341 6.14 4.52675 7.33333 6.00008 7.33333ZM10.0001 14.3333L8.04075 15.3633L8.41475 13.182L6.83008 11.6367L9.02075 11.318L10.0001 9.33333L10.9801 11.318L13.1701 11.6367L11.5854 13.182L11.9587 15.3633L10.0001 14.3333Z" fill="#A7A9A9"/>
</svg>
