<svg width="22" height="19" viewBox="0 0 22 19" fill="none" xmlns="http://www.w3.org/2000/svg">
<path d="M1.51239 7.84891C7.41795 5.27594 11.3559 3.57969 13.3263 2.76014C18.9521 0.420173 20.1211 0.0136954 20.883 0.000130124C21.0506 -0.00267881 21.4253 0.0388523 21.668 0.235797C21.873 0.402094 21.9294 0.626737 21.9563 0.784405C21.9833 0.942072 22.0169 1.30124 21.9902 1.58189C21.6854 4.78513 20.3662 12.5586 19.6951 16.1462C19.4111 17.6643 18.852 18.1733 18.3107 18.2231C17.1343 18.3314 16.2409 17.4457 15.1015 16.6988C13.3186 15.53 12.3113 14.8025 10.5807 13.662C8.58058 12.344 9.87715 11.6196 11.017 10.4357C11.3153 10.1259 16.4986 5.41126 16.5989 4.98357C16.6115 4.93008 16.6231 4.7307 16.5046 4.62541C16.3862 4.52013 16.2114 4.55614 16.0852 4.58477C15.9064 4.62535 13.0581 6.50797 7.54035 10.2326C6.73187 10.7878 5.99958 11.0583 5.34347 11.0441C4.62016 11.0285 3.2288 10.6351 2.19447 10.2989C0.925826 9.88651 -0.0824702 9.66848 0.0053297 8.96812C0.0510613 8.60333 0.553413 8.23026 1.51239 7.84891Z" fill="white"/>
</svg>
