<svg width="346" height="42" viewBox="0 0 346 42" fill="none" xmlns="http://www.w3.org/2000/svg">
<g clip-path="url(#clip0_1_2)">
<path d="M32.6429 -0.0848083H9.80538C4.49884 -0.0848083 0.197876 4.21615 0.197876 9.52269V32.3602C0.197876 37.6667 4.49884 41.9677 9.80538 41.9677H32.6429C37.9494 41.9677 42.2504 37.6667 42.2504 32.3602V9.51865C42.2504 4.21615 37.9494 -0.0848083 32.6429 -0.0848083ZM31.9442 34.6379C27.9381 38.644 19.2231 36.4269 12.4829 29.6827C5.73865 22.9385 3.52153 14.2235 7.52768 10.2173C7.83864 9.90634 8.17788 9.63981 8.5373 9.40558C5.71845 13.7348 8.08095 21.634 14.3042 27.8573C20.5275 34.0806 28.4267 36.4431 32.756 33.6242C32.5177 33.9877 32.2511 34.3269 31.9442 34.6379ZM34.9206 31.6575C32.2875 34.2906 27.619 34.234 22.8173 31.9725C30.9386 29.501 30.454 23.9037 30.454 23.9037C25.9835 28.669 19.9985 28.669 17.2725 28.3662C16.6546 27.8452 16.0488 27.2919 15.4592 26.7023C14.8696 26.1127 14.3163 25.5069 13.7954 24.889C13.4925 22.1631 13.4965 16.1781 18.2579 11.7075C18.2579 11.7075 14.276 11.3642 11.546 16.1337C10.5 18.6375 11.546 21.8844 11.546 21.8844C10.8271 20.6608 10.2294 19.6633 9.70441 18.2377C7.93557 13.8358 8.07288 9.67615 10.504 7.245C13.86 3.88904 20.5235 4.90673 26.565 9.2925V9.28846C26.565 9.28846 28.7054 10.7787 30.6317 12.8867C30.6317 12.8867 27.2152 10.4838 25.5352 11.7035C23.6088 13.7429 21.8763 16.7152 21.1373 21.0242C26.8679 20.0469 30.2279 17.3008 32.1825 14.6919C37.1498 20.9556 38.4461 28.1319 34.9206 31.6575Z" fill="#00DC5B"/>
<path d="M283.229 14.0417C283.229 14.0417 281.493 11.7681 277.79 11.7681C274.086 11.7681 269.228 13.8802 269.228 20.58C269.228 27.2798 274.082 29.4525 277.79 29.4525C281.493 29.4525 282.68 27.5464 283.229 26.6094C283.229 30.6802 279.49 32.6631 274.769 30.3248L272.657 34.9004C278.739 37.9737 287.728 37.2669 287.728 26.6377V12.18H283.864L283.229 14.0417ZM278.739 24.6669C277.236 24.6669 274.971 23.6331 274.971 20.58C274.971 17.5269 277.236 16.4931 278.739 16.4931C280.241 16.4931 282.507 17.5269 282.507 20.58C282.503 23.629 280.237 24.6669 278.739 24.6669Z" fill="white"/>
<path d="M337.684 14.9302L336.751 12.18H332.886V29.0365H338.249C338.249 29.0365 338.249 22.9021 338.249 20.5517C338.249 17.6158 340.798 16.2185 343.491 17.2604L345.708 12.4627C340.051 9.96288 337.684 14.9302 337.684 14.9302Z" fill="white"/>
<path d="M67.9835 15.0513C65.3706 9.75692 59.8985 11.5783 58.5739 14.9302L57.641 12.18H53.7762V29.0365H59.1393C59.1393 29.0365 59.1393 22.9021 59.1393 20.5517C59.1393 16.1337 64.0702 16.1337 64.0702 20.3983V29.0365H69.7725V20.3862C69.7725 20.3579 69.7685 20.3296 69.7685 20.3013C69.9543 16.1377 74.6873 16.2185 74.6873 20.4023V29.0365H80.3896V21.6381C80.3896 19.6512 80.527 16.9938 79.4043 15.0513C76.7429 10.4515 70.3339 10.714 67.9835 15.0513Z" fill="white"/>
<path d="M328.917 12.18H325.052L324.422 14.0417C324.422 14.0417 322.685 11.7681 318.982 11.7681C315.279 11.7681 310.42 14.2517 310.42 20.58C310.42 26.8558 315.275 29.4525 318.982 29.4525C323.331 29.4525 324.422 26.6094 324.422 26.6094V29.0365H328.921V26.6377V12.18H328.917ZM319.927 24.6669C318.425 24.6669 316.159 23.6331 316.159 20.58C316.159 17.5269 318.425 16.4931 319.927 16.4931C321.429 16.4931 323.695 17.5269 323.695 20.58C323.695 23.629 321.429 24.6669 319.927 24.6669Z" fill="white"/>
<path d="M109.176 14.9302L108.243 12.18H104.378V29.0365H109.741C109.741 29.0365 109.741 22.9021 109.741 20.5517C109.741 17.6158 112.289 16.2185 114.983 17.2604L117.2 12.4627C111.542 9.96288 109.176 14.9302 109.176 14.9302Z" fill="white"/>
<path d="M100.408 12.18H96.5435L95.9135 14.0417C95.9135 14.0417 94.177 11.7681 90.4737 11.7681C86.7704 11.7681 81.9122 14.2517 81.9122 20.58C81.9122 26.8558 86.7664 29.4525 90.4737 29.4525C94.8231 29.4525 95.9135 26.6094 95.9135 26.6094V29.0365H100.412V26.6377V12.18H100.408ZM91.4227 24.6669C89.9204 24.6669 87.6549 23.6331 87.6549 20.58C87.6549 17.5269 89.9204 16.4931 91.4227 16.4931C92.9251 16.4931 95.1906 17.5269 95.1906 20.58C95.1866 23.629 92.921 24.6669 91.4227 24.6669Z" fill="white"/>
<path d="M217.33 12.18H213.465L212.835 14.0417C212.835 14.0417 211.098 11.7681 207.395 11.7681C203.692 11.7681 198.834 14.2517 198.834 20.58C198.834 26.8558 203.688 29.4525 207.395 29.4525C211.745 29.4525 212.835 26.6094 212.835 26.6094V29.0365H217.334V26.6377V12.18H217.33ZM208.344 24.6669C206.842 24.6669 204.576 23.6331 204.576 20.58C204.576 17.5269 206.842 16.4931 208.344 16.4931C209.847 16.4931 212.112 17.5269 212.112 20.58C212.108 23.629 209.843 24.6669 208.344 24.6669Z" fill="white"/>
<path d="M180.552 11.7681C176.848 11.7681 175.112 14.0417 175.112 14.0417L174.482 12.18H170.617V24.4731V36.4915H175.98V27.8169C176.763 28.5923 178.165 29.4485 180.556 29.4485C184.263 29.4485 189.117 26.8517 189.117 20.576C189.109 14.2517 184.255 11.7681 180.552 11.7681ZM179.603 24.6669C178.1 24.6669 175.835 23.6331 175.835 20.58C175.835 17.5269 178.1 16.4931 179.603 16.4931C181.105 16.4931 183.37 17.5269 183.37 20.58C183.366 23.629 181.101 24.6669 179.603 24.6669Z" fill="white"/>
<path d="M299.844 11.3925C293.249 11.3925 289.848 16.069 289.848 20.4346C289.848 24.8002 292.906 29.9977 299.367 29.9977C305.829 29.9977 308.026 25.7775 308.365 25.095L304.827 22.785C304.137 23.8915 302.444 25.2081 300.268 25.2081C298.495 25.2081 296.496 24.0531 295.825 22.046H308.494C308.858 17.2402 306.434 11.3925 299.844 11.3925ZM296.064 18.3952C296.718 17.0342 298.01 16.1337 299.694 16.1337C302.174 16.1337 302.986 18.3952 302.986 18.3952H296.064Z" fill="white"/>
<path d="M248.071 11.3925C241.476 11.3925 238.075 16.069 238.075 20.4346C238.075 24.8002 241.133 29.9977 247.594 29.9977C254.056 29.9977 256.253 25.7775 256.592 25.095L253.054 22.785C252.364 23.8915 250.671 25.2081 248.495 25.2081C246.722 25.2081 244.723 24.0531 244.052 22.046H256.721C257.084 17.2402 254.661 11.3925 248.071 11.3925ZM244.291 18.3952C244.945 17.0342 246.237 16.1337 247.921 16.1337C250.401 16.1337 251.213 18.3952 251.213 18.3952H244.291Z" fill="white"/>
<path d="M145.033 11.3925C138.438 11.3925 135.038 16.069 135.038 20.4346C135.038 24.8002 138.095 29.9977 144.557 29.9977C151.018 29.9977 153.215 25.7775 153.554 25.095L150.017 22.785C149.326 23.8915 147.634 25.2081 145.457 25.2081C143.684 25.2081 141.685 24.0531 141.015 22.046H153.684C154.051 17.2402 151.628 11.3925 145.033 11.3925ZM141.253 18.3952C141.908 17.0342 143.2 16.1337 144.884 16.1337C147.368 16.1337 148.175 18.3952 148.175 18.3952H141.253Z" fill="white"/>
<path d="M196.936 2.41096H191.056V29.0365H196.936V2.41096Z" fill="white"/>
<path d="M164.05 7.07539L158.687 8.15366V12.18H155.529V16.4769H158.687V29.0365H164.05V16.4769H168.537V12.18H164.05V7.07539Z" fill="white"/>
<path d="M264.361 29.4113C265.945 29.0371 266.927 27.4493 266.552 25.8648C266.178 24.2802 264.59 23.299 263.006 23.6732C261.421 24.0473 260.44 25.6352 260.814 27.2197C261.188 28.8042 262.776 29.7855 264.361 29.4113Z" fill="white"/>
<path d="M134.436 11.8529H127.967L123.751 16.9494V7.07539H118.388V29.0365H123.751V21.5937L128.807 29.0365H135.038L128.403 19.2756L134.436 11.8529Z" fill="white"/>
<path d="M228.581 24.78C226.99 24.78 224.583 23.7462 224.583 20.6931C224.583 17.64 226.986 16.6062 228.581 16.6062C229.748 16.6062 231.347 17.1675 232.119 18.6617L236.064 15.4956C234.392 13.02 231.561 11.3925 228.347 11.3925C223.21 11.3925 219.042 15.5562 219.042 20.6971C219.042 25.834 223.206 30.0017 228.347 30.0017C231.751 30.0017 234.724 28.1723 236.347 25.4463L232.26 22.4094C231.565 24.1419 229.829 24.78 228.581 24.78Z" fill="white"/>
</g>
<defs>
<clipPath id="clip0_1_2">
<rect width="345.692" height="42" fill="white"/>
</clipPath>
</defs>
</svg>
