<svg width="25" height="24" fill="none" xmlns="http://www.w3.org/2000/svg"><path fill-rule="evenodd" clip-rule="evenodd" d="M10.357 2a.718.718 0 0 0-.711.712v1.972c-.121.047-.246.084-.364.137-.281.125-.554.27-.818.427-.264.157-.52.33-.764.517-.095.073-.179.155-.27.232L5.727 4.963a.714.714 0 0 0-.985.254L2.595 8.924a.714.714 0 0 0 .27.98l1.855 1.05c-.012.086-.028.17-.036.258a7.904 7.904 0 0 0-.042.79c0 .264.015.53.042.792.008.087.03.171.041.258l-1.86 1.043a.715.715 0 0 0-.27.977l2.147 3.71a.715.715 0 0 0 .98.26l1.703-1.007c.094.078.183.163.28.237a7.85 7.85 0 0 0 1.582.923c.115.05.236.087.353.132l.006 1.961c.001.39.321.71.711.712h4.287a.718.718 0 0 0 .712-.712l.005-1.961c.118-.045.238-.082.353-.133a7.902 7.902 0 0 0 1.582-.922c.098-.073.185-.159.28-.237l1.703 1.007a.713.713 0 0 0 .98-.26l2.146-3.71a.715.715 0 0 0-.269-.977l-1.861-1.043c.012-.087.033-.171.042-.258.026-.263.043-.528.043-.791 0-.264-.017-.529-.043-.791-.009-.087-.025-.172-.037-.258l1.856-1.05a.715.715 0 0 0 .27-.98L20.26 5.217a.715.715 0 0 0-.987-.254L17.57 5.997c-.091-.077-.175-.16-.27-.232-.243-.187-.5-.36-.764-.517a7.858 7.858 0 0 0-.816-.427c-.118-.053-.243-.09-.364-.137V2.712A.717.717 0 0 0 14.644 2h-4.287Zm.712 1.43h2.857v1.75c0 .312.207.59.506.68.242.075.478.167.708.27.23.102.453.213.67.341.215.129.422.274.622.427.2.153.387.315.569.491.232.228.592.27.87.1l1.518-.927 1.419 2.451-1.662.939a.715.715 0 0 0-.347.764c.043.213.079.429.1.644.022.214.031.427.031.643 0 .215-.014.428-.036.643a6.481 6.481 0 0 1-.095.643.716.716 0 0 0 .347.765l1.656.933-1.418 2.457-1.518-.896a.716.716 0 0 0-.86.095 6.463 6.463 0 0 1-2.568 1.508.716.716 0 0 0-.507.68v1.74H11.07v-1.74a.716.716 0 0 0-.507-.68 6.428 6.428 0 0 1-.705-.264 6.37 6.37 0 0 1-1.292-.755c-.2-.15-.388-.315-.57-.49a.716.716 0 0 0-.86-.094l-1.518.896-1.419-2.457 1.656-.933a.716.716 0 0 0 .347-.765 6.46 6.46 0 0 1-.13-1.286 6.418 6.418 0 0 1 .13-1.287.715.715 0 0 0-.347-.764l-1.662-.939 1.42-2.451 1.519.928A.716.716 0 0 0 8 7.39c.18-.177.37-.339.569-.492.2-.153.406-.298.622-.427.216-.128.44-.24.67-.342.23-.102.465-.194.707-.269.297-.093.5-.37.5-.68V3.43Zm.02 5.704a.714.714 0 0 0-.447.154l-2.859 2.14a.715.715 0 0 0 0 1.144l2.859 2.141a.714.714 0 1 0 .86-1.14l-2.099-1.57 2.098-1.577a.715.715 0 0 0-.411-1.292Zm2.8.006a.715.715 0 0 0-.39 1.286l2.1 1.577-2.1 1.57a.715.715 0 1 0 .86 1.14l2.858-2.141a.715.715 0 0 0 0-1.144l-2.859-2.14a.714.714 0 0 0-.468-.148Z" fill="#fff"/></svg>