<svg width="20" height="21" fill="none" xmlns="http://www.w3.org/2000/svg"><path d="m19.842 10.915-5 5.626a.618.618 0 0 1-.69.168.627.627 0 0 1-.402-.584v-3.75H6.875a.625.625 0 0 1-.625-.625v-2.5a.625.625 0 0 1 .625-.625h6.875v-3.75a.624.624 0 0 1 1.092-.415l5 5.625a.626.626 0 0 1 0 .83ZM6.875 16.75H3.75V4.25h3.125a.625.625 0 0 0 .625-.625v-2.5A.625.625 0 0 0 6.875.5H.625A.625.625 0 0 0 0 1.125v18.75a.625.625 0 0 0 .625.625h6.25a.625.625 0 0 0 .625-.625v-2.5a.625.625 0 0 0-.625-.625Z" fill="#fff"/></svg>