<svg width="24" height="24" viewBox="0 0 24 24" fill="none" xmlns="http://www.w3.org/2000/svg">
<path fill-rule="evenodd" clip-rule="evenodd" d="M22 10.5C22 12.9985 19.8807 15 17.2941 15H13V16.1707C13.8524 16.472 14.528 17.1476 14.8293 18H20V20H14.8293C14.4175 21.1652 13.3062 22 12 22C10.6938 22 9.58254 21.1652 9.17071 20H4V18H9.17071C9.47199 17.1476 10.1476 16.472 11 16.1707V15H7.23529C4.3563 15 2 12.7746 2 10C2 7.6561 3.69192 5.67388 5.99746 5.14064C7.17872 3.22079 9.47052 2 12 2C14.9807 2 17.5932 3.69385 18.4931 6.14742C20.5172 6.65541 22 8.41553 22 10.5ZM13 19C13 19.5523 12.5523 20 12 20C11.4477 20 11 19.5523 11 19C11 18.4477 11.4477 18 12 18C12.5523 18 13 18.4477 13 19ZM17.6067 8.01645C18.9741 8.16144 20 9.23821 20 10.5C20 11.8675 18.8009 13 17.2941 13H7.23529C5.43611 13 4 11.6437 4 10C4 8.51381 5.18083 7.24132 6.77279 7.03035L7.30012 6.96046L7.53689 6.48412C8.27095 5.00734 10.0135 4 12 4C14.3464 4 16.3114 5.4006 16.7378 7.24705L16.8982 7.94132L17.6067 8.01645Z" fill="white" fill-opacity="0.8"/>
</svg>
