<svg width="22" height="21" viewBox="0 0 22 21" fill="none" xmlns="http://www.w3.org/2000/svg">
<g clip-path="url(#clip0_5805_82848)">
<path d="M14.0052 4.78486H8.02991C8.12365 4.52238 8.20568 4.27397 8.30176 4.03024C8.64314 3.15999 9.05248 2.32959 9.71024 1.64605C9.72821 1.6273 9.74696 1.60855 9.76493 1.59058C10.5633 0.804706 11.4343 0.803925 12.2343 1.58902C12.6803 2.02727 13.0217 2.54285 13.2857 3.10375C13.5389 3.64277 13.756 4.19819 14.0052 4.78486Z" fill="currentColor"/>
<path d="M8.01904 17.2066H13.9701C13.8764 17.4682 13.7944 17.7174 13.6983 17.9612C13.3593 18.8244 12.9538 19.6501 12.3039 20.3313C12.2726 20.3641 12.2406 20.3969 12.207 20.4282C11.4125 21.1836 10.5673 21.1805 9.78062 20.4149C9.18223 19.8329 8.79008 19.115 8.4651 18.3588C8.30652 17.9901 8.1745 17.6104 8.01904 17.2066Z" fill="currentColor"/>
<path d="M15.4575 17.2097H18.8338C17.5355 18.801 15.9434 19.8923 13.9694 20.5399C14.6716 19.4822 15.1138 18.3705 15.4567 17.2097H15.4575Z" fill="currentColor"/>
<path d="M18.8158 4.79033C18.2627 4.79033 17.737 4.79033 17.2112 4.79033C16.6777 4.79033 16.1449 4.78877 15.6113 4.79189C15.5199 4.79189 15.4535 4.78564 15.4223 4.67784C15.0942 3.55761 14.6544 2.48582 14.0037 1.5023C15.0692 1.52183 18.0026 3.52012 18.8158 4.79111V4.79033Z" fill="currentColor"/>
<path d="M7.96745 1.47184C7.68778 2.02102 7.39015 2.54754 7.14798 3.09828C6.90816 3.64355 6.72536 4.21303 6.51365 4.7833H3.16626C4.45991 3.19124 6.05275 2.10304 7.96745 1.47184Z" fill="currentColor"/>
<path d="M7.98075 20.5008C6.05668 19.8907 4.4654 18.801 3.17175 17.2151C3.25143 17.2081 3.29909 17.2003 3.34674 17.2003C4.35525 17.2003 5.36299 17.2003 6.3715 17.1995C6.46368 17.1995 6.54336 17.1917 6.5793 17.3144C6.90662 18.4354 7.34721 19.5064 7.98153 20.5008H7.98075Z" fill="currentColor"/>
</g>
<path fill-rule="evenodd" clip-rule="evenodd" d="M1 6C0.447715 6 0 6.44772 0 7V15C0 15.5523 0.447716 16 1 16H21C21.5523 16 22 15.5523 22 15V7C22 6.44772 21.5523 6 21 6H1ZM2.80282 14.5C2.42415 14.5 2.10035 14.4249 1.83144 14.2748C1.56252 14.1247 1.35672 13.8791 1.21403 13.538C1.07134 13.19 1 12.7261 1 12.1462C1 11.5594 1.08232 11.0682 1.24696 10.6725C1.4116 10.27 1.63661 9.96637 1.92199 9.76169C2.21286 9.55019 2.54488 9.44444 2.91807 9.44444C3.12113 9.44444 3.30223 9.47173 3.46139 9.52631C3.62603 9.58089 3.77969 9.66276 3.92238 9.77192V7.8655C3.92238 7.66364 4.05401 7.5 4.21639 7.5H4.95374C5.11612 7.5 5.24775 7.66364 5.24775 7.8655V14.0321C5.24775 14.234 5.11612 14.3976 4.95374 14.3976H4.10349L4.0294 13.9883C3.87025 14.1588 3.69189 14.2885 3.49432 14.3772C3.29675 14.459 3.06625 14.5 2.80282 14.5ZM3.1815 13.3026C3.47236 13.3026 3.71933 13.1798 3.92238 12.9342V10.9693C3.73579 10.7578 3.49706 10.652 3.20619 10.652C2.9263 10.652 2.71227 10.7851 2.56409 11.0512C2.4214 11.3104 2.35006 11.6788 2.35006 12.1564C2.35006 12.6204 2.41866 12.9274 2.55586 13.0775C2.69855 13.2276 2.9071 13.3026 3.1815 13.3026ZM18.7938 14.5C18.4426 14.5 18.1133 14.4659 17.806 14.3977C17.5041 14.3363 17.2434 14.2442 17.0239 14.1213V13.2752C17.0239 13.0124 17.2415 12.8332 17.4434 12.911C17.5647 12.9577 17.6911 12.9996 17.8224 13.0366C18.1188 13.1184 18.3987 13.1594 18.6621 13.1594C18.9914 13.1594 19.2356 13.1218 19.3947 13.0468C19.5594 12.9717 19.6417 12.808 19.6417 12.5556C19.6417 12.385 19.6005 12.2485 19.5182 12.1462C19.4414 12.0439 19.3124 11.9552 19.1313 11.8801C18.9557 11.7983 18.7142 11.7027 18.4069 11.5936C18.0447 11.4571 17.7566 11.307 17.5425 11.1433C17.3285 10.9727 17.1748 10.768 17.0815 10.5293C16.9882 10.2905 16.9416 9.99709 16.9416 9.64914C16.9416 9.02146 17.1227 8.54047 17.4849 8.20616C17.8471 7.87185 18.3822 7.7047 19.0902 7.7047C19.3975 7.7047 19.6966 7.7354 19.9875 7.7968C20.1795 7.83284 20.3477 7.87335 20.4919 7.91831C20.6146 7.95659 20.6954 8.09736 20.6954 8.25468V8.866C20.6954 9.12395 20.4856 9.30137 20.2854 9.23383C20.1838 9.19957 20.0818 9.17086 19.9792 9.14768C19.7432 9.0931 19.5127 9.06581 19.2877 9.06581C18.9914 9.06581 18.7499 9.09992 18.5633 9.16814C18.3822 9.23637 18.2916 9.39329 18.2916 9.6389C18.2916 9.78218 18.3246 9.89816 18.3904 9.98686C18.4563 10.0687 18.5688 10.1438 18.7279 10.212C18.8926 10.2802 19.1149 10.3621 19.3947 10.4576C19.8283 10.6009 20.1603 10.7749 20.3908 10.9795C20.6213 11.1774 20.7805 11.4094 20.8683 11.6754C20.9561 11.9347 21 12.2281 21 12.5556C21 13.1355 20.8189 13.6062 20.4567 13.9678C20.0945 14.3226 19.5402 14.5 18.7938 14.5ZM11.5432 8.17254C11.5432 7.97069 11.6748 7.80705 11.8372 7.80705H12.6792L14.9348 11.7471V8.17254C14.9348 7.97069 15.0664 7.80705 15.2288 7.80705H15.9744C16.1367 7.80705 16.2684 7.97069 16.2684 8.17254V14.0322C16.2684 14.234 16.1367 14.3977 15.9744 14.3977H15.1241L12.8685 10.4679V14.0322C12.8685 14.234 12.7369 14.3977 12.5745 14.3977H11.8372C11.6748 14.3977 11.5432 14.234 11.5432 14.0322V8.17254ZM6.08459 14.0322C6.08459 14.234 6.21622 14.3977 6.37859 14.3977H8.38133C9.19905 14.3977 9.81646 14.1384 10.2335 13.6199C10.6561 13.1014 10.8674 12.2758 10.8674 11.1433C10.8674 10.3382 10.7714 9.6935 10.5793 9.20909C10.3872 8.71786 10.1073 8.36309 9.73962 8.14477C9.37193 7.91962 8.91916 7.80705 8.38133 7.80705H6.37859C6.21622 7.80705 6.08459 7.97069 6.08459 8.17254V14.0322ZM8.20023 13.1287H7.40995V9.07605H8.20023C8.50756 9.07605 8.75727 9.13745 8.94935 9.26026C9.14692 9.37624 9.28961 9.58433 9.37741 9.88453C9.47071 10.1779 9.51736 10.5975 9.51736 11.1433C9.51736 11.6823 9.46522 12.095 9.36095 12.3816C9.26217 12.6681 9.11399 12.866 8.91642 12.9752C8.72434 13.0775 8.48561 13.1287 8.20023 13.1287Z" fill="currentColor"/>
<defs>
<clipPath id="clip0_5805_82848">
<rect width="20" height="19.9922" fill="white" transform="translate(1 1)"/>
</clipPath>
</defs>
</svg>
