<svg width="20" height="19" fill="none" xmlns="http://www.w3.org/2000/svg"><path fill-rule="evenodd" clip-rule="evenodd" d="M10 .333a9.167 9.167 0 1 1 0 18.334A9.167 9.167 0 0 1 10 .333ZM2.554 8.59c.243.31.919.708 1.953 1.033.407.128.852.24 1.33.336a22.627 22.627 0 0 1-.004-.459c0-2.773.505-5.277 1.379-6.965A7.508 7.508 0 0 0 2.554 8.59Zm3.387 3.086c-1.339-.233-2.486-.585-3.356-1.038a7.51 7.51 0 0 0 4.627 5.827c-.638-1.232-1.08-2.9-1.271-4.79Zm1.708.222c.747.067 1.535.102 2.35.102.803 0 1.594-.046 2.355-.13C11.978 14.868 10.94 17 10 17c-.937 0-1.972-2.119-2.351-5.102Zm4.84-1.727c-.792.102-1.633.162-2.49.162-.87 0-1.705-.043-2.487-.124-.008-.233-.012-.47-.012-.709C7.5 5.32 8.828 2 10 2s2.5 3.32 2.5 7.5c0 .226-.004.45-.012.67Zm1.577 1.435c-.188 1.918-.632 3.611-1.279 4.859a7.508 7.508 0 0 0 4.647-5.968c-.884.46-2.047.844-3.368 1.109ZM17.44 8.55c-.392.44-1.629.963-3.277 1.328.002-.125.003-.251.003-.378 0-2.773-.504-5.277-1.379-6.965A7.508 7.508 0 0 1 17.44 8.55Z" fill="#fff" fill-opacity=".8"/></svg>