<svg width="18" height="16" fill="none" xmlns="http://www.w3.org/2000/svg"><path d="M17.582 3.129A4.444 4.444 0 0 0 13.333 0H4.444A4.445 4.445 0 0 0 .196 3.129 4.62 4.62 0 0 0 0 4.444v7.112A4.446 4.446 0 0 0 4.444 16h8.89a4.446 4.446 0 0 0 4.444-4.444V4.444a4.617 4.617 0 0 0-.196-1.315ZM4.444 1.778h8.89a2.674 2.674 0 0 1 2.63 2.24L8.89 7.876 1.813 4.018a2.674 2.674 0 0 1 2.631-2.24ZM16 11.556a2.674 2.674 0 0 1-2.667 2.666H4.444a2.674 2.674 0 0 1-2.666-2.666v-5.53l6.684 3.645a.905.905 0 0 0 .854 0L16 6.027v5.529Z" fill="#D1D1D1"/></svg>