<svg width="18" height="18" viewBox="0 0 18 18" fill="none" xmlns="http://www.w3.org/2000/svg">
<path d="M17.7643 9.431L8.52867 0.195333C8.40367 0.0703333 8.234 0 8.05733 0H0.666667C0.298667 0 0 0.298667 0 0.666667V8.05733C0 8.234 0.0703333 8.40367 0.195333 8.52867L9.431 17.7643C9.582 17.9153 9.78633 18 10 18C10.2137 18 10.418 17.9153 10.569 17.7643L17.7643 10.569C17.915 10.418 18 10.2137 18 10C18 9.78633 17.915 9.582 17.7643 9.431ZM3.66667 5C2.93033 5 2.33333 4.403 2.33333 3.66667C2.33333 2.93033 2.93033 2.33333 3.66667 2.33333C4.403 2.33333 5 2.93033 5 3.66667C5 4.403 4.403 5 3.66667 5Z" fill="white"/>
</svg>
