<svg width="64" height="18" viewBox="0 0 64 18" fill="none" xmlns="http://www.w3.org/2000/svg">
<path d="M5.62624 7.66089H0V17.9998H5.62624V7.66089Z" fill="#A8F593"/>
<path d="M40.4206 0H22.3882V3.18908H40.4206V0Z" fill="#A8F593"/>
<path d="M40.4206 7.40698H22.3882V10.5961H40.4206V7.40698Z" fill="#A8F593"/>
<path d="M40.4206 14.8108H22.3882V17.9999H40.4206V14.8108Z" fill="#A8F593"/>
<path d="M10.3359 0C15.3176 0 19.3571 4.03005 19.3571 9C19.3571 13.97 15.3176 18 10.3359 18V0Z" fill="#A8F593"/>
<path d="M2.81312 5.61305C4.36676 5.61305 5.62624 4.35652 5.62624 2.80652C5.62624 1.25652 4.36676 0 2.81312 0C1.25948 0 0 1.25652 0 2.80652C0 4.35652 1.25948 5.61305 2.81312 5.61305Z" fill="#A8F593"/>
<path d="M52.9635 0L42.5474 18H63.3797L52.9635 0Z" fill="#A8F593"/>
</svg>
