<svg width="30" height="73" viewBox="0 0 30 73" fill="none" xmlns="http://www.w3.org/2000/svg">
<g clip-path="url(#clip0_12_397)">
<path fill-rule="evenodd" clip-rule="evenodd" d="M29.13 58.1069C29.13 50.2443 22.7557 43.87 14.8931 43.87C7.0305 43.87 0.65625 50.2443 0.65625 58.1069C0.65625 65.9695 7.0305 72.3438 14.8931 72.3438C22.7557 72.3438 29.13 65.9695 29.13 58.1069ZM27.7939 58.0488C27.7939 50.924 22.0179 45.1487 14.8938 45.1487C7.76965 45.1487 1.99303 50.924 1.99303 58.0488C1.99303 65.1736 7.7683 70.9488 14.8931 70.9488C22.0179 70.9488 27.7939 65.1736 27.7939 58.0488ZM26.8056 58.1069C26.8056 51.5277 21.4723 46.1944 14.8931 46.1944C8.3139 46.1944 2.98064 51.5277 2.98064 58.1069C2.98064 64.6861 8.3139 70.0194 14.8931 70.0194C21.4723 70.0194 26.8056 64.6861 26.8056 58.1069ZM25.3533 58.0775C25.3533 52.2849 20.6571 47.5887 14.8644 47.5887C9.07178 47.5887 4.37556 52.2849 4.37556 58.0775C4.37556 63.8701 9.07114 68.5664 14.8644 68.5664C20.6577 68.5664 25.3533 63.8708 25.3533 58.0775ZM16.8276 58.1656C16.8276 58.7486 16.8763 59.3148 16.9691 59.8631L15.5034 59.019C15.4848 58.7339 15.4754 58.4488 15.4754 58.1656C15.4754 57.5026 15.5302 56.8281 15.635 56.1765L9.94248 59.4538L19.4184 64.9098L18.0642 65.6897L7.25547 59.4664L7.27758 59.4538L7.25615 59.4417L20.3005 51.931V53.4901L17.2515 55.2456C16.9751 56.1604 16.8276 57.138 16.8276 58.1656ZM19.441 51.4455L6.81214 58.7172V57.1581L18.0869 50.6663L19.441 51.4455ZM13.0428 58.6624L18.2285 61.6479C17.9053 60.5795 17.761 59.3221 17.761 58.1356C17.761 58.0394 17.7624 57.9433 17.7644 57.8471C17.7804 57.1734 17.8519 56.4922 17.9741 55.8399L19.7042 54.8437C19.3323 55.8633 19.1133 56.9671 19.1133 58.1356C19.1133 59.8637 19.5419 61.4509 20.2871 62.8331L20.2477 62.8111L20.2998 62.8412V64.4003L11.688 59.4417L13.0428 58.6624Z" fill="url(#paint0_linear_12_397)"/>
<path fill-rule="evenodd" clip-rule="evenodd" d="M16.3074 36.6807V34.0704L12.5039 35.3822L16.3074 36.6807ZM19.4598 33.0442L17.7736 33.6252V37.1389L19.4598 37.7202V39.7177L10.2958 36.4723V34.2786L19.4598 31.0467V33.0442Z" fill="url(#paint1_linear_12_397)"/>
<path fill-rule="evenodd" clip-rule="evenodd" d="M18.4744 28.8566C17.8029 29.5136 16.9117 29.8421 15.8008 29.8416C14.6899 29.841 13.7989 29.5128 13.1278 28.8566C12.4554 28.2002 12.1193 27.3494 12.1198 26.3037C12.1198 25.431 12.3309 24.7009 12.7532 24.1128C13.1755 23.5247 13.7737 23.1323 14.5479 22.9357V24.9036C13.9541 25.1365 13.6571 25.6026 13.6571 26.3015C13.6571 26.8282 13.8487 27.2406 14.2319 27.539C14.6151 27.8371 15.138 27.9861 15.8008 27.9861C16.4645 27.9861 16.9877 27.8371 17.3704 27.539C17.7531 27.2406 17.9434 26.8288 17.9414 26.3037C17.9414 25.6121 17.6402 25.1461 17.0375 24.9059V22.9357C17.751 23.1183 18.3806 23.5407 18.8212 24.1325C19.2611 24.7239 19.481 25.4479 19.481 26.3037C19.481 27.3488 19.1455 28.1999 18.4744 28.8566Z" fill="url(#paint2_linear_12_397)"/>
<path fill-rule="evenodd" clip-rule="evenodd" d="M17.3843 16.2605C17.0055 15.8755 16.485 15.6831 15.8227 15.6831C15.1605 15.6831 14.6397 15.8755 14.2605 16.2605C14.0812 16.4357 13.9386 16.645 13.841 16.8762C13.7434 17.1074 13.6929 17.356 13.6922 17.6069C13.6916 17.858 13.741 18.1066 13.8374 18.3384C13.9339 18.5701 14.0755 18.7802 14.2539 18.956C14.6292 19.3363 15.1478 19.5264 15.8095 19.5264C16.4713 19.5264 16.9943 19.334 17.3784 18.9495C17.5596 18.7763 17.7038 18.5676 17.8026 18.337C17.9014 18.1061 17.9526 17.8575 17.9531 17.6063C17.9537 17.3551 17.9036 17.1065 17.8058 16.875C17.7081 16.6439 17.5647 16.4349 17.3843 16.2605ZM18.5104 20.4689C17.8075 21.1216 16.91 21.4476 15.8176 21.4473C14.7253 21.4468 13.8323 21.1228 13.1388 20.4753C12.4443 19.8276 12.097 19.0044 12.097 18.0057C12.097 17.007 12.5076 16.245 13.3287 15.72H12.2019V13.8806H19.4598V15.72H18.2413C19.124 16.272 19.5651 17.0387 19.5646 18.0197C19.5641 19.0005 19.2127 19.8169 18.5104 20.4689Z" fill="url(#paint3_linear_12_397)"/>
<path fill-rule="evenodd" clip-rule="evenodd" d="M19.5331 11.5999V9.76054H10.3691V11.5999H19.5331Z" fill="url(#paint4_linear_12_397)"/>
<path fill-rule="evenodd" clip-rule="evenodd" d="M17.355 2.74929C16.9762 2.36426 16.4557 2.17216 15.7935 2.17301C15.1312 2.17301 14.6105 2.3651 14.2312 2.74929C14.0517 2.92422 13.9089 3.13404 13.8113 3.36551C13.7135 3.59585 13.6629 3.84447 13.6623 4.09563C13.6617 4.34707 13.7111 4.59541 13.8076 4.82772C13.9042 5.05891 14.0459 5.26873 14.2246 5.44535C14.599 5.82504 15.1175 6.01545 15.7802 6.01629C16.443 6.01629 16.9659 5.82419 17.3491 5.43944C17.5303 5.26591 17.6748 5.05751 17.7737 4.82688C17.8726 4.59626 17.9239 4.34707 17.9245 4.09563C17.9251 3.84504 17.8751 3.59585 17.7773 3.36466C17.6796 3.13319 17.5361 2.92422 17.3557 2.74985L17.355 2.74929ZM18.4363 6.93204C17.734 7.58426 16.8359 7.91051 15.7421 7.91107C14.6483 7.91163 13.7551 7.58735 13.0626 6.93879C12.3681 6.29051 12.0208 5.46757 12.0208 4.46885C12.0208 3.46985 12.4313 2.70851 13.2525 2.18257H12.1286V0.343757L19.3864 0.343757V2.18257L18.1687 2.18257C19.0485 2.73522 19.4884 3.50107 19.4884 4.48207C19.4884 5.46307 19.1379 6.27954 18.4371 6.93204H18.4363Z" fill="url(#paint5_linear_12_397)"/>
</g>
<defs>
<linearGradient id="paint0_linear_12_397" x1="27.4526" y1="49.9103" x2="1.94239" y2="66.5588" gradientUnits="userSpaceOnUse">
<stop offset="0.0076157" stop-color="#645AFF"/>
<stop offset="0.5038" stop-color="#E40C5B"/>
<stop offset="1" stop-color="#FF4C3B"/>
</linearGradient>
<linearGradient id="paint1_linear_12_397" x1="20.7427" y1="-4.12979" x2="0.207273" y2="2.00174" gradientUnits="userSpaceOnUse">
<stop offset="0.01" stop-color="#645AFF"/>
<stop offset="0.5" stop-color="#E40C5B"/>
<stop offset="1" stop-color="#FF4C3B"/>
</linearGradient>
<linearGradient id="paint2_linear_12_397" x1="20.7427" y1="-4.12979" x2="0.207269" y2="2.00174" gradientUnits="userSpaceOnUse">
<stop offset="0.01" stop-color="#645AFF"/>
<stop offset="0.5" stop-color="#E40C5B"/>
<stop offset="1" stop-color="#FF4C3B"/>
</linearGradient>
<linearGradient id="paint3_linear_12_397" x1="20.7427" y1="-4.12984" x2="0.207266" y2="2.0017" gradientUnits="userSpaceOnUse">
<stop offset="0.01" stop-color="#645AFF"/>
<stop offset="0.5" stop-color="#E40C5B"/>
<stop offset="1" stop-color="#FF4C3B"/>
</linearGradient>
<linearGradient id="paint4_linear_12_397" x1="20.7427" y1="-4.12986" x2="0.207262" y2="2.00167" gradientUnits="userSpaceOnUse">
<stop offset="0.01" stop-color="#645AFF"/>
<stop offset="0.5" stop-color="#E40C5B"/>
<stop offset="1" stop-color="#FF4C3B"/>
</linearGradient>
<linearGradient id="paint5_linear_12_397" x1="20.7427" y1="-4.12981" x2="0.207269" y2="2.00173" gradientUnits="userSpaceOnUse">
<stop offset="0.01" stop-color="#645AFF"/>
<stop offset="0.5" stop-color="#E40C5B"/>
<stop offset="1" stop-color="#FF4C3B"/>
</linearGradient>
<clipPath id="clip0_12_397">
<rect width="72" height="28.6875" fill="white" transform="translate(0.65625 72.3438) rotate(-90)"/>
</clipPath>
</defs>
</svg>
