<svg width="72" height="16" viewBox="0 0 72 16" fill="none" xmlns="http://www.w3.org/2000/svg">
<g clip-path="url(#clip0_11_192)">
<path d="M36.6991 2.08068C36.12 2.08068 35.6505 2.54645 35.6505 3.12101V4.8549H38.7962L38.0972 6.9356H35.6505V15.2583H33.5534V3.12101C33.5534 1.39732 34.9618 0 36.6991 0H39.1457L38.4467 2.08068H36.6991Z" fill="black"/>
<path fill-rule="evenodd" clip-rule="evenodd" d="M16.7768 0.693558H22.0195C24.3359 0.693558 26.2136 2.55666 26.2136 4.8549C26.2136 6.01729 25.7333 7.06839 24.9588 7.82339C25.9357 8.58531 26.5631 9.76839 26.5631 11.0969C26.5631 13.3952 24.6854 15.2583 22.369 15.2583H16.7768V0.693558ZM18.8738 2.77423H22.0195C23.1777 2.77423 24.1166 3.70578 24.1166 4.8549C24.1166 6.00403 23.1777 6.9356 22.0195 6.9356H18.8738V2.77423ZM18.8738 9.01626V13.1776H22.369C23.5272 13.1776 24.4661 12.2461 24.4661 11.0969C24.4661 9.94782 23.5272 9.01626 22.369 9.01626H18.8738Z" fill="black"/>
<path d="M30.7574 0.693558H28.6602V2.77423H30.7574V0.693558Z" fill="black"/>
<path d="M30.7574 4.8549H28.6602V15.2583H30.7574V4.8549Z" fill="black"/>
<path d="M40.5437 4.8549V15.2583H42.6408V6.93561H45.437L46.136 4.8549H40.5437Z" fill="black"/>
<path fill-rule="evenodd" clip-rule="evenodd" d="M55.9225 9.9699C55.9225 12.8906 54.2374 15.2583 51.2039 15.2583C48.1708 15.2583 46.4855 12.8906 46.4855 9.9699C46.4855 7.04923 48.1708 4.68152 51.2039 4.68152C54.2374 4.68152 55.9225 7.04923 55.9225 9.9699ZM53.8255 9.9699C53.8255 11.0524 53.5122 11.8721 53.0869 12.3806C52.6978 12.8455 52.1175 13.1776 51.2039 13.1776C50.2903 13.1776 49.71 12.8455 49.3209 12.3806C48.8956 11.8721 48.5823 11.0524 48.5823 9.9699C48.5823 8.88738 48.8956 8.06767 49.3209 7.55919C49.71 7.09429 50.2903 6.76218 51.2039 6.76218C52.1175 6.76218 52.6978 7.09429 53.0869 7.55919C53.5122 8.06767 53.8255 8.88738 53.8255 9.9699Z" fill="black"/>
<path d="M63.6132 8.01837C63.6022 7.87103 63.5612 7.72746 63.4926 7.59619C63.4177 7.43712 63.3195 7.28979 63.2017 7.15885C62.9542 6.88992 62.6376 6.69319 62.2862 6.58981C62.0983 6.53488 61.9047 6.50088 61.7093 6.48849C61.4947 6.47599 61.2796 6.48105 61.066 6.5037C60.6979 6.53078 60.3441 6.65433 60.0399 6.86165C59.9364 6.94066 59.8501 7.03941 59.7862 7.15213C59.7324 7.24926 59.698 7.35597 59.6856 7.46616C59.6866 7.47684 59.6866 7.48757 59.6856 7.49825V7.53878C59.6842 7.57087 59.6842 7.60301 59.6856 7.63505C59.6904 7.68698 59.7018 7.73805 59.72 7.78702C59.761 7.88996 59.8244 7.98275 59.9054 8.0589C60.1992 8.31195 60.541 8.50425 60.9111 8.62455C61.1237 8.70056 61.3483 8.76641 61.58 8.8272L61.7503 8.8694L61.9372 8.91331C62.0716 8.94202 62.2061 8.97244 62.3425 9.0062C62.6128 9.07205 62.887 9.14634 63.1693 9.23584C63.4678 9.32534 63.7586 9.43829 64.039 9.57357C64.3685 9.73287 64.6703 9.94382 64.9321 10.1983C65.2287 10.4918 65.448 10.8531 65.5706 11.2504C65.6297 11.4361 65.6693 11.6273 65.6898 11.8211C65.7112 12.01 65.7146 12.2006 65.6998 12.3902C65.665 12.7881 65.5443 13.1739 65.346 13.5215C65.1548 13.8536 64.9025 14.1469 64.6021 14.3861C64.3213 14.6071 64.0085 14.7853 63.6747 14.9146C63.0753 15.1343 62.4416 15.2486 61.8027 15.2524C61.1604 15.2835 60.5182 15.1918 59.9107 14.9822C59.2617 14.7494 58.6833 14.3558 58.2308 13.839C58.0077 13.5811 57.816 13.2977 57.6606 12.9947C57.5027 12.6775 57.3883 12.3408 57.3206 11.9933L59.2827 11.6877C59.3027 11.8532 59.3476 12.0148 59.4153 12.1673C59.5226 12.4154 59.6794 12.6394 59.8768 12.8254C60.0738 13.0115 60.3069 13.1558 60.562 13.2497C60.944 13.3858 61.3483 13.4461 61.7536 13.427C62.1627 13.4256 62.5675 13.3436 62.9447 13.1855C63.2346 13.0721 63.4749 12.8618 63.6251 12.5911C63.6819 12.4823 63.7157 12.3635 63.7257 12.2416C63.7295 12.1724 63.7295 12.1031 63.7257 12.0339C63.72 11.9687 63.7081 11.9043 63.69 11.8414C63.6604 11.7382 63.6065 11.6434 63.5336 11.5644C63.4239 11.4512 63.2961 11.3566 63.1555 11.2841C62.7544 11.0813 62.3301 10.9282 61.8914 10.8282L61.5323 10.7404L61.3349 10.6965L61.129 10.6492C60.8515 10.5833 60.5725 10.5057 60.2898 10.4111C59.9956 10.3197 59.7085 10.2067 59.4305 10.0734C59.1153 9.91998 58.8235 9.72396 58.5627 9.49084C58.2509 9.213 58.0101 8.86496 57.8618 8.47597C57.7883 8.2811 57.7392 8.07811 57.7154 7.87146C57.7025 7.77457 57.6958 7.67701 57.6949 7.57931V7.42396C57.6949 7.36655 57.6949 7.3142 57.7082 7.25512C57.755 6.84839 57.8975 6.45835 58.1255 6.117C58.3434 5.78961 58.628 5.51124 58.9609 5.29973C59.5454 4.94821 60.2082 4.74523 60.8905 4.70869C61.1995 4.6804 61.5099 4.67419 61.8199 4.69012C62.1474 4.70894 62.4722 4.76272 62.7883 4.85051C63.4525 5.02918 64.06 5.37196 64.5544 5.84683C64.8038 6.08777 65.0217 6.35894 65.2029 6.65394C65.3998 6.97327 65.5429 7.32235 65.6268 7.68741L63.6132 8.01837Z" fill="black"/>
<path d="M67.4564 12.1372V2.77423H69.5534V4.8549H72V6.9356H69.5534V12.1372C69.5534 12.7118 70.0231 13.1776 70.6019 13.1776H72V15.2583H70.6019C68.8649 15.2583 67.4564 13.861 67.4564 12.1372Z" fill="black"/>
<path d="M6.99029 15.2583H0L10.4854 4.8549H13.9806L6.99029 15.2583Z" fill="url(#paint0_linear_11_192)"/>
</g>
<defs>
<linearGradient id="paint0_linear_11_192" x1="6.99029" y1="4.8549" x2="6.99029" y2="15.2583" gradientUnits="userSpaceOnUse">
<stop stop-color="#7AEDCF"/>
<stop offset="0.201333" stop-color="#68CEFA"/>
<stop offset="0.403244" stop-color="#689CF8"/>
<stop offset="0.602076" stop-color="#AC57C0"/>
<stop offset="0.801867" stop-color="#E65659"/>
<stop offset="1" stop-color="#F2C241"/>
</linearGradient>
<clipPath id="clip0_11_192">
<rect width="72" height="15.2583" fill="white"/>
</clipPath>
</defs>
</svg>
