<svg width="72" height="25" viewBox="0 0 72 25" fill="none" xmlns="http://www.w3.org/2000/svg">
<g clip-path="url(#clip0_11_299)">
<path fill-rule="evenodd" clip-rule="evenodd" d="M28.8972 5.89987C30.6177 5.89987 32.147 6.28464 33.5169 7.0542C34.887 7.82376 35.9384 8.88187 36.7349 10.2927C37.4995 11.6715 37.8818 13.2427 37.8818 15.0063C37.8818 16.7378 37.4995 18.309 36.7349 19.6877C35.9702 21.0665 34.9188 22.1567 33.5488 22.9263C32.1788 23.6958 30.6177 24.0806 28.8972 24.0806C27.1767 24.0806 25.6156 23.6958 24.2456 22.9263C22.8757 22.1246 21.8242 21.0665 21.0596 19.6877C20.295 18.309 19.9127 16.7378 19.9127 15.0063C19.9127 13.2427 20.295 11.6715 21.0596 10.2927C21.8242 8.91399 22.8757 7.82376 24.2456 7.0542C25.6156 6.28464 27.1767 5.89987 28.8972 5.89987ZM31.8921 20.329C32.7523 19.816 33.4532 19.0785 33.9311 18.1486C34.4409 17.2188 34.664 16.1606 34.664 14.9742C34.664 13.7878 34.409 12.7297 33.9311 11.7998C33.4532 10.8699 32.7842 10.1325 31.8921 9.61935C31.0318 9.07429 30.0124 8.81778 28.9291 8.81778C27.8459 8.81778 26.8582 9.10633 25.9661 9.61935C25.074 10.1325 24.4049 10.8699 23.8951 11.7998C23.4172 12.7297 23.1624 13.7878 23.1624 14.9742C23.1624 16.1606 23.3854 17.2188 23.8951 18.1486C24.4049 19.0785 25.074 19.816 25.9661 20.329C26.8263 20.8741 27.8459 21.1307 28.9291 21.1307C30.0124 21.1307 31.0318 20.8421 31.8921 20.329Z" fill="black"/>
<path d="M48.4277 8.8178C49.256 8.8178 49.9888 8.94605 50.6261 9.23461C51.2632 9.52324 51.8686 9.94005 52.4102 10.5172C52.7607 10.902 53.1749 11.0943 53.6846 11.0943C53.9714 11.0943 54.2262 11.0303 54.4174 10.87C54.8953 10.5493 55.1183 10.1325 55.1183 9.65149C55.1183 9.33082 55.0227 9.04226 54.7997 8.78575C53.1111 6.82977 50.9765 5.83575 48.4277 5.83575C46.7391 5.83575 45.2098 6.22053 43.8717 6.99009C42.5335 7.75964 41.4821 8.84984 40.7175 10.2286C39.9847 11.6074 39.6024 13.1786 39.6024 14.9421C39.6024 16.6416 39.9847 18.1807 40.7493 19.5915C41.5139 20.9704 42.5973 22.0605 43.9672 22.8621C45.3372 23.6638 46.8665 24.0486 48.587 24.0486C50.9446 24.0486 52.8881 23.3111 54.4493 21.8682C54.7041 21.6116 54.8316 21.323 54.8316 20.9704C54.8316 20.5214 54.6404 20.1367 54.2262 19.7839C53.9714 19.5915 53.6846 19.4953 53.366 19.4953C52.9837 19.4953 52.5695 19.6557 52.1553 19.9442C51.2313 20.7138 50.0525 21.0986 48.587 21.0986C47.4718 21.0986 46.4524 20.842 45.5921 20.297C44.7 19.7839 44.0309 19.0465 43.553 18.1166C43.0752 17.1866 42.8202 16.1286 42.8202 14.9421C42.8202 13.0824 43.33 11.6074 44.3814 10.4851C45.4009 9.39498 46.7391 8.8178 48.4277 8.8178Z" fill="black"/>
<path d="M70.8891 21.5475L64.5808 13.7558L70.5705 8.40098C70.921 8.11243 71.0802 7.75969 71.0802 7.27872C71.0802 6.89394 70.9528 6.54123 70.6661 6.25264C70.3794 5.89993 70.0289 5.73961 69.551 5.73961C69.1687 5.73961 68.8182 5.86786 68.5314 6.15645L60.6301 13.2748V1.85977C60.6301 1.3788 60.4708 0.994017 60.184 0.705437C59.8973 0.416854 59.515 0.256531 59.0371 0.256531C58.5592 0.256531 58.1769 0.416854 57.8901 0.705437C57.6033 0.994017 57.4441 1.3788 57.4441 1.85977V22.3171C57.4441 22.7981 57.6033 23.1828 57.8901 23.4715C58.1769 23.76 58.5592 23.9203 59.0371 23.9203C59.515 23.9203 59.8973 23.76 60.184 23.4715C60.4708 23.1828 60.6301 22.7981 60.6301 22.3171V17.315L62.255 15.872L68.4359 23.5676C68.7545 23.9524 69.1368 24.1448 69.6147 24.1448C69.997 24.1448 70.3156 24.0165 70.6661 23.76C71.0484 23.4393 71.2396 23.0225 71.2396 22.5415C71.2396 22.1568 71.1121 21.8361 70.8891 21.5475Z" fill="black"/>
<path d="M16.2806 0.256531C15.8027 0.256531 15.4203 0.416854 15.1018 0.705437C14.7832 1.02609 14.6238 1.41087 14.6238 1.9239V8.84991V11.383C14.6238 11.383 14.6238 12.377 14.6238 13.4351H14.592C14.592 13.4672 14.592 13.4993 14.6238 13.5313C14.6238 13.82 14.6238 14.1085 14.6238 14.3971C14.6238 16.5775 14.5601 17.9884 12.6804 19.7839C12.4573 19.9764 12.2025 20.1367 11.9476 20.297C11.0555 20.8421 10.0997 21.0986 9.01646 21.0986C7.93321 21.0986 6.94554 20.8421 6.08531 20.297C5.19323 19.7519 4.52416 19.0144 4.0144 18.0845C3.50463 17.1547 3.24975 16.0965 3.24975 14.9422C3.24975 13.7878 3.50463 12.7298 4.0144 11.7999C4.52416 10.8699 5.22509 10.1325 6.08531 9.61944C6.88182 9.13847 7.74205 8.88196 8.66603 8.81779L7.51902 9.97216C6.91368 10.5814 6.91368 11.6074 7.51902 12.2488C8.12437 12.858 9.14392 12.858 9.78108 12.2488L13.5406 8.46515C14.1459 7.85589 14.1459 6.82981 13.5406 6.18852L9.74927 2.40487C9.14392 1.79564 8.12437 1.79564 7.48717 2.40487C6.88182 3.0141 6.88182 4.04017 7.48717 4.68147L8.69784 5.89993C8.57045 5.89993 8.47488 5.89993 8.34741 5.89993C6.78624 5.89993 5.38439 6.28471 4.10997 7.08633C2.83557 7.88795 1.8479 8.94605 1.11511 10.3569C0.350463 11.7036 0 13.2428 0 14.9422C0 16.6417 0.382323 18.1807 1.17883 19.5916C1.97534 20.9704 3.02673 22.0606 4.42858 22.8622C5.79857 23.6638 7.32787 24.0486 8.98457 24.0486C10.6414 24.0486 12.1706 23.6638 13.5088 22.8622C14.8788 22.0606 15.9301 20.9704 16.7266 19.5916C17.5231 18.2128 17.9055 16.6737 17.9055 14.9422V1.9239C17.9055 1.41087 17.7462 1.02609 17.4594 0.705437C17.1727 0.416854 16.7585 0.256531 16.2806 0.256531Z" fill="black"/>
</g>
<defs>
<clipPath id="clip0_11_299">
<rect width="72" height="24.5275" fill="white"/>
</clipPath>
</defs>
</svg>
