<svg width="12" height="73" viewBox="0 0 12 73" fill="none" xmlns="http://www.w3.org/2000/svg">
<g clip-path="url(#clip0_12_370)">
<path d="M4.87795 65.7024C4.60475 65.7739 4.42912 65.943 4.35107 66.2227C4.28602 66.4569 4.26 66.6976 4.24699 66.9382C4.2535 67.2114 4.27301 67.4911 4.35107 67.7578C4.42912 68.0375 4.60475 68.2067 4.87795 68.2782C5.02755 68.3172 5.18366 68.3302 5.33327 68.3367C5.47637 68.3498 5.49589 68.3498 5.49589 68.2522V65.7934C5.49589 65.6243 5.49589 65.6243 5.32677 65.6438C5.18366 65.6503 5.02755 65.6698 4.87795 65.7024Z" fill="#496DDB"/>
<path d="M6.4976 65.7479V68.2002C6.4976 68.3693 6.4976 68.3693 6.66673 68.3498C6.81633 68.3433 6.97244 68.3302 7.12205 68.2912C7.39525 68.2197 7.57087 68.0505 7.64893 67.7708C7.71397 67.5367 7.73999 67.296 7.753 67.0553C7.7465 66.7821 7.72698 66.5024 7.64893 66.2357C7.57087 65.956 7.39525 65.7869 7.12205 65.7154C6.97244 65.6763 6.81633 65.6633 6.66673 65.6568C6.52362 65.6438 6.50411 65.6438 6.4976 65.7479Z" fill="#496DDB"/>
<path d="M0.194595 67.0033C0.194595 70.2036 2.79646 72.8054 5.99675 72.8054C9.19703 72.8054 11.7989 70.2036 11.7989 67.0033C11.7989 63.7965 9.19703 61.2011 5.99675 61.2011C2.79646 61.2011 0.194595 63.7965 0.194595 67.0033ZM4.68931 64.5575C4.85843 64.5315 5.02755 64.512 5.20318 64.4925H5.50239V63.5948C5.50239 63.5233 5.50239 63.4582 5.5154 63.3932C5.54142 63.2371 5.63248 63.1395 5.78209 63.133H6.2179C6.36751 63.1395 6.45858 63.2371 6.48459 63.3932C6.4976 63.4582 6.4976 63.5233 6.4976 63.5948V64.5055H6.79031C6.96594 64.525 7.13506 64.5445 7.30418 64.5705C7.4733 64.5965 7.62291 64.6421 7.753 64.7006V63.5493C7.753 63.4127 7.76601 63.2826 7.8961 63.1915C8.11076 63.0549 8.39696 63.1265 8.53356 63.3412C8.55307 63.3672 8.57259 63.3997 8.57909 63.4322C8.65715 63.6729 8.67016 63.9201 8.68317 64.1737C8.70268 65.208 8.70919 66.2682 8.70919 66.9838C8.70919 67.8294 8.69618 68.9612 8.67666 69.8198C8.67016 70.0735 8.65715 70.3206 8.57259 70.5548C8.56608 70.5938 8.55307 70.6199 8.52706 70.6459C8.39046 70.8605 8.11076 70.9321 7.8896 70.7955C7.75951 70.7109 7.7465 70.5808 7.7465 70.4442V69.3059C7.6164 69.358 7.4668 69.4035 7.30418 69.4295C7.13506 69.4555 6.96594 69.475 6.79031 69.4946H6.4911V70.4052C6.4911 70.4768 6.4911 70.5418 6.47809 70.6068C6.45207 70.763 6.36101 70.8605 6.2114 70.867H5.77559C5.62598 70.8605 5.53491 70.763 5.5089 70.6068C5.49589 70.5418 5.49589 70.4768 5.49589 70.4052V69.4946H5.20318C5.02755 69.475 4.85843 69.4555 4.68931 69.4295C4.52019 69.4035 4.37058 69.358 4.24049 69.2994V70.4507C4.24049 70.5873 4.22748 70.7174 4.09739 70.8085C3.88273 70.9451 3.59653 70.8735 3.45993 70.6589C3.44042 70.6329 3.4209 70.6003 3.4144 70.5678C3.33634 70.3271 3.32333 70.08 3.31032 69.8328C3.29081 68.7986 3.28431 67.7383 3.28431 67.0228C3.28431 66.1772 3.29731 65.0389 3.31683 64.1868C3.32333 63.9331 3.33634 63.6859 3.4209 63.4517C3.42741 63.4127 3.44042 63.3867 3.46644 63.3607C3.60303 63.146 3.88273 63.0745 4.10389 63.2111C4.23398 63.2956 4.24699 63.4257 4.24699 63.5623V64.7006C4.37709 64.6291 4.52019 64.59 4.68931 64.5575Z" fill="#496DDB"/>
<path d="M8.7352 53.9875C8.7352 54.1046 8.72219 54.2346 8.70268 54.3778C8.68316 54.5209 8.63763 54.6574 8.56608 54.7875C8.49453 54.9176 8.38395 55.0282 8.24085 55.1063C8.09774 55.1908 7.90261 55.2299 7.64892 55.2299H4.69581C4.48116 55.2299 4.29903 55.1973 4.14942 55.1258C4.00632 55.0607 3.88923 54.9697 3.80467 54.8526C3.72011 54.7355 3.66157 54.6119 3.62905 54.4753C3.59653 54.3387 3.57701 54.2021 3.57701 54.0655C3.57701 53.7273 3.58352 53.4216 3.59002 53.1484C3.59653 52.8752 3.60953 52.628 3.61604 52.4003C3.62254 52.1727 3.63555 51.9645 3.64856 51.7694H4.36407V53.8053C4.36407 53.968 4.4031 54.098 4.48116 54.1956C4.55921 54.2932 4.6828 54.3387 4.85192 54.3387H5.76257L5.80811 52.1011H6.48459L6.53663 54.3322H7.41476C7.55135 54.3322 7.66193 54.3062 7.73348 54.2542C7.80504 54.2021 7.85707 54.1371 7.88309 54.059C7.90911 53.981 7.92212 53.8964 7.92212 53.8053V51.7629H8.63763C8.65715 51.9775 8.67015 52.2117 8.68316 52.4654C8.69617 52.7191 8.70268 52.9727 8.70918 53.2329C8.72219 53.4996 8.7287 53.7468 8.7352 53.9875Z" fill="#2F2E42"/>
<path d="M8.69617 45.9152H4.65028C4.44863 45.9152 4.27301 45.8827 4.13641 45.8177C3.99981 45.7526 3.88923 45.668 3.80467 45.5575C3.72662 45.4534 3.66808 45.3298 3.62905 45.1997C3.59653 45.0631 3.57701 44.933 3.57701 44.8029C3.58352 44.6013 3.58352 44.3801 3.59002 44.1264C3.59002 43.8728 3.59653 43.6126 3.60953 43.3329C3.61604 43.0597 3.63555 42.793 3.65507 42.5328H4.22748V44.6143C4.22748 44.7964 4.27301 44.933 4.36407 45.0306C4.45514 45.1282 4.59174 45.1737 4.76736 45.1737H5.95121L5.99024 42.858H6.53012L6.56915 45.1737H8.68316V45.9152H8.69617Z" fill="#2F2E42"/>
<path d="M8.69617 36.7957H3.58351V36.0541H8.69617V36.7957Z" fill="#2F2E42"/>
<path d="M8.69618 29.9072H3.59003V29.4324L7.7465 26.6354H3.59003L3.59003 26.0565H8.69618V26.5313L4.53971 29.3283H8.69618V29.9072Z" fill="#2F2E42"/>
<path d="M8.69618 20.0722H3.59003V19.4868H8.69618V20.0722Z" fill="#2F2E42"/>
<path d="M8.69617 12.143H3.96728V13.8538H3.60953L3.60953 10.003H3.96728V11.7137H8.70267V12.143H8.69617Z" fill="#2F2E42"/>
<path d="M8.69617 2.85437H6.9269L3.60953 4.60413V4.2919L6.6407 2.70477L3.60953 1.12414L3.60953 0.81191L6.9269 2.56166L8.69617 2.56166V2.85437Z" fill="#2F2E42"/>
</g>
<defs>
<clipPath id="clip0_12_370">
<rect width="72" height="11.6108" fill="white" transform="translate(0.194595 72.8054) rotate(-90)"/>
</clipPath>
</defs>
</svg>
