<svg width="31" height="31" viewBox="0 0 31 31" fill="none" xmlns="http://www.w3.org/2000/svg">
<g filter="url(#filter0_d_102_2)">
<path fill-rule="evenodd" clip-rule="evenodd" d="M15 29.6667C6.89982 29.6667 0.333332 23.1002 0.333332 15C0.333332 6.89983 6.89982 0.333336 15 0.333336C23.1002 0.333336 29.6667 6.89983 29.6667 15C29.6667 23.1002 23.1002 29.6667 15 29.6667ZM24.3759 22.4903C26.018 20.4374 27 17.8334 27 15C27 8.37259 21.6274 3 15 3C12.1666 3 9.56264 3.98197 7.50975 5.62414L24.3759 22.4903ZM22.4902 24.3759C20.4374 26.018 17.8334 27 15 27C8.37258 27 3 21.6274 3 15C3 12.1667 3.98196 9.56265 5.62413 7.50975L22.4902 24.3759Z" fill="#333333"/>
</g>
<defs>
<filter id="filter0_d_102_2" x="0.333332" y="0.333336" width="30.3333" height="30.3333" filterUnits="userSpaceOnUse" color-interpolation-filters="sRGB">
<feFlood flood-opacity="0" result="BackgroundImageFix"/>
<feColorMatrix in="SourceAlpha" type="matrix" values="0 0 0 0 0 0 0 0 0 0 0 0 0 0 0 0 0 0 127 0" result="hardAlpha"/>
<feOffset dx="1" dy="1"/>
<feComposite in2="hardAlpha" operator="out"/>
<feColorMatrix type="matrix" values="0 0 0 0 0 0 0 0 0 1 0 0 0 0 0.22 0 0 0 1 0"/>
<feBlend mode="normal" in2="BackgroundImageFix" result="effect1_dropShadow_102_2"/>
<feBlend mode="normal" in="SourceGraphic" in2="effect1_dropShadow_102_2" result="shape"/>
</filter>
</defs>
</svg>
