<svg width="26" height="33" viewBox="0 0 26 33" fill="none" xmlns="http://www.w3.org/2000/svg">
<g filter="url(#filter0_d_6_259)">
<path fill-rule="evenodd" clip-rule="evenodd" d="M10.8854 15.501C11.7117 14.3413 11.6195 13.1198 11.0465 10.9228C9.91337 6.57754 10.3646 4.1959 14.271 1.37623L16.1777 0L16.6388 2.30579C17.1289 4.75628 17.9338 6.27191 20.0003 9.18725C20.0824 9.30305 20.0824 9.30305 20.1649 9.41937C23.1417 13.619 24.229 16.1507 24.229 20.7482C24.229 26.3256 18.5907 31.3333 12.1317 31.3333C5.6724 31.3333 0.0344563 26.3263 0.0344563 20.7482C0.0344563 20.644 0.0345632 20.6471 0.0168979 20.1864C-0.119734 16.6228 0.539229 13.8337 3.20555 10.8222C3.7689 10.1859 4.40925 9.57441 5.12986 8.98926L6.72064 7.6975L7.48585 9.59846C8.05128 11.0031 8.71378 12.1073 9.46216 12.9175C10.096 13.6038 10.5662 14.4668 10.8854 15.501ZM5.46988 12.827C3.41733 15.1453 2.92935 17.2107 3.03899 20.0705C3.05941 20.6029 3.05877 20.5842 3.05877 20.7482C3.05877 24.5708 7.26801 28.309 12.1317 28.309C16.995 28.309 21.2047 24.5702 21.2047 20.7482C21.2047 16.9046 20.3453 14.9038 17.6976 11.1683C17.6155 11.0526 17.6155 11.0526 17.533 10.9362C15.925 8.66778 14.9665 7.08981 14.3324 5.32502C13.2968 6.56598 13.3577 7.80022 13.973 10.1596C15.1061 14.5048 14.6549 16.8864 10.7485 19.7061L8.5211 21.3139L8.35412 18.5719C8.24743 16.82 7.8509 15.6304 7.24048 14.9695C6.63739 14.3165 6.09287 13.5521 5.60457 12.6775C5.55902 12.7272 5.51413 12.7771 5.46988 12.827Z" fill="#333333"/>
</g>
<defs>
<filter id="filter0_d_6_259" x="0" y="0" width="25.229" height="32.3333" filterUnits="userSpaceOnUse" color-interpolation-filters="sRGB">
<feFlood flood-opacity="0" result="BackgroundImageFix"/>
<feColorMatrix in="SourceAlpha" type="matrix" values="0 0 0 0 0 0 0 0 0 0 0 0 0 0 0 0 0 0 127 0" result="hardAlpha"/>
<feOffset dx="1" dy="1"/>
<feComposite in2="hardAlpha" operator="out"/>
<feColorMatrix type="matrix" values="0 0 0 0 0 0 0 0 0 1 0 0 0 0 0.22 0 0 0 1 0"/>
<feBlend mode="normal" in2="BackgroundImageFix" result="effect1_dropShadow_6_259"/>
<feBlend mode="normal" in="SourceGraphic" in2="effect1_dropShadow_6_259" result="shape"/>
</filter>
</defs>
</svg>
