<svg width="44" height="49" viewBox="0 0 44 49" fill="none" xmlns="http://www.w3.org/2000/svg">
<g filter="url(#filter0_d_3_172)">
<path fill-rule="evenodd" clip-rule="evenodd" d="M38.41 7.89063C38.5147 7.94141 38.6077 8.00781 38.6969 8.09375C38.7202 8.11719 38.7395 8.14062 38.7589 8.16406C39.8793 9.05859 40.9996 10.0703 41.8137 11.2891C42.7131 12.6367 43.2132 14.1953 42.9108 16.043C42.7829 16.8164 42.4922 17.4922 42.0502 18.0898C41.7323 18.5156 41.3447 18.8906 40.8872 19.2188C40.864 19.8164 40.8562 20.4023 40.8562 20.9844C40.8601 21.7305 40.8833 22.5 40.926 23.2891C41.0229 25.1406 41.2981 27.0078 41.5734 28.8594C41.868 30.8516 42.1626 32.8281 42.2402 34.8867C42.3448 37.5234 42.0347 39.6914 41.1702 41.2227C40.2088 42.9336 38.6465 43.8477 36.3438 43.7656C33.5952 43.7148 31.905 42.1602 31.1413 39.2891C30.4745 36.7773 30.5753 33.1914 31.3312 28.6797C31.308 25.1055 30.8466 22.3984 29.9318 20.5742C29.3347 19.3828 28.5245 18.5938 27.5011 18.2188V41.625C27.8345 41.7852 28.1369 42.0039 28.3927 42.2656C28.982 42.8594 29.3503 43.6836 29.3503 44.5898V46.9258C29.3503 47.5156 28.8734 47.9961 28.288 47.9961H1.06221C0.47683 47.9961 0 47.5156 0 46.9258V44.5898C0 43.6836 0.368283 42.8633 0.957537 42.2656C1.13974 42.082 1.3452 41.918 1.56617 41.7812V5.67188C1.56617 4.10938 2.19807 2.69141 3.21763 1.66406C4.2372 0.636719 5.64443 0 7.1951 0H21.8411C23.3957 0 24.8107 0.640625 25.8341 1.67188C26.8576 2.70313 27.4933 4.12891 27.4933 5.69922V15.9961C29.3774 16.4102 30.8156 17.625 31.8158 19.6172C32.8897 21.7539 33.4246 24.8164 33.4401 28.7812C33.4401 28.8438 33.4363 28.9062 33.4246 28.9648H33.4285C32.7113 33.2109 32.595 36.5234 33.1843 38.7383C33.6766 40.6016 34.7156 41.6094 36.3787 41.6328H36.398C37.8169 41.6797 38.7589 41.1562 39.3133 40.168C39.9684 39.0039 40.1972 37.2188 40.108 34.9688C40.0343 33.0625 39.7436 31.1211 39.4567 29.168C39.1776 27.2852 38.8985 25.3867 38.7938 23.3945C38.7512 22.6094 38.7279 21.8086 38.724 20.9805C38.7202 20.3242 38.7318 19.6758 38.7589 19.0391C36.778 17.2891 35.5723 15.5391 35.2001 13.7969C34.8474 12.1445 35.2195 10.5586 36.3631 9.04297C35.4909 8.44141 34.6031 7.94922 33.7038 7.55469C32.4748 7.01562 32.4671 6.96875 31.18 6.75781C30.6024 6.66406 30.2109 6.11328 30.3039 5.53125C30.397 4.94922 30.9436 4.55469 31.5212 4.64844C32.9788 4.88672 33.1533 4.98047 34.5527 5.59375C35.8824 6.17969 37.1656 6.93359 38.41 7.89063ZM38.0572 10.3516C37.3168 11.3516 37.0687 12.3516 37.2858 13.3594C37.5455 14.5781 38.4488 15.875 39.9529 17.2461C40.1041 17.1094 40.2398 16.9648 40.3522 16.8125C40.5887 16.4961 40.7477 16.125 40.8136 15.7031C41.0151 14.4688 40.6701 13.4102 40.0499 12.4805C39.5381 11.7109 38.8248 11 38.0572 10.3516ZM8.4744 4.89844H20.81C21.4496 4.89844 22.0311 5.16016 22.4537 5.58594C22.4808 5.61719 22.5118 5.64453 22.5389 5.67969C22.9111 6.09766 23.1398 6.64844 23.1398 7.24219V15.1719C23.1398 15.8164 22.8801 16.4062 22.4575 16.8281C22.0389 17.25 21.4574 17.5156 20.8138 17.5156H8.4744C7.83862 17.5156 7.261 17.25 6.83457 16.8281L6.83069 16.832C6.41201 16.4102 6.1484 15.8203 6.1484 15.1758V7.23828C6.1484 6.59375 6.40813 6.00781 6.83069 5.58203C6.8617 5.55469 6.88884 5.52344 6.92373 5.5C7.33853 5.125 7.88127 4.89844 8.4744 4.89844ZM26.528 43.5469C26.497 43.5508 26.4699 43.5508 26.4389 43.5508H2.81446C2.68265 43.6094 2.56248 43.6914 2.46168 43.793C2.25622 44 2.12829 44.2852 2.12829 44.6016V45.8672H27.2258V44.6016C27.2258 44.2891 27.0979 44.0039 26.8924 43.793C26.7878 43.6875 26.6637 43.6055 26.528 43.5469Z" fill="#333333"/>
</g>
<defs>
<filter id="filter0_d_3_172" x="0" y="0" width="43.9992" height="48.9961" filterUnits="userSpaceOnUse" color-interpolation-filters="sRGB">
<feFlood flood-opacity="0" result="BackgroundImageFix"/>
<feColorMatrix in="SourceAlpha" type="matrix" values="0 0 0 0 0 0 0 0 0 0 0 0 0 0 0 0 0 0 127 0" result="hardAlpha"/>
<feOffset dx="1" dy="1"/>
<feComposite in2="hardAlpha" operator="out"/>
<feColorMatrix type="matrix" values="0 0 0 0 0 0 0 0 0 1 0 0 0 0 0.22 0 0 0 1 0"/>
<feBlend mode="normal" in2="BackgroundImageFix" result="effect1_dropShadow_3_172"/>
<feBlend mode="normal" in="SourceGraphic" in2="effect1_dropShadow_3_172" result="shape"/>
</filter>
</defs>
</svg>
