<svg width="76" height="19" viewBox="0 0 76 19" fill="none" xmlns="http://www.w3.org/2000/svg">
<g filter="url(#filter0_d_3_55)">
<path d="M24.7713 0C24.1609 0.196939 23.5419 0.385316 22.9141 0.556568C16.6188 2.20915 10.2538 1.89233 4.50781 0L3.39175 7.0042L5.65003 7.60358L7.73392 3.85316C8.29195 3.96448 8.84999 4.05867 9.41673 4.14429L10.062 8.36565L12.39 8.56259L13.7763 4.51248C14.3431 4.52961 14.9186 4.52961 15.4853 4.51248L16.8717 8.56259L19.1997 8.36565L19.8449 4.13573C20.403 4.0501 20.961 3.95591 21.5277 3.8446L23.6116 7.60358L25.8699 7.01276L24.7713 0Z" fill="#333333"/>
<path d="M20.2373 8.57971L18.1534 12.3387C17.5954 12.2274 17.0373 12.1332 16.4706 12.0476L15.8254 7.81764L13.4886 7.6207L12.1023 11.6708C11.5268 11.6537 10.96 11.6537 10.3933 11.6708L9.00694 7.6207L6.67891 7.81764L6.03369 12.039C5.46694 12.1246 4.90891 12.2188 4.35088 12.3301L2.26699 8.57971L0.00871277 9.17909L1.12477 16.1747C6.87073 14.2824 13.2358 13.9656 19.531 15.6267C20.1588 15.7894 20.7779 15.9778 21.3882 16.1833L22.5043 9.17909L20.2373 8.57971Z" fill="#333333"/>
<path d="M37.7368 4.36698C37.7368 4.36698 36.7254 3.06547 34.5804 3.06547C32.4268 3.06547 29.6105 4.27279 29.6105 8.09171C29.6105 11.9106 32.4268 13.1522 34.5804 13.1522C36.7341 13.1522 37.4229 12.0647 37.7368 11.5339C37.7368 13.8543 35.5657 14.9846 32.8279 13.6488L31.5985 16.2604C35.1298 18.0157 40.3438 17.6133 40.3438 11.551V3.30522H38.103L37.7368 4.36698ZM35.1298 10.4207C34.2578 10.4207 32.9412 9.82991 32.9412 8.09171C32.9412 6.3535 34.2578 5.76268 35.1298 5.76268C36.0017 5.76268 37.3183 6.3535 37.3183 8.09171C37.3183 9.82991 36.0017 10.4207 35.1298 10.4207Z" fill="#333333"/>
<path d="M69.3439 4.87214L68.8034 3.30519H66.5625V12.9124H69.6753V8.07455C69.6753 6.39629 71.1575 5.60853 72.7183 6.19935L74.0087 3.46788C70.7216 2.03793 69.3439 4.87214 69.3439 4.87214Z" fill="#333333"/>
<path d="M64.2606 3.30522H62.0198L61.6449 4.36698C61.6449 4.36698 60.6334 3.06547 58.4885 3.06547C56.3349 3.06547 53.5186 4.47829 53.5186 8.09171C53.5186 11.6709 56.3349 13.1522 58.4885 13.1522C61.0084 13.1522 61.6449 11.5339 61.6449 11.5339V12.921H64.2606V11.551V3.30522ZM59.0378 10.4207C58.1659 10.4207 56.8493 9.82991 56.8493 8.09171C56.8493 6.3535 58.1659 5.76268 59.0378 5.76268C59.9097 5.76268 61.2263 6.3535 61.2263 8.09171C61.2263 9.82991 59.9097 10.4207 59.0378 10.4207Z" fill="#333333"/>
<path d="M47.3802 2.85141C43.5525 2.85141 41.5732 5.51437 41.5732 8.00609C41.5732 10.4978 43.3519 13.4605 47.1012 13.4605C50.8505 13.4605 52.1235 11.0544 52.324 10.669L50.2663 9.35041C49.8652 9.98404 48.8799 10.729 47.6156 10.729C46.5868 10.729 45.4271 10.0697 45.0347 8.92228H52.4025C52.6117 6.19082 51.208 2.85141 47.3802 2.85141ZM45.183 6.84157C45.5666 6.06238 46.3078 5.54862 47.293 5.54862C48.7317 5.54862 49.2025 6.84157 49.2025 6.84157H45.183Z" fill="#333333"/>
</g>
<defs>
<filter id="filter0_d_3_55" x="0.00871277" y="0" width="75" height="18.168" filterUnits="userSpaceOnUse" color-interpolation-filters="sRGB">
<feFlood flood-opacity="0" result="BackgroundImageFix"/>
<feColorMatrix in="SourceAlpha" type="matrix" values="0 0 0 0 0 0 0 0 0 0 0 0 0 0 0 0 0 0 127 0" result="hardAlpha"/>
<feOffset dx="1" dy="1"/>
<feComposite in2="hardAlpha" operator="out"/>
<feColorMatrix type="matrix" values="0 0 0 0 0 0 0 0 0 1 0 0 0 0 0.22 0 0 0 1 0"/>
<feBlend mode="normal" in2="BackgroundImageFix" result="effect1_dropShadow_3_55"/>
<feBlend mode="normal" in="SourceGraphic" in2="effect1_dropShadow_3_55" result="shape"/>
</filter>
</defs>
</svg>
