<svg width="47" height="51" viewBox="0 0 47 51" fill="none" xmlns="http://www.w3.org/2000/svg">
<g filter="url(#filter0_d_3_192)">
<path fill-rule="evenodd" clip-rule="evenodd" d="M9.33459 47.1685V43.9639H38.8435V47.1789C38.8372 47.4685 38.7203 47.7446 38.5169 47.95C38.416 48.0518 38.296 48.1325 38.1638 48.1875C38.0316 48.2424 37.8899 48.2705 37.7469 48.2701H10.421C10.1327 48.2637 9.85786 48.1462 9.65341 47.9418C9.45402 47.7415 9.33459 47.4689 9.33459 47.1685ZM13.5835 19.9171C13.7209 19.8915 13.8586 19.8685 13.9962 19.8478C14.0646 19.9644 14.1337 20.0805 14.2036 20.1961C15.1449 21.7536 16.4371 23.5997 18.1651 25.5371H9.43947C8.90831 25.5467 8.43317 25.7614 8.09083 26.1055C7.91599 26.2805 7.77732 26.4884 7.68281 26.7174C7.5883 26.9464 7.53981 27.1919 7.54013 27.4399V44.0736L4.05449 43.1463C3.25136 42.9205 2.61254 42.4122 2.21496 41.7629C1.80061 41.0878 1.66155 40.2782 1.82676 39.5028L3.97473 29.318L4.00504 29.1786C4.53122 26.8248 5.74547 24.7295 7.41771 23.1128C9.09174 21.4944 11.2248 20.356 13.5835 19.9171ZM33.9498 20.2372C34.0234 20.1158 34.0976 19.9916 34.1725 19.8651C34.3183 19.8964 34.4635 19.9305 34.608 19.9674C36.9785 20.5725 39.0748 21.8892 40.6567 23.6732C42.2269 25.4438 43.2898 27.674 43.6128 30.1228L44.8711 39.6702C44.9636 40.4536 44.7674 41.203 44.3653 41.8067C43.9501 42.4317 43.3218 42.8826 42.5987 43.0746L40.638 43.5965V27.4451C40.6284 26.9115 40.4147 26.4342 40.0723 26.0903C39.8981 25.9146 39.6911 25.7753 39.4631 25.6804C39.2351 25.5854 38.9906 25.5367 38.7438 25.5371H30.0453L30.9453 24.4513C32.2024 22.9301 33.1894 21.4914 33.9498 20.2372ZM9.33459 42.1612V27.3397H38.8435V42.1612H9.33459ZM27.3157 34.1131C27.1532 33.9501 26.9289 33.8492 26.6811 33.8492L21.4727 33.8496C21.24 33.8556 21.0187 33.9526 20.856 34.12C20.6975 34.2824 20.5998 34.5049 20.5998 34.7505C20.5997 34.8689 20.6228 34.9861 20.6679 35.0955C20.713 35.2049 20.7792 35.3042 20.8626 35.3878C20.9458 35.4716 21.0447 35.5381 21.1536 35.5834C21.2625 35.6287 21.3792 35.6519 21.4971 35.6518L26.7056 35.6514C26.9383 35.6453 27.1596 35.5483 27.3223 35.381C27.4806 35.2185 27.5783 34.996 27.5783 34.7505C27.5785 34.6321 27.5554 34.5149 27.5103 34.4055C27.4652 34.2961 27.3991 34.1968 27.3157 34.1131ZM29.7885 18.1512L30.7631 13.5751C32.1964 13.9787 33.2857 14.5239 34.0308 15.2998C34.1237 15.3967 34.2121 15.498 34.2956 15.6033C34.2477 15.7218 34.199 15.8388 34.15 15.9534C32.9322 18.8109 30.6532 22.3619 27.5542 25.5371H20.622L20.3307 25.2326C16.594 21.312 14.7507 17.623 14.0688 16.0483L13.8796 15.6081C14.6404 14.6385 15.8872 13.9891 17.417 13.5819L18.3892 18.147C18.6993 19.5057 19.446 20.6624 20.4533 21.4806C21.4632 22.3012 22.735 22.7813 24.0892 22.7813C25.4548 22.7813 26.7365 22.2934 27.7484 21.4714C28.7602 20.6494 29.5029 19.4925 29.7885 18.1512ZM19.1726 13.2082L19.9801 13.1076C22.9799 12.742 26.0147 12.7783 29.0049 13.2156L28.0333 17.778C27.83 18.6836 27.3288 19.4939 26.6107 20.0782C25.9104 20.647 25.0282 20.9787 24.0892 20.9787C23.1444 20.9787 22.2567 20.6422 21.5561 20.0734C20.8556 19.5041 20.3426 18.7024 20.1448 17.774L19.1726 13.2082ZM19.7796 4.32829C21.1122 2.81529 22.6052 1.80262 24.0889 1.80262C25.5553 1.80262 27.0308 2.79105 28.3517 4.27561C30.128 6.27211 31.6332 9.11824 32.5168 11.013L33.2446 12.5843C29.7611 10.7422 20.87 10.5583 16.2987 12.0261C15.8574 12.1696 15.4228 12.3333 14.9963 12.5166C15.1812 12.0749 15.3737 11.6366 15.5737 11.2017C16.4343 9.33135 17.9624 6.39128 19.7796 4.32829Z" fill="#333333"/>
</g>
<defs>
<filter id="filter0_d_3_192" x="1.7589" y="1.80261" width="44.1348" height="47.4675" filterUnits="userSpaceOnUse" color-interpolation-filters="sRGB">
<feFlood flood-opacity="0" result="BackgroundImageFix"/>
<feColorMatrix in="SourceAlpha" type="matrix" values="0 0 0 0 0 0 0 0 0 0 0 0 0 0 0 0 0 0 127 0" result="hardAlpha"/>
<feOffset dx="1" dy="1"/>
<feComposite in2="hardAlpha" operator="out"/>
<feColorMatrix type="matrix" values="0 0 0 0 0 0 0 0 0 1 0 0 0 0 0.22 0 0 0 1 0"/>
<feBlend mode="normal" in2="BackgroundImageFix" result="effect1_dropShadow_3_192"/>
<feBlend mode="normal" in="SourceGraphic" in2="effect1_dropShadow_3_192" result="shape"/>
</filter>
</defs>
</svg>
