<svg width="72" height="17" viewBox="0 0 72 17" fill="none" xmlns="http://www.w3.org/2000/svg">
<g clip-path="url(#clip0_11_246)">
<path fill-rule="evenodd" clip-rule="evenodd" d="M6.56745 15.5436H18.9381L15.1251 13.1895H2.75443L6.56745 15.5436ZM20.1788 16.248H6.46725C6.40193 16.248 6.33809 16.2298 6.28242 16.1957L1.32854 13.1372C1.19456 13.0544 1.13183 12.8926 1.17489 12.7412C1.21757 12.5898 1.356 12.4851 1.51336 12.4851H15.2249C15.2902 12.4851 15.3544 12.5037 15.4101 12.5374L20.364 15.5963C20.498 15.6787 20.5607 15.8405 20.5176 15.9919C20.4746 16.1434 20.3365 16.248 20.1788 16.248Z" fill="black"/>
<mask id="mask0_11_246" style="mask-type:alpha" maskUnits="userSpaceOnUse" x="0" y="0" width="20" height="4">
<path d="M0.308075 0.204051H19.6777V3.96687H0.308075V0.204051Z" fill="white"/>
</mask>
<g mask="url(#mask0_11_246)">
<path fill-rule="evenodd" clip-rule="evenodd" d="M5.7141 3.26232H18.0847L14.2717 0.908219H1.90107L5.7141 3.26232ZM19.3254 3.96675H5.61389C5.54857 3.96675 5.48473 3.94856 5.42906 3.91442L0.475171 0.855889C0.341194 0.773126 0.278472 0.611312 0.321523 0.459889C0.364204 0.308467 0.502635 0.203807 0.659996 0.203807H14.3715C14.4369 0.203807 14.5011 0.222364 14.5567 0.256137L19.5106 3.31502C19.6446 3.39741 19.7073 3.55923 19.6643 3.71065C19.6212 3.86209 19.4832 3.96675 19.3254 3.96675Z" fill="black"/>
</g>
<path fill-rule="evenodd" clip-rule="evenodd" d="M8.92795 8.25755C8.91756 7.22431 9.74705 6.37812 10.7807 6.36773C11.8139 6.35734 12.6601 7.18683 12.6705 8.22006C12.6809 9.25404 11.8514 10.0999 10.8178 10.1102C9.78453 10.1206 8.93834 9.29116 8.92795 8.25755Z" fill="black"/>
<path fill-rule="evenodd" clip-rule="evenodd" d="M10.8 6.65558H10.7836C10.3605 6.66004 9.96454 6.82853 9.66838 7.13026C9.37221 7.43274 9.21151 7.83171 9.21597 8.2548C9.2245 9.12733 9.93856 9.8169 10.8152 9.82247C11.6881 9.81356 12.3914 9.09616 12.3825 8.22325C12.3784 7.80016 12.2095 7.40453 11.9074 7.10837C11.6094 6.81591 11.2167 6.65558 10.8 6.65558ZM10.7992 10.3985C9.61828 10.3985 8.65184 9.44391 8.63997 8.26037C8.6344 7.68399 8.85337 7.13954 9.25716 6.72721C9.66096 6.31562 10.201 6.08552 10.7777 6.07995C10.7851 6.07958 10.7929 6.07958 10.8003 6.07958C11.3685 6.07958 11.9041 6.29855 12.3105 6.69678C12.7224 7.10057 12.9525 7.64057 12.9585 8.21731C12.9704 9.40791 12.0113 10.3862 10.8207 10.3981C10.8137 10.3981 10.8066 10.3985 10.7992 10.3985Z" fill="black"/>
<mask id="mask1_11_246" style="mask-type:alpha" maskUnits="userSpaceOnUse" x="0" y="0" width="72" height="17">
<path d="M0.307922 16.2482H71.6953V0.204051H0.307922V16.2482Z" fill="white"/>
</mask>
<g mask="url(#mask1_11_246)">
<path fill-rule="evenodd" clip-rule="evenodd" d="M26.3129 11.0479H27.5907V5.92066H26.3129V11.0479Z" fill="black"/>
<path fill-rule="evenodd" clip-rule="evenodd" d="M29.7731 5.92055H31.6121L33.6229 9.36468H33.6307L33.5917 5.92055H34.7912V11.0478H33.2799L30.95 7.07367H30.9422L30.9733 11.0478H29.7731V5.92055Z" fill="black"/>
<path fill-rule="evenodd" clip-rule="evenodd" d="M38.1822 6.92595H36.7253V5.92055H40.9101V6.92595H39.4601V11.0478H38.1822V6.92595Z" fill="black"/>
<path fill-rule="evenodd" clip-rule="evenodd" d="M42.8441 5.92055H46.4749V6.92595H44.1219V8.07907H45.9449V8.85845H44.1219V10.0427H46.5454V11.0478H42.8441V5.92055Z" fill="black"/>
<path fill-rule="evenodd" clip-rule="evenodd" d="M50.9648 8.36737C51.5022 8.36737 51.7754 8.12613 51.7754 7.65033C51.7754 7.19866 51.4948 6.92588 50.9025 6.92588H49.7958V8.36737H50.9648ZM48.5176 5.92048H50.9103C52.266 5.92048 52.9983 6.48163 52.9983 7.4477C52.9983 8.10238 52.7181 8.51545 52.2349 8.65574V8.67132C52.7415 8.78823 52.9675 9.19351 52.9675 9.76988V11.0481H51.6893V9.80922C51.6893 9.34159 51.5178 9.13895 51.0346 9.13895H49.7958V11.0481H48.5176V5.92048Z" fill="black"/>
<path fill-rule="evenodd" clip-rule="evenodd" d="M55.103 5.92055H56.3808V10.0427H58.7186V11.0478H55.103V5.92055Z" fill="black"/>
<path fill-rule="evenodd" clip-rule="evenodd" d="M63.8862 9.20899L63.1302 6.96474H63.1147L62.3664 9.20899H63.8862ZM64.1509 10.004H62.1015L61.7507 11.048H60.4417L62.4214 5.92074H64.0109L65.9898 11.048H64.5016L64.1509 10.004Z" fill="black"/>
<path fill-rule="evenodd" clip-rule="evenodd" d="M68.3915 9.08428L66.3736 5.92074H68.0173L69.1397 7.94676H69.1627L70.2698 5.92074H71.6953L69.6693 9.08428V11.048H68.3915V9.08428Z" fill="black"/>
</g>
</g>
<defs>
<clipPath id="clip0_11_246">
<rect width="72" height="16.701" fill="white"/>
</clipPath>
</defs>
</svg>
