<svg width="72" height="32" viewBox="0 0 72 32" fill="none" xmlns="http://www.w3.org/2000/svg">
<path d="M58.301 7.74315L54.5558 10.3705L51.3979 8.14105V5.48842C51.4076 5.36612 51.4644 5.25236 51.5562 5.17108C51.6481 5.0898 51.768 5.04734 51.8905 5.05263H54.48L58.301 7.74315ZM64.2 11.8737L62.0526 10.3705L58.301 12.9916L61.661 15.341L64.1874 17.1221L64.2 11.8737ZM54.4358 15.701L52.6105 16.9642C52.0103 17.4387 51.5966 18.1096 51.4421 18.8589L54.5558 21.0379L58.301 18.4105L54.4358 15.701ZM62.0526 21.0379L58.301 23.6589L61.1684 25.661H63.6947C63.768 25.6619 63.8409 25.6491 63.9095 25.6232C63.9625 25.6048 64.0117 25.577 64.0547 25.541C64.1014 25.5054 64.1394 25.4596 64.1656 25.407C64.1919 25.3545 64.2058 25.2966 64.2063 25.2379V22.5347L62.0526 21.0379Z" fill="url(#paint0_linear_11_280)"/>
<path d="M62.8863 14.4821L51.3726 22.5411V27.7895L64.2 18.8084V11.8611C64.2015 12.3703 64.0834 12.8727 63.8552 13.328C63.627 13.7832 63.2952 14.1785 62.8863 14.4821Z" fill="#8C175B"/>
<path d="M64.2 5.40001V8.14106L52.6105 16.2569C52.2233 16.5556 51.9085 16.938 51.6898 17.3754C51.4711 17.8129 51.354 18.2941 51.3474 18.7832V11.8358L61.1053 5.05264H63.7137C63.8216 5.04924 63.9277 5.0814 64.0155 5.14416C64.1034 5.20692 64.1682 5.29682 64.2 5.40001Z" fill="#8C175B"/>
<path d="M25.1621 5.48212V25.2C25.1632 25.256 25.1531 25.3116 25.1325 25.3636C25.1119 25.4156 25.0812 25.4631 25.0421 25.5032C25.0098 25.5375 24.9712 25.5653 24.9284 25.5853C24.8729 25.6105 24.8126 25.6234 24.7516 25.6232H22.1053C21.9941 25.6215 21.8881 25.5762 21.8101 25.497C21.7321 25.4178 21.6884 25.3112 21.6884 25.2V5.48212C21.6876 5.42655 21.6977 5.37135 21.7182 5.31969C21.7387 5.26803 21.7692 5.22092 21.8079 5.18104C21.8466 5.14115 21.8928 5.10929 21.9438 5.08726C21.9948 5.06523 22.0497 5.05347 22.1053 5.05264H24.7705C24.8783 5.06069 24.9789 5.10966 25.0517 5.18952C25.1245 5.26938 25.164 5.37407 25.1621 5.48212Z" fill="#8C175B"/>
<path d="M47.0842 5.46948V7.57896C47.0842 7.68951 47.0403 7.79554 46.9621 7.87371C46.884 7.95188 46.7779 7.9958 46.6674 7.9958H41.5074L43.1432 9.15159C43.1709 9.17045 43.1935 9.19591 43.2089 9.22568C43.2244 9.25545 43.2322 9.28859 43.2316 9.32212V25.2126C43.2316 25.3232 43.1877 25.4292 43.1095 25.5074C43.0313 25.5856 42.9253 25.6295 42.8148 25.6295H40.1937C40.0837 25.6279 39.9786 25.5834 39.9008 25.5056C39.8229 25.4278 39.7785 25.3227 39.7769 25.2126V8.43159C39.7788 8.32856 39.7413 8.22868 39.672 8.15237C39.6028 8.07607 39.507 8.0291 39.4042 8.02106H36.3474C36.2368 8.02106 36.1308 7.97715 36.0526 7.89897C35.9745 7.8208 35.9305 7.71478 35.9305 7.60422V5.46948C35.9305 5.35893 35.9745 5.25291 36.0526 5.17473C36.1308 5.09656 36.2368 5.05264 36.3474 5.05264H46.6674C46.7779 5.05264 46.884 5.09656 46.9621 5.17473C47.0403 5.25291 47.0842 5.35893 47.0842 5.46948Z" fill="#8C175B"/>
<path d="M37.0105 22.6737H31.8695C31.7817 22.6632 31.6996 22.6252 31.6349 22.565C31.5702 22.5049 31.5263 22.4257 31.5095 22.3389V5.46947C31.5095 5.4142 31.4985 5.35947 31.4772 5.30848C31.4558 5.25749 31.4245 5.21126 31.3852 5.17246C31.3458 5.13367 31.2991 5.1031 31.2478 5.08253C31.1965 5.06196 31.1416 5.05179 31.0863 5.05263H28.4211C28.311 5.05426 28.2059 5.0987 28.1281 5.17652C28.0503 5.25435 28.0058 5.35943 28.0042 5.46947V25.2126C28.0058 25.3227 28.0503 25.4278 28.1281 25.5056C28.2059 25.5834 28.311 25.6278 28.4211 25.6295H37.0105C37.1211 25.6295 37.2271 25.5856 37.3053 25.5074C37.3835 25.4292 37.4274 25.3232 37.4274 25.2126V23.0905C37.4274 22.98 37.3835 22.8739 37.3053 22.7958C37.2271 22.7176 37.1211 22.6737 37.0105 22.6737Z" fill="#8C175B"/>
<path d="M19.541 25.0105L14.141 15.1579C14.1067 15.0972 14.0887 15.0287 14.0887 14.959C14.0887 14.8892 14.1067 14.8207 14.141 14.76L19.1495 5.68422C19.201 5.58699 19.212 5.47333 19.18 5.36803C19.1481 5.26273 19.0758 5.17433 18.9789 5.12212C18.9207 5.08255 18.8533 5.05863 18.7831 5.05264H15.7895C15.7149 5.05299 15.6417 5.07303 15.5774 5.11074C15.5131 5.14845 15.4599 5.20249 15.4231 5.26738L11.2989 12.7263V5.46948C11.2989 5.35893 11.255 5.25291 11.1768 5.17473C11.0987 5.09656 10.9926 5.05264 10.8821 5.05264H8.21051C8.10047 5.05427 7.99539 5.09871 7.91756 5.17654C7.83974 5.25436 7.7953 5.35944 7.79367 5.46948V25.2126C7.7953 25.3227 7.83974 25.4278 7.91756 25.5056C7.99539 25.5834 8.10047 25.6279 8.21051 25.6295H10.8758C10.9863 25.6295 11.0924 25.5856 11.1705 25.5074C11.2487 25.4292 11.2926 25.3232 11.2926 25.2126V20.659L10.0295 14.9747L15.7895 25.4147C15.8241 25.48 15.876 25.5346 15.9394 25.5724C16.0029 25.6103 16.0756 25.63 16.1495 25.6295H19.1747C19.2853 25.6295 19.3913 25.5856 19.4695 25.5074C19.5476 25.4292 19.5916 25.3232 19.5916 25.2126C19.5906 25.1423 19.5733 25.0731 19.541 25.0105Z" fill="#8C175B"/>
<defs>
<linearGradient id="paint0_linear_11_280" x1="51.3789" y1="15.3663" x2="64.2" y2="15.3663" gradientUnits="userSpaceOnUse">
<stop offset="0.24" stop-color="#F96943"/>
<stop offset="0.78" stop-color="#CE4E2C"/>
</linearGradient>
</defs>
</svg>
