<svg width="69" height="16" viewBox="0 0 69 16" fill="none" xmlns="http://www.w3.org/2000/svg">
<g clip-path="url(#clip0_6_343)">
<path d="M1.69811 15.9987C0.763493 15.9987 0 15.2318 0 14.293V6.0557C0 5.11694 0.763493 4.36328 1.69811 4.36328C2.63273 4.36328 3.39623 5.13016 3.39623 6.06893V14.3063C3.38306 15.2318 2.63273 15.9987 1.69811 15.9987Z" fill="#333333"/>
<path d="M8.87231 15.9987C8.3721 15.9987 7.88504 15.7739 7.56911 15.3905L4.14656 11.2784C3.62001 10.6437 3.62001 9.73142 4.14656 9.09676L7.56911 4.97148C8.17464 4.24427 9.2409 4.15172 9.95174 4.74671C10.6626 5.3417 10.7679 6.42591 10.1755 7.1399L7.66126 10.181L10.1755 13.2088C10.7679 13.936 10.6757 15.007 9.95174 15.602C9.64897 15.8532 9.26722 15.9987 8.87231 15.9987Z" fill="#333333"/>
<path d="M20.1404 15.9987H12.9662C12.0316 15.9987 11.2681 15.2318 11.2681 14.293V6.0557C11.2681 5.11693 12.0316 4.35005 12.9662 4.35005C13.9008 4.35005 14.6643 5.11693 14.6643 6.0557V12.5874H18.4555V6.0557C18.4555 5.11693 19.219 4.35005 20.1536 4.35005C21.0882 4.35005 21.8517 5.11693 21.8517 6.0557V14.293C21.8385 15.2318 21.075 15.9987 20.1404 15.9987Z" fill="#333333"/>
<path d="M31.4217 15.9987H24.2475C23.3129 15.9722 22.5757 15.1921 22.602 14.2534C22.6283 13.3543 23.3523 12.6271 24.2475 12.6006H29.7236V12.5081L23.7736 10.8024C23.0496 10.5909 22.5494 9.92976 22.5494 9.16289V6.0557C22.5494 5.11694 23.3129 4.36328 24.2475 4.36328H31.4217C32.3563 4.36328 33.1198 5.13016 33.1198 6.06893C33.1198 7.00769 32.3563 7.77457 31.4217 7.77457H25.9456V7.88035L31.8956 9.58599C32.6196 9.79754 33.1198 10.4586 33.1198 11.2255V14.3063C33.1198 15.245 32.3563 15.9987 31.4217 15.9987Z" fill="#333333"/>
<path d="M54.9978 15.9987C54.0632 15.9987 53.3129 15.2318 53.3129 14.293V9.75787L52.523 10.4454C51.8912 10.9875 50.9566 10.9875 50.3115 10.4454L49.5217 9.75787V14.293C49.5217 15.2318 48.7582 15.9987 47.8236 15.9987C46.889 15.9987 46.1255 15.2318 46.1255 14.293V6.0557C46.1255 5.11693 46.889 4.35005 47.8236 4.35005C48.2317 4.35005 48.6134 4.49549 48.9294 4.75994L51.4173 6.90191L53.8921 4.75994C54.6029 4.15172 55.6692 4.23105 56.2878 4.94504C56.5511 5.24915 56.6959 5.64581 56.6959 6.0557V14.293C56.7091 15.2318 55.9456 15.9987 54.9978 15.9987Z" fill="#333333"/>
<path d="M43.7165 15.9987C42.7819 15.9987 42.0184 15.2318 42.0184 14.293V12.8518L37.7929 7.76135H37.2137V12.5874H39.7674C40.7021 12.6138 41.4392 13.3939 41.4129 14.3327C41.3866 15.2318 40.6626 15.959 39.7674 15.9855H35.5156C34.581 15.9855 33.8306 15.2186 33.8306 14.2798V6.0557C33.8306 5.11694 34.5941 4.36328 35.5156 4.36328H38.5959C39.0961 4.36328 39.5832 4.58806 39.8991 4.9715L45.0197 11.1462C45.2699 11.4503 45.4147 11.8337 45.4147 12.2304V14.293C45.4147 15.2318 44.6643 15.9987 43.7165 15.9987Z" fill="#333333"/>
<path d="M67.3058 15.9987C66.3712 15.9987 65.6077 15.2318 65.6077 14.293V12.8518L61.3822 7.76135H60.7898V12.5874H63.3436C64.2782 12.6138 65.0154 13.3939 64.989 14.3327C64.9627 15.2318 64.2387 15.959 63.3436 15.9855H59.1049C58.1702 15.9855 57.4068 15.2186 57.4068 14.2798V6.0557C57.4068 5.11694 58.1702 4.36328 59.1049 4.36328H62.1852C62.6854 4.36328 63.1593 4.58806 63.4884 4.9715L68.609 11.1462C68.8591 11.4503 69.0039 11.8337 69.0039 12.2304V14.293C69.0039 15.245 68.2404 15.9987 67.3058 15.9987Z" fill="#333333"/>
<path d="M37.1347 0.21155C37.0162 0.105773 36.8846 0.0264412 36.7266 -2.90875e-06C36.5292 -0.026447 36.3317 0.105773 36.2001 0.198328C36.0685 0.290882 35.8052 0.528879 35.6999 0.621433C35.5946 0.713988 35.3313 0.766876 34.8969 1.03132C34.4625 1.29576 32.7775 2.37997 32.7775 2.37997H33.2119L31.2506 3.39806H31.448L31.1716 3.60962C31.3295 3.64928 31.4875 3.62284 31.6323 3.54351V3.60962C31.6323 3.60962 33.9623 2.68407 34.4098 2.92207L34.1334 3.0014C34.1597 3.0014 34.5941 3.02785 34.5941 3.02785C34.6204 3.21295 34.7258 3.38484 34.8837 3.4774C35.147 3.64928 35.1602 3.75506 35.1602 3.75506C35.1602 3.75506 35.0285 3.80795 35.0285 3.88728C35.2786 3.80795 35.5419 3.80795 35.7789 3.88728C35.7789 3.88728 35.7657 3.80795 35.5814 3.75506C35.3971 3.67573 35.2391 3.55673 35.1207 3.38484C35.0154 3.2394 34.9759 3.05429 35.0417 2.8824C35.1075 2.71052 35.3313 2.61796 35.792 2.37997C36.3317 2.1023 36.4634 1.89075 36.5292 1.71886C36.595 1.54698 36.7266 1.22965 36.7793 1.07098C36.8319 0.92554 36.9241 0.806542 37.0426 0.700766C37.1874 0.621433 37.3453 0.555323 37.4901 0.502435C37.5165 0.515657 37.2269 0.27766 37.1347 0.21155Z" fill="#333333"/>
</g>
<defs>
<clipPath id="clip0_6_343">
<rect width="69" height="16" fill="white"/>
</clipPath>
</defs>
</svg>
