<svg width="72" height="17" viewBox="0 0 72 17" fill="none" xmlns="http://www.w3.org/2000/svg">
<g clip-path="url(#clip0_11_317)">
<path d="M18.8045 8.61078L17.5434 7.45398L15.8995 9.24572C15.6994 9.46316 15.4037 9.57623 15.1167 9.55014L13.7685 9.41967C13.5685 9.40228 13.3771 9.47186 13.2467 9.61972L8.13239 15.2037L9.39356 16.3518L15.2471 9.96763C15.4037 9.80237 15.6298 9.72409 15.856 9.78498L17.0389 10.072C17.2563 10.1242 17.4912 10.0546 17.6477 9.88935L18.8045 8.61078Z" fill="url(#paint0_linear_11_317)"/>
<path d="M16.0995 6.12323L14.8384 4.96643L11.9159 8.15851C11.7159 8.37595 11.4202 8.48902 11.1331 8.46293L9.78497 8.33246C9.58492 8.31507 9.39357 8.38465 9.26311 8.53251L5.4274 12.7161L6.68857 13.8729L11.2549 8.88912C11.4115 8.72386 11.6376 8.64558 11.8637 8.70646L13.0466 8.99349C13.2641 9.04568 13.4989 8.9761 13.6555 8.81084L16.0995 6.12323Z" fill="url(#paint1_linear_11_317)"/>
<path d="M13.3858 3.64435L12.1247 2.48755L7.91494 7.07127C7.71489 7.28871 7.41917 7.40178 7.13214 7.37569L5.78399 7.24522C5.58394 7.22782 5.39259 7.29741 5.26213 7.44527L2.71368 10.2285L3.97486 11.3854L7.25391 7.80188C7.41047 7.63662 7.63661 7.55834 7.86275 7.61922L9.04565 7.90625C9.26309 7.95844 9.49793 7.88885 9.65449 7.7236L13.3858 3.64435Z" fill="url(#paint2_linear_11_317)"/>
<path d="M10.6808 1.1568L9.41967 0L3.92269 5.99275C3.72264 6.2102 3.42691 6.32327 3.13989 6.29717L1.79174 6.16671C1.59169 6.14931 1.40034 6.21889 1.26987 6.36675L0 7.741L1.26117 8.8978L3.26166 6.71466C3.41822 6.54941 3.64436 6.47113 3.8705 6.53201L5.05339 6.81904C5.27084 6.87122 5.50568 6.80164 5.66224 6.63639L10.6808 1.1568Z" fill="url(#paint3_linear_11_317)"/>
<path d="M23.4492 12.3421V3.31384H25.1017V11.0548H29.1027V12.3421H23.4492Z" fill="#1C1E1C"/>
<path d="M31.4076 4.94903C31.1032 4.94903 30.8596 4.86205 30.6596 4.6794C30.4682 4.49674 30.3726 4.2706 30.3726 3.99228C30.3726 3.71395 30.4682 3.4965 30.6596 3.32255C30.8596 3.1399 31.1032 3.05292 31.4076 3.05292C31.712 3.05292 31.9555 3.1399 32.1469 3.32255C32.3469 3.4965 32.4426 3.71395 32.4426 3.99228C32.4426 4.2706 32.3469 4.49674 32.1469 4.6794C31.9555 4.86205 31.712 4.94903 31.4076 4.94903ZM30.5813 12.3421V5.94927H32.2339V12.3508H30.5813V12.3421Z" fill="#1C1E1C"/>
<path d="M36.8089 12.3421C36.1392 12.3421 35.5999 12.1769 35.1998 11.855C34.7997 11.5332 34.591 10.9505 34.591 10.1155V7.33221H33.4951V5.94927H34.591L34.7823 4.23581H36.2435V5.94927H37.9744V7.33221H36.2435V10.1329C36.2435 10.446 36.3044 10.6548 36.4349 10.7765C36.5741 10.8896 36.8089 10.9418 37.1307 10.9418H37.9309V12.3508H36.8089V12.3421Z" fill="#1C1E1C"/>
<path d="M42.332 12.4987C41.6883 12.4987 41.1143 12.3595 40.6185 12.0899C40.1227 11.8115 39.7313 11.4288 39.4443 10.9331C39.1573 10.4373 39.0181 9.85455 39.0181 9.20221C39.0181 8.54118 39.1573 7.94974 39.4269 7.43657C39.7139 6.9234 40.0966 6.52331 40.5924 6.23628C41.0882 5.94056 41.6796 5.80139 42.3494 5.80139C42.9756 5.80139 43.5323 5.94056 44.0106 6.21019C44.489 6.48851 44.863 6.86252 45.1326 7.34959C45.411 7.81927 45.5414 8.34983 45.5414 8.93258C45.5414 9.02826 45.5414 9.12393 45.5327 9.22831C45.5327 9.33268 45.5327 9.43705 45.524 9.55012H40.662C40.6968 10.0459 40.8707 10.4373 41.1752 10.7243C41.497 11.0113 41.8797 11.1505 42.3233 11.1505C42.6625 11.1505 42.9408 11.0809 43.1583 10.9331C43.3931 10.7765 43.5584 10.5765 43.6714 10.3416H45.3501C45.2283 10.7417 45.0283 11.1157 44.7413 11.4549C44.4629 11.7854 44.1237 12.0377 43.7062 12.229C43.3061 12.403 42.8451 12.4987 42.332 12.4987ZM42.3494 7.13215C41.9493 7.13215 41.584 7.24522 41.2795 7.48006C40.9664 7.7062 40.7751 8.04541 40.6881 8.51509H43.8715C43.8454 8.0976 43.6888 7.75839 43.4105 7.50615C43.1235 7.25392 42.7669 7.13215 42.3494 7.13215Z" fill="#1C1E1C"/>
<path d="M46.9331 12.3421V5.94925H48.3943L48.5248 7.03647C48.7248 6.65377 49.0031 6.35805 49.3771 6.13191C49.7598 5.90577 50.1947 5.79269 50.7079 5.79269C51.4994 5.79269 52.1169 6.04493 52.5518 6.5407C52.9867 7.03647 53.2129 7.76708 53.2129 8.73254V12.3421H51.5603V8.8804C51.5603 8.33244 51.4472 7.90625 51.2211 7.61922C50.9949 7.3322 50.647 7.18433 50.1773 7.18433C49.7164 7.18433 49.3337 7.34959 49.0292 7.67141C48.7335 8.00192 48.5943 8.45421 48.5943 9.03696V12.3421H46.9331Z" fill="#1C1E1C"/>
<path d="M57.6313 12.3421C56.9616 12.3421 56.4223 12.1769 56.0222 11.855C55.6221 11.5245 55.4134 10.9505 55.4134 10.1155V7.33221H54.3175V5.94927H55.4134L55.6047 4.23581H57.066V5.94927H58.7968V7.33221H57.066V10.1329C57.066 10.446 57.1268 10.6548 57.2573 10.7765C57.3965 10.8896 57.6313 10.9418 57.9531 10.9418H58.7533V12.3508H57.6313V12.3421Z" fill="#1C1E1C"/>
<path d="M60.2145 12.3421V5.94925H61.6845L61.841 7.14954C62.0759 6.74075 62.389 6.41023 62.7804 6.1667C63.1805 5.91446 63.6588 5.79269 64.1981 5.79269V7.53224H63.7371C63.3718 7.53224 63.05 7.58443 62.7717 7.6975C62.4847 7.81057 62.2672 8.00192 62.102 8.28025C61.9454 8.55858 61.8671 8.94128 61.8671 9.42836V12.3421H60.2145Z" fill="#1C1E1C"/>
<path d="M66.129 15.1863L67.6163 11.9246H67.2249L64.7374 5.94925H66.5291L68.3208 10.4547L70.1909 5.94925H71.9478L67.886 15.1863H66.129Z" fill="#1C1E1C"/>
</g>
<defs>
<linearGradient id="paint0_linear_11_317" x1="17.5457" y1="7.45336" x2="9.39064" y2="16.3487" gradientUnits="userSpaceOnUse">
<stop offset="0.2097" stop-color="#02C86A"/>
<stop offset="0.3359" stop-color="#14EA85"/>
</linearGradient>
<linearGradient id="paint1_linear_11_317" x1="14.8358" y1="4.96889" x2="6.68074" y2="13.8642" gradientUnits="userSpaceOnUse">
<stop offset="0.3216" stop-color="#02C86A"/>
<stop offset="0.5064" stop-color="#11ED85"/>
</linearGradient>
<linearGradient id="paint2_linear_11_317" x1="12.1258" y1="2.48444" x2="3.97072" y2="11.3798" gradientUnits="userSpaceOnUse">
<stop offset="0.5012" stop-color="#1FD17D"/>
<stop offset="0.6414" stop-color="#2CE28C"/>
</linearGradient>
<linearGradient id="paint3_linear_11_317" x1="9.41581" y1="1.97395e-07" x2="1.26076" y2="8.89537" gradientUnits="userSpaceOnUse">
<stop offset="0.6496" stop-color="#1BC675"/>
<stop offset="0.7967" stop-color="#0FD879"/>
</linearGradient>
<clipPath id="clip0_11_317">
<rect width="72" height="16.3518" fill="white"/>
</clipPath>
</defs>
</svg>
