<svg width="38" height="42" viewBox="0 0 38 42" fill="none" xmlns="http://www.w3.org/2000/svg">
<path d="M0.987045 10.5258V31.392L19.0577 41.8252L37.1284 31.392V10.5258L19.0577 0.0926514L0.987045 10.5258Z" fill="url(#paint0_linear_9_111)"/>
<path d="M18.6411 19.2358L6.58656 12.3204C6.14741 12.0685 5.5999 12.3854 5.5999 12.8918V31.239C5.5999 31.6027 5.89491 31.8977 6.25863 31.8977H8.37845C8.74217 31.8977 9.03718 31.6027 9.03718 31.239V18.827C9.03718 18.3207 9.58469 18.0036 10.0238 18.2556L14.4848 20.8146C14.9278 21.0685 14.9257 21.7082 14.4813 21.9595L11.3227 23.746C11.116 23.8628 10.9882 24.082 10.9882 24.3195V33.7375C10.9882 33.9704 11.1111 34.1861 11.3118 34.3046L18.8439 38.7584C19.0564 38.8841 19.3215 38.8803 19.5302 38.7489L26.6002 34.2975C26.7916 34.1768 26.9078 33.9664 26.9078 33.7399V32.4999C26.9078 32.2643 26.782 32.0464 26.5776 31.9289L20.7025 28.548C20.3871 28.3666 19.9844 28.4751 19.8029 28.7905L18.7456 30.6277C18.5641 30.9431 18.6727 31.3458 18.9881 31.5273L20.945 32.6536C21.3753 32.9011 21.3875 33.5175 20.9675 33.7821L19.4742 34.7223C19.2652 34.8538 19.0002 34.8576 18.7877 34.7319L14.7491 32.3437C14.5487 32.2252 14.4255 32.0095 14.4255 31.7766V26.3246C14.4255 26.087 14.5532 25.8681 14.7599 25.751L18.6275 23.5635C18.8301 23.4489 19.078 23.4498 19.2796 23.5654L23.1739 25.7993C23.3787 25.9169 23.5049 26.1348 23.5049 26.3708V27.5344C23.5049 27.8983 23.7999 28.1931 24.1636 28.1931H26.2835C26.6472 28.1931 26.9422 27.8981 26.9422 27.5344V24.3799C26.9422 24.1439 26.8159 23.926 26.6112 23.8085L23.4355 21.9868C22.9925 21.7328 22.9946 21.0932 23.439 20.8419L27.9662 18.2813C28.4053 18.033 28.9493 18.3502 28.9493 18.8546V31.295C28.9493 31.6588 29.2443 31.9538 29.608 31.9538H31.7278C32.0916 31.9538 32.3866 31.6588 32.3866 31.295V12.9608C32.3866 12.4562 31.8426 12.1388 31.4034 12.3874L19.2923 19.2376C19.0906 19.3523 18.8427 19.3516 18.6411 19.2358Z" fill="white"/>
<path d="M18.9133 5.90982C16.7364 5.90982 14.9718 7.67441 14.9718 9.85135H22.8549C22.8549 7.67441 21.0902 5.90982 18.9133 5.90982Z" fill="white"/>
<path d="M24.5505 10.1905H13.2759C13.0886 10.1905 12.9367 10.0387 12.9367 9.85135C12.9367 9.66403 13.0886 9.51216 13.2759 9.51216H24.5505C24.7379 9.51216 24.8897 9.66403 24.8897 9.85135C24.8897 10.0387 24.738 10.1905 24.5505 10.1905Z" fill="white"/>
<defs>
<linearGradient id="paint0_linear_9_111" x1="19.0577" y1="0.547285" x2="19.0577" y2="42.3634" gradientUnits="userSpaceOnUse">
<stop stop-color="#FDDE4F"/>
<stop offset="0.1529" stop-color="#F4C34E"/>
<stop offset="0.4545" stop-color="#E89549"/>
<stop offset="0.7064" stop-color="#E07345"/>
<stop offset="0.8953" stop-color="#DC5A42"/>
<stop offset="1" stop-color="#DA5041"/>
</linearGradient>
</defs>
</svg>
