<svg width="72" height="14" viewBox="0 0 72 14" fill="none" xmlns="http://www.w3.org/2000/svg">
<g clip-path="url(#clip0_6_374)">
<path d="M10.7606 11.3938C10.718 10.9177 10.6719 10.3669 10.6224 9.7412C10.5728 9.11553 10.5232 8.46086 10.4736 7.77719C10.4238 7.09352 10.3746 6.40565 10.326 5.71359C10.2774 5.02152 10.236 4.37376 10.2019 3.77029C10.0182 4.33499 9.83231 4.90244 9.64436 5.47264C9.4564 6.04283 9.27788 6.58403 9.10877 7.09623C8.93974 7.60835 8.78354 8.07201 8.64015 8.48722C8.49676 8.90243 8.38057 9.2374 8.2916 9.49212C8.19758 9.66382 8.10219 9.82713 8.00543 9.98204C7.91686 10.1254 7.81699 10.2615 7.70679 10.389C7.6153 10.4961 7.50913 10.5898 7.39143 10.6672C7.29168 10.7339 7.17464 10.77 7.05467 10.7711C6.91805 10.776 6.7829 10.7414 6.66549 10.6714C6.61376 10.6381 6.56967 10.5943 6.53613 10.5427C6.50259 10.4912 6.48035 10.4331 6.47089 10.3724C6.46559 10.3463 6.46177 10.32 6.45945 10.2935C6.45739 10.2671 6.4592 10.2405 6.46483 10.2146C6.27901 9.42863 6.10014 8.63557 5.92821 7.83545C5.75628 7.03533 5.59507 6.2478 5.44459 5.47287L5.33813 4.9248C5.30265 4.74211 5.27048 4.56217 5.24164 4.38498C5.11702 4.88329 4.97684 5.40094 4.82109 5.93794C4.66534 6.47494 4.49704 7.00496 4.31618 7.52799C4.13563 8.05118 3.94294 8.55483 3.73812 9.03895C3.54938 9.49057 3.33572 9.93137 3.09814 10.3593C2.90174 10.718 2.67177 11.0572 2.41135 11.3725C2.21733 11.6184 1.9713 11.8183 1.6909 11.958C1.50791 12.041 1.3185 12.109 1.12452 12.1614C0.979532 12.2004 0.830278 12.2213 0.680157 12.2236C0.515606 12.233 0.352216 12.1909 0.212677 12.1032C0.108873 12.0356 0.0360693 11.9296 0.0101864 11.8085C-0.0143835 11.6583 0.0178529 11.5043 0.100614 11.3766C0.199367 11.2173 0.347616 11.0948 0.522651 11.0278C0.757765 10.9281 0.99307 10.7081 1.22857 10.3677C1.4939 9.974 1.72563 9.5587 1.92132 9.12617C2.14758 8.63908 2.36594 8.09651 2.57641 7.49846C2.78687 6.90041 2.98597 6.2942 3.17369 5.67982C3.36149 5.06536 3.53373 4.46331 3.69039 3.87366C3.84706 3.284 3.98442 2.75112 4.10247 2.27502C4.22029 1.79899 4.31606 1.40175 4.38978 1.08331C4.4635 0.764864 4.50928 0.566952 4.52714 0.489573C4.55842 0.336805 4.64866 0.202523 4.77828 0.11584C4.89789 0.0394151 5.03697 -0.000957714 5.17891 -0.000456334C5.26057 -0.00682607 5.34264 0.00432872 5.41963 0.0322631C5.49663 0.0601974 5.56676 0.104265 5.62533 0.161513C5.74975 0.331081 5.82836 0.529855 5.85358 0.738653C5.96553 1.08747 6.06656 1.41561 6.15668 1.72306C6.24681 2.03052 6.33437 2.3461 6.41938 2.66981C6.50432 2.99368 6.58727 3.34246 6.66823 3.71615C6.7492 4.08984 6.83696 4.52031 6.93151 5.00756C6.99919 5.35638 7.06699 5.74114 7.13491 6.16184C7.20283 6.58254 7.28727 7.05311 7.38823 7.57355C7.81793 6.36669 8.19918 5.30235 8.53197 4.38051C8.86477 3.45868 9.16024 2.68633 9.4184 2.06349C9.6099 1.576 9.83875 1.10402 10.1029 0.651773C10.3013 0.33348 10.4779 0.174296 10.6327 0.174219H10.6907C10.7071 0.1743 10.7235 0.17292 10.7397 0.170097C10.7559 0.167349 10.7723 0.165971 10.7887 0.165977C10.9215 0.165977 11.0427 0.249042 11.1525 0.415171C11.2744 0.613316 11.3566 0.83334 11.3944 1.06294C11.425 1.33422 11.4573 1.67193 11.4915 2.07608C11.5257 2.48022 11.5608 2.9245 11.5967 3.40892C11.6327 3.89342 11.6696 4.40413 11.7074 4.94105C11.7452 5.47798 11.7822 6.01086 11.8185 6.53969C11.8548 7.06845 11.8922 7.58195 11.9308 8.08018C11.9694 8.57841 12.0086 9.0296 12.0484 9.43374C12.0515 9.50767 12.0602 9.58126 12.0745 9.65386C12.089 9.72857 12.1037 9.80488 12.1188 9.88279C12.1467 10.0269 12.1777 10.1722 12.2117 10.3188C12.2458 10.4654 12.2767 10.6107 12.3047 10.7548C12.3369 10.9209 12.3612 11.0883 12.3774 11.2572C12.3952 11.4111 12.3787 11.5671 12.3291 11.7139C12.2757 11.8554 12.1734 11.9732 12.0408 12.0459C11.8426 12.1436 11.6222 12.1878 11.4016 12.1742C11.3284 12.1745 11.2558 12.1595 11.1887 12.1302C11.1215 12.1008 11.0612 12.0578 11.0117 12.0039C10.9011 11.8906 10.8174 11.6872 10.7606 11.3938Z" fill="#53CBC8"/>
<path d="M55.8277 8.47886C55.7861 8.65666 55.7325 8.83146 55.6675 9.00209C55.5913 9.2048 55.5037 9.40303 55.4051 9.59583C55.3073 9.78959 55.1948 9.9756 55.0687 10.1522C54.9611 10.3059 54.8346 10.4454 54.6922 10.5674C54.5898 10.6642 54.4564 10.7216 54.3156 10.7294C54.1755 10.7332 54.037 10.6987 53.915 10.6297C53.8044 10.5646 53.7063 10.4803 53.6255 10.3806C53.5444 10.281 53.4777 10.1706 53.4271 10.0525C53.3786 9.93993 53.3358 9.82493 53.2988 9.708C53.215 9.44687 53.1853 9.17139 53.2115 8.89838C53.2339 8.64351 53.309 8.39607 53.4321 8.17175C53.5483 7.9605 53.7144 7.78088 53.9159 7.64852C54.1218 7.51443 54.3632 7.44503 54.6089 7.44924C54.7188 7.45222 54.828 7.46758 54.9344 7.49503C55.0654 7.52656 55.1925 7.57264 55.3132 7.63239C55.4337 7.69099 55.5461 7.76498 55.6476 7.85251C55.7389 7.92753 55.8075 8.02667 55.8454 8.13867C55.8667 8.25185 55.8606 8.36849 55.8277 8.47886ZM47.1692 9.37571C47.1692 9.27063 47.1768 9.14052 47.192 8.98537C47.2086 8.82164 47.2369 8.6593 47.2765 8.49958C47.3192 8.32622 47.3726 8.15564 47.4362 7.98883C47.4988 7.82229 47.5873 7.66671 47.6986 7.52788C47.8081 7.39252 47.9441 7.2809 48.0982 7.19982C48.2686 7.11359 48.4577 7.07081 48.6486 7.07528H48.7231C48.7491 7.07571 48.775 7.07847 48.8005 7.08352C48.8758 7.09708 48.9467 7.12848 49.0074 7.17509C49.0751 7.22421 49.1248 7.29423 49.1488 7.37438C49.1786 7.49216 49.1678 7.61654 49.1181 7.72739C49.0328 7.90348 48.9025 8.05387 48.7403 8.16328C48.6954 8.19655 48.6199 8.26023 48.5138 8.35432C48.4077 8.44841 48.2815 8.55361 48.1352 8.66991C47.989 8.78621 47.832 8.908 47.6644 9.03528C47.4969 9.16257 47.3318 9.27604 47.1693 9.37571H47.1692ZM43.0543 9.06436C43.0131 9.36429 42.9077 9.65181 42.7453 9.90729C42.5882 10.1537 42.3756 10.3599 42.1245 10.5094C41.8636 10.6637 41.5652 10.7429 41.2621 10.7383C41.1179 10.7423 40.9744 10.7169 40.8403 10.6636C40.7329 10.619 40.6351 10.5542 40.5523 10.4726C40.478 10.3986 40.4161 10.3131 40.3692 10.2193C40.3257 10.1324 40.2891 10.0421 40.2598 9.94941C40.1601 9.64251 40.1404 9.3152 40.2026 8.99854C40.2608 8.6959 40.3817 8.40877 40.5575 8.15561C40.73 7.90753 40.9564 7.70169 41.2198 7.55352C41.4861 7.40167 41.7878 7.32289 42.0944 7.32516C42.218 7.32184 42.3406 7.34892 42.4513 7.40402C42.5463 7.45337 42.6316 7.51949 42.7031 7.59919C42.7714 7.67629 42.8278 7.76304 42.8707 7.85662C42.911 7.94292 42.9457 8.0317 42.9746 8.12241C43.0725 8.42645 43.0995 8.74884 43.0537 9.06493L43.0543 9.06436ZM27.3703 9.25895C27.3512 9.51903 27.2778 9.77222 27.1548 10.0022C27.0405 10.2148 26.8769 10.397 26.6779 10.5336C26.4778 10.6698 26.2405 10.7409 25.9985 10.7371C25.8474 10.7409 25.6981 10.7036 25.5665 10.6291C25.4465 10.5591 25.3405 10.4676 25.2537 10.3592C25.168 10.2526 25.0964 10.1354 25.0408 10.0104C24.9899 9.89821 24.9456 9.78313 24.9081 9.66576C24.8214 9.39947 24.7898 9.11832 24.8152 8.83943C24.8372 8.58618 24.9112 8.34019 25.0327 8.11692C25.1471 7.90837 25.3114 7.7314 25.5109 7.60182C25.7166 7.47029 25.9566 7.40259 26.2007 7.40723C26.3519 7.40261 26.5019 7.4354 26.6373 7.50269C26.7538 7.56399 26.8574 7.64716 26.9424 7.74765C27.0255 7.84644 27.0936 7.95699 27.1444 8.07571C27.1933 8.18829 27.2362 8.30333 27.2731 8.42037C27.3602 8.69088 27.393 8.97595 27.3696 9.25918L27.3703 9.25895ZM71.9697 9.24236C71.9293 9.10591 71.8493 8.98451 71.7399 8.89357C71.6548 8.81439 71.5447 8.76739 71.4286 8.76068C71.3856 8.7604 71.3431 8.76889 71.3036 8.78563C71.2647 8.80196 71.2328 8.83136 71.2134 8.86874C71.1257 9.01273 71.0031 9.19126 70.8457 9.40432C70.6845 9.62204 70.5074 9.82747 70.3157 10.0189C70.1251 10.2115 69.9118 10.3802 69.6804 10.5213C69.4741 10.6533 69.235 10.7253 68.99 10.7289C68.8844 10.7317 68.7792 10.7148 68.6798 10.6791C68.6331 10.6572 68.5922 10.6249 68.5602 10.5845C68.5281 10.5442 68.5058 10.497 68.495 10.4467C68.4532 10.3079 68.4471 10.1608 68.4774 10.019C68.507 9.8667 68.5522 9.71784 68.6122 9.57476C68.6699 9.4355 68.7355 9.29964 68.8087 9.16784C68.8793 9.04055 68.9348 8.93535 68.9754 8.85225C69.1058 8.59243 69.1994 8.31575 69.2535 8.03015C69.3109 7.71388 69.2876 7.38822 69.1855 7.0834C69.0778 6.70911 68.8281 6.39173 68.4897 6.19904C68.3323 6.10846 68.1619 6.04281 67.9845 6.00444C67.8067 5.96577 67.6254 5.94627 67.4434 5.9463C67.2225 5.94227 67.0023 5.97317 66.791 6.03787C66.6157 6.09354 66.4496 6.17452 66.2977 6.27825C66.1581 6.37483 66.0304 6.48773 65.9175 6.61455C65.8108 6.73422 65.7117 6.86038 65.6207 6.99229C65.5582 6.81751 65.4665 6.65463 65.3494 6.51061C65.1459 6.26116 64.8678 6.08361 64.5559 6.0041C64.4063 5.96549 64.2525 5.94595 64.098 5.94595C63.8264 5.93941 63.556 5.9845 63.3011 6.07885C63.0938 6.15931 62.9009 6.27289 62.7299 6.41515C62.5737 6.5474 62.4325 6.69637 62.3087 6.85939C62.1874 7.01965 62.0738 7.16914 61.9677 7.30787C61.9817 7.14846 61.9653 6.98783 61.9193 6.83456C61.8701 6.65758 61.7643 6.50156 61.6181 6.39031C61.4992 6.29546 61.3529 6.24157 61.2009 6.2367C61.04 6.2368 60.8854 6.29929 60.7697 6.41103C60.6308 6.554 60.5497 6.74331 60.542 6.9425C60.5195 7.13633 60.489 7.37022 60.4504 7.64418C60.4119 7.91813 60.3706 8.21017 60.3264 8.5203C60.3139 8.6089 60.3011 8.6983 60.2882 8.78724C60.0509 9.14109 59.8208 9.45625 59.5978 9.73273C59.5013 9.84903 59.4003 9.96391 59.2947 10.0774C59.1956 10.1847 59.0901 10.2859 58.9787 10.3805C58.8851 10.4611 58.7836 10.5321 58.6756 10.5923C58.5936 10.6407 58.5008 10.6678 58.4056 10.6711C58.3414 10.6717 58.2779 10.6574 58.2202 10.6293C58.1624 10.6012 58.112 10.5601 58.0729 10.5092C57.9763 10.3872 57.9044 10.2476 57.8611 10.0981C57.8168 9.94782 57.788 9.7934 57.7751 9.63726C57.7575 9.4574 57.7471 9.26502 57.7439 9.06012C57.7407 8.85523 57.7431 8.64625 57.751 8.43319C57.7586 8.22013 57.7678 8.01527 57.7786 7.81862C57.7893 7.62197 57.7985 7.44344 57.8062 7.28303C57.8138 7.12278 57.815 6.98993 57.8098 6.88446C57.8066 6.85327 57.7998 6.82254 57.7896 6.79289C57.7292 6.63338 57.6169 6.49883 57.4708 6.41091C57.3036 6.29531 57.1047 6.23441 56.9015 6.23658C56.8253 6.23865 56.7501 6.25415 56.6792 6.28237C56.6006 6.31152 56.5241 6.34621 56.4503 6.38619C56.3646 6.43053 56.2825 6.47757 56.2039 6.52733C56.054 6.41838 55.896 6.32121 55.7311 6.2367C55.5609 6.15703 55.3849 6.09041 55.2046 6.03741C54.9877 5.97436 54.7627 5.94351 54.5369 5.94584C54.1227 5.93394 53.7114 6.01777 53.335 6.19079C53.0188 6.34281 52.7389 6.56085 52.5142 6.8302C52.2962 7.09551 52.128 7.39797 52.0175 7.72304C51.9041 8.04957 51.829 8.38819 51.7938 8.73206C51.7682 8.97873 51.7602 9.22692 51.7699 9.47472C51.6814 9.53768 51.581 9.60704 51.4687 9.68282C51.2883 9.80492 51.0837 9.93365 50.8551 10.069C50.6265 10.2044 50.3878 10.3303 50.139 10.4468C49.8894 10.5633 49.6307 10.659 49.3654 10.7329C49.111 10.8059 48.8477 10.8436 48.583 10.845C48.3697 10.8505 48.1582 10.8033 47.9674 10.7076C47.8045 10.626 47.6727 10.4934 47.5921 10.3299C48.1568 10.1051 48.6995 9.82855 49.2132 9.50368C49.5665 9.28273 49.8857 9.01133 50.1606 8.69807C50.3561 8.47803 50.4898 8.21014 50.5482 7.92164C50.5911 7.67783 50.5754 7.42732 50.5024 7.19077C50.3974 6.8239 50.177 6.50064 49.8738 6.26898C49.5427 6.03698 49.1445 5.92034 48.7405 5.93703C48.3414 5.93074 47.9443 5.99543 47.5677 6.12807C47.2414 6.24495 46.9373 6.4162 46.6681 6.63458C46.4168 6.84055 46.2007 7.08596 46.028 7.36121C45.8618 7.62362 45.7314 7.90712 45.6405 8.20414C45.5549 8.48286 45.5086 8.77216 45.5031 9.06367C45.4994 9.23365 45.5119 9.4036 45.5404 9.57121C45.5282 9.57499 45.5163 9.579 45.5037 9.58266C45.2668 9.64989 45.0216 9.68341 44.7753 9.68225C44.7034 9.68284 44.6317 9.67589 44.5613 9.66153C44.4897 9.64413 44.4252 9.60493 44.3769 9.54935C44.44 9.36241 44.481 9.16871 44.499 8.97221C44.5216 8.75984 44.5324 8.54637 44.5314 8.3328C44.5311 8.14544 44.5211 7.95822 44.5012 7.77192C44.4918 7.66004 44.4737 7.54905 44.4471 7.43997C44.376 7.20603 44.2612 6.98767 44.1088 6.79644C43.8281 6.44569 43.4534 6.1821 43.0284 6.03649C42.8503 5.97355 42.6632 5.93992 42.4743 5.93691C42.2429 5.93526 42.0125 5.96746 41.7904 6.03249C41.5838 6.09374 41.3846 6.17726 41.1961 6.28157C41.0149 6.38236 40.8431 6.49908 40.6827 6.63035C40.5291 6.7562 40.3827 6.89069 40.2444 7.03315C40.406 6.2415 40.5426 5.44024 40.6542 4.62936C40.7658 3.81848 40.9031 3.01989 41.0663 2.23358C41.0996 2.11533 41.1228 1.99449 41.1358 1.87232C41.1512 1.75114 41.141 1.62807 41.1059 1.51107C41.0582 1.36367 40.9642 1.23555 40.838 1.14569C40.6648 1.03505 40.4608 0.982675 40.2557 0.9962C40.1604 0.995575 40.0656 1.01105 39.9754 1.04199C39.8921 1.07034 39.8141 1.11243 39.7446 1.16653C39.6805 1.21653 39.6251 1.27688 39.5807 1.34509C39.5393 1.40769 39.512 1.47854 39.5006 1.55274L38.7634 6.94238C38.7421 7.08646 38.7263 7.20409 38.7162 7.29528C38.706 7.38647 38.698 7.4666 38.692 7.53566C38.6861 7.60503 38.6806 7.67146 38.6755 7.73495C38.6705 7.79844 38.6648 7.87318 38.6585 7.95919C38.6522 8.04511 38.6432 8.14893 38.6315 8.27065C38.6197 8.39236 38.6038 8.5446 38.5836 8.72737C38.5683 8.88373 38.5607 9.04307 38.5607 9.20538C38.3996 9.36311 38.2215 9.52073 38.0263 9.67824C37.7912 9.86764 37.5456 10.0437 37.2908 10.2056C37.0407 10.3661 36.7774 10.505 36.5036 10.6208C36.4607 10.6633 36.4069 10.6935 36.3482 10.708C36.3057 10.7159 36.2625 10.72 36.2193 10.7205C36.1652 10.723 36.1122 10.7052 36.0705 10.6707C36.0341 10.64 36.0071 10.5997 35.9926 10.5544C35.9741 10.5049 35.9657 10.4523 35.9676 10.3996C35.9696 10.3469 35.982 10.2951 36.004 10.2471C36.0279 10.1475 36.0645 10.0216 36.1139 9.8694C36.1633 9.71724 36.2174 9.54977 36.2764 9.36701C36.3353 9.1844 36.3918 8.98927 36.4457 8.78163C36.5001 8.57255 36.5418 8.36041 36.5707 8.14634C36.6 7.93174 36.6115 7.71507 36.6051 7.49857C36.599 7.28722 36.5642 7.07769 36.5015 6.87576C36.426 6.57896 36.2402 6.32207 35.982 6.15737C35.739 6.01555 35.4621 5.94236 35.1808 5.94561C34.9136 5.94672 34.6482 5.98872 34.3938 6.07015C34.1347 6.15094 33.8845 6.25811 33.6473 6.38997C33.4259 6.51158 33.22 6.65934 33.0339 6.83009C32.8805 6.96442 32.7537 7.12643 32.6602 7.30764C32.6749 7.21982 32.6776 7.13042 32.6684 7.04185C32.6599 6.96302 32.6439 6.88517 32.6206 6.80937C32.5735 6.63848 32.471 6.48806 32.3292 6.38172C32.2137 6.29195 32.0729 6.24106 31.9267 6.23635C31.7648 6.23692 31.6092 6.29928 31.4917 6.41069C31.3491 6.55324 31.2611 6.74133 31.243 6.94215C31.2307 7.02823 31.2156 7.1229 31.1986 7.22523C31.1712 7.23346 31.1474 7.25078 31.1312 7.27433C31.0854 7.35744 31.0271 7.45847 30.9564 7.57744C30.8856 7.69641 30.8046 7.82232 30.7134 7.95518C30.6223 8.08804 30.5228 8.22093 30.4148 8.35386C30.3121 8.48146 30.1997 8.60086 30.0784 8.711C29.9705 8.8102 29.8514 8.89659 29.7236 8.96844C29.6158 9.03146 29.4936 9.06578 29.3687 9.06814C29.2851 9.0681 29.2021 9.05405 29.1231 9.02658C29.0363 8.99523 28.9564 8.94729 28.888 8.88545C28.904 8.66275 28.9007 8.43908 28.878 8.21697C28.8596 8.02412 28.8222 7.83356 28.7664 7.64807C28.6773 7.34708 28.5211 7.07022 28.3096 6.83833C28.1147 6.62687 27.8866 6.44873 27.6342 6.31099C27.3967 6.18149 27.142 6.08645 26.8777 6.02871C26.6471 5.97656 26.4117 5.9487 26.1753 5.94561C25.7453 5.93452 25.3178 6.01522 24.9214 6.18233C24.5914 6.32622 24.2958 6.5385 24.0539 6.80514C23.8257 7.06081 23.6466 7.35643 23.5257 7.67714C23.405 7.99307 23.3214 8.32191 23.2764 8.65709C23.2331 8.9749 23.2238 9.29643 23.2488 9.6162C23.2666 9.88633 23.3141 10.1537 23.3903 10.4135C23.4807 10.7188 23.6343 11.0017 23.841 11.2439C24.0258 11.4594 24.2422 11.6456 24.4828 11.7962C24.6939 11.9291 24.9228 12.0312 25.1628 12.0992C25.3474 12.1541 25.5383 12.1849 25.7309 12.1908C26.1066 12.1956 26.4809 12.1438 26.8412 12.0372C27.1551 11.9427 27.4517 11.7982 27.7197 11.6094C27.9717 11.4303 28.1902 11.2083 28.3652 10.9534C28.5432 10.6922 28.6831 10.407 28.7807 10.1063C28.9309 10.1974 29.0915 10.2699 29.2592 10.3222C29.4019 10.3656 29.5501 10.388 29.6992 10.3887C29.9045 10.3902 30.1055 10.3294 30.2755 10.2143C30.452 10.0955 30.6113 9.95303 30.7488 9.79076C30.7517 9.78744 30.7542 9.78401 30.7571 9.78069C30.7253 9.98673 30.697 10.1848 30.6734 10.372C30.6384 10.649 30.615 10.8926 30.6034 11.1029C30.5875 11.2556 30.5964 11.4098 30.6298 11.5596C30.6849 11.7364 30.7917 11.8926 30.9363 12.0081C31.0803 12.1284 31.2625 12.1933 31.4501 12.1912C31.5283 12.1976 31.6068 12.1847 31.6789 12.1535C31.7509 12.1224 31.8141 12.074 31.8631 12.0127C31.9575 11.8777 32.0241 11.7253 32.0589 11.5643C32.1045 11.3725 32.1394 11.1784 32.1635 10.9828C32.188 10.7848 32.2281 10.589 32.2834 10.3973C32.3756 10.1261 32.4841 9.81884 32.6089 9.47552C32.7318 9.13699 32.8852 8.81037 33.0674 8.4997C33.2371 8.20517 33.4568 7.9424 33.7166 7.72316C33.9718 7.51178 34.2949 7.39974 34.6262 7.40769C34.714 7.40544 34.7995 7.43661 34.8653 7.49491C34.9295 7.55153 34.9768 7.62483 35.0018 7.70667C35.0321 7.82634 35.0344 7.95138 35.0084 8.07205C34.9833 8.22154 34.9467 8.39179 34.8985 8.5828C34.8502 8.7738 34.7959 8.97603 34.7354 9.18947C34.6748 9.40268 34.6215 9.61723 34.5757 9.83311C34.531 10.0413 34.4999 10.2521 34.4826 10.4643C34.4653 10.6534 34.4787 10.8441 34.5225 11.0289C34.5307 11.0734 34.5393 11.1134 34.5477 11.1494C34.5562 11.1853 34.5665 11.2227 34.5785 11.2614C34.6514 11.5242 34.7961 11.7614 34.9964 11.9465C35.1975 12.115 35.4543 12.2023 35.7164 12.1915C35.823 12.1907 35.9293 12.1796 36.0338 12.1583C36.1569 12.1331 36.2782 12.0998 36.397 12.0587C36.7332 11.9557 37.0598 11.8237 37.3731 11.6642C37.6297 11.5305 37.876 11.3778 38.1099 11.2075C38.3331 11.044 38.5468 10.8679 38.75 10.6802L38.7958 10.6383C38.866 10.8289 38.9538 11.0125 39.0582 11.1868C39.1895 11.4063 39.3562 11.6027 39.5514 11.7681C39.7557 11.939 39.9886 12.0725 40.2394 12.1625C40.5286 12.2638 40.8335 12.313 41.1399 12.3079C41.6959 12.3225 42.2455 12.1862 42.7303 11.9134C43.2101 11.6128 43.5947 11.182 43.8391 10.6712C43.979 10.7746 44.1355 10.8532 44.3019 10.9037C44.4683 10.9538 44.6412 10.979 44.815 10.9785C45.0808 10.9796 45.3458 10.9503 45.6049 10.8912C45.7532 10.8566 45.8997 10.8143 46.0437 10.7648C46.219 11.0322 46.4298 11.2745 46.6704 11.4851C46.9139 11.6987 47.1896 11.8725 47.4873 12.0002C47.7855 12.1278 48.1067 12.1928 48.431 12.1912C48.8131 12.1919 49.1935 12.1403 49.5615 12.0376C49.9153 11.9399 50.2596 11.8107 50.5903 11.6514C50.8978 11.5034 51.1939 11.3326 51.4761 11.1407C51.6758 11.0041 51.8555 10.8727 52.0151 10.7466C52.097 10.9488 52.211 11.1366 52.3526 11.3026C52.5232 11.5032 52.7231 11.6768 52.9455 11.8177C53.1418 11.9429 53.355 12.0392 53.5787 12.1039C53.7506 12.1561 53.9286 12.1855 54.1081 12.1911C54.3783 12.1942 54.6448 12.1272 54.8813 11.9965C55.1172 11.8645 55.3309 11.6962 55.5147 11.4979C55.7048 11.2934 55.8709 11.0676 56.0096 10.8252C56.1439 10.5932 56.2643 10.3533 56.37 10.1069C56.3628 10.2138 56.3685 10.3211 56.387 10.4266C56.4066 10.5433 56.4343 10.6585 56.4699 10.7713C56.527 10.9521 56.6038 11.1262 56.6988 11.2903C56.7934 11.4556 56.9094 11.6078 57.0437 11.7429C57.1742 11.874 57.325 11.9834 57.4901 12.0668C57.6567 12.1504 57.8408 12.1931 58.0272 12.1914C58.2498 12.1898 58.4691 12.1372 58.6682 12.0377C58.8887 11.9296 59.0965 11.7973 59.2878 11.6433C59.4921 11.4802 59.683 11.3011 59.8588 11.1076C59.9233 11.0367 59.9857 10.9661 60.0468 10.8956C60.0434 10.9621 60.0409 11.0261 60.0388 11.0869C60.0277 11.2429 60.0405 11.3998 60.0767 11.5519C60.1344 11.7324 60.2449 11.8915 60.3938 12.0087C60.5432 12.1335 60.7321 12.2012 60.9269 12.1996C61.0037 12.2058 61.0808 12.1918 61.1506 12.159C61.2204 12.1263 61.2804 12.0759 61.3247 12.0128C61.414 11.8719 61.4761 11.7156 61.5079 11.5519C61.5497 11.3549 61.5774 11.1551 61.5907 10.9541C61.6039 10.7528 61.6329 10.5529 61.6774 10.3561C61.7326 10.179 61.7928 9.98245 61.8582 9.76649C61.9235 9.55053 61.998 9.33305 62.0816 9.11404C62.1649 8.89629 62.2621 8.68409 62.3725 8.47875C62.4767 8.28235 62.6049 8.09965 62.7541 7.93481C62.8934 7.78089 63.0579 7.65174 63.2405 7.55283C63.4285 7.45405 63.6383 7.4041 63.8507 7.40757C63.9396 7.40578 64.0262 7.43684 64.0937 7.4948C64.1617 7.55292 64.2115 7.62931 64.2374 7.71491C64.2629 7.79391 64.272 7.87725 64.2642 7.95987C64.2551 8.04591 64.2371 8.13078 64.2108 8.21319C64.1157 8.52881 64.0076 8.83745 63.8864 9.13911C63.7652 9.44076 63.6591 9.73837 63.5682 10.0319C63.4804 10.3108 63.4186 10.5971 63.3834 10.8873C63.3506 11.161 63.3766 11.4384 63.4597 11.7012C63.4896 11.7762 63.5348 11.8441 63.5925 11.9005C63.6541 11.9622 63.7237 12.0153 63.7995 12.0583C63.8765 12.1024 63.9585 12.1373 64.0437 12.1622C64.1174 12.1852 64.1941 12.1978 64.2713 12.1995C64.3482 12.2057 64.4253 12.1917 64.4951 12.1589C64.5649 12.1262 64.6249 12.0757 64.6692 12.0127C64.7585 11.8718 64.8206 11.7155 64.8524 11.5518C64.894 11.3547 64.9217 11.1549 64.9352 10.954C64.9485 10.7527 64.9775 10.5527 65.022 10.356C65.0769 10.1789 65.1371 9.98234 65.2024 9.76638C65.2677 9.55042 65.3423 9.33294 65.4261 9.11392C65.5093 8.89613 65.6064 8.68392 65.7169 8.47863C65.8212 8.28223 65.9493 8.09952 66.0986 7.93469C66.2379 7.78077 66.4024 7.65161 66.5849 7.55272C66.7729 7.45391 66.9828 7.40396 67.1951 7.40746C67.2841 7.40567 67.3706 7.43672 67.4382 7.49468C67.5061 7.5528 67.556 7.62919 67.5819 7.7148C67.6074 7.7938 67.6165 7.87713 67.6087 7.95976C67.5995 8.04579 67.5815 8.13067 67.5551 8.21307C67.4908 8.43061 67.4069 8.64186 67.3045 8.84424C67.1979 9.05664 67.1024 9.27442 67.0183 9.4967C66.933 9.72274 66.8758 9.95839 66.8479 10.1984C66.821 10.4618 66.8505 10.7279 66.9344 10.979C67.0353 11.3579 67.2726 11.6862 67.6007 11.9008C67.9267 12.0984 68.3022 12.1992 68.6833 12.1916C68.9904 12.193 69.2944 12.1306 69.5762 12.0084C69.8636 11.8821 70.1333 11.7188 70.3785 11.5226C70.6417 11.3126 70.8854 11.0791 71.1065 10.8251C71.3367 10.5622 71.5562 10.2868 71.765 9.99886C71.8737 9.89255 71.9493 9.75695 71.9825 9.60853C72.0079 9.48741 72.0029 9.36188 71.9679 9.24315" fill="#53CBC8"/>
<path d="M18.6508 5.84821C17.8663 5.84854 17.114 6.16048 16.5594 6.71542C16.0049 7.27036 15.6935 8.02286 15.6937 8.80739C15.6937 8.80945 15.6937 8.81151 15.6937 8.81357V8.81826C15.6958 8.85543 15.712 8.89038 15.7391 8.91593C15.7662 8.94148 15.802 8.95568 15.8393 8.95562H21.4628C21.5 8.95571 21.5359 8.94151 21.5629 8.91596C21.59 8.89041 21.6063 8.85544 21.6084 8.81826V8.81357C21.6084 8.81151 21.6084 8.80945 21.6084 8.80739C21.6085 8.41889 21.5321 8.03417 21.3835 7.6752C21.2349 7.31623 21.0171 6.99005 20.7424 6.71526C20.4678 6.44048 20.1417 6.22247 19.7829 6.0737C19.424 5.92493 19.0393 5.84831 18.6508 5.84821Z" fill="#53CBC8"/>
<path d="M13.7353 12.1114C13.7353 12.147 13.7247 12.1818 13.7049 12.2114C13.6851 12.241 13.657 12.2641 13.6241 12.2777C13.5912 12.2913 13.555 12.2949 13.5201 12.288C13.4852 12.281 13.4531 12.2639 13.4279 12.2387C13.4027 12.2135 13.3856 12.1814 13.3786 12.1465C13.3717 12.1116 13.3752 12.0754 13.3889 12.0425C13.4025 12.0096 13.4256 11.9814 13.4552 11.9616C13.4848 11.9419 13.5196 11.9313 13.5552 11.9313C13.603 11.9313 13.6488 11.9503 13.6825 11.984C13.7163 12.0178 13.7353 12.0636 13.7353 12.1114Z" fill="#E1147B"/>
<path d="M21.267 11.115H15.2329C15.2022 11.1151 15.1721 11.1231 15.1454 11.1382C15.1187 11.1534 15.0965 11.1753 15.0808 11.2016C15.065 11.228 15.0564 11.258 15.0558 11.2887C15.0551 11.3194 15.0625 11.3497 15.077 11.3767L15.08 11.3823C15.0952 11.4104 15.1177 11.4339 15.1452 11.4502C15.1727 11.4666 15.2041 11.4752 15.236 11.4751H21.2639C21.2959 11.4752 21.3273 11.4666 21.3547 11.4502C21.3822 11.4339 21.4047 11.4104 21.42 11.3823L21.4229 11.3767C21.4375 11.3497 21.4448 11.3194 21.4441 11.2887C21.4434 11.258 21.4348 11.228 21.4191 11.2017C21.4034 11.1753 21.3811 11.1535 21.3545 11.1383C21.3278 11.1231 21.2977 11.1151 21.267 11.115Z" fill="#E1147B"/>
<path d="M22.0689 9.48251H15.2327C15.2086 9.48257 15.1847 9.48754 15.1626 9.49712C15.1404 9.50671 15.1204 9.52071 15.1039 9.53827C15.0873 9.55582 15.0745 9.57657 15.0662 9.59924C15.058 9.62191 15.0544 9.64603 15.0557 9.67012C15.0557 9.67195 15.0557 9.6739 15.0557 9.67573C15.0583 9.72091 15.0781 9.76339 15.111 9.79443C15.1439 9.82548 15.1875 9.84273 15.2327 9.84262H22.0682C22.1134 9.8427 22.157 9.82544 22.1899 9.7944C22.2228 9.76336 22.2426 9.7209 22.2451 9.67573C22.2451 9.6739 22.2451 9.67195 22.2451 9.67012C22.2465 9.64608 22.2429 9.62202 22.2347 9.5994C22.2265 9.57677 22.2137 9.55606 22.1972 9.53851C22.1808 9.52096 22.1609 9.50695 22.1388 9.49732C22.1167 9.4877 22.0929 9.48266 22.0689 9.48251Z" fill="#E1147B"/>
<path d="M19.4949 13.5639H16.4141C16.3742 13.564 16.3355 13.5776 16.3042 13.6024C16.273 13.6273 16.251 13.6619 16.2418 13.7008C16.2327 13.7396 16.2369 13.7804 16.2539 13.8166C16.2708 13.8527 16.2994 13.8821 16.3351 13.9L16.3466 13.9056C16.3711 13.9178 16.3982 13.9241 16.4256 13.924H19.4838C19.5112 13.9241 19.5383 13.9178 19.5629 13.9056L19.5743 13.9C19.61 13.8821 19.6387 13.8527 19.6556 13.8165C19.6725 13.7803 19.6767 13.7394 19.6675 13.7005C19.6583 13.6617 19.6363 13.627 19.6049 13.6022C19.5736 13.5774 19.5348 13.5639 19.4949 13.5639Z" fill="#E1147B"/>
<path d="M21.3776 12.7477H18.2963C18.2564 12.7478 18.2177 12.7613 18.1864 12.7861C18.1551 12.811 18.1332 12.8456 18.124 12.8845C18.1149 12.9233 18.1191 12.9642 18.1361 13.0003C18.153 13.0365 18.1816 13.0659 18.2173 13.0837L18.2288 13.0893C18.2533 13.1015 18.2804 13.1078 18.3079 13.1078H21.3662C21.3936 13.1078 21.4207 13.1015 21.4453 13.0893L21.4567 13.0837C21.4924 13.0659 21.5211 13.0364 21.538 13.0003C21.5549 12.9641 21.5591 12.9233 21.55 12.8844C21.5408 12.8456 21.5188 12.8109 21.4876 12.7861C21.4563 12.7613 21.4176 12.7477 21.3776 12.7477Z" fill="#E1147B"/>
<path d="M17.1762 12.2349L17.171 12.2293C17.1476 12.2039 17.1321 12.1724 17.1264 12.1384C17.1207 12.1044 17.125 12.0695 17.1387 12.038C17.1525 12.0064 17.1752 11.9795 17.204 11.9606C17.2329 11.9418 17.2666 11.9317 17.301 11.9316H22.3011C22.3356 11.9317 22.3693 11.9418 22.3981 11.9606C22.4269 11.9795 22.4496 12.0064 22.4634 12.038C22.4772 12.0695 22.4815 12.1044 22.4758 12.1384C22.47 12.1724 22.4545 12.2039 22.4312 12.2293L22.4259 12.2349C22.4093 12.2527 22.3892 12.2669 22.3668 12.2766C22.3445 12.2864 22.3204 12.2915 22.296 12.2915H17.3063C17.2819 12.2915 17.2578 12.2864 17.2354 12.2767C17.213 12.2669 17.1929 12.2527 17.1762 12.2349Z" fill="#E1147B"/>
<path d="M14.1983 11.9313H16.5859C16.6259 11.9314 16.6646 11.945 16.6958 11.9698C16.7271 11.9946 16.7491 12.0293 16.7582 12.0681C16.7673 12.107 16.7631 12.1478 16.7462 12.184C16.7292 12.2201 16.7006 12.2495 16.6649 12.2674L16.6535 12.273C16.6289 12.2852 16.6019 12.2915 16.5745 12.2914H14.2096C14.1822 12.2915 14.1551 12.2852 14.1305 12.273L14.1191 12.2674C14.0834 12.2495 14.0547 12.2201 14.0378 12.1839C14.0209 12.1477 14.0166 12.1069 14.0258 12.068C14.035 12.0291 14.057 11.9945 14.0883 11.9697C14.1196 11.9449 14.1583 11.9314 14.1983 11.9313Z" fill="#E1147B"/>
<path d="M14.7699 9.6629C14.7699 9.69848 14.7593 9.73326 14.7395 9.76283C14.7198 9.79241 14.6917 9.81545 14.6588 9.82906C14.6259 9.84266 14.5897 9.84622 14.5548 9.83927C14.5199 9.83232 14.4879 9.81519 14.4627 9.79003C14.4376 9.76487 14.4204 9.73282 14.4135 9.69792C14.4066 9.66303 14.4101 9.62686 14.4237 9.59398C14.4373 9.56111 14.4604 9.533 14.4899 9.51322C14.5195 9.49344 14.5543 9.48287 14.5899 9.48285C14.6376 9.48285 14.6834 9.50182 14.7172 9.53558C14.7509 9.56935 14.7699 9.61515 14.7699 9.6629Z" fill="#E1147B"/>
<path d="M19.0129 10.527L19.0143 10.5214C19.0214 10.4951 19.0223 10.4675 19.017 10.4408C19.0116 10.4141 19.0002 10.389 18.9836 10.3674C18.967 10.3459 18.9457 10.3284 18.9212 10.3164C18.8968 10.3044 18.8699 10.2982 18.8426 10.2983H13.8423C13.8151 10.2982 13.7882 10.3044 13.7637 10.3164C13.7393 10.3284 13.7179 10.3459 13.7013 10.3674C13.6847 10.389 13.6733 10.4141 13.668 10.4408C13.6626 10.4675 13.6635 10.4951 13.6706 10.5214C13.6706 10.5232 13.6716 10.5252 13.6721 10.527C13.6823 10.5648 13.7046 10.5981 13.7356 10.6218C13.7667 10.6456 13.8047 10.6585 13.8438 10.6584H18.8416C18.8807 10.6584 18.9187 10.6456 18.9497 10.6218C18.9808 10.5981 19.0031 10.5647 19.0133 10.527" fill="#E1147B"/>
<path d="M13.3793 10.4788C13.3792 10.5144 13.3687 10.5492 13.3489 10.5788C13.3291 10.6083 13.301 10.6314 13.2681 10.645C13.2352 10.6586 13.1991 10.6621 13.1642 10.6552C13.1293 10.6482 13.0972 10.6311 13.0721 10.6059C13.0469 10.5807 13.0298 10.5487 13.0228 10.5138C13.0159 10.4789 13.0195 10.4427 13.0331 10.4098C13.0467 10.3769 13.0698 10.3488 13.0994 10.3291C13.129 10.3093 13.1638 10.2988 13.1993 10.2988C13.2471 10.2988 13.2928 10.3178 13.3266 10.3515C13.3603 10.3853 13.3793 10.4311 13.3793 10.4788Z" fill="#E1147B"/>
<path d="M14.7699 11.2951C14.7699 11.3307 14.7593 11.3654 14.7395 11.395C14.7198 11.4246 14.6917 11.4476 14.6588 11.4612C14.6259 11.4748 14.5897 11.4784 14.5548 11.4714C14.5199 11.4645 14.4879 11.4474 14.4627 11.4222C14.4376 11.397 14.4204 11.365 14.4135 11.3301C14.4066 11.2952 14.4101 11.259 14.4237 11.2262C14.4373 11.1933 14.4604 11.1652 14.4899 11.1454C14.5195 11.1256 14.5543 11.115 14.5899 11.115C14.6376 11.115 14.6834 11.134 14.7172 11.1678C14.7509 11.2015 14.7699 11.2473 14.7699 11.2951Z" fill="#E1147B"/>
<path d="M17.8335 12.9277C17.8335 12.9633 17.823 12.9981 17.8032 13.0277C17.7834 13.0573 17.7553 13.0804 17.7224 13.0941C17.6895 13.1077 17.6533 13.1112 17.6183 13.1043C17.5834 13.0973 17.5513 13.0802 17.5261 13.055C17.501 13.0298 17.4838 12.9978 17.4769 12.9628C17.4699 12.9279 17.4735 12.8917 17.4871 12.8588C17.5007 12.8259 17.5238 12.7978 17.5534 12.778C17.583 12.7582 17.6178 12.7477 17.6535 12.7477C17.7012 12.7477 17.747 12.7666 17.7808 12.8004C17.8145 12.8342 17.8335 12.88 17.8335 12.9277Z" fill="#E1147B"/>
<path d="M15.9512 13.7435C15.9512 13.7791 15.9406 13.8139 15.9208 13.8435C15.9011 13.873 15.8729 13.8961 15.8401 13.9097C15.8072 13.9233 15.771 13.9268 15.7361 13.9199C15.7012 13.9129 15.6692 13.8958 15.644 13.8706C15.6188 13.8454 15.6017 13.8134 15.5948 13.7785C15.5879 13.7436 15.5914 13.7074 15.605 13.6745C15.6187 13.6417 15.6417 13.6136 15.6713 13.5938C15.7009 13.574 15.7357 13.5635 15.7713 13.5635C15.819 13.5635 15.8648 13.5825 15.8985 13.6163C15.9323 13.65 15.9512 13.6958 15.9512 13.7435Z" fill="#E1147B"/>
</g>
<defs>
<clipPath id="clip0_6_374">
<rect width="72" height="13.924" fill="white"/>
</clipPath>
</defs>
</svg>
