<svg width="20" height="73" viewBox="0 0 20 73" fill="none" xmlns="http://www.w3.org/2000/svg">
<path d="M7.41704 35.3094L15.9193 35.3094C15.0045 35.7937 13.9283 36.3857 12.7982 36.9238C12.3677 37.139 11.991 37.3543 11.5605 37.5695C9.56951 38.5919 8.00897 39.4529 6.82511 40.0987C6.23319 40.4215 5.69507 41.0673 5.8565 41.7668C5.96413 42.0897 6.287 42.6278 7.36323 42.6278L17.8565 42.6278C17.8565 42.6278 17.8027 41.1211 16.1345 41.1211L7.95516 41.1211C9.03139 40.5291 10.4843 39.7758 12.1525 38.861C12.583 38.6457 12.9596 38.4305 13.3901 38.2152C14.6278 37.5695 15.9193 36.87 16.9417 36.3318C17.426 36.009 17.9103 35.5247 17.9103 34.9327C17.9103 34.8251 17.9103 34.7713 17.8565 34.6637C17.7489 34.3408 17.426 33.8027 16.3498 33.8027L5.96413 33.8027C5.96413 33.8027 6.01794 35.3094 7.41704 35.3094ZM9.73094 27.722C9.73094 29.8206 11.4529 31.5964 13.6054 31.5964C15.704 31.5964 17.4798 29.8744 17.4798 27.722C17.4798 25.5695 15.7578 23.8475 13.6054 23.8475C11.4529 23.8475 9.73094 25.6233 9.73094 27.722ZM15.9731 27.722C15.9731 29.0673 14.8969 30.1435 13.5516 30.1435C12.2063 30.1435 11.13 29.0673 11.13 27.722C11.13 26.3767 12.2063 25.3004 13.5516 25.3004C14.8969 25.3004 15.9731 26.4305 15.9731 27.722ZM5.8565 15.3453L11.2377 15.3453C10.3767 16.0448 9.89238 17.1211 9.89238 18.3049C9.89238 20.4574 11.6682 22.2332 13.8744 22.2332C16.0269 22.2332 17.8565 20.5112 17.8565 18.3049C17.8565 17.1211 17.3184 16.0448 16.5112 15.3453L16.6188 15.3453C18.1256 15.3453 18.1256 13.8924 18.1256 13.8924L11.6144 13.8924L9.83857 13.8924L9.5157 13.8924L8.43946 13.8924L8.38565 13.8924L7.36323 13.8924C5.80269 13.8924 5.8565 15.3453 5.8565 15.3453ZM16.296 18.3049C16.296 19.6502 15.1659 20.7265 13.8206 20.7265C12.4753 20.7265 11.3453 19.6502 11.3453 18.3049C11.3453 16.9596 12.4753 15.8834 13.8206 15.8834C15.1659 15.8834 16.296 16.9596 16.296 18.3049ZM5.8565 11.0942L16.565 11.0942C18.0718 11.0942 18.0718 9.42601 18.0718 9.42601L14.1973 9.42601L9.56951 9.42601L7.41704 9.42601C5.80269 9.42601 5.8565 11.0942 5.8565 11.0942ZM13.6054 0.600898C11.5067 0.600898 9.73094 2.32288 9.73094 4.47534C9.73094 6.57399 11.4529 8.34978 13.6054 8.34978C15.704 8.34978 17.4798 6.62781 17.4798 4.47534C17.4798 3.39911 17.0493 2.48431 16.3498 1.73095L15.3274 2.75336C15.7578 3.18386 16.0269 3.77579 16.0269 4.42153C16.0269 5.49776 15.3274 6.41256 14.3587 6.68162L14.3587 0.547092L13.6054 0.600898ZM11.1839 4.47534C11.1839 3.39911 11.8834 2.48431 12.852 2.21525L12.852 6.78924C11.8834 6.46637 11.1839 5.55157 11.1839 4.47534ZM10.8072 62.0538L10.8072 60.4395L9.73095 60.4395L9.73095 62.0538L10.8072 62.0538Z" fill="black"/>
<path d="M0.852027 57.4798C0.852027 59.0942 1.33633 60.009 2.30494 60.87C3.27355 61.6771 4.51122 61.8924 5.42602 61.8924L7.95517 61.9462L8.00898 60.5471L5.47983 60.4933C4.83409 60.4933 4.24216 60.278 3.75786 59.9013C3.27355 59.5247 3.00449 58.9865 3.00449 58.3946L3.00449 58.3408C3.00449 57.6413 3.16593 57.157 3.43499 56.8341C3.75786 56.4574 4.24216 56.2422 4.83409 56.296C5.42602 56.296 6.01795 56.565 6.44844 56.9955C6.87893 57.426 7.14799 58.0179 7.09418 58.6637L7.04037 60.009L7.90135 60.009L7.95517 58.6637L7.95517 58.6099C7.95517 56.8879 6.55606 55.435 4.83409 55.435C4.4036 55.435 3.9731 55.4888 3.59642 55.6502L3.43499 55.704L3.59642 55.5964C4.13454 55.1659 4.83409 54.8969 5.58745 54.8969C7.2018 54.9507 8.54709 56.2422 8.54709 57.9103L8.54709 57.9641L8.49328 60.4933L8.43947 61.9462L8.38566 65.9283L8.38566 66.0359C8.38566 67.3812 8.92378 68.6726 9.83858 69.6951C10.8072 70.7175 12.0987 71.3094 13.5516 71.3094C14.3588 71.3094 15.1659 71.148 15.8655 70.8251L15.9193 70.7713C15.0583 71.417 13.9821 71.7399 12.852 71.7399C11.5067 71.6861 10.2153 71.148 9.24665 70.1794C8.27804 69.2108 7.79373 67.9193 7.79373 66.574L7.84754 62.4843L6.98656 62.4843L6.93275 66.574L6.93275 66.6816C6.93275 68.2422 7.52467 69.6951 8.60091 70.7713C9.67714 71.9013 11.1839 72.5471 12.7982 72.6009C14.7892 72.6547 16.5112 72.009 17.6951 70.8789C19.0404 69.5874 19.6861 67.7578 19.6861 65.3901C19.6861 63.7758 19.2018 62.5919 18.2332 61.7309C17.426 61.0852 16.3498 60.7085 15.1659 60.6547L12.6368 60.6009L12.583 62L15.1121 62.0538C15.7579 62.0538 16.3498 62.2691 16.8341 62.6457C17.3722 63.0762 17.5875 63.5605 17.5875 64.1525C17.5875 64.852 17.426 65.3363 17.157 65.6592C16.8341 66.0359 16.3498 66.2511 15.7579 66.1973C14.5202 66.1435 13.4978 65.1211 13.4978 63.8834L13.4978 63.8296L13.5516 62.4843L12.6906 62.4843L12.6368 63.8296L12.6368 63.8834C12.6368 65.6054 14.0359 67.0583 15.7579 67.0583C16.1884 67.0583 16.6188 67.0045 16.9955 66.8431L17.157 66.7892L16.9955 66.8969C16.4574 67.3274 15.7579 67.5964 15.0045 67.5964C13.3901 67.5426 12.0449 66.2511 12.0449 64.583L12.0449 64.5291L12.0987 62L12.1525 60.5471L12.2063 56.6188L12.2063 56.5112C12.2063 53.6592 9.89239 51.2915 7.04037 51.2377C6.23319 51.2377 5.42602 51.3991 4.72647 51.722L4.67265 51.6682C5.53364 51.0224 6.60987 50.6996 7.73992 50.6996C9.08521 50.7534 10.3767 51.2915 11.3453 52.2601C12.3139 53.2287 12.7982 54.5202 12.7982 55.8655L12.7444 59.9552L13.6054 59.9552L13.6592 55.8655L13.6592 55.7579C13.6592 54.1973 13.0673 52.6368 11.991 51.4529C10.861 50.1614 9.35427 49.7848 7.79373 49.7309C5.96414 49.6771 4.29597 50.3229 3.05831 51.5067C1.55158 53.0673 0.852027 55.0583 0.852027 57.4798ZM11.2915 56.6188L11.2915 56.6726L11.2377 60.6009L11.1839 62.0538L11.1301 64.5291L11.1301 64.583C11.1301 65.6054 11.5067 66.574 12.2063 67.2735C12.9058 68.0269 13.9283 68.4036 14.9507 68.4574C15.4888 68.4574 16.0269 68.3498 16.565 68.1345L16.7265 68.0807L16.565 68.2422C15.8655 68.7265 15.1121 69.0493 14.2511 69.0493C12.2601 68.9955 10.5919 67.3274 10.5919 65.3363L10.5919 65.2825L10.6458 62.5381L9.78476 62.5381L9.73095 65.2825L9.73095 65.3363C9.73095 67.8117 11.722 69.8565 14.2511 69.9103C14.9507 69.9103 15.5964 69.7489 16.2422 69.4798L16.4036 69.3722L16.1884 69.5336C15.3812 70.1256 14.4664 70.3946 13.4978 70.3946C11.1301 70.3408 9.13902 68.4036 9.13902 66.0359L9.13902 65.9821L9.19284 62.0538L9.24665 60.6547L9.24665 60.6009L9.30046 58.0718L9.30046 58.0179C9.30046 56.9955 8.92378 56.0269 8.22423 55.3274C7.52467 54.574 6.50225 54.1973 5.47983 54.1435C4.94171 54.1435 4.4036 54.2511 3.86548 54.4664L3.70404 54.5202L3.86548 54.3587C4.56503 53.8744 5.3184 53.5516 6.17938 53.5516C7.14799 53.5516 8.1166 53.9821 8.76234 54.6816C9.46189 55.3812 9.83858 56.296 9.83858 57.2646L9.83858 57.3184L9.78476 60.0628L10.6458 60.0628L10.6996 57.3184L10.6996 57.2646C10.6996 56.0807 10.2691 54.9507 9.40808 54.0897C8.5471 53.2287 7.41705 52.7444 6.17938 52.6906C5.47983 52.6906 4.83409 52.852 4.18835 53.1211L4.08073 53.1749L4.29597 53.0135C5.10315 52.4215 6.01795 52.1525 6.98656 52.1525C9.35427 52.2601 11.2915 54.2511 11.2915 56.6188Z" fill="black"/>
</svg>
