<svg width="72" height="20" viewBox="0 0 72 20" fill="none" xmlns="http://www.w3.org/2000/svg">
<path d="M0.887482 17.0382V14.0911L2.79708 14.0549L4.70668 14.0186V12.1171V10.2156L2.79708 10.1794L0.887482 10.1431V5.29433V0.445709H8.69022H16.493V2.41279V4.37986H18.46H20.4271V7.26491V10.15H18.46H16.493V12.117V14.0841H10.6573H4.82164V17.0347V19.9853H2.85456H0.887482V17.0382ZM16.493 7.26491V4.37986H10.6573H4.82164V7.26491V10.15H10.6573H16.493V7.26491ZM24.3093 19.8763C24.2722 19.8163 24.2416 18.518 24.2413 16.9912L24.2405 14.2153L24.8582 14.2156L25.4758 14.216L26.9123 15.8608C27.7025 16.7655 28.4106 17.557 28.486 17.6198C28.5806 17.6985 28.6098 17.1881 28.5802 15.9744L28.5372 14.215H29.2686H30.0001V17.1V19.985H29.4205H28.8409L27.2895 18.2192L25.7381 16.4534L25.7016 18.2192L25.6651 19.985H25.0209C24.6665 19.985 24.3463 19.9359 24.3092 19.876L24.3093 19.8763ZM31.1805 17.1003V14.2153H33.2787H35.3769V14.7398V15.2644H33.9928H32.6086L32.6486 15.8873L32.6886 16.5102L33.7049 16.5485L34.7212 16.5868V17.0402V17.4937L33.8688 17.5102C33.4 17.5192 32.9426 17.5339 32.8525 17.5429C32.7454 17.5536 32.6886 17.7866 32.6886 18.215V18.8707L34.0327 18.9081L35.3769 18.9454V19.4654V19.9853H33.2787H31.1805V17.1003ZM37.8685 17.6249V15.2644H36.9506H36.0326V14.7398V14.2153H38.5898H41.147V14.7398V15.2644H40.229H39.3111V17.6249V19.9853H38.5898H37.8685V17.6249ZM43.5749 19.8283C43.2602 18.9436 41.6715 14.2976 41.6715 14.2619C41.6715 14.2361 42.0235 14.2152 42.4538 14.2152C43.3797 14.2152 43.3145 14.1287 43.8874 16.1167C44.1161 16.9101 44.3363 17.6478 44.3768 17.756C44.4176 17.8648 44.7232 17.1911 45.0609 16.2479C45.3966 15.3102 45.719 14.4693 45.7774 14.3792C45.8357 14.289 46.1399 14.2152 46.4534 14.2152H47.0234L47.4135 15.2971C47.6281 15.8922 47.9102 16.7191 48.0405 17.1348C48.1708 17.5505 48.3167 17.8456 48.3646 17.7905C48.4125 17.7355 48.6452 17.0118 48.8818 16.1823C49.4643 14.1399 49.4113 14.2152 50.2657 14.2152C50.7551 14.2152 50.9803 14.2672 50.9759 14.3792C50.9727 14.4693 50.5444 15.7528 50.0251 17.2314L49.0809 19.9198L48.4379 19.9606C48.0122 19.9875 47.758 19.9432 47.6859 19.8294C47.626 19.7349 47.3326 18.9198 47.034 18.0183C46.7353 17.1167 46.4468 16.3305 46.3928 16.2711C46.3389 16.2117 46.0069 17.0084 45.6551 18.0415L45.0156 19.9198L44.3256 19.9594C43.848 19.987 43.617 19.9466 43.5749 19.8283V19.8283ZM53.5421 19.7834C51.5691 19.0324 51.0124 16.5388 52.4882 15.063C53.7085 13.8427 55.9624 13.7624 57.3267 14.8907C58.8365 16.1392 58.6192 18.5546 56.9069 19.558C56.4098 19.8494 56.1267 19.913 55.188 19.9445C54.4202 19.9702 53.8987 19.9191 53.5421 19.7834ZM56.079 18.5782C56.5442 18.2341 56.7743 17.7254 56.7743 17.0415C56.7743 15.9059 56.1273 15.2644 54.9821 15.2644C53.7335 15.2644 53.1434 15.9355 53.2383 17.2475C53.2987 18.0828 53.5349 18.456 54.1953 18.7594C54.7061 18.9942 55.6378 18.9046 56.079 18.5782ZM59.2441 17.1003V14.2152L60.8506 14.218C63.1425 14.2216 63.9651 14.6464 63.9651 15.8244C63.9651 16.4718 63.6743 17.0247 63.1806 17.3163L62.7881 17.5482L63.0959 17.8815C63.432 18.2454 64.4896 19.7913 64.4896 19.9187C64.4896 19.9621 64.1213 19.9801 63.6711 19.9587L62.8526 19.9197L62.2255 19.0017C61.0993 17.3529 60.8178 17.3267 60.8178 18.8706V19.9852H60.0309H59.2441V17.1003ZM62.2603 16.5757C62.849 15.987 62.4243 15.2802 61.4132 15.1662L60.8178 15.0991V15.9686V16.838H61.4079C61.8232 16.838 62.0757 16.7603 62.2603 16.5757ZM65.4076 17.1068V14.2152H66.1944H66.9813V15.4095C66.9813 16.4447 67.0089 16.5932 67.1887 16.5242C67.3028 16.4804 67.4363 16.4446 67.4854 16.4446C67.5345 16.4446 67.9533 15.943 68.4161 15.3299L69.2576 14.2152H70.1586H71.0596L70.1147 15.3627C69.595 15.9938 69.0757 16.5907 68.9607 16.6891C68.8106 16.8177 68.7965 16.885 68.9109 16.928C69.0432 16.9777 70.7814 19.2774 71.0978 19.8214C71.17 19.9455 70.9859 19.9853 70.3395 19.9853H69.4858L68.5616 18.7395C67.8297 17.7528 67.5703 17.4937 67.3143 17.4937C66.9968 17.4937 66.9904 17.5151 66.9534 18.7067L66.9156 19.9198L66.1616 19.9591L65.4075 19.9984L65.4076 17.1068ZM24.2408 7.26491V4.37986H25.9445C27.8582 4.37986 28.3035 4.49892 28.8589 5.15893C29.1337 5.48555 29.2133 5.71797 29.2129 6.19308C29.2118 7.4724 28.3198 8.1747 26.689 8.18L25.8038 8.18273V9.16626V10.1498H25.0223H24.2408V7.26491ZM27.3471 7.02419C27.5481 6.89662 27.7405 6.23894 27.6704 5.91896C27.5993 5.59402 26.9624 5.29784 26.3349 5.29784H25.8038V6.21581V7.13378L26.4923 7.13196C26.8709 7.13105 27.2556 7.08247 27.3471 7.02438V7.02419ZM30.2625 7.26491V4.37986H30.9838H31.705V5.56011V6.74036H33.082H34.4589V5.56011V4.37986H35.1802H35.9015V7.26491V10.15H35.1851H34.4688L34.431 8.93693L34.3933 7.7239H33.0819H31.7706L31.7329 8.93693L31.6951 10.15H30.9788H30.2625L30.2625 7.26491ZM36.8194 10.0765C36.8194 10.036 37.3602 8.73778 38.0212 7.19143L39.2229 4.37986H40.0398C40.57 4.37986 40.8802 4.43738 40.9239 4.54379C40.9608 4.63394 41.5235 5.93222 42.1743 7.42884L43.3575 10.15H42.5728H41.7881L41.5157 9.49426L41.2432 8.83857H40.0409H38.8386L38.5615 9.49426L38.2845 10.15H37.552C37.1491 10.15 36.8194 10.1168 36.8194 10.0765ZM40.8847 7.8508C40.8847 7.70434 40.0698 5.67564 40.0278 5.71761C39.9839 5.7615 39.1799 7.81652 39.1799 7.88483C39.1799 7.90455 39.5635 7.92059 40.0323 7.92059C40.5011 7.92059 40.8847 7.8892 40.8847 7.8508V7.8508ZM44.1632 7.26491V4.37986H44.8844H45.6057V6.74036V9.10085H46.8515H48.0973V9.6254V10.15H46.1302H44.1632V7.26491ZM48.6219 10.111C48.6219 10.0824 49.1713 8.79598 49.8429 7.25224L51.0638 4.44543H51.9015H52.7392L53.8673 7.0682C54.4878 8.51073 55.0348 9.79425 55.083 9.92047C55.1602 10.1228 55.0803 10.15 54.4053 10.15H53.6401L53.3676 9.49426L53.0951 8.83857H51.9101H50.7252L50.4276 9.46148L50.13 10.0844L49.3759 10.1237C48.9612 10.1454 48.6219 10.1396 48.6219 10.1111V10.111ZM52.6872 7.82744C52.6872 7.64982 51.9656 5.69194 51.9003 5.69255C51.8643 5.69291 51.6503 6.19433 51.4249 6.80688L51.0151 7.9206H51.8511C52.311 7.9206 52.6872 7.87867 52.6872 7.82744Z" fill="black"/>
<path d="M0.887482 17.0382V14.0911L2.79708 14.0549L4.70668 14.0186V12.1171V10.2156L2.79708 10.1794L0.887482 10.1431V5.29433V0.445709H8.69022H16.493V2.41279V4.37986H18.46H20.4271V7.26491V10.15H18.46H16.493V12.117V14.0841H10.6573H4.82164V17.0347V19.9853H2.85456H0.887482V17.0382ZM16.493 7.26491V4.37986H10.6573H4.82164V7.26491V10.15H10.6573H16.493V7.26491Z" fill="black"/>
</svg>
