<svg width="16" height="73" viewBox="0 0 16 73" fill="none" xmlns="http://www.w3.org/2000/svg">
<path d="M11.6021 51.6627L5.27369 51.6627L5.27369 49.4069C5.27369 48.9146 5.3633 48.5067 5.54252 48.1833C5.72174 47.8599 5.96689 47.6178 6.27795 47.4571C6.58696 47.2964 6.9351 47.2161 7.32239 47.2161C7.71174 47.2161 8.06194 47.2975 8.37301 47.4602C8.68201 47.6209 8.92716 47.864 9.10844 48.1895C9.28766 48.5129 9.37727 48.9197 9.37727 49.41L9.37727 50.9612L8.56768 50.9612L8.56768 49.4966C8.56768 49.1855 8.51412 48.9331 8.407 48.7395C8.29782 48.5459 8.14949 48.4037 7.96203 48.3131C7.77457 48.2224 7.56135 48.1771 7.32239 48.1771C7.08343 48.1771 6.87124 48.2224 6.68584 48.3131C6.50044 48.4037 6.3552 48.5469 6.25014 48.7426C6.14508 48.9362 6.09255 49.1917 6.09255 49.5089L6.09255 50.7079L11.6021 50.7079L11.6021 51.6627Z" fill="black"/>
<path d="M11.6979 44.2311C11.6979 44.6761 11.5959 45.0644 11.392 45.3961C11.188 45.7277 10.9027 45.9852 10.536 46.1686C10.1694 46.3519 9.74087 46.4436 9.25058 46.4436C8.75823 46.4436 8.32769 46.3519 7.95894 46.1686C7.59019 45.9852 7.30385 45.7277 7.09991 45.3961C6.89596 45.0644 6.79399 44.6761 6.79399 44.2311C6.79399 43.7861 6.89596 43.3978 7.09991 43.0662C7.30385 42.7345 7.59019 42.477 7.95894 42.2936C8.32769 42.1103 8.75823 42.0186 9.25058 42.0186C9.74087 42.0186 10.1694 42.1103 10.536 42.2936C10.9027 42.477 11.188 42.7345 11.392 43.0662C11.5959 43.3978 11.6979 43.7861 11.6979 44.2311ZM10.9223 44.228C10.9223 43.9396 10.8461 43.7007 10.6936 43.5111C10.5412 43.3216 10.3383 43.1815 10.0849 43.0909C9.83151 42.9982 9.55238 42.9518 9.24749 42.9518C8.94467 42.9518 8.66656 42.9982 8.41318 43.0909C8.15773 43.1815 7.95276 43.3216 7.79826 43.5111C7.64376 43.7007 7.5665 43.9396 7.5665 44.228C7.5665 44.5185 7.64376 44.7595 7.79826 44.9511C7.95276 45.1406 8.15773 45.2817 8.41318 45.3744C8.66656 45.4651 8.94467 45.5104 9.24749 45.5104C9.55238 45.5104 9.83151 45.4651 10.0849 45.3744C10.3383 45.2817 10.5412 45.1406 10.6936 44.9511C10.8461 44.7595 10.9223 44.5185 10.9223 44.228Z" fill="black"/>
<path d="M5.27369 40.0634L11.6021 40.0634L11.6021 40.9873L5.27369 40.9873L5.27369 40.0634Z" fill="black"/>
<path d="M9.9922 37.9707L8.86433 37.9768L8.86433 37.8162L6.85579 35.9251L6.85579 34.8188L9.14243 36.9757L9.14243 37.1209L9.9922 37.9707ZM11.6021 38.8204L5.27369 38.8204L5.27369 37.8965L11.6021 37.8965L11.6021 38.8204ZM11.6021 35.8231L9.34637 37.5226L8.70055 36.8861L11.6021 34.689L11.6021 35.8231Z" fill="black"/>
<path d="M11.7072 32.5955C11.7072 32.8963 11.6516 33.1682 11.5403 33.4113C11.427 33.6544 11.2632 33.847 11.049 33.9891C10.8347 34.1292 10.5721 34.1993 10.261 34.1993C9.99322 34.1993 9.7728 34.1478 9.59976 34.0448C9.42671 33.9418 9.28972 33.8027 9.18878 33.6276C9.08784 33.4525 9.01162 33.2568 8.96012 33.0405C8.90862 32.8242 8.86948 32.6038 8.84269 32.3792C8.80973 32.0949 8.78295 31.8642 8.76235 31.687C8.73969 31.5099 8.70364 31.3811 8.6542 31.3008C8.60476 31.2204 8.52442 31.1803 8.41318 31.1803L8.39155 31.1803C8.12168 31.1803 7.91259 31.2565 7.76427 31.4089C7.61594 31.5593 7.54178 31.7839 7.54178 32.0826C7.54178 32.3936 7.61079 32.6388 7.74882 32.818C7.88478 32.9952 8.03619 33.1177 8.20305 33.1857L8.00529 34.054C7.71689 33.951 7.4841 33.8006 7.30694 33.6029C7.12772 33.4031 6.99793 33.1734 6.91759 32.9138C6.83519 32.6542 6.79399 32.3813 6.79399 32.0949C6.79399 31.9054 6.81665 31.7046 6.86197 31.4924C6.90523 31.2781 6.98557 31.0783 7.103 30.8929C7.22042 30.7054 7.38831 30.552 7.60667 30.4325C7.82298 30.313 8.10417 30.2533 8.45026 30.2533L11.6021 30.2533L11.6021 31.1556L10.9532 31.1556L10.9532 31.1926C11.0727 31.2524 11.1901 31.342 11.3055 31.4615C11.4208 31.581 11.5166 31.7344 11.5928 31.9219C11.6691 32.1094 11.7072 32.3339 11.7072 32.5955ZM10.9656 32.3947C10.9656 32.1392 10.9151 31.9209 10.8141 31.7396C10.7132 31.5562 10.5814 31.4172 10.4186 31.3224C10.2538 31.2256 10.0777 31.1772 9.89022 31.1772L9.27839 31.1772C9.31135 31.2101 9.34225 31.274 9.37109 31.3688C9.39787 31.4615 9.42157 31.5676 9.44217 31.687C9.46071 31.8065 9.47822 31.9229 9.4947 32.0362C9.50912 32.1495 9.52148 32.2443 9.53178 32.3205C9.55444 32.4997 9.59255 32.6635 9.64611 32.8118C9.69967 32.9581 9.77692 33.0755 9.87786 33.1641C9.97674 33.2506 10.1086 33.2939 10.2734 33.2939C10.5021 33.2939 10.6751 33.2094 10.7925 33.0405C10.9079 32.8716 10.9656 32.6563 10.9656 32.3947Z" fill="black"/>
<path d="M11.6948 27.2459C11.6948 27.629 11.597 27.971 11.4013 28.2718C11.2035 28.5705 10.9223 28.8053 10.5577 28.9763C10.191 29.1452 9.75117 29.2297 9.23822 29.2297C8.72527 29.2297 8.28649 29.1442 7.92186 28.9732C7.55723 28.8002 7.2781 28.5633 7.08446 28.2625C6.89081 27.9617 6.79399 27.6208 6.79399 27.2397C6.79399 26.9451 6.84343 26.7082 6.94231 26.529C7.03913 26.3477 7.15244 26.2076 7.28222 26.1087C7.412 26.0078 7.52633 25.9295 7.62521 25.8739L7.62521 25.8183L5.27368 25.8183L5.27368 24.8943L11.6021 24.8943L11.6021 25.7966L10.8636 25.7966L10.8636 25.8739C10.9645 25.9295 11.0799 26.0098 11.2097 26.1149C11.3395 26.2179 11.4528 26.3601 11.5496 26.5413C11.6464 26.7226 11.6948 26.9575 11.6948 27.2459ZM10.9068 27.0419C10.9068 26.7762 10.8368 26.5516 10.6967 26.3683C10.5546 26.1829 10.3578 26.0428 10.1065 25.948C9.8552 25.8512 9.56268 25.8028 9.22895 25.8028C8.89935 25.8028 8.61094 25.8502 8.36374 25.945C8.11653 26.0397 7.92392 26.1788 7.7859 26.3621C7.64787 26.5455 7.57886 26.7721 7.57886 27.0419C7.57886 27.32 7.65096 27.5518 7.79517 27.7372C7.93937 27.9226 8.1361 28.0627 8.38537 28.1574C8.63463 28.2501 8.91583 28.2965 9.22895 28.2965C9.5462 28.2965 9.83151 28.2491 10.0849 28.1543C10.3383 28.0596 10.5391 27.9195 10.6875 27.7341C10.8337 27.5466 10.9068 27.3159 10.9068 27.0419Z" fill="black"/>
<path d="M11.6979 21.5764C11.6979 22.0214 11.5959 22.4097 11.392 22.7413C11.188 23.073 10.9027 23.3305 10.536 23.5139C10.1694 23.6972 9.74087 23.7889 9.25058 23.7889C8.75823 23.7889 8.32769 23.6972 7.95894 23.5139C7.59019 23.3305 7.30385 23.073 7.09991 22.7413C6.89596 22.4097 6.79399 22.0214 6.79399 21.5764C6.79399 21.1314 6.89596 20.7431 7.09991 20.4114C7.30385 20.0798 7.59019 19.8223 7.95894 19.6389C8.32769 19.4556 8.75823 19.3639 9.25058 19.3639C9.74087 19.3639 10.1694 19.4556 10.536 19.6389C10.9027 19.8223 11.188 20.0798 11.392 20.4114C11.5959 20.7431 11.6979 21.1314 11.6979 21.5764ZM10.9223 21.5733C10.9223 21.2849 10.8461 21.0459 10.6936 20.8564C10.5412 20.6669 10.3383 20.5268 10.0849 20.4362C9.83151 20.3435 9.55238 20.2971 9.24749 20.2971C8.94467 20.2971 8.66656 20.3435 8.41318 20.4362C8.15773 20.5268 7.95276 20.6669 7.79826 20.8564C7.64375 21.0459 7.5665 21.2849 7.5665 21.5733C7.5665 21.8638 7.64375 22.1048 7.79826 22.2964C7.95276 22.4859 8.15773 22.627 8.41318 22.7197C8.66656 22.8104 8.94467 22.8557 9.24749 22.8557C9.55238 22.8557 9.83151 22.8104 10.0849 22.7197C10.3383 22.627 10.5412 22.4859 10.6936 22.2964C10.8461 22.1048 10.9223 21.8638 10.9223 21.5733Z" fill="black"/>
<path d="M6.85579 16.117L7.5974 16.117L7.5974 18.7096L6.85579 18.7096L6.85579 16.117ZM5.71865 18.0143L5.71865 17.0904L10.2085 17.0904C10.3877 17.0904 10.5227 17.0636 10.6133 17.0101C10.7019 16.9565 10.7626 16.8875 10.7956 16.803C10.8265 16.7165 10.842 16.6228 10.842 16.5218C10.842 16.4477 10.8368 16.3828 10.8265 16.3272C10.8162 16.2716 10.808 16.2283 10.8018 16.1974L11.565 16.0305C11.5856 16.0841 11.6062 16.1603 11.6268 16.2592C11.6495 16.3581 11.6619 16.4817 11.6639 16.63C11.668 16.8731 11.6248 17.0997 11.5341 17.3098C11.4435 17.5199 11.3034 17.6899 11.1139 17.8197C10.9244 17.9495 10.6864 18.0143 10.4001 18.0143L5.71865 18.0143Z" fill="black"/>
<path d="M8.99411 15.4133L8.5306 15.4133C8.5306 15.0651 8.45953 14.8221 8.31739 14.684C8.17318 14.546 7.93525 14.477 7.60358 14.477L6.71674 14.477C6.40155 14.477 6.13684 14.442 5.9226 14.3719C5.70629 14.2998 5.53325 14.1907 5.40347 14.0444C5.27368 13.8981 5.17995 13.7127 5.12227 13.4882C5.06459 13.2636 5.03575 12.9989 5.03575 12.694L5.76809 12.694C5.76809 12.933 5.80311 13.1194 5.87315 13.2533C5.9432 13.3872 6.05238 13.481 6.2007 13.5345C6.34696 13.586 6.53443 13.6118 6.76309 13.6118L7.88787 13.6118C8.04649 13.6118 8.19378 13.6355 8.32975 13.6829C8.46365 13.7302 8.58004 13.8178 8.67892 13.9455C8.7778 14.0732 8.85505 14.2556 8.91068 14.4925C8.9663 14.7294 8.99411 15.0363 8.99411 15.4133ZM12.9185 12.694C12.9185 12.9989 12.8896 13.2636 12.832 13.4882C12.7743 13.7127 12.6805 13.8981 12.5508 14.0444C12.421 14.1907 12.2479 14.2998 12.0316 14.3719C11.8174 14.442 11.5527 14.477 11.2375 14.477L10.3475 14.477C10.0179 14.477 9.78104 14.546 9.63684 14.684C9.49264 14.8221 9.42053 15.0651 9.42053 15.4133L8.96012 15.4133C8.96012 15.0363 8.98793 14.7294 9.04355 14.4925C9.09711 14.2556 9.17436 14.0732 9.2753 13.9455C9.37418 13.8178 9.49161 13.7302 9.62757 13.6829C9.76147 13.6355 9.90773 13.6118 10.0664 13.6118L11.1911 13.6118C11.4177 13.6118 11.6042 13.586 11.7504 13.5345C11.8988 13.481 12.0079 13.3872 12.078 13.2533C12.1501 13.1194 12.1861 12.933 12.1861 12.694L12.9185 12.694ZM9.42053 15.4133L8.5306 15.4133L8.5306 14.5573L9.42053 14.5573L9.42053 15.4133Z" fill="black"/>
<path d="M11.6608 11.1977C11.6608 11.3666 11.6011 11.5118 11.4816 11.6334C11.3601 11.7549 11.2138 11.8157 11.0428 11.8157C10.8739 11.8157 10.7297 11.7549 10.6102 11.6334C10.4887 11.5118 10.4279 11.3666 10.4279 11.1977C10.4279 11.0288 10.4887 10.8835 10.6102 10.762C10.7297 10.6404 10.8739 10.5797 11.0428 10.5797C11.1561 10.5797 11.2601 10.6085 11.3549 10.6662C11.4476 10.7218 11.5218 10.796 11.5774 10.8887C11.633 10.9814 11.6608 11.0844 11.6608 11.1977Z" fill="black"/>
<path d="M6.85579 9.34211L6.85579 8.41819L11.9111 8.41819C12.2284 8.41819 12.4962 8.47587 12.7145 8.59123C12.9329 8.70453 13.0987 8.87345 13.212 9.098C13.3253 9.32048 13.382 9.59549 13.382 9.92304C13.382 9.956 13.382 9.9869 13.382 10.0157C13.382 10.0466 13.381 10.0786 13.3789 10.1115L12.5847 10.1115C12.5847 10.0827 12.5847 10.0569 12.5847 10.0343C12.5847 10.0137 12.5847 9.98999 12.5847 9.96321C12.5847 9.74485 12.526 9.58725 12.4086 9.49043C12.2933 9.39155 12.1254 9.34211 11.9049 9.34211L6.85579 9.34211ZM6.12345 8.88478C6.12345 9.04546 6.06989 9.18349 5.96277 9.29885C5.85358 9.41215 5.7238 9.4688 5.57342 9.4688C5.42098 9.4688 5.29119 9.41215 5.18407 9.29885C5.07489 9.18349 5.0203 9.04546 5.0203 8.88478C5.0203 8.7241 5.07489 8.58711 5.18407 8.4738C5.29119 8.35844 5.42098 8.30076 5.57342 8.30076C5.7238 8.30076 5.85358 8.35844 5.96277 8.4738C6.06989 8.58711 6.12345 8.7241 6.12345 8.88478Z" fill="black"/>
<path d="M8.01456 3.61857L8.16288 4.45597C8.05576 4.49099 7.95379 4.54661 7.85697 4.62283C7.76015 4.69699 7.68083 4.79793 7.61903 4.92566C7.55723 5.05338 7.52633 5.21303 7.52633 5.40461C7.52633 5.66624 7.58504 5.8846 7.70246 6.0597C7.81783 6.2348 7.96718 6.32236 8.15052 6.32236C8.30915 6.32236 8.43687 6.26365 8.53369 6.14622C8.63051 6.0288 8.70982 5.83928 8.77162 5.57765L8.94467 4.82368C9.04561 4.38696 9.20114 4.06147 9.41126 3.84723C9.62139 3.63298 9.89434 3.52586 10.2301 3.52586C10.5144 3.52586 10.7678 3.60826 10.9903 3.77307C11.2107 3.93581 11.3837 4.16344 11.5094 4.45597C11.6351 4.74643 11.6979 5.08325 11.6979 5.46642C11.6979 5.9979 11.5846 6.43154 11.358 6.76733C11.1293 7.10311 10.8049 7.30911 10.3846 7.38533L10.2487 6.49231C10.4815 6.43669 10.6576 6.32236 10.7771 6.14931C10.8945 5.97627 10.9532 5.7507 10.9532 5.47259C10.9532 5.16977 10.8904 4.92772 10.7647 4.74644C10.637 4.56515 10.4815 4.47451 10.2981 4.47451C10.1498 4.47451 10.0252 4.53013 9.92421 4.64137C9.82327 4.75055 9.74705 4.91845 9.69555 5.14505L9.51942 5.94846C9.41847 6.39137 9.25779 6.71891 9.03737 6.9311C8.81694 7.14122 8.53781 7.24628 8.19996 7.24628C7.9198 7.24628 7.67465 7.168 7.46453 7.01144C7.25441 6.85488 7.09063 6.63857 6.97321 6.36253C6.85373 6.08648 6.79399 5.77026 6.79399 5.41388C6.79399 4.90093 6.90523 4.49717 7.12771 4.20259C7.34814 3.908 7.64375 3.71333 8.01456 3.61857Z" fill="black"/>
<path d="M8.96012 0.146118L9.42053 0.146118C9.42053 0.494266 9.49263 0.73735 9.63684 0.875374C9.78104 1.01339 10.0179 1.0824 10.3475 1.0824L11.2375 1.0824C11.5527 1.0824 11.8174 1.11845 12.0316 1.19056C12.2479 1.2606 12.421 1.36875 12.5508 1.51501C12.6805 1.66128 12.7743 1.84668 12.832 2.07122C12.8896 2.29576 12.9185 2.56048 12.9185 2.86536L12.1861 2.86536C12.1861 2.6264 12.1501 2.43996 12.078 2.30606C12.0079 2.17216 11.8988 2.07946 11.7504 2.02796C11.6042 1.9744 11.4177 1.94762 11.1911 1.94762L10.0664 1.94762C9.90773 1.94762 9.76147 1.92393 9.62757 1.87655C9.49161 1.82917 9.37418 1.74162 9.2753 1.61389C9.17436 1.48617 9.09711 1.30386 9.04355 1.06696C8.98793 0.830051 8.96012 0.523105 8.96012 0.146118ZM5.03575 2.86536C5.03575 2.56048 5.06459 2.29576 5.12227 2.07122C5.17995 1.84668 5.27368 1.66128 5.40347 1.51501C5.53325 1.36875 5.70629 1.2606 5.92259 1.19056C6.13684 1.11845 6.40155 1.0824 6.71674 1.0824L7.60358 1.0824C7.93525 1.0824 8.17318 1.01339 8.31738 0.875374C8.45953 0.73735 8.5306 0.494266 8.5306 0.146118L8.99411 0.146118C8.99411 0.523105 8.9663 0.830051 8.91067 1.06696C8.85505 1.30386 8.7778 1.48617 8.67892 1.61389C8.58004 1.74162 8.46365 1.82917 8.32975 1.87655C8.19378 1.92393 8.04649 1.94762 7.88787 1.94762L6.76309 1.94762C6.53442 1.94762 6.34696 1.9744 6.2007 2.02796C6.05238 2.07946 5.9432 2.17216 5.87315 2.30606C5.80311 2.43996 5.76809 2.6264 5.76809 2.86536L5.03575 2.86536ZM8.5306 0.146118L9.42053 0.146118L9.42053 1.00206L8.5306 1.00206L8.5306 0.146118Z" fill="black"/>
<g clip-path="url(#clip0_9_93)">
<path d="M15.2278 64.5322C15.2278 60.3272 11.8189 56.9184 7.61389 56.9184C3.40885 56.9184 -5.16621e-07 60.3272 -3.32814e-07 64.5322C-1.49006e-07 68.7373 3.40885 72.1461 7.61389 72.1461C11.8189 72.1461 15.2278 68.7373 15.2278 64.5322Z" fill="#FF8C00"/>
<path d="M2.14277 64.5322C2.14277 66.7947 3.98098 68.6437 6.25427 68.6437C6.7111 68.6437 7.15706 68.5676 7.59214 68.4262C7.88582 68.3283 8.04897 68.002 7.95108 67.6974C7.85318 67.4038 7.52687 67.2406 7.22232 67.3385C6.88513 67.4581 6.52619 67.5125 6.16725 67.5017C4.6336 67.4581 3.37187 66.2182 3.29573 64.6845C3.20871 62.9768 4.56834 61.5628 6.25427 61.5628C7.83143 61.5628 9.12579 62.8028 9.21281 64.3582C9.21281 64.3582 9.24544 64.9347 9.28895 65.2175C9.3107 65.3589 9.33245 65.4677 9.34333 65.5438C9.35421 65.5764 9.32158 65.6091 9.28895 65.5982L8.81036 65.5003L6.35216 64.9673C6.04761 64.9021 5.74305 65.0978 5.67779 65.4024C5.61253 65.707 5.80831 66.0115 6.11287 66.0768C6.11287 66.0768 12.0952 67.3603 12.1605 67.3711C12.465 67.4364 12.7696 67.2406 12.8348 66.9361C12.9001 66.6315 12.7043 66.3269 12.3998 66.2617C12.3345 66.2508 11.5405 66.0768 11.5405 66.0768C10.9314 65.9462 10.4854 65.4459 10.4093 64.8585C10.3875 64.728 10.3549 64.2168 10.3549 64.2168C10.1917 62.0958 8.41879 60.4207 6.25427 60.4207C3.98098 60.4207 2.14277 62.2698 2.14277 64.5322ZM11.6057 64.2386C11.5296 64.6084 11.758 64.9782 12.1387 65.0543C12.5085 65.1305 12.8784 64.9021 12.9545 64.5214C13.0306 64.1515 12.8022 63.7817 12.4215 63.7056C12.0408 63.6294 11.6819 63.8579 11.6057 64.2386Z" fill="white"/>
</g>
<defs>
<clipPath id="clip0_9_93">
<rect width="15.2278" height="15.2278" fill="white" transform="translate(0 72.1461) rotate(-90)"/>
</clipPath>
</defs>
</svg>
