<svg width="75" height="16" viewBox="0 0 75 16" fill="none" xmlns="http://www.w3.org/2000/svg">
<g clip-path="url(#clip0_6_321)">
<path d="M23.2923 2.38701C22.4142 2.38701 21.568 2.49706 21.2234 2.59009C20.7217 2.73077 20.5966 2.94973 20.5022 3.40353L18.5117 12.5647C18.4799 12.7519 18.4492 12.9085 18.4492 13.065C18.4492 13.5188 18.7472 13.8149 19.2328 13.8149C19.7663 13.8149 19.9858 13.4712 20.095 12.9391L20.6592 10.3286C21.0505 10.3751 21.568 10.4227 22.3051 10.4227C25.5501 10.4227 27.5714 8.6722 27.5714 6.02992C27.5714 3.71552 25.9562 2.38701 23.2923 2.38701ZM22.2266 8.92179C21.725 8.92179 21.3325 8.90591 20.9731 8.85939L22.023 3.99688C22.3517 3.95036 22.8385 3.88683 23.3401 3.88683C25.0645 3.88683 25.9426 4.70028 25.9426 6.04467C25.9414 7.76459 24.6868 8.92179 22.2266 8.92179Z" fill="black"/>
<path d="M74.3573 10.7971C74.0912 10.7971 73.9183 10.9537 73.5896 11.3133C73.0095 11.9078 72.6489 12.2357 72.1951 12.2357C71.7879 12.2357 71.5684 11.9078 71.5684 11.3757C71.5684 11.0785 71.6309 10.7189 71.7094 10.3286L72.2895 7.60803H74.0298C74.578 7.60803 74.9079 7.2949 74.9079 6.73219C74.9079 6.41906 74.7043 6.18535 74.2345 6.18535H72.6023L72.8844 4.91924C72.9162 4.73204 72.9469 4.5596 72.9469 4.40304C72.9469 3.96511 72.6489 3.65199 72.1632 3.65199C71.6457 3.65199 71.4114 3.99575 71.3011 4.52783L70.9405 6.18535H70.2034C69.6393 6.18535 69.3106 6.49848 69.3106 7.06119C69.3106 7.37432 69.5301 7.60803 69.9998 7.60803H70.6425L70.0624 10.2968C69.9998 10.5941 69.9214 11.0785 69.9214 11.5788C69.9214 12.8449 70.5799 13.7673 71.9904 13.7673C72.8059 13.7673 73.5259 13.3611 74.0753 12.8756C74.6087 12.407 75 11.8284 75 11.4529C75 11.0944 74.7179 10.7971 74.3573 10.7971Z" fill="black"/>
<path d="M38.3076 3.30937C38.3076 2.85556 37.9936 2.55832 37.508 2.55832C36.9904 2.55832 36.7561 2.90208 36.6458 3.43416L34.6871 12.5171C34.6405 12.7042 34.6086 12.8608 34.6086 13.0174C34.6086 13.4712 34.9226 13.7673 35.3923 13.7673C35.9258 13.7673 36.1601 13.4235 36.2704 12.8914L38.2291 3.80969C38.2609 3.62136 38.3076 3.46593 38.3076 3.30937Z" fill="black"/>
<path d="M66.285 6.02879C63.777 6.02879 62.0685 8.5145 62.0685 10.8754C62.0685 10.9197 62.0697 10.9639 62.0708 11.007C61.6773 11.6026 61.1745 12.2198 60.8299 12.2198C60.5796 12.2198 60.4852 11.985 60.4852 11.6253C60.4852 11.1874 60.6103 10.4522 60.7514 9.81125L62.0526 3.80742C62.0845 3.62022 62.1152 3.46366 62.1152 3.3071C62.1152 2.85329 61.8172 2.55605 61.3315 2.55605C60.798 2.55605 60.5796 2.89981 60.4693 3.43189L59.7641 6.6834C59.3876 6.29313 58.8382 6.02652 58.0079 6.02652C56.3427 6.02652 54.6673 7.30511 54.0144 9.26668C53.2955 11.1205 52.6529 12.2175 52.1456 12.2175C51.9579 12.2175 51.8476 12.061 51.8476 11.7955C51.8476 11.0138 52.2866 9.10671 52.4743 8.18436C52.5368 7.8406 52.5687 7.69992 52.5687 7.49684C52.5687 6.80933 51.4244 5.99589 49.9355 5.99589C48.2135 5.99589 46.654 7.08388 45.8726 8.69943C44.7113 10.7461 43.6455 12.2175 43.1178 12.2175C42.8823 12.2175 42.8038 11.9203 42.7413 11.6389L42.3511 9.48451L44.7488 7.53088C44.9684 7.34369 45.2505 7.07708 45.2505 6.73332C45.2505 6.31128 44.9684 6.02992 44.5453 6.02992C44.2313 6.02992 43.9652 6.21712 43.699 6.43608L40.0945 9.40623L41.3013 3.80969C41.3331 3.62249 41.3798 3.46593 41.3798 3.30937C41.3798 2.85556 41.0658 2.55832 40.5802 2.55832C40.0626 2.55832 39.8283 2.90208 39.718 3.43416L37.7593 12.5171C37.7127 12.7042 37.6808 12.8608 37.6808 13.0174C37.6808 13.4712 37.9948 13.7673 38.4645 13.7673C38.998 13.7673 39.2323 13.4235 39.3426 12.8914L39.594 11.7195L41.067 10.5317L41.4275 12.3446C41.5686 13.0639 41.9451 13.7673 42.9164 13.7673C43.8833 13.7673 44.6442 12.8869 45.4063 11.6968C45.6372 12.9436 46.5267 13.7673 47.7608 13.7673C48.9994 13.7673 49.8457 13.0321 50.3939 12.0474V12.0791C50.3939 13.0957 50.9115 13.7673 51.8203 13.7673C52.6426 13.7673 53.3251 13.2726 53.9347 12.2221C54.2805 13.1376 55.054 13.7673 56.13 13.7673C57.3994 13.7673 58.3082 13.0015 58.8883 11.9385V12.0326C58.8883 13.1581 59.4524 13.7684 60.3772 13.7684C61.1938 13.7684 61.8877 13.2953 62.4803 12.5261C62.9307 13.2953 63.7383 13.7684 64.8291 13.7684C67.3371 13.7684 69.0455 11.2827 69.0455 8.90591C69.0444 7.2325 68.0253 6.02879 66.285 6.02879ZM50.6589 9.20315C50.204 11.1568 49.2326 12.2675 48.135 12.2675C47.3979 12.2675 46.9907 11.7047 46.9907 10.8607C46.9907 9.20315 48.1975 7.42083 49.8116 7.42083C50.2972 7.42083 50.6737 7.56151 51.0025 7.76459L50.6589 9.20315ZM59.3887 8.37496C58.8871 10.6735 57.7429 12.2675 56.4894 12.2675C55.8001 12.2675 55.3918 11.7354 55.3918 10.8607C55.3918 9.1884 56.552 7.4526 58.1034 7.4526C58.6995 7.4526 59.1533 7.65568 59.4831 7.92115L59.3887 8.37496ZM65.0156 12.2675C64.1068 12.2675 63.7303 11.6106 63.7303 10.7824C63.7303 9.26555 64.7802 7.53088 66.0973 7.53088C67.0061 7.53088 67.3826 8.18776 67.3826 9.01595C67.3826 10.5475 66.3328 12.2675 65.0156 12.2675Z" fill="black"/>
<path d="M31.4739 6.02879C28.9658 6.02879 27.2574 8.5145 27.2574 10.8754C27.2574 12.5636 28.2766 13.7673 30.0157 13.7673C32.5237 13.7673 34.2322 11.2816 34.2322 8.90477C34.2322 7.2325 33.213 6.02879 31.4739 6.02879ZM30.2045 12.2675C29.2957 12.2675 28.9192 11.6106 28.9192 10.7824C28.9192 9.26555 29.9691 7.53088 31.2862 7.53088C32.195 7.53088 32.5715 8.18776 32.5715 9.01595C32.5704 10.5475 31.5205 12.2675 30.2045 12.2675Z" fill="black"/>
<path d="M7.54117 3.35588C9.13865 3.35588 10.4337 2.60464 10.4337 1.67794C10.4337 0.75124 9.13865 0 7.54117 0C5.94369 0 4.64868 0.75124 4.64868 1.67794C4.64868 2.60464 5.94369 3.35588 7.54117 3.35588Z" fill="#E1147B"/>
<path d="M7.54117 15.9989C9.13865 15.9989 10.4337 15.2476 10.4337 14.3209C10.4337 13.3942 9.13865 12.643 7.54117 12.643C5.94369 12.643 4.64868 13.3942 4.64868 14.3209C4.64868 15.2476 5.94369 15.9989 7.54117 15.9989Z" fill="#E1147B"/>
<path d="M3.5103 5.67855C4.30904 4.29869 4.30385 2.80421 3.49872 2.34055C2.69359 1.87688 1.39339 2.61961 0.594652 3.99947C-0.204087 5.37933 -0.198903 6.87381 0.606231 7.33747C1.41137 7.80114 2.71156 7.05841 3.5103 5.67855Z" fill="#E1147B"/>
<path d="M14.4864 11.9993C15.2852 10.6194 15.2804 9.12521 14.4759 8.66186C13.6713 8.1985 12.3715 8.94149 11.5728 10.3213C10.774 11.7012 10.7788 13.1954 11.5834 13.6588C12.388 14.1221 13.6877 13.3792 14.4864 11.9993Z" fill="#E1147B"/>
<path d="M3.49912 13.6584C4.30425 13.1947 4.30944 11.7003 3.5107 10.3204C2.71196 8.94053 1.41176 8.19781 0.606628 8.66147C-0.198506 9.12513 -0.20369 10.6196 0.595049 11.9995C1.39379 13.3793 2.69398 14.1221 3.49912 13.6584Z" fill="#E1147B"/>
<path d="M14.4765 7.33784C15.2811 6.87449 15.2859 5.38027 14.4871 4.00041C13.6884 2.62055 12.3886 1.87757 11.5841 2.34092C10.7795 2.80427 10.7747 4.29849 11.5735 5.67835C12.3722 7.05821 13.672 7.80119 14.4765 7.33784Z" fill="#E1147B"/>
</g>
<defs>
<clipPath id="clip0_6_321">
<rect width="75" height="16" fill="white"/>
</clipPath>
</defs>
</svg>
