<svg width="24" height="73" viewBox="0 0 24 73" fill="none" xmlns="http://www.w3.org/2000/svg">
<g clip-path="url(#clip0_12_346)">
<path d="M15.1567 8.72019V7.74482L11.6631 10.6532V11.6463L11.1133 12.1074L9.10937 9.9793L5.82858 6.4325V11.5754L9.10937 14.9626L10.5458 16.4167H9.10937H5.82858V20.1054H9.10937H11.6631V19.1123H15.1567V20.1054H18.065V16.4167H15.1744H15.1567V15.4236L13.5783 13.7389L15.1567 12.4443V13.4197L18.065 11.0433V6.30837L15.1567 8.72019Z" fill="#EB3089"/>
<path d="M15.1567 22.3576V23.2975C15.0857 23.333 15.0325 23.3507 15.0325 23.3507C15.0325 23.3507 13.933 23.8473 13.6493 25.1064C13.2946 23.9182 12.532 23.0847 11.6453 22.6768V21.7369C11.2375 21.5596 10.8118 21.4532 10.3685 21.4532C9.92514 21.4532 9.49952 21.4886 9.10937 21.5773C7.12317 22.0207 5.81085 23.599 5.81085 26.8088L5.81085 30.5862V34.0975H9.10937H11.6631V35.0374H15.1744V34.0975H18.0828V30.5862H15.1744V30.267L15.1921 27.9261C15.1921 26.6492 16.0256 26.3478 18.0828 25.4256V21.0098C16.9301 21.4886 15.5823 22.1625 15.1567 22.3576ZM9.10937 30.6039V28.1034V27.0571C9.10937 26.33 9.65913 25.6561 10.3862 25.6561C11.1133 25.6561 11.6631 26.33 11.6631 27.0571V30.6039H9.10937Z" fill="#EB3089"/>
<path d="M15.1567 53.9418V54.8817C15.0857 54.9172 15.0325 54.9349 15.0325 54.9349C15.0325 54.9349 13.933 55.4315 13.6493 56.6906C13.2946 55.5024 12.532 54.6689 11.6453 54.2611V53.3212C11.2375 53.1438 10.8118 53.0374 10.3685 53.0374C9.92514 53.0374 9.49952 53.0729 9.10937 53.1615C7.12317 53.6049 5.81085 55.1832 5.81085 58.3931L5.81085 62.1704V65.6817H9.10937H11.6631V66.6216H15.1744V65.6817H18.0828V62.1704H15.1744V61.8512L15.1921 59.5103C15.1921 58.2335 16.0256 57.932 18.0828 57.0098V52.5941C16.9301 53.0906 15.5823 53.7468 15.1567 53.9418ZM9.10937 62.1881V59.6877V58.6413C9.10937 57.9142 9.65913 57.2403 10.3862 57.2403C11.1133 57.2403 11.6631 57.9142 11.6631 58.6413V62.1881H9.10937Z" fill="#EB3089"/>
<path d="M5.82858 41.0315L9.23351 42.5389L11.7695 43.6739V43.7625L9.23351 44.8975L5.82858 46.4049V51.3882H11.6631V52.3281H15.1744V51.3882H18.0828V47.8414H15.1744V48.7813H11.6631V48.3556L15.1744 46.7241V45.8374L18.0828 44.4896V43.0177L15.2985 41.7231V42.663L11.6808 40.9783V40.5882H15.1921V39.6483H18.1005V36.1015H15.1921V37.0414H11.6631V36.1015H9.23351H5.82858V41.0315ZM11.6631 47.8236H10.7409L11.6631 47.398V47.8236ZM11.6631 40.0384L10.7409 39.6128H11.6631V40.0384Z" fill="#EB3089"/>
<path d="M11.6631 0.952698H1.6079C0.827601 0.952698 0.206909 1.57339 0.206909 2.35368L0.206909 70.4699C0.206909 71.2502 0.827601 71.8709 1.6079 71.8709H11.6631V72.7931H15.1744V71.8709H22.3035C23.0838 71.8709 23.7044 71.2502 23.7044 70.4699L23.7044 2.35368C23.7044 1.57339 23.0838 0.952698 22.3035 0.952698H15.1744V1.87487H11.6631V0.952698ZM15.1567 3.61279H21.0266L21.0266 69.2108H15.1567V70.133H11.6631V69.2108H2.86701L2.86701 3.61279H11.6631V4.53497H15.1744V3.61279H15.1567Z" fill="#EB3089"/>
</g>
<defs>
<clipPath id="clip0_12_346">
<rect width="72" height="23.5862" fill="white" transform="translate(0.206909 72.7931) rotate(-90)"/>
</clipPath>
</defs>
</svg>
