<svg width="72" height="22" viewBox="0 0 72 22" fill="none" xmlns="http://www.w3.org/2000/svg">
<g clip-path="url(#clip0_11_151)">
<path d="M13.4732 12.992C13.3692 13.1998 13.2134 13.3558 13.0575 13.4077C12.9535 13.4597 12.8496 13.4597 12.7976 13.4597H4.53516C5.67841 15.8501 8.22469 17.461 11.0828 17.2531C14.0448 17.0453 16.5911 14.8108 17.1627 11.8488C17.3186 10.9134 17.3186 10.03 17.1627 9.19855H10.3553L13.2653 12.1086C13.3173 12.1606 13.3692 12.2645 13.4212 12.3684C13.4732 12.4723 13.4732 12.5763 13.4732 12.6282C13.5251 12.8361 13.4732 12.94 13.4732 12.992Z" fill="url(#paint0_radial_11_151)"/>
<path d="M18.7737 9.25046C18.8257 9.66616 18.8777 10.1339 18.8777 10.6015C18.8777 15.1745 15.1881 18.864 10.6152 18.864C6.87368 18.864 3.70378 16.3697 2.66451 12.94C2.66451 12.888 2.66451 12.888 2.61252 12.8361C2.19682 11.381 2.14483 9.7701 2.66451 8.10721C3.75577 4.93731 6.56188 2.65084 9.88766 2.33904C12.4859 2.13121 14.8244 3.11853 16.4873 4.78142C16.955 5.30106 16.6432 6.13251 15.9156 6.13251C15.7078 6.13251 15.4999 6.02857 15.344 5.87269C14.0449 4.52161 12.1222 3.74211 9.99159 3.89803C7.08156 4.15785 4.58722 6.39237 4.01559 9.30241C3.85971 10.2378 3.85971 11.1212 4.01559 11.9526H10.823L7.913 9.04259C7.86101 8.9906 7.80906 8.88666 7.75707 8.78277C7.70513 8.67883 7.70513 8.5749 7.70513 8.52291C7.70513 8.41901 7.70513 8.31508 7.75707 8.26309C7.86101 8.05526 7.96495 7.89933 8.17282 7.84739C8.27676 7.7954 8.38069 7.7954 8.43264 7.7954H16.6432H18.358H20.8004C19.5532 3.22247 15.396 -0.0513644 10.5113 0.000625773C4.95097 0.0525718 0.326058 4.52161 0.0142498 10.0299C-0.297515 16.1618 4.53523 21.2025 10.6152 21.2025C16.4873 21.2025 21.2161 16.4736 21.2161 10.6015C21.2161 10.1339 21.1641 9.71811 21.1122 9.25046H18.7737Z" fill="url(#paint1_radial_11_151)"/>
<path d="M29.931 7.79534L29.0996 8.26303C28.9437 8.00322 28.7878 7.84733 28.6839 7.7434C28.528 7.63946 28.3721 7.58747 28.1123 7.58747C27.8525 7.58747 27.5926 7.69141 27.4367 7.84733C27.2289 8.00321 27.1769 8.21109 27.1769 8.41892C27.1769 8.73073 27.4368 8.99054 27.9044 9.19841L28.58 9.45823C29.1516 9.66611 29.5153 9.92592 29.7752 10.2897C30.035 10.6015 30.1389 11.0172 30.1389 11.4849C30.1389 12.1085 29.931 12.6281 29.5153 13.0438C29.0996 13.4596 28.58 13.6674 27.9564 13.6674C27.3848 13.6674 26.8651 13.5115 26.5014 13.1478C26.1376 12.784 25.8778 12.3163 25.8258 11.6928L26.8651 11.4849C26.9171 11.9006 26.9691 12.1604 27.1249 12.3163C27.3328 12.6281 27.6446 12.7321 28.0603 12.7321C28.3721 12.7321 28.632 12.6281 28.8398 12.4203C29.0477 12.2124 29.1516 11.9526 29.1516 11.5888C29.1516 11.4329 29.1516 11.329 29.0996 11.2251C29.0477 11.1211 28.9957 11.0172 28.9437 10.9133C28.8918 10.8093 28.7878 10.7574 28.632 10.6534C28.528 10.5495 28.3721 10.4976 28.2162 10.4456L27.5926 10.1857C26.6573 9.82199 26.1896 9.25036 26.1896 8.47091C26.1896 7.95123 26.3974 7.53552 26.7612 7.22372C27.1249 6.85996 27.6446 6.70408 28.2162 6.70408C28.8918 6.65209 29.4634 7.01589 29.931 7.79534Z" fill="#414042"/>
<path d="M32.7891 9.2504V11.6928C32.7891 12.4203 33.0489 12.7321 33.6205 12.7321C34.1922 12.7321 34.452 12.3683 34.452 11.6928V9.2504H35.4393V11.6928C35.4393 12.0565 35.3874 12.3164 35.3354 12.5762C35.2314 12.7841 35.1275 12.9919 34.9197 13.1478C34.6079 13.4596 34.1922 13.5635 33.6725 13.5635C33.1528 13.5635 32.7371 13.4076 32.4253 13.1478C32.2175 12.9919 32.0616 12.7841 32.0096 12.5762C31.9057 12.3683 31.9057 12.1085 31.9057 11.6928V9.2504H32.7891Z" fill="#414042"/>
<path d="M38.2974 6.1325V9.7181C38.713 9.3024 39.1287 9.09453 39.6486 9.09453C40.2202 9.09453 40.6879 9.3024 41.0515 9.7181C41.4154 10.1338 41.6231 10.6535 41.6231 11.329C41.6231 12.0046 41.4154 12.5242 41.0515 12.9399C40.6879 13.3557 40.168 13.5635 39.5964 13.5635C39.1287 13.5635 38.6613 13.3557 38.2974 12.9919V13.5116H37.3101V6.1325H38.2974ZM40.6358 11.381C40.6358 10.9653 40.532 10.6535 40.324 10.3937C40.1164 10.1338 39.8045 9.97792 39.4926 9.97792C39.1287 9.97792 38.8168 10.0819 38.6092 10.3417C38.4012 10.6015 38.2974 10.9133 38.2974 11.329C38.2974 11.7447 38.4012 12.0566 38.6092 12.3164C38.8168 12.5762 39.1287 12.6801 39.4926 12.6801C39.8562 12.6801 40.1164 12.5762 40.324 12.3164C40.532 12.1085 40.6358 11.7967 40.6358 11.381Z" fill="#414042"/>
<path d="M50.3536 13.6154H49.0545L48.5346 13.0958C47.963 13.4595 47.3393 13.6154 46.6639 13.6154C45.7805 13.6154 45.0009 13.3037 44.2734 12.732C43.5458 12.0565 43.1302 11.225 43.1302 10.1857C43.1302 9.19837 43.4942 8.31498 44.2217 7.63942C44.8971 6.96386 45.7284 6.65209 46.6639 6.65209C47.4952 6.65209 48.2749 6.96386 48.9503 7.53548C49.782 8.21105 50.1456 9.14643 50.1456 10.2377C50.1456 11.1211 49.8337 11.9006 49.1583 12.5761L50.3536 13.6154ZM47.5995 10.8093L48.5867 11.7966C49.0024 11.329 49.2104 10.8093 49.2104 10.1338C49.2104 9.40625 48.9503 8.78267 48.4829 8.31498C48.0151 7.84729 47.3914 7.58747 46.7161 7.58747C45.9885 7.58747 45.417 7.84729 44.9492 8.31498C44.4814 8.78267 44.2734 9.40625 44.2734 10.1338C44.2734 10.8613 44.5335 11.4329 45.0009 11.9006C45.5208 12.3683 46.0923 12.6281 46.7161 12.6281C47.1317 12.6281 47.5474 12.5242 47.9109 12.3163L46.3521 10.7573H47.5995V10.8093Z" fill="#414042"/>
<path d="M52.9518 9.2504V11.6928C52.9518 12.4203 53.2115 12.7321 53.7831 12.7321C54.3547 12.7321 54.6144 12.3683 54.6144 11.6928V9.2504H55.6021V11.6928C55.6021 12.0565 55.55 12.3164 55.4978 12.5762C55.394 12.7841 55.2902 12.9919 55.0822 13.1478C54.7703 13.4596 54.3547 13.5635 53.8352 13.5635C53.3153 13.5635 52.8996 13.4076 52.5878 13.1478C52.3802 12.9919 52.2243 12.7841 52.1721 12.5762C52.0683 12.3683 52.0683 12.1085 52.0683 11.6928V9.2504H52.9518Z" fill="#414042"/>
<path d="M61.37 11.5888H58.3562C58.4079 11.9526 58.5121 12.2124 58.7197 12.4203C58.9278 12.6281 59.1875 12.7321 59.4994 12.7321C59.7591 12.7321 59.9672 12.6801 60.1231 12.5761C60.279 12.4722 60.4345 12.2644 60.6425 11.9526L61.4739 12.4203C61.37 12.6281 61.2141 12.836 61.0582 12.9919C60.9023 13.1478 60.7463 13.2517 60.5904 13.3556C60.4345 13.4596 60.2269 13.5115 60.071 13.5635C59.8629 13.6155 59.6553 13.6155 59.4473 13.6155C58.8235 13.6155 58.3041 13.4076 57.9406 12.9919C57.5766 12.5761 57.3685 12.0565 57.3685 11.3809C57.3685 10.7054 57.5766 10.1857 57.9406 9.77005C58.3041 9.3543 58.8235 9.14643 59.4473 9.14643C60.071 9.14643 60.5904 9.3543 60.9023 9.71806C61.2662 10.1338 61.4222 10.6534 61.4222 11.3809L61.37 11.5888ZM60.3828 10.8093C60.2269 10.2897 59.915 10.0299 59.3956 10.0299C59.2913 10.0299 59.1875 10.0299 59.0837 10.0818C58.9795 10.1338 58.8757 10.1857 58.8235 10.2377C58.7197 10.2897 58.6681 10.3936 58.6159 10.4976C58.5638 10.6015 58.5121 10.7054 58.46 10.8093H60.3828Z" fill="#414042"/>
<path d="M63.1369 9.25037H64.1241V9.61412C64.2801 9.40629 64.4881 9.30236 64.5919 9.25037C64.7478 9.19842 64.9038 9.14643 65.1114 9.14643C65.3716 9.14643 65.6313 9.25037 65.9431 9.40629L65.4754 10.2897C65.2673 10.1338 65.1114 10.0818 64.9555 10.0818C64.436 10.0818 64.1763 10.4976 64.1763 11.277V13.5115H63.189V9.25037H63.1369Z" fill="#414042"/>
<path d="M68.8532 12.6801L66.9304 9.2504H68.0735L69.3726 11.6928L70.5679 9.2504H71.6594L68.2816 15.798H67.1384L68.8532 12.6801Z" fill="#414042"/>
</g>
<defs>
<radialGradient id="paint0_radial_11_151" cx="0" cy="0" r="1" gradientUnits="userSpaceOnUse" gradientTransform="translate(1.72512 -0.129954) scale(23.619)">
<stop offset="0.475" stop-color="#4388DD"/>
<stop offset="0.9988" stop-color="#FF4581"/>
</radialGradient>
<radialGradient id="paint1_radial_11_151" cx="0" cy="0" r="1" gradientUnits="userSpaceOnUse" gradientTransform="translate(1.7252 -0.130035) scale(23.619 23.619)">
<stop offset="0.475" stop-color="#4388DD"/>
<stop offset="0.9988" stop-color="#FF4581"/>
</radialGradient>
<clipPath id="clip0_11_151">
<rect width="72" height="21.2024" fill="white"/>
</clipPath>
</defs>
</svg>
