<svg width="42" height="42" viewBox="0 0 42 42" fill="none" xmlns="http://www.w3.org/2000/svg">
<g clip-path="url(#clip0_9_126)">
<path fill-rule="evenodd" clip-rule="evenodd" d="M42 21C42 32.598 32.598 42 21 42C9.40202 42 0 32.598 0 21C0 9.40202 9.40202 0 21 0C32.598 0 42 9.40202 42 21ZM20.9285 4.47843C16.6372 4.47843 13.1584 7.95718 13.1584 12.2484V17.2885C13.1584 21.5797 16.6372 25.0585 20.9285 25.0585C21.5307 25.0585 22.1171 24.9899 22.68 24.8602C23.0181 24.7824 23.1129 24.365 22.862 24.1255L22.82 24.0853L18.3438 19.81C17.6497 19.1358 17.2185 18.1924 17.2185 17.1485V12.3884C17.2185 10.3394 18.8794 8.67843 20.9285 8.67843C22.9774 8.67843 24.6385 10.3394 24.6385 12.3884V14C24.6385 14.3093 24.8892 14.56 25.1985 14.56H28.1385C28.4477 14.56 28.6985 14.3093 28.6985 14V12.2484C28.6985 7.95718 25.2197 4.47843 20.9285 4.47843ZM28.7 29.33C28.7 33.6213 25.2213 37.1 20.93 37.1C16.6387 37.1 13.16 33.6213 13.16 29.33V27.58C13.16 27.2707 13.4107 27.02 13.72 27.02H16.66C16.9693 27.02 17.22 27.2707 17.22 27.58V29.19C17.22 31.239 18.881 32.9 20.93 32.9C22.979 32.9 24.64 31.239 24.64 29.19V24.43C24.64 23.3859 24.2087 22.4426 23.5145 21.7685L19.0385 17.4931L18.9963 17.453C18.7454 17.2133 18.8404 16.7961 19.1785 16.7182C19.7414 16.5886 20.3277 16.52 20.93 16.52C25.2213 16.52 28.7 19.9987 28.7 24.29V29.33Z" fill="url(#paint0_linear_9_126)"/>
</g>
<defs>
<linearGradient id="paint0_linear_9_126" x1="21" y1="0" x2="21" y2="42" gradientUnits="userSpaceOnUse">
<stop stop-color="#F50083"/>
<stop offset="1" stop-color="#720497"/>
</linearGradient>
<clipPath id="clip0_9_126">
<rect width="42" height="42" fill="white"/>
</clipPath>
</defs>
</svg>
