<svg width="72" height="16" viewBox="0 0 72 16" fill="none" xmlns="http://www.w3.org/2000/svg">
<path d="M19.7499 11.892H21.4964V3.9922H24.8148V2.48749H16.4851V3.9922H19.7499V11.892Z" fill="black"/>
<path d="M23.789 10.1723C23.789 11.3545 24.6489 12.0934 25.9386 12.0934C27.0269 12.0934 27.712 11.4486 27.9942 10.4947H28.5719C28.5987 11.5426 28.854 11.892 29.9557 11.892H30.6543V10.6022H30.0228C29.6735 10.6022 29.6198 10.535 29.6198 10.1991V7.49874C29.6198 5.87309 28.6122 4.99982 26.7716 4.99982C24.9579 4.99982 23.8293 5.96713 23.695 6.97473L25.1863 7.36438C25.3609 6.67916 25.858 6.24924 26.7716 6.24924C27.618 6.24924 27.9942 6.61198 27.9942 7.2972V7.52559C26.7179 7.64652 25.6968 7.90176 24.931 8.30484C24.1652 8.69443 23.789 9.32583 23.789 10.1723ZM27.9942 9.13778C27.9942 10.2797 27.2956 10.8574 26.4626 10.8574C25.8177 10.8574 25.455 10.5484 25.455 10.0111C25.455 9.1512 26.3954 8.77503 27.9942 8.6004V9.13778Z" fill="black"/>
<path d="M31.723 11.892H33.3621V2.48749H31.723V11.892Z" fill="black"/>
<path d="M35.3032 4.13997H37.0497V2.47404H35.3032V4.13997ZM35.3704 11.892H36.996V5.20133H35.3704V11.892Z" fill="black"/>
<path d="M38.3872 10.1723C38.6828 11.3545 39.9457 12.08 41.4504 12.08C43.291 12.08 44.4061 11.2337 44.4061 9.93045C44.4061 9.31241 44.1777 8.84221 43.7343 8.51974C43.291 8.19732 42.7536 7.96894 42.1221 7.848L41.2489 7.6868C40.4428 7.52559 40.2278 7.32405 40.2278 6.93446C40.2278 6.49111 40.6175 6.18212 41.3295 6.18212C42.0953 6.18212 42.5789 6.62547 42.7939 7.20311L44.1777 6.61198C43.8687 5.79248 42.982 4.99982 41.3832 4.99982C39.7845 4.99982 38.6694 5.84621 38.6694 7.08224C38.6694 8.34511 39.4755 8.8153 40.8324 9.09745L41.7191 9.25871C42.4715 9.4065 42.7133 9.67516 42.7133 10.0917C42.7133 10.5619 42.2833 10.8574 41.5176 10.8574C40.4562 10.8574 40.0263 10.2663 39.9054 9.67516L38.3872 10.1723Z" fill="black"/>
<path d="M45.8664 11.892H47.5055V8.58692C47.5055 7.83458 47.5592 7.2166 47.9757 6.73292C48.1772 6.49111 48.4862 6.37017 48.9027 6.37017C49.7088 6.37017 50.1118 6.85385 50.1118 7.80773V11.892H51.724V8.58692C51.724 7.82115 51.7643 7.2166 52.1808 6.73292C52.3823 6.49111 52.7048 6.37017 53.1212 6.37017C53.8871 6.37017 54.3304 6.82694 54.3304 7.80773V11.892H55.956V7.52559C55.956 5.89996 55.0156 4.99982 53.7258 4.99982C52.8122 4.99982 52.0733 5.64469 51.7912 6.57171H51.2135C50.9851 5.56408 50.273 4.99982 49.3729 4.99982C48.3922 4.99982 47.8145 5.65813 47.5592 6.57171H46.7934C47.0756 6.18212 47.3174 5.59096 47.3174 5.20134H45.8664V11.892Z" fill="black"/>
<path d="M57.4682 10.1723C57.4682 11.3545 58.328 12.0934 59.6178 12.0934C60.706 12.0934 61.391 11.4486 61.6735 10.4947H62.2507C62.2782 11.5426 62.5332 11.892 63.6346 11.892H64.3332V10.6022H63.7017C63.3527 10.6022 63.299 10.535 63.299 10.1991V7.49874C63.299 5.87309 62.2916 4.99982 60.4507 4.99982C58.637 4.99982 57.5085 5.96713 57.3741 6.97473L58.8654 7.36438C59.0401 6.67916 59.5372 6.24924 60.4507 6.24924C61.297 6.24924 61.6735 6.61198 61.6735 7.2972V7.52559C60.397 7.64652 59.376 7.90176 58.6101 8.30484C57.8444 8.69443 57.4682 9.32583 57.4682 10.1723ZM61.6735 9.13778C61.6735 10.2797 60.9747 10.8574 60.1417 10.8574C59.4968 10.8574 59.1341 10.5484 59.1341 10.0111C59.1341 9.1512 60.0745 8.77503 61.6735 8.6004V9.13778Z" fill="black"/>
<path d="M65.4022 11.892H67.0412V8.82879C67.0412 8.02269 67.0949 7.32405 67.5384 6.78667C67.7666 6.50453 68.1163 6.37017 68.5727 6.37017C69.3384 6.37017 69.782 6.84043 69.782 7.80773V11.892H71.421V7.48526C71.421 5.94026 70.6283 4.99982 69.1237 4.99982C68.0217 4.99982 67.3231 5.84621 67.0277 6.74634H66.262C66.6384 6.19554 66.9069 5.59096 66.9203 5.20134H65.4022V11.892Z" fill="black"/>
<path fill-rule="evenodd" clip-rule="evenodd" d="M12.4809 8.33918C12.2451 8.57501 11.8353 8.46793 11.6962 8.16492C11.6687 8.10518 11.6538 8.04111 11.6538 7.9754V2.75052C11.6538 2.11867 11.1416 1.60645 10.5097 1.60645C9.87785 1.60645 9.36567 2.11867 9.36567 2.75052V5.39497C9.36567 5.62237 9.13271 5.77672 8.91585 5.70819C8.77863 5.66482 8.67953 5.53988 8.67953 5.39597V1.14883C8.67953 0.516979 8.1673 0.00476058 7.53547 0.00476074C6.90357 0.00476091 6.3914 0.516978 6.3914 1.14883V5.39566C6.3914 5.53967 6.29219 5.6647 6.15484 5.70809C5.93787 5.77665 5.70479 5.6222 5.70479 5.39466V2.75052C5.70479 2.11867 5.19257 1.60645 4.56071 1.60645C3.92886 1.60645 3.41665 2.11867 3.41665 2.75052V7.97717C3.41665 8.0416 3.402 8.10451 3.37507 8.16308C3.23879 8.45944 2.83831 8.56323 2.60763 8.33253L2.18202 7.90694C1.73523 7.46011 1.01084 7.46011 0.56405 7.90694C0.11726 8.3537 0.117262 9.0781 0.56405 9.52492L3.92741 12.8882C4.76498 13.9599 6.06963 14.6488 7.53516 14.6488C8.93983 14.6488 10.1966 14.016 11.0361 13.0199L14.5311 9.52486C14.9779 9.0781 14.9779 8.3537 14.5311 7.90694C14.0844 7.46011 13.36 7.46011 12.9131 7.90694L12.4809 8.33918ZM7.53492 12.8184C9.5569 12.8184 11.196 10.5302 11.196 10.5302C11.196 10.5302 9.5569 8.24204 7.53492 8.24204C5.513 8.24204 3.8739 10.5302 3.8739 10.5302C3.8739 10.5302 5.513 12.8184 7.53492 12.8184Z" fill="black"/>
<path d="M8.90781 10.5296C8.90781 11.2878 8.29313 11.9025 7.53493 11.9025C6.77667 11.9025 6.16205 11.2878 6.16205 10.5296C6.16205 9.77136 6.77667 9.15668 7.53493 9.15668C8.29313 9.15668 8.90781 9.77136 8.90781 10.5296Z" fill="black"/>
</svg>
