<svg width="68" height="60" viewBox="0 0 68 60" fill="none" xmlns="http://www.w3.org/2000/svg">
<g filter="url(#filter0_d_36_471)">
<path d="M12.9086 15.8635L8.69498 0H5.71893L12.9086 27.0678V37.3979L2.97606 0H0L11.4206 43H12.9086H14.3958H15.8838V0H12.9086V15.8635Z" fill="#333333"/>
<path d="M65.8755 43L54.4549 0H52.9669H51.4788H49.9908V42.9991H52.9669L60.8217 35.1771L62.8995 42.9991H65.8755V43ZM58.1813 25.2327L52.9678 30.4221V5.60214L58.1813 25.2327ZM52.9669 38.8077V34.6108L59.0605 28.5453L59.9425 31.8644L52.9669 38.8077Z" fill="#333333"/>
<path d="M22.1535 0H20.6655H19.1775V42.9991H22.1535L30.0083 35.1771L32.0861 42.9991H35.0622L23.6407 0H22.1535ZM27.3671 25.2327L22.1535 30.4221V5.60214L27.3671 25.2327ZM22.1535 38.8077V34.6108L28.2472 28.5453L29.1291 31.8644L22.1535 38.8077Z" fill="#333333"/>
<path d="M47.4168 26.5684L40.3605 0H38.8725H37.3845H35.8964V42.9991H38.8725V35.0253L41.6063 32.3042L44.4471 42.9991L47.4168 42.9774L43.9599 29.9615L45.0532 28.8732L47.4168 26.5684ZM38.8725 30.8366V5.60214L44.1731 25.5605L38.8725 30.8366Z" fill="#333333"/>
<path d="M2.99362 58V49.2727H8.58453V50.598H4.57459V52.9673H8.20101V54.2926H4.57459V58H2.99362Z" fill="#333333"/>
<path d="M10.0249 58V49.2727H13.2976C13.9681 49.2727 14.5306 49.3892 14.9851 49.6221C15.4425 49.8551 15.7877 50.1818 16.0206 50.6022C16.2564 51.0199 16.3743 51.5071 16.3743 52.0639C16.3743 52.6236 16.255 53.1093 16.0163 53.5213C15.7806 53.9304 15.4325 54.2471 14.9723 54.4716C14.5121 54.6932 13.9467 54.8039 13.2763 54.8039H10.9453V53.4914H13.0632C13.4553 53.4914 13.7763 53.4375 14.0263 53.3295C14.2763 53.2187 14.461 53.0582 14.5803 52.848C14.7024 52.6349 14.7635 52.3736 14.7635 52.0639C14.7635 51.7542 14.7024 51.49 14.5803 51.2713C14.4581 51.0497 14.272 50.8821 14.022 50.7684C13.772 50.652 13.4496 50.5937 13.0547 50.5937H11.6058V58H10.0249ZM14.5334 54.0454L16.6939 58H14.9297L12.8075 54.0454H14.5334Z" fill="#333333"/>
<path d="M17.8296 58V49.2727H23.5057V50.598H19.4105V52.9673H23.2117V54.2926H19.4105V56.6747H23.5398V58H17.8296Z" fill="#333333"/>
<path d="M25.1186 58V49.2727H30.7948V50.598H26.6996V52.9673H30.5007V54.2926H26.6996V56.6747H30.8288V58H25.1186Z" fill="#333333"/>
<path d="M40.1271 51.6718C40.0874 51.2997 39.9198 51.0099 39.6243 50.8025C39.3317 50.5951 38.951 50.4914 38.4823 50.4914C38.1527 50.4914 37.87 50.5412 37.6342 50.6406C37.3985 50.74 37.2181 50.875 37.0931 51.0454C36.9681 51.2159 36.9041 51.4105 36.9013 51.6292C36.9013 51.8111 36.9425 51.9687 37.0249 52.1022C37.1101 52.2358 37.2252 52.3494 37.37 52.4432C37.5149 52.5341 37.6754 52.6108 37.8516 52.6733C38.0277 52.7358 38.2053 52.7883 38.3842 52.8309L39.2024 53.0355C39.532 53.1122 39.8487 53.2159 40.1527 53.3466C40.4595 53.4772 40.7337 53.642 40.9752 53.8409C41.2195 54.0397 41.4127 54.2798 41.5547 54.5611C41.6967 54.8423 41.7678 55.1718 41.7678 55.5497C41.7678 56.0611 41.6371 56.5113 41.3757 56.9005C41.1144 57.2869 40.7365 57.5895 40.2422 57.8082C39.7507 58.0241 39.1556 58.1321 38.4567 58.1321C37.7777 58.1321 37.1882 58.027 36.6882 57.8167C36.1911 57.6065 35.8019 57.2997 35.5206 56.8963C35.2422 56.4929 35.0916 56.0014 35.0689 55.4218H36.6243C36.647 55.7258 36.7408 55.9787 36.9056 56.1804C37.0703 56.3821 37.2848 56.5326 37.549 56.6321C37.8161 56.7315 38.1144 56.7812 38.4439 56.7812C38.7877 56.7812 39.0888 56.7301 39.3473 56.6278C39.6087 56.5227 39.8132 56.3778 39.961 56.1932C40.1087 56.0057 40.184 55.7869 40.1868 55.5369C40.184 55.3096 40.1172 55.1221 39.9865 54.9744C39.8558 54.8238 39.6726 54.6988 39.4368 54.5994C39.2038 54.4971 38.9311 54.4062 38.6186 54.3267L37.6257 54.071C36.907 53.8863 36.3388 53.6065 35.9212 53.2315C35.5064 52.8537 35.299 52.3522 35.299 51.7272C35.299 51.213 35.4382 50.7628 35.7166 50.3764C35.9979 49.99 36.38 49.6903 36.8629 49.4772C37.3459 49.2613 37.8928 49.1534 38.5036 49.1534C39.1229 49.1534 39.6655 49.2613 40.1314 49.4772C40.6002 49.6903 40.9681 49.9872 41.2351 50.3679C41.5021 50.7457 41.6399 51.1804 41.6485 51.6718H40.1271Z" fill="#333333"/>
<path d="M42.7937 50.598V49.2727H49.7568V50.598H47.0593V58H45.4911V50.598H42.7937Z" fill="#333333"/>
<path d="M58.5107 53.6363C58.5107 54.5767 58.3345 55.3821 57.9823 56.0525C57.6328 56.7201 57.1556 57.2315 56.5504 57.5866C55.9482 57.9417 55.2649 58.1193 54.5007 58.1193C53.7365 58.1193 53.0519 57.9417 52.4467 57.5866C51.8445 57.2287 51.3672 56.7159 51.0149 56.0483C50.6655 55.3778 50.4908 54.5738 50.4908 53.6363C50.4908 52.696 50.6655 51.892 51.0149 51.2244C51.3672 50.554 51.8445 50.0412 52.4467 49.6861C53.0519 49.3309 53.7365 49.1534 54.5007 49.1534C55.2649 49.1534 55.9482 49.3309 56.5504 49.6861C57.1556 50.0412 57.6328 50.554 57.9823 51.2244C58.3345 51.892 58.5107 52.696 58.5107 53.6363ZM56.9212 53.6363C56.9212 52.9744 56.8175 52.4162 56.6101 51.9616C56.4056 51.5042 56.1215 51.1591 55.7578 50.9261C55.3942 50.6903 54.9752 50.5724 54.5007 50.5724C54.0263 50.5724 53.6073 50.6903 53.2436 50.9261C52.88 51.1591 52.5945 51.5042 52.3871 51.9616C52.1825 52.4162 52.0803 52.9744 52.0803 53.6363C52.0803 54.2983 52.1825 54.8579 52.3871 55.3153C52.5945 55.7699 52.88 56.115 53.2436 56.3508C53.6073 56.5838 54.0263 56.7003 54.5007 56.7003C54.9752 56.7003 55.3942 56.5838 55.7578 56.3508C56.1215 56.115 56.4056 55.7699 56.6101 55.3153C56.8175 54.8579 56.9212 54.2983 56.9212 53.6363Z" fill="#333333"/>
<path d="M60.0053 58V49.2727H63.2781C63.9485 49.2727 64.511 49.3977 64.9656 49.6477C65.423 49.8977 65.7681 50.2414 66.0011 50.6789C66.2369 51.1136 66.3548 51.6079 66.3548 52.1619C66.3548 52.7216 66.2369 53.2187 66.0011 53.6534C65.7653 54.088 65.4173 54.4304 64.957 54.6804C64.4968 54.9275 63.9301 55.0511 63.2568 55.0511H61.0877V53.7514H63.0437C63.4357 53.7514 63.7568 53.6832 64.0068 53.5468C64.2568 53.4105 64.4414 53.223 64.5607 52.9843C64.6829 52.7457 64.744 52.4716 64.744 52.1619C64.744 51.8522 64.6829 51.5795 64.5607 51.3437C64.4414 51.1079 64.2553 50.9247 64.0025 50.794C63.7525 50.6605 63.4301 50.5937 63.0352 50.5937H61.5863V58H60.0053Z" fill="#333333"/>
</g>
<defs>
<filter id="filter0_d_36_471" x="0" y="0" width="67.3548" height="59.1321" filterUnits="userSpaceOnUse" color-interpolation-filters="sRGB">
<feFlood flood-opacity="0" result="BackgroundImageFix"/>
<feColorMatrix in="SourceAlpha" type="matrix" values="0 0 0 0 0 0 0 0 0 0 0 0 0 0 0 0 0 0 127 0" result="hardAlpha"/>
<feOffset dx="1" dy="1"/>
<feComposite in2="hardAlpha" operator="out"/>
<feColorMatrix type="matrix" values="0 0 0 0 0 0 0 0 0 1 0 0 0 0 0.22 0 0 0 1 0"/>
<feBlend mode="normal" in2="BackgroundImageFix" result="effect1_dropShadow_36_471"/>
<feBlend mode="normal" in="SourceGraphic" in2="effect1_dropShadow_36_471" result="shape"/>
</filter>
</defs>
</svg>
