<svg width="16" height="16" viewBox="0 0 16 16" fill="none" xmlns="http://www.w3.org/2000/svg">
  <path
      d="M1.33454 0.54405C1.16856 0.544071 1.00638 0.593719 0.868832 0.686604C0.731282 0.779488 0.624641 0.911362 0.562608 1.06531C0.500576 1.21925 0.485983 1.38827 0.520706 1.55057C0.555429 1.71287 0.637881 1.86103 0.757471 1.97612L6.82396 8.04259L0.757471 14.1092C0.6774 14.1856 0.613391 14.2773 0.569192 14.3788C0.524994 14.4803 0.501494 14.5896 0.500069 14.7003C0.498644 14.811 0.519322 14.9209 0.560893 15.0235C0.602464 15.1261 0.664092 15.2195 0.742169 15.298C0.820245 15.3765 0.9132 15.4386 1.01559 15.4807C1.11798 15.5229 1.22775 15.5442 1.33847 15.5434C1.44919 15.5426 1.55864 15.5197 1.6604 15.476C1.76216 15.4324 1.85419 15.3689 1.93111 15.2892L8.00247 9.22113L14.0706 15.2892C14.148 15.3669 14.24 15.4286 14.3413 15.4707C14.4426 15.5128 14.5512 15.5345 14.6609 15.5346C14.7706 15.5347 14.8793 15.5132 14.9806 15.4712C15.082 15.4293 15.1741 15.3678 15.2517 15.2902C15.3292 15.2126 15.3908 15.1206 15.4327 15.0192C15.4746 14.9178 15.4962 14.8091 15.4961 14.6994C15.496 14.5897 15.4743 14.4812 15.4322 14.3799C15.3901 14.2786 15.3284 14.1866 15.2507 14.1092L9.18099 8.04259L15.2507 1.97612C15.3724 1.85924 15.4557 1.70819 15.4896 1.54289C15.5235 1.37759 15.5063 1.20584 15.4403 1.05052C15.3744 0.895208 15.2628 0.763621 15.1204 0.673164C14.978 0.582707 14.8114 0.537686 14.6428 0.54405C14.4266 0.550493 14.2213 0.64089 14.0706 0.796039L8.00247 6.86414L1.93111 0.796039C1.85355 0.716311 1.76079 0.652891 1.65833 0.609615C1.55586 0.566339 1.44576 0.544057 1.33454 0.54405Z"
      fill="currentColor"/>
</svg>
