<svg width="20" height="20" viewBox="0 0 20 20" fill="none" xmlns="http://www.w3.org/2000/svg">
  <path
      d="M18.3851 9.11873L10.8812 1.61404C10.647 1.38123 10.3302 1.25055 9.99999 1.25055C9.66976 1.25055 9.35294 1.38123 9.11874 1.61404L1.61874 9.11873C1.38593 9.35293 1.25525 9.66975 1.25525 9.99998C1.25525 10.3302 1.38593 10.647 1.61874 10.8812L9.12265 18.3859C9.35685 18.6187 9.67367 18.7494 10.0039 18.7494C10.3341 18.7494 10.6509 18.6187 10.8851 18.3859L18.3891 10.8812C18.6219 10.647 18.7525 10.3302 18.7525 9.99998C18.7525 9.66975 18.6219 9.35293 18.3891 9.11873H18.3851ZM9.37499 6.24998C9.37499 6.08422 9.44084 5.92525 9.55805 5.80804C9.67526 5.69083 9.83423 5.62498 9.99999 5.62498C10.1658 5.62498 10.3247 5.69083 10.4419 5.80804C10.5591 5.92525 10.625 6.08422 10.625 6.24998V10.625C10.625 10.7907 10.5591 10.9497 10.4419 11.0669C10.3247 11.1841 10.1658 11.25 9.99999 11.25C9.83423 11.25 9.67526 11.1841 9.55805 11.0669C9.44084 10.9497 9.37499 10.7907 9.37499 10.625V6.24998ZM9.99999 14.375C9.81457 14.375 9.63332 14.32 9.47914 14.217C9.32497 14.114 9.20481 13.9675 9.13385 13.7962C9.0629 13.6249 9.04433 13.4364 9.0805 13.2546C9.11668 13.0727 9.20597 12.9057 9.33708 12.7746C9.46819 12.6435 9.63524 12.5542 9.81709 12.518C9.99895 12.4818 10.1875 12.5004 10.3588 12.5713C10.5301 12.6423 10.6765 12.7625 10.7795 12.9166C10.8825 13.0708 10.9375 13.2521 10.9375 13.4375C10.9375 13.6861 10.8387 13.9246 10.6629 14.1004C10.4871 14.2762 10.2486 14.375 9.99999 14.375Z"
      fill="currentColor"/>
</svg>
