<svg width="20" height="20" viewBox="0 0 20 20" fill="none" xmlns="http://www.w3.org/2000/svg">
  <path fill-rule="evenodd" clip-rule="evenodd"
        d="M9.99697 18.3312C14.5999 18.3312 18.3313 14.5998 18.3313 9.99685C18.3313 5.3939 14.5999 1.66248 9.99697 1.66248C5.39402 1.66248 1.6626 5.3939 1.6626 9.99685C1.6626 14.5998 5.39402 18.3312 9.99697 18.3312ZM9.9939 5.88123C9.56242 5.88123 9.21265 6.231 9.21265 6.66248C9.21265 7.09395 9.56242 7.44373 9.9939 7.44373C10.4254 7.44373 10.7752 7.09395 10.7752 6.66248C10.7752 6.231 10.4254 5.88123 9.9939 5.88123ZM10.7751 9.99581C10.7751 9.56434 10.4254 9.21456 9.9939 9.21456C9.56242 9.21456 9.21265 9.56434 9.21265 9.99581V13.3291C9.21265 13.7606 9.56242 14.1104 9.9939 14.1104C10.4254 14.1104 10.7751 13.7606 10.7751 13.3291V9.99581Z"
        fill="currentColor"/>
</svg>
