<svg width="20" height="20" viewBox="0 0 20 20" fill="none" xmlns="http://www.w3.org/2000/svg">
  <path
      d="M9.99984 1.66699C12.2618 1.66699 14.3158 2.57433 15.8192 4.04299L16.7645 3.09766C16.8054 3.05628 16.8564 3.02635 16.9125 3.01089C16.9685 2.99543 17.0277 2.99496 17.084 3.00954C17.1403 3.02413 17.1918 3.05324 17.2333 3.09398C17.2748 3.13471 17.3049 3.18564 17.3205 3.24166L18.6538 7.90833C18.6701 7.96547 18.6709 8.02593 18.656 8.08346C18.641 8.14098 18.611 8.19347 18.569 8.23549C18.527 8.27751 18.4745 8.30753 18.417 8.32245C18.3594 8.33736 18.299 8.33663 18.2418 8.32032L13.5752 6.98766C13.5193 6.97174 13.4685 6.94148 13.4279 6.89989C13.3873 6.8583 13.3583 6.80682 13.3438 6.75056C13.3292 6.69429 13.3296 6.6352 13.345 6.57915C13.3603 6.52309 13.39 6.47202 13.4312 6.43099L14.3998 5.46166C13.2238 4.31179 11.6446 3.66766 9.99984 3.66699C6.50717 3.66699 3.6665 6.50766 3.6665 10.0003C3.6665 13.4923 6.50717 16.3337 9.99984 16.3337C13.4918 16.3337 16.3332 13.4923 16.3332 10.0003C16.3332 9.83499 16.3212 9.67233 16.3078 9.50966L18.3312 10.093C18.2812 14.6457 14.5638 18.3337 9.99984 18.3337C5.4045 18.3337 1.6665 14.595 1.6665 10.0003C1.6665 5.40499 5.4045 1.66699 9.99984 1.66699Z"
      fill="currentColor"/>
</svg>
