<svg width="16" height="16" viewBox="0 0 16 16" fill="none" xmlns="http://www.w3.org/2000/svg">
  <path d="M12.0492 4.28213C10.9287 3.16171 9.34091 2.51558 7.59498 2.6943C5.07232 2.94863 2.99645 4.997 2.71462 7.51967C2.33657 10.8534 4.91422 13.6648 8.1655 13.6648C10.3582 13.6648 12.2416 12.3794 13.1215 10.5304C13.3414 10.0698 13.0115 9.54055 12.5028 9.54055C12.2485 9.54055 12.0079 9.67802 11.8979 9.90486C11.1212 11.5752 9.25843 12.6337 7.2238 12.1801C5.69783 11.8433 4.46743 10.5991 4.14436 9.07313C3.56697 6.40612 5.59472 4.04155 8.1655 4.04155C9.30654 4.04155 10.3239 4.51584 11.0662 5.26508L10.0283 6.30301C9.59524 6.73606 9.89768 7.47842 10.5094 7.47842H12.9771C13.3552 7.47842 13.6645 7.16911 13.6645 6.79105V4.32338C13.6645 3.71161 12.9221 3.40229 12.4891 3.83534L12.0492 4.28213Z" fill="currentColor"/>
</svg>
