<svg width="24" height="24" viewBox="0 0 24 24" fill="none" xmlns="http://www.w3.org/2000/svg">
<rect width="24" height="24" rx="12" fill="#222225"/>
<path d="M18.399 7.55371C18.0688 7.6627 17.7359 7.76661 17.3955 7.85786C13.9887 8.76903 10.5488 8.59542 7.43668 7.55625L6.83203 11.4024L8.05529 11.7294L9.18075 9.66753C9.48307 9.72836 9.78666 9.78159 10.0915 9.82848L10.4421 12.1489L11.7035 12.2591L12.4529 10.035C12.7603 10.0426 13.069 10.0426 13.3777 10.0338L14.1271 12.2591L15.3885 12.1489L15.7404 9.82468C16.0427 9.77906 16.3463 9.72456 16.6486 9.66373L17.7766 11.7294L18.9999 11.4024L18.399 7.55371Z" fill="white"/>
<path d="M15.9446 12.2706L14.8166 14.3362C14.513 14.2754 14.2107 14.2209 13.9083 14.1753L13.5565 11.8511L12.2951 11.7408L11.5456 13.9662C11.2357 13.9586 10.9283 13.9586 10.6209 13.9649L9.87144 11.7408L8.61008 11.8511L8.25949 14.1715C7.95335 14.2171 7.64976 14.2716 7.34871 14.3324L6.22326 12.2706L5 12.5975L5.60464 16.4437C8.71551 15.4033 12.1566 15.2309 15.5635 16.1421C15.9039 16.2334 16.2367 16.336 16.567 16.4463L17.1716 12.5988L15.9446 12.2706Z" fill="white"/>
</svg>
