<svg width="47" height="47" viewBox="0 0 47 47" fill="none" xmlns="http://www.w3.org/2000/svg"><path d="M45.007 20.5a20.446 20.446 0 0 1-2.023-.45h-.112v-.113a15.372 15.372 0 0 0-.352-1.517v-.113l.085-.084c.435-.421 1.053-.913 1.643-1.405.59-.492.858-.674 1.209-.997a35.78 35.78 0 0 0-.52-1.307c-.492 0-1.054 0-1.602.098-.695.072-1.394.104-2.093.099h-.239v-.099a36.626 36.626 0 0 0-.773-1.405v-.196c.357-.61.747-1.202 1.166-1.77.31-.436.633-.9.886-1.307a20.04 20.04 0 0 0-.872-1.11c-.463.14-.983.337-1.489.534-.506.196-1.405.548-1.995.702h-.112l-.085-.084a16.09 16.09 0 0 0-1.11-1.082l-.098-.084v-.113c.173-.685.384-1.36.632-2.023.169-.506.352-1.04.478-1.503a24.144 24.144 0 0 0-1.152-.829c-.393.267-.843.604-1.264.941-.422.338-1.223.928-1.729 1.223h-.196c-.464-.253-.928-.506-1.405-.717h-.113v-.14a17.982 17.982 0 0 1 0-2.108V1.954a8.331 8.331 0 0 0-1.208-.478c-.31.365-.632.815-.955 1.25-.385.581-.802 1.14-1.25 1.672l-.071.085h-.112a24.658 24.658 0 0 0-1.532-.31h-.112v-.112c-.197-.548-.38-1.293-.562-2.01-.183-.716-.422-1.123-.52-1.587L24.045.38c-.183.436-.365.955-.548 1.405a32.662 32.662 0 0 1-.8 1.995v.112h-.113c-.52 0-1.054.07-1.574.14h-.112l-.07-.083c-.352-.492-.76-1.166-1.139-1.827-.379-.66-.604-.885-.87-1.278-.436.084-.886.196-1.405.337 0 .478-.099 1.04-.127 1.587a20.18 20.18 0 0 1-.169 2.08v.126h-.098c-.478.169-.955.351-1.405.576h-.197a16.865 16.865 0 0 1-1.601-1.405c-.394-.379-.787-.758-1.152-1.067-.408.21-.815.45-1.237.702.085.478.211 1.026.323 1.56.113.533.267 1.475.338 2.065v.112h-.099c-.407.31-.829.618-1.222.956l-.084.084h-.113a19.16 19.16 0 0 1-1.882-.885c-.506-.267-.998-.492-1.405-.689-.324.324-.66.66-.984 1.026.21.421.492.913.745 1.405s.744 1.405.983 1.883v.196c-.323.408-.632.83-.913 1.265v.098h-.253a20.62 20.62 0 0 1-2.093-.337l-1.56-.295c-.239.421-.45.843-.66 1.264.323.352.716.745 1.11 1.124.494.487.963.998 1.405 1.532v.196a20.52 20.52 0 0 0-.52 1.476v.098l-.07.028c-.688.127-1.382.216-2.08.267-.548 0-1.11.113-1.601.183-.113.506-.197.955-.281 1.405.407.253.899.505 1.405.758.505.253 1.405.731 1.854 1.068l.099.07v.113a15.752 15.752 0 0 0-.085 1.56v.112h-.098c-.506.28-1.222.562-1.897.843-.674.28-1.04.421-1.49.618l-.041.73.084.717c.478.127 1.04.239 1.574.351.534.113 1.405.31 2.023.492h.112v.112c.099.464.211.97.366 1.518v.182c-.522.498-1.071.968-1.644 1.405-.422.338-.857.675-1.209.998.14.407.324.843.52 1.32.492 0 1.054-.07 1.602-.112.548-.042 1.503-.112 2.093-.098h.099v.112c.224.436.491.9.772 1.405v.197a19.99 19.99 0 0 1-1.166 1.784c-.309.436-.632.885-.885 1.293.267.38.562.744.871 1.124l1.49-.548c.65-.269 1.317-.499 1.995-.689h.112v.07c.365.38.745.745 1.124 1.083l.084.084v.112c-.17.686-.382 1.362-.632 2.023-.169.52-.351 1.04-.492 1.504.38.295.773.576 1.152.829.408-.267.843-.605 1.279-.928a17.71 17.71 0 0 1 1.728-1.236h.197c.45.267.913.506 1.405.73h.112v.113a17.94 17.94 0 0 1 0 2.107v1.602l1.405.464c.31-.366.632-.815.955-1.25.403-.583.84-1.141 1.307-1.673l.084-.084h.113c.534.127 1.04.225 1.531.31h.112v.111c.197.548.38 1.293.563 2.01.182.716.267 1.081.407 1.56h1.405c.183-.436.365-.942.548-1.406.183-.463.534-1.405.8-1.995v-.112h.113c.52 0 1.04 0 1.56-.14h.126v.098c.415.58.795 1.186 1.138 1.812.267.464.548.941.8 1.405.45-.084.9-.197 1.406-.323 0-.492.084-1.054.126-1.602.03-.696.096-1.39.197-2.08v-.112h.112c.478-.168.942-.35 1.405-.576h.113l.084.07c.563.435 1.098.905 1.602 1.406.393.365.787.744 1.152 1.053.407-.21.815-.435 1.236-.702a28.873 28.873 0 0 0-.337-1.56 20.899 20.899 0 0 1-.393-2.065v-.225h.267a15.88 15.88 0 0 0 1.222-.955l.084-.07h.113c.658.263 1.3.563 1.924.899.478.239.97.505 1.405.702.323-.337.66-.674.984-1.025-.21-.436-.492-.928-.759-1.405-.267-.478-.73-1.335-.97-1.883v-.197c.324-.421.633-.843.914-1.264l.07-.099h.113c.59 0 1.405.197 2.079.338.674.14 1.096.21 1.574.267.224-.408.45-.83.66-1.25a27.512 27.512 0 0 0-1.11-1.125 20.233 20.233 0 0 1-1.405-1.545l-.07-.085v-.112c.182-.478.365-.983.52-1.405v-.112h.112a19.363 19.363 0 0 1 2.08-.267c.547 0 1.11-.113 1.587-.183.126-.492.21-.955.28-1.405l-1.404-.759a19.285 19.285 0 0 1-1.756-1.11h-.099v-.112c.055-.518.083-1.038.085-1.56v-.112h.112a19.453 19.453 0 0 1 1.91-.955c.507-.211 1.04-.422 1.49-.632v-.717l-.084-.73c-.52-.127-1.082-.24-1.616-.352ZM28.176 7.404h.182a16.987 16.987 0 0 1 6.463 3.639l.281.253-.38.084c-3.062.688-7.22 3.751-9.469 6.308l-.084.084h-.127a5.944 5.944 0 0 0-2.107-.182 4.704 4.704 0 0 0-.562 0h-.267v-.281a14.611 14.611 0 0 1 6.07-9.905Zm-1.757 15.974a2.908 2.908 0 0 1-.674 2.15 2.81 2.81 0 0 1-1.995 1.054 2.964 2.964 0 1 1 2.67-3.204ZM15.334 8.81h.084a16.86 16.86 0 0 1 6.548-1.966h.984l-.212.183C21.066 9.68 20.28 14.78 20.49 18.18v.126h-.098a6.085 6.085 0 0 0-1.869 1.869l-.154.225-.169-.225A14.527 14.527 0 0 1 15.334 8.81Zm-8.05 9.976a17.127 17.127 0 0 1 3.596-6.477l.253-.28.085.364c.702 3.063 3.75 7.222 6.308 9.484l.084.084v.113a6 6 0 0 0-.183 2.107c0 .197 0 .38.07.562v.267h-.266a14.653 14.653 0 0 1-9.947-6.055v-.169Zm1.405 13.01h-.085v-.07a17.028 17.028 0 0 1-1.967-6.547v-.998l.324.211c2.655 1.672 7.755 2.459 11.155 2.248h.126v.112a6.225 6.225 0 0 0 1.813 1.967l.225.155-.211.154a15.652 15.652 0 0 1-7.882 3.021 10.513 10.513 0 0 1-3.498-.253ZM18.79 39.86h-.084a17.099 17.099 0 0 1-6.49-3.653l-.282-.253.38-.084c3.048-.689 7.221-3.738 9.469-6.295l.084-.098h.113a6.212 6.212 0 0 0 2.683.112h.267v.267a14.626 14.626 0 0 1-6.14 10.004Zm12.842-1.405v.084h-.085A16.648 16.648 0 0 1 25 40.506H24.017l.197-.323c1.672-2.642 2.458-7.756 2.248-11.156v-.112l.112-.07a6.085 6.085 0 0 0 1.939-1.77l.154-.211.169.21a14.653 14.653 0 0 1 2.796 11.353v.028Zm8.092-9.976a17.197 17.197 0 0 1-3.638 6.477l-.267.281-.085-.365c-.688-3.063-3.737-7.221-6.294-9.483h-.084v-.127a5.97 5.97 0 0 0 .182-2.107 5.002 5.002 0 0 0-.084-.562v-.267h.267a14.498 14.498 0 0 1 9.99 6.027v.07l.013.056Zm.675-5.816v.45l-.323-.197c-2.656-1.686-7.756-2.459-11.156-2.248h-.126v-.099a6.24 6.24 0 0 0-1.84-1.924l-.226-.155.211-.168a15.581 15.581 0 0 1 7.882-3.007 10.963 10.963 0 0 1 3.456.197h.085v.07a16.76 16.76 0 0 1 1.953 6.547c.07.183.07.365.084.548v-.014Z" fill="#D1D1D1"/></svg>