<svg width="64" height="63" viewBox="0 0 64 63" fill="none" xmlns="http://www.w3.org/2000/svg"><path d="M60.126 29.274c-.823-.274-1.675-.549-2.411-.838h-.145v-.158a26.872 26.872 0 0 0-.708-3.568v-.144l.116-.101c.578-.578 1.3-1.184 1.978-1.776.845-.691 1.65-1.429 2.412-2.21a25.602 25.602 0 0 0-.808-1.95 31.07 31.07 0 0 0-3.337.145c-.88 0-1.79.144-2.585.159h-.158v-.13a25.172 25.172 0 0 0-2.022-3.033l-.174-.174v-.144c.318-.737.737-1.56 1.141-2.354a31.244 31.244 0 0 0 1.444-3.004c-.476-.52-.982-1.011-1.444-1.444a28.3 28.3 0 0 0-3.004 1.444 43.4 43.4 0 0 1-2.368 1.14h-.13l-.13-.1a26.82 26.82 0 0 0-3.019-2.022h-.144v-.275c0-.794.072-1.704.144-2.585.088-1.085.113-2.175.073-3.264a29.63 29.63 0 0 0-1.95-.808c-.764.74-1.488 1.52-2.166 2.34-.593.692-1.2 1.443-1.762 1.978l-.116.115h-.144a26.415 26.415 0 0 0-3.61-.736h-.145v-.145a46.655 46.655 0 0 1-.823-2.411A31.268 31.268 0 0 0 32.889 0h-2.167a31.433 31.433 0 0 0-1.155 3.177c-.274.823-.549 1.69-.838 2.412v.144h-.144a27.08 27.08 0 0 0-3.582.708h-.144l-.101-.115a42.246 42.246 0 0 1-1.777-1.979 29.082 29.082 0 0 0-2.21-2.412 38.01 38.01 0 0 0-1.949.809 31.097 31.097 0 0 0 .144 3.336c0 .881.145 1.79.16 2.585v.16h-.13a26.996 26.996 0 0 0-3.033 2.021l-.116.101h-.144c-.737-.318-1.56-.736-2.355-1.14a29.667 29.667 0 0 0-3.004-1.445A34.03 34.03 0 0 0 8.9 9.806c.359 1.09.788 2.157 1.286 3.192.404.809.823 1.632 1.14 2.368v.145l-.086.115a25.275 25.275 0 0 0-2.036 3.033v.13h-.145c-.794 0-1.718-.087-2.6-.159a30.803 30.803 0 0 0-3.321-.144 27.8 27.8 0 0 0-.823 1.95 29.102 29.102 0 0 0 2.412 2.21c.693.591 1.444 1.198 1.993 1.761l.1.116v.144a26.901 26.901 0 0 0-.75 3.553v.159h-.145c-.722.288-1.574.563-2.412.837a26.981 26.981 0 0 0-3.162 1.156v2.166c1.029.45 2.085.837 3.162 1.155.838.275 1.69.55 2.412.838l.145.13v.159c.16 1.204.4 2.396.722 3.567v.144l-.101.102c-.592.577-1.3 1.184-1.993 1.776A29.1 29.1 0 0 0 2.3 42.604c.246.636.506 1.271.823 1.95a30.854 30.854 0 0 0 3.322-.145c.881-.072 1.805-.144 2.6-.158h.144v.13a25.271 25.271 0 0 0 2.037 3.032l.086.116v.144c-.318.737-.736 1.56-1.14 2.369a26.411 26.411 0 0 0-1.445 2.99c.477.52.982 1.01 1.444 1.444a31.23 31.23 0 0 0 3.004-1.445c.794-.404 1.618-.823 2.354-1.14h.145l.115.086a26.466 26.466 0 0 0 3.033 2.036h.13v.16c0 .794-.087 1.703-.159 2.584a31.072 31.072 0 0 0-.144 3.337c.693.303 1.328.577 1.95.808a29.082 29.082 0 0 0 2.209-2.412c.592-.693 1.199-1.444 1.776-1.993l.102-.1h.144c1.177.316 2.373.552 3.582.707h.144v.144c.289.723.563 1.589.838 2.412a29.853 29.853 0 0 0 1.155 3.163h2.166c.45-1.031.84-2.087 1.17-3.163.26-.837.549-1.69.823-2.412v-.144h.16a26.431 26.431 0 0 0 3.566-.708h.145l.115.101c.563.593 1.17 1.3 1.762 1.993.69.845 1.429 1.65 2.21 2.412.635-.23 1.27-.505 1.95-.809a27.738 27.738 0 0 0-.145-3.336c-.072-.88-.144-1.79-.144-2.585v-.159h.144a25.101 25.101 0 0 0 3.235-2.021l.13-.087.116.087c.736.317 1.56.736 2.368 1.14.969.537 1.967 1.02 2.99 1.445.52-.491 1.025-.983 1.444-1.445a32.712 32.712 0 0 0-1.444-2.99c-.42-.808-.838-1.631-1.156-2.368v-.144l.101-.116a26.368 26.368 0 0 0 2.022-3.032v-.13h.16c.794 0 1.703.086 2.584.159.881.072 1.993.158 2.889.158h.505a29.69 29.69 0 0 0 .809-1.95 29.093 29.093 0 0 0-2.325-2.281c-.679-.592-1.444-1.199-1.979-1.777l-.115-.1v-.145c.316-1.172.552-2.364.707-3.567v-.188h.145c.736-.289 1.588-.563 2.412-.838a27.275 27.275 0 0 0 3.177-1.155v-2.166a27.264 27.264 0 0 0-3.12-1.228ZM49.223 20.22c.401.609.768 1.24 1.097 1.892l.116.216-11.15 6.384-.115-.26a7.74 7.74 0 0 0-1.054-1.82l-.174-.23 11.12-6.428.16.246ZM34.058 10.86h.29a20.881 20.881 0 0 1 14.051 8.102l.174.246-11.236 6.484-.145-.13a8.058 8.058 0 0 0-2.96-1.718h-.174V10.86Zm-3.596-.086h2.686v12.839h-.288a6.877 6.877 0 0 0-2.109 0h-.289v-12.84Zm-15.25 8.232a20.895 20.895 0 0 1 14.052-8.117h.288v12.998h-.173a7.857 7.857 0 0 0-2.96 1.719l-.145.13-11.236-6.5.173-.23Zm-1.921 3.076a22.22 22.22 0 0 1 1.097-1.892l.13-.202 11.12 6.427-.173.23a7.38 7.38 0 0 0-1.054 1.806l-.116.274-11.12-6.412.116-.231Zm-.621 17.547a20.825 20.825 0 0 1 0-16.233l.115-.289 11.25 6.485v.188c-.126.559-.189 1.13-.187 1.704a7.83 7.83 0 0 0 .144 1.733v.188l-11.207 6.498-.115-.274Zm1.718 3.206c-.4-.61-.766-1.242-1.097-1.892l-.116-.216 11.12-6.427.116.274c.273.65.627 1.26 1.054 1.82l.188.231-11.135 6.412-.13-.202Zm15.179 9.33h-.289a20.898 20.898 0 0 1-14.052-8.117l-.188-.23 11.25-6.514.145.13a8.073 8.073 0 0 0 2.888 1.704h.188l.058 13.027Zm3.581.086H30.477V39.412h.289c.694.102 1.4.102 2.094 0h.288v12.84Zm-1.343-16.146a4.623 4.623 0 0 1-3.986-2.31 4.607 4.607 0 0 1 3.986-6.904 4.607 4.607 0 0 1 0 9.214Zm16.594 7.9a20.869 20.869 0 0 1-14.052 8.116h-.289V39.124h.188a7.915 7.915 0 0 0 2.889-1.719l.144-.13 11.25 6.499-.13.231Zm1.936-3.09a20.448 20.448 0 0 1-1.098 1.906l-.13.202-11.135-6.427.188-.23a8.172 8.172 0 0 0 1.126-1.792l.102-.274 11.12 6.412-.173.202Zm.606-1.3-.115.26L39.59 33.39v-.188c.12-.56.182-1.13.187-1.704a8.8 8.8 0 0 0-.187-1.718v-.188l11.25-6.485.116.275a20.825 20.825 0 0 1 0 16.233h-.015Z" fill="#D1D1D1"/></svg>