<svg width="30" height="30" fill="none" xmlns="http://www.w3.org/2000/svg"><g clip-path="url(#a)" fill="#fff"><path d="M26.422 13.523v-2.205c2.254-.97 2.902-2.13 3.152-2.667.7-1.502.518-3.177-.405-5.37-3.345 1.032-4.14 2.514-4.432 3.141-.545 1.168-.532 2.457-.073 3.998v4.705c-.578.904-.797 1.96-.722 3.238a9.616 9.616 0 0 1-8.946 6.012 9.616 9.616 0 0 1-8.942-6.004c.104-1.854-.4-2.803-.725-3.289v-4.619c.688-2.326.177-3.507-.071-4.04-.7-1.503-2.16-2.44-4.433-3.142C-.533 6.507.128 8.024.42 8.651c.555 1.19 1.631 2.018 3.151 2.663v2.216c-.843-.448-1.936-.746-3.24-.91-.779 3.412.135 4.79.533 5.358.833 1.19 2.218 1.84 4.115 2.187.247.457.526.887.828 1.3-1.489.132-2.83.965-4.295 2.582 2.35 2.594 4.003 2.672 4.696 2.672 1.325 0 2.516-.621 3.755-1.747a11.445 11.445 0 0 0 5.033 1.161c1.79 0 3.498-.412 5.027-1.157 1.853 1.666 3.166 1.743 3.762 1.743 1.657 0 3.099-.91 4.695-2.672-1.965-2.17-3.434-2.55-4.27-2.618.289-.398.558-.812.797-1.251 2.819-.526 3.76-1.679 4.123-2.2.951-1.357 1.063-3.039.533-5.358-1.46.183-2.52.526-3.241.903Z"/><path d="M19.28 3.283H8.845v.879a.88.88 0 0 1-.879.878h-.879v7.694c0 1.24.237 2.429.649 3.538L19.28 3.282ZM8.57 17.977c.312.515.67.996 1.067 1.447L22.423 5.04h-.396a.88.88 0 0 1-.879-.878v-.336L8.57 17.976ZM14.783 22.591l.213.054.213-.054a10.146 10.146 0 0 0 7.697-9.857V7.14L10.909 20.637c1.117.895 2.414 1.589 3.874 1.954Z"/></g><defs><clipPath id="a"><path fill="#fff" d="M0 0h30v30H0z"/></clipPath></defs></svg>