<svg width="30" height="30" fill="none" xmlns="http://www.w3.org/2000/svg"><path d="m4.42 20.77-2.597 5.08 4.972.288L9.94 30l2.316-4.529a13.764 13.764 0 0 1-7.834-4.7ZM17.745 25.471 20.06 30l3.144-3.862 4.972-.288-2.598-5.08a13.764 13.764 0 0 1-7.834 4.701ZM15 17.987a6 6 0 0 0 5.992-5.992A6 6 0 0 0 15 6.002a6 6 0 0 0-5.993 5.993A6 6 0 0 0 15 17.987Zm-1.702-7.335 1.253 1.252 2.502-2.502 1.242 1.243-3.744 3.744-2.495-2.495 1.242-1.242Z" fill="#fff"/><path d="M15 23.99c6.614 0 11.995-5.381 11.995-11.995C26.995 5.38 21.614 0 15 0 8.386 0 3.005 5.38 3.005 11.995c0 6.614 5.38 11.995 11.995 11.995Zm0-19.744c4.273 0 7.75 3.476 7.75 7.749s-3.477 7.75-7.75 7.75-7.75-3.477-7.75-7.75 3.477-7.75 7.75-7.75Z" fill="#fff"/></svg>