<svg width="30" height="30" fill="none" xmlns="http://www.w3.org/2000/svg"><path d="M21.5 7h-18a1 1 0 0 1-1-1V3.5a1 1 0 0 1 1-1h18a1 1 0 0 1 1 1V6a1 1 0 0 1-1 1ZM20.5 11c1.837 0 3.547.53 5 1.433V10a1 1 0 0 0-1-1h-18a1 1 0 0 0-1 1v2.5a1 1 0 0 0 1 1h7.594A9.452 9.452 0 0 1 20.5 11ZM12.433 15.5H4.5a1 1 0 0 0-1 1V19a1 1 0 0 0 1 1h6.525a9.438 9.438 0 0 1 1.408-4.5ZM11.13 22H3a1 1 0 0 0-1 1v2.5a1 1 0 0 0 1 1h10.137A9.455 9.455 0 0 1 11.13 22Z" fill="#fff"/><path d="M20.5 13a7.5 7.5 0 1 0 0 15 7.5 7.5 0 0 0 0-15Zm0 6.5c1.93 0 3.5 1.346 3.5 3 0 1.357-1.056 2.504-2.5 2.873V26.5h-2v-1.127c-1.444-.369-2.5-1.517-2.5-2.873h2c0 .532.701 1 1.5 1s1.5-.468 1.5-1-.701-1-1.5-1c-1.93 0-3.5-1.346-3.5-3 0-1.357 1.056-2.504 2.5-2.873V14.5h2v1.127c1.444.369 2.5 1.516 2.5 2.873h-2c0-.532-.701-1-1.5-1s-1.5.468-1.5 1 .701 1 1.5 1Z" fill="#fff"/></svg>