<svg width="15" height="15" fill="none" xmlns="http://www.w3.org/2000/svg"><g clip-path="url(#a)" stroke="#fff" stroke-miterlimit="10"><path d="M10.55 14.062c2.057 0 3.724-1.678 3.724-3.75 0-2.07-1.667-3.75-3.723-3.75-2.057 0-3.724 1.68-3.724 3.75 0 2.072 1.667 3.75 3.723 3.75Z"/><path d="M7.773 12.813H.621V10h6.217M1.552 10V7.188H8.49M10.86 4.375V1.562H1.242v2.813h1.241M2.482 7.188V4.375h9.62v2.527M10.55 13.125v-.938M10.55 7.5v.938M12.102 9.687v-.312a.94.94 0 0 0-.273-.663.928.928 0 0 0-.658-.275H9.93a.928.928 0 0 0-.658.275.94.94 0 0 0 0 1.326.928.928 0 0 0 .658.274h1.241c.247 0 .484.1.658.275a.94.94 0 0 1 0 1.326.928.928 0 0 1-.658.274H9.93a.928.928 0 0 1-.658-.274.94.94 0 0 1-.273-.663v-.313"/></g><defs><clipPath id="a"><path fill="#fff" d="M0 0h14.895v15H0z"/></clipPath></defs></svg>