<svg width="18" height="17" viewBox="0 0 18 17" fill="none" xmlns="http://www.w3.org/2000/svg">
<path d="M9 0.213379C7.90565 0.213379 6.82202 0.428927 5.81097 0.847716C4.79993 1.26651 3.88127 1.88033 3.10744 2.65416C1.54464 4.21696 0.666668 6.33658 0.666668 8.54671C0.666668 10.7569 1.54464 12.8765 3.10744 14.4393C3.88127 15.2131 4.79993 15.8269 5.81097 16.2457C6.82202 16.6645 7.90565 16.88 9 16.88C11.2101 16.88 13.3298 16.0021 14.8926 14.4393C16.4554 12.8765 17.3333 10.7569 17.3333 8.54671C17.3333 7.45236 17.1178 6.36873 16.699 5.35768C16.2802 4.34664 15.6664 3.42798 14.8926 2.65416C14.1187 1.88033 13.2001 1.26651 12.189 0.847716C11.178 0.428927 10.0944 0.213379 9 0.213379V0.213379ZM13.1667 9.38005H4.83333V7.71338H13.1667V9.38005Z" fill="#898B94"/>
</svg>
