<svg width="30" height="30" viewBox="0 0 30 30" fill="none" xmlns="http://www.w3.org/2000/svg">
<path d="M27 12H25.5825C25.347 11.1685 25.0175 10.377 24.6045 9.638L25.707 8.5355C25.9025 8.3405 26 8.0905 26 7.8285C26 7.572 25.9025 7.3165 25.707 7.121L22.879 4.293C22.6835 4.0975 22.4275 4 22.172 4C21.914 4 21.66 4.0975 21.4645 4.293L20.3615 5.3955C19.623 4.9825 18.8315 4.653 18 4.4175V3C18 2.448 17.552 2 17 2H13C12.448 2 12 2.448 12 3V4.4175C11.1685 4.653 10.377 4.9825 9.6385 5.3955L8.5355 4.293C8.3405 4.0975 8.086 4 7.828 4C7.572 4 7.3165 4.0975 7.121 4.293L4.293 7.121C4.0975 7.3165 4 7.5725 4 7.8285C4 8.09 4.0975 8.34 4.293 8.5355L5.3955 9.638C4.9825 10.377 4.653 11.1685 4.418 12H3C2.448 12 2 12.448 2 13V17C2 17.552 2.448 18 3 18H4.418C4.653 18.8315 4.9825 19.623 5.3955 20.362L4.293 21.4645C4.0975 21.6595 4 21.9095 4 22.1715C4 22.428 4.0975 22.6835 4.293 22.879L7.121 25.707C7.3165 25.9025 7.5725 26 7.828 26C8.086 26 8.34 25.9025 8.5355 25.707L9.6385 24.6045C10.377 25.0175 11.1685 25.347 12 25.5825V27C12 27.552 12.448 28 13 28H17C17.552 28 18 27.552 18 27V25.5825C18.8315 25.347 19.623 25.0175 20.3615 24.6045L21.4645 25.707C21.6595 25.9025 21.914 26 22.172 26C22.428 26 22.6835 25.9025 22.879 25.707L25.707 22.879C25.9025 22.6835 26 22.4275 26 22.1715C26 21.91 25.9025 21.66 25.707 21.4645L24.6045 20.362C25.0175 19.623 25.347 18.8315 25.5825 18H27C27.552 18 28 17.552 28 17V13C28 12.448 27.552 12 27 12ZM15 20C12.2385 20 10 17.761 10 15C10 12.2385 12.2385 10 15 10C17.7615 10 20 12.2385 20 15C20 17.761 17.7615 20 15 20Z" fill="white"/>
</svg>
