<svg width="308" height="184" fill="none" xmlns="http://www.w3.org/2000/svg" viewBox="0 0 308 184" preserveAspectRatio="none"><path opacity=".05" d="M0 16C0 7.163 7.163 0 16 0h237.373c4.243 0 8.313 1.686 11.313 4.686l38.628 38.628c3 3 4.686 7.07 4.686 11.313V168c0 8.837-7.163 16-16 16H16c-8.837 0-16-7.163-16-16V16Z" fill="#fff"/><rect x="28" y="25" width="142" height="5" rx="2.5" fill="#fff" fill-opacity=".09"/><rect x="28" y="116" width="70" height="5" rx="2.5" fill="#fff" fill-opacity=".09"/><rect x="28" y="156" width="70" height="13" rx="6.5" fill="#fff" fill-opacity=".09"/><rect x="132" y="156" width="70" height="13" rx="6.5" fill="#fff" fill-opacity=".09"/><rect x="132" y="116" width="70" height="5" rx="2.5" fill="#fff" fill-opacity=".09"/><rect x="28" y="100" width="214" height="5" rx="2.5" fill="#fff" fill-opacity=".09"/><path opacity=".4" fill="#fff" fill-opacity=".09" d="M0 140h308v1H0z"/><rect x="28" y="38" width="214" height="16" rx="8" fill="#fff" fill-opacity=".09"/></svg>