<svg width="16" height="16" viewBox="0 0 16 16" fill="none" xmlns="http://www.w3.org/2000/svg">
<path d="M10.5669 2.43333H12.2385C12.3831 2.43333 12.5003 2.31613 12.5003 2.17153V0.8C12.5003 0.358167 12.1421 0 11.7003 0H4.13359C3.98633 0 3.86693 0.1194 3.86693 0.266667V2.63333C3.86693 3.07517 3.50876 3.43333 3.06693 3.43333H0.70026C0.552994 3.43333 0.433594 3.55273 0.433594 3.7V15.2C0.433594 15.6418 0.79176 16 1.23359 16H11.7003C12.1421 16 12.5003 15.6418 12.5003 15.2V14.9691C12.5003 14.8414 12.4077 14.7348 12.2822 14.7109C12.0292 14.6627 11.8023 14.5441 11.6216 14.375L11.0823 13.8693C10.8183 13.622 10.6669 13.2723 10.6669 12.9103V9.174C10.6669 9.04267 10.5697 8.93223 10.4396 8.9145C9.97636 8.85137 8.96693 8.57303 8.96693 7.33333V4.03333C8.96693 3.14967 9.68326 2.43333 10.5669 2.43333ZM3.13359 13.3333C3.13359 13.4807 3.01426 13.6 2.86693 13.6C2.71959 13.6 2.60026 13.4807 2.60026 13.3333V11.348L2.45393 11.4513C2.33359 11.536 2.16726 11.5073 2.08226 11.387C1.99759 11.2667 2.02626 11.1003 2.14659 11.0153L2.71326 10.6153C2.88996 10.4908 3.13359 10.618 3.13359 10.8333V13.3333ZM3.25026 9.53333C2.67126 9.53333 2.20026 9.06233 2.20026 8.48333V7.55C2.20026 6.971 2.67126 6.5 3.25026 6.5C3.82926 6.5 4.30026 6.971 4.30026 7.55V8.48333C4.30026 9.06233 3.82926 9.53333 3.25026 9.53333ZM6.16693 12.55C6.16693 13.129 5.69593 13.6 5.11693 13.6C4.53793 13.6 4.06693 13.129 4.06693 12.55V11.6167C4.06693 11.0377 4.53793 10.5667 5.11693 10.5667C5.69593 10.5667 6.16693 11.0377 6.16693 11.6167V12.55ZM6.16693 9.26667C6.16693 9.414 6.04759 9.53333 5.90026 9.53333C5.75293 9.53333 5.63359 9.414 5.63359 9.26667V7.28133L5.48726 7.38467C5.36693 7.46933 5.20059 7.44067 5.11559 7.32033C5.03093 7.2 5.05959 7.03367 5.17993 6.94867L5.74659 6.54867C5.92329 6.4241 6.16693 6.55137 6.16693 6.76667V9.26667ZM8.16693 13.3333C8.16693 13.4807 8.0476 13.6 7.90026 13.6C7.75293 13.6 7.63359 13.4807 7.63359 13.3333V11.348L7.48726 11.4513C7.36693 11.536 7.20059 11.5073 7.11559 11.387C7.03093 11.2667 7.05959 11.1003 7.17993 11.0153L7.74659 10.6153C7.9233 10.4908 8.16693 10.618 8.16693 10.8333V13.3333ZM8.16693 9.26667C8.16693 9.414 8.0476 9.53333 7.90026 9.53333C7.75293 9.53333 7.63359 9.414 7.63359 9.26667V7.28133L7.48726 7.38467C7.36693 7.46933 7.20059 7.44067 7.11559 7.32033C7.03093 7.2 7.05959 7.03367 7.17993 6.94867L7.74659 6.54867C7.9233 6.4241 8.16693 6.55137 8.16693 6.76667V9.26667ZM8.16693 4.41667C8.16693 4.99567 7.69593 5.46667 7.11693 5.46667C6.53793 5.46667 6.06693 4.99567 6.06693 4.41667V3.48333C6.06693 2.90433 6.53793 2.43333 7.11693 2.43333C7.69593 2.43333 8.16693 2.90433 8.16693 3.48333V4.41667Z" fill="#000000"/>
<path d="M3.33304 0.477359V2.63279C3.33304 2.78006 3.21364 2.89946 3.06637 2.89946H0.910938C0.792138 2.89946 0.732672 2.75583 0.816672 2.67186L3.10544 0.383093C3.18941 0.299059 3.33304 0.358559 3.33304 0.477359Z" fill="#000000"/>
<path d="M3.76771 7.54987V8.4832C3.76771 8.7682 3.53604 8.99987 3.25104 8.99987C2.96604 8.99987 2.73438 8.7682 2.73438 8.4832V7.54987C2.73438 7.26487 2.96604 7.0332 3.25104 7.0332C3.53604 7.0332 3.76771 7.26487 3.76771 7.54987Z" fill="#000000"/>
<path d="M5.63294 11.6163V12.5496C5.63294 12.8346 5.40128 13.0663 5.11628 13.0663C4.83128 13.0663 4.59961 12.8346 4.59961 12.5496V11.6163C4.59961 11.3313 4.83128 11.0996 5.11628 11.0996C5.40128 11.0996 5.63294 11.3313 5.63294 11.6163Z" fill="#000000"/>
<path d="M7.63294 3.48346V4.4168C7.63294 4.7018 7.40128 4.93346 7.11628 4.93346C6.83128 4.93346 6.59961 4.7018 6.59961 4.4168V3.48346C6.59961 3.19846 6.83128 2.9668 7.11628 2.9668C7.40128 2.9668 7.63294 3.19846 7.63294 3.48346Z" fill="#000000"/>
<path d="M14.5 2.9668H10.5667C9.97867 2.9668 9.5 3.44513 9.5 4.03346V7.33346C9.5 7.9218 9.97867 8.40013 10.5667 8.40013H11.2V12.9105C11.2 13.1258 11.29 13.3335 11.447 13.4805L11.986 13.9861C12.2919 14.2722 12.7715 14.2752 13.0807 13.9861L13.5847 13.5135C13.8523 13.2625 13.9113 12.8688 13.7287 12.5561L13.585 12.3091C13.498 12.1598 13.498 11.9738 13.585 11.8245L13.7287 11.5775C13.9123 11.2625 13.9123 10.8711 13.7287 10.5561L13.585 10.3091C13.498 10.1598 13.4981 9.97383 13.585 9.82446C13.7405 9.55733 13.8667 9.38476 13.8667 9.0668V8.40013H14.5C15.088 8.40013 15.5667 7.9218 15.5667 7.33346V4.03346C15.5667 3.44513 15.088 2.9668 14.5 2.9668ZM13.6 5.13346H11.4667C11.3193 5.13346 11.2 5.01413 11.2 4.8668C11.2 4.71946 11.3193 4.60013 11.4667 4.60013H13.6C13.7473 4.60013 13.8667 4.71946 13.8667 4.8668C13.8667 5.01413 13.7473 5.13346 13.6 5.13346Z" fill="#000000"/>
</svg>
