<svg width="20" height="20" viewBox="0 0 20 20" fill="none" xmlns="http://www.w3.org/2000/svg">
<g clip-path="url(#clip0_1_9)">
<path d="M12.5669 4.43333H14.2385C14.3831 4.43333 14.5003 4.31613 14.5003 4.17153V2.8C14.5003 2.35817 14.1421 2 13.7003 2H6.13359C5.98633 2 5.86693 2.1194 5.86693 2.26667V4.63333C5.86693 5.07517 5.50876 5.43333 5.06693 5.43333H2.70026C2.55299 5.43333 2.43359 5.55273 2.43359 5.7V17.2C2.43359 17.6418 2.79176 18 3.23359 18H13.7003C14.1421 18 14.5003 17.6418 14.5003 17.2V16.9691C14.5003 16.8414 14.4077 16.7348 14.2822 16.7109C14.0292 16.6627 13.8023 16.5441 13.6216 16.375L13.0823 15.8693C12.8183 15.622 12.6669 15.2723 12.6669 14.9103V11.174C12.6669 11.0427 12.5697 10.9322 12.4396 10.9145C11.9764 10.8514 10.9669 10.573 10.9669 9.33333V6.03333C10.9669 5.14967 11.6833 4.43333 12.5669 4.43333ZM5.13359 15.3333C5.13359 15.4807 5.01426 15.6 4.86693 15.6C4.71959 15.6 4.60026 15.4807 4.60026 15.3333V13.348L4.45393 13.4513C4.33359 13.536 4.16726 13.5073 4.08226 13.387C3.99759 13.2667 4.02626 13.1003 4.14659 13.0153L4.71326 12.6153C4.88996 12.4908 5.13359 12.618 5.13359 12.8333V15.3333ZM5.25026 11.5333C4.67126 11.5333 4.20026 11.0623 4.20026 10.4833V9.55C4.20026 8.971 4.67126 8.5 5.25026 8.5C5.82926 8.5 6.30026 8.971 6.30026 9.55V10.4833C6.30026 11.0623 5.82926 11.5333 5.25026 11.5333ZM8.16693 14.55C8.16693 15.129 7.69593 15.6 7.11693 15.6C6.53793 15.6 6.06693 15.129 6.06693 14.55V13.6167C6.06693 13.0377 6.53793 12.5667 7.11693 12.5667C7.69593 12.5667 8.16693 13.0377 8.16693 13.6167V14.55ZM8.16693 11.2667C8.16693 11.414 8.04759 11.5333 7.90026 11.5333C7.75293 11.5333 7.63359 11.414 7.63359 11.2667V9.28133L7.48726 9.38467C7.36693 9.46933 7.20059 9.44067 7.11559 9.32033C7.03093 9.2 7.05959 9.03367 7.17993 8.94867L7.74659 8.54867C7.92329 8.4241 8.16693 8.55137 8.16693 8.76667V11.2667ZM10.1669 15.3333C10.1669 15.4807 10.0476 15.6 9.90026 15.6C9.75293 15.6 9.63359 15.4807 9.63359 15.3333V13.348L9.48726 13.4513C9.36693 13.536 9.20059 13.5073 9.11559 13.387C9.03093 13.2667 9.05959 13.1003 9.17993 13.0153L9.74659 12.6153C9.9233 12.4908 10.1669 12.618 10.1669 12.8333V15.3333ZM10.1669 11.2667C10.1669 11.414 10.0476 11.5333 9.90026 11.5333C9.75293 11.5333 9.63359 11.414 9.63359 11.2667V9.28133L9.48726 9.38467C9.36693 9.46933 9.20059 9.44067 9.11559 9.32033C9.03093 9.2 9.05959 9.03367 9.17993 8.94867L9.74659 8.54867C9.9233 8.4241 10.1669 8.55137 10.1669 8.76667V11.2667ZM10.1669 6.41667C10.1669 6.99567 9.69593 7.46667 9.11693 7.46667C8.53793 7.46667 8.06693 6.99567 8.06693 6.41667V5.48333C8.06693 4.90433 8.53793 4.43333 9.11693 4.43333C9.69593 4.43333 10.1669 4.90433 10.1669 5.48333V6.41667Z" fill="black"/>
<path d="M5.33304 2.47736V4.63279C5.33304 4.78006 5.21364 4.89946 5.06637 4.89946H2.91094C2.79214 4.89946 2.73267 4.75583 2.81667 4.67186L5.10544 2.38309C5.18941 2.29906 5.33304 2.35856 5.33304 2.47736Z" fill="black"/>
<path d="M5.76771 9.54987V10.4832C5.76771 10.7682 5.53604 10.9999 5.25104 10.9999C4.96604 10.9999 4.73438 10.7682 4.73438 10.4832V9.54987C4.73438 9.26487 4.96604 9.0332 5.25104 9.0332C5.53604 9.0332 5.76771 9.26487 5.76771 9.54987Z" fill="black"/>
<path d="M7.63294 13.6163V14.5496C7.63294 14.8346 7.40128 15.0663 7.11628 15.0663C6.83128 15.0663 6.59961 14.8346 6.59961 14.5496V13.6163C6.59961 13.3313 6.83128 13.0996 7.11628 13.0996C7.40128 13.0996 7.63294 13.3313 7.63294 13.6163Z" fill="black"/>
<path d="M9.63294 5.48346V6.4168C9.63294 6.7018 9.40128 6.93346 9.11628 6.93346C8.83128 6.93346 8.59961 6.7018 8.59961 6.4168V5.48346C8.59961 5.19846 8.83128 4.9668 9.11628 4.9668C9.40128 4.9668 9.63294 5.19846 9.63294 5.48346Z" fill="black"/>
<path d="M16.5 4.9668H12.5667C11.9787 4.9668 11.5 5.44513 11.5 6.03346V9.33346C11.5 9.9218 11.9787 10.4001 12.5667 10.4001H13.2V14.9105C13.2 15.1258 13.29 15.3335 13.447 15.4805L13.986 15.9861C14.2919 16.2722 14.7715 16.2752 15.0807 15.9861L15.5847 15.5135C15.8523 15.2625 15.9113 14.8688 15.7287 14.5561L15.585 14.3091C15.498 14.1598 15.498 13.9738 15.585 13.8245L15.7287 13.5775C15.9123 13.2625 15.9123 12.8711 15.7287 12.5561L15.585 12.3091C15.498 12.1598 15.4981 11.9738 15.585 11.8245C15.7405 11.5573 15.8667 11.3848 15.8667 11.0668V10.4001H16.5C17.088 10.4001 17.5667 9.9218 17.5667 9.33346V6.03346C17.5667 5.44513 17.088 4.9668 16.5 4.9668ZM15.6 7.13346H13.4667C13.3193 7.13346 13.2 7.01413 13.2 6.8668C13.2 6.71946 13.3193 6.60013 13.4667 6.60013H15.6C15.7473 6.60013 15.8667 6.71946 15.8667 6.8668C15.8667 7.01413 15.7473 7.13346 15.6 7.13346Z" fill="black"/>
</g>
<defs>
<clipPath id="clip0_1_9">
<rect width="16" height="16" fill="white" transform="translate(2 2)"/>
</clipPath>
</defs>
</svg>
