<svg width="22" height="22" viewBox="0 0 22 22" fill="none" xmlns="http://www.w3.org/2000/svg">
<g clip-path="url(#clip0_1_12)">
<path d="M18.8738 11.3323L14.8738 15.8323C14.807 15.9088 14.7181 15.9629 14.6194 15.987C14.5207 16.0111 14.4169 16.0042 14.3223 15.9673C14.2277 15.9311 14.1463 15.867 14.0887 15.7837C14.0312 15.7002 14.0003 15.6014 14 15.5V12.5H8.5C8.36739 12.5 8.24022 12.4473 8.14645 12.3536C8.05267 12.2598 8 12.1326 8 12V10C8 9.86739 8.05267 9.74022 8.14645 9.64645C8.24022 9.55267 8.36739 9.5 8.5 9.5H14V6.5C14 6.39857 14.0308 6.29953 14.0883 6.21602C14.1459 6.13251 14.2275 6.06848 14.3223 6.03242C14.4171 5.99638 14.5206 5.99001 14.6191 6.01417C14.7176 6.03833 14.8064 6.09187 14.8738 6.1677L18.8738 10.6677C18.9551 10.7593 19 10.8775 19 11C19 11.1225 18.9551 11.2407 18.8738 11.3323ZM8.5 16H6V6H8.5C8.63261 6 8.75978 5.94733 8.85355 5.85355C8.94733 5.75978 9 5.63261 9 5.5V3.5C9 3.36739 8.94733 3.24021 8.85355 3.14645C8.75978 3.05268 8.63261 3 8.5 3H3.5C3.36739 3 3.24021 3.05268 3.14645 3.14645C3.05268 3.24021 3 3.36739 3 3.5V18.5C3 18.6326 3.05268 18.7598 3.14645 18.8536C3.24021 18.9473 3.36739 19 3.5 19H8.5C8.63261 19 8.75978 18.9473 8.85355 18.8536C8.94733 18.7598 9 18.6326 9 18.5V16.5C9 16.3674 8.94733 16.2402 8.85355 16.1464C8.75978 16.0527 8.63261 16 8.5 16Z" fill="black"/>
</g>
<defs>
<clipPath id="clip0_1_12">
<rect width="16" height="16" fill="white" transform="translate(3 3)"/>
</clipPath>
</defs>
</svg>
