<svg width="14" height="14" viewBox="0 0 14 14" fill="none" xmlns="http://www.w3.org/2000/svg">
<path d="M13.8896 7.29076L10.3896 11.2283C10.3311 11.2952 10.2533 11.3425 10.167 11.3636C10.0806 11.3847 9.98983 11.3787 9.90701 11.3464C9.82422 11.3147 9.75297 11.2586 9.70263 11.1857C9.65229 11.1127 9.62523 11.0262 9.625 10.9375V8.3125H4.8125C4.69647 8.3125 4.58519 8.26641 4.50314 8.18436C4.42109 8.10231 4.375 7.99103 4.375 7.875V6.125C4.375 6.00897 4.42109 5.89769 4.50314 5.81564C4.58519 5.73359 4.69647 5.6875 4.8125 5.6875H9.625V3.0625C9.62496 2.97375 9.65191 2.88709 9.70228 2.81402C9.75264 2.74095 9.82404 2.68492 9.90699 2.65337C9.98994 2.62183 10.0805 2.61626 10.1667 2.6374C10.2529 2.65854 10.3306 2.70539 10.3896 2.77174L13.8896 6.70924C13.9607 6.78939 14 6.89284 14 7C14 7.10716 13.9607 7.21061 13.8896 7.29076ZM4.8125 11.375H2.625V2.625H4.8125C4.92853 2.625 5.03981 2.57891 5.12186 2.49686C5.20391 2.41481 5.25 2.30353 5.25 2.1875V0.4375C5.25 0.321468 5.20391 0.210188 5.12186 0.128141C5.03981 0.0460937 4.92853 0 4.8125 0H0.4375C0.321468 0 0.210188 0.0460937 0.128141 0.128141C0.0460937 0.210188 0 0.321468 0 0.4375V13.5625C0 13.6785 0.0460937 13.7898 0.128141 13.8719C0.210188 13.9539 0.321468 14 0.4375 14H4.8125C4.92853 14 5.03981 13.9539 5.12186 13.8719C5.20391 13.7898 5.25 13.6785 5.25 13.5625V11.8125C5.25 11.6965 5.20391 11.5852 5.12186 11.5031C5.03981 11.4211 4.92853 11.375 4.8125 11.375Z" fill="#000000"/>
</svg>
