<svg width="24" height="24" viewBox="0 0 24 24" fill="none" xmlns="http://www.w3.org/2000/svg">
<rect width="24" height="24" rx="12" fill="white"/>
<g clip-path="url(#clip0_822_61091)">
<path d="M12.0807 4C8.73872 4.01348 6.03269 6.71919 6.01953 10.0612C6.01987 10.7305 6.12823 11.3954 6.34042 12.0302C6.41654 12.2382 6.56949 12.4092 6.76782 12.508C6.96615 12.6068 7.19478 12.6258 7.40672 12.5612C7.61127 12.4825 7.77817 12.3289 7.87354 12.1315C7.9689 11.9342 7.98556 11.708 7.92014 11.4988C7.74058 11.0043 7.66043 10.4792 7.68429 9.95371C7.70962 9.10619 7.98084 8.28433 8.4649 7.58819C8.94896 6.89205 9.62499 6.35167 10.4107 6.03285C11.1963 5.71403 12.0578 5.63053 12.89 5.79252C13.7223 5.9545 14.4895 6.35498 15.0983 6.9452C15.707 7.53541 16.1311 8.28989 16.3187 9.11676C16.5063 9.94363 16.4495 10.8072 16.1551 11.6024C15.8608 12.3975 15.3415 13.09 14.6607 13.5953C13.9799 14.1007 13.1668 14.3972 12.3204 14.4487C12.3204 14.4487 11.4698 14.5003 11.0465 14.5523C10.8904 14.5745 10.7356 14.6053 10.5828 14.6444C10.5723 14.6549 10.5581 14.6608 10.5432 14.6608C10.5284 14.6608 10.5141 14.6549 10.5036 14.6444V14.6444C10.4962 14.6346 10.4923 14.6227 10.4923 14.6104C10.4923 14.5981 10.4962 14.5862 10.5036 14.5764L10.6355 13.8579L11.4345 10.264C11.4806 10.0485 11.4392 9.82354 11.3195 9.63856C11.1997 9.45357 11.0114 9.32373 10.7959 9.27761C10.5804 9.23148 10.3554 9.27284 10.1705 9.3926C9.98548 9.51235 9.85564 9.70069 9.80951 9.91617C9.80951 9.91617 7.90891 18.7126 7.90891 18.7928C7.85677 18.9982 7.88833 19.2158 7.99664 19.3979C8.10496 19.58 8.28116 19.7116 8.4865 19.7638C8.49113 19.7652 8.49585 19.7663 8.50062 19.767H8.5449C8.74996 19.82 8.96765 19.7893 9.1501 19.6818C9.33255 19.5742 9.46482 19.3987 9.51783 19.1936C9.51991 19.1864 9.52163 19.1792 9.52296 19.1718C9.52168 19.1586 9.52168 19.1452 9.52296 19.132C9.54639 19.0287 9.78609 17.8581 9.78609 17.8581C9.8747 17.4268 10.0932 17.033 10.4123 16.7296C10.7314 16.4262 11.1357 16.2277 11.5709 16.1609C11.7544 16.1327 12.5255 16.081 12.5255 16.081C15.8544 15.7505 18.2835 12.7826 17.951 9.45345C17.8044 7.98554 17.1271 6.6216 16.0463 5.61754C14.9655 4.61348 13.5555 4.03833 12.0807 4V4Z" fill="black"/>
<path d="M12.4474 17.9763C12.3175 17.9493 12.1836 17.948 12.0533 17.9728C11.923 17.9975 11.7988 18.0476 11.6879 18.1203C11.5769 18.193 11.4814 18.2869 11.4067 18.3965C11.3321 18.5061 11.2797 18.6294 11.2527 18.7593C11.2527 18.7644 11.2508 18.7695 11.2495 18.7747C11.2214 18.9039 11.2191 19.0373 11.2426 19.1674C11.2661 19.2975 11.315 19.4217 11.3865 19.5328C11.4581 19.644 11.5508 19.74 11.6594 19.8154C11.768 19.8907 11.8905 19.9439 12.0197 19.9719C12.02 19.9718 12.0203 19.9717 12.0206 19.9717C12.021 19.9717 12.0213 19.9718 12.0216 19.9719H12.0495C12.3048 20.0335 12.5741 19.9913 12.7982 19.8544C13.0223 19.7175 13.1828 19.4971 13.2445 19.2419C13.2445 19.238 13.2464 19.2335 13.2477 19.2297V19.1742C13.2929 18.91 13.2351 18.6386 13.0862 18.4158C12.9373 18.193 12.7087 18.0357 12.4474 17.9763V17.9763Z" fill="#E6007A"/>
</g>
<defs>
<clipPath id="clip0_822_61091">
<rect width="16" height="16" fill="white" transform="translate(4 4)"/>
</clipPath>
</defs>
</svg>
