<svg width="24" height="24" viewBox="0 0 24 24" fill="none" xmlns="http://www.w3.org/2000/svg">
<rect width="24" height="24" rx="12" fill="white"/>
<g clip-path="url(#clip0_822_61126)">
<path fill-rule="evenodd" clip-rule="evenodd" d="M16.8509 13.0622C16.6036 13.3096 16.1738 13.1972 16.0278 12.8794C15.999 12.8168 15.9834 12.7496 15.9834 12.6806V7.20031C15.9834 6.53757 15.4461 6.00031 14.7834 6.00031C14.1206 6.00031 13.5834 6.53757 13.5834 7.20031V9.97404C13.5834 10.2126 13.339 10.3745 13.1116 10.3026C12.9677 10.2571 12.8637 10.126 12.8637 9.97509V5.52032C12.8637 4.85757 12.3265 4.32031 11.6637 4.32031C11.001 4.32031 10.4637 4.85757 10.4637 5.52032V9.97476C10.4637 10.1258 10.3596 10.257 10.2156 10.3025C9.98801 10.3744 9.74354 10.2124 9.74354 9.97372V7.20031C9.74354 6.53757 9.20628 6.00031 8.54353 6.00031C7.88079 6.00031 7.34353 6.53757 7.34353 7.20031L7.34353 12.6825C7.34353 12.7501 7.32817 12.816 7.29992 12.8774C7.15699 13.1883 6.73693 13.2972 6.49496 13.0552L6.04854 12.6088C5.57991 12.1402 4.82011 12.1402 4.35147 12.6088C3.88284 13.0774 3.88284 13.8372 4.35147 14.3058L7.87926 17.8337C8.75778 18.9577 10.1262 19.6803 11.6634 19.6803C13.1367 19.6803 14.455 19.0166 15.3355 17.9718L19.0014 14.3058C19.47 13.8372 19.47 13.0774 19.0014 12.6088C18.5327 12.1402 17.7729 12.1402 17.3043 12.6088L16.8509 13.0622ZM11.6632 17.7604C13.7839 17.7604 15.5032 15.3604 15.5032 15.3604C15.5032 15.3604 13.7839 12.9603 11.6632 12.9603C9.54237 12.9603 7.82314 15.3604 7.82314 15.3604C7.82314 15.3604 9.54237 17.7604 11.6632 17.7604Z" fill="#222225"/>
<path d="M13.1027 15.3599C13.1027 16.1553 12.458 16.7999 11.6626 16.7999C10.8674 16.7999 10.2227 16.1553 10.2227 15.3599C10.2227 14.5647 10.8674 13.9199 11.6626 13.9199C12.458 13.9199 13.1027 14.5647 13.1027 15.3599Z" fill="#222225"/>
</g>
<defs>
<clipPath id="clip0_822_61126">
<rect x="4" y="4" width="16" height="16" rx="8" fill="white"/>
</clipPath>
</defs>
</svg>
