<svg width="18" height="18" fill="none" xmlns="http://www.w3.org/2000/svg"><path fill-rule="evenodd" clip-rule="evenodd" d="M2.334.667H6.5c.92 0 1.667.746 1.667 1.666V6.5c0 .92-.746 1.667-1.667 1.667H2.334C1.414 8.167.667 7.42.667 6.5V2.333c0-.92.746-1.666 1.667-1.666Zm0 9.166H6.5c.92 0 1.667.746 1.667 1.667v4.167c0 .92-.746 1.666-1.667 1.666H2.334c-.92 0-1.667-.746-1.667-1.666V11.5c0-.92.746-1.667 1.667-1.667Zm11.666 0h-1.666v2.5h-2.5V14h2.5v2.5H14V14h2.5v-1.667H14v-2.5ZM2.334 15.667V11.5H6.5v4.167H2.334Zm0-9.167V2.333H6.5V6.5H2.334ZM11.5.667h4.167c.92 0 1.667.746 1.667 1.666V6.5c0 .92-.747 1.667-1.667 1.667H11.5c-.92 0-1.666-.747-1.666-1.667V2.333c0-.92.746-1.666 1.666-1.666Zm0 5.833V2.333h4.167V6.5H11.5Z" fill="#fff" fill-opacity=".8"/></svg>