<svg width="20" height="21" viewBox="0 0 20 21" fill="none" xmlns="http://www.w3.org/2000/svg"><g clip-path="url(#a)"><path fill-rule="evenodd" clip-rule="evenodd" d="M10.667.667a2.188 2.188 0 0 0-1.334 0l-6.562 2.1A2.187 2.187 0 0 0 1.25 4.85v4.4c0 1.958.399 3.978 1.629 5.853 1.229 1.873 3.231 3.516 6.29 4.818.53.226 1.132.226 1.662 0 3.059-1.302 5.061-2.945 6.29-4.818 1.23-1.875 1.629-3.895 1.629-5.853v-4.4c0-.951-.615-1.794-1.52-2.083l-6.563-2.1Zm-.762 1.785a.312.312 0 0 1 .19 0l6.563 2.1c.13.042.217.162.217.298v4.4c0 1.698-.343 3.333-1.322 4.824-.98 1.493-2.651 2.927-5.457 4.122a.25.25 0 0 1-.192 0c-2.806-1.195-4.478-2.629-5.457-4.122-.979-1.491-1.322-3.126-1.322-4.824v-4.4c0-.136.088-.256.217-.298l6.563-2.1ZM14.1 8.351a.938.938 0 0 0-1.325-1.326l-3.713 3.712L7.85 9.525a.937.937 0 1 0-1.325 1.325L8.4 12.726a.938.938 0 0 0 1.325 0L14.1 8.35Z" fill="#fff"/></g><defs><clipPath id="a"><path fill="#fff" transform="translate(0 .5)" d="M0 0h20v20H0z"/></clipPath></defs></svg>