<svg width="95" height="23" viewBox="0 0 95 23" fill="none" xmlns="http://www.w3.org/2000/svg">
<path d="M31.9875 0C31.2092 0.256848 30.4249 0.501751 29.6226 0.716786C21.5937 2.86416 13.4869 2.45499 6.15251 0.00597335L4.72754 9.07033L7.61041 9.84087L10.2628 4.98166C10.9753 5.12502 11.6907 5.25046 12.4092 5.36096L13.2354 10.8294L16.2081 11.0893L17.9744 5.84778C18.6988 5.8657 19.4263 5.8657 20.1537 5.84479L21.92 11.0893L24.8926 10.8294L25.7219 5.352C26.4344 5.24448 27.1498 5.11606 27.8623 4.9727L30.5207 9.84087L33.4035 9.07033L31.9875 0Z" fill="white"/>
<path d="M26.2033 11.1162L23.5449 15.9844C22.8294 15.841 22.117 15.7126 21.4045 15.6051L20.5752 10.1276L17.6026 9.8678L15.8363 15.1123C15.1059 15.0944 14.3814 15.0944 13.657 15.1093L11.8907 9.8678L8.91805 10.1276L8.09181 15.5961C7.37035 15.7036 6.65486 15.8321 5.94537 15.9754L3.29302 11.1162L0.410156 11.8867L1.83512 20.9511C9.16652 18.4991 17.2763 18.0929 25.3052 20.2403C26.1075 20.4553 26.8918 20.6972 27.6701 20.9571L29.0951 11.8897L26.2033 11.1162Z" fill="white"/>
<path d="M48.7574 5.65082C48.7574 5.65082 47.4732 3.96936 44.731 3.96936C41.9888 3.96936 38.3965 5.52837 38.3965 10.4742C38.3965 15.423 41.9888 17.0268 44.731 17.0268C47.4732 17.0268 48.3503 15.6201 48.7574 14.9272C48.7574 17.9347 45.9913 19.3982 42.4948 17.6719L40.9321 21.0498C45.4345 23.3196 52.0864 22.7969 52.0864 14.9481V4.27698H49.2244L48.7574 5.65082ZM45.4345 13.4966C44.3239 13.4966 42.6474 12.7321 42.6474 10.4772C42.6474 8.22229 44.3239 7.45772 45.4345 7.45772C46.5451 7.45772 48.2216 8.22229 48.2216 10.4772C48.2216 12.7321 46.5451 13.4966 45.4345 13.4966Z" fill="white"/>
<path d="M89.0632 6.30781L88.3717 4.27691H85.5098V16.7251H89.4793C89.4793 16.7251 89.4793 12.1974 89.4793 10.4592C89.4793 8.29091 91.3653 7.26053 93.3591 8.03108L94.9996 4.48597C90.8145 2.64025 89.0632 6.30781 89.0632 6.30781Z" fill="white"/>
<path d="M82.5766 4.27698H79.7147L79.2477 5.65082C79.2477 5.65082 77.9634 3.96936 75.2212 3.96936C72.4791 3.96936 68.8867 5.80314 68.8867 10.4742C68.8867 15.1094 72.4791 17.0268 75.2212 17.0268C78.4394 17.0268 79.2477 14.9272 79.2477 14.9272V16.7222H82.5766V14.9511V4.27698ZM75.9217 13.4966C74.8111 13.4966 73.1347 12.7321 73.1347 10.4772C73.1347 8.22229 74.8111 7.45772 75.9217 7.45772C77.0324 7.45772 78.7088 8.22229 78.7088 10.4772C78.7088 12.7321 77.0324 13.4966 75.9217 13.4966Z" fill="white"/>
<path d="M61.0546 3.69458C56.1749 3.69458 53.6543 7.15009 53.6543 10.3726C53.6543 13.5952 55.9175 17.436 60.6983 17.436C65.4791 17.436 67.1077 14.3179 67.3591 13.8162L64.7397 12.1108C64.2278 12.9262 62.9735 13.8998 61.3629 13.8998C60.0487 13.8998 58.5728 13.0486 58.0759 11.5643H67.4519C67.7274 8.0162 65.9342 3.69458 61.0546 3.69458ZM58.2555 8.86739C58.7405 7.8609 59.6954 7.19787 60.9438 7.19787C62.7819 7.19787 63.3806 8.86739 63.3806 8.86739H58.2555Z" fill="white"/>
</svg>
