<svg width="64" height="40" viewBox="0 0 64 40" fill="none" xmlns="http://www.w3.org/2000/svg">
<path d="M12.7836 14.7568L8.74016 0H5.88434L12.7836 25.1794V34.7887L3.2523 0H0.396484L11.3557 40H12.7836H14.2106H15.6385V0H12.7836V14.7568Z" fill="white"/>
<path d="M63.6101 40L52.6509 0H51.223H49.7951H48.3672V39.9992H51.223L58.7604 32.7228L60.7543 39.9992H63.6101V40ZM56.2268 23.4722L51.2239 28.2996V5.21129L56.2268 23.4722ZM51.223 36.1001V32.1961L57.0704 26.5538L57.9167 29.6413L51.223 36.1001Z" fill="white"/>
<path d="M21.6546 0H20.2267H18.7988V39.9992H21.6546L29.1921 32.7228L31.1859 39.9992H34.0417L23.0817 0H21.6546ZM26.6575 23.4722L21.6546 28.2996V5.21129L26.6575 23.4722ZM21.6546 36.1001V32.1961L27.5021 26.5538L28.3484 29.6413L21.6546 36.1001Z" fill="white"/>
<path d="M45.8977 24.7148L39.1265 0H37.6986H36.2707H34.8428V39.9992H37.6986V32.5817L40.3219 30.0504L43.048 39.9992L45.8977 39.979L42.5805 27.8711L43.6296 26.8588L45.8977 24.7148ZM37.6986 28.6852V5.21129L42.7851 23.7772L37.6986 28.6852Z" fill="white"/>
</svg>
