<svg width="20" height="20" viewBox="0 0 20 20" fill="none" xmlns="http://www.w3.org/2000/svg">
<g clip-path="url(#clip0_1504_17564)">
<path d="M10.0999 0C5.92242 0.0168465 2.53988 3.39898 2.52344 7.57651C2.52386 8.41315 2.65931 9.24423 2.92454 10.0377C3.0197 10.2978 3.21089 10.5116 3.4588 10.635C3.70671 10.7585 3.9925 10.7823 4.25742 10.7015C4.51311 10.6031 4.72174 10.4111 4.84094 10.1644C4.96015 9.91775 4.98097 9.63495 4.89919 9.37347C4.67475 8.75538 4.57457 8.09905 4.60438 7.44214C4.63605 6.38274 4.97507 5.35541 5.58015 4.48523C6.18522 3.61506 7.03026 2.93958 8.01235 2.54106C8.99444 2.14254 10.0712 2.03816 11.1116 2.24065C12.1519 2.44313 13.111 2.94373 13.8719 3.6815C14.6328 4.41926 15.1628 5.36236 15.3974 6.39595C15.6319 7.42954 15.5609 8.50903 15.1929 9.50298C14.825 10.4969 14.176 11.3624 13.3249 11.9941C12.4738 12.6258 11.4575 12.9964 10.3996 13.0608C10.3996 13.0608 9.33624 13.1254 8.80718 13.1904C8.61203 13.2182 8.41854 13.2566 8.22758 13.3055C8.21442 13.3186 8.19661 13.326 8.17804 13.326C8.15948 13.326 8.14166 13.3186 8.12851 13.3055C8.11933 13.2932 8.11437 13.2783 8.11437 13.263C8.11437 13.2477 8.11933 13.2328 8.12851 13.2205L8.29336 12.3224L9.29212 7.83001C9.34978 7.56066 9.29807 7.27943 9.14838 7.0482C8.99869 6.81696 8.76327 6.65467 8.49392 6.59701C8.22456 6.53935 7.94333 6.59105 7.7121 6.74075C7.48087 6.89044 7.31857 7.12586 7.26091 7.39521C7.26091 7.39521 4.88516 18.3908 4.88516 18.491C4.81998 18.7477 4.85943 19.0198 4.99483 19.2474C5.13022 19.475 5.35047 19.6395 5.60715 19.7048C5.61294 19.7065 5.61883 19.7078 5.6248 19.7088H5.68015C5.93647 19.775 6.20858 19.7366 6.43665 19.6022C6.66471 19.4678 6.83005 19.2483 6.89631 18.992C6.89891 18.983 6.90106 18.9739 6.90272 18.9647C6.90112 18.9482 6.90112 18.9315 6.90272 18.915C6.932 18.7859 7.23163 17.3226 7.23163 17.3226C7.34239 16.7835 7.61555 16.2912 8.01438 15.912C8.41321 15.5327 8.9186 15.2847 9.46259 15.2012C9.69202 15.1659 10.6559 15.1013 10.6559 15.1013C14.817 14.6881 17.8533 10.9783 17.4378 6.81681C17.2545 4.98193 16.4079 3.277 15.0569 2.02192C13.7059 0.766854 11.9433 0.0479117 10.0999 0Z" fill="black"/>
<path d="M10.5592 17.4698C10.3969 17.436 10.2295 17.4344 10.0666 17.4653C9.90373 17.4962 9.74851 17.5589 9.60984 17.6498C9.47116 17.7407 9.35175 17.858 9.25843 17.995C9.1651 18.1321 9.09969 18.2861 9.06592 18.4485C9.06592 18.4549 9.06352 18.4613 9.06191 18.4677C9.02681 18.6292 9.02387 18.796 9.05325 18.9586C9.08264 19.1212 9.14378 19.2765 9.23317 19.4155C9.32257 19.5544 9.43848 19.6744 9.57427 19.7686C9.71006 19.8628 9.86307 19.9293 10.0246 19.9643C10.0249 19.9641 10.0254 19.964 10.0258 19.964C10.0262 19.964 10.0266 19.9641 10.027 19.9643H10.0619C10.381 20.0413 10.7176 19.9885 10.9977 19.8173C11.2778 19.6462 11.4785 19.3708 11.5556 19.0517C11.5556 19.0469 11.558 19.0413 11.5596 19.0365V18.9671C11.6161 18.6369 11.5438 18.2977 11.3577 18.0191C11.1717 17.7406 10.8859 17.544 10.5592 17.4698Z" fill="#E6007A"/>
</g>
<defs>
<clipPath id="clip0_1504_17564">
<rect width="20" height="20" fill="white"/>
</clipPath>
</defs>
</svg>
