<svg width="20" height="20" viewBox="0 0 20 20" fill="none" xmlns="http://www.w3.org/2000/svg">
<g clip-path="url(#clip0_1504_17583)">
<path fill-rule="evenodd" clip-rule="evenodd" d="M16.0637 11.3274C15.7545 11.6366 15.2172 11.4962 15.0348 11.0989C14.9988 11.0206 14.9792 10.9366 14.9792 10.8503V4.00002C14.9792 3.17159 14.3077 2.50002 13.4792 2.50002C12.6508 2.50002 11.9792 3.17159 11.9792 4.00002V7.46718C11.9792 7.76534 11.6738 7.96771 11.3895 7.87786C11.2096 7.82099 11.0796 7.65718 11.0796 7.4685V1.90003C11.0796 1.0716 10.4081 0.400024 9.5796 0.400024C8.7512 0.400024 8.0796 1.0716 8.0796 1.90003V7.46809C8.0796 7.65691 7.94953 7.82083 7.76948 7.87772C7.48502 7.9676 7.17942 7.7651 7.17942 7.46678V4.00002C7.17942 3.17159 6.50785 2.50002 5.67942 2.50002C4.85098 2.50002 4.17941 3.17159 4.17941 4.00002L4.17942 10.8527C4.17942 10.9372 4.16022 11.0196 4.1249 11.0964C3.94623 11.4851 3.42116 11.6211 3.1187 11.3187L2.56067 10.7607C1.97489 10.1748 1.02514 10.1748 0.439342 10.7607C-0.146448 11.3464 -0.146447 12.2962 0.439342 12.8819L4.84908 17.2917C5.94722 18.6967 7.65777 19.6 9.57928 19.6C11.4209 19.6 13.0687 18.7703 14.1694 17.4643L18.7518 12.8819C19.3375 12.2962 19.3375 11.3464 18.7518 10.7607C18.1659 10.1748 17.2162 10.1748 16.6304 10.7607L16.0637 11.3274ZM9.57896 17.2001C12.2299 17.2001 14.379 14.2001 14.379 14.2001C14.379 14.2001 12.2299 11.2 9.57896 11.2C6.92797 11.2 4.77892 14.2001 4.77892 14.2001C4.77892 14.2001 6.92797 17.2001 9.57896 17.2001Z" fill="#FAFAFA"/>
<path d="M11.3794 14.1993C11.3794 15.1935 10.5734 15.9993 9.57927 15.9993C8.58519 15.9993 7.7793 15.1935 7.7793 14.1993C7.7793 13.2052 8.58519 12.3993 9.57927 12.3993C10.5734 12.3993 11.3794 13.2052 11.3794 14.1993Z" fill="#FAFAFA"/>
</g>
<defs>
<clipPath id="clip0_1504_17583">
<rect width="20" height="20" fill="white"/>
</clipPath>
</defs>
</svg>
