<svg width="12" height="12" viewBox="0 0 12 12" fill="none" xmlns="http://www.w3.org/2000/svg">
<path d="M11.25 0.8014C10.925 0.4764 10.4 0.4764 10.075 0.8014L5.99998 4.86807L1.92498 0.793066C1.59998 0.468066 1.07498 0.468066 0.749976 0.793066C0.424976 1.11807 0.424976 1.64307 0.749976 1.96807L4.82498 6.04307L0.749976 10.1181C0.424976 10.4431 0.424976 10.9681 0.749976 11.2931C1.07498 11.6181 1.59998 11.6181 1.92498 11.2931L5.99998 7.21807L10.075 11.2931C10.4 11.6181 10.925 11.6181 11.25 11.2931C11.575 10.9681 11.575 10.4431 11.25 10.1181L7.17497 6.04307L11.25 1.96807C11.5666 1.6514 11.5666 1.11807 11.25 0.8014Z" fill="#858585"/>
</svg>
