<svg width="16" height="13" viewBox="0 0 16 13" fill="none" xmlns="http://www.w3.org/2000/svg">
<g opacity="0.8">
<path d="M14.1535 12.307H1.84652C0.826961 12.307 0.000471572 11.4805 0.000471572 10.4609V9.01978C-0.0162967 8.2747 0.41537 7.59224 1.09579 7.28819C1.72249 7.02501 2.01716 6.30367 1.75398 5.67697C1.62922 5.37987 1.39289 5.14354 1.09579 5.01878C0.415486 4.71461 -0.0161428 4.03222 0.000471572 3.28719V1.84605C0.000471572 0.82649 0.826961 0 1.84652 0H14.1535C15.173 0 15.9995 0.82649 15.9995 1.84605V3.28719C16.0163 4.03226 15.5846 4.71472 14.9042 5.01878C14.2775 5.28196 13.9828 6.0033 14.246 6.62999C14.3708 6.92709 14.6071 7.16342 14.9042 7.28819C15.5845 7.59236 16.0161 8.27474 15.9995 9.01978V10.4609C15.9995 11.4805 15.173 12.307 14.1535 12.307ZM1.84652 1.2307C1.50665 1.2307 1.23117 1.50618 1.23117 1.84605V3.28719C1.21859 3.5366 1.35281 3.77039 1.57453 3.88531C2.82723 4.41328 3.41473 5.85677 2.88676 7.10943C2.63732 7.70128 2.16642 8.17221 1.57453 8.42166C1.3527 8.53646 1.21844 8.77033 1.23117 9.01978V10.4609C1.23117 10.8008 1.50665 11.0763 1.84652 11.0763H14.1535C14.4933 11.0763 14.7688 10.8008 14.7688 10.4609V9.01978C14.7814 8.77037 14.6472 8.53657 14.4255 8.42166C13.1728 7.89369 12.5853 6.4502 13.1132 5.19754C13.3627 4.60569 13.8336 4.13476 14.4255 3.88531C14.6473 3.77051 14.7816 3.53664 14.7688 3.28719V1.84605C14.7688 1.50618 14.4933 1.2307 14.1535 1.2307H1.84652Z" fill="white"/>
<path d="M6.15464 6.154C5.13508 6.154 4.30859 5.32751 4.30859 4.30796C4.30859 3.2884 5.13508 2.46191 6.15464 2.46191C7.17419 2.46191 8.00068 3.2884 8.00068 4.30796C8.00068 5.32751 7.17419 6.154 6.15464 6.154ZM6.15464 3.69261C5.81477 3.69261 5.53929 3.96809 5.53929 4.30796C5.53929 4.64782 5.81477 4.92331 6.15464 4.92331C6.4945 4.92331 6.76999 4.64782 6.76999 4.30796C6.76999 3.96809 6.4945 3.69261 6.15464 3.69261Z" fill="white"/>
<path d="M9.84605 9.84443C8.82649 9.84443 8 9.01794 8 7.99839C8 6.97883 8.82649 6.15234 9.84605 6.15234C10.8656 6.15234 11.6921 6.97883 11.6921 7.99839C11.6921 9.01794 10.8656 9.84443 9.84605 9.84443ZM9.84605 7.38304C9.50618 7.38304 9.2307 7.65852 9.2307 7.99839C9.2307 8.33825 9.50618 8.61374 9.84605 8.61374C10.1859 8.61374 10.4614 8.33825 10.4614 7.99839C10.4614 7.65856 10.1859 7.38304 9.84605 7.38304Z" fill="white"/>
<path d="M6.1543 8.61445C5.81443 8.61437 5.53902 8.33881 5.53906 7.99898C5.5391 7.83588 5.6039 7.67942 5.71924 7.56405L9.41133 3.87196C9.65578 3.63585 10.0453 3.64262 10.2814 3.88711C10.5117 4.12556 10.5117 4.50361 10.2814 4.74206L6.58935 8.43415C6.47397 8.54957 6.31748 8.61441 6.1543 8.61445Z" fill="white"/>
</g>
</svg>
