<svg width="20" height="14" viewBox="0 0 20 14" fill="none" xmlns="http://www.w3.org/2000/svg">
<path d="M4.40635 11.2088C8.75586 12.9407 12.4573 13.2781 16.6518 10.5823C16.6211 10.6294 15.7913 11.8836 13.6094 12.5264C14.0704 13.1691 14.7004 13.906 14.7004 13.906C16.0987 13.906 17.4662 13.4983 18.6493 12.7145C19.5712 12.0874 20.0936 11.0056 19.9861 9.87686C19.8017 7.94848 19.3561 6.06721 18.6647 4.26435C17.7888 1.91269 15.6838 0.282241 13.2407 0.047071C13.0256 0.031381 12.8719 0.0313795 12.7797 0.0313795L12.5339 0.282194C15.3458 1.09744 16.744 2.3673 16.7748 2.41437C12.457 0.188145 7.35573 0.15681 3.00729 2.32027C3.00729 2.32027 4.39018 0.92499 7.44787 0.188146L7.26351 0C6.9408 0 6.63351 0.0313793 6.31084 0.0783589C4.05213 0.470294 2.16218 2.05372 1.34782 4.23292C0.640978 6.11419 0.180045 8.08955 0.0110226 10.0963C-0.0811552 11.1624 0.410534 12.2128 1.27098 12.8242C2.408 13.5924 3.76018 14 5.12769 14C5.12769 14 5.68084 13.2632 6.23404 12.6047C4.15969 11.9776 3.31458 10.7234 3.2992 10.6764L3.6896 10.8798C3.92298 11.0014 4.16222 11.1116 4.40635 11.2088ZM6.81791 9.84548C5.81916 9.8141 5.03551 8.95187 5.06627 7.91714C5.09702 6.94513 5.86529 6.16126 6.81791 6.12988C7.81667 6.16126 8.60031 7.02349 8.5696 8.05826C8.52347 9.03028 7.77058 9.81415 6.81791 9.84548ZM13.087 9.84548C12.0882 9.8141 11.3046 8.95187 11.3353 7.91714C11.3661 6.94513 12.1344 6.16126 13.087 6.12988C14.0858 6.16126 14.8694 7.02349 14.8387 8.05826C14.808 9.03028 14.0396 9.81415 13.087 9.84548Z" fill="#BCBCBC"/>
</svg>
