<svg width="980" height="210" viewBox="0 0 980 210" fill="none" xmlns="http://www.w3.org/2000/svg" preserveAspectRatio="none">
<g clip-path="url(#clip0_2039_22783)">
<rect width="980" height="70" fill="#222225"/>
<rect x="24" y="27" width="175" height="16" rx="8" fill="white" fill-opacity="0.1"/>
<rect x="376" y="25" width="250" height="16" rx="8" fill="white" fill-opacity="0.1"/>
<rect x="728" y="21" width="100" height="10" rx="5" fill="white" fill-opacity="0.1"/>
<rect x="768" y="39" width="60" height="10" rx="5" fill="white" fill-opacity="0.1"/>
<rect x="880" y="27" width="80" height="16" rx="8" fill="white" fill-opacity="0.1"/>
<rect width="980" height="70" transform="translate(0 70)" fill="#2B2B2E"/>
<rect x="24" y="97" width="175" height="16" rx="8" fill="white" fill-opacity="0.1"/>
<rect x="376" y="95" width="250" height="16" rx="8" fill="white" fill-opacity="0.1"/>
<rect x="728" y="91" width="100" height="10" rx="5" fill="white" fill-opacity="0.1"/>
<rect x="768" y="109" width="60" height="10" rx="5" fill="white" fill-opacity="0.1"/>
<rect x="880" y="97" width="80" height="16" rx="8" fill="white" fill-opacity="0.1"/>
<rect width="980" height="70" transform="translate(0 140)" fill="#222225"/>
<rect x="24" y="167" width="175" height="16" rx="8" fill="white" fill-opacity="0.1"/>
<rect x="376" y="165" width="250" height="16" rx="8" fill="white" fill-opacity="0.1"/>
<rect x="728" y="161" width="100" height="10" rx="5" fill="white" fill-opacity="0.1"/>
<rect x="768" y="179" width="60" height="10" rx="5" fill="white" fill-opacity="0.1"/>
<rect x="880" y="167" width="80" height="16" rx="8" fill="white" fill-opacity="0.1"/>
</g>
<defs>
<clipPath id="clip0_2039_22783">
<rect width="980" height="210" rx="16" fill="white"/>
</clipPath>
</defs>
</svg>
