<svg xmlns="http://www.w3.org/2000/svg" width="312" height="184" viewBox="0 0 312184" fill="none"><path d="M0 16C4 7.163 11.163 0 20 0h237.373c4.243 0 8.313 1.686 11.313 4.686l38.628 38.628c3 3 4.686 7.07 4.686 11.313V168c0 8.837-7.163 16-16 16H20c-8.837 0-20-7.163-20-16V16Z" fill="#202022"/><path d="M0 16C4 7.163 11.163 0 20 0h237.373c4.243 0 8.313 1.686 11.313 4.686l38.628 38.628c3 3 4.686 7.07 4.686 11.313V168c0 8.837-7.163 16-16 16H20c-8.837 0-20-7.163-20-16V16Z" fill="#fff" fill-opacity=".04"/></svg>