<svg width="465" height="260" viewBox="0 0 465 260" fill="none" xmlns="http://www.w3.org/2000/svg" preserveAspectRatio="none" ><rect width="465" height="260" rx="16" fill="#222225"/><path d="M0 16C0 7.163 7.163 0 16 0h433c8.837 0 16 7.163 16 16v36H0V16Z" fill="#2B2B2E"/><rect x="24" y="18" width="160" height="16" rx="8" fill="#fff" fill-opacity=".1"/><rect x="232" y="18" width="100" height="16" rx="8" fill="#fff" fill-opacity=".1"/><rect x="24" y="70" width="160" height="16" rx="8" fill="#fff" fill-opacity=".1"/><rect x="232" y="70" width="100" height="16" rx="8" fill="#fff" fill-opacity=".1"/><path fill="#2B2B2E" d="M0 104h465v52H0z"/><rect x="24" y="122" width="160" height="16" rx="8" fill="#fff" fill-opacity=".1"/><rect x="232" y="122" width="100" height="16" rx="8" fill="#fff" fill-opacity=".1"/><rect x="24" y="174" width="160" height="16" rx="8" fill="#fff" fill-opacity=".1"/><rect x="232" y="174" width="100" height="16" rx="8" fill="#fff" fill-opacity=".1"/><path d="M0 208h465v36c0 8.837-7.163 16-16 16H16c-8.837 0-16-7.163-16-16v-36Z" fill="#2B2B2E"/><rect x="24" y="226" width="160" height="16" rx="8" fill="#fff" fill-opacity=".1"/><rect x="232" y="226" width="100" height="16" rx="8" fill="#fff" fill-opacity=".1"/></svg>