<svg width="18" height="19" fill="none" xmlns="http://www.w3.org/2000/svg"><g clip-path="url(#a)" fill="#D1D1D1"><path d="M11.887 3.238h1.88a.294.294 0 0 0 .295-.295V1.4a.9.9 0 0 0-.9-.9H4.65a.3.3 0 0 0-.3.3v2.663a.9.9 0 0 1-.9.9H.787a.3.3 0 0 0-.3.3V17.6a.9.9 0 0 0 .9.9h11.775a.9.9 0 0 0 .9-.9v-.26a.297.297 0 0 0-.245-.29 1.495 1.495 0 0 1-.743-.378l-.607-.569A1.484 1.484 0 0 1 12 15.024v-4.203a.295.295 0 0 0-.256-.292c-.521-.071-1.657-.384-1.657-1.779V5.038a1.8 1.8 0 0 1 1.8-1.8ZM3.525 15.5a.3.3 0 1 1-.6 0v-2.233l-.165.116a.3.3 0 0 1-.346-.49l.638-.45a.3.3 0 0 1 .473.245V15.5Zm.131-4.275c-.651 0-1.181-.53-1.181-1.181v-1.05c0-.652.53-1.181 1.181-1.181s1.181.53 1.181 1.18v1.05c0 .652-.53 1.182-1.18 1.182Zm3.281 3.394c0 .651-.53 1.181-1.18 1.181-.652 0-1.182-.53-1.182-1.181v-1.05c0-.652.53-1.181 1.181-1.181s1.181.53 1.181 1.18v1.05Zm0-3.694a.3.3 0 1 1-.6 0V8.692l-.164.116a.3.3 0 0 1-.346-.49l.637-.45a.3.3 0 0 1 .473.245v2.812Zm2.25 4.575a.3.3 0 1 1-.6 0v-2.233l-.164.116a.3.3 0 0 1-.346-.49l.637-.45a.3.3 0 0 1 .473.245V15.5Zm0-4.575a.3.3 0 1 1-.6 0V8.692l-.164.116a.3.3 0 0 1-.346-.49l.637-.45a.3.3 0 0 1 .473.245v2.812Zm0-5.456c0 .651-.53 1.181-1.18 1.181-.652 0-1.182-.53-1.182-1.181v-1.05c0-.651.53-1.181 1.181-1.181s1.181.53 1.181 1.18v1.05Z"/><path d="M3.75 1.038v2.425a.3.3 0 0 1-.3.3H1.025a.15.15 0 0 1-.106-.256L3.494.932a.15.15 0 0 1 .256.106ZM4.238 8.994v1.05a.582.582 0 0 1-1.163 0v-1.05a.582.582 0 0 1 1.163 0ZM6.337 13.569v1.05a.582.582 0 0 1-1.162 0v-1.05a.582.582 0 0 1 1.162 0ZM8.587 4.419v1.05a.582.582 0 0 1-1.162 0v-1.05a.582.582 0 0 1 1.162 0ZM16.313 3.838h-4.425c-.662 0-1.2.538-1.2 1.2V8.75c0 .662.538 1.2 1.2 1.2h.712v5.074c0 .243.101.476.278.642l.606.568a.903.903 0 0 0 1.232 0l.567-.531a.87.87 0 0 0 .162-1.077l-.162-.278a.543.543 0 0 1 0-.546l.162-.277a1.142 1.142 0 0 0 0-1.15l-.162-.277a.543.543 0 0 1 0-.546c.175-.3.317-.494.317-.852v-.75h.713c.661 0 1.2-.538 1.2-1.2V5.038c0-.662-.539-1.2-1.2-1.2ZM15.3 6.275h-2.4a.3.3 0 1 1 0-.6h2.4a.3.3 0 1 1 0 .6Z"/></g><defs><clipPath id="a"><path fill="#fff" transform="translate(0 .5)" d="M0 0h18v18H0z"/></clipPath></defs></svg>