<svg width="14" height="14" viewBox="0 0 14 14" fill="none" xmlns="http://www.w3.org/2000/svg">
<circle cx="7" cy="7" r="7" fill="#333333"/>
<path d="M11.1819 4C10.9556 4.07302 10.726 4.14287 10.4932 4.20637C8.15897 4.81915 5.79882 4.70167 3.66823 4L3.25439 6.59714L4.09176 6.81939L4.86446 5.42875C5.07138 5.47002 5.2783 5.50495 5.48845 5.5367L5.72769 7.10197L6.59093 7.17499L7.10498 5.67322C7.31513 5.67957 7.52852 5.67957 7.73867 5.67322L8.25272 7.17499L9.11595 7.10197L9.3552 5.53352C9.56212 5.50177 9.76904 5.46685 9.97919 5.42557L10.7519 6.81939L11.5893 6.60032L11.1819 4Z" fill="#00FF38"/>
<path d="M9.50072 7.18092L8.72802 8.57474C8.5211 8.53346 8.31419 8.49854 8.10404 8.46679L7.86479 6.89834L6.99833 6.82532L6.48427 8.32709C6.27089 8.32074 6.06074 8.32074 5.85059 8.32709L5.33653 6.82532L4.4733 6.89834L4.23405 8.46361C4.0239 8.49536 3.81699 8.53029 3.61007 8.57156L2.83737 7.18092L2 7.40317L2.41383 9.99713C4.54443 9.29546 6.90457 9.17799 9.23885 9.79393C9.47163 9.85426 9.70118 9.92411 9.92749 10.0003L10.3413 7.40317L9.50072 7.18092Z" fill="#00FF38"/>
</svg>
