<svg width="72" height="24" viewBox="0 0 72 24" fill="none" xmlns="http://www.w3.org/2000/svg">
<g clip-path="url(#clip0_6_481)">
<path d="M22.9503 10.7112C22.797 8.44677 21.9763 6.27847 20.5919 4.47999C19.2073 2.68151 17.3211 1.33347 15.1712 0.606017C13.0213 -0.121438 10.704 -0.195706 8.51195 0.392585C6.31986 0.980877 4.35118 2.20536 2.85436 3.91149C2.84252 3.92932 2.82874 3.94701 2.8169 3.96664C0.823119 6.25542 -0.180447 9.24213 0.0267276 12.2705C0.046364 12.5693 0.0817373 12.8604 0.125049 13.1592V13.1987C0.152484 13.3953 0.185908 13.5919 0.22532 13.7728C0.260693 13.9439 0.298016 14.1149 0.341327 14.2841C1.03266 17.0754 2.74582 19.506 5.1423 21.0954C7.5388 22.685 10.4443 23.3178 13.2848 22.869C16.1252 22.4201 18.694 20.9222 20.4837 18.6711C22.2732 16.4202 23.1534 13.5798 22.9503 10.7112ZM20.4491 10.8803C20.5015 11.642 20.4559 12.4072 20.3135 13.1573C20.3124 13.1528 20.3124 13.148 20.3135 13.1435C19.4798 11.1084 17.8319 9.63751 16.3808 8.81766C16.6738 5.37642 15.5038 3.93322 14.1786 3.68742C14.1429 3.67946 14.1067 3.67356 14.0704 3.66973C13.5784 3.62959 13.0898 3.7806 12.7062 4.09135C12.3227 4.40211 12.0736 4.84871 12.0109 5.33833C11.9481 5.82796 12.0763 6.32295 12.3691 6.72044C12.6618 7.11792 13.0964 7.38731 13.5826 7.47264C13.6727 7.48294 13.7634 7.48754 13.8541 7.48643C13.8541 7.60243 13.8638 7.72624 13.8658 7.85604C12.7509 7.57656 11.597 7.48683 10.4524 7.5906C10.0597 7.61622 9.66901 7.66552 9.28228 7.73808C9.41207 6.57396 9.84867 5.26445 10.698 4.30882C11.1129 3.83533 11.6354 3.46834 12.2215 3.23872C12.8077 3.00911 13.4404 2.92356 14.0665 2.98928C14.3262 3.01741 14.582 3.07409 14.8294 3.15849L14.8628 3.16824C16.4225 3.80189 17.773 4.86068 18.7607 6.22409C19.7482 7.5875 20.3332 9.20078 20.4491 10.8803ZM12.4422 12.636C12.1511 13.0536 11.8219 13.4433 11.459 13.8003C10.9118 13.2179 10.4486 12.562 10.0826 11.8515C10.0649 11.8141 10.0452 11.7808 10.0275 11.7433C9.81218 11.2823 9.63974 10.8025 9.51234 10.3099C10.2916 10.1232 11.0932 10.0471 11.8936 10.0837H12.0155C12.5216 10.127 13.0225 10.2173 13.5119 10.3532C13.2836 11.1211 12.9487 11.8531 12.517 12.528C12.4855 12.5672 12.4657 12.6007 12.4422 12.636ZM8.50949 3.01491C7.16252 4.75321 6.71437 6.91419 6.73985 8.57576C3.60152 10.0545 2.92706 11.7986 3.38524 13.059C3.39694 13.0943 3.40891 13.1278 3.42451 13.1633C3.63001 13.6189 4.00518 13.9765 4.47023 14.1598C4.93527 14.343 5.45348 14.3376 5.9146 14.1447C6.37573 13.9518 6.74339 13.5866 6.93937 13.1267C7.13532 12.6669 7.14414 12.1487 6.96393 11.6825C6.92795 11.5983 6.88593 11.5169 6.83818 11.4388C6.93845 11.3758 7.04457 11.309 7.15667 11.2421C7.47111 12.3485 7.9682 13.3946 8.62745 14.3372C8.84525 14.6635 9.08297 14.9761 9.33924 15.2732C8.25784 15.745 6.91477 16.0223 5.66222 15.7648C5.04464 15.6422 4.46548 15.3733 3.97343 14.9805C3.48137 14.5876 3.09082 14.0823 2.83459 13.5073C2.72895 13.2683 2.64985 13.0184 2.59867 12.7622C2.56915 12.5438 2.54157 12.3235 2.52792 12.0993C2.39707 10.139 2.91152 8.18987 3.99266 6.54949C5.0738 4.90912 6.6622 3.66777 8.5152 3.01505H8.50935L8.50949 3.01491ZM12.0981 20.4505C9.74767 20.6111 7.42856 19.8397 5.64259 18.3033C7.82125 18.5983 9.91746 17.91 11.3449 17.0605C14.1864 19.0407 16.0327 18.7536 16.9097 17.7233C16.9334 17.6957 16.9569 17.6681 16.9786 17.6386C17.2871 17.2324 17.4215 16.7202 17.3524 16.2148C17.2832 15.7094 17.0162 15.2522 16.6099 14.9437C16.2036 14.6352 15.6915 14.5008 15.1862 14.5699C14.6808 14.6391 14.2236 14.9062 13.9151 15.3125C13.8593 15.3828 13.8086 15.457 13.7635 15.5347C13.6539 15.478 13.5451 15.4197 13.4372 15.3597C14.2378 14.5338 14.8938 13.5792 15.3779 12.5359C15.552 12.1828 15.7049 11.8197 15.8361 11.4485C16.78 12.1447 17.6943 13.1769 18.0994 14.3982C18.3022 14.9935 18.3593 15.6289 18.266 16.2508C18.1726 16.8729 17.9313 17.4634 17.5626 17.973C17.409 18.1841 17.2322 18.3774 17.0356 18.5491C15.6197 19.6673 13.8982 20.3302 12.0981 20.4505Z" fill="url(#paint0_linear_6_481)"/>
<path style="mix-blend-mode:overlay" opacity="0.9" d="M14.1784 3.68739C14.1428 3.67944 14.1066 3.67353 14.0702 3.6697C13.8896 3.64404 13.7062 3.64404 13.5256 3.6697C14.6248 4.25963 15.425 5.93499 15.0043 9.2208C14.8646 10.2899 14.5504 11.3288 14.0741 12.2961C13.6647 13.1848 13.1303 14.0105 12.4873 14.7481C12.7917 14.9771 13.1102 15.1866 13.441 15.3754C14.2415 14.5496 14.8976 13.595 15.3818 12.5517C15.8628 11.5822 16.1798 10.5397 16.3198 9.46647C16.8153 5.55354 15.5824 3.93319 14.1784 3.68739Z" fill="url(#paint1_radial_6_481)"/>
<path opacity="0.8" d="M15.0043 9.22862C15.4251 5.94281 14.6248 4.27539 13.5256 3.67752L13.3978 3.70315C14.4734 4.3226 15.2481 5.98612 14.8333 9.22862C14.6938 10.298 14.379 11.3371 13.9012 12.3039C13.5053 13.1561 12.9945 13.95 12.3832 14.6636C12.4166 14.6911 12.452 14.7167 12.4873 14.7423C13.1289 14.0101 13.6632 13.1904 14.0743 12.3079C14.5508 11.3394 14.8651 10.2991 15.0043 9.22862Z" fill="white"/>
<path style="mix-blend-mode:overlay" opacity="0.5" d="M10.8257 16.683C10.7235 16.6023 10.6291 16.5217 10.5249 16.4391C8.90261 17.1155 6.6532 17.5403 4.42928 17.029C4.79356 17.495 5.20253 17.9245 5.65035 18.311C7.82901 18.6059 9.92509 17.9178 11.3527 17.0683C11.1758 16.9406 11.0105 16.8167 10.8257 16.683Z" fill="url(#paint2_radial_6_481)"/>
<path style="mix-blend-mode:overlay" opacity="0.6" d="M10.5249 16.4393L10.3755 16.3212C8.74152 16.974 6.48222 17.3634 4.25621 16.8089C4.30941 16.8816 4.36442 16.9564 4.42138 17.0271C6.65324 17.5403 8.90279 17.1077 10.5249 16.4393Z" fill="url(#paint3_linear_6_481)"/>
<path style="mix-blend-mode:overlay" opacity="0.9" d="M3.38512 13.0611C3.39695 13.0965 3.41074 13.1299 3.42439 13.1653C3.49594 13.3336 3.59063 13.4911 3.7057 13.6332C3.67423 12.3886 4.7183 10.8549 7.77196 9.57668C8.76749 9.16303 9.82466 8.91719 10.9006 8.84916C11.8704 8.76294 12.8477 8.81522 13.8028 9.00444C13.8489 8.62674 13.8706 8.24645 13.8677 7.86595C12.7524 7.58515 11.5977 7.49409 10.4521 7.59661C9.37605 7.6659 8.31891 7.91306 7.32367 8.32803C3.68398 9.84601 2.8995 11.72 3.38512 13.0611Z" fill="url(#paint4_radial_6_481)"/>
<path opacity="0.8" d="M7.77197 9.57649C4.7183 10.8548 3.67409 12.3885 3.70557 13.6331C3.73314 13.6666 3.76072 13.698 3.7901 13.7295C3.7901 12.4887 4.84211 10.9864 7.85859 9.72411C8.85351 9.31023 9.90982 9.06306 10.9851 8.99255C11.9211 8.91039 12.8639 8.95733 13.7871 9.1321C13.7871 9.08697 13.7871 9.04366 13.8028 9.00049C12.8475 8.81254 11.8703 8.76151 10.9006 8.84897C9.82466 8.91701 8.76749 9.16285 7.77197 9.57649Z" fill="white"/>
<path style="mix-blend-mode:overlay" opacity="0.4" d="M16.3198 9.46651C16.304 9.59631 16.2825 9.72415 16.2609 9.8598C17.6569 10.9275 19.1494 12.6618 19.816 14.8544C20.0381 14.306 20.2054 13.7368 20.3154 13.1554C19.4777 11.1104 17.8319 9.63572 16.3847 8.82938C16.367 9.04579 16.3434 9.24244 16.3198 9.46651Z" fill="url(#paint5_radial_6_481)"/>
<path style="mix-blend-mode:overlay" opacity="0.5" d="M16.257 9.85001C16.2451 9.9149 16.2354 9.97771 16.2235 10.0466C17.6 11.136 19.0728 12.8978 19.706 15.1041C19.7422 15.0199 19.7776 14.9352 19.8121 14.8504C19.1456 12.652 17.6531 10.9176 16.257 9.85001Z" fill="url(#paint6_linear_6_481)"/>
<path style="mix-blend-mode:overlay" opacity="0.9" d="M16.9097 17.7212L16.9804 17.6367C17.0912 17.4911 17.18 17.3301 17.2439 17.1588C16.1783 17.8117 14.3339 17.6722 11.6989 15.6645C10.8388 15.0108 10.0927 14.2195 9.49067 13.3225C8.93184 12.5251 8.48893 11.6525 8.17517 10.7307C7.82513 10.8793 7.48494 11.0501 7.15672 11.2421C7.47135 12.3488 7.96915 13.395 8.62945 14.3372C9.22851 15.2334 9.9713 16.0245 10.8279 16.6791C13.9602 19.0742 15.9816 18.8126 16.9097 17.7212Z" fill="url(#paint7_radial_6_481)"/>
<path opacity="0.8" d="M11.6891 15.6644C14.3241 17.672 16.1685 17.8117 17.2342 17.1588C17.2499 17.1176 17.2637 17.0782 17.2755 17.037C16.202 17.6584 14.3733 17.501 11.7738 15.5169C10.9179 14.8622 10.1758 14.0711 9.57727 13.175C9.03779 12.4061 8.60701 11.5664 8.29715 10.6797L8.17529 10.7309C8.48906 11.6526 8.93198 12.5252 9.49079 13.3226C10.0898 14.2187 10.8326 15.0098 11.6891 15.6644Z" fill="white"/>
<path style="mix-blend-mode:overlay" opacity="0.3" d="M7.32183 8.32021C7.44173 8.27091 7.56373 8.22565 7.68364 8.18053C7.9098 6.43638 8.66685 4.27721 10.2398 2.60394C9.65386 2.68502 9.07748 2.82465 8.51937 3.02076C7.17239 4.75907 6.7241 6.92018 6.74959 8.57966C6.92269 8.49318 7.11724 8.40656 7.32183 8.32007V8.32021Z" fill="url(#paint8_radial_6_481)"/>
<path style="mix-blend-mode:overlay" opacity="0.4" d="M7.68378 8.18053L7.86663 8.11369C8.11828 6.37148 8.90875 4.22026 10.5035 2.56857C10.413 2.57776 10.3226 2.58946 10.232 2.60395C8.66699 4.27735 7.9098 6.43638 7.68378 8.18053Z" fill="url(#paint9_linear_6_481)"/>
<path style="mix-blend-mode:multiply" opacity="0.4" d="M10.71 0.0279476C7.68034 0.230409 4.8549 1.62721 2.85438 3.91149L2.8112 3.9626C3.18666 4.33429 4.41554 5.0717 4.91508 5.37836C5.90644 4.31189 7.14198 3.50214 8.5155 3.0188C8.61328 2.89194 8.71561 2.76865 8.8223 2.64919C10.12 1.18009 11.8917 0.407445 13.9466 0.407445C14.1766 0.407445 14.6426 0.442957 14.6525 0.444907C13.3727 0.0768177 12.0384 -0.0643003 10.7099 0.0279476H10.71Z" fill="url(#paint10_linear_6_481)"/>
<path style="mix-blend-mode:multiply" opacity="0.4" d="M12.0981 20.4505C9.74765 20.6111 7.42854 19.8397 5.64256 18.3033C5.48124 18.2803 5.32061 18.2528 5.16085 18.2207C3.24359 17.8275 1.68619 16.681 0.657854 14.9015C0.544859 14.7049 0.441857 14.5028 0.349243 14.2958C1.00782 16.9059 2.56195 19.2019 4.74046 20.7831C6.91897 22.3644 9.58354 23.1305 12.2692 22.9478C12.2929 22.3717 12.1216 21.0267 12.0981 20.4505Z" fill="url(#paint11_linear_6_481)"/>
<path style="mix-blend-mode:multiply" opacity="0.4" d="M22.9503 10.7111C22.1144 10.716 21.2798 10.7725 20.4511 10.8803C20.5034 11.642 20.4579 12.4072 20.3154 13.1573C20.3756 13.3044 20.4313 13.4532 20.4825 13.6036C21.102 15.4599 20.8758 17.381 19.8572 19.1626C19.746 19.3546 19.6252 19.541 19.4954 19.721C20.6918 18.5608 21.6207 17.1535 22.2175 15.5974C22.8141 14.0414 23.0642 12.3738 22.9503 10.7111Z" fill="url(#paint12_linear_6_481)"/>
<path style="mix-blend-mode:multiply" opacity="0.5" d="M14.0663 2.98929C14.3262 3.01742 14.582 3.0741 14.8294 3.1585L14.8628 3.16824C15.849 3.57083 16.7565 4.14466 17.5429 4.86324C17.8765 4.52237 18.2464 4.21907 18.646 3.95871C17.8595 3.21848 16.8882 2.70366 15.8341 2.4683C14.6484 2.22445 11.9644 1.98644 10.2713 4.86714L10.289 4.8514C10.4117 4.66062 10.5484 4.47926 10.698 4.30882C11.1129 3.83535 11.6353 3.46839 12.2214 3.23877C12.8076 3.00915 13.4403 2.9236 14.0663 2.98929Z" fill="url(#paint13_linear_6_481)"/>
<path style="mix-blend-mode:multiply" opacity="0.5" d="M17.5626 17.973C17.4078 18.1837 17.2304 18.3768 17.0336 18.5491L17.008 18.5727C16.1668 19.229 15.2162 19.7316 14.2001 20.0572C14.3281 20.5167 14.406 20.9888 14.4322 21.4652C15.4662 21.1537 16.3975 20.5694 17.1281 19.7741C17.9382 18.8676 19.4876 16.6633 17.8398 13.755V13.7787C17.944 13.9801 18.0327 14.1891 18.1053 14.404C18.3064 14.999 18.3621 15.6335 18.2677 16.2545C18.1732 16.8753 17.9315 17.4647 17.5626 17.973Z" fill="url(#paint14_linear_6_481)"/>
<path style="mix-blend-mode:multiply" opacity="0.5" d="M2.83863 13.5112C2.73323 13.2721 2.65407 13.0223 2.60257 12.7661V12.7306C2.45881 11.6754 2.50209 10.6031 2.73042 9.56285C2.26597 9.43952 1.81628 9.26609 1.38929 9.04562C1.14201 10.0967 1.18213 11.195 1.50544 12.2252C1.88689 13.3794 3.02148 15.8237 6.36231 15.8493H6.34059C6.11411 15.8375 5.88875 15.8099 5.66613 15.7667C5.04878 15.6443 4.46981 15.3757 3.97783 14.9832C3.48585 14.5908 3.09522 14.086 2.83877 13.5113L2.83863 13.5112Z" fill="url(#paint15_linear_6_481)"/>
<path style="mix-blend-mode:multiply" opacity="0.6" d="M13.5828 7.47263C13.6729 7.48307 13.7636 7.48767 13.8542 7.48655C13.8296 6.88039 13.764 6.27658 13.6576 5.67931C13.5121 5.06794 13.2958 4.66073 13.0677 4.43275C12.8965 4.26758 12.3598 4.063 11.9428 5.32544C11.8779 5.82727 12.0138 6.33442 12.3209 6.73654C12.628 7.13867 13.0816 7.40323 13.5828 7.47263Z" fill="url(#paint16_linear_6_481)"/>
<path style="mix-blend-mode:multiply" opacity="0.5" d="M6.96603 11.6844C6.93066 11.6003 6.88924 11.5189 6.84208 11.4407C6.33102 11.7682 5.84293 12.1302 5.38119 12.5242C4.92301 12.9568 4.67916 13.346 4.59448 13.6666C4.53753 13.8967 4.62791 14.4649 5.92962 14.1955C6.16273 14.0989 6.37449 13.9573 6.55276 13.7787C6.73103 13.6002 6.87233 13.3882 6.96853 13.1549C7.06481 12.9217 7.11412 12.6718 7.1137 12.4194C7.11327 12.1671 7.0631 11.9174 6.96603 11.6844Z" fill="url(#paint17_linear_6_481)"/>
<path style="mix-blend-mode:multiply" opacity="0.6" d="M13.9169 15.3084C13.8609 15.3804 13.8097 15.4559 13.7636 15.5344C14.3025 15.8128 14.8596 16.0546 15.431 16.2581C16.0347 16.437 16.4948 16.4547 16.8075 16.3624C17.0453 16.3014 17.4996 15.9376 16.6069 14.9447C16.305 14.7146 15.9415 14.5792 15.5627 14.5557C15.1838 14.5322 14.8064 14.6216 14.4783 14.8125C14.2605 14.9394 14.0698 15.1079 13.917 15.3084H13.9169Z" fill="url(#paint18_linear_6_481)"/>
<path style="mix-blend-mode:multiply" opacity="0.3" d="M13.5041 10.3591C13.2758 11.127 12.9409 11.8591 12.5092 12.534C12.4855 12.5674 12.466 12.6008 12.4423 12.6362C12.1512 13.0537 11.822 13.4434 11.4591 13.8003C11.7278 14.0874 12.0149 14.3566 12.3184 14.6065C12.6738 14.8867 13.0498 15.1398 13.4432 15.3636C14.2438 14.5376 14.8998 13.5831 15.3841 12.5398C15.558 12.1867 15.7109 11.8236 15.8421 11.4524C15.4722 11.1764 15.0725 10.9429 14.6505 10.7564C14.2777 10.5985 13.8947 10.4658 13.5041 10.3592V10.3591Z" fill="url(#paint19_linear_6_481)"/>
<path style="mix-blend-mode:multiply" opacity="0.3" d="M5.64262 18.3032C7.82129 18.5981 9.9175 17.91 11.345 17.0605C11.17 16.9373 10.997 16.8114 10.8259 16.683C10.2828 16.2673 9.7852 15.7953 9.34136 15.275C8.25788 15.745 6.91481 16.0223 5.66226 15.7646C5.04463 15.6422 4.46542 15.3733 3.97335 14.9804C3.48129 14.5877 3.09076 14.0825 2.83462 13.5073C2.72898 13.2682 2.64986 13.0183 2.59871 12.7621C2.90605 14.9176 3.98816 16.8875 5.64262 18.3032Z" fill="url(#paint20_linear_6_481)"/>
<path style="mix-blend-mode:multiply" opacity="0.3" d="M11.4572 13.8023C10.91 13.2199 10.4467 12.5641 10.0807 11.8537C10.063 11.8162 10.0434 11.7828 10.0257 11.7455C9.81035 11.2845 9.63786 10.8046 9.51041 10.312C9.12806 10.4015 8.75175 10.5152 8.38376 10.6522C7.96428 10.8177 7.55803 11.0149 7.16853 11.2422C7.48301 12.3486 7.98017 13.3947 8.63945 14.3372C8.85726 14.6635 9.09497 14.976 9.35123 15.2731C9.77201 15.092 10.1705 14.8631 10.5389 14.5908C10.8623 14.3488 11.1691 14.0854 11.4572 13.8023Z" fill="url(#paint21_linear_6_481)"/>
<path style="mix-blend-mode:multiply" opacity="0.3" d="M8.50966 3.02284C7.16255 4.76101 6.71411 6.92198 6.73974 8.58369C6.93638 8.49512 7.13302 8.40864 7.32967 8.32215C7.96236 8.05632 8.62154 7.85857 9.29609 7.73223C9.42574 6.56811 9.86234 5.25846 10.7117 4.30283C11.1258 3.83249 11.6463 3.46789 12.2298 3.23943C12.8133 3.01096 13.443 2.92526 14.0663 2.98942C14.326 3.01727 14.582 3.07409 14.8292 3.15849L14.8626 3.16823C12.8363 2.34507 10.5791 2.29059 8.51537 3.01504L8.50938 3.02284H8.50966Z" fill="url(#paint22_linear_6_481)"/>
<path style="mix-blend-mode:multiply" opacity="0.3" d="M20.3115 13.1435C19.4779 11.1085 17.83 9.63754 16.3788 8.81769C16.3601 9.03174 16.3379 9.24545 16.312 9.45872C16.2242 10.1362 16.0653 10.8024 15.838 11.4466C16.782 12.1428 17.6963 13.175 18.1014 14.3961C18.3043 14.9919 18.3614 15.6278 18.2677 16.2501C18.1738 16.8725 17.932 17.4634 17.5626 17.973C17.4091 18.1841 17.2322 18.3774 17.0356 18.5491C18.7483 17.2056 19.9168 15.2877 20.3253 13.1495C20.3242 13.145 20.3242 13.1402 20.3253 13.1356L20.3115 13.1435Z" fill="url(#paint23_linear_6_481)"/>
<path style="mix-blend-mode:multiply" opacity="0.3" d="M9.27446 9.12042C9.32407 9.51815 9.39956 9.91223 9.50049 10.3001C10.2797 10.1134 11.0813 10.0373 11.8818 10.074H12.0036C12.5097 10.1173 13.0107 10.2075 13.5 10.3434C13.6138 9.96743 13.7038 9.58445 13.7694 9.19702C13.8344 8.75627 13.8666 8.3113 13.8657 7.86578C12.7514 7.58303 11.5974 7.49 10.4522 7.59059C10.0596 7.61625 9.66893 7.66549 9.28226 7.73808C9.22671 8.197 9.22409 8.66076 9.27446 9.12028V9.12042Z" fill="url(#paint24_linear_6_481)"/>
<path d="M57.6131 8.53439L56.1344 12.65H56.1462L57.6209 8.55807L57.6131 8.53439Z" fill="url(#paint25_linear_6_481)"/>
<path d="M31.3643 8.53439L29.8857 12.65H29.8916L31.3703 8.55013L31.3643 8.53439Z" fill="url(#paint26_linear_6_481)"/>
<path d="M31.734 9.56287L32.843 12.6501H30.6191L30.0587 14.2074H33.4092L34.361 16.8463H36.4846L32.611 7.13046L31.734 9.56287Z" fill="url(#paint27_linear_6_481)"/>
<path d="M29.8857 12.6499L31.3643 8.53439L31.3703 8.55013L31.9936 6.81781H30.3616L26.3757 16.8462H28.3775L29.8916 12.6501H29.8857V12.6499Z" fill="url(#paint28_linear_6_481)"/>
<path d="M42.9244 11.6807C42.3146 11.3419 41.6681 11.074 40.9974 10.8823C40.6279 10.7683 40.2667 10.6297 39.9159 10.4673C39.7008 10.3728 39.5159 10.2212 39.3811 10.0289C39.2775 9.85559 39.225 9.65651 39.2297 9.45467C39.222 9.27945 39.2592 9.10516 39.3376 8.94829C39.416 8.79141 39.5332 8.65711 39.678 8.55808C40.054 8.32697 40.4917 8.21646 40.9325 8.24139C41.3982 8.24418 41.8612 8.31033 42.309 8.43803C42.7576 8.5558 43.1868 8.73794 43.5831 8.9788L43.8604 7.35469C43.4308 7.10599 42.967 6.92177 42.4839 6.80794C41.9554 6.67518 41.4124 6.60912 40.8676 6.6113C40.2165 6.59585 39.5694 6.71712 38.9682 6.96726C38.4629 7.1784 38.0299 7.53154 37.7215 7.98389C37.4195 8.44614 37.2652 8.98922 37.279 9.54115C37.2672 10.0007 37.3693 10.4561 37.5759 10.8665C37.8032 11.2701 38.1363 11.604 38.5395 11.8321C39.0964 12.151 39.6908 12.3993 40.3091 12.5714C40.7287 12.6901 41.1389 12.84 41.5362 13.0197C41.7764 13.1203 41.986 13.2823 42.1438 13.4896C42.2612 13.6723 42.3208 13.8861 42.3148 14.1032C42.3205 14.2947 42.277 14.4845 42.1881 14.6543C42.0992 14.8241 41.9681 14.9681 41.8075 15.0725C41.3845 15.3276 40.8947 15.4496 40.4016 15.4226C39.8496 15.417 39.301 15.335 38.7715 15.1788C38.2519 15.0355 37.7535 14.8246 37.2889 14.5515L37.1041 16.2269C37.3911 16.4131 37.702 16.5599 38.0283 16.6633C38.4188 16.7902 38.8183 16.8869 39.2237 16.9524C39.6442 17.0228 40.0697 17.0583 40.496 17.0586C41.6837 17.0586 42.6163 16.7878 43.2941 16.2465C43.9718 15.705 44.3106 14.9552 44.3106 13.997C44.3221 13.5328 44.208 13.0743 43.9803 12.6697C43.7175 12.2561 43.3543 11.9158 42.9244 11.6805V11.6807Z" fill="url(#paint29_linear_6_481)"/>
<path d="M53.4544 6.81781H44.9695V8.4539H53.4544V6.81781Z" fill="url(#paint30_linear_6_481)"/>
<path d="M50.2217 9.13812H48.2023V16.8463H50.2217V9.13812Z" fill="url(#paint31_linear_6_481)"/>
<path d="M56.1344 12.6499L57.6131 8.53451L57.6209 8.55819L58.2483 6.81793H56.6083L52.6245 16.8463H54.6302L55.5798 14.2075H55.5839L56.1462 12.6501H56.1344V12.6499Z" fill="url(#paint32_linear_6_481)"/>
<path d="M57.9848 9.57083L59.0899 12.65H56.8737L56.3133 14.2074H59.6581L60.6078 16.8463H62.7334L58.8617 7.13843L57.9848 9.57083Z" fill="url(#paint33_linear_6_481)"/>
<path d="M69.2637 12.7817C69.7396 12.5136 70.1442 12.1353 70.4436 11.6786C70.7571 11.1987 70.9182 10.6353 70.9057 10.0623C70.922 9.45541 70.7665 8.85629 70.4574 8.33384C70.1495 7.84258 69.7045 7.45226 69.1772 7.21108C68.5554 6.93431 67.8796 6.79993 67.1991 6.8178H66.4971V8.33579H66.9337C68.2708 8.33579 68.9394 8.90733 68.9394 10.0504C68.9394 11.1935 68.2492 11.7657 66.8688 11.767H66.4971V13.285H67.5275L69.6473 16.8481H71.9046L69.2637 12.7817Z" fill="url(#paint34_linear_6_481)"/>
<path d="M65.8207 6.81781H63.9073V16.8462H65.8207V6.81781Z" fill="url(#paint35_linear_6_481)"/>
</g>
<defs>
<linearGradient id="paint0_linear_6_481" x1="3.64873" y1="19.3317" x2="18.298" y2="4.68037" gradientUnits="userSpaceOnUse">
<stop stop-color="#E6007A"/>
<stop offset="0.21" stop-color="#703AC2"/>
<stop offset="0.46" stop-color="#0070EB"/>
<stop offset="0.77" stop-color="#0297FB"/>
<stop offset="1" stop-color="#0AE2FF"/>
</linearGradient>
<radialGradient id="paint1_radial_6_481" cx="0" cy="0" r="1" gradientUnits="userSpaceOnUse" gradientTransform="translate(14.7643 9.16371) scale(4.36922)">
<stop stop-color="white"/>
<stop offset="1" stop-color="white" stop-opacity="0"/>
</radialGradient>
<radialGradient id="paint2_radial_6_481" cx="0" cy="0" r="1" gradientUnits="userSpaceOnUse" gradientTransform="translate(8.30683 17.269) scale(2.54249)">
<stop stop-color="white"/>
<stop offset="1" stop-color="white" stop-opacity="0"/>
</radialGradient>
<linearGradient id="paint3_linear_6_481" x1="4.49226" y1="16.8384" x2="6.94221" y2="16.805" gradientUnits="userSpaceOnUse">
<stop stop-color="white" stop-opacity="0"/>
<stop offset="1" stop-color="white"/>
</linearGradient>
<radialGradient id="paint4_radial_6_481" cx="0" cy="0" r="1" gradientUnits="userSpaceOnUse" gradientTransform="translate(7.83791 9.81637) rotate(-120) scale(4.36922)">
<stop stop-color="white"/>
<stop offset="1" stop-color="white" stop-opacity="0"/>
</radialGradient>
<radialGradient id="paint5_radial_6_481" cx="0" cy="0" r="1" gradientUnits="userSpaceOnUse" gradientTransform="translate(18.0859 11.356) rotate(-120) scale(2.54249)">
<stop stop-color="white"/>
<stop offset="1" stop-color="white" stop-opacity="0"/>
</radialGradient>
<linearGradient id="paint6_linear_6_481" x1="19.6197" y1="14.8734" x2="18.3657" y2="12.7682" gradientUnits="userSpaceOnUse">
<stop stop-color="white" stop-opacity="0"/>
<stop offset="1" stop-color="white"/>
</linearGradient>
<radialGradient id="paint7_radial_6_481" cx="0" cy="0" r="1" gradientUnits="userSpaceOnUse" gradientTransform="translate(11.6584 15.2866) rotate(120) scale(4.36922)">
<stop stop-color="white"/>
<stop offset="1" stop-color="white" stop-opacity="0"/>
</radialGradient>
<radialGradient id="paint8_radial_6_481" cx="0" cy="0" r="1" gradientUnits="userSpaceOnUse" gradientTransform="translate(8.07498 5.8449) rotate(120) scale(2.54249)">
<stop stop-color="white"/>
<stop offset="1" stop-color="white" stop-opacity="0"/>
</radialGradient>
<linearGradient id="paint9_linear_6_481" x1="10.3536" y1="2.75575" x2="9.15915" y2="4.89527" gradientUnits="userSpaceOnUse">
<stop stop-color="white" stop-opacity="0"/>
<stop offset="1" stop-color="white"/>
</linearGradient>
<linearGradient id="paint10_linear_6_481" x1="10.8869" y1="1.66793" x2="7.14304" y2="2.75726" gradientUnits="userSpaceOnUse">
<stop stop-color="#231F20"/>
<stop offset="1" stop-color="white"/>
</linearGradient>
<linearGradient id="paint11_linear_6_481" x1="3.81388" y1="15.9438" x2="6.94427" y2="19.2118" gradientUnits="userSpaceOnUse">
<stop stop-color="#231F20"/>
<stop offset="1" stop-color="white"/>
</linearGradient>
<linearGradient id="paint12_linear_6_481" x1="20.6143" y1="15.452" x2="21.7036" y2="12.1406" gradientUnits="userSpaceOnUse">
<stop stop-color="#231F20"/>
<stop offset="1" stop-color="white"/>
</linearGradient>
<linearGradient id="paint13_linear_6_481" x1="12.5916" y1="3.56348" x2="17.6098" y2="4.71186" gradientUnits="userSpaceOnUse">
<stop stop-color="#231F20"/>
<stop offset="1" stop-color="white"/>
</linearGradient>
<linearGradient id="paint14_linear_6_481" x1="17.8038" y1="16.4083" x2="14.2975" y2="20.1807" gradientUnits="userSpaceOnUse">
<stop stop-color="#231F20"/>
<stop offset="1" stop-color="white"/>
</linearGradient>
<linearGradient id="paint15_linear_6_481" x1="4.07182" y1="14.5014" x2="2.55898" y2="9.5804" gradientUnits="userSpaceOnUse">
<stop stop-color="#231F20"/>
<stop offset="1" stop-color="white"/>
</linearGradient>
<linearGradient id="paint16_linear_6_481" x1="13.6889" y1="5.41387" x2="12.1021" y2="7.00275" gradientUnits="userSpaceOnUse">
<stop stop-color="#231F20"/>
<stop offset="1" stop-color="white"/>
</linearGradient>
<linearGradient id="paint17_linear_6_481" x1="5.12745" y1="12.621" x2="7.29609" y2="13.2036" gradientUnits="userSpaceOnUse">
<stop stop-color="#231F20"/>
<stop offset="1" stop-color="white"/>
</linearGradient>
<linearGradient id="paint18_linear_6_481" x1="15.6491" y1="16.4324" x2="15.0682" y2="14.2648" gradientUnits="userSpaceOnUse">
<stop stop-color="#231F20"/>
<stop offset="1" stop-color="white"/>
</linearGradient>
<linearGradient id="paint19_linear_6_481" x1="12.3479" y1="14.5043" x2="13.3016" y2="13.1888" gradientUnits="userSpaceOnUse">
<stop stop-color="#231F20"/>
<stop offset="1" stop-color="white"/>
</linearGradient>
<linearGradient id="paint20_linear_6_481" x1="9.06799" y1="13.934" x2="7.16256" y2="14.8424" gradientUnits="userSpaceOnUse">
<stop stop-color="#231F20"/>
<stop offset="1" stop-color="white"/>
</linearGradient>
<linearGradient id="paint21_linear_6_481" x1="8.37596" y1="10.7623" x2="8.96589" y2="11.9874" gradientUnits="userSpaceOnUse">
<stop stop-color="#231F20"/>
<stop offset="1" stop-color="white"/>
</linearGradient>
<linearGradient id="paint22_linear_6_481" x1="11.1189" y1="6.97908" x2="10.7119" y2="5.5732" gradientUnits="userSpaceOnUse">
<stop stop-color="#231F20"/>
<stop offset="1" stop-color="white"/>
</linearGradient>
<linearGradient id="paint23_linear_6_481" x1="15.5195" y1="13.4189" x2="16.6994" y2="13.6902" gradientUnits="userSpaceOnUse">
<stop stop-color="#231F20"/>
<stop offset="1" stop-color="white"/>
</linearGradient>
<linearGradient id="paint24_linear_6_481" x1="13.6691" y1="9.43307" x2="12.1727" y2="9.16164" gradientUnits="userSpaceOnUse">
<stop stop-color="#231F20"/>
<stop offset="1" stop-color="white"/>
</linearGradient>
<linearGradient id="paint25_linear_6_481" x1="25.3256" y1="17.8137" x2="70.2194" y2="7.53945" gradientUnits="userSpaceOnUse">
<stop stop-color="#E6007A"/>
<stop offset="0.21" stop-color="#703AC2"/>
<stop offset="0.46" stop-color="#0070EB"/>
<stop offset="0.77" stop-color="#0297FB"/>
<stop offset="1" stop-color="#0AE2FF"/>
</linearGradient>
<linearGradient id="paint26_linear_6_481" x1="24.02" y1="12.1053" x2="68.9115" y2="1.83117" gradientUnits="userSpaceOnUse">
<stop stop-color="#E6007A"/>
<stop offset="0.21" stop-color="#703AC2"/>
<stop offset="0.46" stop-color="#0070EB"/>
<stop offset="0.77" stop-color="#0297FB"/>
<stop offset="1" stop-color="#0AE2FF"/>
</linearGradient>
<linearGradient id="paint27_linear_6_481" x1="24.5175" y1="14.2841" x2="69.4112" y2="4.00995" gradientUnits="userSpaceOnUse">
<stop stop-color="#E6007A"/>
<stop offset="0.21" stop-color="#703AC2"/>
<stop offset="0.46" stop-color="#0070EB"/>
<stop offset="0.77" stop-color="#0297FB"/>
<stop offset="1" stop-color="#0AE2FF"/>
</linearGradient>
<linearGradient id="paint28_linear_6_481" x1="24.2265" y1="13.0098" x2="69.1201" y2="2.73566" gradientUnits="userSpaceOnUse">
<stop stop-color="#E6007A"/>
<stop offset="0.21" stop-color="#703AC2"/>
<stop offset="0.46" stop-color="#0070EB"/>
<stop offset="0.77" stop-color="#0297FB"/>
<stop offset="1" stop-color="#0AE2FF"/>
</linearGradient>
<linearGradient id="paint29_linear_6_481" x1="24.7908" y1="15.4796" x2="69.6844" y2="5.20542" gradientUnits="userSpaceOnUse">
<stop stop-color="#E6007A"/>
<stop offset="0.21" stop-color="#703AC2"/>
<stop offset="0.46" stop-color="#0070EB"/>
<stop offset="0.77" stop-color="#0297FB"/>
<stop offset="1" stop-color="#0AE2FF"/>
</linearGradient>
<linearGradient id="paint30_linear_6_481" x1="24.3012" y1="13.3362" x2="69.1949" y2="3.0621" gradientUnits="userSpaceOnUse">
<stop stop-color="#E6007A"/>
<stop offset="0.21" stop-color="#703AC2"/>
<stop offset="0.46" stop-color="#0070EB"/>
<stop offset="0.77" stop-color="#0297FB"/>
<stop offset="1" stop-color="#0AE2FF"/>
</linearGradient>
<linearGradient id="paint31_linear_6_481" x1="25.4674" y1="18.4273" x2="70.359" y2="8.15294" gradientUnits="userSpaceOnUse">
<stop stop-color="#E6007A"/>
<stop offset="0.21" stop-color="#703AC2"/>
<stop offset="0.46" stop-color="#0070EB"/>
<stop offset="0.77" stop-color="#0297FB"/>
<stop offset="1" stop-color="#0AE2FF"/>
</linearGradient>
<linearGradient id="paint32_linear_6_481" x1="25.5321" y1="18.7182" x2="70.4258" y2="8.444" gradientUnits="userSpaceOnUse">
<stop stop-color="#E6007A"/>
<stop offset="0.21" stop-color="#703AC2"/>
<stop offset="0.46" stop-color="#0070EB"/>
<stop offset="0.77" stop-color="#0297FB"/>
<stop offset="1" stop-color="#0AE2FF"/>
</linearGradient>
<linearGradient id="paint33_linear_6_481" x1="25.8251" y1="19.9964" x2="70.7188" y2="9.72221" gradientUnits="userSpaceOnUse">
<stop stop-color="#E6007A"/>
<stop offset="0.21" stop-color="#703AC2"/>
<stop offset="0.46" stop-color="#0070EB"/>
<stop offset="0.77" stop-color="#0297FB"/>
<stop offset="1" stop-color="#0AE2FF"/>
</linearGradient>
<linearGradient id="paint34_linear_6_481" x1="26.2087" y1="21.6716" x2="71.0984" y2="11.3993" gradientUnits="userSpaceOnUse">
<stop stop-color="#E6007A"/>
<stop offset="0.21" stop-color="#703AC2"/>
<stop offset="0.46" stop-color="#0070EB"/>
<stop offset="0.77" stop-color="#0297FB"/>
<stop offset="1" stop-color="#0AE2FF"/>
</linearGradient>
<linearGradient id="paint35_linear_6_481" x1="25.9925" y1="20.7278" x2="70.8859" y2="10.4536" gradientUnits="userSpaceOnUse">
<stop stop-color="#E6007A"/>
<stop offset="0.21" stop-color="#703AC2"/>
<stop offset="0.46" stop-color="#0070EB"/>
<stop offset="0.77" stop-color="#0297FB"/>
<stop offset="1" stop-color="#0AE2FF"/>
</linearGradient>
<clipPath id="clip0_6_481">
<rect width="72" height="23.118" fill="white"/>
</clipPath>
</defs>
</svg>
