<svg width="72" height="15" viewBox="0 0 72 15" fill="none" xmlns="http://www.w3.org/2000/svg">
<g clip-path="url(#clip0_11_174)">
<path d="M6.74687 5.68951C7.25036 5.43776 7.85456 5.43776 8.40841 5.68951L17.0182 9.56644C17.1971 9.64099 17.35 9.76683 17.4575 9.92811C17.565 10.0894 17.6224 10.2789 17.6224 10.4727C17.6224 10.6666 17.565 10.8561 17.4575 11.0173C17.35 11.1786 17.1971 11.3045 17.0182 11.379L11.4294 13.8965C10.9259 14.1483 10.3217 14.1483 9.76785 13.8965L1.10771 10.0196C0.92878 9.94503 0.775926 9.81918 0.668406 9.6579C0.560885 9.49662 0.50351 9.30712 0.50351 9.11329C0.50351 8.91945 0.560885 8.72996 0.668406 8.56867C0.775926 8.40739 0.92878 8.28155 1.10771 8.207L6.74687 5.68951Z" fill="url(#paint0_linear_11_174)"/>
<path fill-rule="evenodd" clip-rule="evenodd" d="M8.60979 5.23637L17.2699 9.11329C18.428 9.66714 18.428 11.3287 17.2699 11.8322L11.6811 14.3497C11.0266 14.6518 10.2713 14.6518 9.61678 14.3497L0.906294 10.5231C-0.302098 10.0196 -0.302098 8.3077 0.906294 7.8042L6.54545 5.23637C7.2 4.93427 7.95524 4.93427 8.60979 5.23637ZM8.40839 5.68952C7.90489 5.43777 7.3007 5.43777 6.74685 5.68952L1.10769 8.207C0.928767 8.28155 0.775913 8.4074 0.668393 8.56868C0.560872 8.72996 0.503497 8.91946 0.503497 9.11329C0.503497 9.30713 0.560872 9.49663 0.668393 9.65791C0.775913 9.81919 0.928767 9.94503 1.10769 10.0196L9.86853 13.8965C10.372 14.1483 10.9762 14.1483 11.5301 13.8965L17.1189 11.379C17.2978 11.3045 17.4507 11.1786 17.5582 11.0173C17.6657 10.8561 17.7231 10.6666 17.7231 10.4727C17.7231 10.2789 17.6657 10.0894 17.5582 9.92812C17.4507 9.76684 17.2978 9.64099 17.1189 9.56644L8.40839 5.68952Z" fill="white"/>
<path d="M6.74687 0.65454C7.25036 0.402792 7.85456 0.402792 8.4084 0.65454L17.0685 4.53146C17.2475 4.60601 17.4003 4.73186 17.5078 4.89314C17.6154 5.05442 17.6727 5.24392 17.6727 5.43776C17.6727 5.63159 17.6154 5.82109 17.5078 5.98237C17.4003 6.14365 17.2475 6.2695 17.0685 6.34405L11.4797 8.86153C10.9762 9.11328 10.372 9.11328 9.81819 8.86153L1.10771 5.03496C0.92878 4.96041 0.775926 4.83456 0.668406 4.67328C0.560885 4.512 0.50351 4.3225 0.50351 4.12867C0.50351 3.93483 0.560885 3.74533 0.668406 3.58405C0.775926 3.42277 0.92878 3.29692 1.10771 3.22237L6.74687 0.65454Z" fill="url(#paint1_linear_11_174)"/>
<path fill-rule="evenodd" clip-rule="evenodd" d="M8.60979 0.201398L17.2699 4.07832C18.428 4.63217 18.428 6.29371 17.2699 6.7972L11.6811 9.31468C11.0266 9.61678 10.2713 9.61678 9.61678 9.31468L0.906294 5.48811C-0.302098 4.98461 -0.302098 3.27273 0.906294 2.76923L6.54545 0.201398C7.21053 -0.0503888 7.94471 -0.0503888 8.60979 0.201398ZM8.40839 0.654545C7.90489 0.402797 7.3007 0.402797 6.74685 0.654545L1.10769 3.22238C0.928767 3.29693 0.775913 3.42278 0.668393 3.58406C0.560872 3.74534 0.503497 3.93484 0.503497 4.12867C0.503497 4.32251 0.560872 4.51201 0.668393 4.67329C0.775913 4.83457 0.928767 4.96041 1.10769 5.03497L9.86853 8.91189C10.372 9.16364 10.9762 9.16364 11.5301 8.91189L17.1189 6.39441C17.2978 6.31985 17.4507 6.19401 17.5582 6.03273C17.6657 5.87145 17.7231 5.68195 17.7231 5.48811C17.7231 5.29428 17.6657 5.10478 17.5582 4.9435C17.4507 4.78222 17.2978 4.65637 17.1189 4.58182L8.40839 0.654545Z" fill="white"/>
<path d="M23.1608 12.4364V2.76923H26.786C27.5412 2.76923 28.1958 2.92028 28.6993 3.17203C29.2028 3.42378 29.6056 3.77623 29.8573 4.22937C30.1091 4.68252 30.2098 5.18602 30.2098 5.73986C30.2098 6.29371 30.1091 6.74686 29.8573 7.2C29.6056 7.65315 29.2531 8.0056 28.7496 8.25735C28.2461 8.5091 27.5916 8.66014 26.786 8.66014H24.9734V12.386H23.1608V12.4364ZM24.9231 7.25035H26.635C27.2392 7.25035 27.6923 7.09931 27.9944 6.84756C28.2965 6.59581 28.3972 6.19301 28.3972 5.73986C28.3972 5.28672 28.2461 4.88392 27.9944 4.63217C27.7426 4.38042 27.2895 4.22937 26.635 4.22937H24.9231V7.25035ZM33.7846 12.5874C33.1804 12.5874 32.7273 12.4867 32.3245 12.3357C31.9217 12.1343 31.6699 11.8825 31.4685 11.5804C31.2671 11.2783 31.1664 10.9259 31.1664 10.5734C31.1664 9.91889 31.4182 9.41539 31.9217 9.01259C32.4252 8.60979 33.1804 8.4084 34.1874 8.4084H35.9496V8.25735C35.9496 7.8042 35.7986 7.45175 35.5468 7.25035C35.2606 7.02263 34.9057 6.89842 34.5398 6.89791C34.1874 6.89791 33.8853 6.99861 33.5832 7.14965C33.3315 7.3007 33.1301 7.55245 33.0797 7.9049H31.3175C31.3678 7.4014 31.5189 6.99861 31.821 6.59581C32.1231 6.24336 32.4755 5.94126 32.979 5.73986C33.4322 5.53847 33.986 5.43777 34.5398 5.43777C35.5468 5.43777 36.3021 5.68951 36.8559 6.14266C37.4098 6.64616 37.7119 7.3007 37.7119 8.207V12.386H36.2014L36.0503 11.2783C35.8489 11.6308 35.5468 11.9329 35.1944 12.1846C34.8419 12.4867 34.3888 12.5874 33.7846 12.5874ZM34.1874 11.228C34.6909 11.228 35.0937 11.0769 35.3958 10.7245C35.6979 10.372 35.8489 9.96923 35.9496 9.51609H34.4392C33.986 9.51609 33.6336 9.61679 33.4322 9.76784C33.2308 9.91889 33.1301 10.1203 33.1301 10.372C33.1301 10.6238 33.2308 10.8252 33.4322 10.9762C33.5832 11.1273 33.8853 11.228 34.1874 11.228ZM39.7259 12.4364V5.58882H41.3371L41.4881 6.84756C41.7399 6.39441 42.0923 6.04196 42.4951 5.79021C42.9482 5.53847 43.4517 5.38742 44.0056 5.38742V7.25035H43.5021C43.0993 7.25035 42.7468 7.3007 42.4447 7.45175C42.1426 7.55245 41.8909 7.75385 41.7399 8.05595C41.5888 8.35805 41.4881 8.76084 41.4881 9.26434V12.386H39.7259V12.4364ZM47.9329 12.5874C47.3287 12.5874 46.8755 12.4867 46.4727 12.3357C46.0699 12.1343 45.8182 11.8825 45.6168 11.5804C45.4154 11.2783 45.3147 10.9259 45.3147 10.5734C45.3147 9.91889 45.5664 9.41539 46.0699 9.01259C46.5734 8.60979 47.3287 8.4084 48.3357 8.4084H50.0979V8.25735C50.0979 7.8042 49.9468 7.45175 49.6951 7.25035C49.4088 7.02263 49.0539 6.89842 48.6881 6.89791C48.3357 6.89791 48.0336 6.99861 47.7315 7.14965C47.4797 7.3007 47.2783 7.55245 47.228 7.9049H45.4657C45.5161 7.4014 45.6671 6.99861 45.9692 6.59581C46.2713 6.24336 46.6238 5.94126 47.1273 5.73986C47.5804 5.53847 48.1343 5.43777 48.6881 5.43777C49.6951 5.43777 50.4503 5.68951 51.0042 6.14266C51.558 6.64616 51.8601 7.3007 51.8601 8.207V12.386H50.3496L50.1986 11.2783C49.9972 11.6308 49.6951 11.9329 49.3426 12.1846C48.9398 12.4867 48.4867 12.5874 47.9329 12.5874ZM48.3357 11.228C48.8392 11.228 49.2419 11.0769 49.544 10.7245C49.8461 10.372 49.9972 9.96923 50.0979 9.51609H48.5874C48.1343 9.51609 47.7818 9.61679 47.5804 9.76784C47.379 9.91889 47.2783 10.1203 47.2783 10.372C47.2783 10.6238 47.379 10.8252 47.5804 10.9762C47.7315 11.1273 47.9832 11.228 48.3357 11.228ZM53.8741 12.4364V2.51749H55.6364V12.4364H53.8741ZM57.751 12.4364V2.51749H59.5133V12.4364H57.751ZM64.951 12.5874C64.2461 12.5874 63.6419 12.4364 63.0881 12.1343C62.5343 11.8322 62.1315 11.4294 61.8294 10.8755C61.5273 10.3217 61.3762 9.71749 61.3762 9.01259C61.3762 8.3077 61.5273 7.65315 61.8294 7.14965C62.1315 6.59581 62.5343 6.19301 63.0881 5.89091C63.6419 5.58882 64.2461 5.43777 65.0014 5.43777C65.6559 5.43777 66.2601 5.58882 66.814 5.89091C67.3175 6.19301 67.7203 6.59581 68.0224 7.09931C68.3245 7.6028 68.4755 8.15665 68.4755 8.81119V9.11329V9.46574H63.2392C63.2895 10.0196 63.4405 10.4224 63.793 10.7245C64.1454 11.0266 64.5482 11.1776 65.0517 11.1776C65.4042 11.1776 65.7063 11.0769 65.958 10.9259C66.2098 10.7748 66.4112 10.5734 66.5119 10.2713H68.3245C68.1734 10.7245 67.972 11.0769 67.6699 11.4294C67.3678 11.7818 67.0154 12.0336 66.5622 12.235C66.0582 12.4712 65.5077 12.5916 64.951 12.5874ZM65.0014 6.84756C64.5482 6.84756 64.1958 6.94826 63.8433 7.2C63.4909 7.45175 63.2895 7.8042 63.1888 8.3077H66.6126C66.5622 7.85455 66.4112 7.5021 66.1091 7.25035C65.807 6.99861 65.4545 6.84756 65.0014 6.84756ZM70.2378 12.4364V2.51749H72V12.4364H70.2378Z" fill="#222222"/>
</g>
<defs>
<linearGradient id="paint0_linear_11_174" x1="17.6254" y1="9.79855" x2="0.499482" y2="9.79855" gradientUnits="userSpaceOnUse">
<stop stop-color="#EF18AC"/>
<stop offset="1" stop-color="#FAD972"/>
</linearGradient>
<linearGradient id="paint1_linear_11_174" x1="17.6259" y1="4.80285" x2="0.499985" y2="4.80285" gradientUnits="userSpaceOnUse">
<stop stop-color="#5314F1"/>
<stop offset="1" stop-color="#04E2FF"/>
</linearGradient>
<clipPath id="clip0_11_174">
<rect width="72" height="14.6014" fill="white"/>
</clipPath>
</defs>
</svg>
