<svg width="41" height="56" viewBox="0 0 41 56" fill="none" xmlns="http://www.w3.org/2000/svg">
<path d="M0 48.4296V44.0597H1.5708C1.91221 44.0597 2.19553 44.1181 2.42075 44.2347C2.64741 44.3514 2.81668 44.5128 2.92857 44.7191C3.04046 44.9239 3.09641 45.1607 3.09641 45.4296C3.09641 45.697 3.03975 45.9324 2.92642 46.1358C2.81453 46.3378 2.64525 46.495 2.4186 46.6074C2.19338 46.7198 1.91006 46.776 1.56865 46.776H0.378713V46.2084H1.5084C1.72357 46.2084 1.89859 46.1778 2.03343 46.1166C2.16971 46.0555 2.26941 45.9666 2.33253 45.8499C2.39565 45.7333 2.42721 45.5932 2.42721 45.4296C2.42721 45.2646 2.39493 45.1216 2.33038 45.0007C2.26726 44.8798 2.16756 44.7873 2.03128 44.7233C1.89643 44.6579 1.71927 44.6252 1.49979 44.6252H0.6649V48.4296H0ZM2.17545 46.458L3.26425 48.4296H2.50682L1.43954 46.458H2.17545Z" fill="black"/>
<path d="M7.73349 46.2447C7.73349 46.7112 7.64742 47.1124 7.47528 47.4481C7.30314 47.7824 7.06716 48.0398 6.76735 48.2205C6.46897 48.3997 6.1297 48.4893 5.74955 48.4893C5.36797 48.4893 5.02727 48.3997 4.72746 48.2205C4.42908 48.0398 4.19382 47.7816 4.02168 47.4459C3.84953 47.1102 3.76346 46.7098 3.76346 46.2447C3.76346 45.7781 3.84953 45.3777 4.02168 45.0434C4.19382 44.7077 4.42908 44.4502 4.72746 44.271C5.02727 44.0903 5.36797 44 5.74955 44C6.1297 44 6.46897 44.0903 6.76735 44.271C7.06716 44.4502 7.30314 44.7077 7.47528 45.0434C7.64742 45.3777 7.73349 45.7781 7.73349 46.2447ZM7.07505 46.2447C7.07505 45.889 7.01695 45.5896 6.90076 45.3464C6.78599 45.1017 6.6282 44.9168 6.42736 44.7916C6.22797 44.665 6.00203 44.6017 5.74955 44.6017C5.49564 44.6017 5.26899 44.665 5.06959 44.7916C4.87019 44.9168 4.7124 45.1017 4.5962 45.3464C4.48144 45.5896 4.42406 45.889 4.42406 46.2447C4.42406 46.6003 4.48144 46.9004 4.5962 47.1451C4.7124 47.3883 4.87019 47.5733 5.06959 47.6999C5.26899 47.825 5.49564 47.8876 5.74955 47.8876C6.00203 47.8876 6.22797 47.825 6.42736 47.6999C6.6282 47.5733 6.78599 47.3883 6.90076 47.1451C7.01695 46.9004 7.07505 46.6003 7.07505 46.2447Z" fill="black"/>
<path d="M8.56247 48.4296V44.0597H10.1763C10.489 44.0597 10.748 44.111 10.9531 44.2134C11.1582 44.3144 11.3117 44.4516 11.4136 44.6252C11.5154 44.7973 11.5664 44.9915 11.5664 45.2077C11.5664 45.3898 11.5326 45.5434 11.4652 45.6686C11.3978 45.7923 11.3074 45.8919 11.1941 45.9673C11.0822 46.0413 10.9588 46.0953 10.824 46.1294V46.1721C10.9703 46.1792 11.113 46.2262 11.2522 46.3129C11.3928 46.3983 11.509 46.5199 11.6008 46.6778C11.6926 46.8357 11.7385 47.0277 11.7385 47.2539C11.7385 47.4772 11.6854 47.6778 11.5793 47.8556C11.4745 48.032 11.3124 48.1721 11.093 48.276C10.8735 48.3784 10.593 48.4296 10.2516 48.4296H8.56247ZM9.22737 47.8642H10.1871C10.5055 47.8642 10.7336 47.803 10.8713 47.6807C11.009 47.5583 11.0779 47.4054 11.0779 47.2219C11.0779 47.0839 11.0428 46.9573 10.9725 46.8421C10.9022 46.7269 10.8018 46.6351 10.6712 46.5669C10.5421 46.4986 10.3886 46.4644 10.2107 46.4644H9.22737V47.8642ZM9.22737 45.9502H10.1182C10.2674 45.9502 10.4015 45.9218 10.5206 45.8649C10.6411 45.808 10.7365 45.7283 10.8068 45.6259C10.8785 45.522 10.9144 45.3997 10.9144 45.2589C10.9144 45.0782 10.8505 44.9267 10.7229 44.8044C10.5952 44.6821 10.3994 44.6209 10.1354 44.6209H9.22737V45.9502Z" fill="black"/>
<path d="M16.3551 46.2447C16.3551 46.7112 16.2691 47.1124 16.0969 47.4481C15.9248 47.7824 15.6888 48.0398 15.389 48.2205C15.0906 48.3997 14.7513 48.4893 14.3712 48.4893C13.9896 48.4893 13.6489 48.3997 13.3491 48.2205C13.0507 48.0398 12.8155 47.7816 12.6433 47.4459C12.4712 47.1102 12.3851 46.7098 12.3851 46.2447C12.3851 45.7781 12.4712 45.3777 12.6433 45.0434C12.8155 44.7077 13.0507 44.4502 13.3491 44.271C13.6489 44.0903 13.9896 44 14.3712 44C14.7513 44 15.0906 44.0903 15.389 44.271C15.6888 44.4502 15.9248 44.7077 16.0969 45.0434C16.2691 45.3777 16.3551 45.7781 16.3551 46.2447ZM15.6967 46.2447C15.6967 45.889 15.6386 45.5896 15.5224 45.3464C15.4076 45.1017 15.2498 44.9168 15.049 44.7916C14.8496 44.665 14.6237 44.6017 14.3712 44.6017C14.1173 44.6017 13.8906 44.665 13.6912 44.7916C13.4918 44.9168 13.334 45.1017 13.2178 45.3464C13.1031 45.5896 13.0457 45.889 13.0457 46.2447C13.0457 46.6003 13.1031 46.9004 13.2178 47.1451C13.334 47.3883 13.4918 47.5733 13.6912 47.6999C13.8906 47.825 14.1173 47.8876 14.3712 47.8876C14.6237 47.8876 14.8496 47.825 15.049 47.6999C15.2498 47.5733 15.4076 47.3883 15.5224 47.1451C15.6386 46.9004 15.6967 46.6003 15.6967 46.2447Z" fill="black"/>
<path d="M20.741 44.0597V48.4296H20.1299L17.8899 45.2248H17.849V48.4296H17.1841V44.0597H17.7995L20.0417 47.2688H20.0826V44.0597H20.741Z" fill="black"/>
<path d="M25.5389 46.2447C25.5389 46.7112 25.4529 47.1124 25.2807 47.4481C25.1086 47.7824 24.8726 48.0398 24.5728 48.2205C24.2744 48.3997 23.9351 48.4893 23.555 48.4893C23.1734 48.4893 22.8327 48.3997 22.5329 48.2205C22.2345 48.0398 21.9993 47.7816 21.8271 47.4459C21.655 47.1102 21.5689 46.7098 21.5689 46.2447C21.5689 45.7781 21.655 45.3777 21.8271 45.0434C21.9993 44.7077 22.2345 44.4502 22.5329 44.271C22.8327 44.0903 23.1734 44 23.555 44C23.9351 44 24.2744 44.0903 24.5728 44.271C24.8726 44.4502 25.1086 44.7077 25.2807 45.0434C25.4529 45.3777 25.5389 45.7781 25.5389 46.2447ZM24.8805 46.2447C24.8805 45.889 24.8224 45.5896 24.7062 45.3464C24.5914 45.1017 24.4336 44.9168 24.2328 44.7916C24.0334 44.665 23.8075 44.6017 23.555 44.6017C23.3011 44.6017 23.0744 44.665 22.875 44.7916C22.6756 44.9168 22.5178 45.1017 22.4016 45.3464C22.2869 45.5896 22.2295 45.889 22.2295 46.2447C22.2295 46.6003 22.2869 46.9004 22.4016 47.1451C22.5178 47.3883 22.6756 47.5733 22.875 47.6999C23.0744 47.825 23.3011 47.8876 23.555 47.8876C23.8075 47.8876 24.0334 47.825 24.2328 47.6999C24.4336 47.5733 24.5914 47.3883 24.7062 47.1451C24.8224 46.9004 24.8805 46.6003 24.8805 46.2447Z" fill="black"/>
<path d="M26.3679 44.0597H27.1748L28.5778 47.4566H28.6294L30.0324 44.0597H30.8393V48.4296H30.2067V45.2674H30.1658L28.8661 48.4232H28.3411L27.0414 45.2653H27.0005V48.4296H26.3679V44.0597Z" fill="black"/>
<path d="M32.4709 44.0597V48.4296H31.806V44.0597H32.4709Z" fill="black"/>
<path d="M37.0994 45.4808H36.428C36.4022 45.3385 36.3541 45.2134 36.2838 45.1053C36.2135 44.9972 36.1275 44.9054 36.0256 44.83C35.9238 44.7546 35.8097 44.6977 35.6835 44.6593C35.5587 44.6209 35.426 44.6017 35.2854 44.6017C35.0315 44.6017 34.8041 44.665 34.6033 44.7916C34.4039 44.9182 34.2461 45.1038 34.1299 45.3485C34.0151 45.5932 33.9578 45.8919 33.9578 46.2447C33.9578 46.6003 34.0151 46.9004 34.1299 47.1451C34.2461 47.3898 34.4046 47.5747 34.6054 47.6999C34.8063 47.825 35.0322 47.8876 35.2833 47.8876C35.4224 47.8876 35.5544 47.8691 35.6792 47.8321C35.8054 47.7937 35.9195 47.7376 36.0213 47.6636C36.1232 47.5896 36.2092 47.4993 36.2795 47.3926C36.3513 47.2845 36.4007 47.1607 36.428 47.0213L37.0994 47.0235C37.0635 47.2383 36.9939 47.436 36.8906 47.6166C36.7888 47.7959 36.6575 47.9509 36.4969 48.0818C36.3376 48.2112 36.1554 48.3115 35.9503 48.3826C35.7452 48.4538 35.5214 48.4893 35.279 48.4893C34.8974 48.4893 34.5574 48.3997 34.259 48.2205C33.9606 48.0398 33.7254 47.7816 33.5532 47.4459C33.3825 47.1102 33.2972 46.7098 33.2972 46.2447C33.2972 45.7781 33.3832 45.3777 33.5554 45.0434C33.7275 44.7077 33.9628 44.4502 34.2612 44.271C34.5595 44.0903 34.8988 44 35.279 44C35.5128 44 35.7308 44.0334 35.9331 44.1003C36.1368 44.1657 36.3197 44.2624 36.4818 44.3905C36.6439 44.5171 36.778 44.6721 36.8842 44.8556C36.9903 45.0377 37.0621 45.2461 37.0994 45.4808Z" fill="black"/>
<path d="M40.2985 45.2077C40.2756 45.0057 40.1809 44.8492 40.0145 44.7383C39.8481 44.6259 39.6386 44.5697 39.3862 44.5697C39.2054 44.5697 39.0491 44.5982 38.9171 44.655C38.7851 44.7105 38.6825 44.7873 38.6094 44.8855C38.5376 44.9822 38.5018 45.0925 38.5018 45.2162C38.5018 45.3201 38.5262 45.4097 38.5749 45.4851C38.6251 45.5605 38.6904 45.6238 38.7708 45.675C38.8525 45.7248 38.94 45.7667 39.0333 45.8009C39.1265 45.8336 39.2162 45.8606 39.3022 45.8819L39.7326 45.9929C39.8732 46.027 40.0173 46.0733 40.1651 46.1316C40.3129 46.1899 40.4499 46.2667 40.5761 46.362C40.7023 46.4573 40.8042 46.5754 40.8816 46.7162C40.9605 46.857 41 47.0256 41 47.2219C41 47.4694 40.9354 47.6892 40.8063 47.8812C40.6787 48.0733 40.4929 48.2248 40.249 48.3357C40.0066 48.4467 39.7132 48.5021 39.3689 48.5021C39.039 48.5021 38.7535 48.4502 38.5125 48.3464C38.2715 48.2425 38.0829 48.0953 37.9466 47.9047C37.8103 47.7127 37.735 47.4851 37.7207 47.2219H38.3877C38.4007 47.3798 38.4523 47.5114 38.5427 47.6166C38.6345 47.7205 38.7514 47.798 38.8934 47.8492C39.0369 47.899 39.1939 47.9239 39.3646 47.9239C39.5526 47.9239 39.7197 47.8947 39.866 47.8364C40.0138 47.7767 40.13 47.6942 40.2146 47.5889C40.2992 47.4822 40.3416 47.3578 40.3416 47.2155C40.3416 47.0861 40.3043 46.9801 40.2297 46.8976C40.1565 46.8151 40.0568 46.7468 39.9306 46.6927C39.8058 46.6387 39.6645 46.591 39.5067 46.5498L38.9859 46.409C38.633 46.3137 38.3533 46.1735 38.1467 45.9886C37.9416 45.8037 37.839 45.559 37.839 45.2546C37.839 45.0028 37.9079 44.7831 38.0456 44.5953C38.1833 44.4075 38.3698 44.2617 38.6051 44.1579C38.8403 44.0526 39.1057 44 39.4012 44C39.6996 44 39.9628 44.0519 40.1909 44.1558C40.4205 44.2596 40.6012 44.4026 40.7332 44.5846C40.8652 44.7653 40.934 44.973 40.9398 45.2077H40.2985Z" fill="black"/>
<path d="M9.24646 51.5704V55.9403H8.63536L6.39536 52.7354H6.35447V55.9403H5.68957V51.5704H6.30498L8.54714 54.7795H8.58802V51.5704H9.24646Z" fill="black"/>
<path d="M10.2164 55.9403V51.5704H12.9793V52.138H10.8813V53.4694H12.8351V54.0349H10.8813V55.3727H13.0051V55.9403H10.2164Z" fill="black"/>
<path d="M13.6501 52.138V51.5704H17.0606V52.138H15.6857V55.9403H15.0229V52.138H13.6501Z" fill="black"/>
<path d="M18.6772 55.9403L17.455 51.5704H18.1543L19.0129 54.9545H19.0537L19.9467 51.5704H20.6396L21.5326 54.9566H21.5735L22.4299 51.5704H23.1314L21.907 55.9403H21.2378L20.3104 52.6671H20.2759L19.3485 55.9403H18.6772Z" fill="black"/>
<path d="M27.3467 53.7553C27.3467 54.2219 27.2606 54.623 27.0885 54.9587C26.9163 55.293 26.6804 55.5505 26.3805 55.7312C26.0822 55.9104 25.7429 56 25.3628 56C24.9812 56 24.6405 55.9104 24.3407 55.7312C24.0423 55.5505 23.807 55.2923 23.6349 54.9566C23.4627 54.6209 23.3767 54.2205 23.3767 53.7553C23.3767 53.2888 23.4627 52.8883 23.6349 52.5541C23.807 52.2183 24.0423 51.9609 24.3407 51.7817C24.6405 51.601 24.9812 51.5107 25.3628 51.5107C25.7429 51.5107 26.0822 51.601 26.3805 51.7817C26.6804 51.9609 26.9163 52.2183 27.0885 52.5541C27.2606 52.8883 27.3467 53.2888 27.3467 53.7553ZM26.6882 53.7553C26.6882 53.3997 26.6301 53.1003 26.514 52.857C26.3992 52.6124 26.2414 52.4275 26.0406 52.3023C25.8412 52.1757 25.6152 52.1124 25.3628 52.1124C25.1088 52.1124 24.8822 52.1757 24.6828 52.3023C24.4834 52.4275 24.3256 52.6124 24.2094 52.857C24.0946 53.1003 24.0373 53.3997 24.0373 53.7553C24.0373 54.111 24.0946 54.4111 24.2094 54.6558C24.3256 54.899 24.4834 55.0839 24.6828 55.2105C24.8822 55.3357 25.1088 55.3983 25.3628 55.3983C25.6152 55.3983 25.8412 55.3357 26.0406 55.2105C26.2414 55.0839 26.3992 54.899 26.514 54.6558C26.6301 54.4111 26.6882 54.111 26.6882 53.7553Z" fill="black"/>
<path d="M28.1757 55.9403V51.5704H29.7465C30.0879 51.5704 30.3712 51.6287 30.5964 51.7454C30.8231 51.862 30.9923 52.0235 31.1042 52.2297C31.2161 52.4346 31.2721 52.6714 31.2721 52.9403C31.2721 53.2077 31.2154 53.4431 31.1021 53.6465C30.9902 53.8485 30.8209 54.0057 30.5943 54.1181C30.369 54.2304 30.0857 54.2866 29.7443 54.2866H28.5544V53.7191H29.6841C29.8992 53.7191 30.0743 53.6885 30.2091 53.6273C30.3454 53.5661 30.4451 53.4772 30.5082 53.3606C30.5713 53.244 30.6029 53.1038 30.6029 52.9403C30.6029 52.7752 30.5706 52.6323 30.506 52.5114C30.4429 52.3905 30.3432 52.298 30.2069 52.234C30.0721 52.1686 29.8949 52.1358 29.6755 52.1358H28.8406V55.9403H28.1757ZM30.3511 53.9687L31.4399 55.9403H30.6825L29.6152 53.9687H30.3511Z" fill="black"/>
<path d="M32.0811 55.9403V51.5704H32.746V53.6572H32.7998L34.6482 51.5704H35.4853L33.7079 53.5377L35.4917 55.9403H34.6912L33.2668 53.9879L32.746 54.5811V55.9403H32.0811Z" fill="black"/>
<g clip-path="url(#clip0_102_51)">
<path d="M21.272 1.211L2.3 34.071H40.247L21.272 1.211Z" stroke="#201600" stroke-width="0.4" stroke-miterlimit="10"/>
<path d="M39.087 32.636C39.3257 32.5222 39.5927 32.4817 39.8544 32.5197C40.116 32.5576 40.3606 32.6723 40.5571 32.8492C40.7535 33.0261 40.8932 33.2573 40.9583 33.5136C41.0234 33.7698 41.0111 34.0396 40.9229 34.2889C40.8347 34.5381 40.6745 34.7556 40.4627 34.9139C40.2509 35.0721 39.9969 35.164 39.7329 35.178C39.4689 35.1919 39.2066 35.1272 38.9794 34.9921C38.7521 34.857 38.5699 34.6576 38.456 34.419C38.3803 34.2605 38.3366 34.0886 38.3273 33.9132C38.3181 33.7378 38.3435 33.5623 38.4021 33.3968C38.4607 33.2312 38.5513 33.0788 38.6688 32.9482C38.7864 32.8177 38.9285 32.7116 39.087 32.636Z" fill="#201600"/>
<path d="M21.3 0C21.5644 0 21.8229 0.0784137 22.0428 0.225325C22.2627 0.372237 22.434 0.581047 22.5352 0.825352C22.6364 1.06966 22.6629 1.33848 22.6113 1.59784C22.5597 1.85719 22.4324 2.09542 22.2454 2.2824C22.0584 2.46938 21.8202 2.59672 21.5608 2.64831C21.3015 2.6999 21.0327 2.67342 20.7884 2.57223C20.544 2.47103 20.3352 2.29967 20.1883 2.0798C20.0414 1.85993 19.963 1.60143 19.963 1.337C19.9633 0.982487 20.1042 0.64257 20.3549 0.391891C20.6056 0.141212 20.9455 0.000264859 21.3 0" fill="#201600"/>
<path d="M2.337 32.523C2.60143 32.523 2.85993 32.6014 3.0798 32.7483C3.29967 32.8952 3.47103 33.104 3.57223 33.3484C3.67342 33.5927 3.6999 33.8615 3.64831 34.1208C3.59672 34.3802 3.46938 34.6184 3.2824 34.8054C3.09542 34.9924 2.85719 35.1197 2.59784 35.1713C2.33848 35.2229 2.06966 35.1964 1.82535 35.0952C1.58105 34.994 1.37224 34.8227 1.22533 34.6028C1.07841 34.3829 1 34.1244 1 33.86C1.00026 33.5055 1.14121 33.1656 1.39189 32.9149C1.64257 32.6642 1.98249 32.5233 2.337 32.523Z" fill="#201600"/>
<path d="M13.182 28.232H29.706L21.444 23.872L13.182 28.232Z" fill="black"/>
<path d="M21.118 13.176L12.718 27.74L21.14 23.306L21.118 13.176Z" fill="black"/>
<path d="M30.169 27.723L21.781 13.193L21.85 23.249L30.169 27.723Z" fill="black"/>
</g>
<defs>
<clipPath id="clip0_102_51">
<rect width="40" height="35.196" fill="white" transform="translate(1)"/>
</clipPath>
</defs>
</svg>
