<svg width="15" height="21" viewBox="0 0 15 21" fill="none" xmlns="http://www.w3.org/2000/svg">
<g filter="url(#filter0_d_41_1951)">
<path fill-rule="evenodd" clip-rule="evenodd" d="M4 0H2C0.89543 0 0 0.89543 0 2V18C0 19.1046 0.89543 20 2 20H4C5.10457 20 6 19.1046 6 18V2C6 0.89543 5.10457 0 4 0ZM12 0H10C8.89543 0 8 0.89543 8 2V18C8 19.1046 8.89543 20 10 20H12C13.1046 20 14 19.1046 14 18V2C14 0.89543 13.1046 0 12 0ZM2 2V18H4V2H2ZM10 18V2H12V18H10Z" fill="#333333"/>
</g>
<defs>
<filter id="filter0_d_41_1951" x="0" y="0" width="15" height="21" filterUnits="userSpaceOnUse" color-interpolation-filters="sRGB">
<feFlood flood-opacity="0" result="BackgroundImageFix"/>
<feColorMatrix in="SourceAlpha" type="matrix" values="0 0 0 0 0 0 0 0 0 0 0 0 0 0 0 0 0 0 127 0" result="hardAlpha"/>
<feOffset dx="1" dy="1"/>
<feComposite in2="hardAlpha" operator="out"/>
<feColorMatrix type="matrix" values="0 0 0 0 0 0 0 0 0 1 0 0 0 0 0.22 0 0 0 1 0"/>
<feBlend mode="normal" in2="BackgroundImageFix" result="effect1_dropShadow_41_1951"/>
<feBlend mode="normal" in="SourceGraphic" in2="effect1_dropShadow_41_1951" result="shape"/>
</filter>
</defs>
</svg>
