<svg width="13" height="14" viewBox="0 0 13 14" fill="none" xmlns="http://www.w3.org/2000/svg">
<path d="M6.57178 3.73755C4.87073 3.73755 3.20822 3.4856 1.62664 3L0.379883 7.0433L0.865002 7.17723L1.3506 7.30971C1.3506 7.30971 1.70854 7.0356 2.01012 6.49315C2.24617 6.06825 2.64458 5.33021 2.68263 5.25939C2.99143 5.32491 3.30312 5.38272 3.61771 5.43234C3.63216 5.5364 3.74489 6.34622 3.81619 6.81833C3.90916 7.43207 4.14907 7.8141 4.14907 7.8141L4.65009 7.85938L5.15111 7.90322C5.15111 7.90322 5.45461 7.56985 5.65501 6.98212C5.80676 6.53699 6.05486 5.77775 6.09389 5.65876C6.25286 5.66262 6.41232 5.66454 6.57178 5.66454C6.73124 5.66454 6.8907 5.66262 7.04967 5.65876C7.08869 5.77824 7.33679 6.53747 7.48854 6.98212C7.68895 7.56985 7.99245 7.90322 7.99245 7.90322L8.49347 7.85938L8.99448 7.8141C8.99448 7.8141 9.2344 7.43255 9.32737 6.81833C9.39915 6.34622 9.5114 5.5364 9.52585 5.43234C9.83995 5.38224 10.1516 5.32491 10.4609 5.25939C10.499 5.33021 10.8969 6.06777 11.1334 6.49315C11.435 7.03608 11.793 7.30971 11.793 7.30971L12.2786 7.17723L12.7637 7.0433L11.5169 3C9.93534 3.4856 8.27331 3.73755 6.57178 3.73755Z" fill="white"/>
<path d="M11.6859 10.0402L11.5043 9.99255C11.4128 9.9675 11.3207 9.94342 11.2287 9.91933C11.2287 9.90825 11.1868 9.01702 11.1565 8.50974C11.1194 7.88973 10.9156 7.48795 10.9156 7.48795L10.4208 7.3969L9.9256 7.30778C9.9256 7.30778 9.5932 7.61224 9.34028 8.17926C9.14517 8.61668 8.82 9.3711 8.78001 9.46408C8.46639 9.42698 8.15037 9.39808 7.83193 9.37688C7.80833 9.27379 7.62526 8.47746 7.51253 8.01354C7.36608 7.41039 7.09341 7.05101 7.09341 7.05101L6.59047 7.04956H6.08753C6.08753 7.04956 5.81437 7.40846 5.66648 8.01161C5.55279 8.47601 5.3678 9.27331 5.34419 9.37447C5.02624 9.39519 4.71021 9.42361 4.39659 9.46022C4.35998 9.37447 4.0348 8.61331 3.84018 8.17251C3.58919 7.60453 3.25774 7.29911 3.25774 7.29911L2.76203 7.38678L2.26679 7.47591C2.26679 7.47591 2.06157 7.8772 2.02254 8.49673C1.99027 9.0069 1.94546 9.90632 1.94546 9.90632L1.48829 10.0253L1.05664 10.1486L1.05857 10.1554H1.07784C1.07206 10.1573 1.06628 10.1592 1.06001 10.1612L1.62703 12C3.20861 11.5144 4.87063 11.262 6.57216 11.262C8.27369 11.262 9.93572 11.5139 11.5173 12L12.0843 10.1621C12.0164 10.1414 11.9489 10.1197 11.8805 10.0995C11.8155 10.0783 11.7466 10.0571 11.6864 10.0407" fill="white"/>
</svg>
