<svg width="16" height="17" viewBox="0 0 16 17" fill="none" xmlns="http://www.w3.org/2000/svg">
<path d="M5.58643 8.50001L7.19309 10.1133L10.4131 6.88667" stroke="#A8F593" stroke-linecap="round" stroke-linejoin="round"/>
<path d="M7.16643 2.13333C7.62643 1.74 8.37976 1.74 8.84643 2.13333L9.89976 3.04C10.0998 3.21333 10.4731 3.35333 10.7398 3.35333H11.8731C12.5798 3.35333 13.1598 3.93333 13.1598 4.64V5.77333C13.1598 6.03333 13.2998 6.41333 13.4731 6.61333L14.3798 7.66667C14.7731 8.12667 14.7731 8.88 14.3798 9.34667L13.4731 10.4C13.2998 10.6 13.1598 10.9733 13.1598 11.24V12.3733C13.1598 13.08 12.5798 13.66 11.8731 13.66H10.7398C10.4798 13.66 10.0998 13.8 9.89976 13.9733L8.84643 14.88C8.38643 15.2733 7.63309 15.2733 7.16643 14.88L6.11309 13.9733C5.91309 13.8 5.53976 13.66 5.27309 13.66H4.11976C3.41309 13.66 2.83309 13.08 2.83309 12.3733V11.2333C2.83309 10.9733 2.69309 10.6 2.52643 10.4L1.62643 9.34C1.23976 8.88 1.23976 8.13333 1.62643 7.67333L2.52643 6.61333C2.69309 6.41333 2.83309 6.04 2.83309 5.78V4.63333C2.83309 3.92667 3.41309 3.34667 4.11976 3.34667H5.27309C5.53309 3.34667 5.91309 3.20667 6.11309 3.03333L7.16643 2.13333Z" stroke="#A8F593" stroke-linecap="round" stroke-linejoin="round"/>
</svg>
