<svg width="14" height="13" viewBox="0 0 14 13" fill="none" xmlns="http://www.w3.org/2000/svg">
<path d="M12.3333 7.66668V12.3334C12.3333 12.5102 12.263 12.6797 12.138 12.8048C12.013 12.9298 11.8434 13 11.6666 13H2.33325C2.15644 13 1.98687 12.9298 1.86185 12.8048C1.73682 12.6797 1.66659 12.5102 1.66659 12.3334V7.66668H12.3333ZM8.66658 0.333351C9.06035 0.333217 9.44774 0.432735 9.79269 0.622637C10.1376 0.81254 10.4289 1.08665 10.6394 1.41944C10.8499 1.75223 10.9727 2.13287 10.9965 2.52592C11.0202 2.91897 10.9441 3.31164 10.7753 3.66735L12.9999 3.66668C13.1767 3.66668 13.3463 3.73692 13.4713 3.86195C13.5963 3.98697 13.6666 4.15654 13.6666 4.33335V6.33335C13.6666 6.51016 13.5963 6.67973 13.4713 6.80476C13.3463 6.92978 13.1767 7.00002 12.9999 7.00002H0.999919C0.823108 7.00002 0.653538 6.92978 0.528514 6.80476C0.40349 6.67973 0.333252 6.51016 0.333252 6.33335V4.33335C0.333252 4.15654 0.40349 3.98697 0.528514 3.86195C0.653538 3.73692 0.823108 3.66668 0.999919 3.66668L3.22459 3.66735C2.98709 3.16847 2.93434 2.60149 3.07572 2.06735C3.2171 1.53321 3.54344 1.06658 3.99665 0.75052C4.44986 0.434459 5.00052 0.289481 5.55061 0.341396C6.10069 0.393311 6.61451 0.638749 7.00059 1.03402C7.21727 0.811702 7.47638 0.635136 7.76255 0.514782C8.04872 0.394428 8.35614 0.332733 8.66658 0.333351ZM5.33325 1.66668C5.07644 1.66681 4.82952 1.76574 4.64366 1.94296C4.4578 2.12018 4.34724 2.36211 4.3349 2.61863C4.32256 2.87514 4.40938 3.12657 4.57737 3.32082C4.74536 3.51507 4.98164 3.63724 5.23725 3.66202L5.33325 3.66668H6.33325V2.66668C6.33324 2.4181 6.24064 2.17842 6.07351 1.99441C5.90637 1.81039 5.67669 1.69522 5.42925 1.67135L5.33325 1.66668ZM8.66658 1.66668L8.57058 1.67135C8.3395 1.69349 8.12332 1.79534 7.95911 1.95942C7.7949 2.12351 7.6929 2.33962 7.67058 2.57068L7.66658 2.66668V3.66668H8.66658L8.76258 3.66202C9.00994 3.63804 9.2395 3.52282 9.40653 3.33881C9.57356 3.1548 9.66609 2.9152 9.66609 2.66668C9.66609 2.41817 9.57356 2.17857 9.40653 1.99456C9.2395 1.81055 9.00994 1.69533 8.76258 1.67135L8.66658 1.66668Z" fill="white"/>
</svg>
