<svg width="96" height="77" viewBox="0 0 96 77" fill="none" xmlns="http://www.w3.org/2000/svg">
<g clip-path="url(#clip0_133_7536)">
<path d="M0.5 30.8979C2.58957 29.0836 4.66923 27.2544 6.7712 25.4599C10.5463 22.2267 14.3388 19.0331 18.1139 15.7876C18.6156 15.3286 19.212 14.9848 19.8612 14.7802C20.5104 14.5757 21.1966 14.5154 21.8717 14.6036C27.9743 15.3237 34.0778 16.0332 40.1821 16.7319C41.1792 16.8256 42.1667 17.0025 43.1342 17.2608C42.284 17.555 41.4363 17.8541 40.5836 18.1408C35.0015 20.0243 29.4045 21.8486 23.8522 23.826C22.4925 24.3144 21.2198 25.0162 20.082 25.9048C16.411 28.7746 12.8367 31.7631 9.22019 34.7021C6.79351 36.6795 4.17349 36.4076 2.15579 33.9927C1.60552 33.3335 1.05689 32.6743 0.509915 32.0152L0.5 30.8979Z" fill="#282828"/>
<path d="M95.4975 59.4822C95.4975 64.2314 95.4975 68.9798 95.4975 73.7273C95.4975 75.8828 94.4044 76.9827 92.2628 76.9852C84.1647 76.9852 76.0642 76.9457 67.9712 77C62.1709 77.0371 56.8168 75.5021 51.7379 72.8103C47.8959 70.776 44.0538 68.7515 39.7855 67.6516C36.6037 66.8658 33.3367 66.4756 30.0589 66.4898C27.4637 66.4725 24.8536 66.4898 22.2682 66.4898C20.781 66.4898 20.3943 65.9188 20.8678 64.5123C22.4591 59.7738 25.6988 57.3786 30.7158 57.344C37.1778 57.3094 43.6374 57.344 50.0995 57.3292C56.0683 57.3045 61.0604 53.7747 62.9319 48.3194C64.8554 42.7108 62.6468 36.0245 57.7464 32.6628C54.8636 30.6853 51.671 30.1391 48.3767 31.1797C42.4997 33.0459 36.6722 35.0679 30.8571 37.1121C30.1828 37.3593 29.5607 38.0712 29.174 38.7188C26.0731 43.9096 23.0342 49.1277 19.9804 54.3383C18.2304 57.3325 15.8351 57.9974 12.7945 56.3331C12.1426 55.9771 11.4857 55.636 10.8388 55.2751C9.67131 54.6275 9.47301 53.9329 10.1671 52.7736C13.401 47.2746 16.6399 41.7773 19.8837 36.2816C20.8256 34.6625 21.7923 33.0484 22.7342 31.422C23.3497 30.3382 24.3527 29.5261 25.5426 29.1479C35.5716 25.7796 45.5989 22.4014 55.6246 19.0134C57.5555 18.3583 59.1692 19.0134 60.6564 20.0787C63.7135 22.2787 66.7384 24.5223 69.7311 26.8095C75.1843 30.9622 80.6102 35.1519 86.0461 39.3244C88.0737 40.8792 90.2798 41.9347 92.9072 42.0137C94.4267 42.0582 95.4901 43.3288 95.4925 44.9626C95.5049 49.8025 95.4975 54.6423 95.4975 59.4822Z" fill="#282828"/>
<path d="M53.0148 12.5668L41.3499 11.2098L22.9527 9.06423C22.0331 8.95547 21.1086 8.87884 20.2013 8.70581C19.1091 8.51244 18.1247 7.92911 17.4323 7.06482C16.7398 6.20052 16.3866 5.11439 16.4386 4.00933C16.4584 3.26778 16.5551 2.52624 16.6196 1.79952C16.7435 0.368327 17.2566 -0.0963774 18.7141 0.00249582C21.3961 0.19777 24.0731 0.417763 26.7526 0.627869C31.1549 0.973925 35.5521 1.36942 39.9593 1.65368C41.7539 1.77233 43.1966 2.37051 44.4434 3.69788C47.0163 6.44161 49.6884 9.09883 52.3059 11.7907C52.5216 12.0032 52.7124 12.2306 53.0148 12.5668Z" fill="#282828"/>
</g>
<defs>
<clipPath id="clip0_133_7536">
<rect width="95" height="77" fill="white" transform="translate(0.5)"/>
</clipPath>
</defs>
</svg>
