<svg width="62" height="104" viewBox="0 0 62 104" fill="none" xmlns="http://www.w3.org/2000/svg">
<path d="M48.5613 57.599C44.9123 57.9158 41.5525 58.7906 38.5426 60.7263C35.8244 62.4147 33.627 64.8299 32.1959 67.7016C31.8316 68.4428 31.7333 69.2566 32.3665 69.8175C32.8335 70.2343 33.4394 70.4594 34.0638 70.4482C34.3513 70.382 34.6219 70.2564 34.8583 70.0792C35.0948 69.9021 35.292 69.6773 35.4372 69.4193C38.2852 64.1064 42.9549 61.8016 48.6798 61.3657C52.1293 61.1041 52.2478 61.075 52.2478 57.628C52.2478 51.7164 52.2334 45.8048 52.2478 39.8989C52.2478 37.5302 53.8901 35.705 56.2264 35.3272C58.2851 34.9929 60.5057 36.3851 61.1823 38.5242C61.3803 39.1838 61.4778 39.8697 61.4714 40.5587C61.4907 47.9584 61.4907 55.3581 61.4714 62.7578C61.4512 69.9338 58.794 75.9529 53.4449 80.7223C51.0884 82.8266 48.8649 85.0296 47.1734 87.7326C44.5681 91.8851 43.1275 96.6681 43.004 101.576C42.9404 103.459 42.3824 103.997 40.4856 103.997H10.3947C8.49218 103.997 7.90812 103.387 7.89366 101.436C7.87053 97.8178 8.22906 94.1441 7.01178 90.6535C6.21664 88.3807 5.33187 86.0789 4.08279 84.0386C1.71991 80.2886 0.476602 75.9362 0.500333 71.4974C0.546596 55.0646 0.546596 38.6327 0.500333 22.2018C0.500333 20.7254 0.835737 19.4 1.83038 18.2927C2.98694 17.0052 4.41241 16.4239 6.10677 16.8395C6.95984 17.0188 7.7424 17.4442 8.35865 18.0636C8.9749 18.6831 9.39811 19.4697 9.57646 20.3272C9.70346 20.9298 9.75974 21.5453 9.74416 22.1611C9.75572 28.0728 9.75572 33.9825 9.74416 39.8902C9.72962 40.2887 9.74121 40.6878 9.77886 41.0847C9.80465 41.4889 9.97583 41.8698 10.2605 42.1565C10.5451 42.4431 10.9237 42.6159 11.3258 42.6426C12.2655 42.7588 12.971 42.3519 13.2688 41.4568C13.3998 40.9683 13.4554 40.4625 13.4336 39.9571C13.4336 30.9278 13.4336 21.8966 13.4336 12.8635C13.4336 11.3435 13.7835 9.99199 14.8475 8.88465C16.1399 7.53898 17.6926 7.03618 19.4737 7.67268C20.313 7.93156 21.0581 8.43267 21.6164 9.11373C22.1747 9.79478 22.5215 10.6257 22.6138 11.5033C22.6669 12.0091 22.6853 12.518 22.6687 13.0263C22.6687 21.3677 22.6687 29.7091 22.6687 38.0505C22.6514 38.5211 22.6882 38.9921 22.7786 39.4543C22.8788 39.8597 23.1154 40.2178 23.4483 40.468C23.7811 40.7181 24.1898 40.8449 24.605 40.8267C25.0202 40.8086 25.4164 40.6467 25.7265 40.3685C26.0365 40.0903 26.2413 39.7129 26.3061 39.3002C26.3582 38.8313 26.3785 38.3594 26.3669 37.8877C26.3669 27.1514 26.3669 16.4161 26.3669 5.68179C26.3669 4.26637 26.5924 2.94395 27.4974 1.80173C28.7233 0.255525 30.5305 -0.354821 32.3058 0.200303C33.1885 0.480237 33.9695 1.01553 34.5511 1.73925C35.1328 2.46297 35.4892 3.34299 35.576 4.26927C35.6107 4.70233 35.5962 5.1412 35.5991 5.57425C35.5991 16.4248 35.5991 27.2696 35.5991 38.1086C35.5785 38.5422 35.6047 38.9769 35.6772 39.4048C35.7707 39.8347 36.0152 40.2163 36.366 40.4795C36.7168 40.7427 37.1503 40.8699 37.5868 40.8377C38.0234 40.8056 38.4338 40.6162 38.7427 40.3044C39.0515 39.9926 39.2382 39.5793 39.2683 39.1404C39.303 38.78 39.2857 38.4138 39.2857 38.0534C39.2857 29.5279 39.2857 21.0024 39.2857 12.477C39.2857 10.0588 40.5203 8.23943 42.5414 7.62036C45.3836 6.74844 48.304 8.82362 48.5353 11.8899C48.5613 12.2503 48.5497 12.6165 48.5497 12.9798V57.5931L48.5613 57.599Z" fill="#282828"/>
</svg>
