<svg width="67" height="102" viewBox="0 0 67 102" fill="none" xmlns="http://www.w3.org/2000/svg">
<g clip-path="url(#clip0_133_7528)">
<path d="M19.0515 54.6361H20.2936C24.6251 54.6361 28.9538 54.6361 33.2853 54.6361C37.4849 54.6361 40.8698 52.288 42.1779 48.5208C43.4859 44.7535 42.2725 40.8809 38.9909 38.2279C38.845 38.0868 38.734 37.9141 38.6668 37.7232C38.5996 37.5323 38.578 37.3285 38.6036 37.1279C41.6634 26.9642 44.7615 16.8081 47.8978 6.65954C48.2356 5.50137 49.0199 4.52244 50.0802 3.93549C51.1405 3.34854 52.3912 3.201 53.5604 3.52494C55.9269 4.22025 57.3354 6.87042 56.5695 9.45789C54.9143 15.0403 53.1788 20.6028 51.4749 26.171C49.8456 31.5018 48.2114 36.8325 46.5725 42.1632C46.2713 43.1378 46.2857 44.0012 47.195 44.631C48.2678 45.3662 49.5845 44.8105 50.0234 43.4085C50.9155 40.5589 51.7704 37.7092 52.6453 34.8596C54.2804 29.5289 55.9174 24.1991 57.5563 18.8703C58.3423 16.3255 60.6715 14.8808 63.0639 15.4507C64.2241 15.7512 65.221 16.4886 65.8432 17.5067C66.4654 18.5249 66.6641 19.7437 66.3972 20.9049C65.4706 25.0255 64.3433 29.1005 63.2877 33.1925C61.9997 38.1794 60.683 43.1663 59.4122 48.1474C59.2543 48.8391 59.1792 49.547 59.1885 50.2562C59.1569 57.5456 59.1885 64.8349 59.111 72.1243C59.0889 75.3857 58.1067 78.5694 56.2855 81.2831C53.1085 85.9385 51.5456 91.4957 51.8335 97.1128C51.8736 98.0731 51.8564 99.0335 51.8335 99.9938C51.799 101.345 51.1335 101.989 49.7566 102.014C47.9666 102.034 46.1767 102.014 44.3867 102.014H19.5764C17.6029 102.014 17.0808 101.461 16.9947 99.478C16.7423 93.9526 14.588 89.3048 10.397 85.6231C9.03158 84.4234 7.62598 83.2636 6.25767 82.061C2.48264 78.7212 0.557829 74.5351 0.529143 69.5311C0.488983 62.2418 0.488983 54.9524 0.529143 47.663C0.549223 43.1492 3.65588 40.1058 8.16527 40.0972C16.5052 40.0801 24.8441 40.0801 33.182 40.0972C36.5698 40.0972 39.0626 42.4596 39.0224 45.5885C38.9823 48.7174 36.5211 51.0028 33.1964 51.0028C26.7192 51.0028 20.2419 51.0028 13.7647 51.0028C12.2071 51.0028 11.2547 51.9204 11.6334 53.1885C11.8544 53.7724 12.2693 54.2639 12.8095 54.5819C17.9987 57.6738 21.1541 62.142 22.2385 68.0436C22.3816 68.9567 22.4773 69.8764 22.5253 70.7992C22.6228 72.1072 23.2683 72.8339 24.3784 72.8225C25.4885 72.8111 26.22 71.9989 26.1885 70.6454C26.1283 64.9956 23.8783 59.5863 19.9063 55.5423C19.674 55.3057 19.433 55.055 19.0515 54.6361Z" fill="#282828"/>
<path d="M33.2672 36.4497C30.1979 36.4497 27.2432 36.4753 24.2771 36.4098C23.9903 36.4098 23.5858 35.8855 23.4453 35.5236C20.5614 28.2266 17.6938 20.9201 14.8424 13.6041C13.8958 11.1563 12.909 8.71985 12.0025 6.26916C10.9727 3.44802 12.6279 0.501492 15.4161 0.051249C17.5561 -0.285008 19.7678 1.09992 20.6742 3.41952C22.2233 7.38907 23.735 11.3729 25.2639 15.3538C27.8017 21.984 30.3384 28.617 32.8742 35.2528C33.0062 35.6204 33.1123 35.9795 33.2672 36.4497Z" fill="#282828"/>
<path d="M19.7593 36.4496C16.9366 36.4496 14.2545 36.4724 11.5753 36.424C11.384 36.3967 11.2015 36.3263 11.0419 36.2181C10.8823 36.1099 10.7498 35.9669 10.6544 35.7999C7.37663 28.2465 4.12558 20.6826 0.901315 13.1082C0.660709 12.55 0.533689 11.95 0.527575 11.3428C0.521462 10.7356 0.636377 10.1332 0.865696 9.57026C1.09502 9.00736 1.43421 8.49512 1.86372 8.06304C2.29323 7.63097 2.80458 7.2876 3.36828 7.05274C3.92327 6.82222 4.51906 6.70427 5.12061 6.70583C5.72216 6.70738 6.31732 6.8284 6.8711 7.06178C7.42488 7.29516 7.92609 7.63618 8.34526 8.06479C8.76444 8.4934 9.09311 9.00094 9.31195 9.55757C12.7801 18.3373 16.1965 27.1398 19.6388 35.9338C19.679 36.0592 19.6962 36.1903 19.7593 36.4496Z" fill="#282828"/>
</g>
<defs>
<clipPath id="clip0_133_7528">
<rect width="66" height="102" fill="white" transform="translate(0.5)"/>
</clipPath>
</defs>
</svg>
