<svg width="16" height="16" viewBox="0 0 16 16" fill="none" xmlns="http://www.w3.org/2000/svg">
  <path fill-rule="evenodd" clip-rule="evenodd" d="M7.99758 14.6651C11.6799 14.6651 14.6651 11.6799 14.6651 7.99758C14.6651 4.31522 11.6799 1.33008 7.99758 1.33008C4.31522 1.33008 1.33008 4.31522 1.33008 7.99758C1.33008 11.6799 4.31522 14.6651 7.99758 14.6651ZM7.99512 4.70508C7.64994 4.70508 7.37012 4.9849 7.37012 5.33008C7.37012 5.67526 7.64994 5.95508 7.99512 5.95508C8.3403 5.95508 8.62017 5.67526 8.62017 5.33008C8.62017 4.9849 8.3403 4.70508 7.99512 4.70508ZM8.62012 7.99675C8.62012 7.65157 8.3403 7.37175 7.99512 7.37175C7.64994 7.37175 7.37012 7.65157 7.37012 7.99675V10.6634C7.37012 11.0086 7.64994 11.2884 7.99512 11.2884C8.3403 11.2884 8.62012 11.0086 8.62012 10.6634V7.99675Z" fill="currentColor"/>
</svg>
