<svg width="21" height="20" viewBox="0 0 21 20" fill="none" xmlns="http://www.w3.org/2000/svg">
<path fill-rule="evenodd" clip-rule="evenodd" d="M10.5001 2C9.76559 2 9.16673 2.59886 9.16673 3.33333V10C9.16673 10.7345 9.76559 11.3333 10.5001 11.3333C11.2345 11.3333 11.8334 10.7345 11.8334 10V3.33333C11.8334 2.59886 11.2345 2 10.5001 2ZM6.57029 4.52978C6.04004 3.99953 5.17241 4.00724 4.65981 4.55854C3.37169 5.92723 2.56252 7.7503 2.50031 9.76792L2.50027 9.76899C2.37571 14.1108 5.90029 17.8579 10.243 17.9914C14.776 18.1335 18.5001 14.4979 18.5001 9.99167C18.5001 7.88434 17.6814 5.98057 16.349 4.55895C15.8364 4.00715 14.9601 3.9995 14.4298 4.52978C13.9049 5.05471 13.9259 5.87217 14.4115 6.3849C15.271 7.29791 15.8031 8.51404 15.8335 9.8613L15.8335 9.86175C15.902 12.7767 13.4809 15.2946 10.5698 15.325L10.5674 15.3251C7.58941 15.3708 5.16673 12.9721 5.16673 10C5.16673 8.59903 5.70634 7.3282 6.58994 6.3752C7.07745 5.85897 7.08317 5.04266 6.57029 4.52978ZM14.7751 6.04167L14.4123 6.3858C14.4121 6.3855 14.4118 6.3852 14.4115 6.3849C14.4113 6.38475 14.4112 6.3846 14.4111 6.38444L14.7751 6.04167Z" fill="black"/>
</svg>
