<svg width="320" height="318" fill="none" xmlns="http://www.w3.org/2000/svg"><g opacity=".8" filter="url(#a)"><path style="mix-blend-mode:color-dodge" opacity=".9" d="m264.734 63.588-.049-35.007-.549-.002.02 35.035.578-.026Zm2.725.004-.054-35.02-.55-.002.025 35.03.579-.008Zm2.721.008-.034-35.008-.549-.002.02 35.035.563-.025Zm-8.167-.02-.025-35.03-.55-.003.005 35.05.57-.017Zm10.892.024-.025-35.03h-.547l-.002 35.043.574-.013Zm-27.247-.053-.049-35.007h-.547l.025 35.03.571-.023Zm2.723.01-.02-35.035-.55-.002.021 35.035.549.002Zm2.725.004-.024-35.03-.55-.003.025 35.03.549.003Zm-8.174-.003-.021-35.035-.55-.003.021 35.035.55.003Zm16.334.032-.021-35.035h-.548l.021 35.034h.548Zm-5.446-.013-.021-35.035-.55-.002.021 35.035.55.002Zm2.725.004-.025-35.03-.55-.003.029 35.027.546.006Zm-184.816-.434-.025-35.031h-.548l.021 35.034.552-.003Zm-2.725-.004-.026-35.031h-.546l.042 35.017.53.014Zm5.452-.013-.024-35.031-.55-.003.029 35.05.545-.016Zm-8.17-.023-.024-35.03-.55-.003.02 35.035.555-.002Zm-5.445-.012-.025-35.03-.55-.003.021 35.034.554-.001Zm2.728.024-.02-35.035-.55-.003.025 35.031.545.007Zm252.199 69.511-48.194-.13 9.648 9.663 27.179.08c.125.454.482.728.99.762a.563.563 0 0 0 .354-.042c.132-.053.264-.144.378-.257.115-.114.205-.247.259-.378a.564.564 0 0 0 .042-.354c-.02-.3-.124-.55-.304-.73-.179-.18-.429-.284-.729-.305-.468.008-.87.321-.992.755l-26.935-.067-8.549-8.563 46.855.116-.002-.55Zm-5.71-9.541a.55.55 0 0 0 .353-.039c.131-.052.264-.143.378-.258.115-.114.205-.246.259-.377a.558.558 0 0 0 .039-.353c-.021-.3-.125-.55-.304-.729-.18-.18-.43-.285-.73-.307a1.047 1.047 0 0 0-.991.756l-24.321-.072-.003.554 24.326.068c.127.451.484.724.994.757Zm-37.352 83.229-64.465-.155-.005.552 64.472.152-.002-.549Zm-4.819 8.847-3.266-.006.002 5.293-10.851 10.83 11.255.031-.007-5.703h-.547l.003 5.15-9.378-.024 10.076-10.057-.006-4.973 2.165.008-.001 15.158.55.002.005-15.709Zm46.845-89.079c-.464.004-.87.321-.991.755l-33.176-.08.001.549 33.176.08c.126.453.482.728.99.762a1.026 1.026 0 0 0 1.034-1.031c-.021-.3-.125-.55-.305-.73-.179-.18-.429-.284-.729-.305Zm1.019-24.269-.001-.549-31.13-.074-5.909 5.897-.005-9.801 37.041.09-.001-.55-37.589-.09.005 11.676 6.687-6.675 30.902.076Zm-69.279 144.821 21.451.033-.011-13.025-21.435-.048-.005 13.04Zm.556-12.487 20.332.046.012 11.93-20.336-.051-.008-11.925ZM294.012 75.05l.001.55 14.453.008.001-.548-14.455-.01Zm17.066 15.997-32.954-.08-.022-29.618 7.502 7.514.006 15.316 30.131.065-.002-.55-29.572-.07-.004-14.98-8.609-8.623-.001 31.502 33.509.088.016-.564Zm-29.739-22.571-.006 18.769 29.72.075.003-.554-29.175-.069-.011-18.237-.531.016Zm15.445-.873 18.931.026.001-.547-18.956-.02.024.54Zm15.338-13.011-31.965-.076 5.655 5.664 26.304.063-.001-.55-26.074-.062-4.565-4.572 30.645.08.001-.547Zm-34.579-2.487 38.172.095.003-.554-37.619-.097-.02-30.378-40.182-.097.041 70.824.55.002-.038-70.257 39.069.087.024 30.375Zm16.177 10.522.009 9.288 17.05.043.005 6.885-20.764-.052-.007-10.24-12-12.019-.398.397 11.837 11.855.003 10.562 21.868.052-.024-7.968-17.05-.043-.006-8.189 21.453.09-.001-.55-21.975-.111Zm22.043 75.11-.001-.549-37.886-.102-.002.554 37.889.097ZM165.745 41.41l.032 49.617.551-.004-.035-48.286 13.343 13.365.032 29.825a1.022 1.022 0 0 0-.757.99c.02.3.124.55.304.73.18.18.429.284.73.305a.561.561 0 0 0 .353-.041c.132-.054.264-.145.378-.259.114-.114.205-.246.26-.377a.561.561 0 0 0 .041-.354c-.036-.507-.309-.863-.76-.992l-.021-30.046-14.451-14.473Zm-9.781 60.494-.045-60.126c.434-.121.755-.515.757-.99-.021-.3-.125-.55-.304-.73-.18-.18-.429-.284-.729-.305a1.026 1.026 0 0 0-1.034 1.03c.034.51.308.866.76.992l.059 60.117.536.012Zm16.002-.992c.021.3.125.55.304.73.18.18.429.284.73.305a.552.552 0 0 0 .353-.041c.133-.053.264-.144.378-.259.115-.113.205-.245.26-.376a.571.571 0 0 0 .042-.354c-.033-.51-.305-.868-.757-.996l-.022-42.148c.437-.119.757-.512.757-.99-.02-.3-.125-.55-.304-.73-.18-.179-.43-.284-.73-.305a.562.562 0 0 0-.353.042 1.176 1.176 0 0 0-.378.258 1.193 1.193 0 0 0-.26.377.555.555 0 0 0-.041.354c.033.509.307.866.759.992l.038 42.147c-.454.126-.774.519-.776.994Zm-29.499-.084c.021.3.125.55.304.73.18.179.429.284.73.306a1.026 1.026 0 0 0 1.032-1.032c-.033-.508-.307-.865-.76-.991l-.037-42.147a1.02 1.02 0 0 0 .757-.99c-.02-.3-.124-.55-.304-.73-.18-.18-.43-.284-.73-.305a.566.566 0 0 0-.354.041 1.184 1.184 0 0 0-.377.259 1.159 1.159 0 0 0-.259.377.564.564 0 0 0-.043.354c.035.509.308.865.76.991l.038 42.147c-.446.133-.767.527-.757.99Zm8.201-59.455-14.424 14.395.019 30.044c-.436.119-.76.517-.756.99.021.3.125.55.304.73.18.18.429.284.729.305a.564.564 0 0 0 .354-.041c.132-.054.264-.145.378-.259.115-.114.205-.246.26-.377a.577.577 0 0 0 .042-.354c-.037-.507-.31-.863-.761-.992l-.03-29.825 13.326-13.3.031 48.29.55.002-.022-49.608Zm-24.732 49.088a1.02 1.02 0 0 0-.756.99c.02.3.124.55.304.73.179.179.429.284.728.305a.567.567 0 0 0 .355-.042c.131-.054.264-.144.378-.258a1.17 1.17 0 0 0 .258-.378.564.564 0 0 0 .043-.353c-.036-.507-.309-.863-.76-.992l-.034-48.714-10.107-10.123-.018-30.44-.554.002.027 30.664 10.108 10.123.028 48.486Zm54.218-89.116-.551-.003.022 37.896.554-.001-.025-37.892Zm-19.673 8.192-.001 23.835 5.812 5.82-.016-22.302h-.548l.013 20.973-4.711-4.719-.016-23.589a1.02 1.02 0 0 0 .757-.99c-.02-.3-.124-.55-.304-.73-.179-.179-.43-.284-.729-.305a.565.565 0 0 0-.354.042 1.176 1.176 0 0 0-.378.258 1.19 1.19 0 0 0-.259.377.563.563 0 0 0-.042.354c.036.507.309.863.76.992l.016-.016Zm-.001 32.264.045 60.126.55.002-.046-60.126a1.02 1.02 0 0 0 .757-.99c-.02-.3-.124-.55-.304-.729-.18-.18-.429-.284-.729-.306a.563.563 0 0 0-.354.042 1.175 1.175 0 0 0-.378.258 1.192 1.192 0 0 0-.259.378.563.563 0 0 0-.042.353c.034.51.307.866.76.992Zm14.581-29.095.023 27.165 9.648 9.662-.045-48.184-.55-.002.04 46.86-8.549-8.562-.016-26.942c.434-.121.755-.515.757-.99-.021-.3-.125-.55-.305-.73-.179-.18-.429-.284-.728-.305a.568.568 0 0 0-.355.041 1.188 1.188 0 0 0-.378.258 1.19 1.19 0 0 0-.259.378.57.57 0 0 0-.042.354c.016.253.091.471.221.643a1 1 0 0 0 .538.354Zm9.151 87.243a1.03 1.03 0 0 0-.757.989c.02.3.124.55.304.73.18.179.43.285.73.306a1.025 1.025 0 0 0 1.032-1.031c-.034-.509-.307-.866-.759-.992l-.028-44.743-13.842-13.863-.043-40.007-.549-.002.024 40.25 13.844 13.866.044 44.497ZM155.901 9.542c.437-.119.761-.516.759-.987-.02-.3-.125-.55-.304-.73-.18-.18-.43-.284-.73-.305a1.025 1.025 0 0 0-1.032 1.03c.033.51.307.866.759.992l.016 23.59-4.704 4.694-.018-20.969-.55-.002.014 22.3 5.805-5.794-.015-23.819ZM125.87 3.228l.03 33.178.551.003-.023-33.17a1.03 1.03 0 0 0 .757-.99c-.02-.3-.125-.549-.304-.729-.18-.18-.429-.284-.729-.305a.565.565 0 0 0-.354.041 1.187 1.187 0 0 0-.378.258 1.21 1.21 0 0 0-.26.378.569.569 0 0 0-.041.354c.033.508.307.865.76.991l-.009-.009Zm6.127 98.61a.573.573 0 0 0 .352-.044c.13-.054.262-.144.375-.257.113-.113.203-.244.257-.374a.574.574 0 0 0 .045-.352c-.032-.509-.304-.868-.756-.995l-.031-44.524 13.827-13.8-.023-40.25-.554.002.026 40.022-13.831 13.804.031 44.739a1.022 1.022 0 0 0-.757.989c.02.305.124.559.306.741.181.182.435.287.74.306l-.007-.007Zm9.301-89.204c.436-.119.757-.513.757-.99-.022-.3-.126-.55-.305-.73-.179-.18-.429-.284-.729-.305a.566.566 0 0 0-.354.041 1.187 1.187 0 0 0-.378.259 1.172 1.172 0 0 0-.259.377.57.57 0 0 0-.043.354c.034.508.308.865.761.991l.035 26.922-8.542 8.526-.032-46.852h-.547l.04 48.189 9.636-9.617-.04-27.165ZM120.819 7.91l.023 24.32h.548l-.024-24.32c.436-.118.758-.512.757-.99-.02-.3-.124-.55-.304-.729-.179-.18-.43-.284-.729-.306a.569.569 0 0 0-.355.042 1.198 1.198 0 0 0-.378.258 1.17 1.17 0 0 0-.258.378.564.564 0 0 0-.043.354c.042.505.32.858.774.981l-.011.012Zm15.927-6.659-.553.002.044 37.886.55.003-.041-37.891Zm-36.114 44.56 8.27 8.282.014 48.09.549.003-.032-48.307-9.367-9.382.071 57.633h.547l-.052-56.32Zm106.778 56.588.55.002-.033-48.077 8.257-8.24.056 56.33.549.003-.037-57.663-9.365 9.347.023 48.298Zm18.139 89.585a1.04 1.04 0 0 0 .991-.755l48.511.121 10.107 10.123 30.673.076-.002-.551-30.446-.07-10.107-10.123-48.733-.129c-.126-.453-.482-.727-.991-.762a.563.563 0 0 0-.354.041 1.205 1.205 0 0 0-.378.259 1.18 1.18 0 0 0-.259.377.57.57 0 0 0-.042.354c.02.3.123.551.302.732.179.18.428.286.728.307Zm68.845 62.969-.001-8.192 17.05.042-.021-7.967-21.868-.052.006 10.558-11.804 11.782.388.388 12.003-11.98-.007-10.24 20.773.052.005 6.885-17.053-.044.007 9.294 22.001.011-.001-.549-21.478.012Zm21.42-69.836-46.869-.12 8.543-8.527 26.94.072c.127.45.483.724.99.762a.57.57 0 0 0 .354-.042 1.19 1.19 0 0 0 .378-.258c.114-.115.205-.247.259-.378a.564.564 0 0 0 .042-.354c-.02-.3-.125-.55-.304-.729-.18-.18-.43-.285-.73-.306a1.042 1.042 0 0 0-.991.755l-27.171-.065-9.636 9.616 48.187.114.008-.54Zm-3.558 73.409.001-.547-26.306-.065-5.654 5.643 31.961.079.003-.553-30.636-.071 4.557-4.548 26.074.062Zm3.554-77.957-37.9-.092-.002.553 37.897.081.005-.542Zm-5.704 11.623a.57.57 0 0 0 .354-.042c.131-.053.263-.144.378-.258a1.19 1.19 0 0 0 .259-.377.573.573 0 0 0 .042-.355c-.021-.3-.125-.549-.304-.729-.18-.18-.43-.285-.73-.305a1.037 1.037 0 0 0-.991.755l-28.501-.07.001.549 28.481.081a.99.99 0 0 0 .361.535c.173.129.394.202.65.216Zm-15.985 50.348-.001.547 14.442.037-.001-.55-14.44-.034Zm-16.445 15.493 8.599-8.582-.013-14.988 29.573.07-.002-.55-30.122-.073.01 15.313-7.497 7.483-.019-29.622 32.952.078.001-.547-33.509-.088.027 31.506Zm.556-48.402.008 11.672 37.586.088-.001-.55-37.041-.09-.005-9.792 5.918 5.926 31.13.073-.002-.55-30.9-.073-6.693-6.704Zm18.669 41.461 18.951.047-.002-.549-18.951-.048.002.55Zm-14.9-1.496-.011-18.237 29.174.069-.002-.55-29.724-.072.029 18.772.534.018Zm-50.82-112.624c-.128-.451-.483-.724-.99-.761a.562.562 0 0 0-.354.041 1.18 1.18 0 0 0-.378.258 1.167 1.167 0 0 0-.259.378.56.56 0 0 0-.042.353c.02.3.124.551.304.73.179.18.429.285.729.306a1.04 1.04 0 0 0 .991-.755l29.832.083 13.334 13.356-48.295-.12-.005.551 49.627.118-14.442-14.464-30.052-.074Zm77.338 18.569a1.04 1.04 0 0 0-.991.755l-23.594-.058-4.711-4.718 20.98.03.001-.548-22.307-.055 5.811 5.821 23.84.041c.13.449.485.722.991.762a.571.571 0 0 0 .354-.042c.131-.054.263-.144.377-.258.115-.114.205-.247.259-.378a.571.571 0 0 0 .043-.354c-.028-.293-.137-.536-.32-.709-.183-.174-.433-.272-.733-.289Zm7.295 40.398-31.019-.074-.001.547 31.015.078.005-.551Zm-99.658-64.315a1.027 1.027 0 0 0-1.034 1.032c.021.3.126.549.305.729.179.18.429.285.729.305.468-.007.87-.32.989-.757l44.533.11 13.847 13.868 40.263.108-.001-.55-40.031-.097-13.842-13.864-44.752-.106a1.003 1.003 0 0 0-.354-.552 1.17 1.17 0 0 0-.652-.226Zm91.362 30.327c.127.452.485.725.994.758a.568.568 0 0 0 .354-.039c.131-.053.264-.144.378-.258.114-.114.205-.246.258-.378a.549.549 0 0 0 .04-.352c-.021-.3-.125-.55-.305-.73-.179-.18-.429-.285-.729-.306a1.04 1.04 0 0 0-.989.758l-23.82-.062-5.801 5.79 22.314.063.001-.548-20.98-.052 4.704-4.696 23.581.052Zm-91.355-16.765c.468-.008.869-.321.995-.76l42.155.112c.126.453.482.727.991.762a.577.577 0 0 0 .354-.041c.131-.055.263-.145.378-.259.114-.114.205-.246.259-.378a.56.56 0 0 0 .042-.353c-.021-.3-.125-.55-.304-.73-.18-.18-.43-.285-.73-.306a1.041 1.041 0 0 0-.991.756l-42.156-.112c-.127-.452-.484-.725-.994-.758a.573.573 0 0 0-.353.041 1.2 1.2 0 0 0-.378.259 1.181 1.181 0 0 0-.26.378.562.562 0 0 0-.042.354c.021.301.126.552.307.732.181.18.433.284.735.303h-.008Zm44.178 29.611a.562.562 0 0 0 .354-.041 1.19 1.19 0 0 0 .378-.258c.114-.114.205-.246.259-.378a.56.56 0 0 0 .042-.353c-.02-.301-.125-.552-.305-.733-.179-.18-.43-.285-.731-.305a1.041 1.041 0 0 0-.989.757l-42.155-.111c-.127-.452-.485-.725-.995-.758a1.026 1.026 0 0 0-1.033 1.031c.021.299.125.55.304.73.18.18.43.284.73.305.468-.008.869-.321.991-.755l42.153.109a.993.993 0 0 0 .354.538c.171.131.39.206.643.222Zm-44.155 11.393a1.04 1.04 0 0 0 .991-.756l44.764.095 13.827-13.8 40.024.09-.002-.55-40.26-.097-13.824 13.796-44.532-.109c-.13-.448-.486-.722-.991-.761a.562.562 0 0 0-.354.041 1.194 1.194 0 0 0-.378.259 1.195 1.195 0 0 0-.259.377.568.568 0 0 0-.042.353c.019.306.125.56.308.742.183.181.438.286.744.304l-.016.016Zm14.035-4.527a1.04 1.04 0 0 0 .991-.756l30.05.073 14.423-14.395-49.627-.12.002.55 48.299.116-13.326 13.301-29.832-.083c-.128-.451-.483-.725-.99-.762a.576.576 0 0 0-.354.041 1.2 1.2 0 0 0-.378.259 1.183 1.183 0 0 0-.259.378.56.56 0 0 0-.042.353c.019.304.123.557.305.739.181.181.434.286.738.306Zm-15.072-25.043 60.126.154c.125.453.481.727.99.762a.563.563 0 0 0 .354-.042c.131-.053.264-.144.378-.257.114-.115.205-.247.259-.378a.564.564 0 0 0 .042-.354c-.02-.3-.125-.55-.304-.73-.18-.18-.429-.284-.729-.305a1.041 1.041 0 0 0-.992.754l-60.138-.15.014.546Zm.013 5.098 60.139.152c.125.452.482.726.99.761a1.026 1.026 0 0 0 1.033-1.031c-.02-.3-.124-.55-.304-.73-.179-.179-.429-.284-.729-.306-.468.008-.87.322-.992.756l-60.138-.151.001.549Zm69.901-54.522 30.708.072-.002-.55-30.934-.076-9.933 9.914-73.247-.145-.042-66.464 12.119-12.095-.022-36.49h-.548l.029 36.258-12.134 12.11.042 67.235 74.007.177 9.957-9.946Zm-10.048 19.531-48.504-.114c-.126-.452-.482-.726-.991-.762a.57.57 0 0 0-.354.042 1.178 1.178 0 0 0-.378.259 1.19 1.19 0 0 0-.259.377.564.564 0 0 0-.042.354c.021.3.125.55.304.729.18.18.43.285.73.307.468-.009.871-.32.991-.756l48.701.152 10.088-10.068 30.444.069.001-.547-30.673-.076-10.058 10.034Zm-2.099-59.711-30.873-.078.014 18.327 11.805 11.823-19.699-.05-.071-95.348 81.59.2.003-.553-82.145-.2.082 96.441 21.581.05-12.596-12.614-.012-17.547 29.765.104.025 39.393-49.661-.121-.071-105.454h-.547l.069 106.002 50.759.123-.018-40.498Zm-64.734 44.515 64.461.165.001-.548-64.485-.141.023.524Zm-17.906-18.897a.563.563 0 0 0 .353-.042c.132-.053.264-.144.378-.258.115-.114.205-.246.259-.377a.556.556 0 0 0 .042-.354c-.034-.509-.307-.865-.759-.992l-.028-48.491 10.093-10.073-.019-30.664-.55-.002.018 30.44-10.117 10.096.045 48.7a1.021 1.021 0 0 0-.757.99c.02.3.124.55.304.73.18.18.43.284.73.305l.008-.008Zm5.262-91.261h-.546l.02 31.006.55.003-.024-31.01Zm72.252 69.932-21.431-.053.007 13.03 21.431.052-.007-13.03Zm-.54 12.48-20.327-.05-.013-11.93 20.334.05.006 11.93ZM189.928 8.06l.02 28.495.55.003-.02-28.495c.436-.119.762-.517.757-.99-.021-.3-.125-.55-.304-.73-.179-.18-.43-.284-.73-.305a.566.566 0 0 0-.354.041 1.198 1.198 0 0 0-.378.259 1.17 1.17 0 0 0-.258.377.564.564 0 0 0-.043.354c.035.509.307.865.76.991Zm101.044 31.538 15.356.038-.011-12.612-15.356-.038.011 12.612Zm.538-12.062 14.259.036.008 11.512-14.257-.033-.01-11.515Zm-.383 263.593 15.357.038-.009-12.609-15.358-.04.01 12.611Zm.541-12.06 14.259.036.008 11.513-14.259-.037-.008-11.512ZM267.81 102.826l-.009-15.723-.553.002.013 15.172-2.165-.007-.013-4.962L254.992 87.2l9.382.02.001 5.158.549.002-.002-5.707-11.267-.018 10.87 10.887.002 5.294 3.283-.011Zm-6.786-5.302L250.687 87.17l-.398.396 10.176 10.192.027 4.484-31.868-.057-.069-94.553-.55-.002.071 95.101 32.967.063-.019-5.271Zm-23.137-80.322 78.082.19-.025-11.362-78.081-.19.024 11.363Zm.541-10.828 76.984.187.008 10.281-76.984-.187-.008-10.28Zm42.89 41.067 34.672.084-.02-28.343-34.671-.085.019 28.344Zm.53-27.794 33.574.082.017 27.244-33.572-.08-.019-27.246Zm4.721 23.527 24.147.047.013-19.763-24.165-.057.005 19.773Zm.537-19.23 23.07.065.012 18.683-23.061-.056-.021-18.692Zm-44.76-10.356 69.172.157-.005-4.129-69.172-.156.005 4.128Zm.546-3.576 68.063.166v3.027l-68.06-.164-.003-3.03Z" fill="url(#b)"/></g><defs><radialGradient id="b" cx="0" cy="0" r="1" gradientUnits="userSpaceOnUse" gradientTransform="rotate(-44.944 216.374 -244.556) scale(112.964 223.139)"><stop stop-color="#fff"/><stop offset="1" stop-color="#fff" stop-opacity="0"/></radialGradient><filter id="a" x="-3.23" y=".555" width="324.281" height="325.225" filterUnits="userSpaceOnUse" color-interpolation-filters="sRGB"><feFlood flood-opacity="0" result="BackgroundImageFix"/><feColorMatrix in="SourceAlpha" values="0 0 0 0 0 0 0 0 0 0 0 0 0 0 0 0 0 0 127 0" result="hardAlpha"/><feOffset dy="4"/><feGaussianBlur stdDeviation="2"/><feComposite in2="hardAlpha" operator="out"/><feColorMatrix values="0 0 0 0 0 0 0 0 0 0 0 0 0 0 0 0 0 0 0.25 0"/><feBlend in2="BackgroundImageFix" result="effect1_dropShadow_3919_7632"/><feBlend in="SourceGraphic" in2="effect1_dropShadow_3919_7632" result="shape"/></filter></defs></svg>