<svg width="23" height="22" viewBox="0 0 23 22" fill="none" xmlns="http://www.w3.org/2000/svg">
<path fill-rule="evenodd" clip-rule="evenodd" d="M11.2721 0C5.04826 0 0 5.04826 0 11.2721C0 16.2512 3.25025 20.4697 7.67612 21.9911C8.22936 22.0602 8.43682 21.7144 8.43682 21.4378C8.43682 21.1612 8.43682 20.4697 8.43682 19.5015C5.32488 20.193 4.63334 17.9801 4.63334 17.9801C4.14926 16.6662 3.38856 16.3204 3.38856 16.3204C2.35124 15.6289 3.45771 15.6289 3.45771 15.6289C4.56418 15.698 5.18657 16.8045 5.18657 16.8045C6.22388 18.5333 7.81443 18.0493 8.43682 17.7726C8.50597 17.0119 8.85174 16.5279 9.12836 16.2513C6.63881 15.9746 4.01095 15.0065 4.01095 10.6498C4.01095 9.40498 4.42587 8.43682 5.18657 7.60697C5.11741 7.39951 4.70249 6.22388 5.32488 4.70249C5.32488 4.70249 6.29304 4.42587 8.43682 5.87811C9.33582 5.60149 10.304 5.53234 11.2721 5.53234C12.2403 5.53234 13.2085 5.67065 14.1075 5.87811C16.2512 4.42587 17.2194 4.70249 17.2194 4.70249C17.8418 6.22388 17.4269 7.39951 17.3577 7.67612C18.0493 8.43682 18.5333 9.47413 18.5333 10.7189C18.5333 15.0756 15.9055 15.9746 13.4159 16.2513C13.8309 16.597 14.1766 17.2886 14.1766 18.3259C14.1766 19.8473 14.1766 21.0229 14.1766 21.4378C14.1766 21.7144 14.3841 22.0602 14.9373 21.9911C19.4323 20.4697 22.6134 16.2512 22.6134 11.2721C22.5443 5.04826 17.496 0 11.2721 0Z" fill="white"/>
</svg>
