<svg width="18" height="18" viewBox="0 0 18 18" fill="none" xmlns="http://www.w3.org/2000/svg">
<path d="M16 0C10.4131 0 7.58685 0 2 0C1.86 0 1.73 0.00999996 1.6 0.04C1.21 0.12 0.86 0.32 0.59 0.59C0.41 0.77 0.26 0.99 0.16 1.23C0.0600001 1.46 0 1.72 0 2V16C0 16.27 0.0600001 16.54 0.16 16.78C0.26 17.02 0.41 17.23 0.59 17.42C0.86 17.69 1.21 17.89 1.6 17.97C1.73 17.99 1.86 18 2 18H16C17.1 18 18 17.1 18 16V2C18 0.9 17.1 0 16 0ZM8 11.17L6.59 12.59L3 9L6.59 5.41L8 6.83L5.83 9L8 11.17ZM11.41 12.59L10 11.17L12.17 9L10 6.83L11.41 5.41L15 9L11.41 12.59Z" fill="white"/>
</svg>
