<svg width="16" height="17" fill="none" xmlns="http://www.w3.org/2000/svg"><g clip-path="url(#a)"><circle r="5" transform="matrix(1 0 0 -1 8 8.5)" fill="#fff"/><path d="M8 .5c-4.411 0-8 3.589-8 8s3.589 8 8 8 8-3.589 8-8-3.589-8-8-8Zm3.236 10.293c.13.13.13.341 0 .471l-.472.472a.333.333 0 0 1-.471 0L8 9.443l-2.293 2.293a.334.334 0 0 1-.471 0l-.472-.472a.333.333 0 0 1 0-.471L7.057 8.5 4.764 6.207a.333.333 0 0 1 0-.471l.472-.472c.13-.13.34-.13.471 0L8 7.557l2.293-2.293c.13-.13.341-.13.471 0l.472.472c.13.13.13.34 0 .471L8.943 8.5l2.293 2.293Z" fill="#F24A4A"/></g><defs><clipPath id="a"><path fill="#fff" transform="translate(0 .5)" d="M0 0h16v16H0z"/></clipPath></defs></svg>