<svg width="20" height="20" fill="none" xmlns="http://www.w3.org/2000/svg"><g clip-path="url(#a)" fill="#fff"><path d="M9.6 19.6A9.6 9.6 0 1 0 9.6.4a9.6 9.6 0 0 0 0 19.2Z" fill-opacity=".12"/><path d="M8.55 11.52c0-.609.069-1.088.206-1.438.138-.354.36-.66.669-.919.308-.258.542-.494.7-.706.162-.217.244-.454.244-.712 0-.63-.271-.944-.813-.944a.754.754 0 0 0-.606.275c-.154.183-.235.431-.244.744H6.594c.008-.834.27-1.482.787-1.944.517-.467 1.242-.7 2.175-.7.93 0 1.648.214 2.157.644.512.429.768 1.04.768 1.83 0 .347-.069.661-.206.945-.138.283-.358.572-.662.868l-.72.67a1.683 1.683 0 0 0-.424.605c-.08.205-.123.465-.131.782H8.55Zm-.256 1.9c0-.309.11-.56.331-.757.225-.2.504-.3.837-.3.334 0 .61.1.832.3a.957.957 0 0 1 .337.756.976.976 0 0 1-.337.763c-.221.196-.498.294-.832.294a1.23 1.23 0 0 1-.837-.294.984.984 0 0 1-.331-.763Z"/></g><defs><clipPath id="a"><path fill="#fff" d="M0 0h19.2v20H0z"/></clipPath></defs></svg>