<svg width="14" height="16" viewBox="0 0 14 16" fill="none" xmlns="http://www.w3.org/2000/svg">
<path d="M12.8333 3.55556C9.37025 3.55417 7.82386 1.44194 7.40247 0.730556C7.31803 0.587778 7.16608 0.5 6.99997 0.5C6.83386 0.5 6.6822 0.587778 6.59747 0.730556C6.17608 1.44194 4.6297 3.55417 1.16664 3.55556C0.859973 3.55556 0.611084 3.80444 0.611084 4.11111V7.16667C0.611084 12.4711 5.21525 14.8458 6.43081 15.38C6.61108 15.4592 6.80331 15.5 6.99997 15.5C7.19664 15.5 7.38886 15.4592 7.56914 15.38C8.7847 14.8458 13.3889 12.4711 13.3889 7.16667V4.11111C13.3889 3.80444 13.14 3.55556 12.8333 3.55556ZM6.99997 8C8.07192 8 8.94442 8.7475 8.94442 9.66667C8.94442 10.4203 8.35775 11.0578 7.55553 11.2631V12.1667H6.44442V11.2631C5.6422 11.0578 5.05553 10.4203 5.05553 9.66667H6.16664C6.16664 9.9625 6.55608 10.2222 6.99997 10.2222C7.44386 10.2222 7.83331 9.9625 7.83331 9.66667C7.83331 9.37083 7.44386 9.11111 6.99997 9.11111C5.92803 9.11111 5.05553 8.36361 5.05553 7.44444C5.05553 6.69083 5.6422 6.05333 6.44442 5.84806V4.94444H7.55553V5.84806C8.35775 6.05333 8.94442 6.69083 8.94442 7.44444H7.83331C7.83331 7.14861 7.44386 6.88889 6.99997 6.88889C6.55608 6.88889 6.16664 7.14861 6.16664 7.44444C6.16664 7.74028 6.55608 8 6.99997 8Z" fill="white"/>
</svg>
