<svg width="15" height="15" viewBox="0 0 15 15" fill="none" xmlns="http://www.w3.org/2000/svg">
<path d="M11.25 1.25C12.6287 1.25 13.75 2.37125 13.75 3.75V11.25C13.75 12.6287 12.6287 13.75 11.25 13.75H3.75C2.37125 13.75 1.25 12.6287 1.25 11.25V3.75C1.25 2.37125 2.37125 1.25 3.75 1.25H11.25ZM11.25 0H3.75C1.67875 0 0 1.67875 0 3.75V11.25C0 13.3212 1.67875 15 3.75 15H11.25C13.3212 15 15 13.3212 15 11.25V3.75C15 1.67875 13.3212 0 11.25 0Z" fill="white"/>
<path d="M5.78062 10.3125C5.66187 10.3125 5.54125 10.2781 5.43437 10.2075L2.15312 8.01999C1.97937 7.90374 1.875 7.70874 1.875 7.49999C1.875 7.29124 1.97937 7.09624 2.15312 6.97999L5.43437 4.79249C5.72125 4.60062 6.10937 4.67812 6.30125 4.96562C6.4925 5.25249 6.415 5.64124 6.12812 5.83249L3.62687 7.49999L6.12812 9.16749C6.415 9.35937 6.4925 9.74687 6.30125 10.0344C6.18062 10.215 5.9825 10.3125 5.78062 10.3125Z" fill="white"/>
<path d="M9.21924 10.3125C9.01737 10.3125 8.81862 10.215 8.69862 10.0344C8.50674 9.74687 8.58424 9.35937 8.87174 9.16749L11.373 7.49999L8.87174 5.83249C8.58424 5.64124 8.50674 5.25312 8.69862 4.96562C8.88924 4.67812 9.27737 4.60062 9.56549 4.79249L12.8467 6.97999C13.0205 7.09624 13.1249 7.29124 13.1249 7.49999C13.1249 7.70874 13.0205 7.90374 12.8467 8.01999L9.56549 10.2075C9.45862 10.2781 9.33799 10.3125 9.21924 10.3125Z" fill="white"/>
</svg>
