<svg width="20" height="20" fill="none" xmlns="http://www.w3.org/2000/svg"><path d="M20 12.25v-4.5l-1.891-.367a8.49 8.49 0 0 0-.522-1.257l1.08-1.597-3.178-3.186-1.6 1.077a8.48 8.48 0 0 0-1.272-.529L12.25 0h-4.5l-.367 1.891c-.432.14-.852.314-1.257.522L4.53 1.333 1.343 4.51l1.077 1.6c-.21.409-.387.834-.529 1.272L0 7.75v4.5l1.891.367c.14.432.314.852.521 1.257l-1.08 1.597 3.18 3.186L6.11 17.58c.409.21.834.387 1.272.529L7.75 20h4.5l.367-1.891c.432-.14.852-.314 1.257-.522l1.597 1.08 3.186-3.178-1.077-1.6a8.49 8.49 0 0 0 .529-1.271L20 12.25Zm-2.819-.646-.097.35a7.314 7.314 0 0 1-.697 1.678l-.18.316.938 1.394-1.818 1.814-1.392-.942-.317.18a7.31 7.31 0 0 1-1.664.69l-.35.097-.32 1.647H8.716l-.32-1.647-.35-.097a7.31 7.31 0 0 1-1.678-.697l-.316-.18-1.394.938-1.814-1.818.942-1.392-.18-.317a7.31 7.31 0 0 1-.69-1.664l-.097-.35-1.647-.32V8.716l1.647-.32.097-.35a7.31 7.31 0 0 1 .697-1.678l.18-.316-.938-1.394 1.818-1.814 1.392.942.317-.18a7.31 7.31 0 0 1 1.664-.69l.35-.097.32-1.647h2.568l.32 1.647.35.097c.585.161 1.15.396 1.678.697l.316.18 1.394-.938 1.814 1.818-.942 1.392.18.317a7.31 7.31 0 0 1 .69 1.664l.097.35 1.647.32v2.568l-1.647.32Z" fill="#fff"/><path d="M10.081 3.788A6.219 6.219 0 0 0 3.87 10a6.219 6.219 0 0 0 6.211 6.211A6.218 6.218 0 0 0 16.293 10a6.218 6.218 0 0 0-6.212-6.212Zm0 11.251A5.045 5.045 0 0 1 5.041 10c0-2.778 2.261-5.039 5.04-5.039 2.78 0 5.04 2.26 5.04 5.04 0 2.778-2.26 5.04-5.04 5.04Z" fill="#fff"/><path d="M7.558 7.92 5.702 10l1.856 2.08.875-.78-1.16-1.3 1.16-1.3-.875-.78ZM11.73 8.7l1.16 1.3-1.16 1.3.874.78L14.46 10l-1.856-2.08-.874.78ZM10.381 6.377l-1.829 6.948 1.133.299 1.83-6.949-1.134-.298Z" fill="#fff"/></svg>