<svg width="136" height="33" viewBox="0 0 136 33" fill="none" xmlns="http://www.w3.org/2000/svg">
<g clip-path="url(#clip0)">
<path d="M45.5255 0.369629C44.4038 0.736894 43.266 1.08819 42.1123 1.40755C30.5426 4.48939 18.8447 3.89857 8.28454 0.369629L6.2334 13.4315L10.3837 14.5493L14.2136 7.55526C15.2392 7.76284 16.2647 7.93849 17.3063 8.09817L18.4921 15.9704L22.7707 16.3377L25.3186 8.7848C26.3602 8.81674 27.4178 8.81674 28.4594 8.7848L31.0073 16.3377L35.2858 15.9704L36.4717 8.0822C37.4972 7.92252 38.5228 7.74688 39.5644 7.53929L43.3942 14.5493L47.5446 13.4475L45.5255 0.369629Z" fill="white"/>
<path d="M37.193 16.3697L33.3631 23.3797C32.3375 23.1721 31.312 22.9965 30.2704 22.8368L29.0846 14.9486L24.79 14.5813L22.2421 22.1342C21.1845 22.1023 20.1429 22.1023 19.1013 22.1342L16.5534 14.5813L12.2749 14.9486L11.089 22.8208C10.0475 22.9805 9.02188 23.1561 7.99632 23.3637L4.16646 16.3697L0.0161133 17.4875L2.06725 30.5334C12.6274 27.0044 24.3253 26.4136 35.895 29.5114C37.0487 29.8148 38.1865 30.1661 39.3082 30.5494L41.3593 17.4875L37.193 16.3697Z" fill="white"/>
<path d="M69.3543 8.51357C69.3543 8.51357 67.4954 6.08643 63.5534 6.08643C59.5954 6.08643 54.4194 8.33792 54.4194 15.4597C54.4194 22.5814 59.5954 24.8968 63.5534 24.8968C67.5115 24.8968 68.7774 22.8689 69.3543 21.8788C69.3543 26.2062 65.3642 28.314 60.3325 25.823L58.073 30.6932C64.5629 33.9667 74.1456 33.2162 74.1456 21.9108V6.53353H70.0273L69.3543 8.51357ZM64.5629 19.803C62.9605 19.803 60.5408 18.7012 60.5408 15.4597C60.5408 12.2182 62.9605 11.1164 64.5629 11.1164C66.1654 11.1164 68.5851 12.2182 68.5851 15.4597C68.5851 18.7012 66.1654 19.803 64.5629 19.803Z" fill="white"/>
<path d="M127.443 9.45541L126.449 6.53325H122.331V24.4494H128.052V15.4275C128.052 12.2977 130.776 10.8287 133.644 11.9305L136.016 6.83664C129.975 4.16998 127.443 9.45541 127.443 9.45541Z" fill="white"/>
<path d="M118.101 6.53353H113.982L113.293 8.51357C113.293 8.51357 111.434 6.08643 107.492 6.08643C103.534 6.08643 98.3584 8.72116 98.3584 15.4597C98.3584 22.1343 103.534 24.8968 107.492 24.8968C112.123 24.8968 113.293 21.8788 113.293 21.8788V24.4657H118.101V21.9108V6.53353ZM108.502 19.803C106.899 19.803 104.48 18.7012 104.48 15.4597C104.48 12.2182 106.899 11.1164 108.502 11.1164C110.104 11.1164 112.524 12.2182 112.524 15.4597C112.524 18.7012 110.104 19.803 108.502 19.803Z" fill="white"/>
<path d="M87.0771 5.68701C80.0424 5.68701 76.4048 10.6531 76.4048 15.2998C76.4048 19.9465 79.6738 25.4714 86.5643 25.4714C93.4549 25.4714 95.7945 20.9844 96.163 20.2659L92.3812 17.8068C91.6441 18.9884 89.8333 20.3776 87.5098 20.3776C85.6189 20.3776 83.4876 19.1481 82.7665 17.0084H96.3072C96.6918 11.9146 94.1119 5.68701 87.0771 5.68701ZM83.0389 13.1281C83.744 11.675 85.1061 10.717 86.9169 10.717C89.5609 10.717 90.4262 13.1281 90.4262 13.1281H83.0389Z" fill="white"/>
</g>
<defs>
<clipPath id="clip0">
<rect width="136" height="32" fill="white" transform="translate(0 0.369629)"/>
</clipPath>
</defs>
</svg>
