<svg width="15" height="15" viewBox="0 0 15 15" fill="none" xmlns="http://www.w3.org/2000/svg">
<path d="M8.08594 6.73828H6.91406V7.91016H8.08594V6.73828Z" fill="white"/>
<path d="M13.2422 1.17188H12.5391V0H11.3672V1.17188H3.63281V0H2.46094V1.17188H1.75781C0.788555 1.17188 0 1.96043 0 2.92969V13.2422C0 14.2114 0.788555 15 1.75781 15H5.6543H5.74219H7.786C7.38088 14.6656 7.02803 14.2702 6.74118 13.8281H5.74219H5.6543H1.75781C1.43473 13.8281 1.17188 13.5653 1.17188 13.2422V5.50781H13.8281V6.67969V6.73828V6.74118C14.2702 7.02803 14.6656 7.38091 15 7.786V6.73828V6.67969V2.92969C15 1.96043 14.2114 1.17188 13.2422 1.17188ZM13.8281 4.33594H1.17188V2.92969C1.17188 2.6066 1.43473 2.34375 1.75781 2.34375H2.46094V3.51562H3.63281V2.34375H11.3672V3.51562H12.5391V2.34375H13.2422C13.5653 2.34375 13.8281 2.6066 13.8281 2.92969V4.33594Z" fill="white"/>
<path d="M11.0449 7.08984C8.86409 7.08984 7.08984 8.86409 7.08984 11.0449C7.08984 13.2258 8.86409 15 11.0449 15C13.2258 15 15 13.2258 15 11.0449C15 8.86409 13.2258 7.08984 11.0449 7.08984ZM11.0449 13.8281C9.51026 13.8281 8.26172 12.5796 8.26172 11.0449C8.26172 9.51026 9.51026 8.26172 11.0449 8.26172C12.5796 8.26172 13.8281 9.51026 13.8281 11.0449C13.8281 12.5796 12.5796 13.8281 11.0449 13.8281Z" fill="white"/>
<path d="M11.6016 9.08203H10.4297V11.6309H12.5977V10.459H11.6016V9.08203Z" fill="white"/>
<path d="M5.74219 9.08203H4.57031V10.2539H5.74219V9.08203Z" fill="white"/>
<path d="M3.39844 9.08203H2.22656V10.2539H3.39844V9.08203Z" fill="white"/>
<path d="M3.39844 6.73828H2.22656V7.91016H3.39844V6.73828Z" fill="white"/>
<path d="M3.39844 11.4258H2.22656V12.5977H3.39844V11.4258Z" fill="white"/>
<path d="M5.74219 6.73828H4.57031V7.91016H5.74219V6.73828Z" fill="white"/>
<path d="M5.74219 11.4258H4.57031V12.5977H5.74219V11.4258Z" fill="white"/>
</svg>
