<svg width="16" height="16" viewBox="0 0 16 16" fill="none" xmlns="http://www.w3.org/2000/svg">
<path d="M10.333 8.7665H8.88634C7.69967 8.7665 6.73301 7.8065 6.73301 6.61317V5.1665C6.73301 4.89317 6.51301 4.6665 6.23301 4.6665H4.11967C2.57967 4.6665 1.33301 5.6665 1.33301 7.45317V11.8798C1.33301 13.6665 2.57967 14.6665 4.11967 14.6665H8.04634C9.58634 14.6665 10.833 13.6665 10.833 11.8798V9.2665C10.833 8.9865 10.6063 8.7665 10.333 8.7665Z" fill="currentColor"/>
<path d="M11.8795 1.3335H10.5662H9.83952H7.95285C6.44618 1.3335 5.22618 2.2935 5.17285 4.00683C5.21285 4.00683 5.24618 4.00016 5.28618 4.00016H7.17285H7.89952H9.21285C10.7529 4.00016 11.9995 5.00016 11.9995 6.78683V8.10016V9.90683V11.2202C11.9995 11.2602 11.9929 11.2935 11.9929 11.3268C13.4795 11.2802 14.6662 10.2935 14.6662 8.5535V7.24016V5.4335V4.12016C14.6662 2.3335 13.4195 1.3335 11.8795 1.3335Z" fill="currentColor"/>
<path d="M7.98676 4.7665C7.78009 4.55983 7.42676 4.69983 7.42676 4.9865V6.73317C7.42676 7.4665 8.04676 8.0665 8.80676 8.0665C9.28009 8.07317 9.94009 8.07317 10.5068 8.07317C10.7934 8.07317 10.9401 7.73983 10.7401 7.53983C10.0134 6.81317 8.72009 5.51317 7.98676 4.7665Z" fill="currentColor"/>
</svg>
