<svg width="16" height="16" viewBox="0 0 16 16" fill="none" xmlns="http://www.w3.org/2000/svg">
<path d="M3.80578 7.41678C3.80579 7.34129 3.82069 7.26655 3.84962 7.19684C3.87854 7.12714 3.92092 7.06385 3.97433 7.0106C4.02775 6.95735 4.09112 6.9152 4.16084 6.88655C4.23056 6.85791 4.30523 6.84335 4.38059 6.84371L5.3336 6.84682C5.48554 6.84682 5.63126 6.90729 5.7387 7.01493C5.84615 7.12256 5.90651 7.26855 5.90651 7.42078V11.0308C6.0138 10.9989 6.15159 10.9649 6.30236 10.9293C6.40709 10.9047 6.50043 10.8453 6.56724 10.7608C6.63404 10.6763 6.67039 10.5717 6.67037 10.464V5.98588C6.67037 5.83364 6.73072 5.68764 6.83816 5.57999C6.9456 5.47233 7.09132 5.41184 7.24328 5.41181H8.19818C8.35013 5.41184 8.49586 5.47233 8.60329 5.57999C8.71073 5.68764 8.7711 5.83364 8.7711 5.98588V10.142C8.7711 10.142 9.01018 10.045 9.24306 9.94657C9.32956 9.90993 9.40338 9.84857 9.45531 9.77015C9.50725 9.69175 9.53497 9.59975 9.53506 9.50566V4.55098C9.53506 4.39878 9.5954 4.2528 9.70282 4.14517C9.81024 4.03753 9.95593 3.97706 10.1079 3.97702H11.0628C11.2147 3.97702 11.3604 4.03749 11.4679 4.14513C11.5753 4.25277 11.6357 4.39876 11.6357 4.55098V8.63105C12.4635 8.02997 13.3025 7.30708 13.9683 6.4378C14.0649 6.31163 14.1288 6.16346 14.1543 6.00653C14.1799 5.8496 14.1662 5.68878 14.1146 5.53841C13.8064 4.6501 13.3166 3.83602 12.6763 3.14827C12.0361 2.46054 11.2596 1.91426 10.3965 1.54442C9.53341 1.17457 8.60276 0.989309 7.66411 1.00048C6.72545 1.01164 5.79946 1.219 4.9454 1.60927C4.09133 1.99954 3.32799 2.56413 2.70423 3.26692C2.08046 3.9697 1.61002 4.79521 1.32299 5.6906C1.03597 6.58598 0.938687 7.53153 1.03737 8.46675C1.13606 9.40197 1.42854 10.3062 1.89609 11.1217C1.97754 11.2624 2.09737 11.3769 2.2415 11.4517C2.38563 11.5265 2.54807 11.5585 2.70976 11.5441C2.89038 11.5282 3.11526 11.5056 3.38264 11.4742C3.49903 11.4609 3.60649 11.4053 3.68454 11.3178C3.7626 11.2302 3.80579 11.117 3.80589 10.9997L3.80578 7.41678Z" fill="white" fill-opacity="0.75"/>
<path d="M3.78491 13.2065C4.79143 13.9401 5.98092 14.3804 7.22176 14.4788C8.4626 14.5771 9.70641 14.3296 10.8156 13.7637C11.9247 13.1977 12.8559 12.3355 13.5063 11.2722C14.1565 10.209 14.5006 8.98618 14.5002 7.7392C14.5002 7.5836 14.493 7.42966 14.4827 7.27661C12.0176 10.9598 7.46616 12.6817 3.78512 13.206" fill="white" fill-opacity="0.75"/>
</svg>
