<svg width="17" height="16" viewBox="0 0 17 16" fill="none" xmlns="http://www.w3.org/2000/svg">
<path d="M6.1534 5.89349C6.12498 5.82497 6.11751 5.74957 6.13194 5.67681C6.14638 5.60405 6.18207 5.53721 6.23449 5.48474L8.48449 3.23474C8.51932 3.19987 8.56068 3.17221 8.6062 3.15334C8.65173 3.13447 8.70053 3.12476 8.74981 3.12476C8.79909 3.12476 8.84789 3.13447 8.89341 3.15334C8.93893 3.17221 8.98029 3.19987 9.01512 3.23474L11.2651 5.48474C11.3176 5.53718 11.3534 5.60403 11.3679 5.67681C11.3824 5.74959 11.3749 5.82504 11.3465 5.8936C11.3181 5.96216 11.27 6.02074 11.2083 6.06195C11.1466 6.10315 11.074 6.12511 10.9998 6.12505H6.49981C6.42564 6.12504 6.35314 6.10303 6.29148 6.06181C6.22982 6.02059 6.18177 5.96202 6.1534 5.89349ZM10.9998 9.87505H6.49981C6.4256 9.87499 6.35304 9.89695 6.29131 9.93816C6.22959 9.97936 6.18148 10.0379 6.15307 10.1065C6.12467 10.1751 6.11724 10.2505 6.13173 10.3233C6.14623 10.3961 6.18199 10.4629 6.23449 10.5154L8.48449 12.7654C8.51932 12.8002 8.56068 12.8279 8.6062 12.8468C8.65173 12.8656 8.70053 12.8753 8.74981 12.8753C8.79909 12.8753 8.84789 12.8656 8.89341 12.8468C8.93893 12.8279 8.98029 12.8002 9.01512 12.7654L11.2651 10.5154C11.3176 10.4629 11.3534 10.3961 11.3679 10.3233C11.3824 10.2505 11.3749 10.1751 11.3465 10.1065C11.3181 10.0379 11.27 9.97936 11.2083 9.93816C11.1466 9.89695 11.074 9.87499 10.9998 9.87505Z" fill="white" fill-opacity="0.75"/>
</svg>
