<svg width="20" height="20" viewBox="0 0 20 20" fill="none" xmlns="http://www.w3.org/2000/svg">
<path d="M10.0001 0.25C7.64103 0.250238 5.36203 1.10569 3.58549 2.6578C1.80894 4.20992 0.655315 6.35346 0.338409 8.69113C0.0215017 11.0288 0.562807 13.4021 1.862 15.3712C3.1612 17.3403 5.13018 18.7716 7.40404 19.3999C7.4997 19.4285 7.60009 19.4376 7.69934 19.4269C7.79859 19.4161 7.8947 19.3857 7.98202 19.3373C8.06935 19.2889 8.14614 19.2236 8.20789 19.1451C8.26963 19.0667 8.3151 18.9767 8.34162 18.8805C8.36814 18.7842 8.37518 18.6837 8.36233 18.5847C8.34948 18.4857 8.31699 18.3902 8.26677 18.304C8.21655 18.2177 8.14961 18.1423 8.06988 18.0822C7.99015 18.0222 7.89922 17.9786 7.80244 17.9541C5.91777 17.4327 4.27967 16.2586 3.18037 14.6414C2.08108 13.0242 1.59212 11.069 1.80072 9.12469C2.00932 7.18038 2.90192 5.37343 4.31925 4.02621C5.73659 2.67899 7.58648 1.87914 9.53886 1.76938C11.4912 1.65961 13.4191 2.24707 14.9785 3.42693C16.538 4.60679 17.6275 6.30231 18.0527 8.21099C18.4779 10.1197 18.2112 12.1173 17.3001 13.8476C16.389 15.5778 14.8928 16.9281 13.0785 17.6575C13.1242 16.6727 13.047 15.6861 12.8488 14.7204C13.9104 14.4777 14.8551 13.8748 15.5224 13.0143C16.1897 12.1537 16.5384 11.0886 16.5091 10C16.5635 8.97227 16.2875 7.95411 15.7216 7.0945C15.8243 6.24277 15.7222 5.37884 15.4239 4.5745C15.3668 4.40789 15.2529 4.26664 15.1022 4.17547C14.9516 4.0843 14.7736 4.049 14.5995 4.07575C13.6923 4.19607 12.8253 4.52497 12.0665 5.03665C11.392 4.85681 10.698 4.76054 10.0001 4.75C9.23879 4.76942 8.4824 4.87806 7.74641 5.0737C7.02031 4.51252 6.13199 4.20161 5.21441 4.1875C5.05615 4.18355 4.90065 4.22945 4.76989 4.31869C4.63913 4.40793 4.53972 4.53601 4.48571 4.68483C4.21086 5.44982 4.1155 6.26775 4.20701 7.07545C3.66307 7.95285 3.38207 8.96779 3.39731 10C3.42309 11.0823 3.79981 12.1269 4.47073 12.9766C5.14166 13.8263 6.07048 14.4349 7.11731 14.711C7.07404 14.8875 7.03849 15.0868 7.00736 15.3028C6.23554 15.3462 5.82034 14.8927 5.27051 14.1946C4.94053 13.6471 4.42321 13.2377 3.81446 13.0425C3.62417 13.0045 3.42661 13.0434 3.26485 13.1505C3.10309 13.2577 2.99027 13.4245 2.95099 13.6145C2.91098 13.808 2.94739 14.0094 3.05257 14.1767C3.15776 14.3439 3.32357 14.464 3.51529 14.5117C3.63431 14.5417 3.92104 14.9058 4.09241 15.1233C4.39725 15.604 4.80998 16.0069 5.29781 16.3001C5.78563 16.5932 6.33511 16.7686 6.90259 16.8123C7.23298 16.8059 7.56142 16.7598 7.88081 16.675C8.0197 16.6186 8.14271 16.5292 8.23915 16.4144C8.33559 16.2997 8.40253 16.1631 8.43416 16.0166C8.4294 15.5173 8.54763 15.0245 8.77841 14.5818C8.87073 14.4725 8.9299 14.3392 8.94893 14.1974C8.96795 14.0557 8.94606 13.9114 8.88582 13.7817C8.82557 13.652 8.7295 13.5422 8.60892 13.4653C8.48834 13.3884 8.34828 13.3476 8.20526 13.3476C7.33329 13.3098 6.50783 12.9438 5.89436 12.323C5.28089 11.7021 4.92474 10.8724 4.89731 10C4.86512 9.20191 5.09635 8.41538 5.55536 7.7617C5.62865 7.67815 5.68239 7.57932 5.71267 7.47239C5.74295 7.36546 5.74901 7.25312 5.73041 7.14355C5.64959 6.68358 5.65358 6.21271 5.74219 5.75418C6.23389 5.8591 6.6864 6.0996 7.04846 6.44845C7.14494 6.53935 7.26383 6.60298 7.39298 6.63284C7.52212 6.6627 7.65688 6.65772 7.78346 6.6184C8.50414 6.40391 9.24877 6.28015 10.0001 6.25C10.6742 6.26534 11.343 6.37428 11.9871 6.5737C12.1092 6.61408 12.2397 6.62242 12.3659 6.59793C12.4922 6.57344 12.61 6.51693 12.7082 6.43383C13.1393 6.08295 13.6421 5.83072 14.1811 5.69485C14.2925 6.16436 14.295 6.6531 14.1886 7.12375C14.1591 7.25873 14.1654 7.39908 14.2068 7.53089C14.2483 7.6627 14.3234 7.7814 14.4248 7.87525C14.8829 8.48332 15.0918 9.2432 15.0091 10C15.027 10.441 14.954 10.8811 14.7946 11.2927C14.6352 11.7043 14.3928 12.0788 14.0826 12.3927C13.7724 12.7067 13.4009 12.9536 12.9912 13.1179C12.5815 13.2822 12.1424 13.3605 11.7012 13.3479C11.5486 13.348 11.3996 13.3946 11.2742 13.4815C11.1488 13.5685 11.0529 13.6916 10.9993 13.8345C10.9457 13.9773 10.9369 14.1331 10.9742 14.2811C11.0115 14.4291 11.093 14.5622 11.2079 14.6626C11.6495 15.0479 11.5843 17.689 11.5598 18.6826C11.5652 18.7962 11.5949 18.9073 11.6469 19.0084C11.6989 19.1095 11.772 19.1983 11.8612 19.2688C11.9505 19.3393 12.0538 19.3898 12.1642 19.4169C12.2746 19.444 12.3896 19.4472 12.5013 19.4261C14.7893 18.8182 16.7781 17.3988 18.0966 15.4326C19.4151 13.4664 19.9733 11.0877 19.6671 8.74024C19.3609 6.39276 18.2112 4.23684 16.4325 2.67463C14.6537 1.11242 12.3674 0.250625 10.0001 0.25Z" fill="#BCBCBC"/>
</svg>
