<svg width="34" height="21" fill="none" xmlns="http://www.w3.org/2000/svg"><path d="M31.988 0c-.779.257-1.563.502-2.365.717A40.674 40.674 0 0 1 6.153.006L4.728 9.07l2.882.77 2.653-4.858c.712.143 1.428.268 2.146.379l.826 5.468 2.973.26 1.766-5.241c.725.018 1.452.018 2.18-.003l1.766 5.244 2.973-.26.829-5.477a44.638 44.638 0 0 0 2.14-.38l2.659 4.869 2.883-.77L31.986 0Z" fill="#fff"/><path d="m26.203 11.116-2.658 4.868a45.233 45.233 0 0 0-2.14-.379l-.83-5.477-2.972-.26-1.767 5.244a48.284 48.284 0 0 0-2.179-.003l-1.766-5.241-2.973.26-.826 5.468c-.722.108-1.437.236-2.147.38l-2.652-4.86-2.883.77 1.425 9.065a40.648 40.648 0 0 1 23.47-.71c.803.214 1.587.456 2.365.716l1.425-9.067-2.892-.774Z" fill="#fff"/></svg>