<svg width="64" height="79" viewBox="0 0 64 79" fill="none" xmlns="http://www.w3.org/2000/svg">
<g clip-path="url(#clip0_133_7518)">
<path d="M19.5429 31.0475H20.505C25.0997 31.0475 29.6944 31.032 34.2915 31.0475C36.1688 31.0475 37.9475 30.7383 39.5949 29.8483C39.7144 29.7949 39.8451 29.7672 39.9774 29.7672C40.1097 29.7672 40.2403 29.7949 40.3599 29.8483C45.2057 32.7016 51.4289 30.1266 52.736 25.1578C52.7501 25.1092 52.8041 25.0694 52.8698 24.9899C56.2982 27.3463 59.797 27.4191 63.3803 25.1511C63.428 25.2472 63.4612 25.349 63.4789 25.4537C63.4507 31.8425 63.5 38.2335 63.3545 44.6223C63.2536 49.07 62.0897 53.352 60.1326 57.3911C57.2367 63.2839 55.8127 69.7223 55.9697 76.2131C56.0189 78.3552 55.2868 78.9978 52.9847 78.9978H21.385C19.273 78.9978 18.6089 78.406 18.5151 76.4229C18.2992 71.9377 16.5322 68.0907 13.1624 64.9062C10.4779 62.3666 7.78707 59.8343 5.09001 57.3094C2.01358 54.4452 0.5 50.978 0.5 46.9257C0.5 39.4319 0.5 31.9397 0.5 24.4489C0.5 19.9261 3.66326 16.9404 8.47854 16.9272C17.1705 16.9139 25.864 16.9139 34.559 16.9272C37.8936 16.9272 40.4021 18.791 40.8949 21.5647C41.5238 25.2108 38.7548 28.2097 34.6998 28.2208C28.0846 28.2384 21.4695 28.2208 14.8543 28.2208C14.5915 28.2208 14.3263 28.2208 14.0635 28.2208C13.2985 28.234 12.7658 28.5697 12.5922 29.2808C12.4185 29.9919 12.7377 30.5307 13.437 30.9172C14.845 31.6923 16.328 32.3946 17.5905 33.3464C21.7159 36.4536 23.8091 40.6186 24.3699 45.5101C24.4568 46.2477 24.4826 46.9919 24.5201 47.7339C24.5717 48.7299 25.1232 49.3482 25.9915 49.3615C26.8597 49.3747 27.5121 48.7167 27.5191 47.6942C27.559 42.266 25.7075 37.4893 21.9036 33.3972C21.1504 32.6221 20.3736 31.88 19.5429 31.0475Z" fill="#282828"/>
<path d="M42.2814 27.545C44.2737 24.6454 44.5741 21.6729 42.9174 18.5966C42.2252 17.3775 41.2341 16.3313 40.0263 15.5447C39.879 15.4355 39.7567 15.2994 39.6667 15.1445C39.5768 14.9897 39.5211 14.8193 39.503 14.6437C39.4624 11.892 39.4569 9.13967 39.4866 6.38657C39.5195 3.58636 41.8004 1.44645 44.7055 1.43099C47.6505 1.41553 49.9667 3.55986 49.9831 6.40866C50.0112 12.0245 50.0253 17.6382 49.9831 23.2519C49.9455 27.0437 45.677 29.4353 42.2814 27.545Z" fill="#282828"/>
<path d="M52.9875 14.7432C52.9875 13.3387 52.9711 11.9364 52.9875 10.534C52.9965 9.28277 53.5106 8.0815 54.4256 7.17364C55.3406 6.26577 56.5882 5.71921 57.9154 5.64471C60.5836 5.46584 63.0945 7.32307 63.3573 9.89582C63.5567 11.8591 63.4605 13.851 63.4699 15.8297C63.4699 17.0951 63.5403 18.3715 63.3901 19.6215C63.0593 22.34 60.6657 24.1354 57.7582 23.9587C55.1042 23.7953 53.0016 21.6443 52.9688 19.0341C52.9711 17.603 52.9875 16.1742 52.9875 14.7432Z" fill="#282828"/>
<path d="M36.4289 14.1048H25.984V13.0492C25.984 10.3815 25.9629 7.71383 25.984 5.04612C26.0098 2.69199 27.5703 0.74863 29.8231 0.187704C32.0759 -0.373222 34.5117 0.441666 35.6685 2.34528C36.1187 3.05017 36.3841 3.84575 36.4429 4.66628C36.5298 7.74474 36.4805 10.8254 36.4781 13.9083C36.4717 13.9757 36.4551 14.0419 36.4289 14.1048V14.1048Z" fill="#282828"/>
<path d="M22.9851 14.0562H12.6412C12.5917 13.9782 12.556 13.8932 12.5356 13.8044C12.5356 11.1875 12.4675 8.56835 12.5661 5.95585C12.6295 4.84437 13.1033 3.7886 13.9058 2.9709C14.7083 2.1532 15.789 1.62492 16.9613 1.47728C19.5426 1.17473 21.8259 2.44675 22.6683 4.66396C22.8239 5.01999 22.9174 5.39732 22.9452 5.78139C22.9781 8.2106 22.9757 10.6398 22.9851 13.0536C22.9875 13.3539 22.9851 13.6542 22.9851 14.0562Z" fill="#282828"/>
</g>
<defs>
<clipPath id="clip0_133_7518">
<rect width="63" height="79" fill="white" transform="translate(0.5)"/>
</clipPath>
</defs>
</svg>
