<svg width="98" height="59" viewBox="0 0 98 59" fill="none" xmlns="http://www.w3.org/2000/svg">
<g clip-path="url(#clip0_133_7550)">
<path d="M0.499956 11.4495C5.67673 11.4495 10.8535 11.4495 16.0303 11.4495C16.6603 11.4495 17.0171 11.3023 17.3434 10.6878C21.0148 3.88251 26.7532 0.327527 34.4602 0.0634425C37.7495 -0.0482855 41.0261 0.012657 44.3102 0.0634425C45.6714 0.0641083 47.0191 0.334 48.2763 0.857688C49.5334 1.38138 50.6754 2.14859 51.637 3.11548C52.5985 4.08236 53.3608 5.22996 53.8801 6.49266C54.3995 7.75536 54.6658 9.10841 54.6638 10.4745C54.7093 18.303 54.679 26.1291 54.6638 33.9551C54.6638 35.4787 53.9047 36.2024 52.3588 36.1719C46.6886 36.0678 41.7725 31.1797 41.6105 25.446C41.5599 23.5771 41.5979 21.7082 41.5953 19.8368C41.5953 17.7419 40.5833 16.3884 38.888 16.2285C37.1928 16.0685 36.0568 17.1299 35.576 19.1816C34.3261 24.5141 31.0748 28.0691 25.9107 29.7932C24.6456 30.2148 23.259 30.3493 21.9155 30.4509C20.1039 30.588 18.8211 31.7434 18.8666 33.3965C18.9096 34.9886 20.238 36.2075 21.9788 36.1694C27.2922 36.0526 31.8617 34.11 35.6772 30.3925C35.9531 30.0717 36.2067 29.7324 36.4363 29.3768C36.7399 30.1919 36.8588 30.7531 37.1397 31.2152C38.1948 32.9648 39.3207 34.6737 40.3809 36.4207C40.6162 36.8093 40.8717 37.3247 40.8085 37.7336C40.3892 40.4486 40.8673 43.2268 42.1697 45.6434C42.2434 45.802 42.283 45.9744 42.2861 46.1494C42.2891 46.3243 42.2555 46.498 42.1874 46.6591C40.1363 50.6102 40.1363 54.552 42.1874 58.4845C42.2432 58.5953 42.2914 58.7099 42.3316 58.8273C42.3316 58.8501 42.3114 58.8857 42.2659 59.005C41.2715 59.005 40.2417 59.005 39.2119 59.005C35.8366 58.9593 32.4411 59.1168 29.0911 58.8044C24.3217 58.3626 20.5264 55.9706 17.7053 52.0754C17.5565 51.8427 17.3467 51.6557 17.099 51.5348C16.8513 51.4138 16.5752 51.3637 16.301 51.3898C11.0306 51.4101 5.7577 51.3898 0.487305 51.3898L0.499956 11.4495Z" fill="#282828"/>
<path d="M60.2861 27.6121V7.29791C62.6746 6.86877 65.1795 6.40916 67.687 5.96479C75.1089 4.65452 82.5308 3.34764 89.9527 2.04415C93.4949 1.41949 96.7057 3.68706 97.3889 7.29283C98.0265 10.6523 95.7139 14.0244 92.2425 14.6567C84.705 16.0305 77.1651 17.3433 69.6099 18.6789C69.0855 18.7464 68.5768 18.9054 68.107 19.1487C69.2456 19.362 70.3841 19.588 71.5202 19.7886C78.3821 21.0041 85.2448 22.2178 92.1084 23.4299C95.6506 24.0622 98.024 27.3785 97.4015 30.7735C96.7336 34.4173 93.5076 36.6925 89.902 36.0577C86.5166 35.4635 83.1287 34.882 79.7509 34.2472C79.3443 34.1439 78.9896 33.8946 78.754 33.5464C76.2795 29.6664 72.7701 27.6629 68.1778 27.6172C65.6223 27.5918 63.0668 27.6121 60.2861 27.6121Z" fill="#282828"/>
<path d="M51.8455 46.1589C48.574 45.1762 46.6207 43.1931 46.5498 40.8468C48.0679 41.1616 49.5861 41.5578 51.1219 41.7762C54.9779 42.3272 58.2798 40.5954 59.6992 37.3299C59.9533 36.7159 60.135 36.0742 60.2407 35.4178C60.3546 34.7703 60.352 34.1025 60.4052 33.3864C60.5797 33.3518 60.7564 33.3289 60.934 33.3178C63.4287 33.3178 65.921 33.2899 68.4158 33.3178C70.068 33.3283 71.6517 33.9823 72.8328 35.1419C74.0139 36.3015 74.7001 37.8762 74.7467 39.5337C74.7933 41.1913 74.1966 42.8023 73.0826 44.0269C71.9685 45.2515 70.4241 45.9941 68.775 46.098C67.9527 46.1589 67.1228 46.098 66.2221 46.098C67.2342 46.7734 68.2083 47.2559 68.9775 47.9567C69.8992 48.8139 70.541 49.9308 70.8188 51.1607C71.0965 52.3907 70.997 53.6761 70.5335 54.8483C70.0831 56.0425 69.285 57.073 68.2431 57.8058C67.2011 58.5386 65.9635 58.9396 64.6913 58.9569C60.7139 58.989 56.7364 58.989 52.7589 58.9569C51.195 58.9666 49.6819 58.4006 48.5059 57.3659C47.3299 56.3313 46.5728 54.8998 46.3778 53.3425C45.9451 50.2269 47.9541 47.2483 51.0966 46.3545C51.3395 46.3113 51.5723 46.2402 51.8455 46.1589Z" fill="#282828"/>
</g>
<defs>
<clipPath id="clip0_133_7550">
<rect width="97" height="59" fill="white" transform="translate(0.5)"/>
</clipPath>
</defs>
</svg>
