<svg width="465" height="156" viewBox="0 0 465 156" fill="none" xmlns="http://www.w3.org/2000/svg" preserveAspectRatio="none"><rect width="465" height="156" rx="16" fill="#222225"/><path d="M0 16C0 7.163 7.163 0 16 0h433c8.837 0 16 7.163 16 16v36H0V16Z" fill="#2B2B2E"/><rect x="20" y="17" width="70" height="18" rx="9" fill="#fff" fill-opacity=".1"/><rect x="147.154" y="17" width="160" height="18" rx="9" fill="#fff" fill-opacity=".1"/><rect x="20" y="69" width="70" height="18" rx="9" fill="#fff" fill-opacity=".1"/><rect x="147.154" y="69" width="160" height="18" rx="9" fill="#fff" fill-opacity=".1"/><path d="M0 104h465v36c0 8.837-7.163 16-16 16H16c-8.837 0-16-7.163-16-16v-36Z" fill="#2B2B2E"/><rect x="20" y="121" width="70" height="18" rx="9" fill="#fff" fill-opacity=".1"/><rect x="147.154" y="121" width="160" height="18" rx="9" fill="#fff" fill-opacity=".1"/></svg>