<svg width="15" height="15" fill="none" xmlns="http://www.w3.org/2000/svg"><path d="M11.25 1.25c1.379 0 2.5 1.121 2.5 2.5v7.5c0 1.379-1.121 2.5-2.5 2.5h-7.5a2.503 2.503 0 0 1-2.5-2.5v-7.5c0-1.379 1.121-2.5 2.5-2.5h7.5Zm0-1.25h-7.5A3.75 3.75 0 0 0 0 3.75v7.5A3.75 3.75 0 0 0 3.75 15h7.5A3.75 3.75 0 0 0 15 11.25v-7.5A3.75 3.75 0 0 0 11.25 0Z" fill="#fff"/><path d="M11 6.5H4c-.3 0-.5-.2-.5-.5s.2-.5.5-.5h7c.3 0 .5.2.5.5s-.2.5-.5.5ZM11 9.5H4c-.3 0-.5-.2-.5-.5s.2-.5.5-.5h7c.3 0 .5.2.5.5s-.2.5-.5.5Z" fill="#fff"/><path d="M5 12h-.1c-.25-.05-.45-.35-.35-.6l2-8c.05-.25.35-.45.6-.35.25.05.45.35.35.6l-2 8c-.05.2-.3.35-.5.35ZM8 12h-.1c-.25-.05-.45-.35-.35-.6l2-8c.05-.25.35-.45.6-.35.25.05.45.35.35.6l-2 8c-.05.2-.3.35-.5.35Z" fill="#fff"/></svg>