<svg width="16" height="16" viewBox="0 0 16 16" fill="none" xmlns="http://www.w3.org/2000/svg">
<path d="M8 0C3.58887 0 0 3.58887 0 8C0 12.4111 3.58887 16 8 16C12.4111 16 16 12.4111 16 8C16 3.58887 12.4111 0 8 0ZM11.2356 10.2929C11.3658 10.4231 11.3658 10.6342 11.2356 10.7643L10.7644 11.2356C10.6342 11.3658 10.4232 11.3658 10.2929 11.2356L8 8.94272L5.70706 11.2357C5.57684 11.3658 5.36584 11.3658 5.23562 11.2357L4.76434 10.7643C4.63412 10.6342 4.63412 10.4231 4.76434 10.2929L7.05728 7.99997L4.76434 5.70703C4.63412 5.57688 4.63412 5.36581 4.76434 5.23562L5.23562 4.76431C5.36584 4.63416 5.57684 4.63416 5.70706 4.76431L8 7.05725L10.2929 4.76431C10.4232 4.63416 10.6342 4.63416 10.7644 4.76431L11.2357 5.23562C11.3659 5.36578 11.3659 5.57684 11.2357 5.70703L8.94272 7.99997L11.2356 10.2929Z" fill="#F24A4A"/>
</svg>
