<svg width="20" height="20" viewBox="0 0 20 20" fill="none" xmlns="http://www.w3.org/2000/svg">
<g clip-path="url(#clip0_6242_1111)">
<path d="M2.66663 5.16668V9.16668M2.66663 9.16668H6.66663M2.66663 9.16668L5.75996 6.26001C6.47646 5.54315 7.36287 5.01948 8.3365 4.73786C9.31012 4.45624 10.3392 4.42584 11.3278 4.64952C12.3163 4.87319 13.2321 5.34363 13.9896 6.01696C14.7472 6.69028 15.3218 7.54453 15.66 8.50001M17.3333 15.8333V11.8333M17.3333 11.8333H13.3333M17.3333 11.8333L14.24 14.74C13.5235 15.4569 12.637 15.9805 11.6634 16.2622C10.6898 16.5438 9.6607 16.5742 8.67215 16.3505C7.6836 16.1268 6.76783 15.6564 6.01027 14.9831C5.25271 14.3097 4.67807 13.4555 4.33996 12.5" stroke="white" stroke-width="1.6" stroke-linecap="round" stroke-linejoin="round"/>
</g>
<defs>
<clipPath id="clip0_6242_1111">
<rect width="16" height="16" fill="white" transform="translate(2 2.5)"/>
</clipPath>
</defs>
</svg>
