<svg width="501" height="670" viewBox="0 0 501 670" fill="none" xmlns="http://www.w3.org/2000/svg">
<g style="mix-blend-mode:color-dodge" opacity="0.6" filter="url(#filter0_f_915_16370)">
<ellipse cx="256.628" cy="590.293" rx="131.948" ry="28.1" fill="#2BD071"/>
</g>
<g style="mix-blend-mode:color-dodge" filter="url(#filter1_f_915_16370)">
<ellipse cx="256.629" cy="422.101" rx="83.0783" ry="182.446" fill="#2BD071"/>
</g>
<g style="mix-blend-mode:color-dodge" opacity="0.45" filter="url(#filter2_f_915_16370)">
<path d="M66.9948 128.033C58.6856 96.3396 82.5956 65.353 115.36 65.353H385.715C418.215 65.353 442.078 95.8726 434.239 127.413L323.546 572.782H183.596L66.9948 128.033Z" fill="url(#paint0_linear_915_16370)"/>
</g>
<g style="mix-blend-mode:color-dodge">
<ellipse cx="258.258" cy="590.108" rx="122.988" ry="36.2449" fill="#2BD071"/>
</g>
<path d="M260.323 467.536L260.324 467.536L260.332 467.536L260.38 467.535C260.426 467.535 260.499 467.535 260.597 467.534C260.793 467.531 261.091 467.526 261.481 467.515C262.26 467.492 263.405 467.445 264.836 467.348C267.704 467.152 271.701 466.754 276.204 465.948C285.311 464.316 296.045 461.088 303.812 454.861L260.323 467.536ZM260.323 467.536L260.322 467.536M260.323 467.536L260.322 467.536M260.322 467.536L260.322 467.536M260.322 467.536L260.322 467.536M260.322 467.536L256.582 467.522M260.322 467.536L256.582 467.522M256.582 467.522L256.819 471.257M256.582 467.522L256.819 471.257M256.819 471.257L257.515 482.237L257.702 485.172L260.625 485.494L261.008 482.015M256.819 471.257L261.008 482.015M261.008 482.015C260.625 485.494 260.626 485.494 260.627 485.494L260.63 485.495L260.638 485.495L260.66 485.498L260.731 485.505C260.79 485.511 260.872 485.519 260.978 485.528C261.188 485.547 261.489 485.572 261.873 485.598C262.642 485.65 263.747 485.708 265.133 485.734C267.902 485.785 271.806 485.71 276.402 485.209C285.564 484.21 297.642 481.499 308.948 474.565C318.366 468.799 325.143 460.514 331.396 450.462C335.373 444.069 339.266 436.733 343.508 428.738C345.856 424.314 348.311 419.687 350.946 414.908L350.948 414.904C352.3 412.444 356.691 406.882 362.744 403.442C368.584 400.124 375.673 398.884 383.398 404.086C389.251 408.028 392.099 414.291 393.265 421.018L393.266 421.021C393.912 424.724 397.14 426.349 399.877 426.121C402.621 425.893 405.547 423.74 405.523 419.957L405.523 419.957C405.436 406.455 399.376 395.017 390.048 388.383C380.671 381.715 368.213 380.073 355.91 385.798C341.519 392.491 333.408 406.564 326.493 420.028C325.621 421.726 324.769 423.413 323.925 425.084C321.345 430.195 318.844 435.148 316.088 439.767C312.452 445.863 308.542 451.067 303.813 454.861L261.008 482.015Z" fill="#74698B" stroke="#242424" stroke-width="7"/>
<g opacity="0.3">
<path d="M347.874 413.229C332.834 440.508 324.631 460.861 307.12 471.58C285.658 484.738 260.997 482.009 260.997 482.009L260.658 476.502C266.569 476.838 286.977 477.052 305.079 465.949C322.579 455.224 330.782 434.871 345.829 407.581C349.087 401.681 365.139 383.299 383.301 395.545C389.132 399.474 392.293 405.264 393.9 411.34C392.054 407.419 389.315 403.87 385.335 401.187C367.174 388.942 351.122 407.323 347.874 413.229Z" fill="#242424"/>
</g>
<g opacity="0.3">
<path d="M396.714 420.42C396.493 419.138 396.208 417.865 395.86 416.599C397.447 417.588 400 416.725 399.989 414.337C399.963 410.772 399.497 407.381 398.632 404.219C400.766 408.869 401.994 414.193 402.023 419.979C402.038 423.257 397.265 423.638 396.714 420.42Z" fill="#242424"/>
<path d="M397.79 422.55C397.113 422.16 396.575 421.479 396.389 420.47C396.159 419.153 395.875 417.879 395.545 416.683L395.323 415.89L396.02 416.321C396.761 416.779 397.77 416.799 398.542 416.357C399.266 415.947 399.665 415.231 399.662 414.341C399.635 410.879 399.185 407.512 398.317 404.304L398.915 404.087C401.152 408.944 402.303 414.298 402.333 419.981C402.346 421.852 400.933 422.841 399.623 422.958C399.018 423.008 398.355 422.877 397.79 422.55ZM397.027 420.364C397.282 421.843 398.492 422.408 399.582 422.313C400.643 422.216 401.716 421.459 401.713 419.978C401.692 415.765 401.04 411.749 399.776 407.972C400.116 410.047 400.291 412.175 400.316 414.334C400.317 415.459 399.801 416.404 398.87 416.916C398.104 417.347 397.169 417.429 396.359 417.168C396.607 418.198 396.829 419.273 397.027 420.364Z" fill="#242424"/>
</g>
<g opacity="0.3">
<path d="M395.854 416.61C395.273 416.259 394.828 415.647 394.673 414.789C394.467 413.635 394.216 412.483 393.918 411.335C394.727 413.03 395.361 414.801 395.854 416.61Z" fill="#74698B"/>
<path d="M396.359 417.271L395.695 416.858C395.203 416.559 394.563 415.953 394.373 414.823C394.173 413.657 393.922 412.506 393.627 411.404L394.207 411.192C394.986 412.839 395.646 414.64 396.164 416.508L396.359 417.271ZM395.001 414.86C395.048 415.035 395.095 415.21 395.172 415.358C395.108 415.188 395.055 415.024 395.001 414.86Z" fill="#242424"/>
</g>
<path d="M185.469 455.256C185.331 462.278 184.697 470.485 181.195 473.52C181.002 473.7 180.768 473.796 180.533 473.838C179.954 473.948 179.32 473.658 179.031 473.079L179.003 473.024L175.901 466.899C175.639 466.375 175.129 466.099 174.605 466.099C174.302 466.099 173.998 466.195 173.737 466.388C173.047 466.885 172.647 467.685 172.647 468.527V480.914C172.647 481.963 171.958 482.915 170.952 483.19C167.546 484.101 163.59 479.48 161.811 473.658C155.814 471.437 154.504 465.037 155.428 456.663L155.456 456.511L155.635 455.09L155.704 454.58H182.601L185.469 455.256Z" fill="#FFBD99"/>
<path d="M170.028 485.342C165.823 485.342 162.059 480.597 160.143 475.162C151.099 470.982 152.519 458.456 154.835 447.903C154.959 447.365 155.29 446.883 155.759 446.593C156.228 446.303 156.807 446.207 157.344 446.331L185.952 453.228C186.889 453.449 187.551 454.304 187.537 455.284C187.399 463.064 186.682 471.492 182.546 475.079C181.733 475.783 180.671 476.059 179.623 475.852C178.562 475.645 177.68 474.969 177.197 474.003L174.743 469.147V480.887C174.743 482.887 173.42 484.653 171.517 485.163C171.007 485.287 170.524 485.342 170.028 485.342ZM158.447 450.856C155.993 463.271 157.275 469.727 162.542 471.686C163.149 471.906 163.617 472.403 163.797 473.024C165.41 478.266 168.622 481.632 170.428 481.163C170.511 481.135 170.593 481.025 170.593 480.887V468.513C170.593 467.009 171.31 465.588 172.523 464.692C173.364 464.085 174.426 463.864 175.432 464.112C176.439 464.361 177.294 465.023 177.762 465.947L180.464 471.286C182.808 468.237 183.249 460.898 183.373 456.87L158.447 450.856Z" fill="#242424"/>
<path d="M163.259 481.107C160.309 476.196 160.267 470.513 160.764 465.133C160.805 464.692 161.191 464.361 161.646 464.402C162.046 464.443 162.349 464.761 162.377 465.147C162.707 469.892 163.548 475.107 166.637 478.707C168.512 481.066 164.886 483.659 163.259 481.107Z" fill="#242424"/>
<path d="M193.217 335.545L191.397 457.546C177.638 458.829 164.83 458.691 154.973 454.139C153.801 453.601 153.112 452.373 153.208 451.104L154.132 439.061L154.256 437.42C148.466 435.944 153.98 376.088 174.633 348.65C179.858 341.739 186.034 336.87 193.217 335.545Z" fill="#16B768"/>
<g opacity="0.6">
<path d="M159.536 454.152C158.365 453.614 157.675 452.387 157.772 451.118L158.695 439.075C158.944 438.923 159.192 438.757 159.44 438.606C158.957 438.068 158.268 437.226 157.634 436.109C154.821 431.17 155.69 425.859 156.076 423.321C158.944 404.974 154.863 418.438 158.985 400.615C162.583 385.068 164.376 377.302 167.836 367.59C174.771 348.14 179.555 343.532 183.58 340.897C187.247 338.511 190.818 337.435 193.189 336.911L193.203 335.531C186.007 336.869 179.844 341.725 174.633 348.636C153.994 376.088 148.48 435.957 154.27 437.419L154.146 439.061L153.222 451.104C153.126 452.387 153.815 453.601 154.987 454.139C162.128 457.436 170.828 458.415 180.313 458.208C172.592 458.043 165.52 456.911 159.536 454.152Z" fill="white"/>
</g>
<path d="M178.079 460.333C169.849 460.333 161.315 459.353 154.118 456.029C152.188 455.132 151.003 453.09 151.168 450.952L152.133 438.427C150.782 436.895 149.789 433.24 150.093 424.232C150.492 412.023 153.512 390.821 160.695 371.246C166.402 355.686 176.604 336.525 192.845 333.504C193.451 333.393 194.086 333.559 194.554 333.959C195.023 334.359 195.299 334.952 195.285 335.573L193.465 457.588C193.451 458.65 192.638 459.519 191.59 459.615C187.399 460.002 182.794 460.333 178.079 460.333ZM155.166 435.543C155.924 435.902 156.407 436.702 156.338 437.571L155.29 451.256C155.263 451.683 155.483 452.083 155.855 452.249C163.672 455.863 174.067 456.912 189.371 455.642L191.121 338.208C178.231 342.332 169.642 358.914 164.624 372.529C160.198 384.544 156.724 399.387 155.097 413.251C153.429 427.46 154.38 434.247 155.166 435.543Z" fill="#242424"/>
<path d="M154.201 428.66C154.739 433.764 154.463 437.544 160.446 438.675C161.273 438.826 161.315 440.04 160.501 440.247C152.905 442.275 149.982 435.212 150.051 428.88C150.093 426.246 153.898 426.066 154.201 428.66Z" fill="#242424"/>
<path d="M166.457 440.827C173.612 442.123 180.754 443.02 188.019 443.006C192.362 443.048 196.677 442.799 201.02 442.496C202.164 442.413 203.157 443.268 203.24 444.4C203.322 445.531 202.481 446.51 201.365 446.621C195.409 447.145 189.384 447.145 183.442 446.524C180.464 446.193 177.486 445.738 174.564 445.034C171.641 444.331 168.787 443.365 166.085 442.068C165.382 441.751 165.713 440.689 166.457 440.827Z" fill="#242424"/>
<path d="M161.825 458.25C161.784 458.25 161.756 458.25 161.715 458.25C160.763 458.195 160.046 457.367 160.102 456.415L160.75 446.345C160.805 445.393 161.632 444.676 162.583 444.731C163.534 444.786 164.251 445.614 164.196 446.566L163.548 456.636C163.479 457.546 162.721 458.25 161.825 458.25Z" fill="#242424"/>
<path d="M168.994 458.857C168.953 458.857 168.925 458.857 168.884 458.857C167.933 458.802 167.216 457.974 167.271 457.022L167.919 446.952C167.974 446 168.801 445.283 169.752 445.338C170.704 445.393 171.421 446.221 171.365 447.173L170.717 457.243C170.649 458.153 169.89 458.857 168.994 458.857Z" fill="#242424"/>
<path d="M176.577 458.857C176.535 458.857 176.508 458.857 176.466 458.857C175.515 458.802 174.798 457.974 174.853 457.022L175.501 446.952C175.556 446 176.384 445.283 177.335 445.338C178.286 445.393 179.003 446.221 178.948 447.173L178.3 457.243C178.245 458.153 177.487 458.857 176.577 458.857Z" fill="#242424"/>
<g opacity="0.2">
<path d="M185.469 455.256C185.331 462.278 184.697 470.486 181.195 473.52C181.002 473.7 180.768 473.796 180.533 473.838C180.01 473.562 179.513 473.3 179.003 473.024L175.901 466.899C175.639 466.375 175.129 466.099 174.605 466.099C174.302 466.099 173.999 466.195 173.737 466.389C173.047 466.885 172.647 467.685 172.647 468.527V469.423C166.182 465.506 160.46 461.243 155.414 456.649L155.442 456.498L155.621 455.077L155.69 454.566H182.588L185.469 455.256Z" fill="#242424"/>
</g>
<path d="M391.372 354.359C391.372 354.359 389.453 387.94 363.936 396.543C361.863 397.242 359.647 397.777 357.246 398.106C347.991 399.411 341.117 396.286 336.479 392.699C331.513 388.865 329.123 384.507 329.123 384.507L325.357 368.904L321.027 350.906L319.047 342.713C319.047 342.713 329.553 353.074 340.511 356.374C344.359 357.535 348.279 357.823 351.808 356.487C356.446 354.729 360.427 350.155 362.766 341.059L391.372 354.359Z" fill="#F8C099"/>
<path d="M363.936 396.533C361.863 397.232 359.647 397.766 357.256 398.095C348.002 399.401 341.127 396.276 336.489 392.689C331.523 388.855 329.133 384.496 329.133 384.496L325.357 368.904L321.027 350.906L319.047 342.713C319.047 342.713 329.553 353.074 340.511 356.374C344.359 357.535 348.279 357.823 351.808 356.487C351.162 360.526 349.274 374.639 352.393 384.342C355.04 392.617 357.851 396.029 363.936 396.533Z" fill="#16B768"/>
<g opacity="0.25">
<path d="M357.256 399.226C338.09 401.929 329.122 385.617 329.122 385.617C328.589 383.243 331.369 381.516 333.237 383.088C337.864 386.994 345.067 390.715 355.02 389.317C377.541 386.141 390.13 363.569 367.578 352.324L391.362 355.47C391.362 355.47 389.135 394.724 357.256 399.226Z" fill="#242424"/>
</g>
<path d="M353.07 400.243C335.894 400.243 327.604 385.555 327.512 385.391C327.019 384.496 327.347 383.376 328.24 382.883C329.133 382.389 330.251 382.718 330.744 383.612C331.082 384.229 339.373 398.753 357 396.276C369.517 394.508 378.782 386.984 384.538 373.899C388.006 366.036 389.104 358.399 389.422 355.49L363.956 343.649C361.391 351.944 357.102 356.991 351.162 358.635C336.818 362.623 318.524 344.79 317.754 344.029C317.026 343.31 317.015 342.148 317.733 341.418C318.452 340.689 319.611 340.678 320.34 341.398C320.514 341.572 337.885 358.491 350.187 355.068C355.245 353.66 358.877 348.788 360.991 340.596L361.545 338.448L393.28 353.208L393.208 354.462C393.188 354.873 392.572 364.73 387.955 375.287C381.737 389.482 371.21 398.003 357.513 399.935C355.963 400.151 354.486 400.243 353.07 400.243Z" fill="#242424"/>
<path d="M363.648 397.818C360.396 397.818 357.615 396.697 355.358 394.467C345.683 384.877 349.859 357.35 350.033 356.179C350.187 355.171 351.131 354.483 352.136 354.637C353.142 354.791 353.829 355.737 353.675 356.744C352.516 364.175 351.028 384.98 357.954 391.836C359.934 393.788 362.458 394.487 365.68 393.943C366.675 393.778 367.629 394.457 367.804 395.464C367.968 396.471 367.291 397.417 366.285 397.592C365.382 397.736 364.5 397.818 363.648 397.818Z" fill="#242424"/>
<path d="M359.852 341.285C362.828 359.55 381.019 359.231 386.078 358.389C396.636 356.641 400.924 347.113 400.924 347.113L393.383 335.405L390.11 329.135L385.77 327.46C382.764 320.83 375.869 313.039 371.405 315.269C371.405 315.269 357.287 325.538 359.852 341.285Z" fill="#F8C099"/>
<g opacity="0.25">
<path d="M402.905 342.559C402.484 348.151 394.799 352.674 379.203 349.652C373.714 348.593 369.436 344.358 369.856 338.777C370.277 333.185 375.14 328.992 380.712 329.413C386.293 329.824 403.325 336.968 402.905 342.559Z" fill="#242424"/>
</g>
<path d="M403.705 323.307C399.262 327.151 395.415 329.937 395.415 329.937L382.938 340.956L376.546 321.231C376.546 321.231 376.792 317.366 377.469 312.278C378.813 302.194 381.85 287.321 388.068 288.174C399.242 289.716 389.597 318.784 389.597 318.784C389.597 318.784 409.328 296.192 415.997 303.531C419.896 307.827 410.99 316.986 403.705 323.307Z" fill="#F8C099"/>
<g opacity="0.25">
<path d="M403.705 324.428C399.262 328.272 395.415 331.057 395.415 331.057L382.938 342.076L376.546 322.351C376.546 322.351 376.792 318.486 377.469 313.398C380.301 316.009 385.596 320.758 387.36 323.482C390.408 328.169 399.231 323.204 403.705 324.428Z" fill="#242424"/>
</g>
<path d="M382.928 342.806C382.764 342.806 382.6 342.785 382.446 342.744C381.851 342.58 381.368 342.128 381.184 341.531L374.791 321.796C374.72 321.57 374.689 321.344 374.709 321.108C374.884 318.312 376.649 293.591 383.831 287.712C385.185 286.602 386.734 286.129 388.325 286.345C390.51 286.643 392.285 287.804 393.465 289.706C396.677 294.887 395.086 305.093 393.393 312.124C398.595 307.026 406.578 300.273 412.447 300.221C412.478 300.221 412.498 300.221 412.529 300.221C414.458 300.221 416.13 300.941 417.362 302.287C418.449 303.49 418.931 305.042 418.757 306.789C417.854 315.619 399.067 329.567 396.574 331.376L384.159 342.333C383.81 342.641 383.379 342.806 382.928 342.806ZM378.403 320.994L383.821 337.718L394.194 328.56C394.235 328.519 394.286 328.488 394.327 328.447C402.053 322.834 414.519 311.898 415.084 306.419C415.176 305.515 414.889 305.073 414.632 304.785C414.089 304.189 413.401 303.922 412.478 303.922C406.321 303.983 394.881 315.557 390.982 320.018C390.408 320.676 389.443 320.84 388.684 320.409C387.925 319.977 387.576 319.062 387.853 318.23C389.689 312.689 393.711 297.127 390.326 291.68C389.72 290.703 388.92 290.179 387.812 290.025C387.453 289.973 386.899 289.984 386.15 290.59C381.204 294.63 378.906 313.563 378.403 320.994Z" fill="#242424"/>
<path d="M403.202 345.201C400.114 349.477 388.284 350.69 384.2 347C380.722 343.855 384.682 340.483 385.801 339.63C385.975 339.496 386.078 339.424 386.078 339.424C386.078 339.424 381.697 337.708 381.194 333.864C381.163 333.617 381.143 333.36 381.153 333.082C381.204 328.693 393.127 325.795 398.349 327.049C402.258 327.984 403.643 329.711 403.879 331.458C404.136 333.329 403.1 335.22 402.422 336.228C402.115 336.69 401.879 336.957 401.879 336.957C401.879 336.957 405.675 341.778 403.202 345.201Z" fill="#F8C099"/>
<g opacity="0.25">
<path d="M402.433 337.348C399.19 338.715 392.726 340.976 385.801 340.74C385.975 340.606 386.078 340.534 386.078 340.534C386.078 340.534 381.697 338.818 381.194 334.974C385.267 336.197 396.574 338.777 403.879 332.568C404.146 334.439 403.11 336.341 402.433 337.348Z" fill="#242424"/>
</g>
<g opacity="0.25">
<path d="M403.202 346.321C400.114 350.597 388.284 351.81 384.2 348.12C382.497 346.578 382.579 344.975 383.246 343.649C383.431 343.885 383.646 344.122 383.903 344.358C387.976 348.048 399.816 346.835 402.905 342.57C403.223 342.128 403.449 341.665 403.572 341.182C404.146 342.755 404.382 344.697 403.202 346.321Z" fill="#242424"/>
</g>
<path d="M391.895 351.039C388.109 351.039 384.877 350.094 382.969 348.367C381.173 346.743 380.886 345.026 380.978 343.875C381.102 342.22 382.025 340.781 382.959 339.733C381.245 338.468 379.275 336.31 379.316 333.062C379.327 331.993 379.757 330.399 381.738 328.847C385.903 325.589 394.471 324.212 398.79 325.24C402.453 326.113 404.711 327.778 405.49 330.194C406.363 332.866 405.09 335.508 404.146 336.988C405.316 338.941 407.112 342.94 404.711 346.27C402.977 348.665 399.139 350.392 394.45 350.885C393.578 350.998 392.727 351.039 391.895 351.039ZM395.415 328.59C391.69 328.59 386.509 329.793 383.995 331.756C383.359 332.25 383 332.743 382.99 333.092C382.969 336.145 386.724 337.687 386.765 337.697C387.401 337.954 387.843 338.54 387.914 339.219C387.986 339.897 387.678 340.565 387.114 340.945C386.355 341.459 384.744 342.929 384.652 344.132C384.631 344.44 384.693 344.934 385.442 345.612C386.929 346.958 390.397 347.606 394.06 347.215C397.559 346.845 400.637 345.591 401.715 344.101C403.305 341.901 400.473 338.119 400.442 338.088C399.899 337.399 399.919 336.413 400.494 335.744C401.037 335.097 402.494 332.877 401.981 331.325C401.53 329.947 399.529 329.207 397.929 328.827C397.231 328.673 396.379 328.59 395.415 328.59Z" fill="#242424"/>
<path d="M389.515 341.49C388.325 341.49 387.094 341.418 385.842 341.244C384.836 341.11 384.128 340.175 384.262 339.167C384.395 338.16 385.329 337.451 386.334 337.584C394.153 338.633 401.017 335.333 401.089 335.292C402.002 334.84 403.11 335.22 403.551 336.135C404.003 337.05 403.623 338.15 402.71 338.602C402.433 338.746 396.79 341.49 389.515 341.49Z" fill="#242424"/>
<path d="M371.406 315.269C377.326 312.309 387.525 326.987 387.268 333.205C387.073 337.954 381.173 341.49 374.935 334.943C368.615 328.313 362.11 319.925 371.406 315.269Z" fill="#16B768"/>
<path d="M400.935 347.113C400.935 347.113 396.646 356.631 386.088 358.388C381.019 359.231 362.828 359.55 359.852 341.285C357.287 325.548 371.405 315.279 371.405 315.279C377.326 312.319 387.524 326.997 387.268 333.216C387.073 337.964 379.839 340.123 374.576 331.345C374.576 331.345 377.11 339.147 370.102 343.823L372.606 348.726L385.041 353.999L397.015 352.581L400.935 347.113Z" fill="#F8C099"/>
<path d="M373.458 340.421L373.16 340.216C373.406 340.051 373.632 339.887 373.858 339.712C373.735 339.948 373.612 340.185 373.458 340.421Z" fill="#16B768"/>
<g opacity="0.25">
<path d="M374.935 331.068C374.33 327.943 382.528 336.392 387.247 334.737C386.745 338.571 381.512 340.421 376.813 335.436C376.69 332.959 374.935 331.068 374.935 331.068Z" fill="#242424"/>
</g>
<g opacity="0.25">
<path d="M394.994 352.807L397.015 352.571C394.614 355.027 391.044 357.566 386.078 358.388C381.009 359.231 362.818 359.54 359.842 341.274C358.098 330.564 364.08 322.382 368.081 318.25C364.736 322.803 361.566 329.505 362.9 337.677C366.347 358.851 383.595 355.706 389.135 354.791C391.362 354.421 393.311 353.712 394.994 352.807Z" fill="#242424"/>
</g>
<path d="M400.924 347.123C400.883 347.216 400.545 347.945 399.857 348.994L399.55 349.035L400.924 347.123Z" fill="#16B768"/>
<path d="M400.073 348.973C399.898 349.158 399.714 349.343 399.519 349.518C399.642 349.333 399.755 349.158 399.868 348.994L400.073 348.973Z" fill="#16B768"/>
<path d="M366.009 354.462C364.377 353.403 362.92 352.006 361.751 350.392C361.156 349.59 360.653 348.727 360.201 347.843C359.75 346.959 359.38 346.034 359.062 345.098C357.821 341.367 357.472 337.297 358.108 333.36C358.416 331.397 358.96 329.475 359.688 327.635C360.427 325.805 361.34 324.047 362.397 322.403C363.454 320.758 364.654 319.216 365.957 317.767C366.614 317.048 367.291 316.349 367.999 315.681C368.358 315.341 368.717 315.012 369.087 314.694C369.466 314.365 369.815 314.067 370.277 313.728L370.328 313.686C370.4 313.635 370.472 313.594 370.544 313.563C370.862 313.43 371.18 313.286 371.508 313.193C371.847 313.121 372.185 313.018 372.514 313.008C372.842 312.988 373.191 312.957 373.509 312.998C373.827 313.018 374.155 313.049 374.443 313.121C375.643 313.378 376.659 313.871 377.562 314.416C378.475 314.971 379.265 315.598 380.014 316.266C380.763 316.924 381.45 317.634 382.097 318.363C383.39 319.823 384.529 321.375 385.544 323.009C386.55 324.654 387.442 326.37 388.15 328.231C388.499 329.166 388.797 330.132 388.992 331.191C389.033 331.458 389.094 331.715 389.115 332.003C389.146 332.281 389.176 332.558 389.166 332.867V333.309L389.125 333.792C389.084 334.11 389.033 334.429 388.94 334.748C388.602 336.022 387.791 337.184 386.745 337.965C385.688 338.746 384.426 339.167 383.205 339.219C381.974 339.301 380.804 339.034 379.757 338.623C378.701 338.212 377.777 337.615 376.956 336.947C375.304 335.611 374.104 333.956 373.099 332.27L376.238 330.842C376.351 331.273 376.392 331.571 376.443 331.921C376.495 332.26 376.525 332.589 376.546 332.928C376.577 333.257 376.567 333.596 376.577 333.925C376.577 334.254 376.556 334.593 376.546 334.922C376.454 336.248 376.166 337.574 375.664 338.808C375.54 339.116 375.417 339.424 375.253 339.723C375.089 340.01 374.945 340.319 374.771 340.596C374.391 341.141 374.032 341.696 373.571 342.169C373.15 342.683 372.647 343.084 372.165 343.505C371.929 343.731 371.652 343.885 371.385 344.07L370.595 344.595C370.195 344.862 369.661 344.749 369.395 344.348C369.148 343.978 369.22 343.495 369.548 343.217L369.631 343.145L370.256 342.601C370.462 342.416 370.687 342.261 370.852 342.046C371.211 341.645 371.59 341.254 371.878 340.802C372.206 340.38 372.432 339.897 372.678 339.445C372.791 339.209 372.873 338.962 372.965 338.715C373.068 338.479 373.129 338.222 373.191 337.975C373.458 336.978 373.56 335.93 373.509 334.881C373.488 334.624 373.468 334.357 373.437 334.1C373.396 333.843 373.376 333.586 373.314 333.329C373.263 333.072 373.211 332.825 373.14 332.579C373.078 332.353 372.986 332.065 372.934 331.931C372.565 331.058 372.965 330.05 373.837 329.68C374.607 329.351 375.479 329.629 375.93 330.297L376.074 330.502C376.956 331.911 378.003 333.206 379.214 334.141C380.404 335.087 381.789 335.642 382.979 335.539C383.574 335.508 384.098 335.292 384.498 334.984C384.888 334.665 385.175 334.254 385.298 333.761C385.339 333.637 385.349 333.504 385.37 333.381L385.39 333.175L385.38 332.939C385.39 332.784 385.36 332.61 385.339 332.435C385.329 332.27 385.288 332.075 385.257 331.9C385.113 331.16 384.877 330.389 384.59 329.608C383.379 326.514 381.461 323.503 379.234 320.964C378.67 320.327 378.085 319.73 377.469 319.186C376.854 318.641 376.218 318.137 375.571 317.747C374.925 317.356 374.268 317.058 373.694 316.935C373.109 316.811 372.668 316.852 372.278 317.037L372.544 316.873C372.267 317.078 371.898 317.377 371.58 317.644C371.252 317.921 370.923 318.209 370.605 318.507C369.969 319.103 369.354 319.72 368.758 320.368C367.568 321.652 366.491 323.03 365.537 324.489C364.582 325.949 363.741 327.47 363.084 329.053C362.428 330.646 361.935 332.291 361.638 333.977C361.032 337.338 361.309 340.833 362.192 344.173C362.633 345.838 363.249 347.442 364.069 348.943C364.89 350.453 365.916 351.851 367.127 353.147L367.137 353.157C367.466 353.506 367.445 354.061 367.096 354.39C366.778 354.647 366.337 354.668 366.009 354.462Z" fill="#242424"/>
<path d="M402.515 347.832C402.31 348.326 402.135 348.685 401.92 349.086C401.715 349.477 401.489 349.847 401.253 350.217C401.027 350.587 400.76 350.936 400.504 351.286C400.237 351.635 399.97 351.964 399.693 352.303C398.565 353.629 397.251 354.791 395.825 355.788C395.127 356.312 394.358 356.713 393.609 357.155C392.819 357.515 392.049 357.926 391.228 358.183C389.618 358.81 387.904 359.077 386.232 359.242C385.749 359.283 385.329 358.933 385.288 358.46C385.247 358.049 385.503 357.679 385.883 357.556L385.955 357.535C387.432 357.052 388.869 356.559 390.182 355.798C390.859 355.48 391.464 355.017 392.101 354.637C392.696 354.174 393.301 353.753 393.855 353.239C394.974 352.262 395.989 351.162 396.913 350.001C397.138 349.703 397.354 349.405 397.59 349.117C397.795 348.809 398.021 348.511 398.226 348.212C398.431 347.904 398.636 347.596 398.831 347.287C399.026 346.989 399.232 346.64 399.375 346.414L399.468 346.27C399.97 345.458 401.037 345.201 401.848 345.704C402.556 346.136 402.833 347.051 402.515 347.832Z" fill="#242424"/>
<path opacity="0.5" d="M258.613 599.119C318.577 599.119 367.188 594.185 367.188 588.1C367.188 582.014 318.577 577.081 258.613 577.081C198.648 577.081 150.038 582.014 150.038 588.1C150.038 594.185 198.648 599.119 258.613 599.119Z" fill="black"/>
<path d="M243.042 578.388C243.069 579.436 242.918 580.471 242.532 581.45C240.891 585.602 237.72 588.637 233.46 590.886C232.619 591.327 231.709 591.631 230.772 591.769C217.123 593.755 204.136 593.797 191.783 591.92C190.088 591.658 188.502 590.872 187.33 589.617C184.173 586.265 183.001 581.657 183.966 575.684C184.146 574.608 184.49 573.573 184.973 572.608L186.448 569.628L202.578 536.99L242.242 542.563L242.697 562.11L243.042 578.388Z" fill="#50468F"/>
<path d="M188.64 565.145C184.132 578.195 202.619 585.12 217.84 575.739C219.218 574.884 220.887 574.622 222.486 574.912L227.187 575.767C228.497 576.002 229.779 575.105 229.917 573.781C230.248 570.594 228.759 567.78 225.932 565.255C224.581 564.042 223.63 562.455 223.285 560.676C222.307 555.627 221.755 550.909 222.458 547.226L200.152 541.018L188.64 565.145Z" fill="white"/>
<path d="M210.312 595.356C203.874 595.356 197.587 594.901 191.466 593.962C189.288 593.631 187.289 592.597 185.814 591.038C182.174 587.175 180.864 581.906 181.912 575.353C182.105 574.112 182.505 572.87 183.098 571.684L200.703 536.08C201.103 535.28 201.958 534.824 202.84 534.948L242.504 540.522C243.51 540.66 244.269 541.515 244.282 542.522L245.11 578.361C245.137 579.74 244.917 581.037 244.462 582.223C242.738 586.61 239.361 590.141 234.411 592.735C233.363 593.287 232.233 593.659 231.061 593.825C224.03 594.832 217.095 595.356 210.312 595.356ZM203.75 539.252L186.806 573.519C186.406 574.333 186.131 575.174 185.993 576.002C185.152 581.285 186.076 585.272 188.819 588.182C189.66 589.065 190.818 589.658 192.087 589.852C204.246 591.686 217.164 591.645 230.468 589.7C231.171 589.603 231.861 589.369 232.495 589.038C236.59 586.886 239.237 584.154 240.615 580.678C240.877 580.016 241.001 579.257 240.987 578.43L240.202 544.357L203.75 539.252Z" fill="#242424"/>
<path d="M243.028 577.519C242.559 587.299 182.67 590.403 184.09 575.008C182.85 581.188 183.429 586.955 189.853 591.369C203.226 594.004 217.33 593.824 231.985 591.493C239.554 587.865 243.152 583.189 243.028 577.519Z" fill="white"/>
<path d="M210.285 594.68C203.074 594.68 196.209 594.031 189.577 592.721C189.398 592.679 189.219 592.61 189.067 592.5C181.278 587.148 181.733 579.795 182.739 574.732C182.877 574.015 183.566 573.518 184.297 573.643C185.028 573.753 185.538 574.401 185.469 575.132C185.303 576.871 186.172 578.36 188.13 579.698C197.477 586.099 228.028 585.465 238.795 580.099C240.574 579.216 241.622 578.25 241.663 577.45C241.704 576.719 242.311 576.139 243.042 576.139H243.055C243.8 576.153 244.406 576.746 244.42 577.491C244.558 583.782 240.574 588.9 232.591 592.735C232.467 592.79 232.343 592.831 232.205 592.859C224.512 594.073 217.233 594.68 210.285 594.68ZM190.391 590.072C202.964 592.514 216.434 592.541 231.557 590.169C236.217 587.906 239.236 585.285 240.67 582.237C240.463 582.347 240.243 582.471 240.009 582.582C229.42 587.851 197.367 589.396 186.558 581.988C185.938 581.561 185.414 581.133 184.973 580.692C185.193 584.665 186.944 587.617 190.391 590.072Z" fill="#242424"/>
<path d="M205.308 570.746C204.398 570.746 203.557 570.139 203.309 569.214C203.006 568.111 203.653 566.98 204.756 566.676L225.905 560.924C227.008 560.62 228.138 561.269 228.442 562.372C228.745 563.476 228.097 564.607 226.994 564.911L205.846 570.663C205.68 570.718 205.501 570.746 205.308 570.746Z" fill="#242424"/>
<path d="M205.859 569.697C205.28 569.697 204.701 569.449 204.288 568.98L192.707 555.502C191.962 554.633 192.059 553.323 192.928 552.578C193.796 551.833 195.106 551.93 195.85 552.799L207.431 566.276C208.175 567.145 208.079 568.456 207.21 569.201C206.824 569.532 206.342 569.697 205.859 569.697Z" fill="#242424"/>
<path d="M207.39 563.434C206.824 563.434 206.259 563.2 205.845 562.745L194.968 550.619C194.21 549.764 194.279 548.453 195.12 547.695C195.974 546.936 197.284 547.005 198.042 547.846L208.92 559.972C209.678 560.827 209.609 562.138 208.768 562.896C208.368 563.255 207.872 563.434 207.39 563.434Z" fill="#242424"/>
<path d="M209.458 557.669C208.892 557.669 208.327 557.434 207.913 556.979L197.56 545.377C196.802 544.522 196.87 543.212 197.725 542.453C198.58 541.694 199.89 541.763 200.648 542.618L211.002 554.22C211.76 555.075 211.691 556.386 210.836 557.144C210.436 557.489 209.94 557.669 209.458 557.669Z" fill="#242424"/>
<path d="M206.7 564.607C205.79 564.607 204.949 564 204.701 563.076C204.398 561.972 205.046 560.841 206.149 560.538L224.54 555.53C225.643 555.227 226.773 555.875 227.077 556.979C227.38 558.082 226.732 559.213 225.629 559.517L207.238 564.524C207.059 564.58 206.879 564.607 206.7 564.607Z" fill="#242424"/>
<path d="M207.9 558.896C206.99 558.896 206.149 558.289 205.901 557.365C205.597 556.261 206.245 555.13 207.348 554.827L223.313 550.481C224.416 550.178 225.546 550.826 225.85 551.93C226.153 553.033 225.505 554.165 224.402 554.468L208.437 558.813C208.272 558.869 208.093 558.896 207.9 558.896Z" fill="#242424"/>
<path d="M207.803 554.178C206.879 554.178 206.052 553.557 205.804 552.633C205.515 551.53 206.176 550.398 207.279 550.109L225.932 545.212C227.035 544.922 228.166 545.584 228.455 546.688C228.745 547.791 228.083 548.922 226.98 549.212L208.327 554.109C208.148 554.164 207.969 554.178 207.803 554.178Z" fill="#242424"/>
<path d="M242.407 550.716L233.308 555.006C232.536 555.365 232.04 556.137 232.012 556.979C231.806 562.331 232.895 566.621 235.707 569.518C236.548 570.387 237.789 570.732 238.961 570.498L242.849 569.697L242.407 550.716Z" fill="#242424"/>
<path d="M238.203 571.96C236.893 571.96 235.625 571.435 234.701 570.484C231.764 567.463 230.386 562.897 230.62 556.923C230.675 555.558 231.475 554.33 232.716 553.751L241.815 549.46C242.242 549.267 242.738 549.295 243.124 549.529C243.524 549.778 243.772 550.205 243.772 550.674L244.214 569.656C244.227 570.318 243.759 570.911 243.111 571.035L239.223 571.836C238.892 571.932 238.547 571.96 238.203 571.96ZM241.084 552.882L233.901 556.275C233.598 556.413 233.405 556.716 233.391 557.061C233.184 562.317 234.26 566.083 236.686 568.58C237.182 569.09 237.941 569.311 238.671 569.173L241.442 568.608L241.084 552.882Z" fill="#242424"/>
<path d="M203.185 581.464C198.18 581.464 193.782 580.002 190.86 577.657C186.875 574.457 185.579 569.725 187.33 564.69C187.344 564.635 187.372 564.593 187.385 564.552L198.883 540.411C199.173 539.804 199.848 539.501 200.496 539.68L222.803 545.888C223.492 546.081 223.92 546.771 223.782 547.474C223.203 550.468 223.465 554.454 224.609 560.4C224.885 561.848 225.657 563.159 226.829 564.207C230.124 567.159 231.626 570.429 231.268 573.905C231.171 574.912 230.661 575.795 229.834 576.416C229.007 577.036 227.945 577.298 226.911 577.105L222.21 576.25C220.9 576.015 219.605 576.25 218.529 576.898C213.359 580.126 207.996 581.464 203.185 581.464ZM189.922 565.669C188.599 569.573 189.55 573.063 192.597 575.505C197.436 579.395 207.679 580.388 217.109 574.567C218.75 573.56 220.749 573.201 222.72 573.546L227.422 574.401C227.683 574.457 227.973 574.388 228.194 574.222C228.304 574.139 228.497 573.946 228.538 573.629C228.8 571.049 227.642 568.635 225.009 566.276C223.382 564.828 222.321 562.979 221.921 560.938C220.845 555.392 220.528 551.392 220.9 548.233L200.882 542.646L189.922 565.669Z" fill="#242424"/>
<path d="M192.555 482.777L179.885 492.295L181.002 500.365L196.429 498.158L192.555 482.777Z" fill="#74698B"/>
<g opacity="0.3">
<path d="M192.555 482.777L179.885 492.295L181.002 500.365L196.429 498.158L192.555 482.777Z" fill="#242424"/>
</g>
<path d="M182.726 500.365L184.573 518.45C184.697 519.664 185.676 520.63 186.889 520.726L196.443 521.499L195.395 498.296L182.726 500.365Z" fill="#74698B"/>
<g opacity="0.3">
<path d="M182.726 500.365L184.573 518.45C184.697 519.664 185.676 520.63 186.889 520.726L196.443 521.499L195.395 498.296L182.726 500.365Z" fill="#242424"/>
</g>
<path d="M181.002 502.448C180.561 502.448 180.12 502.31 179.761 502.034C179.32 501.703 179.031 501.206 178.962 500.668L177.845 492.599C177.749 491.854 178.052 491.109 178.658 490.653L191.328 481.135C191.88 480.721 192.61 480.611 193.258 480.845C193.906 481.08 194.403 481.618 194.582 482.294L198.456 497.675C198.594 498.241 198.497 498.848 198.166 499.33C197.836 499.813 197.325 500.144 196.746 500.227L181.305 502.434C181.195 502.434 181.099 502.448 181.002 502.448ZM182.091 493.219L182.753 498.02L193.851 496.433L191.301 486.294L182.091 493.219Z" fill="#242424"/>
<path d="M196.429 523.582C196.374 523.582 196.319 523.582 196.264 523.582L186.71 522.809C184.49 522.63 182.725 520.892 182.505 518.685L180.657 500.6C180.547 499.51 181.305 498.517 182.381 498.351L195.051 496.282C195.63 496.185 196.222 496.351 196.691 496.723C197.16 497.096 197.422 497.648 197.449 498.241L198.497 521.444C198.525 522.037 198.29 522.616 197.863 523.03C197.491 523.375 196.967 523.582 196.429 523.582ZM184.986 502.103L186.627 518.243C186.655 518.464 186.834 518.643 187.054 518.657L194.265 519.25L193.424 500.724L184.986 502.103Z" fill="#242424"/>
<path d="M249.921 484.749L249.494 495.647L248.156 529.403C248.101 530.658 247.591 531.831 246.709 532.714L243.235 536.19C242.587 536.838 242.214 537.721 242.214 538.645V546.177C228.414 549.626 212.491 547.695 200.138 541.004V533.762C197.05 533.762 194.513 531.32 194.389 528.244L191.88 467.52L249.921 484.749Z" fill="#74698B"/>
<g opacity="0.6">
<path d="M247.508 498.158C247.067 498.172 246.861 502.641 244.986 519.443C244.917 520.105 244.6 522.768 243.566 526.065C242.862 528.299 242.421 529.734 241.456 531.003C239.719 533.279 237.017 534.107 232.922 534.797C228.993 535.459 223.313 536.093 216.199 535.748C226.098 537.556 233.35 537.045 237.637 536.424C240.229 536.052 242.835 535.486 244.848 533.417C247.55 530.658 247.688 526.768 247.743 524.161C247.991 511.166 248.253 498.13 247.508 498.158Z" fill="white"/>
</g>
<path d="M228.138 549.957C218.005 549.957 207.803 547.516 199.159 542.825C198.497 542.467 198.07 541.763 198.07 541.004V535.555C194.858 534.686 192.473 531.817 192.321 528.327L189.812 467.603C189.784 466.94 190.088 466.292 190.611 465.878C191.135 465.464 191.838 465.34 192.473 465.533L250.5 482.777C251.41 483.053 252.017 483.894 251.975 484.846L250.211 529.486C250.142 531.265 249.411 532.934 248.156 534.19L244.682 537.666C244.42 537.928 244.269 538.287 244.269 538.659V546.191C244.269 547.143 243.621 547.971 242.697 548.205C237.996 549.378 233.074 549.957 228.138 549.957ZM202.206 539.749C213.387 545.446 227.656 547.24 240.146 544.536V538.646C240.146 537.169 240.726 535.776 241.773 534.728L245.248 531.252C245.758 530.741 246.061 530.051 246.088 529.32L247.784 486.281L194.072 470.32L196.457 528.148C196.54 530.134 198.153 531.679 200.138 531.679C201.282 531.679 202.206 532.603 202.206 533.748V539.749Z" fill="#242424"/>
<path d="M196.347 525.43C196.25 530.865 204.053 532.727 208.437 533.9C214.311 535.266 220.432 535.969 226.525 536.604C227.022 536.659 227.38 537.1 227.339 537.597C227.284 538.066 226.884 538.425 226.401 538.411C220.184 538.163 214.007 537.845 207.845 536.824C201.641 535.776 192.417 533.321 192.211 525.444C192.211 522.574 196.36 522.574 196.347 525.43Z" fill="#242424"/>
<g opacity="0.3">
<path d="M211.057 533.403C210.96 534.341 211.208 535.293 211.843 535.983C212.008 536.162 212.256 536.355 212.684 536.562C214.655 537.514 216.034 536.397 217.164 537.155C218.088 537.776 217.592 538.797 218.46 540.163C219.453 541.721 221.245 542.218 222.444 542.563C225.133 543.308 232.316 543.901 242.214 544.039V546.191C228.414 549.64 212.491 547.708 200.138 541.018V533.776C197.05 533.776 194.513 531.334 194.389 528.258L191.88 467.533L249.907 484.777L249.48 495.675C245.606 498.765 241.263 499.703 240.67 499.827C235.418 500.889 233.667 499.344 223.851 499.841C221.438 499.965 218.915 500.379 217.04 501.896C214.228 504.158 213.662 508.131 213.29 511.718L211.057 533.403Z" fill="#242424"/>
</g>
<g opacity="0.3">
<path d="M242.669 562.11C241.235 563.71 239.719 564.869 238.106 565.71C224.512 572.815 208.12 557.875 191.659 566.124C189.619 567.145 187.882 568.373 186.42 569.628L202.55 536.99L242.214 542.563L242.669 562.11Z" fill="#242424"/>
</g>
<path d="M268.243 578.388C268.216 579.437 268.367 580.471 268.753 581.451C270.394 585.603 273.565 588.638 277.825 590.886C278.666 591.328 279.576 591.631 280.513 591.769C294.162 593.756 307.149 593.797 319.502 591.921C321.198 591.659 322.783 590.873 323.955 589.617C327.112 586.265 328.284 581.658 327.319 575.685C327.14 574.609 326.795 573.574 326.312 572.608L324.837 569.629L308.707 536.99L269.043 542.563L268.588 562.11L268.243 578.388Z" fill="#50468F"/>
<path d="M322.659 565.145C327.167 578.195 308.679 585.12 293.459 575.739C292.08 574.884 290.412 574.622 288.813 574.912L284.112 575.767C282.802 576.002 281.52 575.105 281.382 573.781C281.051 570.594 282.54 567.78 285.366 565.255C286.717 564.042 287.669 562.455 288.013 560.676C288.992 555.627 289.544 550.909 288.84 547.226L311.147 541.018L322.659 565.145Z" fill="white"/>
<path d="M300.973 595.356C294.19 595.356 287.255 594.845 280.224 593.811C279.052 593.645 277.922 593.273 276.874 592.721C271.938 590.128 268.561 586.596 266.837 582.209C266.368 581.023 266.148 579.726 266.189 578.347L267.016 542.508C267.044 541.487 267.788 540.646 268.795 540.508L308.459 534.935C309.341 534.811 310.21 535.266 310.596 536.066L328.201 571.67C328.794 572.857 329.194 574.098 329.387 575.34C330.435 581.892 329.125 587.176 325.485 591.024C324.01 592.583 322.011 593.618 319.833 593.949C313.711 594.887 307.411 595.356 300.973 595.356ZM271.097 544.37L270.311 578.443C270.298 579.271 270.422 580.03 270.684 580.692C272.049 584.168 274.709 586.913 278.804 589.052C279.438 589.383 280.127 589.603 280.831 589.714C294.148 591.659 307.053 591.714 319.212 589.866C320.481 589.672 321.639 589.079 322.48 588.196C325.223 585.286 326.147 581.299 325.306 576.016C325.168 575.174 324.906 574.346 324.493 573.519L307.549 539.253L271.097 544.37Z" fill="#242424"/>
<path d="M268.271 577.519C268.74 587.299 328.628 590.403 327.208 575.008C328.449 581.188 327.87 586.955 321.446 591.369C308.073 594.004 293.969 593.824 279.314 591.493C271.745 587.865 268.147 583.189 268.271 577.519Z" fill="white"/>
<path d="M301.014 594.68C294.052 594.68 286.786 594.073 279.093 592.845C278.955 592.817 278.831 592.79 278.707 592.721C270.725 588.9 266.741 583.768 266.878 577.478C266.892 576.733 267.499 576.14 268.243 576.126C268.96 576.084 269.608 576.691 269.636 577.436C269.677 578.236 270.711 579.202 272.503 580.085C283.271 585.437 313.822 586.086 323.169 579.685C325.113 578.347 325.995 576.857 325.83 575.119C325.761 574.388 326.285 573.726 327.002 573.629C327.732 573.519 328.408 574.001 328.559 574.719C329.566 579.781 330.021 587.134 322.231 592.486C322.08 592.597 321.901 592.666 321.721 592.707C315.09 594.031 308.211 594.68 301.014 594.68ZM279.728 590.155C294.851 592.542 308.321 592.5 320.894 590.059C324.341 587.617 326.092 584.651 326.312 580.678C325.871 581.12 325.347 581.561 324.727 581.975C313.918 589.383 281.864 587.838 271.276 582.568C271.042 582.458 270.835 582.333 270.615 582.223C272.048 585.272 275.068 587.893 279.728 590.155Z" fill="#242424"/>
<path d="M305.977 570.746C305.798 570.746 305.619 570.718 305.426 570.677L284.277 564.924C283.174 564.621 282.526 563.49 282.83 562.386C283.133 561.282 284.263 560.634 285.366 560.938L306.515 566.69C307.618 566.993 308.266 568.125 307.962 569.228C307.728 570.139 306.887 570.746 305.977 570.746Z" fill="#242424"/>
<path d="M305.426 569.697C304.943 569.697 304.475 569.532 304.075 569.201C303.206 568.456 303.11 567.145 303.854 566.276L315.435 552.799C316.179 551.93 317.489 551.833 318.358 552.578C319.226 553.323 319.323 554.633 318.578 555.502L306.998 568.98C306.598 569.449 306.019 569.697 305.426 569.697Z" fill="#242424"/>
<path d="M303.909 563.435C303.413 563.435 302.917 563.255 302.53 562.911C301.676 562.152 301.607 560.841 302.379 559.986L313.256 547.86C314.015 547.005 315.324 546.936 316.179 547.709C317.034 548.467 317.103 549.778 316.331 550.633L305.453 562.759C305.04 563.2 304.474 563.435 303.909 563.435Z" fill="#242424"/>
<path d="M301.841 557.669C301.345 557.669 300.862 557.489 300.463 557.144C299.608 556.386 299.539 555.075 300.297 554.22L310.651 542.618C311.409 541.763 312.719 541.694 313.574 542.453C314.428 543.212 314.497 544.522 313.739 545.377L303.385 556.979C302.972 557.434 302.406 557.669 301.841 557.669Z" fill="#242424"/>
<path d="M304.599 564.607C304.419 564.607 304.24 564.58 304.047 564.538L285.656 559.531C284.553 559.227 283.905 558.096 284.208 556.992C284.512 555.889 285.642 555.24 286.745 555.544L305.136 560.551C306.239 560.855 306.887 561.986 306.584 563.09C306.349 564 305.508 564.607 304.599 564.607Z" fill="#242424"/>
<path d="M303.385 558.896C303.206 558.896 303.027 558.869 302.848 558.827L286.883 554.482C285.78 554.178 285.132 553.047 285.435 551.944C285.739 550.84 286.869 550.192 287.972 550.495L303.937 554.84C305.04 555.144 305.688 556.275 305.384 557.379C305.136 558.289 304.295 558.896 303.385 558.896Z" fill="#242424"/>
<path d="M303.496 554.178C303.316 554.178 303.151 554.15 302.972 554.109L284.319 549.226C283.216 548.936 282.554 547.805 282.843 546.701C283.133 545.598 284.263 544.936 285.366 545.225L304.02 550.122C305.122 550.412 305.784 551.543 305.495 552.647C305.247 553.557 304.406 554.178 303.496 554.178Z" fill="#242424"/>
<path d="M268.878 550.716L277.977 555.006C278.749 555.365 279.245 556.137 279.273 556.979C279.48 562.331 278.39 566.621 275.578 569.518C274.737 570.387 273.496 570.732 272.324 570.498L268.437 569.697L268.878 550.716Z" fill="#242424"/>
<path d="M273.083 571.96C272.738 571.96 272.407 571.932 272.062 571.849L268.175 571.049C267.527 570.911 267.058 570.332 267.072 569.67L267.513 550.688C267.527 550.219 267.775 549.791 268.161 549.543C268.561 549.295 269.057 549.267 269.47 549.474L278.57 553.764C279.81 554.344 280.61 555.558 280.665 556.937C280.899 562.91 279.521 567.476 276.584 570.497C275.661 571.449 274.406 571.96 273.083 571.96ZM269.856 568.58L272.628 569.145C273.358 569.297 274.117 569.076 274.613 568.552C277.039 566.055 278.115 562.289 277.908 557.034C277.894 556.689 277.701 556.399 277.398 556.247L270.215 552.854L269.856 568.58Z" fill="#242424"/>
<path d="M308.1 581.464C303.303 581.464 297.926 580.126 292.728 576.912C291.667 576.25 290.357 576.029 289.047 576.264L284.346 577.119C283.326 577.298 282.264 577.05 281.423 576.429C280.61 575.808 280.1 574.926 279.989 573.919C279.631 570.442 281.12 567.187 284.429 564.221C285.601 563.172 286.359 561.862 286.648 560.413C287.793 554.468 288.055 550.481 287.476 547.488C287.338 546.784 287.765 546.095 288.454 545.901L310.761 539.694C311.409 539.514 312.085 539.818 312.374 540.425L323.872 564.566C323.9 564.607 323.913 564.662 323.927 564.704C325.664 569.739 324.382 574.47 320.398 577.671C317.503 580.002 313.119 581.464 308.1 581.464ZM290.054 573.408C291.515 573.408 292.949 573.794 294.176 574.553C303.606 580.375 313.849 579.381 318.688 575.491C321.735 573.049 322.686 569.546 321.363 565.655L310.389 542.646L290.385 548.219C290.757 551.392 290.44 555.392 289.364 560.924C288.964 562.966 287.903 564.814 286.276 566.262C283.629 568.635 282.471 571.035 282.747 573.615C282.774 573.932 282.967 574.112 283.091 574.208C283.312 574.374 283.588 574.443 283.863 574.388L288.565 573.532C289.061 573.463 289.557 573.408 290.054 573.408Z" fill="#242424"/>
<path d="M318.744 482.777L331.413 492.295L330.297 500.365L314.856 498.158L318.744 482.777Z" fill="#74698B"/>
<g opacity="0.3">
<path d="M318.744 482.777L331.413 492.295L330.297 500.365L314.856 498.158L318.744 482.777Z" fill="#242424"/>
</g>
<path d="M328.573 500.365L326.726 518.45C326.602 519.664 325.623 520.63 324.41 520.726L314.856 521.499L315.903 498.296L328.573 500.365Z" fill="#74698B"/>
<g opacity="0.3">
<path d="M328.573 500.365L326.726 518.45C326.602 519.664 325.623 520.63 324.41 520.726L314.856 521.499L315.903 498.296L328.573 500.365Z" fill="#242424"/>
</g>
<path d="M330.297 502.448C330.2 502.448 330.104 502.448 330.007 502.421L314.58 500.213C314.001 500.131 313.477 499.8 313.16 499.317C312.829 498.834 312.733 498.227 312.871 497.661L316.745 482.28C316.91 481.604 317.406 481.066 318.068 480.832C318.716 480.597 319.447 480.708 319.998 481.121L332.668 490.64C333.275 491.095 333.578 491.84 333.482 492.585L332.365 500.655C332.296 501.207 331.993 501.689 331.565 502.02C331.179 502.296 330.738 502.448 330.297 502.448ZM317.42 496.434L328.518 498.02L329.18 493.219L319.971 486.294L317.42 496.434Z" fill="#242424"/>
<path d="M314.856 523.582C314.318 523.582 313.808 523.375 313.422 523.002C312.995 522.588 312.76 522.009 312.788 521.416L313.836 498.213C313.863 497.62 314.139 497.068 314.594 496.696C315.049 496.323 315.642 496.158 316.234 496.254L328.904 498.323C329.98 498.503 330.738 499.482 330.628 500.572L328.78 518.657C328.56 520.864 326.781 522.602 324.575 522.781L315.021 523.554C314.966 523.582 314.911 523.582 314.856 523.582ZM317.861 500.724L317.02 519.25L324.231 518.657C324.451 518.643 324.63 518.464 324.658 518.243L326.299 502.103L317.861 500.724Z" fill="#242424"/>
<path d="M261.378 484.749L261.805 495.647L263.142 529.403C263.198 530.658 263.708 531.831 264.59 532.714L268.064 536.19C268.712 536.838 269.084 537.721 269.084 538.645V546.177C282.885 549.626 298.808 547.695 311.161 541.004V533.762C314.249 533.762 316.786 531.32 316.91 528.244L319.419 467.52L261.378 484.749Z" fill="#74698B"/>
<g opacity="0.6">
<path d="M263.79 498.158C264.231 498.172 264.438 502.641 266.313 519.443C266.382 520.105 266.699 522.768 267.733 526.065C268.436 528.299 268.878 529.734 269.843 531.003C271.58 533.279 274.282 534.107 278.376 534.797C282.306 535.459 287.986 536.093 295.1 535.748C285.201 537.556 277.949 537.045 273.661 536.424C271.07 536.052 268.464 535.486 266.451 533.417C263.749 530.658 263.611 526.768 263.556 524.161C263.308 511.166 263.046 498.13 263.79 498.158Z" fill="white"/>
</g>
<path d="M283.16 549.957C278.225 549.957 273.303 549.378 268.574 548.191C267.651 547.957 267.003 547.129 267.003 546.177V538.645C267.003 538.273 266.851 537.914 266.589 537.652L263.115 534.176C261.86 532.921 261.13 531.251 261.061 529.472L259.296 484.832C259.255 483.88 259.861 483.039 260.771 482.763L318.799 465.519C319.433 465.326 320.136 465.464 320.66 465.864C321.184 466.278 321.487 466.913 321.459 467.589L318.95 528.313C318.812 531.803 316.414 534.673 313.201 535.542V540.991C313.201 541.749 312.788 542.453 312.112 542.811C303.496 547.515 293.294 549.957 283.16 549.957ZM271.139 544.536C283.615 547.24 297.898 545.446 309.079 539.749V533.748C309.079 532.603 310.003 531.679 311.147 531.679C313.132 531.679 314.745 530.134 314.828 528.148L317.213 470.32L263.501 486.281L265.197 529.32C265.224 530.051 265.527 530.741 266.038 531.251L269.512 534.728C270.56 535.776 271.139 537.169 271.139 538.645V544.536Z" fill="#242424"/>
<path d="M319.088 525.43C318.868 533.321 309.672 535.762 303.454 536.811C297.292 537.845 291.102 538.149 284.898 538.397C284.401 538.411 283.974 538.025 283.96 537.528C283.946 537.045 284.305 536.645 284.774 536.59C290.881 535.955 296.988 535.252 302.861 533.886C307.039 532.755 313.174 531.32 314.759 527.03C314.911 526.506 314.966 525.94 314.952 525.375C314.938 524.23 315.848 523.292 316.979 523.264C318.165 523.251 319.13 524.244 319.088 525.43Z" fill="#242424"/>
<g opacity="0.3">
<path d="M300.228 533.403C300.325 534.341 300.077 535.293 299.442 535.983C299.277 536.162 299.029 536.355 298.601 536.562C296.63 537.514 295.251 536.397 294.121 537.155C293.197 537.776 293.693 538.797 292.825 540.163C291.832 541.721 290.04 542.218 288.84 542.563C286.152 543.308 278.969 543.901 269.071 544.039V546.191C282.871 549.64 298.794 547.708 311.147 541.018V533.776C314.235 533.776 316.772 531.334 316.896 528.258L319.405 467.533L261.378 484.777L261.805 495.675C265.679 498.765 270.022 499.703 270.615 499.827C275.867 500.889 277.618 499.344 287.434 499.841C289.847 499.965 292.37 500.379 294.245 501.896C297.057 504.158 297.623 508.131 297.995 511.718L300.228 533.403Z" fill="#242424"/>
</g>
<g opacity="0.3">
<path d="M268.629 562.11C270.063 563.711 271.58 564.869 273.193 565.711C286.786 572.815 303.178 557.875 319.64 566.125C321.68 567.146 323.417 568.373 324.879 569.629L308.748 536.99L269.084 542.563L268.629 562.11Z" fill="#242424"/>
</g>
<path d="M323.5 360.348C329.635 407.664 333.344 451.104 319.019 465.947C323.403 483.149 299.704 492.516 255.326 492.516H255.905C211.526 492.516 187.827 483.149 192.211 465.947C177.886 451.104 181.595 407.664 187.73 360.348L193.134 326.068L316.841 327.31L323.5 360.348Z" fill="#16B768"/>
<g opacity="0.6">
<path d="M244.503 492.295C230.965 491.357 219.439 489.661 210.133 487.26C218.805 490.019 230.358 491.716 244.503 492.295Z" fill="white"/>
<path d="M323.5 360.348C322.548 356.265 321.625 352.113 320.742 347.864C319.267 340.843 317.971 333.987 316.841 327.31C295.706 327.089 274.571 326.882 253.437 326.675L317.158 331.586C319.267 341.174 321.39 350.761 323.5 360.348C320.549 375.923 320.935 388.31 321.887 396.932C322.962 406.575 324.782 411.679 325.099 424.315C325.444 438.054 323.293 446.703 322.797 448.704C320.618 457.601 317.337 464.54 314.745 469.175C314.649 470.941 314.29 473.907 312.677 476.997C307.604 486.667 294.879 488.433 295.044 488.915C295.21 489.412 309.548 489.15 316.041 478.763C319.157 473.769 319.171 468.513 319.005 465.961C326.657 448.966 328.573 434.937 328.918 425.335C329.125 419.666 328.78 415.61 326.243 389.097C325.513 381.275 324.589 371.563 323.5 360.348Z" fill="white"/>
</g>
<path d="M324.493 360.224C326.781 368.998 327.374 378.005 328.504 386.958C330.517 408.23 335.894 450.952 320.494 467.382L321.005 465.437C322.493 470.817 321.018 476.845 316.979 480.763C307.039 490.598 288.151 492.681 274.778 493.895C268.285 494.378 261.791 494.585 255.298 494.585V490.447H255.877C257.021 490.447 257.945 491.371 257.945 492.516C257.945 493.661 257.021 494.585 255.877 494.585C249.383 494.571 242.89 494.378 236.397 493.895C221.893 492.612 191.287 489.371 189.633 470.872C189.522 469.01 189.757 467.175 190.17 465.437L190.68 467.382C175.157 451.035 180.409 408.244 182.464 386.931C183.47 377.95 184.518 368.998 186.765 360.224C186.889 359.714 187.413 359.41 187.923 359.548C188.35 359.658 188.64 360.045 188.64 360.472C188.447 374.019 186.282 387.289 185.497 400.753C184.504 418.052 181.843 451.187 193.686 464.512C194.182 465.064 194.348 465.795 194.196 466.457C193.079 470.568 194.113 474.9 197.188 477.893C206.259 486.722 224.444 488.653 236.714 489.771C243.083 490.24 249.48 490.447 255.877 490.447V494.585H255.298C254.154 494.585 253.23 493.661 253.23 492.516C253.23 491.371 254.154 490.447 255.298 490.447C261.695 490.433 268.106 490.24 274.461 489.771C287.145 488.708 321.556 485.149 316.979 466.457C316.813 465.74 317.034 465.009 317.489 464.512C320.232 461.56 322.094 457.67 323.376 453.573C327.112 440.868 326.988 427.363 326.616 414.134C326.147 400.725 324.865 387.289 323.39 373.936C322.88 369.48 322.411 365.011 322.466 360.472C322.466 359.907 322.935 359.465 323.486 359.465C323.982 359.479 324.382 359.796 324.493 360.224Z" fill="#242424"/>
<path d="M187.482 452.663C191.742 467.934 209.899 472.169 223.644 474.638C232.895 476.21 242.214 477.038 251.575 477.907C252.21 477.962 252.678 478.528 252.623 479.163C252.568 479.756 252.072 480.197 251.493 480.211C249.907 480.252 248.336 480.266 246.75 480.266C245.551 480.266 243.193 480.239 242.008 480.197C226.842 479.659 208.534 477.935 195.395 469.727C189.66 466.182 185.014 460.374 183.47 453.697C182.863 451.035 186.724 450.028 187.482 452.663Z" fill="#242424"/>
<path d="M327.801 453.698C322.19 476.611 288.785 479.466 269.264 480.197C266.203 480.294 262.825 480.294 259.765 480.211C258.359 480.17 258.234 478.059 259.682 477.907C265.941 477.328 272.186 476.776 278.377 475.99C290.399 474.376 303.027 472.528 313.491 466.058C318.44 462.94 322.259 458.333 323.776 452.663C324.534 450.042 328.408 451.008 327.801 453.698Z" fill="#242424"/>
<g opacity="0.2">
<path d="M196.278 479.908C241.759 496.779 284.277 491.399 309.121 472.527C266.548 481.48 210.133 478.307 190.694 464.195L196.278 479.908Z" fill="#242424"/>
</g>
<path d="M271.163 375.65C271.018 374.597 269.994 373.927 268.981 374.178C263.283 375.537 257.561 375.346 252.291 373.889C251.178 373.581 250.01 374.275 249.8 375.432L249.153 378.989C249.019 379.727 249.459 380.447 250.167 380.648C250.783 380.823 251.438 380.557 251.767 379.997L252.972 377.949C253.237 377.499 253.75 377.272 254.255 377.369C254.771 377.468 255.175 377.888 255.246 378.419L255.536 380.589C255.632 381.303 256.194 381.858 256.897 381.931C257.59 382.003 258.243 381.59 258.488 380.925L259.263 378.822C259.446 378.325 259.923 378.008 260.442 378.019C260.962 378.029 261.426 378.365 261.589 378.869L262.278 381.002C262.496 381.676 263.132 382.115 263.827 382.071C264.532 382.026 265.116 381.495 265.241 380.785L265.619 378.62C265.711 378.092 266.125 377.689 266.645 377.611C267.153 377.535 267.663 377.782 267.909 378.242L269.033 380.348C269.338 380.92 269.979 381.213 270.601 381.066C271.318 380.895 271.789 380.195 271.686 379.452L271.163 375.65Z" fill="#242424"/>
<path d="M267.318 382.685C266.685 382.52 266.014 382.769 265.677 383.293L264.449 385.208C264.179 385.628 263.654 385.839 263.138 385.748C262.609 385.655 262.196 385.262 262.122 384.765L261.821 382.735C261.722 382.065 261.143 381.544 260.421 381.475C259.71 381.406 259.041 381.792 258.79 382.414L258.002 384.374C257.816 384.837 257.326 385.132 256.794 385.122C256.262 385.111 255.79 384.796 255.623 384.326L254.913 382.333C254.689 381.703 254.038 381.291 253.327 381.331C252.605 381.372 252.009 381.867 251.883 382.53L251.5 384.542C251.406 385.035 250.977 385.412 250.445 385.483C249.925 385.554 249.409 385.322 249.157 384.892L248.006 382.932C247.692 382.397 247.032 382.123 246.396 382.262C245.664 382.422 245.186 383.076 245.294 383.77L245.814 387.107C245.983 388.195 247.15 388.888 248.3 388.645C253.745 387.494 259.603 387.543 265.375 389.043C266.4 389.305 267.477 388.73 267.669 387.757L268.363 384.241C268.499 383.55 268.046 382.874 267.318 382.685Z" fill="#242424"/>
<path d="M216.652 281.138C212.334 285.077 205.847 287.5 198.601 287.905C186.086 288.62 171.327 283.39 161.548 269.814C151.94 256.471 152.421 240.621 155.349 229.585C157.134 222.882 159.817 217.961 161.687 216.477C166.646 212.539 194.679 206.359 214.728 228.795C234.778 251.241 226.345 272.268 216.652 281.138Z" fill="#FBA3CB"/>
<path d="M298.026 281.352C302.322 285.322 308.788 287.766 316.044 288.215C328.549 288.994 343.34 283.839 353.194 270.315C362.866 257.026 362.47 241.165 359.606 230.118C357.864 223.404 355.214 218.473 353.343 216.979C348.406 213.008 320.405 206.679 300.238 229.019C280.06 251.359 288.386 272.439 298.026 281.352Z" fill="#FBA3CB"/>
<path d="M196.228 290.019C181.982 290.019 168.548 283.027 159.881 270.998C148.242 254.849 151.448 236.288 153.372 229.062C153.383 229.019 153.393 228.976 153.404 228.944C155.167 222.369 157.914 216.851 160.415 214.866C166.485 210.041 195.779 204.502 216.267 227.429C227.948 240.504 229.573 252.49 228.889 260.239C228.13 268.746 224.08 277.125 218.041 282.643C213.371 286.913 206.51 289.506 198.718 289.944C197.885 289.997 197.051 290.019 196.228 290.019ZM157.305 230.214C155.531 236.96 152.656 253.952 163.215 268.607C171.551 280.188 184.739 286.646 198.483 285.856C205.238 285.472 211.351 283.198 215.273 279.623C223.289 272.29 233.174 252.512 213.211 230.15C202.876 218.601 190.746 215.421 182.399 214.78C172.534 214.033 164.882 216.552 162.969 218.068C161.772 219.018 159.197 223.116 157.337 230.097C157.326 230.14 157.316 230.182 157.305 230.214Z" fill="#242424"/>
<path d="M216.652 281.138C212.334 285.077 205.847 287.5 198.601 287.905C210.763 267.487 200.941 233.246 186.065 224.771C170.012 215.613 155.691 229.254 155.36 229.585C157.134 222.882 159.816 217.961 161.687 216.477C166.646 212.539 194.679 206.359 214.728 228.795C234.778 251.241 226.345 272.268 216.652 281.138Z" fill="#5C546C"/>
<g opacity="0.6">
<path d="M155.477 229.253C155.52 229.211 155.83 228.912 156.375 228.453C157.871 224.642 159.549 221.931 160.842 220.896C165.78 216.925 193.781 210.607 213.948 232.936C224.368 244.474 227.179 255.681 226.142 265.042C228.835 254.849 227.104 241.742 214.846 228.165C194.679 205.814 166.678 212.154 161.74 216.114C159.87 217.609 157.219 222.55 155.477 229.253Z" fill="white"/>
</g>
<path d="M198.601 289.773C197.949 289.773 197.34 289.432 196.998 288.877C196.635 288.29 196.635 287.543 196.987 286.955C202.555 277.595 203.742 263.9 200.151 250.313C197.212 239.17 191.451 230.001 185.124 226.393C170.376 217.972 157.209 230.385 156.653 230.919C156.055 231.506 155.135 231.613 154.409 231.186C153.682 230.759 153.329 229.905 153.543 229.094C155.274 222.615 158.074 216.947 160.533 215.005C166.571 210.201 195.726 204.705 216.128 227.546C227.767 240.579 229.391 252.512 228.707 260.218C227.959 268.682 223.919 277.018 217.913 282.505C213.275 286.742 206.456 289.325 198.697 289.763C198.665 289.773 198.633 289.773 198.601 289.773ZM174.501 219.722C178.402 219.722 182.623 220.662 186.994 223.149C194.262 227.301 200.535 237.099 203.774 249.363C207.226 262.449 206.488 275.727 201.871 285.685C207.3 284.842 212.11 282.761 215.38 279.761C223.438 272.386 233.388 252.501 213.328 230.044C194.508 208.963 167.608 214.151 162.852 217.929C162.007 218.602 160.468 220.822 158.983 224.504C162.67 222.22 168.131 219.722 174.501 219.722Z" fill="#242424"/>
<g opacity="0.2">
<path d="M204.062 266.889C202.876 267.337 201.604 267.583 200.29 267.572C193.46 267.551 187.935 260.987 187.956 252.896C187.978 245.851 192.189 239.97 197.789 238.593C201.829 246.705 204.265 256.952 204.062 266.889Z" fill="#242424"/>
</g>
<path d="M200.311 269.621C200.3 269.621 200.29 269.621 200.279 269.621C192.327 269.6 185.883 262.096 185.904 252.885C185.926 245.072 190.714 238.22 197.297 236.597C198.227 236.362 199.199 236.811 199.627 237.675C203.955 246.363 206.317 257.026 206.103 266.932C206.082 267.764 205.558 268.511 204.778 268.799C203.357 269.354 201.85 269.621 200.311 269.621ZM196.72 241.123C192.766 242.937 190.019 247.612 190.008 252.896C189.987 259.844 194.604 265.512 200.29 265.523C200.877 265.523 201.454 265.469 202.01 265.352C201.957 257.144 200.065 248.477 196.72 241.123Z" fill="#242424"/>
<path d="M200.311 269.621C200.3 269.621 200.29 269.621 200.279 269.621C192.327 269.6 185.883 262.096 185.904 252.885C185.926 245.072 190.714 238.22 197.297 236.597C198.227 236.362 199.199 236.811 199.627 237.675C203.955 246.363 206.317 257.026 206.103 266.932C206.082 267.764 205.558 268.511 204.778 268.799C203.357 269.354 201.85 269.621 200.311 269.621ZM196.72 241.123C192.766 242.937 190.019 247.612 190.008 252.896C189.987 259.844 194.604 265.512 200.29 265.523C200.877 265.523 201.454 265.469 202.01 265.352C201.957 257.144 200.065 248.477 196.72 241.123Z" fill="#242424"/>
<path d="M318.641 290.35C317.733 290.35 316.835 290.318 315.916 290.264C308.125 289.784 301.285 287.148 296.636 282.857C290.63 277.296 286.611 268.906 285.906 260.389C285.254 252.64 286.953 240.664 298.699 227.653C319.315 204.833 348.577 210.522 354.626 215.389C357.116 217.385 359.831 222.914 361.562 229.499C361.573 229.542 361.583 229.574 361.594 229.617C363.475 236.853 366.585 255.436 354.861 271.532C346.172 283.444 332.792 290.35 318.641 290.35ZM299.426 279.847C303.326 283.444 309.429 285.749 316.173 286.176C329.917 287.03 343.126 280.658 351.526 269.12C362.16 254.518 359.371 237.505 357.64 230.759C357.629 230.716 357.618 230.684 357.608 230.641C355.791 223.65 353.236 219.541 352.05 218.591C350.148 217.065 342.506 214.503 332.642 215.197C324.284 215.784 312.144 218.9 301.755 230.407C281.663 252.64 291.442 272.471 299.426 279.847Z" fill="#242424"/>
<path d="M298.025 281.352C302.322 285.322 308.788 287.766 316.044 288.215C304 267.732 314.003 233.544 328.912 225.144C345.018 216.072 359.253 229.798 359.595 230.118C357.853 223.404 355.203 218.473 353.332 216.979C348.395 213.008 320.394 206.679 300.227 229.019C280.06 251.359 288.385 272.439 298.025 281.352Z" fill="#5C546C"/>
<g opacity="0.6">
<path d="M359.595 230.15C359.553 230.108 359.243 229.809 358.698 229.35C357.201 225.539 355.523 222.828 354.23 221.793C349.293 217.822 321.292 211.504 301.125 233.833C290.705 245.36 287.894 256.568 288.93 265.928C286.237 255.735 287.969 242.628 300.227 229.051C320.405 206.711 348.406 213.051 353.343 217.011C355.203 218.505 357.853 223.447 359.595 230.15Z" fill="white"/>
</g>
<path d="M316.044 290.083C316.002 290.083 315.97 290.083 315.927 290.083C308.179 289.602 301.371 286.987 296.754 282.729C290.78 277.2 286.782 268.842 286.077 260.378C285.436 252.661 287.124 240.739 298.827 227.77C319.358 205.046 348.481 210.692 354.498 215.528C356.934 217.481 359.713 223.159 361.402 229.649C361.615 230.46 361.252 231.314 360.525 231.73C359.799 232.146 358.879 232.04 358.281 231.453C357.736 230.919 344.633 218.431 329.831 226.767C323.494 230.343 317.68 239.468 314.687 250.601C311.032 264.167 312.144 277.872 317.658 287.254C318.011 287.852 318 288.588 317.637 289.176C317.295 289.752 316.696 290.083 316.044 290.083ZM299.297 279.986C302.557 282.996 307.356 285.109 312.774 285.984C308.211 275.994 307.548 262.716 311.075 249.651C314.377 237.398 320.704 227.642 328.004 223.533C339.525 217.043 350.084 221.323 355.994 225.048C354.53 221.355 353.012 219.125 352.168 218.452C347.433 214.642 320.565 209.305 301.616 230.278C281.439 252.629 291.282 272.567 299.297 279.986Z" fill="#242424"/>
<path d="M310.701 267.177C311.887 267.636 313.159 267.881 314.473 267.881C321.303 267.903 326.86 261.36 326.881 253.269C326.903 246.225 322.713 240.322 317.124 238.913C313.041 246.993 310.551 257.229 310.701 267.177Z" fill="#FBA3CB"/>
<g opacity="0.2">
<path d="M310.701 267.177C311.887 267.636 313.159 267.881 314.473 267.881C321.303 267.903 326.86 261.36 326.881 253.269C326.903 246.225 322.713 240.322 317.124 238.913C313.041 246.993 310.551 257.229 310.701 267.177Z" fill="#242424"/>
</g>
<path d="M314.495 269.931C314.484 269.931 314.473 269.931 314.463 269.931C312.913 269.931 311.395 269.643 309.963 269.088C309.183 268.789 308.67 268.042 308.649 267.209C308.499 257.304 310.914 246.663 315.286 237.996C315.713 237.142 316.686 236.693 317.626 236.928C324.199 238.593 328.955 245.467 328.933 253.28C328.923 257.678 327.448 261.819 324.797 264.946C322.061 268.159 318.406 269.931 314.495 269.931ZM312.753 265.651C313.319 265.768 313.896 265.832 314.473 265.832C317.188 265.832 319.71 264.584 321.666 262.289C323.696 259.898 324.819 256.685 324.829 253.259C324.84 247.965 322.125 243.279 318.171 241.443C314.783 248.787 312.849 257.432 312.753 265.651Z" fill="#242424"/>
<path d="M333.133 314.055C333.016 356.718 282.924 361.073 259.38 361.254C258.578 361.254 257.809 361.265 257.071 361.254C237.353 361.201 193.482 358.532 183.371 327.771C181.993 323.598 181.245 318.912 181.255 313.65C181.394 262.694 222.156 226.34 257.424 226.436C292.927 226.532 333.272 263.1 333.133 314.055Z" fill="#74698B"/>
<g opacity="0.6">
<path d="M332.973 312.487C329.542 265.299 291.335 232.125 257.531 232.029C222.284 231.933 181.576 268.213 181.351 319.094C181.191 317.461 181.106 315.774 181.116 314.013C181.255 263.057 222.017 226.714 257.285 226.799C292.329 226.895 332.107 262.534 332.973 312.487Z" fill="white"/>
</g>
<path d="M321.11 301.813C307.249 294.715 289.262 311.131 259.551 297.159H258.931C229.145 310.971 207.151 294.448 193.247 301.471C179.342 308.484 183.35 327.803 183.35 327.803C193.182 357.753 237.877 360.368 257.039 360.411C257.691 360.411 258.365 360.411 259.059 360.411C259.754 360.422 260.438 360.422 261.079 360.422C280.242 360.475 320.854 358.095 330.846 328.198C330.868 328.187 334.982 308.9 321.11 301.813Z" fill="#C7C3D1"/>
<path d="M257.586 300.042C256.186 302.433 254.305 304.578 252.136 306.393C249.956 308.207 247.455 309.67 244.826 310.79C239.535 313.021 233.775 313.854 228.143 313.864C222.361 313.822 216.739 312.477 211.545 310.267C208.959 309.147 206.458 307.78 204.182 306.105C203.626 305.656 203.059 305.24 202.525 304.781L201.745 304.066L201.36 303.703L200.997 303.308C200.014 302.305 199.18 301.131 198.571 299.893C200.516 301.857 202.835 303.212 205.229 304.386C207.634 305.539 210.135 306.478 212.667 307.247C217.744 308.773 222.981 309.734 228.143 309.776C233.433 309.766 238.702 309.275 243.725 307.78C248.748 306.297 253.45 303.735 257.586 300.042Z" fill="#A6A3AE"/>
<path d="M317.786 300.042C316.386 302.433 314.505 304.578 312.336 306.393C310.156 308.207 307.655 309.67 305.026 310.79C299.735 313.021 293.975 313.854 288.343 313.864C282.561 313.822 276.939 312.477 271.745 310.267C269.159 309.147 266.658 307.78 264.382 306.105C263.826 305.656 263.259 305.24 262.725 304.781L261.945 304.066L261.56 303.703L261.197 303.308C260.214 302.305 259.38 301.131 258.771 299.893C260.716 301.857 263.035 303.212 265.429 304.386C267.834 305.539 270.334 306.478 272.867 307.247C277.944 308.773 283.181 309.734 288.343 309.776C293.633 309.766 298.902 309.275 303.925 307.78C308.948 306.297 313.65 303.735 317.786 300.042Z" fill="#A6A3AE"/>
<g opacity="0.2">
<path d="M332.492 314.376C332.375 357.038 282.283 361.393 258.739 361.585C257.937 361.585 257.168 361.585 256.43 361.585C236.712 361.532 192.851 358.864 182.73 328.102C181.352 323.929 180.603 319.243 180.614 313.981C180.625 310.555 180.817 307.182 181.181 303.895C181.49 307.203 182.142 310.267 183.072 313.095C193.182 343.857 237.054 346.525 256.772 346.578C257.51 346.578 258.279 346.578 259.081 346.578C281.129 346.397 326.465 342.576 332.214 307.043C332.407 309.434 332.492 311.889 332.492 314.376Z" fill="#242424"/>
</g>
<path d="M257.552 363.314C257.392 363.314 257.221 363.314 257.061 363.314C215.038 363.197 188.886 351.136 181.416 328.422C179.93 323.918 179.193 318.944 179.203 313.65C179.267 289.57 188.309 266.782 204.671 249.501C219.559 233.779 239.213 224.397 257.296 224.397C257.339 224.397 257.392 224.397 257.435 224.397C275.625 224.45 295.332 233.939 310.134 249.79C326.347 267.134 335.239 289.965 335.175 314.077C335.121 333.471 325.246 347.41 305.827 355.49C293.708 360.539 278.083 363.175 259.391 363.325C258.76 363.314 258.151 363.314 257.552 363.314ZM257.296 228.485C222.455 228.485 183.446 264.85 183.318 313.65C183.307 318.506 183.98 323.043 185.327 327.131C193.995 353.505 229.135 359.13 257.082 359.205C257.819 359.205 258.578 359.205 259.38 359.205C277.527 359.055 292.628 356.536 304.256 351.691C322.008 344.304 331.039 331.635 331.081 314.045L333.133 314.055L331.081 314.045C331.145 290.99 322.638 269.151 307.142 252.565C293.088 237.526 274.502 228.528 257.424 228.474C257.381 228.485 257.339 228.485 257.296 228.485Z" fill="#242424"/>
<path d="M154.006 278.48C159.467 278.128 164.949 278.459 170.379 279.131C175.819 279.804 181.216 280.882 186.495 282.387C187.82 282.76 189.124 283.177 190.439 283.593C191.732 284.052 193.047 284.468 194.318 284.98C196.894 285.952 199.416 287.04 201.874 288.289C206.801 290.723 211.472 293.722 215.554 297.34C213.171 295.996 210.83 294.64 208.404 293.455C207.806 293.135 207.186 292.868 206.587 292.569C205.978 292.281 205.38 291.982 204.749 291.715C204.129 291.449 203.52 291.171 202.911 290.894L201.051 290.114C200.432 289.848 199.812 289.602 199.181 289.367C198.551 289.122 197.931 288.866 197.3 288.631C196.039 288.172 194.778 287.691 193.506 287.275C190.963 286.4 188.398 285.589 185.811 284.863C180.639 283.379 175.38 282.173 170.079 281.106C164.757 280.07 159.413 279.185 154.006 278.48Z" fill="#242424"/>
<path d="M150.575 300.255C155.758 298.515 161.145 297.437 166.574 296.69C172.003 295.942 177.496 295.612 182.99 295.708C184.358 295.729 185.736 295.793 187.104 295.857C188.472 295.964 189.851 296.039 191.208 296.199C193.944 296.476 196.67 296.892 199.352 297.458C204.738 298.547 210.018 300.244 214.902 302.699C212.252 302.005 209.644 301.301 206.994 300.778C206.342 300.617 205.668 300.521 205.006 300.383C204.343 300.265 203.68 300.127 203.018 300.03C202.355 299.934 201.693 299.817 201.03 299.7L199.031 299.422C198.369 299.326 197.696 299.251 197.033 299.177C196.36 299.102 195.697 299.016 195.024 298.952C193.688 298.835 192.352 298.686 191.005 298.611C188.323 298.419 185.64 298.291 182.947 298.248C177.571 298.141 172.174 298.312 166.788 298.654C161.38 299.038 155.983 299.55 150.575 300.255Z" fill="#242424"/>
<path d="M153.418 324.046C157.96 321.004 162.887 318.56 167.92 316.414C172.965 314.28 178.17 312.508 183.503 311.174C184.828 310.832 186.174 310.544 187.521 310.245C188.868 309.989 190.214 309.701 191.572 309.498C194.286 309.05 197.022 308.729 199.769 308.58C205.251 308.228 210.798 308.484 216.153 309.573C213.417 309.594 210.713 309.594 208.009 309.786C207.335 309.807 206.662 309.882 205.989 309.925C205.316 309.978 204.642 310.021 203.98 310.106C203.306 310.181 202.644 310.245 201.97 310.309L199.951 310.576C199.288 310.651 198.615 310.757 197.952 310.864C197.289 310.971 196.616 311.056 195.964 311.174C194.639 311.409 193.314 311.622 191.999 311.9C189.359 312.412 186.73 312.999 184.123 313.661C178.896 314.963 173.745 316.553 168.626 318.282C163.517 320.043 158.451 321.954 153.418 324.046Z" fill="#242424"/>
<path d="M358.177 279.878C352.769 280.583 347.426 281.469 342.114 282.494C336.813 283.55 331.555 284.756 326.382 286.251C323.796 286.976 321.231 287.788 318.687 288.663C317.405 289.079 316.154 289.57 314.893 290.018C314.263 290.253 313.643 290.509 313.012 290.755C312.382 290.99 311.751 291.235 311.142 291.502L309.282 292.281C308.673 292.559 308.064 292.847 307.444 293.103C306.824 293.359 306.215 293.669 305.606 293.957C304.997 294.256 304.377 294.523 303.789 294.843C301.352 296.028 299.012 297.373 296.639 298.728C300.732 295.11 305.392 292.11 310.319 289.677C312.777 288.439 315.299 287.339 317.875 286.368C319.157 285.866 320.461 285.439 321.754 284.98C323.069 284.564 324.373 284.148 325.698 283.774C330.978 282.269 336.375 281.191 341.815 280.519C347.222 279.868 352.716 279.526 358.177 279.878Z" fill="#242424"/>
<path d="M361.597 301.663C356.189 300.959 350.792 300.447 345.405 300.084C340.008 299.753 334.622 299.571 329.246 299.678C326.553 299.721 323.87 299.838 321.188 300.041C319.841 300.116 318.505 300.265 317.169 300.383C316.496 300.447 315.834 300.543 315.16 300.607C314.487 300.671 313.824 300.756 313.162 300.852L311.163 301.13C310.501 301.236 309.838 301.354 309.165 301.461C308.491 301.557 307.839 301.695 307.177 301.813C306.514 301.941 305.852 302.048 305.189 302.208C302.538 302.731 299.92 303.435 297.28 304.129C302.164 301.674 307.444 299.977 312.83 298.888C315.524 298.323 318.249 297.906 320.974 297.629C322.342 297.469 323.71 297.394 325.078 297.287C326.446 297.223 327.825 297.148 329.193 297.138C334.686 297.031 340.179 297.373 345.609 298.12C351.027 298.846 356.413 299.924 361.597 301.663Z" fill="#242424"/>
<path d="M358.765 325.455C353.731 323.363 348.655 321.452 343.557 319.68C338.437 317.951 333.286 316.361 328.06 315.059C325.452 314.386 322.823 313.81 320.194 313.298C318.88 313.02 317.554 312.817 316.229 312.572C315.566 312.454 314.904 312.369 314.241 312.262C313.579 312.155 312.916 312.049 312.243 311.974L310.244 311.718C309.571 311.654 308.908 311.59 308.235 311.515C307.562 311.43 306.888 311.387 306.226 311.334C305.552 311.291 304.879 311.216 304.206 311.195C301.502 311.003 298.798 311.003 296.062 310.981C301.416 309.893 306.963 309.636 312.446 309.989C315.192 310.138 317.928 310.458 320.643 310.907C322 311.109 323.347 311.398 324.693 311.654C326.04 311.953 327.376 312.241 328.712 312.582C334.034 313.917 339.25 315.688 344.294 317.823C349.296 319.969 354.212 322.413 358.765 325.455Z" fill="#242424"/>
<path d="M226.541 272.119C224.393 271.852 222.426 272.663 220.877 274.243C218.889 276.26 217.617 279.516 217.574 283.348C217.531 288.29 219.573 292.815 222.565 295.163C223.698 296.06 224.97 296.636 226.306 296.796C231.201 297.405 235.208 292.378 235.272 285.568C235.347 278.747 231.436 272.727 226.541 272.119Z" fill="white"/>
<path d="M227.129 297.223C226.84 297.223 226.562 297.202 226.274 297.17C224.884 296.999 223.57 296.423 222.341 295.451C219.177 292.975 217.157 288.215 217.2 283.337C217.232 279.548 218.472 276.132 220.609 273.976C222.287 272.268 224.414 271.468 226.594 271.745C231.66 272.386 235.732 278.587 235.668 285.578C235.636 289.634 234.172 293.317 231.778 295.409C230.388 296.604 228.796 297.223 227.129 297.223ZM225.729 272.439C224.051 272.439 222.469 273.144 221.144 274.499C219.145 276.527 217.98 279.751 217.948 283.348C217.905 288.001 219.808 292.527 222.8 294.864C223.912 295.74 225.109 296.273 226.359 296.423C228.123 296.647 229.822 296.092 231.265 294.832C233.509 292.868 234.866 289.41 234.898 285.557C234.963 278.939 231.19 273.069 226.487 272.482C226.242 272.46 225.985 272.439 225.729 272.439Z" fill="#242424"/>
<path d="M226.541 272.119C224.392 271.852 222.426 272.663 220.876 274.243C220.663 274.659 220.47 275.086 220.299 275.545C219.925 276.57 219.754 278.043 220.481 278.79C221.111 279.43 221.945 279.068 222.704 279.164C223.954 279.313 225.076 280.999 225.023 282.665C224.98 284.319 223.773 285.632 222.522 285.386C221.657 285.216 220.705 284.426 219.989 284.991C219.455 285.408 219.348 286.379 219.391 287.222C219.519 290.125 220.737 292.943 222.415 294.971C222.469 295.035 222.522 295.099 222.576 295.163C223.708 296.06 224.98 296.636 226.316 296.796C231.211 297.405 235.219 292.378 235.283 285.568C235.347 278.747 231.435 272.727 226.541 272.119Z" fill="#16B768"/>
<path d="M229.505 296.35C233.469 296.014 236.273 290.914 235.768 284.958C235.263 279.002 231.64 274.446 227.676 274.781C223.712 275.117 220.908 280.217 221.413 286.173C221.918 292.129 225.541 296.685 229.505 296.35Z" fill="#242424"/>
<path d="M222.8 278.811C222.041 278.715 221.197 279.078 220.577 278.438C219.851 277.69 220.022 276.217 220.396 275.193C220.567 274.734 220.759 274.296 220.973 273.891C218.985 275.908 217.713 279.163 217.67 282.995C217.628 287.937 219.669 292.463 222.661 294.811C222.608 294.747 222.554 294.683 222.501 294.619C220.834 292.591 219.605 289.773 219.477 286.87C219.444 286.016 219.551 285.055 220.075 284.639C220.791 284.073 221.742 284.863 222.608 285.034C223.858 285.279 225.066 283.967 225.109 282.312C225.173 280.647 224.051 278.961 222.8 278.811Z" fill="white"/>
<path d="M225.75 272.066C226.017 272.066 226.284 272.087 226.551 272.119C231.446 272.727 235.358 278.758 235.294 285.568C235.24 292.004 231.649 296.85 227.129 296.85C226.861 296.85 226.594 296.828 226.327 296.796C224.98 296.626 223.719 296.049 222.586 295.163C219.594 292.815 217.542 288.289 217.595 283.348C217.627 279.516 218.91 276.26 220.898 274.243C222.234 272.866 223.912 272.066 225.75 272.066ZM225.75 269.653C223.292 269.653 221.015 270.657 219.156 272.557C216.666 275.086 215.212 279.014 215.169 283.326C215.116 288.898 217.392 294.16 221.09 297.063C222.608 298.259 224.264 298.974 226.028 299.198C226.391 299.241 226.765 299.273 227.129 299.273C233.092 299.273 237.634 293.391 237.709 285.6C237.784 277.477 233.017 270.507 226.851 269.728C226.477 269.675 226.113 269.653 225.75 269.653Z" fill="#242424"/>
<path d="M288.923 272.119C291.071 271.852 293.038 272.663 294.587 274.243C296.575 276.26 297.847 279.516 297.89 283.348C297.933 288.29 295.891 292.815 292.899 295.163C291.766 296.06 290.494 296.636 289.158 296.796C284.263 297.405 280.256 292.378 280.191 285.568C280.117 278.747 284.039 272.727 288.923 272.119Z" fill="white"/>
<path d="M288.335 297.223C286.668 297.223 285.076 296.604 283.697 295.398C281.292 293.296 279.839 289.624 279.807 285.568C279.743 278.577 283.814 272.375 288.88 271.735C291.06 271.468 293.187 272.258 294.865 273.976C296.992 276.143 298.242 279.548 298.274 283.337C298.317 288.215 296.297 292.975 293.134 295.452C291.915 296.412 290.59 296.989 289.201 297.17C288.912 297.213 288.624 297.223 288.335 297.223ZM288.976 272.493C284.274 273.08 280.501 278.95 280.565 285.568C280.598 289.41 281.955 292.879 284.199 294.843C285.642 296.103 287.341 296.658 289.105 296.434C290.355 296.274 291.552 295.751 292.664 294.875C295.656 292.538 297.558 288.012 297.516 283.358C297.484 279.761 296.319 276.538 294.32 274.51C292.792 272.941 290.943 272.247 288.976 272.493Z" fill="#242424"/>
<path d="M288.923 272.119C291.071 271.852 293.038 272.663 294.587 274.243C294.801 274.659 294.993 275.086 295.164 275.545C295.538 276.57 295.709 278.043 294.983 278.79C294.352 279.43 293.519 279.068 292.76 279.164C291.509 279.313 290.387 280.999 290.441 282.665C290.483 284.319 291.691 285.632 292.941 285.386C293.807 285.216 294.758 284.426 295.474 284.991C296.009 285.408 296.116 286.379 296.073 287.222C295.945 290.125 294.726 292.943 293.048 294.971C292.995 295.035 292.941 295.099 292.888 295.163C291.755 296.06 290.483 296.636 289.147 296.796C284.253 297.405 280.245 292.378 280.181 285.568C280.117 278.747 284.039 272.727 288.923 272.119Z" fill="#16B768"/>
<path d="M294.055 286.174C294.56 280.218 291.757 275.118 287.793 274.782C283.829 274.447 280.206 279.003 279.701 284.959C279.195 290.915 281.999 296.015 285.963 296.35C289.927 296.686 293.55 292.13 294.055 286.174Z" fill="#242424"/>
<path d="M292.674 278.811C293.433 278.715 294.277 279.078 294.897 278.438C295.624 277.69 295.453 276.217 295.079 275.193C294.908 274.734 294.715 274.296 294.502 273.891C296.49 275.908 297.761 279.163 297.804 282.995C297.847 287.937 295.806 292.463 292.813 294.811C292.867 294.747 292.92 294.683 292.973 294.619C294.641 292.591 295.87 289.773 295.998 286.87C296.03 286.016 295.923 285.055 295.399 284.639C294.683 284.073 293.732 284.863 292.867 285.034C291.616 285.279 290.408 283.967 290.366 282.312C290.302 280.647 291.424 278.961 292.674 278.811Z" fill="white"/>
<path d="M289.724 272.066C291.563 272.066 293.241 272.866 294.587 274.243C296.575 276.26 297.847 279.516 297.89 283.348C297.932 288.289 295.891 292.815 292.899 295.163C291.766 296.06 290.494 296.636 289.158 296.796C288.891 296.828 288.624 296.85 288.356 296.85C283.836 296.85 280.255 292.004 280.191 285.568C280.127 278.747 284.039 272.727 288.934 272.119C289.19 272.087 289.457 272.066 289.724 272.066ZM289.724 269.653C289.361 269.653 288.987 269.675 288.624 269.717C282.457 270.486 277.69 277.456 277.765 285.589C277.84 293.381 282.382 299.262 288.346 299.262C288.709 299.262 289.083 299.241 289.447 299.187C291.21 298.963 292.867 298.248 294.384 297.053C298.082 294.16 300.348 288.898 300.294 283.326C300.251 279.014 298.798 275.086 296.297 272.557C294.459 270.657 292.183 269.653 289.724 269.653Z" fill="#242424"/>
<path d="M248.767 249.734C248.245 249.902 247.821 250.02 247.348 250.138C246.884 250.257 246.421 250.355 245.958 250.434C245.022 250.602 244.076 250.72 243.12 250.769C241.208 250.878 239.207 250.749 237.236 250.079C235.284 249.429 233.363 248.118 232.17 246.314C231.845 245.881 231.618 245.398 231.372 244.935C231.175 244.452 230.948 243.979 230.82 243.486C230.495 242.51 230.347 241.525 230.228 240.549C230.021 238.627 230.189 236.636 230.682 234.734C230.958 233.788 231.303 232.861 231.746 231.984C232.209 231.117 232.751 230.299 233.353 229.54C234.585 228.032 236.093 226.83 237.699 225.894C239.335 224.977 241.04 224.287 242.883 223.952C243.129 223.903 243.376 224.07 243.415 224.326C243.455 224.533 243.346 224.731 243.169 224.819L243.129 224.829C240.084 226.386 237.315 228.535 235.531 231.176C234.624 232.497 234.003 233.955 233.658 235.473C233.343 237.001 233.313 238.597 233.53 240.174C233.648 240.953 233.796 241.722 234.052 242.412C234.161 242.776 234.338 243.082 234.476 243.417C234.663 243.722 234.811 244.038 235.028 244.314C235.817 245.457 236.989 246.216 238.369 246.679C241.149 247.586 244.677 247.27 247.712 246.482L247.801 246.462C248.718 246.226 249.644 246.768 249.881 247.684C250.107 248.561 249.614 249.458 248.767 249.734Z" fill="#242424"/>
<path d="M247.062 253.834C246.825 254.13 246.658 254.317 246.451 254.534C246.254 254.751 246.047 254.948 245.83 255.145C245.416 255.539 244.972 255.914 244.519 256.259C243.612 256.968 242.617 257.56 241.572 258.062C239.483 259.058 237.039 259.531 234.713 259.196C233.55 259.028 232.426 258.713 231.391 258.259C230.366 257.777 229.381 257.225 228.523 256.535C226.769 255.204 225.35 253.558 224.167 251.794C224.079 251.656 224.118 251.479 224.246 251.39C224.354 251.311 224.502 251.331 224.601 251.42C226.158 252.79 227.784 254.051 229.529 254.987L230.179 255.332L230.849 255.628C231.066 255.736 231.293 255.825 231.52 255.904C231.746 255.983 231.973 256.072 232.2 256.141C233.106 256.416 234.033 256.574 234.939 256.604C236.773 256.673 238.547 256.17 240.163 255.283C240.971 254.84 241.72 254.288 242.449 253.686C242.804 253.391 243.159 253.075 243.484 252.74C243.652 252.573 243.81 252.405 243.957 252.238C244.105 252.08 244.283 251.873 244.371 251.765L244.391 251.735C244.972 250.986 246.047 250.858 246.786 251.43C247.525 252.001 247.663 253.085 247.091 253.824C247.072 253.815 247.062 253.824 247.062 253.834Z" fill="#242424"/>
<path d="M247.738 294.576C246.766 296.775 250.827 304.353 256.523 304.364C262.22 304.375 266.217 296.604 265.212 294.619C263.951 292.153 248.957 291.833 247.738 294.576Z" fill="#242424"/>
<path d="M260.146 294.939C260.146 295.249 258.511 295.494 256.48 295.494C254.461 295.494 252.815 295.249 252.815 294.939C252.815 294.63 254.45 294.384 256.48 294.384C258.5 294.373 260.146 294.63 260.146 294.939Z" fill="white"/>
<path d="M251.596 324.494C251.52 324.365 251.455 324.193 251.39 324.01C249.973 324.785 247.226 326.756 247.637 330.245C247.918 332.604 250.352 335.049 253.434 336.05C256.592 337.084 259.61 336.384 261.697 334.144C263.557 332.152 264.228 330.084 263.622 328.178C263.092 326.487 261.665 325.162 260.248 324.451C260.14 325.033 260.042 325.421 259.999 325.496C259.848 325.722 259.739 325.884 258.182 325.884C257.933 325.884 257.663 325.884 257.338 325.873C254.029 325.787 252.093 325.324 251.596 324.494Z" fill="white"/>
<path d="M260.464 308.383C259.988 308.62 256.246 310.332 252.904 308.609C251.087 307.672 247.248 305.701 243.041 305.701C239.58 305.701 235.87 307.047 232.842 311.409C229.457 316.288 229.273 323.816 232.388 330.137C233.967 333.347 237.417 338.215 244.458 340.821C243.646 340.175 242.922 339.442 242.305 338.624C239.98 335.522 239.385 331.494 240.64 327.273C241.743 323.557 244.533 318.732 251.617 316.826C251.704 316.805 251.779 316.783 251.823 316.772C251.996 316.665 252.201 316.578 252.439 316.492C254.321 315.825 259.404 315.501 260.388 316.632C260.529 316.794 260.637 317.074 260.702 317.429C262.541 317.817 269.333 319.723 271.042 327.197C272.047 331.602 271.193 335.921 268.684 339.044C268.186 339.658 267.559 340.315 266.791 340.939C271.831 339.27 276.017 336.427 278.904 332.539C282.754 327.37 283.749 321.102 281.63 315.372C277.109 303.095 261.578 308.017 260.464 308.383Z" fill="white"/>
<path d="M259.22 322.717C259.48 320.693 259.707 317.989 259.394 317.462C259.069 317.225 256.884 317.031 254.624 317.332C253.359 317.505 252.731 317.742 252.483 317.892C252.461 317.903 252.439 317.925 252.418 317.936C252.396 317.946 252.385 317.957 252.374 317.968C252.31 319.379 252.31 321.306 252.45 322.599C252.504 322.653 252.547 322.717 252.569 322.782C252.634 322.954 252.623 323.137 252.547 323.288C252.602 323.525 252.656 323.719 252.72 323.837C253.229 324.43 257.522 324.677 258.939 324.58C258.972 324.43 259.004 324.225 259.037 324.01C259.015 324.01 258.993 323.999 258.972 323.988C258.626 323.913 258.399 323.568 258.474 323.213C258.55 322.868 258.885 322.653 259.22 322.717Z" fill="#50468F"/>
<path d="M267.678 338.225C269.928 335.414 270.695 331.494 269.776 327.467C268.316 321.069 262.843 319.228 260.821 318.765C260.843 320.1 260.67 321.769 260.475 323.116C262.314 323.913 264.185 325.582 264.877 327.79C265.396 329.448 265.439 332.054 262.66 335.027C260.951 336.858 258.712 337.816 256.279 337.816C255.23 337.816 254.148 337.644 253.045 337.278C249.454 336.104 246.707 333.282 246.361 330.396C245.831 325.862 249.67 323.439 251.163 322.685C251.001 321.209 251.022 319.346 251.066 318.366C245.247 320.272 242.868 324.419 241.916 327.639C240.78 331.462 241.299 335.091 243.376 337.848C244.955 339.948 247.334 341.445 250.309 342.264C251.249 342.393 252.223 342.501 253.261 342.555C256.246 342.716 259.101 342.565 261.784 342.135C264.217 341.359 266.218 340.045 267.678 338.225Z" fill="#50468F"/>
<g opacity="0.3">
<path d="M234.421 326.411C232.334 321.856 232.452 313.294 232.452 313.294C232.052 313.552 231.685 313.865 231.36 314.231C229.511 318.916 229.835 324.936 232.398 330.138C233.772 332.927 236.562 336.965 241.883 339.69C242.922 340.024 243.506 339.981 243.506 339.981L243.495 339.97C243.073 339.55 242.673 339.119 242.316 338.646C241.018 336.912 240.261 334.887 240.056 332.701C240.056 332.679 236.519 330.967 234.421 326.411Z" fill="#242424"/>
</g>
<g opacity="0.3">
<path d="M271.355 332.496C271.063 334.941 270.166 337.192 268.695 339.033C268.197 339.647 267.57 340.304 266.802 340.929C271.842 339.26 276.027 336.416 278.915 332.529C282.765 327.359 283.76 321.091 281.641 315.362C281.413 314.737 281.143 314.166 280.862 313.639C282.506 327.424 273.659 331.645 271.355 332.496Z" fill="#242424"/>
</g>
<g opacity="0.3">
<path d="M248.437 331.473C248.437 331.473 251.585 329.028 252.785 329.028C253.986 329.028 258.388 328.964 260.194 328.964C261.654 328.964 263.2 329.782 263.795 330.116C263.871 329.459 263.828 328.813 263.622 328.178C263.092 326.487 261.665 325.162 260.248 324.451C260.14 325.033 260.042 325.421 259.999 325.496C259.848 325.722 259.739 325.884 258.182 325.884C257.933 325.884 257.663 325.884 257.338 325.873C254.018 325.787 252.093 325.324 251.596 324.505C251.52 324.376 251.455 324.204 251.39 324.021C249.973 324.796 247.226 326.767 247.637 330.256C247.648 330.375 247.67 330.482 247.702 330.601C248.048 331.193 248.437 331.473 248.437 331.473Z" fill="#242424"/>
</g>
<path d="M255.63 344.838C254.797 344.838 253.964 344.817 253.121 344.763C238.812 343.976 232.745 335.867 230.398 331.096C226.948 324.096 227.196 315.674 231.025 310.149C236.205 302.664 243.917 301.49 253.932 306.638C256.398 307.909 259.48 306.401 259.502 306.38C259.567 306.348 259.631 306.315 259.707 306.294C266.142 304.097 279.445 303.009 283.717 314.586C286.096 321.037 284.993 328.048 280.689 333.832C275.443 340.896 266.402 344.838 255.63 344.838ZM242.987 306.595C239.688 306.595 236.368 307.941 233.61 311.926C230.463 316.471 230.3 323.794 233.22 329.728C235.265 333.875 240.586 340.939 253.294 341.639C264.087 342.232 273.151 338.71 278.169 331.979C281.824 327.057 282.776 321.113 280.765 315.663C276.611 304.388 262.195 308.771 260.799 309.223C260.042 309.578 256.084 311.269 252.483 309.406C249.746 308.006 246.372 306.595 242.987 306.595Z" fill="#242424"/>
<path d="M258.247 326.487C257.966 326.487 257.652 326.487 257.295 326.476C251.996 326.336 251.358 325.27 251.087 324.807C250.287 323.471 250.395 319.486 250.471 317.817C250.492 317.236 250.828 316.439 252.244 315.932C254.094 315.275 259.577 314.78 260.853 316.245C262.195 317.796 260.853 325.323 260.507 325.84C260.183 326.314 259.826 326.487 258.247 326.487ZM253.196 323.428C254.007 323.837 256.938 324.02 258.42 323.988C258.701 322.362 259.08 319.045 258.896 317.936C257.695 317.602 254.04 317.839 252.947 318.323C252.872 320.52 252.98 322.75 253.196 323.428Z" fill="#242424"/>
<path d="M256.279 338.419C255.165 338.419 254.007 338.236 252.839 337.848C249.032 336.61 246.112 333.573 245.745 330.46C245.182 325.636 249.26 322.717 251.498 321.845L252.418 324.171C252.223 324.246 247.767 326.066 248.243 330.17C248.492 332.302 250.763 334.531 253.629 335.468C255.013 335.921 258.528 336.653 261.254 333.724C262.984 331.871 263.59 330.062 263.049 328.35C262.443 326.422 260.432 324.914 258.831 324.559L259.372 322.114C261.697 322.62 264.52 324.666 265.439 327.596C266.012 329.405 266.056 332.237 263.092 335.425C261.265 337.396 258.885 338.419 256.279 338.419Z" fill="#242424"/>
<path d="M255.933 344.881C249.692 344.881 244.674 342.792 241.829 338.99C239.385 335.738 238.758 331.516 240.067 327.101C241.213 323.245 244.111 318.227 251.466 316.245C251.531 316.223 251.585 316.213 251.628 316.202C252.147 315.986 252.753 316.126 253.11 316.59C253.532 317.139 253.423 317.925 252.883 318.345C252.666 318.517 252.461 318.571 252.126 318.657C245.896 320.337 243.441 324.559 242.478 327.801C241.397 331.441 241.884 334.876 243.841 337.483C246.21 340.627 250.503 342.361 255.933 342.361C260.929 342.361 264.823 340.8 267.202 337.838C269.376 335.135 270.079 331.495 269.192 327.596C267.516 320.262 260.086 319.217 260.01 319.207C259.318 319.12 258.842 318.496 258.928 317.807C259.015 317.117 259.653 316.643 260.334 316.73C260.432 316.74 269.592 318.022 271.647 327.047C272.696 331.635 271.799 336.136 269.171 339.4C267.17 341.909 263.255 344.881 255.933 344.881Z" fill="#242424"/>
<path opacity="0.7" d="M474.485 241.493C474.485 250.392 468.384 258.973 457.097 266.863C445.825 274.744 429.481 281.861 409.24 287.846C368.764 299.815 312.818 307.225 251 307.225C189.182 307.225 133.236 299.815 92.76 287.846C72.5189 281.861 56.1751 274.744 44.9028 266.863C33.6163 258.973 27.5144 250.392 27.5144 241.493C27.5144 232.593 33.6163 224.012 44.9028 216.122C56.1751 208.241 72.5189 201.124 92.76 195.139C133.236 183.17 189.182 175.76 251 175.76C312.818 175.76 368.764 183.17 409.24 195.139C429.481 201.124 445.825 208.241 457.097 216.122C468.384 224.012 474.485 232.593 474.485 241.493Z" stroke="#2BD071"/>
<path opacity="0.7" d="M184 337.273C114.111 345.178 64.481 365.195 64.481 388.641C64.481 419.004 147.723 443.619 250.407 443.619C353.092 443.619 436.334 419.004 436.334 388.641C436.334 366.525 392.171 347.458 328.5 338.733" stroke="#2BD071"/>
<path opacity="0.7" d="M190 469.559C188.48 469.815 186.979 470.079 185.5 470.353M322 471.37C354.099 477.994 375.099 488.996 375.099 501.448C375.099 521.691 319.604 538.1 251.148 538.1C182.692 538.1 127.197 521.691 127.197 501.448C127.197 491.709 140.044 482.856 161 476.292" stroke="#2BD071"/>
<defs>
<filter id="filter0_f_915_16370" x="87.6807" y="525.193" width="337.896" height="130.2" filterUnits="userSpaceOnUse" color-interpolation-filters="sRGB">
<feFlood flood-opacity="0" result="BackgroundImageFix"/>
<feBlend mode="normal" in="SourceGraphic" in2="BackgroundImageFix" result="shape"/>
<feGaussianBlur stdDeviation="18.5" result="effect1_foregroundBlur_915_16370"/>
</filter>
<filter id="filter1_f_915_16370" x="108.55" y="174.654" width="296.156" height="494.893" filterUnits="userSpaceOnUse" color-interpolation-filters="sRGB">
<feFlood flood-opacity="0" result="BackgroundImageFix"/>
<feBlend mode="normal" in="SourceGraphic" in2="BackgroundImageFix" result="shape"/>
<feGaussianBlur stdDeviation="32.5" result="effect1_foregroundBlur_915_16370"/>
</filter>
<filter id="filter2_f_915_16370" x="0.333496" y="0.353027" width="500.406" height="637.429" filterUnits="userSpaceOnUse" color-interpolation-filters="sRGB">
<feFlood flood-opacity="0" result="BackgroundImageFix"/>
<feBlend mode="normal" in="SourceGraphic" in2="BackgroundImageFix" result="shape"/>
<feGaussianBlur stdDeviation="32.5" result="effect1_foregroundBlur_915_16370"/>
</filter>
<linearGradient id="paint0_linear_915_16370" x1="234.857" y1="65.353" x2="234.857" y2="572.782" gradientUnits="userSpaceOnUse">
<stop stop-color="#2BD071" stop-opacity="0"/>
<stop offset="0.350975" stop-color="#2BD071"/>
<stop offset="1" stop-color="#2BD071"/>
</linearGradient>
</defs>
</svg>
