<svg width="384" height="384" viewBox="0 0 384 384" fill="none" xmlns="http://www.w3.org/2000/svg">
<g clip-path="url(#clip0_218_19131)">
<path d="M110.445 384C99.8122 380 95.2266 372.28 95.8773 361C96.2378 354.56 89.3594 348.57 82.8614 349.18C81.2331 349.402 79.729 350.171 78.5962 351.36C77.2445 352.65 75.943 354 74.5913 355.3C65.8306 363.72 54.5668 363.76 45.8561 355.3C40.1158 349.727 34.4622 344.06 28.8954 338.3C20.425 329.55 20.4951 318.36 28.8954 309.56C29.2358 309.2 29.5962 308.85 29.8966 308.49C35.9039 302.41 36.2143 298.06 31.1181 291.13C30.4755 290.28 29.6473 289.588 28.6965 289.107C27.7457 288.625 26.6974 288.366 25.6314 288.35C23.8892 288.24 22.1371 288.3 20.385 288.29C8.13996 288.18 0.0901103 280.21 0 267.91C0 260.16 0 252.41 0 244.66C0 231.99 7.54924 224.15 20.2848 223.44C20.6553 223.44 21.0357 223.44 21.4062 223.44C30.7276 223.27 32.7301 221.62 34.8927 212.53C35.6236 209.53 33.9616 207.53 32.0492 205.66C28.0443 201.8 24.3298 197.88 23.1583 192.11C21.9068 185.89 23.1583 180.23 27.3635 175.7C33.8815 168.63 40.6698 161.78 47.7184 155.25C51.0482 152.245 55.3432 150.526 59.8295 150.403C64.3159 150.28 68.6987 151.761 72.1884 154.58C74.4212 156.385 76.5286 158.34 78.4961 160.43C80.6888 162.69 83.1818 163.05 86.0453 162.19C94.786 159.54 95.8974 158.06 95.9274 148.93C95.9274 136.64 102.325 128.93 114.49 127.75C123.569 126.845 132.715 126.845 141.794 127.75C153.708 128.94 160.196 136.49 160.707 148.49C160.777 149.238 160.777 149.992 160.707 150.74C159.916 156.21 162.329 159.31 167.445 161.19C173.552 163.43 175.124 163.5 179.71 158.65C185.717 152.28 192.576 148.9 201.487 151.29C204.982 152.326 208.142 154.264 210.648 156.91C216.165 162.35 221.661 167.79 227.068 173.35C235.999 182.58 235.889 193.74 226.908 202.95C225.686 204.2 224.465 205.44 223.263 206.72C222.384 207.631 221.787 208.776 221.545 210.019C221.303 211.261 221.427 212.547 221.902 213.72C222.592 215.72 223.504 217.65 224.335 219.6C224.768 220.785 225.574 221.798 226.631 222.488C227.689 223.179 228.941 223.509 230.202 223.43C232.573 223.353 234.947 223.417 237.31 223.62C248.825 224.96 255.413 231.05 256.334 242.62C257.272 252.329 257.178 262.111 256.053 271.8C254.772 281.38 246.882 288.09 237.2 288.3C236.459 288.3 235.708 288.3 234.958 288.3C224.805 288.02 225.126 290.2 221.832 298.38C221.321 299.609 221.207 300.966 221.507 302.263C221.807 303.559 222.505 304.73 223.504 305.61C225.665 307.686 227.688 309.901 229.561 312.24C232.332 315.694 233.789 320.016 233.673 324.44C233.558 328.865 231.878 333.105 228.93 336.41C222.352 343.59 215.424 350.48 208.265 357.08C201.827 363.01 191.865 363.08 184.686 357.94C183.275 356.904 181.955 355.75 180.741 354.49C173.903 347.49 173.733 348.1 163.811 352.68C162.85 353.154 162.052 353.903 161.517 354.83C160.983 355.757 160.735 356.822 160.807 357.89C160.757 360.39 160.807 362.89 160.607 365.38C159.856 374.95 154.529 380.91 145.698 384.04L110.445 384ZM83.4121 335.63C90.8083 336.129 97.8392 339.026 103.437 343.88C105.292 345.494 106.772 347.494 107.771 349.74C108.771 351.986 109.267 354.423 109.224 356.88C109.224 358.76 109.224 360.63 109.284 362.51C109.504 368.65 111.617 370.82 117.784 370.95C123.271 371.07 128.798 370.95 134.264 370.95C146.029 370.95 146.8 370.19 146.98 358.57C147.12 349.57 151.315 343.15 159.585 339.48C161.408 338.667 163.256 337.913 165.132 337.22C173.422 334.11 180.801 335.54 187.229 341.69C188.761 343.16 190.233 344.69 191.825 346.1C194.608 348.44 197.622 348.57 200.255 346.02C206.262 340.2 212.21 334.3 217.997 328.26C220.69 325.46 220.42 322.19 217.737 319.26C216.064 317.41 214.362 315.58 212.6 313.81C201.206 302.33 212.45 278.64 223.564 275.95C225.479 275.392 227.457 275.076 229.451 275.01C231.697 275.095 233.947 275.055 236.189 274.89C240.685 274.42 242.797 272.26 242.857 267.89C242.957 259.89 242.957 251.89 242.857 243.89C242.787 239.76 240.374 237.52 236.229 237.3C234.737 237.22 233.225 237.3 231.734 237.3C215.714 237.23 203.369 219.08 209.116 204.08C210.788 199.72 214.122 196.72 217.266 193.47C220.78 189.79 220.8 186.67 217.266 183.05C212.37 178.05 207.394 173.13 202.448 168.19C197.231 162.98 194.718 162.89 189.642 168.19C185.167 172.85 180.231 176.35 173.492 176.56C168.286 176.73 163.8 174.44 159.245 172.43C151.065 168.8 147.18 162.35 147 153.51C147 151.64 147.06 149.76 147 147.89C146.78 143.89 144.567 141.47 140.692 141.4C132.452 141.25 124.202 141.3 115.962 141.4C112.538 141.4 110.435 143.29 109.674 146.7C109.084 149.3 109.374 151.93 109.324 154.54C109.184 162.08 105.729 167.68 99.3116 171.4C95.9351 173.303 92.337 174.784 88.5984 175.81C82.2407 177.65 76.4836 176.21 71.3373 172.24C69.5036 170.735 67.7522 169.133 66.0909 167.44C61.8757 163.44 58.9321 163.3 54.8371 167.33C49.6508 172.33 44.5011 177.417 39.3882 182.59C35.3833 186.68 35.3833 189.41 39.228 193.59C40.6798 195.14 42.2317 196.59 43.6634 198.15C45.7865 200.474 47.3037 203.285 48.0808 206.333C48.8579 209.382 48.871 212.575 48.1189 215.63C47.1256 220.022 45.374 224.208 42.9426 228C39.188 233.93 33.6512 236.88 26.6827 237.19C24.8204 237.28 22.9381 237.19 21.0658 237.19C15.9896 237.31 13.5566 239.35 13.4164 244.39C13.1962 252.01 13.1962 259.633 13.4164 267.26C13.5666 272.59 15.7693 274.53 21.1659 274.87C23.1684 274.99 25.1708 274.95 27.1733 274.94C29.4968 274.886 31.8065 275.31 33.9582 276.188C36.1099 277.066 38.0573 278.377 39.6786 280.04C44.8449 285.27 47.5282 291.87 48.4493 299.04C49.4505 307.04 45.2254 312.78 39.7487 317.99C35.123 322.39 35.2131 325.15 39.7487 329.72C44.6547 334.7 49.6007 339.647 54.5868 344.56C58.9822 349 61.6354 349 66.0809 344.7C67.5226 343.31 68.8843 341.84 70.3962 340.55C73.9483 337.313 78.6042 335.553 83.4121 335.63Z" fill="url(#paint0_linear_218_19131)"/>
<path d="M383.999 196.5C379.914 207.34 373.717 211.65 362.173 211.68C356.806 211.68 351.439 211.76 346.063 211.68C342.488 211.6 340.166 213.07 338.834 216.4C336.741 221.62 334.529 226.78 332.366 231.97C330.974 235.32 331.425 238.2 334.158 240.81C338.163 244.6 341.968 248.54 345.823 252.47C355.424 262.25 355.444 273.52 345.823 283.2C337.719 291.36 329.593 299.487 321.443 307.58C312.001 316.95 300.727 317 291.346 307.74C285.028 301.51 278.79 295.2 272.513 288.94C270.681 287.12 269.229 285.13 269.509 282.38C270.09 276.94 276.087 274.46 280.523 278.04C283.616 280.54 286.3 283.55 289.143 286.36C293.048 290.23 296.883 294.16 300.817 298C304.562 301.65 307.896 301.78 311.601 298.15C320.058 289.83 328.448 281.437 336.771 272.97C340.236 269.44 340.136 266.4 336.701 262.84C332.887 258.84 328.932 255.07 325.087 251.14C316.987 242.84 315.766 235.41 320.552 224.9C322.464 220.7 324.146 216.4 325.858 212.11C329.743 202.39 336.121 197.95 346.503 197.89C352.12 197.89 357.737 197.89 363.364 197.89C368.18 197.84 370.663 196 370.753 191.36C370.993 178.987 370.993 166.617 370.753 154.25C370.663 149.73 368.24 148.02 363.634 147.86C356.406 147.6 349.147 148.42 341.948 147.35C334.749 146.28 329.613 142.21 326.699 135.52C324.256 129.92 321.953 124.25 319.62 118.6C316.106 110.08 317.508 102.44 323.906 95.82C327.991 91.6 332.216 87.52 336.321 83.32C340.326 79.32 340.326 76.32 336.441 72.32C328.284 64.0533 320.074 55.8367 311.811 47.67C307.806 43.67 304.862 43.67 300.868 47.67C296.873 51.67 292.748 55.8 288.653 59.83C281.777 66.61 273.874 68.06 264.944 64.18C260.138 62.1 255.332 60 250.436 58.18C241.004 54.59 236.519 47.65 236.339 37.76C236.228 32.01 236.339 26.26 236.278 20.51C236.218 15.74 234.356 13.34 229.63 13.25C217.395 13.01 205.16 13.01 192.925 13.25C188.25 13.34 186.357 15.8 186.307 20.57C186.237 26.45 186.307 32.32 186.307 38.19C186.197 47.71 181.662 54.3 172.901 57.89C167.815 59.97 162.728 62.04 157.692 64.23C149.262 67.91 141.583 66.85 134.834 60.55C130.359 56.38 126.134 51.94 121.758 47.66C117.753 43.77 114.83 43.74 110.815 47.72C102.618 55.7733 94.4816 63.8933 86.405 72.08C82.4001 76.14 82.4001 79.38 86.405 83.41C92.4124 89.41 98.4197 95.41 104.427 101.41C105.849 102.83 107.241 104.3 107.571 106.41C107.861 107.705 107.743 109.058 107.232 110.283C106.721 111.508 105.843 112.544 104.717 113.25C102.124 114.92 99.2207 115 97.0481 113C88.808 105.18 80.2675 97.58 73.1788 88.7C70.6038 85.375 69.2752 81.2547 69.4233 77.0536C69.5714 72.8526 71.187 68.8359 73.9898 65.7C83.4463 55.0667 93.5086 44.9866 104.127 35.51C111.336 29.11 121.458 29.43 128.877 35.77C133.883 40.06 138.499 44.85 143.084 49.62C146.088 52.71 149.152 53.05 152.896 51.4C157.696 49.2933 162.535 47.2933 167.414 45.4C170.848 44.05 172.571 41.79 172.42 38C172.29 32.63 172.42 27.25 172.42 21.88C172.5 10.28 176.856 4 187.639 0H235.608C246.141 4.13 250.776 11.89 250.125 23.13C249.855 27.86 250.196 32.62 250.045 37.36C249.925 41.36 251.557 43.94 255.352 45.36C260.238 47.23 265.054 49.36 269.84 51.43C273.614 53.09 276.778 52.57 279.692 49.57C284.137 45.01 288.572 40.43 293.278 36.14C300.727 29.35 311.861 29.14 319.17 36C329.062 45.3333 338.684 54.95 348.035 64.85C351.239 68.2726 353.049 72.7661 353.11 77.4511C353.171 82.1361 351.479 86.6752 348.366 90.18C343.96 95.26 339.134 100 334.298 104.69C331.295 107.57 331.024 110.59 332.596 114.19C334.679 119 336.751 123.81 338.604 128.7C339.995 132.3 342.338 134.09 346.253 134C351.119 133.89 356.005 134.21 360.851 133.93C372.085 133.29 379.874 137.93 383.969 148.46L383.999 196.5Z" fill="url(#paint1_linear_218_19131)"/>
<path d="M211.48 102.69C194.301 102.489 177.693 108.841 165.043 120.45C163.86 121.564 162.617 122.613 161.318 123.59C158.215 125.82 154.56 125.48 152.197 122.83C151.047 121.56 150.433 119.895 150.481 118.183C150.53 116.471 151.238 114.844 152.457 113.64C156.613 109.307 161.307 105.523 166.425 102.38C208.396 76.5201 260.57 90.0001 284.689 133C302.121 164 296.294 206.34 271.173 231.13C267.759 234.5 263.814 234.84 260.88 232.02C257.947 229.2 257.937 225.57 261.211 222.02C270.412 212.11 277.09 200.89 279.863 187.54C288.564 145.71 260.45 109.73 223.424 103.6C219.463 103.077 215.475 102.774 211.48 102.69Z" fill="url(#paint2_linear_218_19131)"/>
<path d="M70.4154 256C69.6945 228 92.0218 198.18 127.826 198.15C160.646 198.15 186.307 223.06 186.047 256.47C185.767 292.07 160.486 313.08 128.547 313.83C96.277 314.54 70.4054 288.25 70.4154 256ZM128.336 211.75C116.578 211.736 105.291 216.363 96.9328 224.623C88.5746 232.883 83.8226 244.107 83.7117 255.85C83.6115 280.33 103.516 300.74 128.266 300.39C154.989 300.01 172.32 278.98 172.42 256.26C172.466 250.44 171.362 244.668 169.169 239.276C166.976 233.883 163.739 228.976 159.644 224.836C155.548 220.696 150.674 217.404 145.301 215.15C139.929 212.896 134.164 211.723 128.336 211.7V211.75Z" fill="url(#paint3_linear_218_19131)"/>
</g>
<defs>
<linearGradient id="paint0_linear_218_19131" x1="231.99" y1="361.734" x2="-23.194" y2="71.7472" gradientUnits="userSpaceOnUse">
<stop stop-color="#2ECF72"/>
<stop offset="1" stop-color="#2ECF72" stop-opacity="0"/>
</linearGradient>
<linearGradient id="paint1_linear_218_19131" x1="353.414" y1="287.333" x2="40.9455" y2="-67.678" gradientUnits="userSpaceOnUse">
<stop stop-color="#2ECF72"/>
<stop offset="1" stop-color="#2ECF72" stop-opacity="0"/>
</linearGradient>
<linearGradient id="paint2_linear_218_19131" x1="280.685" y1="221.362" x2="136.975" y2="58.5431" gradientUnits="userSpaceOnUse">
<stop stop-color="#2ECF72"/>
<stop offset="1" stop-color="#2ECF72" stop-opacity="0"/>
</linearGradient>
<linearGradient id="paint3_linear_218_19131" x1="174.805" y1="303.801" x2="59.909" y2="173.287" gradientUnits="userSpaceOnUse">
<stop stop-color="#2ECF72"/>
<stop offset="1" stop-color="#2ECF72" stop-opacity="0"/>
</linearGradient>
<clipPath id="clip0_218_19131">
<rect width="384" height="384" fill="white"/>
</clipPath>
</defs>
</svg>
