<svg width="336" height="424" viewBox="0 0 336 424" fill="none" xmlns="http://www.w3.org/2000/svg">
<mask id="path-1-outside-1_125_7327" maskUnits="userSpaceOnUse" x="0" y="0" width="336" height="424" fill="black">
<rect fill="white" width="336" height="424"/>
<path d="M22.7472 421.986C17.2866 422.066 12.0273 421.785 6.76806 421.533C6.16137 421.501 5.56793 421.344 5.02482 421.072C4.48171 420.8 4.00061 420.42 3.61157 419.955C2.53912 418.754 2.90909 417.498 4.47094 417.182C8.0255 416.466 11.5988 415.737 15.2283 415.641C30.2637 415.242 44.7325 412.262 58.5199 406.242C67.8278 402.176 76.37 396.83 84.3291 390.546C93.1874 383.54 101.25 375.691 109.127 367.646C114.31 362.305 119.158 356.65 123.645 350.715C128.349 344.554 133.032 338.38 137.132 331.799C143.373 321.78 148.222 311.087 152.646 300.176C155.512 293.107 158.666 286.164 161.555 279.095C164.639 271.559 167.409 263.916 168.917 255.873C169.264 254.042 169.533 252.188 169.73 250.334C169.839 249.518 169.728 248.689 169.41 247.93C169.092 247.172 168.578 246.511 167.92 246.016C159.317 239.053 150.731 232.078 142.162 225.089C139.377 222.768 136.461 220.607 133.428 218.618C131.117 217.132 129.246 217.216 127.356 219.251C125.047 221.728 122.839 224.302 120.65 226.885C117.519 230.574 113.946 233.839 110.625 237.347C105.561 242.642 100.866 248.278 96.5757 254.215C94.2739 257.435 94.11 261.183 94.6135 264.985C94.8827 267.015 95.6157 269.002 95.1825 271.099C94.7493 273.196 93.6534 274.836 91.6701 275.77C90.3096 276.405 89.0615 276.024 87.9516 275.163C87.2491 274.621 87.1953 273.806 87.4247 273.026C87.6225 272.354 87.8983 271.707 88.2466 271.099C90.148 267.778 90.2885 264.219 89.7359 260.565C89.6048 259.698 89.3355 258.865 88.359 258.573C87.3826 258.281 86.8417 258.914 86.2516 259.507C83.8631 261.882 82.1514 264.682 80.9221 267.799C80.5967 268.585 80.2237 269.35 79.8051 270.09C79.1401 271.302 78.0536 271.706 76.7353 271.492C75.576 271.307 74.4583 270.921 73.4336 270.35C72.4759 269.812 72.0287 269.016 72.1832 267.933C72.274 267.317 72.4038 266.708 72.5719 266.109C72.9583 264.707 73.8621 263.86 75.3397 263.61C78.0021 263.161 79.8543 261.634 81.0415 259.245C81.6831 257.951 82.3153 256.658 82.7134 255.275C83.1817 253.598 82.3036 252.083 80.5779 251.772C78.1493 251.365 75.6745 251.309 73.2299 251.606C71.2302 251.834 69.3715 252.746 67.9706 254.187C67.7354 254.448 67.4458 254.654 67.1222 254.791C66.7986 254.928 66.4488 254.993 66.0974 254.981C62.8074 254.852 59.9951 250.485 61.2854 247.494C62.03 245.768 63.1586 245.117 64.9336 245.738C69.4061 247.314 73.8317 246.922 78.2807 245.738C79.8286 245.324 80.058 244.598 78.9692 243.468C76.5597 240.967 74.1033 238.522 70.9539 236.913C69.7593 236.338 68.5085 235.887 67.2213 235.567C64.9687 234.953 64.0438 233.793 64.0016 231.597C63.9571 229.248 65.3457 226.875 67.116 226.271C68.5631 225.778 70.7057 226.889 71.7664 228.702C71.9364 228.963 72.0658 229.249 72.1504 229.549C72.9325 233.006 75.1805 235.353 78.0044 237.272C78.9411 237.91 79.8894 238.522 80.8284 239.14C81.9337 239.881 83.1326 240.012 84.4134 239.745C84.7842 239.692 85.1277 239.52 85.3924 239.256C85.6571 238.991 85.8287 238.649 85.8816 238.279C86.0834 237.282 86.031 236.251 85.7294 235.28C84.6569 231.824 83.5681 228.372 82.2451 225.005C82.0163 224.426 81.8323 223.83 81.6948 223.223C81.0673 220.421 82.8469 218.363 85.7505 218.538C86.264 218.545 86.7642 218.702 87.1897 218.989C87.6153 219.275 87.9476 219.68 88.1459 220.152C88.7594 221.527 89.1481 222.978 88.4902 224.442C86.371 229.162 88.4082 234.005 92.5435 237.583C93.2546 238.242 94.0595 238.793 94.9319 239.217C96.5312 239.932 97.5733 239.743 98.8705 238.531C102.423 235.212 105.048 231.21 107.249 226.938C111.276 219.117 115.21 211.247 118.723 203.181C120.294 199.578 122.898 198.151 126.775 198.744C129.752 199.211 132.47 200.379 135.102 201.761C145.504 207.182 156.205 211.857 167.545 214.979C169.568 215.572 171.645 215.964 173.746 216.147C176.036 216.308 177.073 215.39 177.23 213.085C177.359 211.217 177.406 209.349 177.464 207.481C177.726 198.394 178.722 189.41 181.014 180.585C183.307 171.76 187.416 163.927 192.994 156.765C200.119 147.608 207.278 138.467 214.717 129.57C217.616 126.109 220.709 122.797 223.112 118.953C225.613 114.989 227.329 110.583 228.167 105.974C228.351 105.097 228.34 104.191 228.135 103.319C227.931 102.448 227.537 101.631 226.982 100.927C222.245 94.6281 216.515 89.1367 210.015 84.6664C208.184 83.4123 206.458 82.0064 204.671 80.6846C201.981 78.6926 201.042 75.965 201.522 72.7679C202.442 66.6144 203.451 60.4725 204.098 54.2769C204.369 51.6076 204.667 48.9384 204.84 46.2621C205.025 43.4317 203.524 41.8624 200.679 41.783C197.401 41.6919 194.225 42.3855 191.2 43.5882C189.655 44.2024 188.713 45.5568 188.198 47.1425C187.868 48.1584 187.601 49.277 186.344 49.4475C185.591 49.574 184.82 49.535 184.084 49.3333C183.349 49.1316 182.666 48.7721 182.084 48.2798C182.028 48.2249 181.979 48.1638 181.937 48.0977C180.661 46.3322 181.974 41.9067 184.044 41.2785C186.997 40.3888 189.936 39.478 192.748 38.1983C193.638 37.7919 194.523 37.3832 195.211 36.657C196.605 35.188 196.342 33.0699 194.558 32.1194C192.497 31.0195 190.465 29.8448 188.261 29.0298C184.721 27.7174 181.316 27.8832 178.08 29.9826C176.399 31.0755 173.668 29.9032 173.099 27.8808C172.914 27.2043 172.835 26.5031 172.865 25.8024C172.975 22.8366 174.68 20.5877 178.41 22.0029C182.674 23.6212 187.051 24.936 191.434 26.2064C192.446 26.5007 193.464 26.7879 194.535 26.7646C196.457 26.7202 198.002 25.5525 198.073 23.7146C198.223 19.7703 197.916 15.8656 196.148 12.2155C195.588 11.0479 194.53 10.3473 193.806 9.32676C192.969 8.2337 192.585 6.86205 192.731 5.49451C192.858 4.34086 193.361 3.35303 194.394 2.82291C195.918 1.99405 197.703 1.78166 199.379 2.22974C200.55 2.55201 201.161 3.89248 200.946 5.49918C200.798 6.5781 200.592 7.65234 200.508 8.73359C200.175 12.9512 201.386 16.8255 203.353 20.4732C204.451 22.5073 206.617 22.7665 208.067 20.9753C211.607 16.5966 214.085 11.8185 213.31 5.88918C212.914 2.85327 213.867 2.15267 216.859 2.93734C220.536 3.91584 221.847 8.05168 219.238 10.7747C217.712 12.3673 216.707 14.2052 215.888 16.1926C215.087 18.1807 214.46 20.2341 214.014 22.3298C213.312 25.4498 214.789 27.269 217.967 27.2737C220.626 27.3083 223.27 26.8767 225.779 25.9986C225.85 25.968 225.924 25.9415 225.999 25.9192C227.09 25.6529 228.265 25.1275 229.167 26.1877C230.104 27.297 230.031 28.6748 229.635 29.9663C229.272 31.1713 228.073 31.7108 226.437 31.4749C225.162 31.2923 223.874 31.2142 222.587 31.2414C218.709 31.3067 216.309 32.9952 214.981 36.6523C213.654 40.3094 213.031 44.0949 212.712 47.9459C212.375 52.0257 212.478 56.1031 212.626 60.1899C212.71 62.628 212.338 65.0777 212.237 67.5251C212.111 70.5961 212.848 71.8969 215.735 73.0108C225.486 76.773 234.26 82.2937 242.985 87.9078C244.13 88.6434 245.193 89.5098 246.279 90.3342C247.621 91.3477 249.04 91.5766 250.686 91.1072C255.604 89.706 259.294 86.6701 262.216 82.6066C263.755 80.4005 265.081 78.0548 266.178 75.6007C268.101 71.4602 270.583 67.6302 272.826 63.6672C274.245 61.1591 275.69 58.6673 277.139 56.1778C277.488 55.58 277.505 54.9121 277.638 54.2699C278.964 47.9645 282.722 43.6465 288.564 41.0637C290.531 40.195 292.678 40.2276 294.758 39.9311C302.054 38.8942 309.065 36.741 316.015 34.3987C319.216 33.3198 322.384 32.5305 325.739 33.523C330.05 34.8144 332.856 37.5584 333.888 41.9978C334.052 42.7202 334.035 43.4717 333.839 44.186C332.303 50.1761 330.699 56.1475 329.943 62.3151C329.708 64.3421 328.751 66.2851 328.432 68.3005C327.842 72.0253 327.381 75.7735 327.048 79.531C326.561 85.0634 323.492 88.7321 318.75 91.1212C305.311 97.8936 291.847 104.617 278.359 111.291C276.109 112.41 274.327 114.07 272.761 115.974C272.101 116.755 271.631 117.678 271.39 118.671C271.149 119.664 271.142 120.699 271.37 121.695C273.098 129.715 272.374 137.645 270.653 145.539C269.684 149.976 269.417 154.474 269.419 158.99C269.419 162.122 271.157 164.287 274.322 165.363C278.492 166.786 282.665 168.206 286.841 169.623C289.651 170.573 292.416 171.631 295.355 172.138C297.088 172.437 297.619 171.904 297.064 170.27C295.797 166.547 294.554 162.846 291.798 159.824C290.06 157.921 290.316 156.933 292.297 155.24C292.832 154.728 293.433 154.289 294.083 153.934C295.064 153.467 296.02 153.313 296.921 154.088C297.823 154.864 298.373 155.749 298.024 156.958C297.17 159.903 298.172 162.39 299.897 164.698C301.265 166.514 302.867 166.645 304.4 164.959C306.239 162.939 307.644 160.585 309.257 158.392C309.835 157.608 310.395 156.811 311.001 156.057C312.2 154.562 313.828 154.098 315.612 154.702C317.499 155.34 318.672 156.804 318.766 158.623C318.853 160.258 318.211 161.267 316.626 161.636C312.699 162.547 310.432 165.34 308.62 168.612C307.784 170.123 308.545 171.939 310.177 172.18C313.633 172.689 317.141 173.462 320.588 172.215C322.08 171.659 323.616 171.229 325.18 170.928C326.486 170.695 327.47 171.129 328.245 172.147C328.317 172.241 328.38 172.34 328.435 172.444C329.137 173.817 330.177 175.169 329.069 176.771C328.243 177.969 325.487 178.826 323.918 178.249C319.993 176.806 316.317 177.591 312.697 179.244C312.341 179.403 312 179.591 311.676 179.807C309.358 181.372 309.044 183.415 310.877 185.529C312.469 187.356 314.254 189.008 316.2 190.456C318.167 191.925 320.024 193.534 322.068 194.893C323.222 195.666 323.307 196.266 322.681 197.483C322.235 198.395 321.621 199.216 320.871 199.902C319.204 201.371 317.762 201.371 316.092 199.902C314.329 198.338 313.048 196.369 311.599 194.531C310.428 193.032 309.273 191.495 308.037 190.052C305.929 187.579 303.206 187.367 300.729 189.447C299.792 190.223 298.923 191.049 298.048 191.878C296.01 193.803 295.004 196.136 295.092 198.971C295.177 201.89 292.845 203.335 290.189 202.095C289.167 201.606 288.226 200.964 287.398 200.192C287.174 200.001 286.992 199.767 286.861 199.504C286.73 199.241 286.654 198.954 286.637 198.661C286.62 198.368 286.663 198.074 286.763 197.798C286.863 197.522 287.017 197.269 287.218 197.053C287.512 196.689 287.867 196.379 288.269 196.138C291.135 194.599 292.608 192.058 293.325 189.036C293.77 187.168 294.444 185.279 293.966 183.294C293.264 180.396 291.54 178.476 288.58 177.775C282.204 176.271 275.819 174.796 269.45 173.259C267.357 172.771 265.34 172.004 263.453 170.98C259.423 168.766 257.521 165.401 257.336 160.828C257.088 154.728 256.615 148.638 256.236 142.545C256.189 141.823 255.917 141.256 255.14 141.081C254.363 140.905 253.794 141.137 253.358 141.84C249.942 147.374 246.532 152.914 244.141 158.997C241.751 165.081 239.901 171.374 238.021 177.626C235.098 187.357 232.178 197.088 227.664 206.245C226.476 208.699 225.165 211.091 223.734 213.412C223.369 213.996 222.849 214.627 223.367 215.337C223.854 216.007 224.58 215.657 225.212 215.547C231.853 214.395 238.128 211.964 244.558 210.066C247.837 209.097 251.115 208.022 254.428 207.147C258.54 206.058 261.86 207.81 264.979 210.281C266.902 211.803 267.829 213.669 268.108 216.119C269.063 224.486 271.297 232.609 273.112 240.813C273.398 242.104 273.697 243.381 273.997 244.68C274.114 245.184 274.262 245.677 274.873 245.794C275.484 245.91 275.905 245.56 276.236 245.093C277.516 243.3 278.083 241.242 278.404 239.11C278.599 237.999 278.633 236.865 278.502 235.745C278.298 234.264 278.764 233.533 280.141 232.863C280.735 232.569 281.35 232.32 281.982 232.118C282.734 231.885 283.448 231.966 284.028 232.585C284.609 233.204 284.806 233.935 284.459 234.731C283.712 236.443 282.911 238.132 282.188 239.85C281.72 240.971 281.42 242.13 281.799 243.37C282.349 245.17 283.923 245.922 285.651 245.182C286.658 244.75 287.391 243.993 287.993 243.127C290.1 240.091 292.025 236.927 293.018 233.302C293.374 232.006 294.137 231.63 295.418 232.022C296.695 232.425 297.805 233.234 298.577 234.325C299.619 235.726 299.314 237.534 297.813 239.056C295.957 240.941 294.036 242.77 292.212 244.687C291.042 245.927 289.964 247.272 288.876 248.594C288.562 248.992 288.297 249.426 288.084 249.885C287.063 251.987 287.887 253.802 290.14 254.404C292.269 254.972 294.467 254.955 296.643 255.105C298.818 255.254 301.01 255.28 303.199 255.418C306.335 255.618 308.039 257.779 307.562 260.885C307.093 263.878 304.595 265.065 302.162 263.283C299.502 261.333 296.589 260.621 293.355 260.805C291.636 260.906 289.95 261.219 288.246 261.419C288.011 261.447 287.777 261.494 287.543 261.524C285.12 261.856 283.797 263.731 284.567 266.057C285.808 269.829 287.197 273.549 288.515 277.292C288.707 277.894 289.127 278.397 289.686 278.694C291.03 279.394 291.793 280.63 292.615 281.807C293.123 282.528 293.083 283.252 292.592 283.981C292.063 284.828 291.343 285.539 290.489 286.059C289.635 286.579 288.671 286.893 287.674 286.975C286.136 287.126 284.925 286.349 284.396 284.901C284.101 284.1 283.808 283.266 283.855 282.404C284.061 278.607 282.858 275.2 281.012 271.963C279.952 270.095 278.919 268.227 277.811 266.394C276.657 264.483 275.086 264.245 273.454 265.74C270.257 268.663 268.424 272.234 268.403 276.632C268.403 276.945 268.403 277.255 268.389 277.566C268.239 280.45 266.9 281.596 263.886 281.428C261.727 281.307 259.779 279.067 259.905 276.865C259.975 275.674 260.725 274.871 261.519 274.116C265.476 270.354 267.841 265.751 268.67 260.389C269.304 256.319 268.841 252.375 266.691 248.771C263.326 243.129 260.957 237.027 258.301 231.053C257.575 229.419 256.859 227.77 255.889 226.259C254.688 224.391 253.47 224.115 251.707 225.472C248.312 228.085 245.01 230.822 241.638 233.452C235.55 238.188 229.621 243.146 223.205 247.445C218.645 250.519 213.815 253.176 208.776 255.385C206.271 256.475 204.662 258.187 203.374 260.576C198.223 270.093 193.017 279.583 187.264 288.761C181.618 297.768 176.024 306.811 170.404 315.825C165.096 324.321 159.055 332.294 152.91 340.194C147.524 347.109 142.333 354.164 137.123 361.212C128.763 372.515 118.858 382.23 107.031 389.957C102.076 393.197 97.4609 396.94 92.307 399.899C86.659 403.14 80.9416 406.25 75.1547 409.228C70.2631 411.746 65.334 414.177 60.1684 416.052C51.9367 419.009 43.3474 420.862 34.6262 421.561C30.5869 421.907 26.5781 422.047 22.7472 421.986Z"/>
</mask>
<path d="M22.7472 421.986C17.2866 422.066 12.0273 421.785 6.76806 421.533C6.16137 421.501 5.56793 421.344 5.02482 421.072C4.48171 420.8 4.00061 420.42 3.61157 419.955C2.53912 418.754 2.90909 417.498 4.47094 417.182C8.0255 416.466 11.5988 415.737 15.2283 415.641C30.2637 415.242 44.7325 412.262 58.5199 406.242C67.8278 402.176 76.37 396.83 84.3291 390.546C93.1874 383.54 101.25 375.691 109.127 367.646C114.31 362.305 119.158 356.65 123.645 350.715C128.349 344.554 133.032 338.38 137.132 331.799C143.373 321.78 148.222 311.087 152.646 300.176C155.512 293.107 158.666 286.164 161.555 279.095C164.639 271.559 167.409 263.916 168.917 255.873C169.264 254.042 169.533 252.188 169.73 250.334C169.839 249.518 169.728 248.689 169.41 247.93C169.092 247.172 168.578 246.511 167.92 246.016C159.317 239.053 150.731 232.078 142.162 225.089C139.377 222.768 136.461 220.607 133.428 218.618C131.117 217.132 129.246 217.216 127.356 219.251C125.047 221.728 122.839 224.302 120.65 226.885C117.519 230.574 113.946 233.839 110.625 237.347C105.561 242.642 100.866 248.278 96.5757 254.215C94.2739 257.435 94.11 261.183 94.6135 264.985C94.8827 267.015 95.6157 269.002 95.1825 271.099C94.7493 273.196 93.6534 274.836 91.6701 275.77C90.3096 276.405 89.0615 276.024 87.9516 275.163C87.2491 274.621 87.1953 273.806 87.4247 273.026C87.6225 272.354 87.8983 271.707 88.2466 271.099C90.148 267.778 90.2885 264.219 89.7359 260.565C89.6048 259.698 89.3355 258.865 88.359 258.573C87.3826 258.281 86.8417 258.914 86.2516 259.507C83.8631 261.882 82.1514 264.682 80.9221 267.799C80.5967 268.585 80.2237 269.35 79.8051 270.09C79.1401 271.302 78.0536 271.706 76.7353 271.492C75.576 271.307 74.4583 270.921 73.4336 270.35C72.4759 269.812 72.0287 269.016 72.1832 267.933C72.274 267.317 72.4038 266.708 72.5719 266.109C72.9583 264.707 73.8621 263.86 75.3397 263.61C78.0021 263.161 79.8543 261.634 81.0415 259.245C81.6831 257.951 82.3153 256.658 82.7134 255.275C83.1817 253.598 82.3036 252.083 80.5779 251.772C78.1493 251.365 75.6745 251.309 73.2299 251.606C71.2302 251.834 69.3715 252.746 67.9706 254.187C67.7354 254.448 67.4458 254.654 67.1222 254.791C66.7986 254.928 66.4488 254.993 66.0974 254.981C62.8074 254.852 59.9951 250.485 61.2854 247.494C62.03 245.768 63.1586 245.117 64.9336 245.738C69.4061 247.314 73.8317 246.922 78.2807 245.738C79.8286 245.324 80.058 244.598 78.9692 243.468C76.5597 240.967 74.1033 238.522 70.9539 236.913C69.7593 236.338 68.5085 235.887 67.2213 235.567C64.9687 234.953 64.0438 233.793 64.0016 231.597C63.9571 229.248 65.3457 226.875 67.116 226.271C68.5631 225.778 70.7057 226.889 71.7664 228.702C71.9364 228.963 72.0658 229.249 72.1504 229.549C72.9325 233.006 75.1805 235.353 78.0044 237.272C78.9411 237.91 79.8894 238.522 80.8284 239.14C81.9337 239.881 83.1326 240.012 84.4134 239.745C84.7842 239.692 85.1277 239.52 85.3924 239.256C85.6571 238.991 85.8287 238.649 85.8816 238.279C86.0834 237.282 86.031 236.251 85.7294 235.28C84.6569 231.824 83.5681 228.372 82.2451 225.005C82.0163 224.426 81.8323 223.83 81.6948 223.223C81.0673 220.421 82.8469 218.363 85.7505 218.538C86.264 218.545 86.7642 218.702 87.1897 218.989C87.6153 219.275 87.9476 219.68 88.1459 220.152C88.7594 221.527 89.1481 222.978 88.4902 224.442C86.371 229.162 88.4082 234.005 92.5435 237.583C93.2546 238.242 94.0595 238.793 94.9319 239.217C96.5312 239.932 97.5733 239.743 98.8705 238.531C102.423 235.212 105.048 231.21 107.249 226.938C111.276 219.117 115.21 211.247 118.723 203.181C120.294 199.578 122.898 198.151 126.775 198.744C129.752 199.211 132.47 200.379 135.102 201.761C145.504 207.182 156.205 211.857 167.545 214.979C169.568 215.572 171.645 215.964 173.746 216.147C176.036 216.308 177.073 215.39 177.23 213.085C177.359 211.217 177.406 209.349 177.464 207.481C177.726 198.394 178.722 189.41 181.014 180.585C183.307 171.76 187.416 163.927 192.994 156.765C200.119 147.608 207.278 138.467 214.717 129.57C217.616 126.109 220.709 122.797 223.112 118.953C225.613 114.989 227.329 110.583 228.167 105.974C228.351 105.097 228.34 104.191 228.135 103.319C227.931 102.448 227.537 101.631 226.982 100.927C222.245 94.6281 216.515 89.1367 210.015 84.6664C208.184 83.4123 206.458 82.0064 204.671 80.6846C201.981 78.6926 201.042 75.965 201.522 72.7679C202.442 66.6144 203.451 60.4725 204.098 54.2769C204.369 51.6076 204.667 48.9384 204.84 46.2621C205.025 43.4317 203.524 41.8624 200.679 41.783C197.401 41.6919 194.225 42.3855 191.2 43.5882C189.655 44.2024 188.713 45.5568 188.198 47.1425C187.868 48.1584 187.601 49.277 186.344 49.4475C185.591 49.574 184.82 49.535 184.084 49.3333C183.349 49.1316 182.666 48.7721 182.084 48.2798C182.028 48.2249 181.979 48.1638 181.937 48.0977C180.661 46.3322 181.974 41.9067 184.044 41.2785C186.997 40.3888 189.936 39.478 192.748 38.1983C193.638 37.7919 194.523 37.3832 195.211 36.657C196.605 35.188 196.342 33.0699 194.558 32.1194C192.497 31.0195 190.465 29.8448 188.261 29.0298C184.721 27.7174 181.316 27.8832 178.08 29.9826C176.399 31.0755 173.668 29.9032 173.099 27.8808C172.914 27.2043 172.835 26.5031 172.865 25.8024C172.975 22.8366 174.68 20.5877 178.41 22.0029C182.674 23.6212 187.051 24.936 191.434 26.2064C192.446 26.5007 193.464 26.7879 194.535 26.7646C196.457 26.7202 198.002 25.5525 198.073 23.7146C198.223 19.7703 197.916 15.8656 196.148 12.2155C195.588 11.0479 194.53 10.3473 193.806 9.32676C192.969 8.2337 192.585 6.86205 192.731 5.49451C192.858 4.34086 193.361 3.35303 194.394 2.82291C195.918 1.99405 197.703 1.78166 199.379 2.22974C200.55 2.55201 201.161 3.89248 200.946 5.49918C200.798 6.5781 200.592 7.65234 200.508 8.73359C200.175 12.9512 201.386 16.8255 203.353 20.4732C204.451 22.5073 206.617 22.7665 208.067 20.9753C211.607 16.5966 214.085 11.8185 213.31 5.88918C212.914 2.85327 213.867 2.15267 216.859 2.93734C220.536 3.91584 221.847 8.05168 219.238 10.7747C217.712 12.3673 216.707 14.2052 215.888 16.1926C215.087 18.1807 214.46 20.2341 214.014 22.3298C213.312 25.4498 214.789 27.269 217.967 27.2737C220.626 27.3083 223.27 26.8767 225.779 25.9986C225.85 25.968 225.924 25.9415 225.999 25.9192C227.09 25.6529 228.265 25.1275 229.167 26.1877C230.104 27.297 230.031 28.6748 229.635 29.9663C229.272 31.1713 228.073 31.7108 226.437 31.4749C225.162 31.2923 223.874 31.2142 222.587 31.2414C218.709 31.3067 216.309 32.9952 214.981 36.6523C213.654 40.3094 213.031 44.0949 212.712 47.9459C212.375 52.0257 212.478 56.1031 212.626 60.1899C212.71 62.628 212.338 65.0777 212.237 67.5251C212.111 70.5961 212.848 71.8969 215.735 73.0108C225.486 76.773 234.26 82.2937 242.985 87.9078C244.13 88.6434 245.193 89.5098 246.279 90.3342C247.621 91.3477 249.04 91.5766 250.686 91.1072C255.604 89.706 259.294 86.6701 262.216 82.6066C263.755 80.4005 265.081 78.0548 266.178 75.6007C268.101 71.4602 270.583 67.6302 272.826 63.6672C274.245 61.1591 275.69 58.6673 277.139 56.1778C277.488 55.58 277.505 54.9121 277.638 54.2699C278.964 47.9645 282.722 43.6465 288.564 41.0637C290.531 40.195 292.678 40.2276 294.758 39.9311C302.054 38.8942 309.065 36.741 316.015 34.3987C319.216 33.3198 322.384 32.5305 325.739 33.523C330.05 34.8144 332.856 37.5584 333.888 41.9978C334.052 42.7202 334.035 43.4717 333.839 44.186C332.303 50.1761 330.699 56.1475 329.943 62.3151C329.708 64.3421 328.751 66.2851 328.432 68.3005C327.842 72.0253 327.381 75.7735 327.048 79.531C326.561 85.0634 323.492 88.7321 318.75 91.1212C305.311 97.8936 291.847 104.617 278.359 111.291C276.109 112.41 274.327 114.07 272.761 115.974C272.101 116.755 271.631 117.678 271.39 118.671C271.149 119.664 271.142 120.699 271.37 121.695C273.098 129.715 272.374 137.645 270.653 145.539C269.684 149.976 269.417 154.474 269.419 158.99C269.419 162.122 271.157 164.287 274.322 165.363C278.492 166.786 282.665 168.206 286.841 169.623C289.651 170.573 292.416 171.631 295.355 172.138C297.088 172.437 297.619 171.904 297.064 170.27C295.797 166.547 294.554 162.846 291.798 159.824C290.06 157.921 290.316 156.933 292.297 155.24C292.832 154.728 293.433 154.289 294.083 153.934C295.064 153.467 296.02 153.313 296.921 154.088C297.823 154.864 298.373 155.749 298.024 156.958C297.17 159.903 298.172 162.39 299.897 164.698C301.265 166.514 302.867 166.645 304.4 164.959C306.239 162.939 307.644 160.585 309.257 158.392C309.835 157.608 310.395 156.811 311.001 156.057C312.2 154.562 313.828 154.098 315.612 154.702C317.499 155.34 318.672 156.804 318.766 158.623C318.853 160.258 318.211 161.267 316.626 161.636C312.699 162.547 310.432 165.34 308.62 168.612C307.784 170.123 308.545 171.939 310.177 172.18C313.633 172.689 317.141 173.462 320.588 172.215C322.08 171.659 323.616 171.229 325.18 170.928C326.486 170.695 327.47 171.129 328.245 172.147C328.317 172.241 328.38 172.34 328.435 172.444C329.137 173.817 330.177 175.169 329.069 176.771C328.243 177.969 325.487 178.826 323.918 178.249C319.993 176.806 316.317 177.591 312.697 179.244C312.341 179.403 312 179.591 311.676 179.807C309.358 181.372 309.044 183.415 310.877 185.529C312.469 187.356 314.254 189.008 316.2 190.456C318.167 191.925 320.024 193.534 322.068 194.893C323.222 195.666 323.307 196.266 322.681 197.483C322.235 198.395 321.621 199.216 320.871 199.902C319.204 201.371 317.762 201.371 316.092 199.902C314.329 198.338 313.048 196.369 311.599 194.531C310.428 193.032 309.273 191.495 308.037 190.052C305.929 187.579 303.206 187.367 300.729 189.447C299.792 190.223 298.923 191.049 298.048 191.878C296.01 193.803 295.004 196.136 295.092 198.971C295.177 201.89 292.845 203.335 290.189 202.095C289.167 201.606 288.226 200.964 287.398 200.192C287.174 200.001 286.992 199.767 286.861 199.504C286.73 199.241 286.654 198.954 286.637 198.661C286.62 198.368 286.663 198.074 286.763 197.798C286.863 197.522 287.017 197.269 287.218 197.053C287.512 196.689 287.867 196.379 288.269 196.138C291.135 194.599 292.608 192.058 293.325 189.036C293.77 187.168 294.444 185.279 293.966 183.294C293.264 180.396 291.54 178.476 288.58 177.775C282.204 176.271 275.819 174.796 269.45 173.259C267.357 172.771 265.34 172.004 263.453 170.98C259.423 168.766 257.521 165.401 257.336 160.828C257.088 154.728 256.615 148.638 256.236 142.545C256.189 141.823 255.917 141.256 255.14 141.081C254.363 140.905 253.794 141.137 253.358 141.84C249.942 147.374 246.532 152.914 244.141 158.997C241.751 165.081 239.901 171.374 238.021 177.626C235.098 187.357 232.178 197.088 227.664 206.245C226.476 208.699 225.165 211.091 223.734 213.412C223.369 213.996 222.849 214.627 223.367 215.337C223.854 216.007 224.58 215.657 225.212 215.547C231.853 214.395 238.128 211.964 244.558 210.066C247.837 209.097 251.115 208.022 254.428 207.147C258.54 206.058 261.86 207.81 264.979 210.281C266.902 211.803 267.829 213.669 268.108 216.119C269.063 224.486 271.297 232.609 273.112 240.813C273.398 242.104 273.697 243.381 273.997 244.68C274.114 245.184 274.262 245.677 274.873 245.794C275.484 245.91 275.905 245.56 276.236 245.093C277.516 243.3 278.083 241.242 278.404 239.11C278.599 237.999 278.633 236.865 278.502 235.745C278.298 234.264 278.764 233.533 280.141 232.863C280.735 232.569 281.35 232.32 281.982 232.118C282.734 231.885 283.448 231.966 284.028 232.585C284.609 233.204 284.806 233.935 284.459 234.731C283.712 236.443 282.911 238.132 282.188 239.85C281.72 240.971 281.42 242.13 281.799 243.37C282.349 245.17 283.923 245.922 285.651 245.182C286.658 244.75 287.391 243.993 287.993 243.127C290.1 240.091 292.025 236.927 293.018 233.302C293.374 232.006 294.137 231.63 295.418 232.022C296.695 232.425 297.805 233.234 298.577 234.325C299.619 235.726 299.314 237.534 297.813 239.056C295.957 240.941 294.036 242.77 292.212 244.687C291.042 245.927 289.964 247.272 288.876 248.594C288.562 248.992 288.297 249.426 288.084 249.885C287.063 251.987 287.887 253.802 290.14 254.404C292.269 254.972 294.467 254.955 296.643 255.105C298.818 255.254 301.01 255.28 303.199 255.418C306.335 255.618 308.039 257.779 307.562 260.885C307.093 263.878 304.595 265.065 302.162 263.283C299.502 261.333 296.589 260.621 293.355 260.805C291.636 260.906 289.95 261.219 288.246 261.419C288.011 261.447 287.777 261.494 287.543 261.524C285.12 261.856 283.797 263.731 284.567 266.057C285.808 269.829 287.197 273.549 288.515 277.292C288.707 277.894 289.127 278.397 289.686 278.694C291.03 279.394 291.793 280.63 292.615 281.807C293.123 282.528 293.083 283.252 292.592 283.981C292.063 284.828 291.343 285.539 290.489 286.059C289.635 286.579 288.671 286.893 287.674 286.975C286.136 287.126 284.925 286.349 284.396 284.901C284.101 284.1 283.808 283.266 283.855 282.404C284.061 278.607 282.858 275.2 281.012 271.963C279.952 270.095 278.919 268.227 277.811 266.394C276.657 264.483 275.086 264.245 273.454 265.74C270.257 268.663 268.424 272.234 268.403 276.632C268.403 276.945 268.403 277.255 268.389 277.566C268.239 280.45 266.9 281.596 263.886 281.428C261.727 281.307 259.779 279.067 259.905 276.865C259.975 275.674 260.725 274.871 261.519 274.116C265.476 270.354 267.841 265.751 268.67 260.389C269.304 256.319 268.841 252.375 266.691 248.771C263.326 243.129 260.957 237.027 258.301 231.053C257.575 229.419 256.859 227.77 255.889 226.259C254.688 224.391 253.47 224.115 251.707 225.472C248.312 228.085 245.01 230.822 241.638 233.452C235.55 238.188 229.621 243.146 223.205 247.445C218.645 250.519 213.815 253.176 208.776 255.385C206.271 256.475 204.662 258.187 203.374 260.576C198.223 270.093 193.017 279.583 187.264 288.761C181.618 297.768 176.024 306.811 170.404 315.825C165.096 324.321 159.055 332.294 152.91 340.194C147.524 347.109 142.333 354.164 137.123 361.212C128.763 372.515 118.858 382.23 107.031 389.957C102.076 393.197 97.4609 396.94 92.307 399.899C86.659 403.14 80.9416 406.25 75.1547 409.228C70.2631 411.746 65.334 414.177 60.1684 416.052C51.9367 419.009 43.3474 420.862 34.6262 421.561C30.5869 421.907 26.5781 422.047 22.7472 421.986Z" fill="url(#paint0_linear_125_7327)"/>
<path d="M22.7472 421.986C17.2866 422.066 12.0273 421.785 6.76806 421.533C6.16137 421.501 5.56793 421.344 5.02482 421.072C4.48171 420.8 4.00061 420.42 3.61157 419.955C2.53912 418.754 2.90909 417.498 4.47094 417.182C8.0255 416.466 11.5988 415.737 15.2283 415.641C30.2637 415.242 44.7325 412.262 58.5199 406.242C67.8278 402.176 76.37 396.83 84.3291 390.546C93.1874 383.54 101.25 375.691 109.127 367.646C114.31 362.305 119.158 356.65 123.645 350.715C128.349 344.554 133.032 338.38 137.132 331.799C143.373 321.78 148.222 311.087 152.646 300.176C155.512 293.107 158.666 286.164 161.555 279.095C164.639 271.559 167.409 263.916 168.917 255.873C169.264 254.042 169.533 252.188 169.73 250.334C169.839 249.518 169.728 248.689 169.41 247.93C169.092 247.172 168.578 246.511 167.92 246.016C159.317 239.053 150.731 232.078 142.162 225.089C139.377 222.768 136.461 220.607 133.428 218.618C131.117 217.132 129.246 217.216 127.356 219.251C125.047 221.728 122.839 224.302 120.65 226.885C117.519 230.574 113.946 233.839 110.625 237.347C105.561 242.642 100.866 248.278 96.5757 254.215C94.2739 257.435 94.11 261.183 94.6135 264.985C94.8827 267.015 95.6157 269.002 95.1825 271.099C94.7493 273.196 93.6534 274.836 91.6701 275.77C90.3096 276.405 89.0615 276.024 87.9516 275.163C87.2491 274.621 87.1953 273.806 87.4247 273.026C87.6225 272.354 87.8983 271.707 88.2466 271.099C90.148 267.778 90.2885 264.219 89.7359 260.565C89.6048 259.698 89.3355 258.865 88.359 258.573C87.3826 258.281 86.8417 258.914 86.2516 259.507C83.8631 261.882 82.1514 264.682 80.9221 267.799C80.5967 268.585 80.2237 269.35 79.8051 270.09C79.1401 271.302 78.0536 271.706 76.7353 271.492C75.576 271.307 74.4583 270.921 73.4336 270.35C72.4759 269.812 72.0287 269.016 72.1832 267.933C72.274 267.317 72.4038 266.708 72.5719 266.109C72.9583 264.707 73.8621 263.86 75.3397 263.61C78.0021 263.161 79.8543 261.634 81.0415 259.245C81.6831 257.951 82.3153 256.658 82.7134 255.275C83.1817 253.598 82.3036 252.083 80.5779 251.772C78.1493 251.365 75.6745 251.309 73.2299 251.606C71.2302 251.834 69.3715 252.746 67.9706 254.187C67.7354 254.448 67.4458 254.654 67.1222 254.791C66.7986 254.928 66.4488 254.993 66.0974 254.981C62.8074 254.852 59.9951 250.485 61.2854 247.494C62.03 245.768 63.1586 245.117 64.9336 245.738C69.4061 247.314 73.8317 246.922 78.2807 245.738C79.8286 245.324 80.058 244.598 78.9692 243.468C76.5597 240.967 74.1033 238.522 70.9539 236.913C69.7593 236.338 68.5085 235.887 67.2213 235.567C64.9687 234.953 64.0438 233.793 64.0016 231.597C63.9571 229.248 65.3457 226.875 67.116 226.271C68.5631 225.778 70.7057 226.889 71.7664 228.702C71.9364 228.963 72.0658 229.249 72.1504 229.549C72.9325 233.006 75.1805 235.353 78.0044 237.272C78.9411 237.91 79.8894 238.522 80.8284 239.14C81.9337 239.881 83.1326 240.012 84.4134 239.745C84.7842 239.692 85.1277 239.52 85.3924 239.256C85.6571 238.991 85.8287 238.649 85.8816 238.279C86.0834 237.282 86.031 236.251 85.7294 235.28C84.6569 231.824 83.5681 228.372 82.2451 225.005C82.0163 224.426 81.8323 223.83 81.6948 223.223C81.0673 220.421 82.8469 218.363 85.7505 218.538C86.264 218.545 86.7642 218.702 87.1897 218.989C87.6153 219.275 87.9476 219.68 88.1459 220.152C88.7594 221.527 89.1481 222.978 88.4902 224.442C86.371 229.162 88.4082 234.005 92.5435 237.583C93.2546 238.242 94.0595 238.793 94.9319 239.217C96.5312 239.932 97.5733 239.743 98.8705 238.531C102.423 235.212 105.048 231.21 107.249 226.938C111.276 219.117 115.21 211.247 118.723 203.181C120.294 199.578 122.898 198.151 126.775 198.744C129.752 199.211 132.47 200.379 135.102 201.761C145.504 207.182 156.205 211.857 167.545 214.979C169.568 215.572 171.645 215.964 173.746 216.147C176.036 216.308 177.073 215.39 177.23 213.085C177.359 211.217 177.406 209.349 177.464 207.481C177.726 198.394 178.722 189.41 181.014 180.585C183.307 171.76 187.416 163.927 192.994 156.765C200.119 147.608 207.278 138.467 214.717 129.57C217.616 126.109 220.709 122.797 223.112 118.953C225.613 114.989 227.329 110.583 228.167 105.974C228.351 105.097 228.34 104.191 228.135 103.319C227.931 102.448 227.537 101.631 226.982 100.927C222.245 94.6281 216.515 89.1367 210.015 84.6664C208.184 83.4123 206.458 82.0064 204.671 80.6846C201.981 78.6926 201.042 75.965 201.522 72.7679C202.442 66.6144 203.451 60.4725 204.098 54.2769C204.369 51.6076 204.667 48.9384 204.84 46.2621C205.025 43.4317 203.524 41.8624 200.679 41.783C197.401 41.6919 194.225 42.3855 191.2 43.5882C189.655 44.2024 188.713 45.5568 188.198 47.1425C187.868 48.1584 187.601 49.277 186.344 49.4475C185.591 49.574 184.82 49.535 184.084 49.3333C183.349 49.1316 182.666 48.7721 182.084 48.2798C182.028 48.2249 181.979 48.1638 181.937 48.0977C180.661 46.3322 181.974 41.9067 184.044 41.2785C186.997 40.3888 189.936 39.478 192.748 38.1983C193.638 37.7919 194.523 37.3832 195.211 36.657C196.605 35.188 196.342 33.0699 194.558 32.1194C192.497 31.0195 190.465 29.8448 188.261 29.0298C184.721 27.7174 181.316 27.8832 178.08 29.9826C176.399 31.0755 173.668 29.9032 173.099 27.8808C172.914 27.2043 172.835 26.5031 172.865 25.8024C172.975 22.8366 174.68 20.5877 178.41 22.0029C182.674 23.6212 187.051 24.936 191.434 26.2064C192.446 26.5007 193.464 26.7879 194.535 26.7646C196.457 26.7202 198.002 25.5525 198.073 23.7146C198.223 19.7703 197.916 15.8656 196.148 12.2155C195.588 11.0479 194.53 10.3473 193.806 9.32676C192.969 8.2337 192.585 6.86205 192.731 5.49451C192.858 4.34086 193.361 3.35303 194.394 2.82291C195.918 1.99405 197.703 1.78166 199.379 2.22974C200.55 2.55201 201.161 3.89248 200.946 5.49918C200.798 6.5781 200.592 7.65234 200.508 8.73359C200.175 12.9512 201.386 16.8255 203.353 20.4732C204.451 22.5073 206.617 22.7665 208.067 20.9753C211.607 16.5966 214.085 11.8185 213.31 5.88918C212.914 2.85327 213.867 2.15267 216.859 2.93734C220.536 3.91584 221.847 8.05168 219.238 10.7747C217.712 12.3673 216.707 14.2052 215.888 16.1926C215.087 18.1807 214.46 20.2341 214.014 22.3298C213.312 25.4498 214.789 27.269 217.967 27.2737C220.626 27.3083 223.27 26.8767 225.779 25.9986C225.85 25.968 225.924 25.9415 225.999 25.9192C227.09 25.6529 228.265 25.1275 229.167 26.1877C230.104 27.297 230.031 28.6748 229.635 29.9663C229.272 31.1713 228.073 31.7108 226.437 31.4749C225.162 31.2923 223.874 31.2142 222.587 31.2414C218.709 31.3067 216.309 32.9952 214.981 36.6523C213.654 40.3094 213.031 44.0949 212.712 47.9459C212.375 52.0257 212.478 56.1031 212.626 60.1899C212.71 62.628 212.338 65.0777 212.237 67.5251C212.111 70.5961 212.848 71.8969 215.735 73.0108C225.486 76.773 234.26 82.2937 242.985 87.9078C244.13 88.6434 245.193 89.5098 246.279 90.3342C247.621 91.3477 249.04 91.5766 250.686 91.1072C255.604 89.706 259.294 86.6701 262.216 82.6066C263.755 80.4005 265.081 78.0548 266.178 75.6007C268.101 71.4602 270.583 67.6302 272.826 63.6672C274.245 61.1591 275.69 58.6673 277.139 56.1778C277.488 55.58 277.505 54.9121 277.638 54.2699C278.964 47.9645 282.722 43.6465 288.564 41.0637C290.531 40.195 292.678 40.2276 294.758 39.9311C302.054 38.8942 309.065 36.741 316.015 34.3987C319.216 33.3198 322.384 32.5305 325.739 33.523C330.05 34.8144 332.856 37.5584 333.888 41.9978C334.052 42.7202 334.035 43.4717 333.839 44.186C332.303 50.1761 330.699 56.1475 329.943 62.3151C329.708 64.3421 328.751 66.2851 328.432 68.3005C327.842 72.0253 327.381 75.7735 327.048 79.531C326.561 85.0634 323.492 88.7321 318.75 91.1212C305.311 97.8936 291.847 104.617 278.359 111.291C276.109 112.41 274.327 114.07 272.761 115.974C272.101 116.755 271.631 117.678 271.39 118.671C271.149 119.664 271.142 120.699 271.37 121.695C273.098 129.715 272.374 137.645 270.653 145.539C269.684 149.976 269.417 154.474 269.419 158.99C269.419 162.122 271.157 164.287 274.322 165.363C278.492 166.786 282.665 168.206 286.841 169.623C289.651 170.573 292.416 171.631 295.355 172.138C297.088 172.437 297.619 171.904 297.064 170.27C295.797 166.547 294.554 162.846 291.798 159.824C290.06 157.921 290.316 156.933 292.297 155.24C292.832 154.728 293.433 154.289 294.083 153.934C295.064 153.467 296.02 153.313 296.921 154.088C297.823 154.864 298.373 155.749 298.024 156.958C297.17 159.903 298.172 162.39 299.897 164.698C301.265 166.514 302.867 166.645 304.4 164.959C306.239 162.939 307.644 160.585 309.257 158.392C309.835 157.608 310.395 156.811 311.001 156.057C312.2 154.562 313.828 154.098 315.612 154.702C317.499 155.34 318.672 156.804 318.766 158.623C318.853 160.258 318.211 161.267 316.626 161.636C312.699 162.547 310.432 165.34 308.62 168.612C307.784 170.123 308.545 171.939 310.177 172.18C313.633 172.689 317.141 173.462 320.588 172.215C322.08 171.659 323.616 171.229 325.18 170.928C326.486 170.695 327.47 171.129 328.245 172.147C328.317 172.241 328.38 172.34 328.435 172.444C329.137 173.817 330.177 175.169 329.069 176.771C328.243 177.969 325.487 178.826 323.918 178.249C319.993 176.806 316.317 177.591 312.697 179.244C312.341 179.403 312 179.591 311.676 179.807C309.358 181.372 309.044 183.415 310.877 185.529C312.469 187.356 314.254 189.008 316.2 190.456C318.167 191.925 320.024 193.534 322.068 194.893C323.222 195.666 323.307 196.266 322.681 197.483C322.235 198.395 321.621 199.216 320.871 199.902C319.204 201.371 317.762 201.371 316.092 199.902C314.329 198.338 313.048 196.369 311.599 194.531C310.428 193.032 309.273 191.495 308.037 190.052C305.929 187.579 303.206 187.367 300.729 189.447C299.792 190.223 298.923 191.049 298.048 191.878C296.01 193.803 295.004 196.136 295.092 198.971C295.177 201.89 292.845 203.335 290.189 202.095C289.167 201.606 288.226 200.964 287.398 200.192C287.174 200.001 286.992 199.767 286.861 199.504C286.73 199.241 286.654 198.954 286.637 198.661C286.62 198.368 286.663 198.074 286.763 197.798C286.863 197.522 287.017 197.269 287.218 197.053C287.512 196.689 287.867 196.379 288.269 196.138C291.135 194.599 292.608 192.058 293.325 189.036C293.77 187.168 294.444 185.279 293.966 183.294C293.264 180.396 291.54 178.476 288.58 177.775C282.204 176.271 275.819 174.796 269.45 173.259C267.357 172.771 265.34 172.004 263.453 170.98C259.423 168.766 257.521 165.401 257.336 160.828C257.088 154.728 256.615 148.638 256.236 142.545C256.189 141.823 255.917 141.256 255.14 141.081C254.363 140.905 253.794 141.137 253.358 141.84C249.942 147.374 246.532 152.914 244.141 158.997C241.751 165.081 239.901 171.374 238.021 177.626C235.098 187.357 232.178 197.088 227.664 206.245C226.476 208.699 225.165 211.091 223.734 213.412C223.369 213.996 222.849 214.627 223.367 215.337C223.854 216.007 224.58 215.657 225.212 215.547C231.853 214.395 238.128 211.964 244.558 210.066C247.837 209.097 251.115 208.022 254.428 207.147C258.54 206.058 261.86 207.81 264.979 210.281C266.902 211.803 267.829 213.669 268.108 216.119C269.063 224.486 271.297 232.609 273.112 240.813C273.398 242.104 273.697 243.381 273.997 244.68C274.114 245.184 274.262 245.677 274.873 245.794C275.484 245.91 275.905 245.56 276.236 245.093C277.516 243.3 278.083 241.242 278.404 239.11C278.599 237.999 278.633 236.865 278.502 235.745C278.298 234.264 278.764 233.533 280.141 232.863C280.735 232.569 281.35 232.32 281.982 232.118C282.734 231.885 283.448 231.966 284.028 232.585C284.609 233.204 284.806 233.935 284.459 234.731C283.712 236.443 282.911 238.132 282.188 239.85C281.72 240.971 281.42 242.13 281.799 243.37C282.349 245.17 283.923 245.922 285.651 245.182C286.658 244.75 287.391 243.993 287.993 243.127C290.1 240.091 292.025 236.927 293.018 233.302C293.374 232.006 294.137 231.63 295.418 232.022C296.695 232.425 297.805 233.234 298.577 234.325C299.619 235.726 299.314 237.534 297.813 239.056C295.957 240.941 294.036 242.77 292.212 244.687C291.042 245.927 289.964 247.272 288.876 248.594C288.562 248.992 288.297 249.426 288.084 249.885C287.063 251.987 287.887 253.802 290.14 254.404C292.269 254.972 294.467 254.955 296.643 255.105C298.818 255.254 301.01 255.28 303.199 255.418C306.335 255.618 308.039 257.779 307.562 260.885C307.093 263.878 304.595 265.065 302.162 263.283C299.502 261.333 296.589 260.621 293.355 260.805C291.636 260.906 289.95 261.219 288.246 261.419C288.011 261.447 287.777 261.494 287.543 261.524C285.12 261.856 283.797 263.731 284.567 266.057C285.808 269.829 287.197 273.549 288.515 277.292C288.707 277.894 289.127 278.397 289.686 278.694C291.03 279.394 291.793 280.63 292.615 281.807C293.123 282.528 293.083 283.252 292.592 283.981C292.063 284.828 291.343 285.539 290.489 286.059C289.635 286.579 288.671 286.893 287.674 286.975C286.136 287.126 284.925 286.349 284.396 284.901C284.101 284.1 283.808 283.266 283.855 282.404C284.061 278.607 282.858 275.2 281.012 271.963C279.952 270.095 278.919 268.227 277.811 266.394C276.657 264.483 275.086 264.245 273.454 265.74C270.257 268.663 268.424 272.234 268.403 276.632C268.403 276.945 268.403 277.255 268.389 277.566C268.239 280.45 266.9 281.596 263.886 281.428C261.727 281.307 259.779 279.067 259.905 276.865C259.975 275.674 260.725 274.871 261.519 274.116C265.476 270.354 267.841 265.751 268.67 260.389C269.304 256.319 268.841 252.375 266.691 248.771C263.326 243.129 260.957 237.027 258.301 231.053C257.575 229.419 256.859 227.77 255.889 226.259C254.688 224.391 253.47 224.115 251.707 225.472C248.312 228.085 245.01 230.822 241.638 233.452C235.55 238.188 229.621 243.146 223.205 247.445C218.645 250.519 213.815 253.176 208.776 255.385C206.271 256.475 204.662 258.187 203.374 260.576C198.223 270.093 193.017 279.583 187.264 288.761C181.618 297.768 176.024 306.811 170.404 315.825C165.096 324.321 159.055 332.294 152.91 340.194C147.524 347.109 142.333 354.164 137.123 361.212C128.763 372.515 118.858 382.23 107.031 389.957C102.076 393.197 97.4609 396.94 92.307 399.899C86.659 403.14 80.9416 406.25 75.1547 409.228C70.2631 411.746 65.334 414.177 60.1684 416.052C51.9367 419.009 43.3474 420.862 34.6262 421.561C30.5869 421.907 26.5781 422.047 22.7472 421.986Z" stroke="#282828" stroke-width="4" mask="url(#path-1-outside-1_125_7327)"/>
<defs>
<linearGradient id="paint0_linear_125_7327" x1="301.819" y1="385.542" x2="-20.1749" y2="-5.22283" gradientUnits="userSpaceOnUse">
<stop stop-color="#2ECF72"/>
<stop offset="1" stop-color="#2ECF72" stop-opacity="0"/>
</linearGradient>
</defs>
</svg>
