<svg width="21" height="20" viewBox="0 0 21 20" fill="none" xmlns="http://www.w3.org/2000/svg">
<path fill-rule="evenodd" clip-rule="evenodd" d="M8.35732 0C7.96744 0.0015119 7.64729 0.321657 7.64578 0.711539V2.68419C7.52483 2.73106 7.39991 2.7681 7.2816 2.82083C7.00096 2.94594 6.72787 3.09089 6.46423 3.24775C6.2004 3.40461 5.94357 3.57848 5.69959 3.76539C5.60547 3.83758 5.52137 3.92036 5.43047 3.9969L3.72693 2.96314C3.616 2.89661 3.489 2.86146 3.35973 2.86146C3.10554 2.86146 2.86969 2.99716 2.74212 3.21714L0.595029 6.92375C0.532096 7.03242 0.499023 7.15583 0.499023 7.28151C0.499023 7.53966 0.639063 7.77835 0.864337 7.9046L2.71982 8.95367C2.7081 9.04023 2.69223 9.12489 2.68353 9.21183C2.65707 9.47414 2.64158 9.73948 2.64158 10.0027C2.64177 10.2662 2.65688 10.5315 2.68353 10.7938C2.69223 10.8808 2.71358 10.9653 2.7253 11.0518L0.864337 12.0954C0.640008 12.2218 0.500913 12.4601 0.500913 12.7175C0.500913 12.8419 0.53323 12.964 0.595029 13.0719L2.74212 16.7829C2.86931 17.004 3.10592 17.1408 3.36105 17.1408C3.48824 17.1408 3.61316 17.1068 3.72278 17.0423L5.4248 16.0352C5.5191 16.1135 5.60755 16.1985 5.70526 16.2722C5.94943 16.4565 6.20626 16.6245 6.46971 16.7787C6.73316 16.9329 7.00719 17.0716 7.28727 17.1945C7.40237 17.2449 7.52256 17.282 7.6403 17.327L7.64578 19.2885C7.64729 19.6782 7.96744 19.9985 8.35732 20H12.6443C13.0342 19.9985 13.3545 19.6782 13.3559 19.2885L13.3615 17.327C13.4791 17.282 13.5993 17.2449 13.7144 17.1945C13.9946 17.0716 14.2685 16.9329 14.5319 16.7787C14.7954 16.6245 15.0522 16.4565 15.2964 16.2722C15.3941 16.1985 15.4812 16.1135 15.5755 16.0352L17.2789 17.0423C17.3885 17.1068 17.5134 17.1408 17.6406 17.1408C17.8959 17.1408 18.1323 17.004 18.2597 16.7829L20.4053 13.0719C20.4669 12.964 20.4994 12.8419 20.4994 12.7175C20.4994 12.4601 20.3603 12.2218 20.136 12.0954L18.275 11.0518C18.2867 10.9653 18.3081 10.8808 18.3168 10.7938C18.3434 10.5313 18.3599 10.2662 18.3601 10.0027C18.3602 9.73948 18.3432 9.47414 18.3168 9.21183C18.3081 9.12489 18.2922 9.04023 18.2805 8.95367L20.136 7.9046C20.3613 7.77835 20.5013 7.53966 20.5013 7.28151C20.5013 7.15583 20.4682 7.03242 20.4053 6.92375L18.2597 3.21714C18.1321 2.99678 17.8961 2.8609 17.6417 2.8609C17.5119 2.8609 17.3845 2.89624 17.2734 2.96314L15.5698 3.9969C15.4789 3.92036 15.3948 3.83758 15.3007 3.76539C15.0567 3.57848 14.7999 3.40461 14.5361 3.24775C14.2724 3.09089 14.0007 2.94594 13.72 2.82083C13.6017 2.7681 13.4768 2.73106 13.3559 2.68419V0.711539C13.3545 0.321657 13.0342 0.0015119 12.6443 0H8.35732ZM9.06886 1.42988H11.926V3.17934C11.9269 3.49211 12.1333 3.76936 12.4323 3.86026C12.6738 3.93529 12.91 4.02714 13.1397 4.12938C13.3693 4.23181 13.5934 4.34294 13.8092 4.47126C14.0251 4.59958 14.2318 4.74529 14.4316 4.89818C14.6311 5.05107 14.8194 5.21304 15.0006 5.38917C15.2331 5.61709 15.5931 5.65848 15.8713 5.48971L17.389 4.56197L18.808 7.01314L17.1464 7.95204C16.8778 8.10417 16.737 8.41411 16.799 8.71649C16.8421 8.92872 16.8778 9.14493 16.8994 9.35962C16.9209 9.57431 16.9302 9.78729 16.9302 10.0027C16.93 10.2182 16.9156 10.4314 16.8939 10.6459C16.8722 10.8606 16.8423 11.0769 16.799 11.289C16.737 11.5914 16.8778 11.9013 17.1464 12.0536L18.8023 12.9869L17.3836 15.4437L15.8656 14.5479C15.5912 14.3835 15.2382 14.4224 15.0063 14.6428C14.8245 14.8168 14.6313 14.9818 14.4316 15.1324C14.2316 15.2832 14.0249 15.4235 13.8092 15.5497C13.5936 15.676 13.3744 15.7867 13.1453 15.8872C12.9161 15.9878 12.6785 16.0776 12.4379 16.1509C12.1388 16.2418 11.9326 16.519 11.9315 16.8318V18.5714H9.06886V16.8318C9.06772 16.519 8.86154 16.2418 8.56237 16.1509C8.32179 16.0776 8.08575 15.9878 7.8565 15.8872C7.62726 15.7867 7.40652 15.676 7.19108 15.5497C6.97544 15.4235 6.76434 15.2832 6.56458 15.1324C6.36482 14.9818 6.17716 14.8168 5.99535 14.6428C5.76328 14.4217 5.4093 14.3827 5.1347 14.5479L3.61675 15.4437L2.19802 12.9869L3.85393 12.0536C4.12248 11.9013 4.26328 11.5914 4.20129 11.289C4.15782 11.0769 4.124 10.8606 4.10226 10.6459C4.08053 10.4312 4.07032 10.2182 4.07013 10.0027C4.07013 9.78729 4.08072 9.57431 4.10226 9.35962C4.12381 9.14493 4.15801 8.92872 4.20129 8.71649C4.26328 8.41411 4.12248 8.10417 3.85393 7.95204L2.19235 7.01314L3.61127 4.56197L5.13055 5.48971C5.40836 5.65772 5.76743 5.61634 5.99951 5.38917C6.18094 5.21304 6.36917 5.05107 6.56874 4.89818C6.7685 4.74529 6.97525 4.59958 7.19108 4.47126C7.40671 4.34294 7.63104 4.23181 7.86066 4.12938C8.09028 4.02714 8.32652 3.93529 8.56804 3.86026C8.86494 3.76728 9.06848 3.4906 9.06886 3.17934V1.42988ZM9.08965 7.13447C8.92731 7.13315 8.76931 7.18739 8.64194 7.28793L5.78331 9.42803C5.6032 9.56278 5.4968 9.77501 5.4968 9.99991C5.4968 10.225 5.6032 10.4372 5.78331 10.572L8.64194 12.7134C8.76894 12.816 8.92731 12.8721 9.09078 12.8721C9.48255 12.8721 9.80478 12.5497 9.80478 12.158C9.80478 11.9255 9.69138 11.7072 9.50126 11.5736L7.40312 10.0027L9.50126 8.42639C9.68609 8.29202 9.7957 8.07696 9.7957 7.84866C9.7957 7.45991 9.47839 7.13901 9.08965 7.13447ZM11.8897 7.14014C11.5117 7.15885 11.211 7.47503 11.211 7.85338C11.211 8.07885 11.318 8.29165 11.4991 8.42639L13.5987 10.0027L11.4991 11.5736C11.3089 11.7072 11.1955 11.9255 11.1955 12.158C11.1955 12.5497 11.5178 12.8721 11.9095 12.8721C12.0728 12.8721 12.2314 12.816 12.3584 12.7134L15.217 10.572C15.3971 10.4372 15.5035 10.225 15.5035 9.99991C15.5035 9.77501 15.3971 9.56278 15.217 9.42803L12.3584 7.28793C12.2246 7.18475 12.0585 7.13239 11.8897 7.14014Z" fill="white"/>
</svg>
