<svg width="19" height="18" viewBox="0 0 19 18" fill="none" xmlns="http://www.w3.org/2000/svg">
<path d="M9.375 0C4.4124 0 0.375 4.0374 0.375 9C0.375 13.9626 4.4124 18 9.375 18C14.3376 18 18.375 13.9626 18.375 9C18.375 4.0374 14.3376 0 9.375 0ZM9.375 16.3636C5.31464 16.3636 2.01136 13.0603 2.01136 9C2.01136 4.93969 5.31464 1.63636 9.375 1.63636C13.4354 1.63636 16.7386 4.93969 16.7386 9C16.7386 13.0603 13.4353 16.3636 9.375 16.3636Z" fill="white"/>
<path d="M12.7499 5.81823L8.12151 10.4466L6.00023 8.32525C5.68076 8.00578 5.16269 8.00572 4.84316 8.3252C4.52363 8.64472 4.52363 9.16274 4.84316 9.48227L7.54294 12.1822C7.69638 12.3356 7.90447 12.4218 8.12145 12.4218C8.12151 12.4218 8.12145 12.4218 8.12151 12.4218C8.33849 12.4218 8.54658 12.3356 8.70002 12.1822L13.907 6.97536C14.2265 6.65583 14.2265 6.13781 13.907 5.81829C13.5875 5.49876 13.0694 5.4987 12.7499 5.81823Z" fill="white"/>
</svg>
