<svg width="10" height="10" viewBox="0 0 10 10" fill="none" xmlns="http://www.w3.org/2000/svg">
<path d="M9.66634 5.00004C9.66634 4.63185 9.36786 4.33337 8.99967 4.33337H5.66634V1.00004C5.66634 0.631851 5.36786 0.333374 4.99967 0.333374C4.63148 0.333374 4.33301 0.631851 4.33301 1.00004V4.33337H0.999674C0.631485 4.33337 0.333008 4.63185 0.333008 5.00004C0.333008 5.36823 0.631485 5.66671 0.999674 5.66671H4.33301V9.00004C4.33301 9.36823 4.63148 9.66671 4.99967 9.66671C5.36786 9.66671 5.66634 9.36823 5.66634 9.00004V5.66671H8.99967C9.36786 5.66671 9.66634 5.36823 9.66634 5.00004Z" fill="white"/>
</svg>
