<svg width="16" height="17" viewBox="0 0 16 17" fill="none" xmlns="http://www.w3.org/2000/svg">
<path d="M2 5H3.5V10.5C3.5 11.163 3.76339 11.7989 4.23223 12.2678C4.70107 12.7366 5.33696 13 6 13H11.5V14.5C11.5 14.8978 11.342 15.2794 11.0607 15.5607C10.7794 15.842 10.3978 16 10 16H2C1.60218 16 1.22064 15.842 0.93934 15.5607C0.658035 15.2794 0.5 14.8978 0.5 14.5V6.5C0.5 6.10218 0.658035 5.72064 0.93934 5.43934C1.22064 5.15804 1.60218 5 2 5Z" fill="white" fill-opacity="0.7"/>
<path d="M6 1H14C14.8284 1 15.5 1.67157 15.5 2.5V10.5C15.5 11.3284 14.8284 12 14 12H6C5.17157 12 4.5 11.3284 4.5 10.5V2.5C4.5 1.67157 5.17157 1 6 1Z" fill="white" fill-opacity="0.7"/>
</svg>
