<svg width="17" height="16" viewBox="0 0 17 16" fill="none" xmlns="http://www.w3.org/2000/svg">
<path fill-rule="evenodd" clip-rule="evenodd" d="M6.28664 0C5.97473 0.00120952 5.71862 0.257326 5.71741 0.569231V2.14735C5.62064 2.18485 5.52071 2.21448 5.42606 2.25666C5.20155 2.35675 4.98308 2.47271 4.77217 2.5982C4.5611 2.72369 4.35564 2.86279 4.16045 3.01231C4.08516 3.07007 4.01788 3.13629 3.94516 3.19752L2.58233 2.37051C2.49358 2.31729 2.39198 2.28917 2.28857 2.28917C2.08521 2.28917 1.89653 2.39772 1.79448 2.57371L0.0768046 5.539C0.0264583 5.62594 0 5.72466 0 5.8252C0 6.03173 0.112032 6.22268 0.292251 6.32368L1.77664 7.16294C1.76726 7.23218 1.75456 7.29991 1.74761 7.36946C1.72644 7.57931 1.71404 7.79158 1.71404 8.00219C1.71419 8.21295 1.72629 8.42522 1.74761 8.63507C1.75456 8.70462 1.77165 8.7722 1.78102 8.84145L0.292251 9.67632C0.112788 9.77747 0.00151194 9.96812 0.00151194 10.174C0.00151194 10.2735 0.0273654 10.3712 0.0768046 10.4575L1.79448 13.4263C1.89623 13.6032 2.08552 13.7126 2.28962 13.7126C2.39137 13.7126 2.49131 13.6854 2.579 13.6339L3.94062 12.8282C4.01606 12.8908 4.08682 12.9588 4.16499 13.0178C4.36032 13.1652 4.56579 13.2996 4.77655 13.423C4.98731 13.5463 5.20653 13.6573 5.4306 13.7556C5.52267 13.7959 5.61883 13.8256 5.71302 13.8616L5.71741 15.4308C5.71862 15.7425 5.97473 15.9988 6.28664 16H9.71624C10.0281 15.9988 10.2844 15.7425 10.2855 15.4308L10.29 13.8616C10.384 13.8256 10.4802 13.7959 10.5723 13.7556C10.7965 13.6573 11.0156 13.5463 11.2263 13.423C11.4371 13.2996 11.6425 13.1652 11.8379 13.0178C11.9161 12.9588 11.9858 12.8908 12.0612 12.8282L13.4239 13.6339C13.5116 13.6854 13.6115 13.7126 13.7132 13.7126C13.9175 13.7126 14.1066 13.6032 14.2085 13.4263L15.925 10.4575C15.9743 10.3712 16.0003 10.2735 16.0003 10.174C16.0003 9.96812 15.889 9.77747 15.7096 9.67632L14.2208 8.84145C14.2302 8.7722 14.2473 8.70462 14.2542 8.63507C14.2755 8.42507 14.2887 8.21295 14.2888 8.00219C14.289 7.79158 14.2754 7.57931 14.2542 7.36946C14.2473 7.29991 14.2346 7.23218 14.2252 7.16294L15.7096 6.32368C15.8898 6.22268 16.0018 6.03173 16.0018 5.8252C16.0018 5.72466 15.9754 5.62594 15.925 5.539L14.2085 2.57371C14.1065 2.39742 13.9177 2.28872 13.7142 2.28872C13.6103 2.28872 13.5084 2.31699 13.4195 2.37051L12.0567 3.19752C11.9839 3.13629 11.9167 3.07007 11.8414 3.01231C11.6462 2.86279 11.4407 2.72369 11.2296 2.5982C11.0187 2.47271 10.8013 2.35675 10.5768 2.25666C10.4822 2.21448 10.3822 2.18485 10.2855 2.14735V0.569231C10.2844 0.257326 10.0281 0.00120952 9.71624 0H6.28664ZM6.85587 1.1439H9.14156V2.54347C9.14232 2.79369 9.30742 3.01549 9.5466 3.08821C9.73982 3.14823 9.92881 3.22171 10.1125 3.3035C10.2962 3.38545 10.4755 3.47435 10.6482 3.57701C10.8208 3.67967 10.9862 3.79623 11.146 3.91855C11.3057 4.04086 11.4563 4.17043 11.6013 4.31134C11.7872 4.49367 12.0753 4.52678 12.2978 4.39177L13.512 3.64958L14.6472 5.61052L13.3179 6.36163C13.103 6.48334 12.9904 6.73129 13.04 6.97319C13.0745 7.14298 13.103 7.31594 13.1203 7.48769C13.1375 7.65944 13.1449 7.82984 13.1449 8.00219C13.1448 8.17455 13.1333 8.34509 13.1159 8.51669C13.0985 8.68844 13.0746 8.86156 13.04 9.03119C12.9904 9.2731 13.103 9.52105 13.3179 9.64291L14.6426 10.3895L13.5076 12.355L12.2933 11.6383C12.0737 11.5068 11.7913 11.5379 11.6058 11.7142C11.4604 11.8535 11.3058 11.9854 11.146 12.1059C10.9861 12.2266 10.8207 12.3388 10.6482 12.4398C10.4757 12.5408 10.3003 12.6294 10.117 12.7098C9.93365 12.7902 9.7436 12.862 9.55114 12.9207C9.3118 12.9934 9.14685 13.2152 9.14594 13.4654V14.8572H6.85587V13.4654C6.85496 13.2152 6.69001 12.9934 6.45068 12.9207C6.25821 12.862 6.06938 12.7902 5.88598 12.7098C5.70259 12.6294 5.526 12.5408 5.35364 12.4398C5.18114 12.3388 5.01226 12.2266 4.85245 12.1059C4.69264 11.9854 4.54251 11.8535 4.39706 11.7142C4.2114 11.5373 3.92822 11.5062 3.70854 11.6383L2.49418 12.355L1.3592 10.3895L2.68393 9.64291C2.89877 9.52105 3.01141 9.2731 2.96181 9.03119C2.92704 8.86156 2.89998 8.68844 2.88259 8.51669C2.8652 8.34494 2.85704 8.17455 2.85689 8.00219C2.85689 7.82984 2.86536 7.65944 2.88259 7.48769C2.89983 7.31594 2.92719 7.14298 2.96181 6.97319C3.01141 6.73129 2.89877 6.48334 2.68393 6.36163L1.35466 5.61052L2.4898 3.64958L3.70522 4.39177C3.92747 4.52618 4.21473 4.49307 4.40039 4.31134C4.54553 4.17043 4.69612 4.04086 4.85577 3.91855C5.01558 3.79623 5.18098 3.67967 5.35364 3.57701C5.52615 3.47435 5.70561 3.38545 5.88931 3.3035C6.07301 3.22171 6.26199 3.14823 6.45521 3.08821C6.69273 3.01382 6.85557 2.79248 6.85587 2.54347V1.1439ZM6.8725 5.70758C6.74263 5.70652 6.61623 5.74991 6.51433 5.83035L4.22743 7.54242C4.08334 7.65022 3.99822 7.82001 3.99822 7.99992C3.99822 8.17999 4.08334 8.34978 4.22743 8.45758L6.51433 10.1707C6.61593 10.2528 6.74263 10.2977 6.87341 10.2977C7.18682 10.2977 7.4446 10.0398 7.4446 9.72637C7.4446 9.5404 7.35389 9.36578 7.20179 9.25889L5.52328 8.00219L7.20179 6.74111C7.34966 6.63362 7.43735 6.46156 7.43735 6.27893C7.43735 5.96793 7.1835 5.71121 6.8725 5.70758ZM9.11253 5.71211C8.81015 5.72708 8.56961 5.98002 8.56961 6.28271C8.56961 6.46308 8.65518 6.63332 8.80002 6.74111L10.4797 8.00219L8.80002 9.25889C8.64793 9.36578 8.55721 9.5404 8.55721 9.72637C8.55721 10.0398 8.81499 10.2977 9.12841 10.2977C9.25904 10.2977 9.38588 10.2528 9.48748 10.1707L11.7744 8.45758C11.9185 8.34978 12.0036 8.17999 12.0036 7.99992C12.0036 7.82001 11.9185 7.65022 11.7744 7.54242L9.48748 5.83035C9.38044 5.7478 9.24754 5.70592 9.11253 5.71211Z" fill="white"/>
</svg>
