<svg width="20" height="20" viewBox="0 0 20 20" fill="none" xmlns="http://www.w3.org/2000/svg">
<path d="M16.5714 8.57143H11.7143C11.5565 8.57143 11.4286 8.4435 11.4286 8.28571V3.42857C11.4286 2.63965 10.7889 2 10 2C9.21108 2 8.57143 2.63965 8.57143 3.42857V8.28571C8.57143 8.4435 8.4435 8.57143 8.28571 8.57143H3.42857C2.63965 8.57143 2 9.21108 2 10C2 10.7889 2.63965 11.4286 3.42857 11.4286H8.28571C8.4435 11.4286 8.57143 11.5565 8.57143 11.7143V16.5714C8.57143 17.3604 9.21108 18 10 18C10.7889 18 11.4286 17.3604 11.4286 16.5714V11.7143C11.4286 11.5565 11.5565 11.4286 11.7143 11.4286H16.5714C17.3604 11.4286 18 10.7889 18 10C18 9.21108 17.3604 8.57143 16.5714 8.57143Z" fill="white"/>
</svg>
