<svg width="16" height="16" viewBox="0 0 16 16" fill="none" xmlns="http://www.w3.org/2000/svg">
<path fill-rule="evenodd" clip-rule="evenodd" d="M0 8C0 12.4183 3.58172 16 8 16C12.4183 16 16 12.4183 16 8C16 3.58172 12.4183 0 8 0C3.58172 0 0 3.58172 0 8ZM14.5451 7.99991C14.5451 11.6149 11.6146 14.5454 7.99965 14.5454C4.38469 14.5454 1.45419 11.6149 1.45419 7.99991C1.45419 4.38496 4.38469 1.45446 7.99965 1.45446C11.6146 1.45446 14.5451 4.38496 14.5451 7.99991ZM8.72988 9.45321H9.45667V10.9078H6.54759V9.45321H7.27486V7.99867H6.54759V6.54412H8.72988V9.45321ZM8.7281 5.08958C8.7281 5.49124 8.40239 5.81685 8.00059 5.81685C7.5988 5.81685 7.27308 5.49124 7.27308 5.08958C7.27308 4.68792 7.5988 4.3623 8.00059 4.3623C8.40239 4.3623 8.7281 4.68792 8.7281 5.08958Z" fill="white" fill-opacity="0.8"/>
</svg>
