<svg width="20" height="20" fill="none" xmlns="http://www.w3.org/2000/svg"><g clip-path="url(#a)"><path d="m19.525 7.796-2.123-.523a7.875 7.875 0 0 0-.24-.578l1.131-1.871a.625.625 0 0 0-.093-.766L15.942 1.8a.625.625 0 0 0-.765-.093l-1.872 1.13a7.907 7.907 0 0 0-.578-.239L12.204.475A.625.625 0 0 0 11.597 0H8.403a.625.625 0 0 0-.607.475l-.523 2.123a7.89 7.89 0 0 0-.578.24L4.823 1.707a.625.625 0 0 0-.765.093L1.8 4.058a.625.625 0 0 0-.093.765l1.13 1.872a7.85 7.85 0 0 0-.239.578l-2.123.523A.625.625 0 0 0 0 8.403v3.194a.625.625 0 0 0 .475.607l2.123.523c.072.196.152.388.24.578l-1.131 1.872a.625.625 0 0 0 .093.765L4.058 18.2a.625.625 0 0 0 .765.093l1.872-1.13c.19.087.382.166.578.239l.523 2.123a.625.625 0 0 0 .607.475h3.194a.625.625 0 0 0 .607-.475l.523-2.123a7.89 7.89 0 0 0 .578-.24l1.872 1.131a.625.625 0 0 0 .765-.093l2.258-2.258a.625.625 0 0 0 .093-.765l-1.13-1.872c.087-.19.167-.383.239-.578l2.123-.523a.624.624 0 0 0 .475-.607V8.403a.625.625 0 0 0-.475-.607Zm-.775 3.311-1.978.488a.624.624 0 0 0-.446.418 6.617 6.617 0 0 1-.43 1.036.625.625 0 0 0 .02.61l1.054 1.745-1.566 1.566-1.744-1.054a.626.626 0 0 0-.61-.02c-.333.173-.68.316-1.037.43a.625.625 0 0 0-.418.446l-.488 1.978H8.893l-.488-1.978a.625.625 0 0 0-.418-.446 6.62 6.62 0 0 1-1.036-.43.624.624 0 0 0-.61.02L4.595 16.97 3.03 15.404l1.054-1.744a.625.625 0 0 0 .02-.61 6.607 6.607 0 0 1-.43-1.037.625.625 0 0 0-.446-.418l-1.978-.488V8.893l1.978-.488a.625.625 0 0 0 .446-.418c.113-.357.257-.703.43-1.036a.625.625 0 0 0-.02-.61L3.03 4.595 4.596 3.03 6.34 4.084a.625.625 0 0 0 .611.02c.333-.172.68-.316 1.036-.43a.625.625 0 0 0 .418-.446l.488-1.978h2.214l.488 1.978a.625.625 0 0 0 .418.446c.357.114.703.257 1.036.43a.626.626 0 0 0 .61-.02l1.745-1.054 1.566 1.566-1.054 1.744a.626.626 0 0 0-.02.61c.173.333.316.68.43 1.037a.625.625 0 0 0 .446.418l1.978.488v2.214ZM10 4.42A5.586 5.586 0 0 0 4.42 10 5.586 5.586 0 0 0 10 15.58 5.586 5.586 0 0 0 15.58 10 5.586 5.586 0 0 0 10 4.42Zm0 9.91a4.33 4.33 0 1 1 0-8.66 4.33 4.33 0 0 1 0 8.66Zm2.09-2.963a1.995 1.995 0 0 1-1.465 1.92v.29a.625.625 0 1 1-1.25 0v-.29a2.001 2.001 0 0 1-1.424-1.521.625.625 0 1 1 1.225-.251.745.745 0 0 0 .726.593h.196a.742.742 0 0 0 .741-.741c0-.646-.587-.742-.937-.742a1.991 1.991 0 0 1-.527-3.912v-.29a.625.625 0 0 1 1.25 0v.29a2.001 2.001 0 0 1 1.424 1.521.625.625 0 1 1-1.225.251.745.745 0 0 0-.726-.593h-.196a.742.742 0 0 0 0 1.483c1.288 0 2.187.819 2.187 1.992Z" fill="#fff"/></g><defs><clipPath id="a"><path fill="#fff" d="M0 0h20v20H0z"/></clipPath></defs></svg>