<svg width="17" height="19" viewBox="0 0 17 19" fill="none" xmlns="http://www.w3.org/2000/svg">
<path fill-rule="evenodd" clip-rule="evenodd" d="M6.26499 0.5H10.8707C11.5186 0.5 12.0457 1.02706 12.0457 1.67492V3.20235H16.9569V4.61225H15.464L14.2985 17.8566C14.2667 18.2206 13.9617 18.5 13.5963 18.5H3.51562C3.15024 18.5 2.84543 18.2208 2.81348 17.8568L1.64798 4.61225H0.178833V3.20235H5.09007V1.67492C5.09007 1.02706 5.61713 0.5 6.26499 0.5ZM6.49997 3.20235H10.6358V1.90991H6.49997V3.20235ZM12.9506 17.0901H4.16116L3.0633 4.61225H14.0487L12.9506 17.0901ZM6.54624 6.65404L6.85172 14.9961L5.44276 15.0478L5.13725 6.70575L6.54624 6.65404ZM11.9982 6.70601L10.5892 6.65433L10.2837 14.9963L11.6927 15.0478L11.9982 6.70601ZM9.27281 6.68017H7.8629V15.0222H9.27281V6.68017Z" fill="#898B94"/>
</svg>
