<svg width="24" height="24" fill="none" xmlns="http://www.w3.org/2000/svg"><path fill-rule="evenodd" clip-rule="evenodd" d="M22.999 12c0-6.075-4.925-11-11-11s-11 4.925-11 11 4.925 11 11 11 11-4.925 11-11ZM3.641 8.655a9.03 9.03 0 0 1 5.013-5.013c-.535 1.033-.955 2.32-1.238 3.775-1.455.283-2.742.703-3.775 1.238Zm11.704-5.013c.534 1.033.954 2.32 1.237 3.775 1.455.283 2.742.703 3.775 1.238a9.03 9.03 0 0 0-5.012-5.013ZM2.998 12c0-.9 1.629-1.875 4.115-2.462A26.034 26.034 0 0 0 6.999 12c0 .845.04 1.67.115 2.462-2.486-.587-4.115-1.563-4.115-2.462Zm14 0c0 .845-.039 1.67-.114 2.462 2.485-.587 4.114-1.563 4.114-2.462 0-.9-1.629-1.875-4.114-2.462.075.793.114 1.617.114 2.462ZM3.641 15.345c1.033.535 2.32.955 3.775 1.238.283 1.455.703 2.742 1.238 3.775a9.03 9.03 0 0 1-5.013-5.013Zm12.94 1.238c-.282 1.455-.702 2.742-1.236 3.775a9.03 9.03 0 0 0 5.012-5.013c-1.033.535-2.32.955-3.775 1.238ZM9 12c0-.99.062-1.94.173-2.827.887-.11 1.837-.173 2.827-.173s1.94.062 2.827.173c.11.887.173 1.837.173 2.827s-.062 1.94-.173 2.827A22.95 22.95 0 0 1 12 15c-.99 0-1.94-.062-2.827-.173A22.947 22.947 0 0 1 8.999 12Zm.538 4.886C10.124 19.37 11.1 21 12 21c.9 0 1.875-1.629 2.462-4.114-.793.075-1.617.114-2.462.114-.845 0-1.67-.039-2.462-.114ZM12 3c-.9 0-1.875 1.629-2.462 4.114A26.036 26.036 0 0 1 12 7c.845 0 1.67.039 2.462.114C13.874 4.63 12.898 3 11.999 3Z" fill="#fff"/></svg>