<svg width="35" height="35" viewBox="0 0 35 35" fill="none" xmlns="http://www.w3.org/2000/svg"><path d="m34.845 17.295-.782-.256-.797-.256h-.085v-.1c-.023-.438-.07-.874-.142-1.308v-.1h.085l.725-.44c.242-.128.484-.27.697-.412 0-.3-.128-.598-.199-.868l-.825-.085-.853-.185h-.1V13.2c-.123-.425-.27-.843-.44-1.252v-.085h.07l.612-.583.583-.555a10.731 10.731 0 0 0-.398-.81l-.81.1-.825.113h-.1v-.085c-.227-.384-.47-.768-.71-1.11v-.17c.141-.228.298-.47.468-.711.171-.242.313-.455.441-.669-.156-.227-.341-.44-.554-.71l-.768.298-.783.284h-.099a21.943 21.943 0 0 0-.939-.938h-.07V6.23c.085-.256.198-.526.298-.796.1-.27.199-.512.284-.754l-.697-.569-.782.313c-.241.157-.483.327-.71.455h-.157c-.356-.241-.725-.469-1.11-.696h-.085V4.04c0-.27 0-.554.114-.839.114-.284.085-.554.114-.81l-.81-.384c-.186.17-.37.384-.555.583-.185.199-.398.426-.598.611v.071h-.1c-.412-.17-.838-.312-1.236-.44h-.1v-.157c0-.27 0-.554-.071-.839-.071-.284 0-.554 0-.81l-1.052-.2-.413.683c-.142.256-.284.512-.426.725v.086h-.1l-1.308-.143h-.1v-.1c-.085-.24-.17-.511-.256-.781-.085-.27-.256-.555-.341-.81h-.91c-.085.241-.17.511-.256.781-.085.27-.17.54-.256.782v.1h-.085c-.484 0-.91.085-1.323.142h-.085v-.085c-.143-.213-.285-.47-.441-.725-.157-.256-.37-.441-.512-.654l-.867.199c0 .256 0 .54-.072.81l-.113.84v.113c-.399.128-.825.27-1.238.44l-.184.1v-.07l-.584-.612-.554-.583c-.284.113-.555.256-.81.384 0 .256 0 .54.113.81.114.27 0 .57.1.84v.085h-.086c-.384.227-.768.455-1.109.696H8.607l-.74-.455-.682-.455-.696.57.284.767c.1.256.199.526.284.782v.086c-.322.303-.635.616-.938.938h-.086l-.782-.284-.768-.299a17.76 17.76 0 0 0-.568.711l.455.683c.156.241.327.469.469.696V8.791c-.242.341-.47.725-.697 1.11v.085h-.256l-.825-.114-.824-.1a73.82 73.82 0 0 0-.384.81l.583.556.611.725h.128v.085c-.156.427-.313.84-.427 1.252v.085h-.227l-.768.1-.825.085c0 .27-.142.554-.199.867l.626.37.74.44h.07v.1c0 .413-.1.84-.142 1.309v.1h-.1l-.781.255c-.27 0-.54.17-.783.256v.853l.783.256.782.256h.1v.1c0 .47.085.91.141 1.308v.1h-.07l-.74.426-.683.413c0 .313.128.597.2.881h.81l.839.072h.1v.1c.12.419.263.832.426 1.236v.086h-.071c-.185.199-.398.398-.611.597-.214.199-.413.37-.584.555l.384.81.825-.114.825-.113h.1v.085c.227.398.455.768.696 1.123v.157l-.469.71c-.156.228-.313.456-.455.683l.569.697.768-.284.782-.299h.085v.071c.295.326.609.635.939.925v.17l-.285.782c-.1.256-.199.512-.284.754.256.228.484.413.697.569l.682-.44.697-.47H8.508c.355.242.725.483 1.11.71h.084v.1c0 .256 0 .54-.113.825-.114.285 0 .555-.1.81.256.143.526.271.81.399l.555-.583.854-.185v-.071h.1c.412.17.838.313 1.236.44h.1v.1c0 .256 0 .54.085.825.086.285 0 .569.071.825l.868.199a8.15 8.15 0 0 0 .412-.697l.441-.725v-.085h.085c.438.072.88.12 1.323.142h.085v.085c.085.242.17.512.256.782.085.27.17.555.256.797h.882c.085-.242.17-.526.256-.797.085-.27.17-.54.256-.782v-.085h.1c.438-.022.875-.07 1.308-.142h.1v.085c.141.227.284.47.426.725l.412.697.882-.199v-.825c0-.284 0-.569.071-.825v-.1h.1c.398-.127.824-.27 1.237-.44h.1v.071c.198.185.397.398.597.611l.554.584.81-.399c0-.256-.07-.54-.113-.81a18.9 18.9 0 0 1-.114-.825v-.1h.085c.384-.227.754-.469 1.11-.71h.156l.711.469.683.44c.213-.156.44-.34.697-.568-.086-.242-.185-.498-.285-.754-.1-.256-.213-.54-.298-.782v-.1h.07c.323-.303.636-.616.94-.938v-.071h.099l.782.298.768.285c.213-.256.398-.484.554-.697a13.668 13.668 0 0 0-.44-.683 20.415 20.415 0 0 1-.47-.71V26.68c.257-.362.494-.737.711-1.124v-.085h.1l.825.114.81.114c.143-.27.27-.54.399-.811l-.584-.555c-.213-.199-.426-.398-.611-.597h-.071v-.085c.168-.405.315-.818.44-1.237v-.1h.1l.825-.071h.825c.07-.284.142-.569.199-.882l-.697-.412-.725-.427h-.085v-.1c.072-.432.12-.87.142-1.308v-.1h.085l.796-.255.783-.256v-.867l.526-.342ZM18.548 13.03c.16-1.956.518-3.89 1.066-5.774v-.142h.142c1.334.282 2.603.812 3.74 1.564h.114v.128a24.33 24.33 0 0 1-3.37 5.006l-.085.085h-.1c-.44-.27-.92-.467-1.422-.583l-.1-.028.015-.256Zm-6.84-4.28a10.695 10.695 0 0 1 3.754-1.536h.142v.128a24.384 24.384 0 0 1 1.067 5.773v.17h-.114a4.437 4.437 0 0 0-1.422.57l-.114.07-.085-.099a30.689 30.689 0 0 1-3.229-4.806v-.271Zm-4.65 6.811c.29-1.318.82-2.57 1.564-3.697l.085-.114h.114a23.934 23.934 0 0 1 4.835 3.342l.1.071v.114a4.467 4.467 0 0 0-.584 1.422v.114h-.227a31.666 31.666 0 0 1-5.774-1.067H7.03l.028-.185Zm1.805 8.135H8.75v-.114a10.466 10.466 0 0 1-1.55-3.755v-.128h.128a23.666 23.666 0 0 1 5.773-1.052h.029v.128c.11.502.303.982.568 1.422l.072.1-.143.1a29.863 29.863 0 0 1-4.764 3.299Zm7.85-1.295a30.716 30.716 0 0 1-1.066 5.774v.128h-.128a10.497 10.497 0 0 1-3.812-1.593l-.113-.07v-.129a23.83 23.83 0 0 1 3.342-4.82l.085-.1.1.07c.44.27.92.467 1.422.584h.128l.042.156Zm.953-1.322a3.27 3.27 0 0 1-2.36-.981 3.328 3.328 0 1 1 4.707 0 3.256 3.256 0 0 1-2.418.98h.071Zm5.902 5.688a10.795 10.795 0 0 1-3.769 1.55h-.128v-.128A25.196 25.196 0 0 1 18.62 22.4v-.128h.114a4.366 4.366 0 0 0 1.422-.568h.1l.085.1a29.728 29.728 0 0 1 3.341 4.82l.072.128-.185.014Zm4.621-6.797c-.269 1.337-.8 2.609-1.564 3.74l-.071.114h-.114a23.929 23.929 0 0 1-4.906-3.428l-.1-.085.072-.114c.274-.437.47-.918.583-1.422v-.128h.128c1.954.164 3.887.517 5.773 1.052h.128l.071.27Zm-.085-4.167c-1.878.59-3.822.944-5.788 1.052h-.113v-.128a4.879 4.879 0 0 0-.57-1.422l-.07-.114.1-.085a30.567 30.567 0 0 1 4.72-3.242h.128l.072.114a10.723 10.723 0 0 1 1.55 3.754v.128l-.029-.057Z" fill="#D1D1D1"/></svg>