<svg width="20" height="23" viewBox="0 0 20 23" fill="none" xmlns="http://www.w3.org/2000/svg">
<path d="M16.65 21.4893L10.997 5.00455C11.7637 4.63486 12.294 3.84978 12.294 2.94318C12.294 1.68218 11.2681 0.65625 10.0071 0.65625C8.74606 0.65625 7.72012 1.68218 7.72012 2.94318C7.72012 3.84978 8.25043 4.63486 9.01713 5.00455L3.36416 21.4893H0.859375V23.0139H19.1547V21.4893H16.65ZM10.0071 2.18086C10.4274 2.18086 10.7694 2.52282 10.7694 2.94318C10.7694 3.3635 10.4274 3.70551 10.0071 3.70551C9.58674 3.70551 9.24473 3.36355 9.24473 2.94318C9.24473 2.52282 9.58674 2.18086 10.0071 2.18086ZM10.0071 6.81784L10.8208 9.19075H9.19334L10.0071 6.81784ZM8.67055 10.7154H11.3437V10.7154L12.197 13.2038L10.0071 15.3146L7.81722 13.2038L8.67055 10.7154ZM7.27147 14.7953L8.90866 16.3734L5.6548 19.5098L7.27147 14.7953ZM5.7979 21.4893L10.0071 17.4321L14.2162 21.4892H5.7979V21.4893ZM11.1056 16.3734L12.7427 14.7953L14.3594 19.5097L11.1056 16.3734Z" fill="white"/>
</svg>
