<svg width="16" height="14" viewBox="0 0 16 14" fill="none" xmlns="http://www.w3.org/2000/svg">
<path d="M6.84686 13.3615C6.94262 13.2682 6.99638 13.1401 6.99586 13.0065L6.99586 10.4024C6.99586 10.1992 7.16055 10.0345 7.36369 10.0345L15.5071 10.0345C15.7793 10.0345 16 9.81387 16 9.54166L16 4.47314C16 4.20094 15.7793 3.98028 15.5071 3.98028L7.36369 3.98028C7.16055 3.98028 6.99586 3.81559 6.99586 3.61245L6.99586 1.00097C7.001 0.728799 6.78455 0.504006 6.51241 0.498868C6.37617 0.496282 6.24493 0.550247 6.1499 0.647868L0.147139 6.65063C0.0543811 6.74194 0.00148459 6.86621 1.62333e-06 6.99638C-0.000480942 7.12911 0.0525529 7.25638 0.147139 7.34949L6.1499 13.3522C6.33979 13.5472 6.65183 13.5514 6.84686 13.3615Z" fill="white"/>
</svg>
