<svg width="20" height="21" viewBox="0 0 20 21" fill="none" xmlns="http://www.w3.org/2000/svg"><path fill-rule="evenodd" clip-rule="evenodd" d="M15 1.333H5c-.92 0-1.667.747-1.667 1.667v15c0 .92.746 1.667 1.667 1.667h10c.92 0 1.666-.746 1.666-1.667V3c0-.92-.746-1.667-1.666-1.667Zm-10 5V3h10v3.333H5ZM5 8v10h10V8H5Zm3.333 8.334H6.666v-1.667h1.667v1.667Zm.833 0h1.667v-1.667H9.166v1.667Zm4.167 0h-1.667v-4.167h1.667v4.167Zm-6.667-2.5h1.667v-1.667H6.666v1.667Zm4.167 0H9.166v-1.667h1.667v1.667Zm-2.5-2.5H6.666V9.667h1.667v1.667Zm.833 0h1.667V9.667H9.166v1.667Zm4.167 0h-1.667V9.667h1.667v1.667Z" fill="#D1D1D1"/></svg>