<svg width="20" height="20" viewBox="0 0 20 20" fill="none" xmlns="http://www.w3.org/2000/svg">
<g clip-path="url(#clip0_1435_16749)">
<path d="M17.4889 3.82008L11.6096 0.429419C10.6168 -0.143159 9.3832 -0.14312 8.39035 0.429419L2.51113 3.82008C1.51637 4.39372 0.898438 5.46352 0.898438 6.61196V13.388C0.898438 14.5365 1.51637 15.6063 2.51109 16.1799L8.39035 19.5706C9.38336 20.1432 10.617 20.1431 11.6096 19.5706L17.4889 16.1799C18.4836 15.6063 19.1016 14.5365 19.1016 13.388V6.61196C19.1016 5.46356 18.4836 4.39375 17.4889 3.82008ZM17.5391 13.388C17.5391 13.9796 17.2208 14.5306 16.7084 14.8261L10.8291 18.2168C10.3177 18.5118 9.6823 18.5118 9.17086 18.2168L3.2916 14.8261C2.77922 14.5306 2.46094 13.9796 2.46094 13.388V6.61196C2.46094 6.02043 2.77922 5.46938 3.29164 5.17391L9.17086 1.78325C9.68234 1.48825 10.3179 1.48836 10.8291 1.78325L16.7084 5.17387C17.2208 5.46938 17.5391 6.0204 17.5391 6.61196V13.388Z" fill="white"/>
<path d="M9.25784 9.40319L6.35624 6.94761C6.0269 6.66886 5.53389 6.70991 5.25518 7.03936C4.97647 7.36882 5.01756 7.86183 5.34694 8.14058L7.54374 9.99972L5.34694 11.8588C5.01756 12.1376 4.97651 12.6306 5.25518 12.96C5.53456 13.2902 6.02768 13.3298 6.35624 13.0517L9.25784 10.5962C9.62698 10.2838 9.62592 9.71472 9.25784 9.40319Z" fill="white"/>
<path d="M14.1482 11.6738H10.6328C10.2013 11.6738 9.85156 12.0236 9.85156 12.4552C9.85156 12.8868 10.2013 13.2366 10.6328 13.2366H14.1482C14.5797 13.2366 14.9295 12.8868 14.9295 12.4552C14.9295 12.0236 14.5797 11.6738 14.1482 11.6738Z" fill="white"/>
</g>
<defs>
<clipPath id="clip0_1435_16749">
<rect width="20" height="20" fill="white"/>
</clipPath>
</defs>
</svg>
