<svg width="21" height="20" viewBox="0 0 21 20" fill="none" xmlns="http://www.w3.org/2000/svg"><path fill-rule="evenodd" clip-rule="evenodd" d="M8.287 2a.574.574 0 0 0-.57.57v1.577c-.096.038-.196.067-.29.11a6.321 6.321 0 0 0-1.266.756c-.076.057-.143.123-.216.185L4.582 4.37a.571.571 0 0 0-.788.203L2.077 7.539a.571.571 0 0 0 .215.785l1.485.839c-.01.07-.022.137-.03.206-.02.21-.033.423-.033.633 0 .211.012.423.034.633.007.07.024.137.033.206l-1.489.835a.572.572 0 0 0-.215.781l1.717 2.97a.572.572 0 0 0 .785.207l1.362-.806c.075.063.146.13.224.19a6.293 6.293 0 0 0 1.266.738c.092.04.188.07.282.106l.004 1.569a.574.574 0 0 0 .57.569h3.43a.574.574 0 0 0 .569-.57l.004-1.568c.094-.036.19-.066.282-.106a6.323 6.323 0 0 0 1.266-.738c.078-.06.148-.127.223-.19l1.363.806a.571.571 0 0 0 .785-.208l1.716-2.969a.572.572 0 0 0-.215-.78l-1.49-.836c.01-.069.027-.136.034-.206.021-.21.035-.422.035-.633 0-.21-.014-.423-.035-.633-.007-.07-.02-.137-.029-.206l1.485-.84a.572.572 0 0 0 .215-.784l-1.716-2.965a.572.572 0 0 0-.79-.203l-1.362.827c-.073-.062-.14-.128-.216-.186a6.32 6.32 0 0 0-.611-.414 6.285 6.285 0 0 0-.653-.341c-.095-.043-.195-.072-.291-.11V2.57a.574.574 0 0 0-.57-.569h-3.43Zm.569 1.144h2.286v1.4c0 .25.165.471.405.544.193.06.382.134.566.215.183.082.363.171.535.274.173.103.338.22.498.342.16.122.31.251.455.392a.573.573 0 0 0 .697.08l1.214-.741 1.135 1.96-1.33.752a.572.572 0 0 0-.277.611c.035.17.063.343.08.515a5.142 5.142 0 0 1-.08 1.543c-.05.242.063.49.278.612l1.325.746-1.135 1.966-1.215-.717a.573.573 0 0 0-.687.076 5.147 5.147 0 0 1-2.055 1.207.573.573 0 0 0-.405.544v1.392h-2.29v-1.392a.573.573 0 0 0-.405-.544 5.158 5.158 0 0 1-.565-.211 5.088 5.088 0 0 1-1.034-.604c-.16-.12-.31-.252-.455-.392a.573.573 0 0 0-.688-.076l-1.215.717-1.135-1.966 1.325-.746a.573.573 0 0 0 .278-.612 5.166 5.166 0 0 1-.105-1.029 5.135 5.135 0 0 1 .105-1.029.572.572 0 0 0-.278-.611l-1.33-.751L4.49 5.65l1.215.742c.222.134.51.101.695-.08.146-.142.296-.271.456-.393a5.18 5.18 0 0 1 .498-.342c.172-.103.352-.192.535-.274.184-.081.373-.155.566-.215a.573.573 0 0 0 .4-.545v-1.4Zm.017 4.564a.57.57 0 0 0-.359.122L6.227 9.542a.572.572 0 0 0 0 .916l2.287 1.713a.571.571 0 1 0 .688-.912l-1.679-1.257 1.679-1.26a.572.572 0 0 0-.33-1.034Zm2.24.004a.572.572 0 0 0-.313 1.029l1.68 1.261-1.68 1.257a.572.572 0 1 0 .688.912l2.286-1.713a.572.572 0 0 0 0-.916L11.488 7.83a.571.571 0 0 0-.375-.118Z" fill="#fff" opacity=".8"/></svg>