<svg width="16" height="16" viewBox="0 0 16 16" fill="none" xmlns="http://www.w3.org/2000/svg">
<path d="M15.8738 8.3323L11.8738 12.8323C11.8069 12.9088 11.7181 12.9628 11.6194 12.987C11.5207 13.0111 11.4169 13.0043 11.3223 12.9673C11.2277 12.9311 11.1462 12.867 11.0887 12.7836C11.0312 12.7002 11.0003 12.6013 11 12.5V9.5H5.5C5.36739 9.5 5.24021 9.44732 5.14645 9.35355C5.05268 9.25979 5 9.13261 5 9V7C5 6.86739 5.05268 6.74021 5.14645 6.64645C5.24021 6.55268 5.36739 6.5 5.5 6.5H11V3.5C11 3.39857 11.0308 3.29953 11.0883 3.21602C11.1459 3.13251 11.2275 3.06848 11.3223 3.03243C11.4171 2.99638 11.5206 2.99001 11.6191 3.01417C11.7176 3.03833 11.8064 3.09187 11.8738 3.1677L15.8738 7.6677C15.9551 7.7593 16 7.87753 16 8C16 8.12247 15.9551 8.2407 15.8738 8.3323ZM5.5 13H3V3H5.5C5.63261 3 5.75979 2.94732 5.85355 2.85355C5.94732 2.75979 6 2.63261 6 2.5V0.5C6 0.367392 5.94732 0.240215 5.85355 0.146447C5.75979 0.0526785 5.63261 0 5.5 0H0.5C0.367392 0 0.240215 0.0526785 0.146447 0.146447C0.0526785 0.240215 0 0.367392 0 0.5V15.5C0 15.6326 0.0526785 15.7598 0.146447 15.8536C0.240215 15.9473 0.367392 16 0.5 16H5.5C5.63261 16 5.75979 15.9473 5.85355 15.8536C5.94732 15.7598 6 15.6326 6 15.5V13.5C6 13.3674 5.94732 13.2402 5.85355 13.1464C5.75979 13.0527 5.63261 13 5.5 13Z" fill="white"/>
</svg>
