<svg width="20" height="20" viewBox="0 0 20 20" fill="none" xmlns="http://www.w3.org/2000/svg">
<path d="M3.71387 4.2853C3.71387 3.96971 3.96971 3.71387 4.2853 3.71387H4.85672C5.17231 3.71387 5.42815 3.96971 5.42815 4.2853C5.42815 4.60088 5.17231 4.85672 4.85672 4.85672H4.2853C3.96971 4.85672 3.71387 4.60088 3.71387 4.2853Z" fill="white" fill-opacity="0.8"/>
<path d="M6.57143 3.71387C6.25584 3.71387 6 3.96971 6 4.2853C6 4.60088 6.25584 4.85672 6.57143 4.85672H7.14286C7.45846 4.85672 7.71429 4.60088 7.71429 4.2853C7.71429 3.96971 7.45846 3.71387 7.14286 3.71387H6.57143Z" fill="white" fill-opacity="0.8"/>
<path d="M11.3105 10.2398C11.4428 9.9532 11.3177 9.61371 11.0312 9.48143C10.7446 9.3492 10.4051 9.47429 10.2729 9.7608L8.69041 13.1894C8.55818 13.4759 8.68327 13.8154 8.96978 13.9477C9.25636 14.0799 9.59584 13.9549 9.72807 13.6683L11.3105 10.2398Z" fill="white" fill-opacity="0.8"/>
<path d="M8.04629 10.959C8.26034 10.7271 8.24589 10.3656 8.01394 10.1515C7.78206 9.93749 7.42057 9.95194 7.20651 10.1838L6.15154 11.3267C5.94949 11.5456 5.94949 11.883 6.15154 12.1019L7.20651 13.2447C7.42057 13.4766 7.78206 13.4911 8.01394 13.277C8.24589 13.063 8.26034 12.7014 8.04629 12.4695L7.34909 11.7143L8.04629 10.959Z" fill="white" fill-opacity="0.8"/>
<path d="M12.7931 10.1838C12.579 9.95194 12.2175 9.93749 11.9856 10.1515C11.7537 10.3656 11.7392 10.7271 11.9533 10.959L12.6505 11.7143L11.9533 12.4695C11.7392 12.7014 11.7537 13.063 11.9856 13.277C12.2175 13.4911 12.579 13.4766 12.7931 13.2447L13.848 12.1019C14.0501 11.883 14.0501 11.5456 13.848 11.3267L12.7931 10.1838Z" fill="white" fill-opacity="0.8"/>
<path fill-rule="evenodd" clip-rule="evenodd" d="M2 3.71429C2 2.76751 2.76751 2 3.71429 2H16.2857C17.2325 2 18 2.76751 18 3.71429V16.2857C18 17.2325 17.2325 18 16.2857 18H3.71429C2.76751 18 2 17.2325 2 16.2857V3.71429ZM16.8571 3.71429V5.42857H3.14286V3.71429C3.14286 3.3987 3.3987 3.14286 3.71429 3.14286H16.2857C16.6013 3.14286 16.8571 3.3987 16.8571 3.71429ZM16.8571 6.57143H3.14286V16.2857C3.14286 16.6013 3.3987 16.8571 3.71429 16.8571H16.2857C16.6013 16.8571 16.8571 16.6013 16.8571 16.2857V6.57143Z" fill="white" fill-opacity="0.8"/>
</svg>
