<svg width="16" height="16" viewBox="0 0 16 16" fill="none" xmlns="http://www.w3.org/2000/svg">
<path d="M1.71387 2.2853C1.71387 1.96971 1.96971 1.71387 2.2853 1.71387H2.85672C3.17231 1.71387 3.42815 1.96971 3.42815 2.2853C3.42815 2.60088 3.17231 2.85672 2.85672 2.85672H2.2853C1.96971 2.85672 1.71387 2.60088 1.71387 2.2853Z" fill="white" fill-opacity="0.8"/>
<path d="M4.57143 1.71387C4.25584 1.71387 4 1.96971 4 2.2853C4 2.60088 4.25584 2.85672 4.57143 2.85672H5.14286C5.45846 2.85672 5.71429 2.60088 5.71429 2.2853C5.71429 1.96971 5.45846 1.71387 5.14286 1.71387H4.57143Z" fill="white" fill-opacity="0.8"/>
<path d="M9.31053 8.23977C9.44276 7.9532 9.31767 7.61371 9.03116 7.48143C8.74458 7.3492 8.4051 7.47429 8.27287 7.7608L6.69041 11.1894C6.55818 11.4759 6.68327 11.8154 6.96978 11.9477C7.25636 12.0799 7.59584 11.9549 7.72807 11.6683L9.31053 8.23977Z" fill="white" fill-opacity="0.8"/>
<path d="M6.04629 8.95903C6.26034 8.72715 6.24589 8.3656 6.01394 8.15154C5.78206 7.93749 5.42057 7.95194 5.20651 8.18383L4.15154 9.32669C3.94949 9.5456 3.94949 9.88297 4.15154 10.1019L5.20651 11.2447C5.42057 11.4766 5.78206 11.4911 6.01394 11.277C6.24589 11.063 6.26034 10.7014 6.04629 10.4695L5.34909 9.71429L6.04629 8.95903Z" fill="white" fill-opacity="0.8"/>
<path d="M10.7931 8.18383C10.579 7.95194 10.2175 7.93749 9.98564 8.15154C9.7537 8.3656 9.73924 8.72715 9.9533 8.95903L10.6505 9.71429L9.9533 10.4695C9.73924 10.7014 9.7537 11.063 9.98564 11.277C10.2175 11.4911 10.579 11.4766 10.7931 11.2447L11.848 10.1019C12.0501 9.88297 12.0501 9.5456 11.848 9.32669L10.7931 8.18383Z" fill="white" fill-opacity="0.8"/>
<path fill-rule="evenodd" clip-rule="evenodd" d="M0 1.71429C0 0.767514 0.767514 0 1.71429 0H14.2857C15.2325 0 16 0.767514 16 1.71429V14.2857C16 15.2325 15.2325 16 14.2857 16H1.71429C0.767514 16 0 15.2325 0 14.2857V1.71429ZM14.8571 1.71429V3.42857H1.14286V1.71429C1.14286 1.3987 1.3987 1.14286 1.71429 1.14286H14.2857C14.6013 1.14286 14.8571 1.3987 14.8571 1.71429ZM14.8571 4.57143H1.14286V14.2857C1.14286 14.6013 1.3987 14.8571 1.71429 14.8571H14.2857C14.6013 14.8571 14.8571 14.6013 14.8571 14.2857V4.57143Z" fill="white" fill-opacity="0.8"/>
</svg>
