<svg width="21" height="20" viewBox="0 0 21 20" fill="none" xmlns="http://www.w3.org/2000/svg">
<path fill-rule="evenodd" clip-rule="evenodd" d="M11.3329 3.74999V2.18089C11.3329 1.64879 11.9554 1.36007 12.3617 1.70377L16.1857 4.93954C16.4807 5.1892 16.4807 5.64411 16.1857 5.89377L12.3617 9.12957C11.9554 9.47324 11.3329 9.18449 11.3329 8.65241V7.08332C8.24259 7.08332 6.58478 7.08332 3.70335 9.40741C3.42471 9.63216 3.00711 9.43566 3.03881 9.07916C3.51256 3.74999 8.17206 3.74999 11.3329 3.74999ZM9.66624 16.25V17.8191C9.66624 18.3512 9.04374 18.6399 8.63752 18.2962L4.81344 15.0604C4.51839 14.8108 4.51839 14.3558 4.81344 14.1062L8.63752 10.8704C9.04374 10.5267 9.66624 10.8155 9.66624 11.3476V12.9167C12.7566 12.9167 14.4144 12.9167 17.2958 10.5926C17.5744 10.3678 17.9921 10.5643 17.9603 10.9208C17.4866 16.25 12.8271 16.25 9.66624 16.25Z" fill="white"/>
</svg>
