<svg width="18" height="14" viewBox="0 0 18 14" fill="none" xmlns="http://www.w3.org/2000/svg">
<path d="M17.1784 5.63337L10.9284 0.633371C10.8672 0.583696 10.7931 0.552415 10.7148 0.543162C10.6365 0.53391 10.5572 0.547065 10.4861 0.5811C10.415 0.615135 10.355 0.668652 10.313 0.735435C10.2711 0.802217 10.249 0.879523 10.2493 0.958371V3.45837C7.91497 3.56378 5.69127 4.48332 3.96426 6.05734C2.23725 7.63137 1.11597 9.76048 0.79511 12.075L0.665944 12.9834C0.653463 13.0747 0.671645 13.1677 0.717639 13.2476C0.763634 13.3275 0.834843 13.3899 0.92011 13.425C0.970823 13.449 1.02656 13.4604 1.08261 13.4584C1.1473 13.4584 1.21109 13.4433 1.26895 13.4144C1.32681 13.3855 1.37713 13.3435 1.41594 13.2917L1.66594 12.9584C2.67416 11.6202 3.96734 10.5229 5.45186 9.74607C6.93637 8.96923 8.57507 8.53222 10.2493 8.46671V10.9667C10.249 11.0456 10.2711 11.1229 10.313 11.1896C10.355 11.2564 10.415 11.3099 10.4861 11.344C10.5572 11.378 10.6365 11.3912 10.7148 11.3819C10.7931 11.3727 10.8672 11.3414 10.9284 11.2917L17.1784 6.2917C17.2271 6.25266 17.2664 6.20319 17.2934 6.14694C17.3204 6.09069 17.3344 6.02909 17.3344 5.9667C17.3344 5.90431 17.3204 5.84272 17.2934 5.78647C17.2664 5.73022 17.2271 5.68075 17.1784 5.6417V5.63337Z" fill="white"/>
</svg>
