<svg width="16" height="16" viewBox="0 0 16 16" fill="none" xmlns="http://www.w3.org/2000/svg">
<path d="M2.66675 4.80005V13.8667C2.66675 14.4558 3.14435 14.9334 3.73341 14.9334H12.2667C12.8558 14.9334 13.3334 14.4558 13.3334 13.8667V4.80005H2.66675ZM5.86675 12.8C5.86675 13.0944 5.62781 13.3334 5.33341 13.3334C5.03901 13.3334 4.80008 13.0944 4.80008 12.8V6.93338C4.80008 6.63898 5.03901 6.40005 5.33341 6.40005C5.62781 6.40005 5.86675 6.63898 5.86675 6.93338V12.8ZM8.53342 12.8C8.53342 13.0944 8.29448 13.3334 8.00008 13.3334C7.70568 13.3334 7.46675 13.0944 7.46675 12.8V6.93338C7.46675 6.63898 7.70568 6.40005 8.00008 6.40005C8.29448 6.40005 8.53342 6.63898 8.53342 6.93338V12.8ZM11.2001 12.8C11.2001 13.0944 10.9611 13.3334 10.6667 13.3334C10.3723 13.3334 10.1334 13.0944 10.1334 12.8V6.93338C10.1334 6.63898 10.3723 6.40005 10.6667 6.40005C10.9611 6.40005 11.2001 6.63898 11.2001 6.93338V12.8Z" fill="white"/>
<path d="M13.3334 2.13332H10.1334V1.86665C10.1334 1.42478 9.77497 1.06665 9.33337 1.06665H6.6667C6.2251 1.06665 5.8667 1.42478 5.8667 1.86665V2.13332H2.6667C2.2251 2.13332 1.8667 2.49145 1.8667 2.93332V3.73332H14.1334V2.93332C14.1334 2.49145 13.775 2.13332 13.3334 2.13332Z" fill="white"/>
</svg>
