<svg width="14" height="14" viewBox="0 0 14 14" fill="none" xmlns="http://www.w3.org/2000/svg">
<path d="M13.6982 13.6982C14.1006 13.2957 14.1006 12.6433 13.6982 12.2408L8.45734 7.00003L13.6982 1.84751C14.1006 1.44508 14.1006 0.792612 13.6982 0.39018C13.2957 -0.0122527 12.6433 -0.0122527 12.2408 0.39018L7.00001 5.5427L1.75915 0.301824C1.35672 -0.100608 0.704253 -0.100608 0.301823 0.301824C-0.100608 0.704256 -0.100608 1.35673 0.301823 1.75916L5.54268 7.00003L0.301823 12.2408C-0.100608 12.6433 -0.100608 13.2957 0.301823 13.6982C0.704253 14.1006 1.35672 14.1006 1.75915 13.6982L7.00001 8.45737L12.2408 13.6982C12.6433 14.1006 13.2957 14.1006 13.6982 13.6982Z" fill="white"/>
</svg>
