<svg width="12" height="10" viewBox="0 0 12 10" fill="none" xmlns="http://www.w3.org/2000/svg">
<path d="M11.6843 0.267065C11.8705 0.454427 11.9751 0.707879 11.9751 0.972065C11.9751 1.23625 11.8705 1.4897 11.6843 1.67706L4.22429 9.61706C4.13018 9.71579 4.01687 9.79422 3.89133 9.84753C3.76579 9.90084 3.63067 9.92791 3.49428 9.92706C3.3579 9.92791 3.22278 9.90084 3.09724 9.84753C2.9717 9.79422 2.85839 9.71579 2.76429 9.61706L0.324285 6.98706C0.223022 6.89424 0.141969 6.78155 0.0861811 6.65602C0.0303928 6.53049 0.00106583 6.39482 2.8515e-05 6.25745C-0.0010088 6.12009 0.0262658 5.98398 0.0801519 5.85763C0.134038 5.73127 0.21338 5.61737 0.313229 5.52303C0.413078 5.42869 0.531294 5.35593 0.660503 5.30929C0.789713 5.26266 0.927145 5.24314 1.06423 5.25197C1.20131 5.26079 1.33511 5.29776 1.45728 5.36058C1.57944 5.42339 1.68735 5.5107 1.77429 5.61706L3.53429 7.48706L10.2643 0.327065C10.3532 0.229303 10.4607 0.150141 10.5804 0.0941556C10.7001 0.0381698 10.8297 0.00647092 10.9618 0.000891528C11.0938 -0.00468786 11.2257 0.015963 11.3497 0.0616501C11.4737 0.107337 11.5874 0.177154 11.6843 0.267065Z" fill="#2BD071"/>
</svg>
