<svg width="20" height="20" viewBox="0 0 20 20" fill="none" xmlns="http://www.w3.org/2000/svg">
<path d="M10 20C15.5228 20 20 15.5228 20 10C20 4.47715 15.5228 0 10 0C4.47715 0 0 4.47715 0 10C0 15.5228 4.47715 20 10 20Z" fill="#FF8C00"/>
<path d="M9.99998 2.8143C7.02855 2.8143 4.59998 5.22859 4.59998 8.2143C4.59998 8.8143 4.69998 9.40001 4.88569 9.97144C5.01426 10.3572 5.44283 10.5714 5.84283 10.4429C6.22855 10.3143 6.44283 9.88573 6.31426 9.48573C6.15712 9.04287 6.08569 8.57144 6.09998 8.10001C6.15712 6.08573 7.78569 4.42859 9.79998 4.32859C12.0428 4.2143 13.9 6.00001 13.9 8.2143C13.9 10.2857 12.2714 11.9857 10.2285 12.1C10.2285 12.1 9.47141 12.1429 9.09998 12.2C8.91426 12.2286 8.77141 12.2572 8.6714 12.2714C8.62855 12.2857 8.58569 12.2429 8.59998 12.2L8.72855 11.5714L9.42855 8.34287C9.51426 7.94287 9.25712 7.54287 8.85712 7.45716C8.45712 7.37144 8.05712 7.62858 7.97141 8.02858C7.97141 8.02858 6.28569 15.8857 6.2714 15.9714C6.18569 16.3714 6.44283 16.7714 6.84283 16.8572C7.24283 16.9429 7.64283 16.6857 7.72855 16.2857C7.74283 16.2 7.97141 15.1572 7.97141 15.1572C8.14283 14.3572 8.79998 13.7714 9.57141 13.6714C9.74283 13.6429 10.4143 13.6 10.4143 13.6C13.2 13.3857 15.4 11.0572 15.4 8.2143C15.4 5.22859 12.9714 2.8143 9.99998 2.8143ZM10.3857 15.2429C9.89998 15.1429 9.41426 15.4429 9.31426 15.9429C9.21426 16.4286 9.51426 16.9143 10.0143 17.0143C10.5 17.1143 10.9857 16.8143 11.0857 16.3143C11.1857 15.8143 10.8857 15.3429 10.3857 15.2429Z" fill="white"/>
</svg>
