<svg width="24" height="18" viewBox="0 0 24 18" fill="none" xmlns="http://www.w3.org/2000/svg">
<path d="M6.8621 14.6999C6.57917 14.6999 6.29385 14.6003 6.06608 14.3975L0 8.99993L6.40295 3.30233C6.89686 2.86433 7.65452 2.90633 8.09449 3.40193C8.53447 3.89753 8.49011 4.65593 7.99499 5.09633L3.60848 8.99993L7.65812 12.6023C8.15324 13.0427 8.19759 13.8011 7.75762 14.2967C7.52145 14.5643 7.19178 14.6999 6.8621 14.6999ZM17.5856 14.6975L23.9886 8.99993L17.9225 3.60233C17.4274 3.16193 16.6697 3.20633 16.2309 3.70193C15.791 4.19753 15.8353 4.95593 16.3305 5.39633L20.3801 8.99993L15.9936 12.9023C15.4985 13.3427 15.4541 14.1011 15.8941 14.5967C16.1302 14.8643 16.4599 14.9999 16.7896 14.9999C17.0725 14.9999 17.3578 14.9003 17.5856 14.6975ZM11.9775 16.3979L14.3752 1.99793C14.4843 1.34393 14.0431 0.725934 13.3897 0.616734C12.734 0.506334 12.1178 0.949134 12.0111 1.60313L9.61341 16.0031C9.50432 16.6571 9.94549 17.2751 10.5989 17.3843C10.666 17.3951 10.7307 17.3999 10.7967 17.3999C11.3721 17.3999 11.8804 16.9835 11.9775 16.3979Z" fill="#282828"/>
</svg>
