<svg width="18" height="18" viewBox="0 0 18 18" fill="none" xmlns="http://www.w3.org/2000/svg">
<path fill-rule="evenodd" clip-rule="evenodd" d="M9 0C5.27208 0 2.25 3.02208 2.25 6.75V9.5573C2.25 9.89548 2.08098 10.2113 1.7996 10.3989L0.986616 10.9409C0.370233 11.3518 0 12.0436 0 12.7844C0 14.008 0.991968 15 2.21562 15H5.65233C5.86585 16.6898 7.30841 17.9967 9.05619 17.9967C10.804 17.9967 12.2465 16.6898 12.4601 15H15.7844C17.008 15 18 14.008 18 12.7844C18 12.0436 17.6298 11.3518 17.0134 10.9409L16.2004 10.3989C15.919 10.2113 15.75 9.89548 15.75 9.5573V6.75C15.75 3.02208 12.7279 0 9 0ZM10.9382 15H9H7.17415C7.37125 15.8573 8.13906 16.4967 9.05619 16.4967C9.97333 16.4967 10.7411 15.8573 10.9382 15ZM3.75 6.75C3.75 3.85051 6.10051 1.5 9 1.5C11.8995 1.5 14.25 3.85051 14.25 6.75V9.5573C14.25 10.397 14.6697 11.1812 15.3684 11.647L16.1813 12.1889C16.3804 12.3217 16.5 12.5451 16.5 12.7844C16.5 13.1796 16.1796 13.5 15.7844 13.5H9H2.21562C1.8204 13.5 1.5 13.1796 1.5 12.7844C1.5 12.5451 1.61958 12.3217 1.81867 12.1889L2.63165 11.647C3.33033 11.1812 3.75 10.397 3.75 9.5573V6.75Z" fill="#ffffff"/>
</svg>
