<svg width="85" height="85" viewBox="0 0 85 85" fill="none" xmlns="http://www.w3.org/2000/svg">
<path d="M80.5102 41.5741L85 40.0677L84.7698 37.5347L80.0784 36.8247C79.9825 36.2202 79.877 35.6062 79.7523 34.9921L83.9159 32.7181L83.254 30.2523L78.5147 30.3674C78.3132 29.7821 78.1021 29.1969 77.8815 28.6212L81.5847 25.666L80.5102 23.3537L75.8668 24.2939C75.5694 23.747 75.2624 23.2097 74.9362 22.682L78.0638 19.132L76.6055 17.0403L72.202 18.7674C71.8183 18.278 71.4154 17.8079 71.0028 17.3377L73.4684 13.2983L71.684 11.5137L67.6354 13.9892C67.1654 13.5766 66.6953 13.1832 66.206 12.7994L67.9328 8.38582L65.8414 6.91782L62.2822 10.0553C61.7545 9.72909 61.2173 9.42206 60.6704 9.12462L61.6106 4.48075L59.2985 3.40614L56.3725 7.10012C55.7968 6.86985 55.2116 6.65877 54.6264 6.46687L54.7415 1.72706L52.276 1.06502L50.0119 5.21955C49.4074 5.09482 48.7935 4.98928 48.1795 4.90292L47.4695 0.22068L44.9368 0L43.4306 4.49035C42.8166 4.48075 42.193 4.48075 41.5694 4.49035L40.0632 0L37.5209 0.22068L36.811 4.90292C36.197 4.99887 35.5926 5.10441 34.9786 5.22915L32.7144 1.06502L30.2585 1.72706L30.3736 6.46687C29.7884 6.66836 29.2032 6.87944 28.6275 7.10012L25.6727 3.39655L23.3606 4.47116L24.3008 9.11502C23.754 9.41246 23.2167 9.71949 22.6891 10.0457L19.1394 6.91782L17.048 8.37623L18.7748 12.7802C18.2856 13.164 17.8155 13.567 17.3454 13.9796L13.3064 11.5137L11.5028 13.3175L13.978 17.3665C13.5655 17.8367 13.1721 18.3068 12.7884 18.7865L8.37528 17.0595L6.91704 19.1511L10.0542 22.7108C9.72799 23.2385 9.42099 23.7758 9.12359 24.3227L4.48025 23.3824L3.40576 25.6948L7.09932 28.6308C6.86907 29.2065 6.65801 29.7917 6.46614 30.377L1.72686 30.2619L1.07449 32.7181L5.22856 34.9825C5.10384 35.587 4.99831 36.201 4.90237 36.8151L0.220655 37.5251L0 40.0677L4.48984 41.5741C4.47065 42.1882 4.47065 42.8118 4.48984 43.4355L0 44.9419L0.220655 47.4845L4.91196 48.1945C5.0079 48.799 5.11343 49.413 5.23815 50.0271L1.07449 52.2915L1.73646 54.7573L6.47573 54.6422C6.6772 55.2275 6.88826 55.8127 7.10892 56.3884L3.40576 59.3436L4.48025 61.6559L9.12359 60.7157C9.42099 61.2626 9.72799 61.7999 10.0542 62.3276L6.92664 65.8776L8.38488 67.9693L12.7884 66.2422C13.1721 66.7316 13.5751 67.2017 13.9876 67.6719L11.5124 71.6921L13.316 73.4959L17.3646 71.0204C17.8347 71.433 18.3047 71.8264 18.794 72.2102L17.0672 76.6238L19.1586 78.0822L22.7178 74.9447C23.2455 75.2709 23.7827 75.5779 24.3296 75.8754L23.3894 80.5192L25.7015 81.5939L28.6563 77.8903C29.2319 78.1206 29.8172 78.3316 30.4024 78.5235L30.2777 83.2633L32.7432 83.9254L35.0073 79.7709C35.6117 79.8956 36.2257 80.0011 36.8397 80.0971L37.5497 84.7793L40.092 85L41.5982 80.5097C42.2122 80.5288 42.8358 80.5288 43.4594 80.5097L44.9656 85L47.5079 84.7793L48.2178 80.0875C48.8222 79.9915 49.4362 79.886 50.0502 79.7613L52.3143 83.9254L54.7703 83.2633L54.6552 78.5235C55.2404 78.322 55.8256 78.111 56.4012 77.8903L59.3561 81.5939L61.6682 80.5192L60.728 75.8754C61.2748 75.5779 61.8121 75.2709 62.3397 74.9447L65.8894 78.0726L67.9808 76.6142L66.254 72.2102C66.7432 71.8264 67.2133 71.4234 67.6834 71.0108L71.7224 73.4767L73.526 71.6729L71.0124 67.6431C71.4249 67.1729 71.8183 66.7028 72.202 66.2135L76.6151 67.9405L78.0734 65.8489L74.9362 62.2892C75.2624 61.7615 75.5694 61.2242 75.8668 60.6773L80.5102 61.6176L81.5847 59.3052L77.8815 56.35C78.1117 55.7744 78.3228 55.1891 78.5147 54.6038L83.254 54.7189L83.9159 52.2531L79.7619 49.9887C79.8866 49.3842 79.9921 48.7702 80.088 48.1561L84.7698 47.4461L85 44.9131L80.5102 43.4067C80.5294 42.8118 80.5198 42.1978 80.5102 41.5741ZM42.5 77.9766C22.9097 77.9766 7.03217 62.0973 7.03217 42.5048C7.03217 22.9123 22.9097 7.03296 42.5 7.03296C62.0903 7.03296 77.9678 22.9123 77.9678 42.5048C77.9678 62.0973 62.0903 77.9766 42.5 77.9766Z" fill="white"/>
</svg>
