<svg width="205" height="49" viewBox="0 0 205 49" fill="none" xmlns="http://www.w3.org/2000/svg">
<g clip-path="url(#clip0)">
<path d="M68.6232 0C66.9324 0.555556 65.2174 1.08696 63.4783 1.57005C46.0386 6.23188 28.4058 5.33816 12.4879 0L9.39612 19.7585L15.6522 21.4493L21.4251 10.8696C22.971 11.1836 24.5169 11.4493 26.0869 11.6908L27.8744 23.599L34.3237 24.1546L38.1642 12.7295C39.7343 12.7778 41.3285 12.7778 42.8985 12.7295L46.7391 24.1546L53.1884 23.599L54.9758 11.6667C56.5217 11.4251 58.0676 11.1594 59.6377 10.8454L65.4106 21.4493L71.6667 19.7826L68.6232 0Z" fill="#E0E0E0"/>
<path d="M56.0628 24.2029L50.2899 34.8067C48.744 34.4927 47.1981 34.227 45.628 33.9855L43.8406 22.0531L37.3672 21.4976L33.5266 32.9227C31.9324 32.8744 30.3623 32.8744 28.7923 32.9227L24.9517 21.4976L18.5024 22.0531L16.715 33.9613C15.1449 34.2029 13.599 34.4686 12.0532 34.7826L6.28021 24.2029L0.0241699 25.8937L3.11596 45.628C19.0338 40.2898 36.6667 39.3961 54.1063 44.0821C55.8454 44.541 57.5604 45.0724 59.2512 45.6521L62.343 25.8937L56.0628 24.2029Z" fill="#E0E0E0"/>
<path d="M104.541 12.319C104.541 12.319 101.739 8.64746 95.7971 8.64746C89.8309 8.64746 82.029 12.0533 82.029 22.8262C82.029 33.5992 89.8309 37.1016 95.7971 37.1016C101.763 37.1016 103.672 34.0339 104.541 32.5364C104.541 39.0822 98.5266 42.2707 90.942 38.5025L87.5362 45.8697C97.3189 50.8214 111.763 49.6861 111.763 32.5847V9.32379H105.556L104.541 12.319ZM97.3189 29.3963C94.9034 29.3963 91.256 27.7296 91.256 22.8262C91.256 17.9228 94.9034 16.2562 97.3189 16.2562C99.7343 16.2562 103.382 17.9228 103.382 22.8262C103.382 27.7296 99.7343 29.3963 97.3189 29.3963Z" fill="#E0E0E0"/>
<path d="M192.101 13.7439L190.604 9.32363H184.396V36.4251H193.019V22.7777C193.019 18.0434 197.126 15.8212 201.449 17.4879L205.024 9.78256C195.918 5.74875 192.101 13.7439 192.101 13.7439Z" fill="#E0E0E0"/>
<path d="M178.019 9.32379H171.812L170.773 12.319C170.773 12.319 167.971 8.64746 162.029 8.64746C156.063 8.64746 148.261 12.633 148.261 22.8262C148.261 32.9228 156.063 37.1016 162.029 37.1016C169.01 37.1016 170.773 32.5363 170.773 32.5363V36.4494H178.019V32.5847V9.32379ZM163.551 29.3963C161.135 29.3963 157.488 27.7296 157.488 22.8262C157.488 17.9228 161.135 16.2562 163.551 16.2562C165.966 16.2562 169.614 17.9228 169.614 22.8262C169.614 27.7296 165.966 29.3963 163.551 29.3963Z" fill="#E0E0E0"/>
<path d="M131.256 8.04346C120.652 8.04346 115.169 15.5555 115.169 22.5845C115.169 29.6135 120.097 37.971 130.483 37.971C140.87 37.971 144.396 31.1836 144.952 30.0966L139.251 26.3768C138.14 28.1642 135.411 30.2657 131.908 30.2657C129.058 30.2657 125.845 28.4058 124.758 25.1691H145.169C145.749 17.4637 141.86 8.04346 131.256 8.04346ZM125.169 19.2995C126.232 17.1014 128.285 15.6522 131.014 15.6522C135 15.6522 136.304 19.2995 136.304 19.2995H125.169Z" fill="#E0E0E0"/>
</g>
<defs>
<clipPath id="clip0">
<rect width="205" height="48.4058" fill="white"/>
</clipPath>
</defs>
</svg>
