<svg width="15" height="15" viewBox="0 0 15 15" fill="none" xmlns="http://www.w3.org/2000/svg">
<path d="M5.17945 0H1.73461C0.778154 0 0 0.778154 0 1.73461V5.17945C0 6.13591 0.778154 6.91406 1.73461 6.91406H5.17945C6.13591 6.91406 6.91406 6.13591 6.91406 5.17945V1.73461C6.91406 0.778154 6.13591 0 5.17945 0ZM5.74219 5.17945C5.74219 5.48974 5.48974 5.74219 5.17945 5.74219H1.73461C1.42433 5.74219 1.17188 5.48974 1.17188 5.17945V1.73461C1.17188 1.42433 1.42433 1.17188 1.73461 1.17188H5.17945C5.48974 1.17188 5.74219 1.42433 5.74219 1.73461V5.17945Z" fill="white"/>
<path d="M13.2422 0H9.84375C8.87449 0 8.08594 0.788555 8.08594 1.75781V5.15625C8.08594 6.12551 8.87449 6.91406 9.84375 6.91406H13.2422C14.2114 6.91406 15 6.12551 15 5.15625V1.75781C15 0.788555 14.2114 0 13.2422 0ZM13.8281 5.15625C13.8281 5.47934 13.5653 5.74219 13.2422 5.74219H9.84375C9.52066 5.74219 9.25781 5.47934 9.25781 5.15625V1.75781C9.25781 1.43473 9.52066 1.17188 9.84375 1.17188H13.2422C13.5653 1.17188 13.8281 1.43473 13.8281 1.75781V5.15625Z" fill="white"/>
<path d="M5.17945 8.08594H1.73461C0.778154 8.08594 0 8.86409 0 9.82055V13.2654C0 14.2218 0.778154 15 1.73461 15H5.17945C6.13591 15 6.91406 14.2218 6.91406 13.2654V9.82055C6.91406 8.86409 6.13591 8.08594 5.17945 8.08594ZM5.74219 13.2654C5.74219 13.5757 5.48974 13.8281 5.17945 13.8281H1.73461C1.42433 13.8281 1.17188 13.5757 1.17188 13.2654V9.82055C1.17188 9.51026 1.42433 9.25781 1.73461 9.25781H5.17945C5.48974 9.25781 5.74219 9.51026 5.74219 9.82055V13.2654Z" fill="white"/>
<path d="M13.2422 8.08594H9.84375C8.87449 8.08594 8.08594 8.87449 8.08594 9.84375V13.2422C8.08594 14.2114 8.87449 15 9.84375 15H13.2422C14.2114 15 15 14.2114 15 13.2422V9.84375C15 8.87449 14.2114 8.08594 13.2422 8.08594ZM13.8281 13.2422C13.8281 13.5653 13.5653 13.8281 13.2422 13.8281H9.84375C9.52066 13.8281 9.25781 13.5653 9.25781 13.2422V9.84375C9.25781 9.52066 9.52066 9.25781 9.84375 9.25781H13.2422C13.5653 9.25781 13.8281 9.52066 13.8281 9.84375V13.2422Z" fill="white"/>
</svg>
