<svg width="12" height="13" viewBox="0 0 12 13" fill="none" xmlns="http://www.w3.org/2000/svg">
<g clip-path="url(#clip0_196_490)">
<path d="M2.9932 9.61162C2.50383 9.17095 2.1508 8.64263 1.91951 8.07536C1.30598 6.57074 1.59327 4.78127 2.79112 3.5469L3.89645 4.65223C3.95732 4.7131 4.06688 4.66928 4.08149 4.57919L4.68528 0.627749C4.69502 0.562013 4.63902 0.506016 4.57329 0.515754L0.619407 1.11955C0.529324 1.13416 0.485501 1.24372 0.546367 1.30458L1.65413 2.41235C-0.174291 4.28217 -0.485927 7.08689 0.714358 9.27808C1.07469 9.93787 1.57379 10.5417 2.20924 11.0481C3.29022 11.9075 4.61954 12.319 5.93913 12.2922L6.18746 10.6683C5.05048 10.7657 3.88184 10.4151 2.9932 9.61162Z" fill="white"/>
<path d="M10.3458 10.5878C12.1743 8.71803 12.4859 5.91331 11.2856 3.72212C10.9253 3.06233 10.4262 2.45853 9.79073 1.95212C8.70974 1.09269 7.38042 0.681233 6.06083 0.708014L5.8125 2.33193C6.94705 2.23454 8.11812 2.58513 9.00677 3.38857C9.49613 3.82924 9.84916 4.35756 10.0805 4.92484C10.694 6.42945 10.4067 8.21892 9.20884 9.45329L8.10351 8.34796C8.04264 8.2871 7.93308 8.33092 7.91848 8.421L7.31468 12.3724C7.30494 12.4382 7.36094 12.4942 7.42668 12.4844L11.3806 11.8806C11.4706 11.866 11.512 11.7565 11.4536 11.6956L10.3458 10.5878Z" fill="white"/>
</g>
<defs>
<clipPath id="clip0_196_490">
<rect width="12" height="12" fill="white" transform="translate(0 0.5)"/>
</clipPath>
</defs>
</svg>
