<svg width="30" height="31" fill="none" xmlns="http://www.w3.org/2000/svg"><g clip-path="url(#a)" fill="#BCBCBC"><path d="M15 14.621a.88.88 0 0 1-.879-.879c0-.36.25-.641.561-.77.312-.13.687-.105.938.148a.879.879 0 1 0 1.245-1.241 2.604 2.604 0 0 0-.986-.614v-1.038a.878.878 0 1 0-1.758 0v1.04c-.51.182-.95.515-1.262.945-.312.43-.496.958-.496 1.53 0 .727.296 1.386.773 1.864a2.629 2.629 0 0 0 1.864.773.88.88 0 0 1 .879.879c0 .36-.248.643-.56.772-.311.129-.686.105-.94-.15a.879.879 0 1 0-1.244 1.241c.265.267.597.476.986.614v1.038a.878.878 0 1 0 1.758 0v-1.04a2.632 2.632 0 0 0 1.758-2.475A2.64 2.64 0 0 0 15 14.62Z"/><path d="M29.514 12.956c-.176-.088-1.964-.952-1.788-.864a13.097 13.097 0 0 0-1.318-3.177l.613-1.838a.881.881 0 0 0-.213-.9l-2.486-2.485a.883.883 0 0 0-.9-.213l-1.837.613a13.102 13.102 0 0 0-3.177-1.318 241.99 241.99 0 0 1-.864-1.788.88.88 0 0 0-.786-.486h-3.516a.88.88 0 0 0-.786.486c-.088.176-.952 1.964-.864 1.788a13.1 13.1 0 0 0-3.177 1.318L6.577 3.48a.883.883 0 0 0-.9.213L3.193 6.178a.88.88 0 0 0-.213.9l.613 1.837a13.102 13.102 0 0 0-1.318 3.177c-.176.088-1.964.952-1.788.864a.88.88 0 0 0-.486.786v3.516a.88.88 0 0 0 .486.786c.176.088 1.964.952 1.788.864.289 1.08.724 2.15 1.318 3.177l-.613 1.838a.88.88 0 0 0 .213.9l2.486 2.485a.88.88 0 0 0 .9.213l1.837-.613a13.103 13.103 0 0 0 3.177 1.318c.088.176.952 1.964.864 1.788a.88.88 0 0 0 .786.486h3.516a.88.88 0 0 0 .786-.486c.088-.176.952-1.964.864-1.788 1.08-.289 2.15-.724 3.177-1.318l1.838.613a.879.879 0 0 0 .9-.213l2.485-2.486a.88.88 0 0 0 .213-.9l-.613-1.837a13.103 13.103 0 0 0 1.318-3.177c.176-.088 1.964-.952 1.788-.864a.88.88 0 0 0 .486-.786v-3.516a.88.88 0 0 0-.486-.786ZM15 23.41a7.91 7.91 0 1 1 0-15.82 7.91 7.91 0 0 1 0 15.82Z"/></g><defs><clipPath id="a"><path fill="#fff" transform="translate(0 .5)" d="M0 0h30v30H0z"/></clipPath></defs></svg>