<svg width="10" height="10" viewBox="0 0 10 10" fill="none" xmlns="http://www.w3.org/2000/svg">
<path fill-rule="evenodd" clip-rule="evenodd" d="M1.66667 8.33333H8.33333V6.66667C8.33333 6.20643 8.70643 5.83333 9.16667 5.83333C9.6269 5.83333 10 6.20643 10 6.66667V8.33333C10 9.25 9.25 10 8.33333 10H1.66667C0.741667 10 0 9.25 0 8.33333V1.66667C0 0.75 0.741667 0 1.66667 0H3.33333C3.79357 0 4.16667 0.373096 4.16667 0.833333C4.16667 1.29357 3.79357 1.66667 3.33333 1.66667H1.66667V8.33333ZM5.83317 0.833333C5.83317 0.373096 6.20627 0 6.6665 0H9.99984V3.33333C9.99984 3.79357 9.62674 4.16667 9.1665 4.16667C8.70626 4.16667 8.33317 3.79357 8.33317 3.33333V2.84167L4.50952 6.66618L3.33452 5.49118L7.15817 1.66667H6.6665C6.20626 1.66667 5.83317 1.29357 5.83317 0.833333Z" fill="#2BD071"/>
</svg>
