<svg width="16" height="18" viewBox="0 0 16 18" fill="none" xmlns="http://www.w3.org/2000/svg">
<path d="M4.8965 17.9999C5.52012 17.9999 5.69637 17.7511 5.69637 17.4331C5.69637 17.1152 5.69637 16.4239 5.68278 15.4423C2.44267 16.1474 1.75127 13.8663 1.75127 13.8663C1.22253 12.5253 0.449798 12.152 0.449798 12.152C-0.60769 11.4331 0.531127 11.447 0.531127 11.447C1.69704 11.5299 2.32066 12.6497 2.32066 12.6497C3.36455 14.447 5.04561 13.9216 5.70992 13.6174C5.76415 13.023 6.02173 12.4562 6.45555 12.0414C3.86616 11.7511 1.1412 10.7419 1.1412 6.2626C1.12765 5.10133 1.56148 3.96769 2.34775 3.12439C2.21219 2.83405 1.81905 1.64511 2.44267 0.027585C2.44267 0.027585 3.41879 -0.290385 5.65569 1.23039C7.56723 0.705014 9.57365 0.705014 11.4852 1.23039C13.695 -0.276525 14.6847 0.027585 14.6847 0.027585C15.3083 1.63129 14.9151 2.82024 14.8067 3.12439C15.593 3.96769 16.0133 5.10133 15.9997 6.2626C15.9997 10.7557 13.2747 11.7372 10.6718 12.0276C11.0785 12.3732 11.4581 13.0921 11.4581 14.1843C11.4581 15.7603 11.4446 17.0045 11.4446 17.3778C11.4446 17.682 11.5801 17.9308 12.2444 17.9308L4.8965 17.9999Z" fill="#BCBCBC"/>
</svg>
