<svg width="16" height="16" fill="none" xmlns="http://www.w3.org/2000/svg"><g clip-path="url(#a)" fill="#fff" fill-opacity=".6"><path fill-rule="evenodd" clip-rule="evenodd" d="M.667 8a7.333 7.333 0 1 0 14.667 0A7.333 7.333 0 0 0 .667 8ZM14 8A6 6 0 1 1 2 8a6 6 0 0 1 12 0Z"/><path d="M6.043 5.5v5H4.75v-5h1.293ZM8.968 5.5c.56 0 1.048.104 1.467.313.418.21.74.504.967.884.232.375.348.81.348 1.303 0 .49-.116.924-.348 1.303-.227.38-.552.675-.975.884-.418.209-.905.313-1.46.313H6.98v-5h1.988Zm-.083 3.946c.489 0 .87-.126 1.141-.378.273-.251.409-.607.409-1.068 0-.46-.136-.82-.409-1.075-.272-.257-.652-.385-1.141-.385h-.613v2.906h.613Z"/></g><defs><clipPath id="a"><path fill="#fff" d="M0 0h16v16H0z"/></clipPath></defs></svg>