<svg width="20" height="21" viewBox="0 0 20 21" fill="none" xmlns="http://www.w3.org/2000/svg"><g clip-path="url(#a)" fill="#fff"><path d="M10.47 5.179a2.34 2.34 0 1 0 0-4.679 2.34 2.34 0 0 0 0 4.679ZM10.469 20.5a1.403 1.403 0 1 0 0-2.807 1.403 1.403 0 0 0 0 2.807ZM4.72 7.325a2.106 2.106 0 1 0 0-4.21 2.106 2.106 0 0 0 0 4.21ZM16.216 17.884a1.17 1.17 0 1 0 0-2.34 1.17 1.17 0 0 0 0 2.34ZM2.34 12.84a1.871 1.871 0 1 0 0-3.743 1.871 1.871 0 0 0 0 3.742ZM18.597 11.902a.935.935 0 1 0 0-1.87.935.935 0 0 0 0 1.87ZM3.563 15.559a1.636 1.636 0 1 0 2.315 2.315c.64-.64.64-1.675 0-2.315a1.63 1.63 0 0 0-2.315 0ZM16.216 5.92a.701.701 0 1 0 0-1.402.701.701 0 0 0 0 1.403Z"/></g><defs><clipPath id="a"><path fill="#fff" transform="translate(0 .5)" d="M0 0h19.999v20H0z"/></clipPath></defs></svg>