<svg width="20" height="21" viewBox="0 0 20 21" fill="none" xmlns="http://www.w3.org/2000/svg"><path d="M9.166 6.375V3.833a.833.833 0 0 0-1.416-.591L1.916 9.075a.834.834 0 0 0 0 1.183l5.834 5.834a.834.834 0 0 0 1.416-.592v-2.583h.709a9.076 9.076 0 0 1 6.966 3.1.832.832 0 0 0 .925.291.833.833 0 0 0 .567-.808c0-7.6-6.733-8.9-9.167-9.125Zm.709 4.858a12.288 12.288 0 0 0-1.667.109.833.833 0 0 0-.708.825v1.325L3.683 9.667 7.5 5.842v1.325A.833.833 0 0 0 8.333 8c.758 0 6.758.167 8.058 5.358a10.893 10.893 0 0 0-6.516-2.125Z" fill="#fff"/></svg>