<svg width="19" height="14" viewBox="0 0 19 14" fill="none" xmlns="http://www.w3.org/2000/svg">
<path d="M7.00033 9.50008L4.52699 11.9734C4.25172 12.2486 3.90102 12.436 3.51924 12.512C3.13746 12.5879 2.74175 12.5489 2.38212 12.4C2.02249 12.251 1.7151 11.9988 1.49882 11.6751C1.28253 11.3515 1.16705 10.971 1.16699 10.5817V9.50008L2.29783 3.84675C2.44886 3.0911 2.85704 2.41112 3.45292 1.92251C4.0488 1.43389 4.79556 1.16683 5.56616 1.16675H13.4345C14.2051 1.16683 14.9518 1.43389 15.5477 1.92251C16.1436 2.41112 16.5518 3.0911 16.7028 3.84675L17.8337 9.50008V10.5809C17.8336 10.9702 17.7181 11.3507 17.5018 11.6743C17.2855 11.9979 16.9782 12.2502 16.6185 12.3991C16.2589 12.5481 15.8632 12.5871 15.4814 12.5111C15.0996 12.4352 14.7489 12.2478 14.4737 11.9726L12.0003 9.50008H7.00033Z" stroke="white" stroke-width="2" stroke-linecap="round" stroke-linejoin="round"/>
<path d="M7 1.16675L7.83333 2.83341H11.1667L12 1.16675" stroke="white" stroke-width="2" stroke-linecap="round" stroke-linejoin="round"/>
</svg>
