<svg width="15" height="15" viewBox="0 0 15 15" fill="none" xmlns="http://www.w3.org/2000/svg">
<path d="M4.36 4.408H5.776V10H4.36V4.408ZM8.37281 10.12C7.97281 10.12 7.61815 10.0373 7.30881 9.872C6.99948 9.70133 6.75948 9.464 6.58881 9.16C6.41815 8.85067 6.33281 8.49333 6.33281 8.088C6.33281 7.688 6.41815 7.33333 6.58881 7.024C6.75948 6.70933 6.99681 6.46667 7.30081 6.296C7.61015 6.12533 7.96748 6.04 8.37281 6.04C8.63948 6.04 8.88481 6.07733 9.10881 6.152C9.33281 6.22667 9.52481 6.33333 9.68481 6.472V4.088H11.0928V10H9.73281V9.616C9.37548 9.952 8.92215 10.12 8.37281 10.12ZM8.74081 9.032C8.95415 9.032 9.14615 8.97867 9.31681 8.872C9.48748 8.76 9.61015 8.61067 9.68481 8.424V7.744C9.61015 7.55733 9.48748 7.41067 9.31681 7.304C9.14615 7.192 8.95415 7.136 8.74081 7.136C8.45281 7.136 8.22081 7.22133 8.04481 7.392C7.86881 7.56267 7.78081 7.79467 7.78081 8.088C7.78081 8.38133 7.86881 8.61333 8.04481 8.784C8.22081 8.94933 8.45281 9.032 8.74081 9.032Z" fill="white"/>
<path d="M11.25 1.25C12.6287 1.25 13.75 2.37125 13.75 3.75V11.25C13.75 12.6287 12.6287 13.75 11.25 13.75H3.75C2.37125 13.75 1.25 12.6287 1.25 11.25V3.75C1.25 2.37125 2.37125 1.25 3.75 1.25H11.25ZM11.25 0H3.75C1.67875 0 0 1.67875 0 3.75V11.25C0 13.3212 1.67875 15 3.75 15H11.25C13.3212 15 15 13.3212 15 11.25V3.75C15 1.67875 13.3212 0 11.25 0Z" fill="white"/>
</svg>
