<svg width="15" height="16" viewBox="0 0 15 16" fill="none" xmlns="http://www.w3.org/2000/svg">
<g clip-path="url(#clip0_136_8174)">
<path d="M10.625 10.4216V14.8083L7.5 13.2498L4.375 14.8083V10.4216" stroke="white" stroke-miterlimit="10"/>
<path d="M7.5 11.4374C10.434 11.4374 12.8125 9.05889 12.8125 6.12488C12.8125 3.19087 10.434 0.812378 7.5 0.812378C4.56599 0.812378 2.1875 3.19087 2.1875 6.12488C2.1875 9.05889 4.56599 11.4374 7.5 11.4374Z" stroke="white" stroke-miterlimit="10"/>
<path d="M7.5 7.83582L9.59375 9.11316L9.02344 6.76941L10.9375 5.21863L8.41797 4.96472L7.5 2.80066L6.58203 4.96472L4.0625 5.21863L5.97656 6.76941L5.40625 9.11316L7.5 7.83582Z" stroke="white" stroke-miterlimit="10"/>
</g>
<defs>
<clipPath id="clip0_136_8174">
<rect width="15" height="15" fill="white" transform="translate(0 0.5)"/>
</clipPath>
</defs>
</svg>
