<svg width="14" height="18" viewBox="0 0 14 18" fill="none" xmlns="http://www.w3.org/2000/svg">
<path d="M10.5812 6.7C10.6936 6.82118 10.7534 6.98193 10.7475 7.14708C10.7417 7.31222 10.6707 7.46833 10.55 7.58125L7.26875 10.6187C7.15253 10.7244 7.0008 10.7824 6.84375 10.7812C6.76123 10.7785 6.68008 10.7594 6.60499 10.725C6.52989 10.6907 6.46235 10.6418 6.40625 10.5813L5.3125 9.38125C5.21272 9.257 5.16417 9.09932 5.17678 8.94046C5.18938 8.7816 5.2622 8.63356 5.38033 8.5266C5.49847 8.41964 5.65299 8.36185 5.81232 8.36504C5.97165 8.36822 6.12374 8.43215 6.2375 8.54375L6.90625 9.275L9.725 6.66875C9.84485 6.5639 10.0002 6.50875 10.1593 6.51456C10.3185 6.52037 10.4694 6.58669 10.5812 6.7ZM13.875 5.025V14C13.875 14.4973 13.6775 14.9742 13.3258 15.3258C12.9742 15.6775 12.4973 15.875 12 15.875C12 16.3723 11.8025 16.8492 11.4508 17.2008C11.0992 17.5525 10.6223 17.75 10.125 17.75H2C1.50272 17.75 1.02581 17.5525 0.674175 17.2008C0.322544 16.8492 0.125 16.3723 0.125 15.875V4C0.125 3.50272 0.322544 3.02581 0.674175 2.67417C1.02581 2.32254 1.50272 2.125 2 2.125C2 1.62772 2.19754 1.15081 2.54917 0.799175C2.90081 0.447544 3.37772 0.25 3.875 0.25H9.95C10.2491 0.251092 10.5435 0.32371 10.8088 0.461791C11.0741 0.599872 11.3025 0.799411 11.475 1.04375L13.5312 3.9375C13.756 4.25551 13.8761 4.6356 13.875 5.025ZM10.75 2.175V3.375C10.75 3.54076 10.8158 3.69973 10.9331 3.81694C11.0503 3.93415 11.2092 4 11.375 4H12.0437L10.75 2.175ZM10.75 15.875H3.875C3.37772 15.875 2.90081 15.6775 2.54917 15.3258C2.19754 14.9742 2 14.4973 2 14V3.375C1.83424 3.375 1.67527 3.44085 1.55806 3.55806C1.44085 3.67527 1.375 3.83424 1.375 4V15.875C1.375 16.0408 1.44085 16.1997 1.55806 16.3169C1.67527 16.4342 1.83424 16.5 2 16.5H10.125C10.2908 16.5 10.4497 16.4342 10.5669 16.3169C10.6842 16.1997 10.75 16.0408 10.75 15.875ZM12.625 5.25H11.375C10.8777 5.25 10.4008 5.05246 10.0492 4.70083C9.69754 4.34919 9.5 3.87228 9.5 3.375V1.5H3.875C3.70924 1.5 3.55027 1.56585 3.43306 1.68306C3.31585 1.80027 3.25 1.95924 3.25 2.125V14C3.25 14.1658 3.31585 14.3247 3.43306 14.4419C3.55027 14.5592 3.70924 14.625 3.875 14.625H12C12.1658 14.625 12.3247 14.5592 12.4419 14.4419C12.5592 14.3247 12.625 14.1658 12.625 14V5.25Z" fill="#ffffff"/>
</svg>
