<svg width="14" height="19" viewBox="0 0 14 19" fill="none" xmlns="http://www.w3.org/2000/svg">
<path d="M10.5812 7.2C10.6936 7.32118 10.7534 7.48193 10.7475 7.64708C10.7417 7.81222 10.6707 7.96833 10.55 8.08125L7.26875 11.1188C7.15253 11.2244 7.0008 11.2824 6.84375 11.2813C6.76123 11.2785 6.68008 11.2594 6.60499 11.225C6.5299 11.1907 6.46235 11.1418 6.40625 11.0813L5.3125 9.88125C5.21272 9.757 5.16417 9.59932 5.17678 9.44046C5.18938 9.2816 5.2622 9.13356 5.38033 9.0266C5.49847 8.91964 5.65299 8.86185 5.81232 8.86503C5.97165 8.86822 6.12374 8.93215 6.2375 9.04375L6.90625 9.775L9.725 7.16875C9.84485 7.0639 10.0002 7.00875 10.1593 7.01456C10.3185 7.02037 10.4694 7.08669 10.5812 7.2V7.2ZM13.875 5.525V14.5C13.875 14.9973 13.6775 15.4742 13.3258 15.8258C12.9742 16.1775 12.4973 16.375 12 16.375C12 16.8723 11.8025 17.3492 11.4508 17.7008C11.0992 18.0525 10.6223 18.25 10.125 18.25H2C1.50272 18.25 1.02581 18.0525 0.674175 17.7008C0.322544 17.3492 0.125 16.8723 0.125 16.375V4.5C0.125 4.00272 0.322544 3.52581 0.674175 3.17417C1.02581 2.82254 1.50272 2.625 2 2.625C2 2.12772 2.19754 1.65081 2.54917 1.29917C2.90081 0.947544 3.37772 0.75 3.875 0.75H9.95C10.2491 0.751092 10.5435 0.82371 10.8088 0.961791C11.0741 1.09987 11.3025 1.29941 11.475 1.54375L13.5313 4.4375C13.756 4.75551 13.8761 5.1356 13.875 5.525V5.525ZM10.75 2.675V3.875C10.75 4.04076 10.8158 4.19973 10.9331 4.31694C11.0503 4.43415 11.2092 4.5 11.375 4.5H12.0437L10.75 2.675ZM10.75 16.375H3.875C3.37772 16.375 2.90081 16.1775 2.54917 15.8258C2.19754 15.4742 2 14.9973 2 14.5V3.875C1.83424 3.875 1.67527 3.94085 1.55806 4.05806C1.44085 4.17527 1.375 4.33424 1.375 4.5V16.375C1.375 16.5408 1.44085 16.6997 1.55806 16.8169C1.67527 16.9342 1.83424 17 2 17H10.125C10.2908 17 10.4497 16.9342 10.5669 16.8169C10.6842 16.6997 10.75 16.5408 10.75 16.375ZM12.625 5.75H11.375C10.8777 5.75 10.4008 5.55246 10.0492 5.20083C9.69754 4.84919 9.5 4.37228 9.5 3.875V2H3.875C3.70924 2 3.55027 2.06585 3.43306 2.18306C3.31585 2.30027 3.25 2.45924 3.25 2.625V14.5C3.25 14.6658 3.31585 14.8247 3.43306 14.9419C3.55027 15.0592 3.70924 15.125 3.875 15.125H12C12.1658 15.125 12.3247 15.0592 12.4419 14.9419C12.5592 14.8247 12.625 14.6658 12.625 14.5V5.75Z" fill="#D1D1D1"/>
</svg>
