<svg width="18" height="19" viewBox="0 0 18 19" fill="none" xmlns="http://www.w3.org/2000/svg">
<g clip-path="url(#clip0_1000_2820)">
<path d="M2.18701 5.77344L3.12108 17.0493C3.18802 17.8624 3.88066 18.5 4.69692 18.5H13.3033C14.1196 18.5 14.8122 17.8624 14.8792 17.0493L15.8132 5.77344H2.18701ZM6.3629 16.3906C6.08686 16.3906 5.85462 16.1759 5.83711 15.8962L5.30976 7.38841C5.29173 7.09746 5.51265 6.84718 5.80311 6.82914C6.10437 6.80802 6.34385 7.03154 6.36238 7.32249L6.88972 15.8303C6.90839 16.1316 6.66999 16.3906 6.3629 16.3906ZM9.52746 15.8633C9.52746 16.1548 9.29159 16.3906 9.00011 16.3906C8.70863 16.3906 8.47277 16.1548 8.47277 15.8633V7.35547C8.47277 7.06399 8.70863 6.82812 9.00011 6.82812C9.29159 6.82812 9.52746 7.06399 9.52746 7.35547V15.8633ZM12.6905 7.38845L12.1631 15.8963C12.1458 16.1731 11.9151 16.4038 11.6039 16.3896C11.3134 16.3716 11.0925 16.1213 11.1105 15.8303L11.6379 7.32253C11.6559 7.03157 11.9108 6.8199 12.1971 6.82918C12.4876 6.84721 12.7085 7.09749 12.6905 7.38845Z" fill="white"/>
<path d="M15.8555 2.60938H12.6914V2.08203C12.6914 1.20966 11.9817 0.5 11.1094 0.5H6.89062C6.01826 0.5 5.30859 1.20966 5.30859 2.08203V2.60938H2.14453C1.56203 2.60938 1.08984 3.08156 1.08984 3.66406C1.08984 4.2465 1.56203 4.71875 2.14453 4.71875C6.9949 4.71875 11.0053 4.71875 15.8555 4.71875C16.438 4.71875 16.9102 4.2465 16.9102 3.66406C16.9102 3.08156 16.438 2.60938 15.8555 2.60938ZM11.6367 2.60938H6.36328V2.08203C6.36328 1.79108 6.59967 1.55469 6.89062 1.55469H11.1094C11.4003 1.55469 11.6367 1.79108 11.6367 2.08203V2.60938Z" fill="white"/>
</g>
<defs>
<clipPath id="clip0_1000_2820">
<rect width="18" height="18" fill="white" transform="translate(0 0.5)"/>
</clipPath>
</defs>
</svg>
