<svg width="20" height="12" viewBox="0 0 20 12" fill="white" fill-opacity="0.7" xmlns="http://www.w3.org/2000/svg">
<path fill-rule="evenodd" clip-rule="evenodd" d="M17.9208 0.99516L9.68751 9.22849L6.78751 6.33683C6.63182 6.18078 6.42045 6.09309 6.20001 6.09309C5.97958 6.09309 5.76821 6.18078 5.61251 6.33683C5.28751 6.66183 5.28751 7.18683 5.61251 7.51183L9.09585 10.9952C9.42085 11.3202 9.94585 11.3202 10.2708 10.9952L19.0958 2.17849C19.4208 1.85349 19.4208 1.32849 19.0958 1.00349H19.0875C18.7708 0.67016 18.2458 0.67016 17.9208 0.99516ZM14.3875 1.00349C14.2318 0.847449 14.0204 0.759755 13.8 0.759755C13.5796 0.759755 13.3682 0.847449 13.2125 1.00349L8.51251 5.70349L9.68751 6.87849L14.3875 2.17016C14.7042 1.85349 14.7042 1.32016 14.3875 1.00349ZM4.38751 11.0035L0.904181 7.52016C0.579181 7.19516 0.579181 6.66183 0.904181 6.33683C1.05987 6.18078 1.27125 6.09309 1.49168 6.09309C1.71211 6.09309 1.92349 6.18078 2.07918 6.33683L6.14585 10.4202L5.56251 11.0035C5.23751 11.3285 4.71251 11.3285 4.38751 11.0035Z" />
</svg>
