<svg width="18" height="18" viewBox="0 0 18 18" fill="white" fill-opacity="0.7" xmlns="http://www.w3.org/2000/svg">
<path fill-rule="evenodd" clip-rule="evenodd" d="M8.99999 0.666504C4.39999 0.666504 0.666656 4.39984 0.666656 8.99984C0.666656 13.5998 4.39999 17.3332 8.99999 17.3332C13.6 17.3332 17.3333 13.5998 17.3333 8.99984C17.3333 4.39984 13.6 0.666504 8.99999 0.666504ZM8.16666 14.8332V13.1665H9.83332V14.8332H8.16666ZM10.8083 9.1415L11.5583 8.37484C12.4083 7.52484 12.7 6.0665 11.7167 4.70817C10.9667 3.6665 9.75832 3.00817 8.49166 3.20817C7.19999 3.40817 6.15832 4.3415 5.79999 5.5665C5.66666 6.03317 5.99999 6.49984 6.48332 6.49984H6.73332C7.05832 6.49984 7.31666 6.2665 7.41666 5.95817C7.69166 5.1665 8.54999 4.6415 9.47499 4.89984C10.0583 5.0665 10.525 5.57484 10.6333 6.17484C10.7417 6.75817 10.5583 7.30817 10.175 7.67484L9.14166 8.72484C8.79166 9.07484 8.51666 9.50817 8.34999 9.9915C8.23332 10.3332 8.16666 10.6998 8.16666 11.0832V11.4998H9.83332C9.83332 11.1165 9.87499 10.8165 9.94166 10.5498C10.0917 9.94984 10.3917 9.5665 10.8083 9.1415Z" />
</svg>
