<svg width="16" height="16" viewBox="0 0 16 16" fill="white" fill-opacity="0.7" xmlns="http://www.w3.org/2000/svg">
<path fill-rule="evenodd" clip-rule="evenodd" d="M13.8333 0.5H2.15833C1.23333 0.5 0.5 1.25 0.5 2.16667V13.8333C0.5 14.75 1.23333 15.5 2.15833 15.5H13.8333C14.75 15.5 15.5 14.75 15.5 13.8333V2.16667C15.5 1.25 14.75 0.5 13.8333 0.5ZM13.8333 10.5H11.225C10.8333 10.5 10.5167 10.7833 10.4083 11.1667C10.1167 12.225 9.14167 13 8 13C6.85833 13 5.88333 12.225 5.59167 11.1667C5.48333 10.7833 5.16667 10.5 4.775 10.5H2.15833V3C2.15833 2.54167 2.53333 2.16667 2.99167 2.16667H13C13.4583 2.16667 13.8333 2.54167 13.8333 3V10.5ZM9.66667 6.33333H11.3333L8.3 9.375C8.13333 9.54167 7.875 9.54167 7.70833 9.375L4.66667 6.33333H6.33333V3.83333H9.66667V6.33333Z" />
</svg>
