<svg width="18" height="18" viewBox="0 0 18 18" fill="white" fill-opacity="0.7" xmlns="http://www.w3.org/2000/svg">
<path fill-rule="evenodd" clip-rule="evenodd" d="M11.1147 0.664198L13.473 3.02253C14.123 3.67253 14.123 4.73086 13.473 5.38086L12.2897 6.5642L7.58135 1.84753L8.75635 0.672531C9.40635 0.0141977 10.4647 0.0141977 11.1147 0.664198ZM6.39801 3.02253L4.03968 5.38086L14.648 15.9892C15.298 16.6392 16.3563 16.6392 17.0063 15.9892C17.6563 15.3392 17.6563 14.2809 17.0063 13.6309L6.39801 3.02253ZM9.67301 16.1559H1.33968C0.881348 16.1559 0.506348 16.5309 0.506348 16.9892C0.506348 17.4475 0.881348 17.8225 1.33968 17.8225H9.67301C10.1313 17.8225 10.5063 17.4475 10.5063 16.9892C10.5063 16.5309 10.1313 16.1559 9.67301 16.1559ZM7.58135 11.2725L2.86468 6.55586L1.68968 7.73086C1.03968 8.38086 1.03968 9.4392 1.68968 10.0892L4.04801 12.4475C4.69801 13.0975 5.75635 13.0975 6.40635 12.4475L7.58135 11.2725Z" />
</svg>
