<svg width="18" height="18" viewBox="0 0 18 18" fill="white" fill-opacity="0.7" xmlns="http://www.w3.org/2000/svg">
<path fill-rule="evenodd" clip-rule="evenodd" d="M0.683319 8.99977C0.683319 4.40811 4.40832 0.683105 8.99999 0.683105C13.5917 0.683105 17.3167 4.40811 17.3167 8.99977C17.3167 13.5914 13.5917 17.3164 8.99999 17.3164C4.40832 17.3164 0.683319 13.5914 0.683319 8.99977ZM8.56665 10.4498V13.8998C8.56665 14.3414 9.15832 14.4831 9.35832 14.0831L12.325 8.14977C12.4583 7.87477 12.2583 7.54977 11.95 7.54977H9.83332V4.05811C9.83332 3.61644 9.24165 3.47477 9.04999 3.86644L5.98332 9.84144C5.83332 10.1164 6.04165 10.4498 6.34999 10.4498H8.56665Z" />
</svg>
