<svg width="18" height="18" viewBox="0 0 18 18" fill="white" fill-opacity="0.7" xmlns="http://www.w3.org/2000/svg">
<path fill-rule="evenodd" clip-rule="evenodd" d="M0.663574 1.49984C0.663574 1.95817 1.03857 2.33317 1.49691 2.33317H2.33024L5.33024 8.65817L4.20524 10.6915C3.59691 11.8082 4.39691 13.1665 5.66357 13.1665H14.8302C15.2886 13.1665 15.6636 12.7915 15.6636 12.3332C15.6636 11.8748 15.2886 11.4998 14.8302 11.4998H5.66357L6.58024 9.83317H12.7886C13.4136 9.83317 13.9636 9.4915 14.2469 8.97484L17.2302 3.5665C17.5386 3.0165 17.1386 2.33317 16.5052 2.33317H4.17191L3.61357 1.1415C3.48024 0.849837 3.18024 0.666504 2.86357 0.666504H1.49691C1.03857 0.666504 0.663574 1.0415 0.663574 1.49984ZM5.66357 13.9998C4.74691 13.9998 4.00524 14.7498 4.00524 15.6665C4.00524 16.5832 4.74691 17.3332 5.66357 17.3332C6.58024 17.3332 7.33024 16.5832 7.33024 15.6665C7.33024 14.7498 6.58024 13.9998 5.66357 13.9998ZM12.3386 15.6665C12.3386 14.7498 13.0802 13.9998 13.9969 13.9998C14.9136 13.9998 15.6636 14.7498 15.6636 15.6665C15.6636 16.5832 14.9136 17.3332 13.9969 17.3332C13.0802 17.3332 12.3386 16.5832 12.3386 15.6665Z" />
</svg>
