<svg width="18" height="18" viewBox="0 0 18 18" fill="white" fill-opacity="0.7" xmlns="http://www.w3.org/2000/svg">
<path fill-rule="evenodd" clip-rule="evenodd" d="M10.7476 6.08333C10.7476 6.54167 10.3726 6.91667 9.91423 6.91667C9.45589 6.91667 9.08089 6.54167 9.08089 6.08333V4.41667H7.41423C6.95589 4.41667 6.58089 4.04167 6.58089 3.58333C6.58089 3.125 6.95589 2.75 7.41423 2.75H9.08089V1.08333C9.08089 0.625 9.45589 0.25 9.91423 0.25C10.3726 0.25 10.7476 0.625 10.7476 1.08333V2.75H12.4142C12.8726 2.75 13.2476 3.125 13.2476 3.58333C13.2476 4.04167 12.8726 4.41667 12.4142 4.41667H10.7476V6.08333ZM4.08923 16.0833C4.08923 15.1667 4.83089 14.4167 5.74756 14.4167C6.66423 14.4167 7.41423 15.1667 7.41423 16.0833C7.41423 17 6.66423 17.75 5.74756 17.75C4.83089 17.75 4.08923 17 4.08923 16.0833ZM14.0809 14.4167C13.1642 14.4167 12.4226 15.1667 12.4226 16.0833C12.4226 17 13.1642 17.75 14.0809 17.75C14.9976 17.75 15.7476 17 15.7476 16.0833C15.7476 15.1667 14.9976 14.4167 14.0809 14.4167ZM12.8726 10.25H6.66423L5.74756 11.9167H14.9142C15.3726 11.9167 15.7476 12.2917 15.7476 12.75C15.7476 13.2083 15.3726 13.5833 14.9142 13.5833H5.74756C4.48089 13.5833 3.68089 12.225 4.28923 11.1083L5.41423 9.075L2.41423 2.75H1.58089C1.12256 2.75 0.747559 2.375 0.747559 1.91667C0.747559 1.45833 1.12256 1.08333 1.58089 1.08333H2.94756C3.26423 1.08333 3.56423 1.26667 3.69756 1.55833L7.02256 8.58333H12.8726L15.6976 3.475C15.9142 3.075 16.4226 2.93333 16.8226 3.15C17.2226 3.375 17.3726 3.88333 17.1476 4.28333L14.3309 9.39167C14.0476 9.90833 13.4976 10.25 12.8726 10.25Z" />
</svg>
