<svg width="16" height="14" viewBox="0 0 16 14" fill="white" fill-opacity="0.7" xmlns="http://www.w3.org/2000/svg">
<path fill-rule="evenodd" clip-rule="evenodd" d="M2.16667 2.00016H13.8333C14.2917 2.00016 14.6667 1.62516 14.6667 1.16683C14.6667 0.708496 14.2917 0.333496 13.8333 0.333496H2.16667C1.70833 0.333496 1.33333 0.708496 1.33333 1.16683C1.33333 1.62516 1.70833 2.00016 2.16667 2.00016ZM14.8 3.50016C14.725 3.11683 14.3833 2.8335 13.9833 2.8335H2.01667C1.61667 2.8335 1.275 3.11683 1.2 3.50016L0.366667 7.66683C0.266667 8.1835 0.658334 8.66683 1.18333 8.66683H1.33333V12.8335C1.33333 13.2918 1.70833 13.6668 2.16667 13.6668H8.83333C9.29167 13.6668 9.66667 13.2918 9.66667 12.8335V8.66683H13V12.8335C13 13.2918 13.375 13.6668 13.8333 13.6668C14.2917 13.6668 14.6667 13.2918 14.6667 12.8335V8.66683H14.8167C15.3417 8.66683 15.7333 8.1835 15.6333 7.66683L14.8 3.50016ZM3 12.0002H8V8.66683H3V12.0002Z"/>
</svg>
