<svg width="57" height="20" viewBox="0 0 57 20" fill="none" xmlns="http://www.w3.org/2000/svg">
<path d="M10.7574 2.65082C10.7574 2.65082 9.47317 0.96936 6.73101 0.96936C3.98884 0.96936 0.396484 2.52837 0.396484 7.47419C0.396484 12.423 3.98884 14.0268 6.73101 14.0268C9.47317 14.0268 10.3503 12.6201 10.7574 11.9272C10.7574 14.9347 7.99132 16.3982 4.49476 14.6719L2.93209 18.0498C7.43451 20.3196 14.0864 19.7969 14.0864 11.9481V1.27698H11.2244L10.7574 2.65082ZM7.43451 10.4966C6.32387 10.4966 4.64744 9.73207 4.64744 7.47718C4.64744 5.22229 6.32387 4.45772 7.43451 4.45772C8.54515 4.45772 10.2216 5.22229 10.2216 7.47718C10.2216 9.73207 8.54515 10.4966 7.43451 10.4966Z" fill="white" data-letter="G"/>
<path d="M51.0632 3.30781L50.3717 1.27691H47.5098V13.7251H51.4793C51.4793 13.7251 51.4793 9.1974 51.4793 7.45919C51.4793 5.29091 53.3653 4.26053 55.3591 5.03108L56.9996 1.48597C52.8145 -0.35975 51.0632 3.30781 51.0632 3.30781Z" fill="white" data-letter="R"/>
<path d="M44.5766 1.27698H41.7147L41.2477 2.65082C41.2477 2.65082 39.9634 0.96936 37.2212 0.96936C34.4791 0.96936 30.8867 2.80314 30.8867 7.47419C30.8867 12.1094 34.4791 14.0268 37.2212 14.0268C40.4394 14.0268 41.2477 11.9272 41.2477 11.9272V13.7222H44.5766V11.9511V1.27698ZM37.9217 10.4966C36.8111 10.4966 35.1347 9.73207 35.1347 7.47718C35.1347 5.22229 36.8111 4.45772 37.9217 4.45772C39.0324 4.45772 40.7088 5.22229 40.7088 7.47718C40.7088 9.73207 39.0324 10.4966 37.9217 10.4966Z" fill="white" data-letter="A"/>
<path d="M23.0546 0.69458C18.1749 0.69458 15.6543 4.15009 15.6543 7.37264C15.6543 10.5952 17.9175 14.436 22.6983 14.436C27.4791 14.436 29.1077 11.3179 29.3591 10.8162L26.7397 9.11084C26.2278 9.92619 24.9735 10.8998 23.3629 10.8998C22.0487 10.8998 20.5728 10.0486 20.0759 8.56429H29.4519C29.7274 5.0162 27.9342 0.69458 23.0546 0.69458ZM20.2555 5.86739C20.7405 4.8609 21.6954 4.19787 22.9438 4.19787C24.7819 4.19787 25.3806 5.86739 25.3806 5.86739H20.2555Z" fill="white" data-letter="E"/>
</svg>
