<svg width="20" height="20" fill="none" xmlns="http://www.w3.org/2000/svg"><path d="M10.007 4.45c1.902 0 3.444-.898 3.444-2.004 0-1.106-1.542-2.003-3.444-2.003s-3.444.897-3.444 2.003 1.542 2.003 3.444 2.003ZM10.007 19.543c1.902 0 3.444-.897 3.444-2.003 0-1.107-1.542-2.003-3.444-2.003s-3.444.896-3.444 2.003c0 1.106 1.542 2.003 3.444 2.003ZM5.207 7.222c.95-1.647.945-3.431-.014-3.985-.959-.553-2.507.333-3.458 1.98C.784 6.866.79 8.65 1.749 9.204c.958.553 2.507-.334 3.458-1.98ZM18.277 14.768c.95-1.647.945-3.431-.013-3.984-.958-.554-2.506.333-3.457 1.98-.951 1.648-.945 3.432.013 3.985.958.553 2.506-.334 3.457-1.981ZM5.193 16.749c.959-.554.965-2.338.014-3.985-.951-1.648-2.5-2.534-3.458-1.98-.96.553-.965 2.337-.014 3.984.951 1.648 2.5 2.534 3.458 1.98ZM18.265 9.203c.958-.553.964-2.337.013-3.984-.951-1.648-2.5-2.535-3.457-1.981-.958.553-.964 2.337-.013 3.984.951 1.647 2.499 2.534 3.457 1.981Z" fill="#fff"/></svg>